<svg viewBox="0 0 697 313" xmlns="http://www.w3.org/2000/svg"><path d="M98 200v50a10 10 0 1 0 20 0v-50a10.001 10.001 0 0 1 20 0v100a10.001 10.001 0 0 0 20 0v-70a10.001 10.001 0 0 1 20 0v40a10.001 10.001 0 0 0 20 0v-70a10.001 10.001 0 0 1 20 0v30a10.001 10.001 0 0 0 20 0v-50a10.001 10.001 0 0 1 20 0v80a10.001 10.001 0 0 0 20 0v-50a10.001 10.001 0 0 1 20 0v60a10.001 10.001 0 0 0 20 0v-70a10.001 10.001 0 0 1 20 0v20a10.001 10.001 0 0 0 20 0v-50a10.001 10.001 0 0 1 20 0v60a10.001 10.001 0 0 0 20 0v-30a10.001 10.001 0 0 1 20 0v100a10.001 10.001 0 0 0 20 0V190a10.001 10.001 0 0 1 20 0v90a10.001 10.001 0 0 0 20 0v-60a10.001 10.001 0 0 1 20 0v50a10.001 10.001 0 0 0 20 0V170a10.001 10.001 0 0 1 20 0v60a10.001 10.001 0 0 0 20 0v-40a10.001 10.001 0 0 1 20 0v80a10.001 10.001 0 0 0 20 0V150" stroke="var(--icon-color-secondary-300, #DBDEE5)" stroke-width="2" stroke-linecap="round" stroke-dasharray="8 6" fill="none"/><path d="M338 302a10 10 0 1 1 20-.002 10 10 0 0 1-20 .002zm200-10v-30a10.001 10.001 0 0 1 20 0v30a10.001 10.001 0 0 1-20 0zm-200-20v-20a10.001 10.001 0 0 1 20 0v20a10.001 10.001 0 0 1-20 0zm-120 0v-10a10.001 10.001 0 0 1 20 0v10a10.001 10.001 0 0 1-20 0z" stroke="var(--icon-color-secondary-300, #DBDEE5)" stroke-width="2" stroke-linecap="round" stroke-dasharray="8 4" fill="none"/><path d="M98 209V74a20.06 20.06 0 0 1 20-20h121.1m212 0H578a20.058 20.058 0 0 1 20 20v84m-154-48h154m-499 0h125H99z" stroke="var(--icon-color-secondary-300, #DBDEE5)" stroke-width="2" stroke-linecap="round" fill="none"/><path d="M158 83a7.002 7.002 0 0 1 11.95-4.95A6.999 6.999 0 0 1 165 90v0a6.95 6.95 0 0 1-4.962-2.037A6.965 6.965 0 0 1 158 83v0zm-20 0a7.002 7.002 0 0 1 11.95-4.95A6.999 6.999 0 0 1 145 90v0a6.95 6.95 0 0 1-4.962-2.037A6.965 6.965 0 0 1 138 83zm-20 0a7.002 7.002 0 0 1 11.95-4.95A6.999 6.999 0 0 1 125 90a6.95 6.95 0 0 1-4.962-2.037A6.965 6.965 0 0 1 118 83zm333.198-7.102h117.8a7.102 7.102 0 0 1 7.1 7.1 7.102 7.102 0 0 1-7.1 7.1h-126.4m-218 0h-34.6a7.098 7.098 0 0 1-7.1-7.1 7.098 7.098 0 0 1 7.1-7.1h54.7" stroke="var(--icon-color-secondary-300, #DBDEE5)" stroke-width="2" stroke-linecap="round" fill="none"/><path d="M455 8h-16m8-8v16m30-8h-16m8-8v16m30-8h-16m8-8v16m30-8h-16m8-8v16m30-8h-16m8-8v16m-36 14h-16m8-8v16m30-8h-16m8-8v16m30-8h-16m8-8v16m30-8h-16m8-8v16m30-8h-16m8-8v16m74 14h-16m8-8v16m8 14h-16m8-8v16m8 14h-16m8-8v16m-14 14h-16m8-8v16m30-8h-16m8-8v16m30-8h-16m8-8v16m-36 14h-16m8-8v16m30-8h-16m8-8v16m30-8h-16m8-8v16m30-8h-16m8-8v16m-36 14h-16m8-8v16m30-8h-16m8-8v16m30-8h-16m8-8v16m-36 14h-16m8-8v16m30-8h-16m8-8v16m-36 14h-16m8-8v16m8 14h-16m8-8v16M242 8h16m-8-8v16m-30-8h16m-8-8v16m-30-8h16m-8-8v16m-30-8h16m-8-8v16m-30-8h16m-8-8v16m36 14h16m-8-8v16m-30-8h16m-8-8v16m-30-8h16m-8-8v16m-30-8h16m-8-8v16m-30-8h16m-8-8v16M44 52h16m-8-8v16m-8 14h16m-8-8v16m-8 14h16m-8-8v16m14 14h16m-8-8v16m-30-8h16m-8-8v16m-30-8h16m-8-8v16m36 14h16m-8-8v16m-30-8h16m-8-8v16m-30-8h16m-8-8v16m-30-8h16m-8-8v16m36 14h16m-8-8v16m-30-8h16m-8-8v16m-30-8h16m-8-8v16m36 14h16m-8-8v16m-30-8h16m-8-8v16m36 14h16m-8-8v16m-8 14h16m-8-8v16" stroke="var(--icon-color-secondary-300, #DBDEE5)" stroke-width="2" fill="none"/><path d="M405 38h-16m8-8v16m-168 99h-16m8-8v16m266-15h-16m8-8v16" stroke="#007DFF" stroke-width="2" fill="none"/><path d="M344.401 155.878a30.366 30.366 0 0 1-14.822-3.544 30.016 30.016 0 0 1-10.865-10.6 53.563 53.563 0 0 1-6.562-16.385 94.112 94.112 0 0 1-2.171-21.111 93.515 93.515 0 0 1 2.171-21.024 53.745 53.745 0 0 1 6.561-16.376 30.037 30.037 0 0 1 10.865-10.628 30.309 30.309 0 0 1 14.823-3.552 30.265 30.265 0 0 1 14.816 3.552 29.93 29.93 0 0 1 10.842 10.629 53.842 53.842 0 0 1 6.542 16.376 93.736 93.736 0 0 1 2.16 21.023 94.347 94.347 0 0 1-2.16 21.105 53.602 53.602 0 0 1-6.539 16.385 29.91 29.91 0 0 1-10.846 10.606 30.312 30.312 0 0 1-14.815 3.544zm-13.1-19.472a18.604 18.604 0 0 0 5.46 5.844 12.788 12.788 0 0 0 7.1 2.088 16.465 16.465 0 0 0 5.116-.768 13.836 13.836 0 0 0 4.271-2.288 21.065 21.065 0 0 0 6.3-9.376 73.783 73.783 0 0 0 3.64-13.6 89.97 89.97 0 0 0 1.213-15.028 70.693 70.693 0 0 0-1.909-16.463l-31.191 49.591zm13.1-72.208a14.073 14.073 0 0 0-8.485 2.665 20.79 20.79 0 0 0-6.269 8.188 52.693 52.693 0 0 0-3.928 12.71 87.976 87.976 0 0 0-1.318 15.817c0 2.65.08 5.529.239 8.558a65.982 65.982 0 0 0 1.548 10l31.446-49.248c-1.933-3.334-4-5.622-6.154-6.8a14.597 14.597 0 0 0-7.079-1.89zm108.16 88.8h-59.78v-11.54h23.34V70.82a92.735 92.735 0 0 1-8.506 5.806 77.54 77.54 0 0 1-13.5 5.995l-1.334.473V70.698l.606-.26a87.558 87.558 0 0 0 12.413-6.51 76.648 76.648 0 0 0 10.646-8.13l.287-.262h12.848v85.92h22.98v11.542zm-165.54 0h-13.52v-26.7h-40.56v-10.91l.175-.256 40.56-59.16.3-.435h13.045v59.161h17.64v11.6h-17.64v26.7zm-39.013-38.3h25.493V77.132l-25.493 37.566z" fill="var(--icon-color-primary-100, #E5F0F8)"/><path d="M344.401 154.879c10.84 0 19.11-4.56 24.81-13.68 5.7-9.12 8.55-21.44 8.55-36.96 0-15.44-2.85-27.73-8.55-36.87-5.7-9.14-13.97-13.71-24.81-13.71-10.84 0-19.12 4.57-24.84 13.71-5.72 9.14-8.58 21.43-8.58 36.87 0 15.52 2.86 27.84 8.58 36.96 5.72 9.12 14 13.68 24.84 13.68zm18.48-70.56a70.849 70.849 0 0 1 2.52 18.96 81.725 81.725 0 0 1-4.92 28.98c-3.28 8.72-8.82 13.08-16.62 13.08a13.703 13.703 0 0 1-7.65-2.25 19.943 19.943 0 0 1-6.09-6.69l32.76-52.08zm-18.48-21.12a15.51 15.51 0 0 1 7.56 2.01c2.44 1.34 4.72 3.91 6.84 7.71l-33.06 51.78a75.586 75.586 0 0 1-2.1-12.51c-.16-3.06-.24-5.93-.24-8.61 0-11.68 1.78-21.33 5.34-28.95 3.56-7.62 8.78-11.43 15.66-11.43zm107.16 88.8v-9.54h-22.98v-85.92h-11.46a82.146 82.146 0 0 1-23.34 14.82v10.32a76.213 76.213 0 0 0 13.32-5.91 94.68 94.68 0 0 0 10.02-6.99v73.68h-23.34v9.54h57.78zm-165.54 0v-26.7h17.64v-9.6h-17.64v-59.16h-11.52l-40.56 59.16v9.6h40.56v26.7h11.52zm-11.52-78.12v41.82h-28.38l28.38-41.82zm69.9 83c-11.524 0-20.451-4.918-26.534-14.617a54.534 54.534 0 0 1-6.689-16.69 95.134 95.134 0 0 1-2.2-21.332 94.535 94.535 0 0 1 2.2-21.25 54.758 54.758 0 0 1 6.688-16.68c6.083-9.72 15.011-14.65 26.535-14.65 11.524 0 20.444 4.93 26.507 14.652a54.82 54.82 0 0 1 6.664 16.68 94.74 94.74 0 0 1 2.189 21.247 95.296 95.296 0 0 1-2.189 21.331 54.616 54.616 0 0 1-6.665 16.689c-6.063 9.701-14.981 14.62-26.506 14.62zm-11.919-20.48a17.163 17.163 0 0 0 4.821 5.012 11.647 11.647 0 0 0 6.558 1.928c3.165.1 6.265-.904 8.768-2.842a20.088 20.088 0 0 0 5.98-8.942 72.728 72.728 0 0 0 3.592-13.416 89.021 89.021 0 0 0 1.2-14.86 70.254 70.254 0 0 0-1.361-13.867L332.482 136.4zm11.919-71.2c-6.088 0-10.617 3.361-13.848 10.277a51.704 51.704 0 0 0-3.852 12.468 86.883 86.883 0 0 0-1.3 15.635c0 2.633.08 5.494.237 8.506.175 2.502.52 4.99 1.03 7.445l29.792-46.66a15.913 15.913 0 0 0-5.459-5.908 13.602 13.602 0 0 0-6.6-1.763zm107.16 88.8h-57.78a2 2 0 0 1-2-2v-9.54a2 2 0 0 1 2-2h21.34V72.817a90.72 90.72 0 0 1-6.993 4.668 78.495 78.495 0 0 1-13.679 6.08 1.999 1.999 0 0 1-2.668-1.886V71.36a1.996 1.996 0 0 1 1.212-1.838 86.512 86.512 0 0 0 12.271-6.435 75.63 75.63 0 0 0 10.507-8.022 2.002 2.002 0 0 1 1.35-.525h11.46a2 2 0 0 1 2 2v83.92h20.98a2.001 2.001 0 0 1 2 2V152a1.998 1.998 0 0 1-2 2zm-165.54 0h-11.52a2 2 0 0 1-2-2v-24.7h-38.56a2 2 0 0 1-2-2v-9.6c0-.404.122-.798.35-1.131l40.56-59.16a2 2 0 0 1 1.65-.869h11.52a2 2 0 0 1 2 2v57.16h15.64a2.001 2.001 0 0 1 2 2v9.6a1.998 1.998 0 0 1-2 2h-15.64v24.7a1.998 1.998 0 0 1-2 2zm-36.126-40.3h22.606v-33.31l-22.606 33.31z" fill="#007DFF"/></svg>