<svg viewBox="0 0 697 433" xmlns="http://www.w3.org/2000/svg"><path d="M98 319.09v50a10 10 0 1020 0v-50a10.001 10.001 0 0120 0v100a10.001 10.001 0 0020 0v-70a10.001 10.001 0 0120 0v40a10.001 10.001 0 0020 0v-70a10.001 10.001 0 0120 0v30a10.001 10.001 0 0020 0v-50a10.001 10.001 0 0120 0v80a10.001 10.001 0 0020 0v-50a10.001 10.001 0 0120 0v60a10.001 10.001 0 0020 0v-73a10.001 10.001 0 0120 0v23a10.001 10.001 0 0020 0v-12a10.001 10.001 0 0120 0v22a10.001 10.001 0 0020 0v-53a10.001 10.001 0 0120 0v123a10.001 10.001 0 0020 0v-110a10.001 10.001 0 0120 0v90a10.001 10.001 0 0020 0v-60a10.001 10.001 0 0120 0v50a10.001 10.001 0 0020 0v-100a10.001 10.001 0 0120 0v60a10.001 10.001 0 0020 0v-40a10.001 10.001 0 0120 0v80a10.001 10.001 0 0020 0v-120" stroke="var(--icon-error-secondary-300, #DBDEE5)" stroke-width="2" stroke-linecap="round" stroke-dasharray="8 6" fill="none"/><path d="M338 421.09a10 10 0 1120-.002 10 10 0 01-20 .002zm200-10v-30a10.001 10.001 0 0120 0v30a10.001 10.001 0 01-20 0zm-200-20v-20a10.001 10.001 0 0120 0v20a10.001 10.001 0 01-20 0zm-120 0v-10a10.001 10.001 0 0120 0v10a10.001 10.001 0 01-20 0z" stroke="var(--icon-error-secondary-300, #DBDEE5)" stroke-width="2" stroke-linecap="round" stroke-dasharray="8 4" fill="none"/><path d="M98 328.09v-135a19.998 19.998 0 0120-20h96.133m266.918 0H578a20 20 0 0120 20v84m-164.037-48H598m-499 0h145.047H99z" stroke="var(--icon-error-secondary-300, #DBDEE5)" stroke-width="2" stroke-linecap="round" fill="none"/><path d="M158 202.09a7 7 0 1114 0 7 7 0 01-14 0v0zm-20 0a7 7 0 1114 0 7 7 0 01-14 0v0zm-20 0a7 7 0 1114 0 7 7 0 01-14 0zm363.175-7.11h87.783a7.114 7.114 0 017.111 7.111 7.113 7.113 0 01-7.111 7.111H462.522m-235.912 0h-36.565a7.115 7.115 0 01-5.029-2.082 7.115 7.115 0 010-10.057 7.116 7.116 0 015.029-2.083h12.691" stroke="var(--icon-error-secondary-300, #DBDEE5)" stroke-width="2" stroke-linecap="round" fill="none"/><path d="M455 127.09h-16m8-8v16m30-8h-16m8-8v16m30-8h-16m8-8v16m30-8h-16m8-8v16m30-8h-16m8-8v16m-36 14h-16m8-8v16m30-8h-16m8-8v16m30-8h-16m8-8v16m30-8h-16m8-8v16m30-8h-16m8-8v16m74 14h-16m8-8v16m8 14h-16m8-8v16m8 14h-16m8-8v16m-14 14h-16m8-8v16m30-8h-16m8-8v16m30-8h-16m8-8v16m-36 14h-16m8-8v16m30-8h-16m8-8v16m30-8h-16m8-8v16m30-8h-16m8-8v16m-36 14h-16m8-8v16m30-8h-16m8-8v16m30-8h-16m8-8v16m-36 14h-16m8-8v16m30-8h-16m8-8v16m-36 14h-16m8-8v16m8 14h-16m8-8v16m-403-228h16m-8-8v16m-30-8h16m-8-8v16m-30-8h16m-8-8v16m-30-8h16m-8-8v16m36 14h16m-8-8v16m-30-8h16m-8-8v16m-30-8h16m-8-8v16m-30-8h16m-8-8v16m-30-8h16m-8-8v16m-74 14h16m-8-8v16m-8 14h16m-8-8v16m-8 14h16m-8-8v16m14 14h16m-8-8v16m-30-8h16m-8-8v16m-30-8h16m-8-8v16m36 14h16m-8-8v16m-30-8h16m-8-8v16m-30-8h16m-8-8v16m-30-8h16m-8-8v16m36 14h16m-8-8v16m-30-8h16m-8-8v16m-30-8h16m-8-8v16m36 14h16m-8-8v16m-30-8h16m-8-8v16m36 14h16m-8-8v16m-8 14h16m-8-8v16" stroke="var(--icon-error-secondary-300, #DBDEE5)" stroke-width="2" fill="none"/><path d="M342 157.09h-16m8-8v16m-64 96h-16m8-8v16m193-120h-16m8-8v16" stroke="var(--icon-error-primary-600, #007DFF)" stroke-width="2" fill="none"/><path d="M278 221.152h-27.052c-1.736 0-1.948-1.111-1.948-1.984v-19.845a1.901 1.901 0 01.873-1.387 1.894 1.894 0 011.627-.196c1.109.417 28.78 11.221 29.5 11.521 1.6.664 2 .608 2 1.985 0 1.377-2.213 2.82-3 7.923-.131.847-.532 1.983-2 1.983z" stroke="var(--icon-error-secondary-300, #DBDEE5)" stroke-width="2" fill="none"/><path d="M199 221.09h41c1.169 0 2-1.139 2-3v-22a3.28 3.28 0 00-2-3c-1.634-.652-28-10-28-10h-4" stroke="var(--icon-error-secondary-300, #DBDEE5)" stroke-width="2" stroke-linecap="round" fill="none"/><path d="M210 229.09h72c2.058 0 3 .353 3-4 0-6.136 4.251-13.678 6-16 1.9-2.526 2.887-4.811 0-6s-67.32-27.954-70-29c-2.68-1.046-5.947-1-8-1m200.816 48.062h27.052c1.736 0 1.948-1.111 1.948-1.984v-19.845a1.901 1.901 0 00-.873-1.387 1.914 1.914 0 00-1.627-.196c-1.109.417-28.78 11.221-29.5 11.521-1.6.664-2 .608-2 1.985 0 1.377 2.213 2.82 3 7.923.13.847.531 1.983 2 1.983z" stroke="var(--icon-error-secondary-300, #DBDEE5)" stroke-width="2" fill="none"/><path d="M492.816 221.09h-41c-1.169 0-2-1.139-2-3v-22a3.282 3.282 0 012-3c1.634-.652 28-10 28-10h4" stroke="var(--icon-error-secondary-300, #DBDEE5)" stroke-width="2" stroke-linecap="round" fill="none"/><path d="M481.814 229.09h-72c-2.058 0-3 .353-3-4 0-6.136-4.251-13.678-6-16-1.9-2.526-2.887-4.811 0-6s67.32-27.954 70-29c2.68-1.046 5.947-1 8-1M347.282 290.301c29.784 0 53.93-24.145 53.93-53.93 0-29.784-24.146-53.93-53.93-53.93-29.785 0-53.93 24.146-53.93 53.93 0 29.785 24.145 53.93 53.93 53.93z" stroke="var(--icon-error-secondary-300, #DBDEE5)" stroke-width="2" fill="none"/><path d="M347.28 283.56c26.062 0 47.19-21.128 47.19-47.19 0-26.063-21.128-47.19-47.19-47.19-26.062 0-47.19 21.127-47.19 47.19 0 26.062 21.128 47.19 47.19 47.19z" stroke="var(--icon-error-primary-600, #007DFF)" stroke-width="2" fill="none"/><path d="M347.28 278.56c23.301 0 42.19-18.889 42.19-42.19s-18.889-42.19-42.19-42.19-42.19 18.889-42.19 42.19 18.889 42.19 42.19 42.19z" stroke="var(--icon-error-primary-600, #007DFF)" stroke-width="2" stroke-linecap="round" stroke-dasharray="4 7" fill="none"/><path d="M330.569 224.75a6.356 6.356 0 01-2.553-1.508 3.188 3.188 0 01-.668-2.125 3.438 3.438 0 011.1-2.7 4.371 4.371 0 013.017-.98c.586.001 1.17.068 1.741.2a8.941 8.941 0 011.724.587v2.434a6.793 6.793 0 00-1.631-.862 4.846 4.846 0 00-1.639-.3 2.266 2.266 0 00-1.386.363 1.234 1.234 0 00-.485 1.046 1.163 1.163 0 00.351.866c.439.339.936.595 1.466.756l1.073.406a4.882 4.882 0 012.242 1.479c.497.67.751 1.49.718 2.324a3.496 3.496 0 01-1.128 2.848 5.224 5.224 0 01-3.41.942 8.445 8.445 0 01-3.702-.883v-2.577c.595.435 1.244.79 1.931 1.056.59.225 1.216.342 1.847.346a2.184 2.184 0 001.428-.418 1.43 1.43 0 00.507-1.166 1.55 1.55 0 00-.338-1 2.216 2.216 0 00-.98-.672l-1.225-.462zm12.566 5.534h-2.493v-10.435h-3.2v-2.18h8.9v2.18h-3.2l-.007 10.435zm9.169-10.6a1.464 1.464 0 00-1.394 1.018 8.965 8.965 0 00-.439 3.292 8.939 8.939 0 00.439 3.283 1.464 1.464 0 002.261.738 1.47 1.47 0 00.533-.738 8.918 8.918 0 00.439-3.283 8.923 8.923 0 00-.439-3.292 1.466 1.466 0 00-1.4-1.018zm-4.428 4.31a8.774 8.774 0 011.12-4.893 3.735 3.735 0 013.308-1.656 3.741 3.741 0 013.317 1.656 8.757 8.757 0 011.12 4.893 8.737 8.737 0 01-1.12 4.885c-.361.54-.857.977-1.439 1.267a3.731 3.731 0 01-1.878.389 3.742 3.742 0 01-3.308-1.661 8.761 8.761 0 01-1.12-4.884v.004zm13.5-4.225v3.7h1.023a2.72 2.72 0 001.72-.414 1.779 1.779 0 00.494-1.437 1.785 1.785 0 00-.494-1.437 2.715 2.715 0 00-1.72-.414l-1.023.002zm-2.493-2.1h3.423a5.988 5.988 0 013.756.93 3.665 3.665 0 011.145 3.017 3.67 3.67 0 01-1.145 3.017 5.988 5.988 0 01-3.756.93h-.93v4.721h-2.487l-.006-12.615z" fill="var(--icon-error-primary-600, #007DFF)"/><path d="M325.23 238.629h44.1" stroke="var(--icon-error-primary-600, #007DFF)" stroke-width="2" stroke-linecap="round" fill="none"/><path d="M352.861 262.845v-3.241a7.483 7.483 0 00-9.369-11.599 7.482 7.482 0 00-.991 11.599v3.241" stroke="var(--icon-error-primary-600, #007DFF)" stroke-width="2" stroke-linecap="round" stroke-linejoin="round" fill="none"/><path d="M344.227 255.938a1.723 1.723 0 001.596-1.066 1.735 1.735 0 00-.375-1.882 1.722 1.722 0 00-1.882-.374 1.726 1.726 0 00.661 3.322v0zm6.91 0a1.726 1.726 0 10-.661-3.322 1.726 1.726 0 00.661 3.322v0zm-5.18 4.605v2.3m3.453-2.3v2.3" stroke="var(--icon-error-primary-600, #007DFF)" stroke-width="2" stroke-linecap="round" stroke-linejoin="round" fill="none"/><path d="M321 147.091s46.7-66.586 48.178-68.647c1.224-1.709 11.493-2.1 24.96-.055s23.279 5.436 23.808 7.47c.599 2.3 12.054 82.232 12.054 82.232M370 91.09l-22 37m67 6l-5-33" stroke="var(--icon-error-primary-600, #007DFF)" stroke-width="2" stroke-linecap="round" stroke-dasharray="4 4" fill="none"/><path d="M447.673 75.722s2.541 1.046 19.514 1.046 28.736-1.12 29.969-4.53c1.233-3.41-.165-4.506-3.136-6.97-2.971-2.462-16.3-11.84-39.377-18.816-23.077-6.977-39.977-10.9-59.937-13.59-19.96-2.69-56.116-6.717-82.588-1.394-3.12.628-10.2 3.177-10.454 5.924-.254 2.747 5.63 7.674 13.242 10.8 7.612 3.126 27.878 9.409 27.878 9.409h.7a4.918 4.918 0 01-1.045-2.788c.146-1.232 2.161-3.534 9.409-4.53 7.248-.996 33.951-2.476 53.316 2.09 19.365 4.568 35.877 9.386 41.12 13.243 5.243 3.857 4.9 5.089 3.833 6.97a14.168 14.168 0 01-2.444 3.136z" fill="var(--icon-error-secondary-200, #EEF3F5)"/><path d="M364.847 76.847c-2.532-1.14-3.909-2.219-3.771-3.122.432-2.833 15.617-2.867 33.915-.075s32.782 7.352 32.35 10.186c-.182 1.192-2.975 1.888-7.513 2.087" stroke="var(--icon-error-secondary-300, #DBDEE5)" stroke-width="2" stroke-linecap="round" fill="none"/><path d="M426.667 84.61s4.677-2.9 5.15-5.993c.473-3.094-15.358-8.081-35.359-11.133-20.001-3.052-36.6-3.015-37.071.082-.471 3.097 1.7 6.272 1.7 6.272" stroke="var(--icon-error-secondary-300, #DBDEE5)" stroke-width="2" fill="none"/><path d="M360.763 72.86c-8.249-2.574-13.192-5.152-12.886-7.131.616-3.981 22.944-6.34 49.005-2.416 26.061 3.923 45.986 12.642 45.371 16.623-.3 1.95-5.643 2.956-14.076 3.014" stroke="var(--icon-error-secondary-300, #DBDEE5)" stroke-width="2" fill="none"/><path d="M442.126 80.389s5.937-5.494 6.558-6.24c.621-.744 2.058-1.9 2.283-3.935.508-4.6-22.171-14.582-52.094-19.087-29.923-4.505-55.454-1.78-56.268 2.773a4.426 4.426 0 00.449 2.918c.5 1.083 4.684 9.243 4.684 9.243" stroke="var(--icon-error-secondary-300, #DBDEE5)" stroke-width="2" fill="none"/><path d="M343.261 57.5c-26-7.222-42.649-14.837-41.745-20.108 1.435-8.363 48.079-12.5 102.267-3.26 54.188 9.24 95.4 28.345 93.966 36.708-.948 5.524-20.941 7.09-50.021 4.855" stroke="var(--icon-error-secondary-300, #DBDEE5)" stroke-width="2" fill="none"/><path d="M301.598 37.03s.294-2.373.385-2.9c1.435-8.363 48.313-12.5 102.5-3.26 54.187 9.242 95.465 28.357 93.966 36.709-.233 1.3-.583 3.306-.583 3.306" stroke="var(--icon-error-secondary-300, #DBDEE5)" stroke-width="2" fill="none"/><path d="M358.574 22.908c4.675-15.761 25.672-25.011 48.471-20.856 22.2 4.047 38.323 19.039 38.054 34.983-43.822-14.045-84.031-13.966-86.525-14.127z" fill="var(--icon-error-primary-100, #E5F0F8)" stroke="var(--icon-error-primary-600, #007DFF)" stroke-width="2" stroke-linecap="round" stroke-linejoin="round"/><path d="M358.574 22.91c4.675-15.762 20.163-4.156 42.963 0 22.2 4.046 43.832-1.818 43.563 14.126-43.823-14.045-84.032-13.966-86.526-14.127z" fill="var(--icon-error-primary-600, #007DFF)"/><path d="M360.9 143.859s-4.841 2.67-5.726 3.7c-.885 1.03-1.894 1.834-3.149 1.138-1.255-.696-1.922-1.673-.859-3.415s2.686-6.445 2.577-7.684c-.109-1.239-.107-3.133 1.718-2.846a3.469 3.469 0 003.149-.569c1.078-.621 2.9-.672 2 .569-.9 1.241 1.45.534 2.577 1.138 1.127.604 8.9-3.435 18.037-4.269 9.137-.834 11.78 1.328 14.6 1.423 2.82.095 5.168 1.722 6.3 2.277 1.132.555 4.853 2.115 6.012 4.838a70.28 70.28 0 004.867 9.676c1.385 1.931 3.6 4.849 1.432 3.7s-2.648-2.538-4.008-5.123c-1.36-2.585-1.827-6.7-3.722-7.969-1.895-1.269-2.288-1.9-2.863-1.992-.575-.092-.613.787-.573 1.992.04 1.205-1.252 4.382-2 5.977a9.97 9.97 0 00-.573 4.838c.065 1.542-.044 4.226 0 4.838.044.612 1.094 1.483.859 3.131a3.837 3.837 0 01-1.432 2.846c-.438.162-1.221.087-1.145-1.707a7.379 7.379 0 00-.286-3.415 7.878 7.878 0 01-.573-3.13c.115-.737-.085 1.3 0 3.7.085 2.4-.143 3.49.286 4.269.429.779-.29 1.746-1.145 2.277-.855.531-2.1 1.4-2-.854a21.983 21.983 0 00-.286-6.546c-.546-1.949-.725-4.363-1.431-5.123-.706-.76-1.139-.245-1.145.569a2.968 2.968 0 01-1.431 2.846c-1.372.835-3.346 1.186-4.294 0-.948-1.186-.894-1.458-2.577-1.138a13.888 13.888 0 01-4.867-.285c-1.553-.249-3.526-1.848-3.722-1.138-.196.71-.251 5.118-.286 6.546a25.334 25.334 0 001.431 7.115c.575.93 1.163 1.985.286 2.846s-2.136 2.5-2.577.569c-.441-1.931-.661-4.607-1.145-6.261s-1.082-3.844-1.145-4.269a15.835 15.835 0 00-.286 3.7 4.52 4.52 0 00.859 2.846c.484.766.074.861-.286 1.138a7.987 7.987 0 01-2 1.138c-.388.037-1.2-.136-1.145-1.992.055-1.856.089-6.4-.573-8.253-.662-1.853-2.247-7.6-2.29-8.253-.043-.653.3-1.347-1.145-1.708a6.827 6.827 0 01-4.305-3.701z" fill="var(--icon-error-secondary-300, #DBDEE5)"/><path d="M393.601 82.136c10.921 1.655 19.506 4.767 19.175 6.951-.331 2.184-9.452 2.613-20.373.958-10.921-1.655-19.506-4.767-19.175-6.95.331-2.185 9.451-2.614 20.373-.959z" fill="var(--icon-error-primary-100, #E5F0F8)"/><path d="M275.893 73.53c-3.618-5.876-13.187-7.329-22.036-3.153-8.618 4.067-13.565 11.9-11.725 18.335a130.307 130.307 0 0133.761-15.182z" stroke="var(--icon-error-secondary-300, #DBDEE5)" stroke-width="2" fill="none"/><path d="M244.633 102.088s-.922.7-7.846 2.559c-6.924 1.859-11.844 2.684-12.72 1.428-.876-1.256-.425-1.856.518-3.186.943-1.33 5.356-6.612 14.006-11.98a152.037 152.037 0 0122.964-12.095c7.848-3.277 22.156-8.873 33.536-9.6 1.341-.085 4.507.18 4.912 1.274.405 1.093-1.458 3.746-4.221 5.854s-10.343 6.885-10.343 6.885l-.284.076c.169-.394.212-.831.122-1.251-.194-.487-1.268-1.205-4.333-.82-3.065.385-14.12 2.7-21.52 6.68-7.4 3.98-13.609 7.75-15.326 9.9-1.717 2.15-1.443 2.611-.8 3.262.396.399.845.74 1.335 1.014z" fill="var(--icon-error-secondary-200, #EEF3F5)"/><path d="M265.785 95.274c-7.2 3.177-12.638 6.67-12.144 7.8.494 1.13 6.732-.523 13.933-3.7s12.638-6.67 12.144-7.8c-.494-1.13-6.732.523-13.933 3.7z" stroke="var(--icon-error-secondary-300, #DBDEE5)" stroke-width="2" fill="none"/><path d="M279.82 91.619c3.082-1.96 4.814-3.557 4.472-4.336-.689-1.567-10.057-.095-20.256 4.365s-17.367 10.217-16.678 11.784c.338.768 2.627.6 6.074-.3" stroke="var(--icon-error-secondary-300, #DBDEE5)" stroke-width="2" fill="none"/><path d="M247.272 102.895s-3.018-1.576-3.352-1.81a2.932 2.932 0 01-1.358-1.344c-.706-1.806 7.461-8.33 19.178-13.425 11.717-5.096 22.427-6.782 23.253-5.026.185.382.232.817.133 1.23-.086.493-.907 4.257-.907 4.257" stroke="var(--icon-error-secondary-300, #DBDEE5)" stroke-width="2" fill="none"/><path d="M285.24 83.279c9.819-5.777 15.781-10.691 14.839-12.734-1.5-3.242-20.972.177-42.071 9.853-21.099 9.676-35.828 21.946-34.333 25.188.988 2.141 9.314.592 20.933-3.494" stroke="var(--icon-error-secondary-300, #DBDEE5)" stroke-width="2" fill="none"/><path d="M292.526 126.587c1.076.084 2.143.26 3.189.527.579.281 1.17.44 1.584-.1.121-.112.213-.253.267-.409a1.007 1.007 0 00-.155-.935 1.007 1.007 0 00-.384-.303 10.91 10.91 0 01-2.572-2.854c-.187-.56-.545-1.383-1.285-.913a1.643 1.643 0 01-1.477.347c-.586-.066-1.387.255-.764.626s-.53.506-.905.982-4.517.187-8.649 1.551c-4.132 1.364-4.871 2.8-6.08 3.377a6.949 6.949 0 00-2.309 2.18c-.387.455-1.711 1.836-1.7 3.239a33.291 33.291 0 01-.289 5.127c-.237 1.1-.649 2.788.076 1.879.725-.909.672-1.6.775-2.985.103-1.385-.472-3.26.113-4.168.585-.908.636-1.259.869-1.407.233-.148.415.227.625.758a9.994 9.994 0 002 2.22 4.74 4.74 0 011.163 2c.263.683.817 1.829.914 2.1.097.271-.2.851.218 1.523.418.672.939.979 1.16.967.221-.012.547-.193.175-.959a3.505 3.505 0 01-.521-1.539 3.738 3.738 0 00-.342-1.469c-.189-.3.283.551.7 1.609.417 1.058.722 1.491.682 1.91-.04.419.456.7.928.774.472.074 1.178.213.71-.75a10.433 10.433 0 01-1.112-2.9 9.22 9.22 0 01-.345-2.5c.163-.464.449-.322.605.031a1.41 1.41 0 001.16.967c.754.1 1.679-.116 1.867-.811.188-.695.113-.8.905-.982a6.57 6.57 0 002.063-1.043c.628-.4 1.184-1.47 1.4-1.2.216.27 1.076 2.178 1.361 2.792.401 1.081.644 2.214.721 3.364-.074.513-.131 1.083.413 1.292.544.209 1.4.684 1.228-.239-.172-.923-.583-2.128-.685-2.939-.102-.811-.255-1.876-.308-2.073a7.54 7.54 0 01.823 1.555c.211.435.269.929.164 1.4-.066.425.13.388.339.441.354.092.72.131 1.086.117.176-.057.5-.286.122-1.083a15.098 15.098 0 01-1.31-3.7c-.063-.932-.459-3.731-.563-4.021-.104-.29-.383-.53.175-.959a3.228 3.228 0 001.175-2.414z" fill="var(--icon-error-secondary-300, #DBDEE5)"/><path d="M256 108.09v34m6-21v14m22-40l32 21m-27.309-11.461l14.49 9.51" stroke="var(--icon-error-secondary-300, #DBDEE5)" stroke-width="2" stroke-linecap="round" stroke-dasharray="4 4" fill="none"/></svg>
