<svg viewBox="0 0 697 314" xmlns="http://www.w3.org/2000/svg"><path d="M98 200.09v50a10 10 0 1 0 20 0v-50a10.001 10.001 0 0 1 20 0v100a10.001 10.001 0 0 0 20 0v-70a10.001 10.001 0 0 1 20 0v40a10.001 10.001 0 0 0 20 0v-70a10.001 10.001 0 0 1 20 0v30a10.001 10.001 0 0 0 20 0v-50a10.001 10.001 0 0 1 20 0v80a10.001 10.001 0 0 0 20 0v-50a10.001 10.001 0 0 1 20 0v60a10.001 10.001 0 0 0 20 0v-70a10.001 10.001 0 0 1 20 0v20a10.001 10.001 0 0 0 20 0v-50a10.001 10.001 0 0 1 20 0v60a10.001 10.001 0 0 0 20 0v-30a10.001 10.001 0 0 1 20 0v100a10.001 10.001 0 0 0 20 0v-110a10.001 10.001 0 0 1 20 0v90a10.001 10.001 0 0 0 20 0v-60a10.001 10.001 0 0 1 20 0v50a10.001 10.001 0 0 0 20 0v-100a10.001 10.001 0 0 1 20 0v60a10.001 10.001 0 0 0 20 0v-40a10.001 10.001 0 0 1 20 0v80a10.001 10.001 0 0 0 20 0v-120" stroke="var(--icon-error-secondary-300, #DBDEE5)" stroke-width="2" stroke-linecap="round" stroke-dasharray="8 6" fill="none"/><path d="M338 302.09a10 10 0 1 1 20-.002 10 10 0 0 1-20 .002zm200-10v-30a10.001 10.001 0 0 1 20 0v30a10.001 10.001 0 0 1-20 0zm-200-20v-20a10.001 10.001 0 0 1 20 0v20a10.001 10.001 0 0 1-20 0zm-120 0v-10a10.001 10.001 0 0 1 20 0v10a10.001 10.001 0 0 1-20 0z" stroke="var(--icon-error-secondary-300, #DBDEE5)" stroke-width="2" stroke-linecap="round" stroke-dasharray="8 4" fill="none"/><path d="M98 209.09v-135a20.06 20.06 0 0 1 20-20h121.1m212 0H578a20.058 20.058 0 0 1 20 20v84m-134-48h134m-499 0h125H99z" stroke="var(--icon-error-secondary-300, #DBDEE5)" stroke-width="2" stroke-linecap="round" fill="none"/><path d="M158 83.09a7.001 7.001 0 0 1 13.866-1.366A7 7 0 0 1 165 90.09v0a6.95 6.95 0 0 1-4.962-2.038A6.965 6.965 0 0 1 158 83.09v0zm-20 0a7.001 7.001 0 0 1 13.866-1.366A7 7 0 0 1 145 90.09v0a6.95 6.95 0 0 1-4.962-2.038A6.965 6.965 0 0 1 138 83.09zm-20 0a7.001 7.001 0 0 1 13.866-1.366A7 7 0 0 1 125 90.09a6.95 6.95 0 0 1-4.962-2.038A6.965 6.965 0 0 1 118 83.09zm343.198-7.102h107.8a7.102 7.102 0 0 1 7.1 7.1 7.102 7.102 0 0 1-7.1 7.1h-116.4m-228 0h-34.6a7.098 7.098 0 0 1-7.1-7.1 7.099 7.099 0 0 1 7.1-7.1h54.7" stroke="var(--icon-error-secondary-300, #DBDEE5)" stroke-width="2" stroke-linecap="round" fill="none"/><path d="M435.401 151.789h-13.3v-26.2h-39.7v-10.7l.2-.3 39.7-57.9.3-.4h12.8v57.9h17.3v11.4h-17.3v26.2zm-38.2-37.6h24.9v-36.7l-24.9 36.7zm-109.9 37.6h-13.3v-26.2h-39.7v-10.7l.2-.3 39.7-57.9.3-.4h12.8v57.9h17.3v11.4h-17.3v26.2zm-38.2-37.6h24.9v-36.7l-24.9 36.7z" fill="var(--icon-error-primary-100, #E5F0F8)"/><path d="M434.399 150.789v-26.2h17.3v-9.4h-17.3v-57.9h-11.3l-39.7 57.9v9.4h39.7v26.2h11.3zm-11.3-76.5v41h-27.8l27.8-41zm-136.8 76.5v-26.2h17.3v-9.4h-17.3v-57.9h-11.3l-39.7 57.9v9.4h39.7v26.2h11.3zm-11.3-76.5v41h-27.8l27.8-41zm159.4 78.5h-11.3a2.008 2.008 0 0 1-2-2v-24.2h-37.7a2.012 2.012 0 0 1-1.413-.587 2.012 2.012 0 0 1-.587-1.413v-9.4a1.486 1.486 0 0 1 .4-1.1l39.7-57.9a2.19 2.19 0 0 1 1.6-.9h11.3a2.003 2.003 0 0 1 2 2v55.9h15.3a2.005 2.005 0 0 1 2 2v9.4a2.009 2.009 0 0 1-2 2h-15.3v24.2a2.009 2.009 0 0 1-2 2zm-35.4-39.6h22v-32.5l-22 32.5zm-112.7 39.6h-11.3a2.008 2.008 0 0 1-2-2v-24.2h-37.7a2.008 2.008 0 0 1-2-2v-9.4a1.504 1.504 0 0 1 .4-1.1l39.7-57.9a2.19 2.19 0 0 1 1.6-.9h11.3a2.003 2.003 0 0 1 2 2v55.9h15.3a2.005 2.005 0 0 1 2 2v9.4a2.009 2.009 0 0 1-2 2h-15.3v24.2a2.009 2.009 0 0 1-2 2zm-35.3-39.6h22v-32.5l-22 32.5z" fill="var(--icon-error-primary-600, #007DFF)"/><path d="M343.397 154.587a29.63 29.63 0 0 1-14.5-3.5 28.503 28.503 0 0 1-10.6-10.4 52.108 52.108 0 0 1-6.4-16.1 102.581 102.581 0 0 1 0-41.3 52.517 52.517 0 0 1 6.4-16 27.948 27.948 0 0 1 25.1-13.9 29.628 29.628 0 0 1 14.5 3.5 28.5 28.5 0 0 1 10.6 10.4 52.543 52.543 0 0 1 6.4 16 92.62 92.62 0 0 1 2.1 20.6 93.52 93.52 0 0 1-2.1 20.7 54.193 54.193 0 0 1-6.4 16.1 27.95 27.95 0 0 1-25.1 13.9zm-12.8-19.1a19.595 19.595 0 0 0 5.3 5.7 12.09 12.09 0 0 0 6.9 2 15.903 15.903 0 0 0 5-.8 14.108 14.108 0 0 0 4.2-2.2c2.6-2 4.6-5.1 6.2-9.2a72.39 72.39 0 0 0 3.6-13.3 87.548 87.548 0 0 0 1.2-14.7 66.36 66.36 0 0 0-1.9-16.1l-30.5 48.6zm12.8-70.7a14.108 14.108 0 0 0-8.3 2.6 20.47 20.47 0 0 0-6.1 8 48.73 48.73 0 0 0-3.8 12.4 82.274 82.274 0 0 0-1.3 15.5c0 2.6.1 5.4.2 8.4.217 3.27.719 6.516 1.5 9.7l30.8-48.2c-1.9-3.3-3.9-5.5-6-6.6a14.884 14.884 0 0 0-7-1.8z" fill="var(--icon-error-primary-100, #E5F0F8)"/><path d="M343.398 54.488c-10.6 0-18.7 4.5-24.3 13.4-5.6 9-8.4 21-8.4 36.1 0 15.2 2.8 27.3 8.4 36.2 5.6 8.9 13.7 13.4 24.3 13.4 10.6 0 18.7-4.5 24.3-13.4 5.6-8.9 8.4-21 8.4-36.2 0-15.1-2.8-27.2-8.4-36.1-5.5-8.9-13.6-13.4-24.3-13.4zm-18.2 69.6a82.89 82.89 0 0 1-2.1-12.3c-.2-3-.2-5.8-.2-8.4 0-11.4 1.7-20.9 5.2-28.4s8.6-11.2 15.3-11.2a15.52 15.52 0 0 1 7.4 2c2.4 1.3 4.6 3.8 6.7 7.6l-32.3 50.7zm17.7 20.2a13.405 13.405 0 0 1-7.5-2.2 20.4 20.4 0 0 1-6-6.6l32.1-51a71.303 71.303 0 0 1 2.5 18.6 80.584 80.584 0 0 1-4.8 28.4c-3.2 8.5-8.6 12.8-16.3 12.8zm.5-91.8c11.3 0 20.1 4.8 26 14.4a51.968 51.968 0 0 1 6.5 16.3 93.805 93.805 0 0 1 2.1 20.8 95.312 95.312 0 0 1-2.1 20.9 53.554 53.554 0 0 1-6.5 16.4c-5.9 9.5-14.7 14.3-26 14.3s-20.1-4.8-26-14.3a54.16 54.16 0 0 1-6.6-16.4 95.112 95.112 0 0 1-2.2-20.9 87.935 87.935 0 0 1 2.2-20.8 51.298 51.298 0 0 1 6.6-16.4c6-9.5 14.7-14.3 26-14.3zm11.8 20.8a15.563 15.563 0 0 0-5.3-5.7 13.621 13.621 0 0 0-6.4-1.7c-5.9 0-10.4 3.3-13.5 10a52.894 52.894 0 0 0-3.8 12.2 89.255 89.255 0 0 0-1.3 15.3c0 2.6.1 5.4.2 8.3a48.776 48.776 0 0 0 1 7.2l29.1-45.6zm-12.3 69c3.106.103 6.15-.888 8.6-2.8a19.015 19.015 0 0 0 5.8-8.7 68.05 68.05 0 0 0 3.5-13.1 85.083 85.083 0 0 0 1.2-14.5 67.092 67.092 0 0 0-1.3-13.5l-28.9 45.9a17.027 17.027 0 0 0 4.7 4.9 11.892 11.892 0 0 0 6.4 1.8z" fill="var(--icon-error-primary-600, #007DFF)"/><path d="M455 8.09h-16m8-8v16m30-8h-16m8-8v16m30-8h-16m8-8v16m30-8h-16m8-8v16m30-8h-16m8-8v16m-36 14h-16m8-8v16m30-8h-16m8-8v16m30-8h-16m8-8v16m30-8h-16m8-8v16m30-8h-16m8-8v16m74 14h-16m8-8v16m8 14h-16m8-8v16m8 14h-16m8-8v16m-14 14h-16m8-8v16m30-8h-16m8-8v16m30-8h-16m8-8v16m-36 14h-16m8-8v16m30-8h-16m8-8v16m30-8h-16m8-8v16m30-8h-16m8-8v16m-36 14h-16m8-8v16m30-8h-16m8-8v16m30-8h-16m8-8v16m-36 14h-16m8-8v16m30-8h-16m8-8v16m-36 14h-16m8-8v16m8 14h-16m8-8v16m-381-228h16m-8-8v16m-30-8h16m-8-8v16m-30-8h16m-8-8v16m-30-8h16m-8-8v16m-30-8h16m-8-8v16m36 14h16m-8-8v16m-30-8h16m-8-8v16m-30-8h16m-8-8v16m-30-8h16m-8-8v16m-30-8h16m-8-8v16m-74 14h16m-8-8v16m-8 14h16m-8-8v16m-8 14h16m-8-8v16m14 14h16m-8-8v16m-30-8h16m-8-8v16m-30-8h16m-8-8v16m36 14h16m-8-8v16m-30-8h16m-8-8v16m-30-8h16m-8-8v16m-30-8h16m-8-8v16m36 14h16m-8-8v16m-30-8h16m-8-8v16m-30-8h16m-8-8v16m36 14h16m-8-8v16m-30-8h16m-8-8v16m36 14h16m-8-8v16m-8 14h16m-8-8v16" stroke="var(--icon-error-secondary-300, #DBDEE5)" stroke-width="2" fill="none"/><path d="M405 38.09h-16m8-8v16m-168 99h-16m8-8v16m266-15h-16m8-8v16" stroke="var(--icon-error-primary-600, #007DFF)" stroke-width="2" fill="none"/></svg>
