<svg viewBox="0 0 697 314" xmlns="http://www.w3.org/2000/svg"><path d="M98 200.09v50a10 10 0 1020 0v-50a10.001 10.001 0 0120 0v100a10.001 10.001 0 0020 0v-70a10.001 10.001 0 0120 0v40a10.001 10.001 0 0020 0v-70a10.001 10.001 0 0120 0v30a10.001 10.001 0 0020 0v-50a10.001 10.001 0 0120 0v80a10.001 10.001 0 0020 0v-50a10.001 10.001 0 0120 0v60a10.001 10.001 0 0020 0v-70a10.001 10.001 0 0120 0v20a10.001 10.001 0 0020 0v-50a10.001 10.001 0 0120 0v60a10.001 10.001 0 0020 0v-30a10.001 10.001 0 0120 0v100a10.001 10.001 0 0020 0v-110a10.001 10.001 0 0120 0v90a10.001 10.001 0 0020 0v-60a10.001 10.001 0 0120 0v50a10.001 10.001 0 0020 0v-100a10.001 10.001 0 0120 0v60a10.001 10.001 0 0020 0v-40a10.001 10.001 0 0120 0v80a10.001 10.001 0 0020 0v-120" stroke="var(--icon-error-secondary-300, #DBDEE5)" stroke-width="2" stroke-linecap="round" stroke-dasharray="8 6" fill="none"/><path d="M338 302.09a10 10 0 1120-.002 10 10 0 01-20 .002zm200-10v-30a10.001 10.001 0 0120 0v30a10.001 10.001 0 01-20 0zm-200-20v-20a10.001 10.001 0 0120 0v20a10.001 10.001 0 01-20 0zm-120 0v-10a10.001 10.001 0 0120 0v10a10.001 10.001 0 01-20 0z" stroke="var(--icon-error-secondary-300, #DBDEE5)" stroke-width="2" stroke-linecap="round" stroke-dasharray="8 4" fill="none"/><path d="M98 209.09v-135a20.06 20.06 0 0120-20h121.1m212 0H578a20.058 20.058 0 0120 20v84m-134-48h134m-499 0h125H99z" stroke="var(--icon-error-secondary-300, #DBDEE5)" stroke-width="2" stroke-linecap="round" fill="none"/><path d="M158 83.09a7.001 7.001 0 0113.866-1.366A7 7 0 01165 90.09v0a6.95 6.95 0 01-4.962-2.038A6.965 6.965 0 01158 83.09v0zm-20 0a7.001 7.001 0 0113.866-1.366A7 7 0 01145 90.09v0a6.95 6.95 0 01-4.962-2.038A6.965 6.965 0 01138 83.09zm-20 0a7.001 7.001 0 0113.866-1.366A7 7 0 01125 90.09a6.95 6.95 0 01-4.962-2.038A6.965 6.965 0 01118 83.09zm343.198-7.102h107.8a7.102 7.102 0 017.1 7.1 7.102 7.102 0 01-7.1 7.1h-106.4m-238 0h-34.6a7.098 7.098 0 01-7.1-7.1 7.099 7.099 0 017.1-7.1h54.7" stroke="var(--icon-error-secondary-300, #DBDEE5)" stroke-width="2" stroke-linecap="round" fill="none"/><path d="M455 8.09h-16m8-8v16m30-8h-16m8-8v16m30-8h-16m8-8v16m30-8h-16m8-8v16m30-8h-16m8-8v16m-36 14h-16m8-8v16m30-8h-16m8-8v16m30-8h-16m8-8v16m30-8h-16m8-8v16m30-8h-16m8-8v16m74 14h-16m8-8v16m8 14h-16m8-8v16m8 14h-16m8-8v16m-14 14h-16m8-8v16m30-8h-16m8-8v16m30-8h-16m8-8v16m-36 14h-16m8-8v16m30-8h-16m8-8v16m30-8h-16m8-8v16m30-8h-16m8-8v16m-36 14h-16m8-8v16m30-8h-16m8-8v16m30-8h-16m8-8v16m-36 14h-16m8-8v16m30-8h-16m8-8v16m-36 14h-16m8-8v16m8 14h-16m8-8v16m-381-228h16m-8-8v16m-30-8h16m-8-8v16m-30-8h16m-8-8v16m-30-8h16m-8-8v16m-30-8h16m-8-8v16m36 14h16m-8-8v16m-30-8h16m-8-8v16m-30-8h16m-8-8v16m-30-8h16m-8-8v16m-30-8h16m-8-8v16m-74 14h16m-8-8v16m-8 14h16m-8-8v16m-8 14h16m-8-8v16m14 14h16m-8-8v16m-30-8h16m-8-8v16m-30-8h16m-8-8v16m36 14h16m-8-8v16m-30-8h16m-8-8v16m-30-8h16m-8-8v16m-30-8h16m-8-8v16m36 14h16m-8-8v16m-30-8h16m-8-8v16m-30-8h16m-8-8v16m36 14h16m-8-8v16m-30-8h16m-8-8v16m36 14h16m-8-8v16m-8 14h16m-8-8v16" stroke="var(--icon-error-secondary-300, #DBDEE5)" stroke-width="2" fill="none"/><path d="M405 38.09h-16m8-8v16m-168 99h-16m8-8v16m266-15h-16m8-8v16" stroke="var(--icon-error-primary-600, #007DFF)" stroke-width="2" fill="none"/><path d="M412.441 155.968a63.109 63.109 0 01-19.021-2.926l-.7-.221v-13.833l1.426.671a44.58 44.58 0 0018.834 4.7c3.797.068 7.54-.897 10.83-2.793 3.368-2.094 6.157-5 8.112-8.451a45.708 45.708 0 005.15-13.028 70.562 70.562 0 001.729-15.632 37.74 37.74 0 01-9.443 8.518 27.587 27.587 0 01-14.995 4.3 30.347 30.347 0 01-14.576-3.72 25.632 25.632 0 01-10.576-10.52 32.584 32.584 0 01-3.63-15.625 37.431 37.431 0 012.237-12.99 36.622 36.622 0 016.706-11.243 29.388 29.388 0 0110.434-7.822 32.702 32.702 0 0113.243-2.6 30.56 30.56 0 0115.114 3.63 29.11 29.11 0 0110.767 10.871 57.216 57.216 0 016.323 16.19 88.444 88.444 0 012.1 19.929 80.93 80.93 0 01-2.669 21.644 49.318 49.318 0 01-8.064 16.7 35.55 35.55 0 01-12.762 10.685 37.596 37.596 0 01-16.569 3.566zm4.86-91.68a17.2 17.2 0 00-8.732 2.621 17.785 17.785 0 00-6.954 7.967 27.809 27.809 0 00-2.574 11.992 25.428 25.428 0 001.079 7.62 18.344 18.344 0 003.2 6.032 13.258 13.258 0 005.094 3.895 17.652 17.652 0 007.028 1.313c2.568.032 5.113-.49 7.46-1.53a17.533 17.533 0 006-4.6 21.484 21.484 0 004-6.852 24.508 24.508 0 001.337-8.216 24.271 24.271 0 00-1.307-8.169 18.827 18.827 0 00-3.889-6.454 18.31 18.31 0 00-5.544-4.229 14.31 14.31 0 00-6.198-1.39zm-40.34 88.8h-59.78v-11.54h23.34V70.91a92.735 92.735 0 01-8.506 5.806 77.54 77.54 0 01-13.5 5.995l-1.334.477v-12.4l.606-.26a87.499 87.499 0 0012.414-6.509 76.654 76.654 0 0010.645-8.13l.287-.263h12.848v85.92h22.98v11.542zm-89.94 0h-13.52v-26.7h-40.56v-10.91l.175-.256 40.56-59.16.3-.435h13.045v59.161h17.64v11.6h-17.64v26.7zm-39.013-38.3h25.493V77.222l-25.493 37.566z" fill="var(--icon-error-primary-100, #E5F0F8)"/><path d="M412.441 154.969c12 0 21.51-4.62 28.53-13.86 7.02-9.24 10.53-21.82 10.53-37.74 0-14.4-2.76-26.27-8.28-35.61s-13.86-14.01-25.02-14.01c-9.48 0-17.12 3.36-22.92 10.08a34.966 34.966 0 00-8.7 23.58 31.443 31.443 0 003.51 15.15 24.536 24.536 0 0010.17 10.11 29.225 29.225 0 0014.1 3.6 26.49 26.49 0 0014.46-4.14 36.935 36.935 0 0010.98-10.74v2.46c0 12.04-2.34 21.97-7.02 29.79s-11.28 11.73-19.8 11.73c-6.04 0-12.46-1.6-19.26-4.8v11.52a61.793 61.793 0 0018.72 2.88zm4.86-91.68c4.68 0 8.84 1.98 12.48 5.94 3.64 3.96 5.46 9.06 5.46 15.3a23.266 23.266 0 01-5.58 15.72 17.932 17.932 0 01-14.22 6.48c-5.6 0-9.9-1.86-12.9-5.58-3-3.72-4.5-8.48-4.5-14.28a28.663 28.663 0 012.67-12.42 18.678 18.678 0 017.35-8.4 18.101 18.101 0 019.24-2.76zm-41.34 88.8v-9.54h-22.98v-85.92h-11.46a82.144 82.144 0 01-23.34 14.82v10.32a76.212 76.212 0 0013.32-5.91 94.667 94.667 0 0010.02-6.99v73.68h-23.34v9.54h57.78zm-89.94 0v-26.7h17.64v-9.6h-17.64v-59.16h-11.52l-40.56 59.16v9.6h40.56v26.7h11.52zm-11.52-78.12v41.82h-28.38l28.38-41.82zm137.94 83a64.1 64.1 0 01-19.322-2.973 2.005 2.005 0 01-1.398-1.907v-11.52a1.997 1.997 0 01.928-1.689 2.007 2.007 0 011.923-.121 43.608 43.608 0 0018.409 4.61 19.941 19.941 0 0010.32-2.653 22.73 22.73 0 007.763-8.1 44.722 44.722 0 005.037-12.748 66.736 66.736 0 001.635-12.62 38.553 38.553 0 01-7.844 6.571 28.58 28.58 0 01-15.53 4.45 31.345 31.345 0 01-15.051-3.841 26.615 26.615 0 01-10.979-10.92 33.558 33.558 0 01-3.75-16.1 38.405 38.405 0 012.3-13.337 37.599 37.599 0 016.887-11.549 30.383 30.383 0 0110.789-8.084 33.704 33.704 0 0113.643-2.689c11.865 0 20.862 5.044 26.742 14.992a58.208 58.208 0 016.436 16.472 89.405 89.405 0 012.122 20.156 81.95 81.95 0 01-2.706 21.913 50.294 50.294 0 01-8.231 17.037 36.536 36.536 0 01-13.117 10.984 38.598 38.598 0 01-17.006 3.666zm4.86-91.68a16.228 16.228 0 00-8.224 2.483 15.111 15.111 0 00-3.688 3.074 19.306 19.306 0 00-2.87 4.459 26.818 26.818 0 00-2.478 11.564 24.41 24.41 0 001.033 7.319 17.35 17.35 0 003.027 5.701c2.624 3.254 6.334 4.835 11.343 4.835a16.868 16.868 0 007.046-1.44 16.546 16.546 0 005.659-4.345 20.479 20.479 0 003.816-6.534 23.502 23.502 0 001.28-7.881 23.285 23.285 0 00-1.249-7.833 17.822 17.822 0 00-3.684-6.114 17.31 17.31 0 00-5.237-4 13.317 13.317 0 00-5.774-1.288zm-41.34 88.8h-57.78a2 2 0 01-2-2v-9.54a2 2 0 012-2h21.34V72.907a90.72 90.72 0 01-6.993 4.668 78.488 78.488 0 01-13.679 6.079 1.994 1.994 0 01-1.822-.251 2.004 2.004 0 01-.846-1.634v-10.32a1.996 1.996 0 011.212-1.838 86.491 86.491 0 0012.271-6.435 75.614 75.614 0 0010.507-8.022 2.003 2.003 0 011.35-.525h11.46a2 2 0 012 2v83.92h20.98a2.001 2.001 0 012 2v9.54a2 2 0 01-2 2zm-89.94 0h-11.52a2 2 0 01-2-2v-24.7h-38.56a2 2 0 01-2-2v-9.6c0-.404.122-.798.35-1.131l40.56-59.16a2 2 0 011.65-.869h11.52a2 2 0 012 2v57.16h15.64a2.001 2.001 0 012 2v9.6a2 2 0 01-2 2h-15.64v24.7a2 2 0 01-2 2zm-36.126-40.3h22.606V80.478l-22.606 33.311z" fill="var(--icon-error-primary-600, #007DFF)"/></svg>
