<svg viewBox="0 0 697 314" xmlns="http://www.w3.org/2000/svg"><path d="M98 200.09v50a10 10 0 1 0 20 0v-50a10.001 10.001 0 0 1 20 0v100a10.001 10.001 0 0 0 20 0v-70a10.001 10.001 0 0 1 20 0v40a10.001 10.001 0 0 0 20 0v-70a10.001 10.001 0 0 1 20 0v30a10.001 10.001 0 0 0 20 0v-50a10.001 10.001 0 0 1 20 0v80a10.001 10.001 0 0 0 20 0v-50a10.001 10.001 0 0 1 20 0v60a10.001 10.001 0 0 0 20 0v-70a10.001 10.001 0 0 1 20 0v20a10.001 10.001 0 0 0 20 0v-50a10.001 10.001 0 0 1 20 0v60a10.001 10.001 0 0 0 20 0v-30a10.001 10.001 0 0 1 20 0v100a10.001 10.001 0 0 0 20 0v-110a10.001 10.001 0 0 1 20 0v90a10.001 10.001 0 0 0 20 0v-60a10.001 10.001 0 0 1 20 0v50a10.001 10.001 0 0 0 20 0v-100a10.001 10.001 0 0 1 20 0v60a10.001 10.001 0 0 0 20 0v-40a10.001 10.001 0 0 1 20 0v80a10.001 10.001 0 0 0 20 0v-120" stroke="var(--icon-color-secondary-300, #DBDEE5)" stroke-width="2" stroke-linecap="round" stroke-dasharray="8 6" fill="none"/><path d="M338 302.09a10 10 0 1 1 20-.002 10 10 0 0 1-20 .002zm200-10v-30a10.001 10.001 0 0 1 20 0v30a10.001 10.001 0 0 1-20 0zm-200-20v-20a10.001 10.001 0 0 1 20 0v20a10.001 10.001 0 0 1-20 0zm-120 0v-10a10.001 10.001 0 0 1 20 0v10a10.001 10.001 0 0 1-20 0z" stroke="var(--icon-color-secondary-300, #DBDEE5)" stroke-width="2" stroke-linecap="round" stroke-dasharray="8 4" fill="none"/><path d="M98 209.09v-135a20.06 20.06 0 0 1 20-20h121.1m212 0H578a20.058 20.058 0 0 1 20 20v84m-134-48h134m-499 0h125H99z" stroke="var(--icon-color-secondary-300, #DBDEE5)" stroke-width="2" stroke-linecap="round" fill="none"/><path d="M158 83.09a7.001 7.001 0 0 1 13.866-1.366A7 7 0 0 1 165 90.09v0a6.95 6.95 0 0 1-4.962-2.038A6.965 6.965 0 0 1 158 83.09v0zm-20 0a7.001 7.001 0 0 1 13.866-1.366A7 7 0 0 1 145 90.09v0a6.95 6.95 0 0 1-4.962-2.038A6.965 6.965 0 0 1 138 83.09zm-20 0a7.001 7.001 0 0 1 13.866-1.366A7 7 0 0 1 125 90.09a6.95 6.95 0 0 1-4.962-2.038A6.965 6.965 0 0 1 118 83.09zm343.198-7.102h107.8a7.102 7.102 0 0 1 7.1 7.1 7.102 7.102 0 0 1-7.1 7.1h-96.4m-248 0h-34.6a7.098 7.098 0 0 1-7.1-7.1 7.099 7.099 0 0 1 7.1-7.1h54.7" stroke="var(--icon-color-secondary-300, #DBDEE5)" stroke-width="2" stroke-linecap="round" fill="none"/><path d="M455 8.09h-16m8-8v16m30-8h-16m8-8v16m30-8h-16m8-8v16m30-8h-16m8-8v16m30-8h-16m8-8v16m-36 14h-16m8-8v16m30-8h-16m8-8v16m30-8h-16m8-8v16m30-8h-16m8-8v16m30-8h-16m8-8v16m74 14h-16m8-8v16m8 14h-16m8-8v16m8 14h-16m8-8v16m-14 14h-16m8-8v16m30-8h-16m8-8v16m30-8h-16m8-8v16m-36 14h-16m8-8v16m30-8h-16m8-8v16m30-8h-16m8-8v16m30-8h-16m8-8v16m-36 14h-16m8-8v16m30-8h-16m8-8v16m30-8h-16m8-8v16m-36 14h-16m8-8v16m30-8h-16m8-8v16m-36 14h-16m8-8v16m8 14h-16m8-8v16m-381-228h16m-8-8v16m-30-8h16m-8-8v16m-30-8h16m-8-8v16m-30-8h16m-8-8v16m-30-8h16m-8-8v16m36 14h16m-8-8v16m-30-8h16m-8-8v16m-30-8h16m-8-8v16m-30-8h16m-8-8v16m-30-8h16m-8-8v16m-74 14h16m-8-8v16m-8 14h16m-8-8v16m-8 14h16m-8-8v16m14 14h16m-8-8v16m-30-8h16m-8-8v16m-30-8h16m-8-8v16m36 14h16m-8-8v16m-30-8h16m-8-8v16m-30-8h16m-8-8v16m-30-8h16m-8-8v16m36 14h16m-8-8v16m-30-8h16m-8-8v16m-30-8h16m-8-8v16m36 14h16m-8-8v16m-30-8h16m-8-8v16m36 14h16m-8-8v16m-8 14h16m-8-8v16" stroke="var(--icon-color-secondary-300, #DBDEE5)" stroke-width="2" fill="none"/><path d="M405 38.09h-16m8-8v16m-168 99h-16m8-8v16m266-15h-16m8-8v16" stroke="#007DFF" stroke-width="2" fill="none"/><path d="M412.441 155.968a63.109 63.109 0 0 1-19.021-2.926l-.7-.221v-13.833l1.426.671a44.58 44.58 0 0 0 18.834 4.7c3.797.068 7.54-.897 10.83-2.793 3.368-2.094 6.157-5 8.112-8.451a45.708 45.708 0 0 0 5.15-13.028 70.562 70.562 0 0 0 1.729-15.632 37.74 37.74 0 0 1-9.443 8.518 27.587 27.587 0 0 1-14.995 4.3 30.347 30.347 0 0 1-14.576-3.72 25.632 25.632 0 0 1-10.576-10.52 32.584 32.584 0 0 1-3.63-15.625 37.431 37.431 0 0 1 2.237-12.99 36.622 36.622 0 0 1 6.706-11.243 29.388 29.388 0 0 1 10.434-7.822 32.702 32.702 0 0 1 13.243-2.6 30.56 30.56 0 0 1 15.114 3.63 29.11 29.11 0 0 1 10.767 10.871 57.216 57.216 0 0 1 6.323 16.19 88.444 88.444 0 0 1 2.1 19.929 80.93 80.93 0 0 1-2.669 21.644 49.318 49.318 0 0 1-8.064 16.7 35.55 35.55 0 0 1-12.762 10.685 37.596 37.596 0 0 1-16.569 3.566zm4.86-91.68a17.2 17.2 0 0 0-8.732 2.621 17.785 17.785 0 0 0-6.954 7.967 27.809 27.809 0 0 0-2.574 11.992 25.428 25.428 0 0 0 1.079 7.62 18.344 18.344 0 0 0 3.2 6.032 13.258 13.258 0 0 0 5.094 3.895 17.652 17.652 0 0 0 7.028 1.313c2.568.032 5.113-.49 7.46-1.53a17.533 17.533 0 0 0 6-4.6 21.484 21.484 0 0 0 4-6.852 24.508 24.508 0 0 0 1.337-8.216 24.271 24.271 0 0 0-1.307-8.169 18.827 18.827 0 0 0-3.889-6.454 18.31 18.31 0 0 0-5.544-4.229 14.31 14.31 0 0 0-6.198-1.39zm-42.74 88.8h-59.78v-11.5a27.308 27.308 0 0 1 1.708-9.064 38.27 38.27 0 0 1 6.494-10.736 159.524 159.524 0 0 1 9.963-11.2l6.542-6.662c1.3-1.3 4.185-4.446 8.572-9.35 4.348-4.859 7.25-8.61 8.626-11.15a15.192 15.192 0 0 0 2.015-7.238 9.847 9.847 0 0 0-4.484-8.714 18.326 18.326 0 0 0-10.536-3.186 42.404 42.404 0 0 0-7.647.793 56.827 56.827 0 0 0-7.457 1.856c-2.118.706-5.639 2.167-10.465 4.343l-1.411.636v-12.32l.573-.272a63.527 63.527 0 0 1 15.759-5.15 75.848 75.848 0 0 1 12.988-1.426 38.799 38.799 0 0 1 14.071 2.5 18.902 18.902 0 0 1 9.8 7.984 22.145 22.145 0 0 1 3.169 11.4 27.45 27.45 0 0 1-4.034 13.73c-2.633 4.557-7.654 10.493-14.925 17.643l-7.017 6.957-5.874 5.754a69.59 69.59 0 0 0-8.9 10.786 23.672 23.672 0 0 0-3.582 11.086h45.832v12.5zm-87.54 0h-13.52v-26.7h-40.56v-10.91l.175-.256 40.56-59.16.3-.435h13.045v59.161h17.64v11.6h-17.64v26.7zm-39.013-38.3h25.493V77.222l-25.493 37.566z" fill="var(--icon-color-primary-100, #E5F0F8)"/><path d="M412.441 154.969c12 0 21.51-4.62 28.53-13.86 7.02-9.24 10.53-21.82 10.53-37.74 0-14.4-2.76-26.27-8.28-35.61s-13.86-14.01-25.02-14.01c-9.48 0-17.12 3.36-22.92 10.08a34.966 34.966 0 0 0-8.7 23.58 31.443 31.443 0 0 0 3.51 15.15 24.536 24.536 0 0 0 10.17 10.11 29.225 29.225 0 0 0 14.1 3.6 26.49 26.49 0 0 0 14.46-4.14 36.935 36.935 0 0 0 10.98-10.74v2.46c0 12.04-2.34 21.97-7.02 29.79s-11.28 11.73-19.8 11.73c-6.04 0-12.46-1.6-19.26-4.8v11.52a61.793 61.793 0 0 0 18.72 2.88zm4.86-91.68c4.68 0 8.84 1.98 12.48 5.94 3.64 3.96 5.46 9.06 5.46 15.3a23.266 23.266 0 0 1-5.58 15.72 17.932 17.932 0 0 1-14.22 6.48c-5.6 0-9.9-1.86-12.9-5.58-3-3.72-4.5-8.48-4.5-14.28a28.663 28.663 0 0 1 2.67-12.42 18.678 18.678 0 0 1 7.35-8.4 18.101 18.101 0 0 1 9.24-2.76zm-43.74 88.8v-10.5h-45.9a25.007 25.007 0 0 1 3.81-12.63 70.254 70.254 0 0 1 9.03-10.95l5.88-5.76 7.02-6.96c7.24-7.12 12.16-12.93 14.76-17.43a26.344 26.344 0 0 0 3.9-13.23 21.068 21.068 0 0 0-3.03-10.89 17.85 17.85 0 0 0-9.3-7.56 37.623 37.623 0 0 0-13.71-2.43c-4.302.1-8.588.57-12.81 1.41a62.228 62.228 0 0 0-15.51 5.07v10.14c4.88-2.2 8.4-3.66 10.56-4.38a57.556 57.556 0 0 1 7.59-1.89 43.2 43.2 0 0 1 7.83-.81 19.226 19.226 0 0 1 11.1 3.36 10.867 10.867 0 0 1 4.92 9.54 16.103 16.103 0 0 1-2.13 7.71c-1.42 2.62-4.34 6.4-8.76 11.34-4.42 4.94-7.29 8.07-8.61 9.39l-6.54 6.66c-3.48 3.56-6.78 7.27-9.9 11.13a37.15 37.15 0 0 0-6.33 10.44 26.2 26.2 0 0 0-1.65 8.73v10.5h57.78zm-87.54 0v-26.7h17.64v-9.6h-17.64v-59.16h-11.52l-40.56 59.16v9.6h40.56v26.7h11.52zm-11.52-78.12v41.82h-28.38l28.38-41.82zm137.94 83a64.1 64.1 0 0 1-19.322-2.973 2.005 2.005 0 0 1-1.398-1.907v-11.52a1.997 1.997 0 0 1 .928-1.689 2.007 2.007 0 0 1 1.923-.121 43.608 43.608 0 0 0 18.409 4.61 19.941 19.941 0 0 0 10.32-2.653 22.73 22.73 0 0 0 7.763-8.1 44.722 44.722 0 0 0 5.037-12.748 66.736 66.736 0 0 0 1.635-12.62 38.553 38.553 0 0 1-7.844 6.571 28.58 28.58 0 0 1-15.53 4.45 31.345 31.345 0 0 1-15.051-3.841 26.615 26.615 0 0 1-10.979-10.92 33.558 33.558 0 0 1-3.75-16.1 38.405 38.405 0 0 1 2.3-13.337 37.599 37.599 0 0 1 6.887-11.549 30.383 30.383 0 0 1 10.789-8.084 33.704 33.704 0 0 1 13.643-2.689c11.865 0 20.862 5.044 26.742 14.992a58.208 58.208 0 0 1 6.436 16.472 89.405 89.405 0 0 1 2.122 20.156 81.95 81.95 0 0 1-2.706 21.913 50.294 50.294 0 0 1-8.231 17.037 36.536 36.536 0 0 1-13.117 10.984 38.598 38.598 0 0 1-17.006 3.666zm4.86-91.68a16.228 16.228 0 0 0-8.224 2.483 15.111 15.111 0 0 0-3.688 3.074 19.306 19.306 0 0 0-2.87 4.459 26.818 26.818 0 0 0-2.478 11.564 24.41 24.41 0 0 0 1.033 7.319 17.35 17.35 0 0 0 3.027 5.701c2.624 3.254 6.334 4.835 11.343 4.835a16.868 16.868 0 0 0 7.046-1.44 16.546 16.546 0 0 0 5.659-4.345 20.479 20.479 0 0 0 3.816-6.534 23.502 23.502 0 0 0 1.28-7.881 23.285 23.285 0 0 0-1.249-7.833 17.822 17.822 0 0 0-3.684-6.114 17.31 17.31 0 0 0-5.237-4 13.317 13.317 0 0 0-5.774-1.288zm-43.74 88.8h-57.78a2 2 0 0 1-2-2v-10.5c.051-3.211.648-6.39 1.765-9.4a39.257 39.257 0 0 1 6.655-11.027 160.825 160.825 0 0 1 10.025-11.271l6.543-6.663.013-.013c1.288-1.288 4.159-4.42 8.534-9.309 4.3-4.8 7.153-8.488 8.492-10.959a14.211 14.211 0 0 0 1.893-6.758 8.906 8.906 0 0 0-4.048-7.888 17.085 17.085 0 0 0-4.687-2.257 18.231 18.231 0 0 0-5.286-.754 41.428 41.428 0 0 0-7.464.776 55.827 55.827 0 0 0-7.323 1.823c-2.086.7-5.575 2.144-10.37 4.306a1.997 1.997 0 0 1-2.579-.866 1.998 1.998 0 0 1-.244-.957V60.229a1.998 1.998 0 0 1 1.145-1.808 64.528 64.528 0 0 1 16.008-5.23 76.8 76.8 0 0 1 13.167-1.442 39.786 39.786 0 0 1 14.433 2.565 19.877 19.877 0 0 1 10.3 8.408 23.139 23.139 0 0 1 3.308 11.907 28.429 28.429 0 0 1-4.168 14.231c-2.716 4.7-7.651 10.54-15.088 17.854l-7.015 6.955-.009.008-5.868 5.749a68.628 68.628 0 0 0-8.764 10.622 22.227 22.227 0 0 0-3.312 9.54h43.724a2.001 2.001 0 0 1 2 2v10.501a2 2 0 0 1-2 2zm-87.54 0h-11.52a2 2 0 0 1-2-2v-24.7h-38.56a2 2 0 0 1-2-2v-9.6c0-.404.122-.798.35-1.131l40.56-59.16a2 2 0 0 1 1.65-.869h11.52a2 2 0 0 1 2 2v57.16h15.64a2.001 2.001 0 0 1 2 2v9.6a2 2 0 0 1-2 2h-15.64v24.7a2 2 0 0 1-2 2zm-36.126-40.3h22.606V80.478l-22.606 33.311z" fill="#007DFF"/></svg>