<svg viewBox="0 0 697 314" xmlns="http://www.w3.org/2000/svg"><path d="M98 200.09v50a10 10 0 1 0 20 0v-50a10.001 10.001 0 0 1 20 0v100a10.001 10.001 0 0 0 20 0v-70a10.001 10.001 0 0 1 20 0v40a10.001 10.001 0 0 0 20 0v-70a10.001 10.001 0 0 1 20 0v30a10.001 10.001 0 0 0 20 0v-50a10.001 10.001 0 0 1 20 0v80a10.001 10.001 0 0 0 20 0v-50a10.001 10.001 0 0 1 20 0v60a10.001 10.001 0 0 0 20 0v-70a10.001 10.001 0 0 1 20 0v20a10.001 10.001 0 0 0 20 0v-50a10.001 10.001 0 0 1 20 0v60a10.001 10.001 0 0 0 20 0v-30a10.001 10.001 0 0 1 20 0v100a10.001 10.001 0 0 0 20 0v-110a10.001 10.001 0 0 1 20 0v90a10.001 10.001 0 0 0 20 0v-60a10.001 10.001 0 0 1 20 0v50a10.001 10.001 0 0 0 20 0v-100a10.001 10.001 0 0 1 20 0v60a10.001 10.001 0 0 0 20 0v-40a10.001 10.001 0 0 1 20 0v80a10.001 10.001 0 0 0 20 0v-120" stroke="var(--icon-color-secondary-300, #DBDEE5)" stroke-width="2" stroke-linecap="round" stroke-dasharray="8 6" fill="none"/><path d="M338 302.09a10 10 0 1 1 20-.002 10 10 0 0 1-20 .002zm200-10v-30a10.001 10.001 0 0 1 20 0v30a10.001 10.001 0 0 1-20 0zm-200-20v-20a10.001 10.001 0 0 1 20 0v20a10.001 10.001 0 0 1-20 0zm-120 0v-10a10.001 10.001 0 0 1 20 0v10a10.001 10.001 0 0 1-20 0z" stroke="var(--icon-color-secondary-300, #DBDEE5)" stroke-width="2" stroke-linecap="round" stroke-dasharray="8 4" fill="none"/><path d="M98 209.09v-135a20.06 20.06 0 0 1 20-20h121.1m212 0H578a20.058 20.058 0 0 1 20 20v84m-134-48h134m-499 0h125H99z" stroke="var(--icon-color-secondary-300, #DBDEE5)" stroke-width="2" stroke-linecap="round" fill="none"/><path d="M158 83.09a7.001 7.001 0 0 1 13.866-1.366A7 7 0 0 1 165 90.09v0a6.95 6.95 0 0 1-4.962-2.038A6.965 6.965 0 0 1 158 83.09v0zm-20 0a7.001 7.001 0 0 1 13.866-1.366A7 7 0 0 1 145 90.09v0a6.95 6.95 0 0 1-4.962-2.038A6.965 6.965 0 0 1 138 83.09zm-20 0a7.001 7.001 0 0 1 13.866-1.366A7 7 0 0 1 125 90.09a6.95 6.95 0 0 1-4.962-2.038A6.965 6.965 0 0 1 118 83.09zm343.198-7.102h107.8a7.102 7.102 0 0 1 7.1 7.1 7.102 7.102 0 0 1-7.1 7.1h-96.4m-248 0h-34.6a7.098 7.098 0 0 1-7.1-7.1 7.099 7.099 0 0 1 7.1-7.1h44.7" stroke="var(--icon-color-secondary-300, #DBDEE5)" stroke-width="2" stroke-linecap="round" fill="none"/><path d="M455 8.09h-16m8-8v16m30-8h-16m8-8v16m30-8h-16m8-8v16m30-8h-16m8-8v16m30-8h-16m8-8v16m-36 14h-16m8-8v16m30-8h-16m8-8v16m30-8h-16m8-8v16m30-8h-16m8-8v16m30-8h-16m8-8v16m74 14h-16m8-8v16m8 14h-16m8-8v16m8 14h-16m8-8v16m-14 14h-16m8-8v16m30-8h-16m8-8v16m30-8h-16m8-8v16m-36 14h-16m8-8v16m30-8h-16m8-8v16m30-8h-16m8-8v16m30-8h-16m8-8v16m-36 14h-16m8-8v16m30-8h-16m8-8v16m30-8h-16m8-8v16m-36 14h-16m8-8v16m30-8h-16m8-8v16m-36 14h-16m8-8v16m8 14h-16m8-8v16m-381-228h16m-8-8v16m-30-8h16m-8-8v16m-30-8h16m-8-8v16m-30-8h16m-8-8v16m-30-8h16m-8-8v16m36 14h16m-8-8v16m-30-8h16m-8-8v16m-30-8h16m-8-8v16m-30-8h16m-8-8v16m-30-8h16m-8-8v16m-74 14h16m-8-8v16m-8 14h16m-8-8v16m-8 14h16m-8-8v16m14 14h16m-8-8v16m-30-8h16m-8-8v16m-30-8h16m-8-8v16m36 14h16m-8-8v16m-30-8h16m-8-8v16m-30-8h16m-8-8v16m-30-8h16m-8-8v16m36 14h16m-8-8v16m-30-8h16m-8-8v16m-30-8h16m-8-8v16m36 14h16m-8-8v16m-30-8h16m-8-8v16m36 14h16m-8-8v16m-8 14h16m-8-8v16" stroke="var(--icon-color-secondary-300, #DBDEE5)" stroke-width="2" fill="none"/><path d="M405 38.09h-16m8-8v16m-168 99h-16m8-8v16m266-15h-16m8-8v16" stroke="#007DFF" stroke-width="2" fill="none"/><path d="M420.002 155.972a30.363 30.363 0 0 1-14.822-3.544 30.009 30.009 0 0 1-10.865-10.6 53.538 53.538 0 0 1-6.562-16.385 94.054 94.054 0 0 1-2.171-21.111 93.516 93.516 0 0 1 2.171-21.024 53.745 53.745 0 0 1 6.561-16.376 30.029 30.029 0 0 1 10.864-10.628 30.31 30.31 0 0 1 14.824-3.552 30.266 30.266 0 0 1 14.816 3.552 29.945 29.945 0 0 1 10.842 10.629 53.843 53.843 0 0 1 6.542 16.376 93.796 93.796 0 0 1 2.16 21.023 94.411 94.411 0 0 1-2.16 21.105 53.638 53.638 0 0 1-6.539 16.385 29.918 29.918 0 0 1-10.846 10.606 30.323 30.323 0 0 1-14.815 3.544zm-13.1-19.472a18.604 18.604 0 0 0 5.46 5.844 12.792 12.792 0 0 0 7.1 2.088 16.47 16.47 0 0 0 5.116-.768 13.847 13.847 0 0 0 4.271-2.288 21.073 21.073 0 0 0 6.3-9.376 73.783 73.783 0 0 0 3.64-13.6 90.182 90.182 0 0 0 1.213-15.028 70.747 70.747 0 0 0-1.909-16.463L406.902 136.5zm13.1-72.208a14.073 14.073 0 0 0-8.485 2.665 20.79 20.79 0 0 0-6.269 8.188 52.693 52.693 0 0 0-3.928 12.71 87.887 87.887 0 0 0-1.318 15.817c0 2.65.08 5.529.239 8.558a65.982 65.982 0 0 0 1.548 10l31.446-49.248c-1.933-3.334-4-5.622-6.154-6.8a14.601 14.601 0 0 0-7.079-1.89zm-75.6 91.68a30.363 30.363 0 0 1-14.822-3.544 30.009 30.009 0 0 1-10.865-10.6 53.538 53.538 0 0 1-6.562-16.385 94.054 94.054 0 0 1-2.171-21.111 93.516 93.516 0 0 1 2.171-21.024 53.745 53.745 0 0 1 6.561-16.376 30.038 30.038 0 0 1 10.865-10.628 30.31 30.31 0 0 1 14.823-3.552 30.266 30.266 0 0 1 14.816 3.552 29.945 29.945 0 0 1 10.842 10.629 53.843 53.843 0 0 1 6.542 16.376 93.796 93.796 0 0 1 2.16 21.023 94.411 94.411 0 0 1-2.16 21.105 53.638 53.638 0 0 1-6.539 16.385 29.918 29.918 0 0 1-10.846 10.606 30.323 30.323 0 0 1-14.815 3.544zm-13.1-19.472a18.604 18.604 0 0 0 5.46 5.844 12.792 12.792 0 0 0 7.1 2.088 16.47 16.47 0 0 0 5.116-.768 13.847 13.847 0 0 0 4.271-2.288 21.073 21.073 0 0 0 6.3-9.376 73.783 73.783 0 0 0 3.64-13.6 90.182 90.182 0 0 0 1.213-15.028 70.747 70.747 0 0 0-1.909-16.463L331.302 136.5zm13.1-72.208a14.073 14.073 0 0 0-8.485 2.665 20.79 20.79 0 0 0-6.269 8.188 52.693 52.693 0 0 0-3.928 12.71 87.887 87.887 0 0 0-1.318 15.817c0 2.65.08 5.529.239 8.558a65.982 65.982 0 0 0 1.548 10l31.446-49.248c-1.933-3.334-4-5.622-6.154-6.8a14.601 14.601 0 0 0-7.079-1.89zm-80.1 91.68c-6.232 0-14.286-1.529-23.938-4.546l-.7-.219v-14.892l1.475.8a56.841 56.841 0 0 0 11.463 4.565 43.305 43.305 0 0 0 11.7 1.792 22.546 22.546 0 0 0 10.229-2.532 18.2 18.2 0 0 0 7.712-7.348 19.833 19.833 0 0 0 2.779-9.88 16.443 16.443 0 0 0-1.865-7.74 20.532 20.532 0 0 0-5.67-6.532c-5.075-3.96-14.316-5.968-27.465-5.968h-8.44v-47.84h55.46v12.98h-42.06v21.4h.98a71.376 71.376 0 0 1 18.524 2.187 39.244 39.244 0 0 1 13.858 6.632 29.229 29.229 0 0 1 8.637 10.461 30.988 30.988 0 0 1 2.881 13.52 34.434 34.434 0 0 1-1.16 9.022 30.951 30.951 0 0 1-9.088 14.801 34.097 34.097 0 0 1-7.46 5.089 39.104 39.104 0 0 1-17.852 4.248z" fill="var(--icon-color-primary-100, #E5F0F8)"/><path d="M344.4 53.75c-10.84 0-19.12 4.57-24.84 13.71-5.72 9.14-8.58 21.43-8.58 36.87 0 15.52 2.86 27.84 8.58 36.96 5.72 9.12 14 13.68 24.84 13.68s19.11-4.56 24.81-13.68c5.7-9.12 8.55-21.44 8.55-36.96 0-15.44-2.85-27.73-8.55-36.87-5.7-9.14-13.97-13.71-24.81-13.71zm-18.66 71.04a75.586 75.586 0 0 1-2.1-12.51c-.16-3.06-.24-5.93-.24-8.61 0-11.68 1.78-21.33 5.34-28.95 3.56-7.62 8.78-11.43 15.66-11.43a15.51 15.51 0 0 1 7.56 2.01c2.44 1.34 4.72 3.91 6.84 7.71l-33.06 51.78zm18.12 20.64a13.711 13.711 0 0 1-7.65-2.25 19.943 19.943 0 0 1-6.09-6.69l32.76-52.08a70.85 70.85 0 0 1 2.52 18.96 81.725 81.725 0 0 1-4.92 28.98c-3.28 8.72-8.82 13.08-16.62 13.08zM420 53.75c-10.84 0-19.12 4.57-24.84 13.71-5.72 9.14-8.58 21.43-8.58 36.87 0 15.52 2.86 27.84 8.58 36.96 5.72 9.12 14 13.68 24.84 13.68s19.11-4.56 24.81-13.68c5.7-9.12 8.55-21.44 8.55-36.96 0-15.44-2.85-27.73-8.55-36.87-5.7-9.14-13.97-13.71-24.81-13.71zm-18.66 71.04a75.586 75.586 0 0 1-2.1-12.51c-.16-3.06-.24-5.93-.24-8.61 0-11.68 1.78-21.33 5.34-28.95 3.56-7.62 8.78-11.43 15.66-11.43a15.51 15.51 0 0 1 7.56 2.01c2.44 1.34 4.72 3.91 6.84 7.71l-33.06 51.78zm18.12 20.64a13.711 13.711 0 0 1-7.65-2.25 19.932 19.932 0 0 1-6.09-6.69l32.76-52.08a70.85 70.85 0 0 1 2.52 18.96 81.725 81.725 0 0 1-4.92 28.98c-3.28 8.72-8.82 13.08-16.62 13.08zm-176.88-88.8v45.84h7.44c13.44 0 22.8 2.06 28.08 6.18 5.28 4.12 7.92 9.14 7.92 15.06a20.718 20.718 0 0 1-2.91 10.38 19.09 19.09 0 0 1-8.13 7.74 23.408 23.408 0 0 1-10.68 2.64 44.055 44.055 0 0 1-11.97-1.83 57.481 57.481 0 0 1-11.67-4.65v12.48c9.6 3 17.48 4.5 23.64 4.5a37.931 37.931 0 0 0 17.4-4.14 30.883 30.883 0 0 0 12.66-11.46 30.976 30.976 0 0 0 4.5-16.56c0-9.72-3.71-17.45-11.13-23.19-7.42-5.74-18.01-8.61-31.77-8.61h-1.98v-23.4h42.06V56.63h-53.46zm101.82-4.88c11.526 0 20.444 4.93 26.507 14.652a54.82 54.82 0 0 1 6.664 16.679 94.749 94.749 0 0 1 2.189 21.249 95.354 95.354 0 0 1-2.189 21.331 54.616 54.616 0 0 1-6.665 16.689c-6.063 9.701-14.981 14.62-26.506 14.62s-20.451-4.918-26.534-14.617a54.534 54.534 0 0 1-6.689-16.69 95.134 95.134 0 0 1-2.2-21.332 94.536 94.536 0 0 1 2.2-21.251 54.733 54.733 0 0 1 6.688-16.68c6.083-9.721 15.011-14.65 26.535-14.65zm12.059 21.21A15.922 15.922 0 0 0 351 67.053a13.606 13.606 0 0 0-6.6-1.763c-6.088 0-10.617 3.361-13.848 10.277a51.662 51.662 0 0 0-3.852 12.468 86.885 86.885 0 0 0-1.3 15.635c0 2.632.08 5.494.237 8.506a55.586 55.586 0 0 0 1.03 7.445l29.792-46.661zm-12.599 70.47c3.164.1 6.265-.905 8.768-2.842a20.1 20.1 0 0 0 5.98-8.943 72.797 72.797 0 0 0 3.592-13.415 89.128 89.128 0 0 0 1.2-14.86 70.256 70.256 0 0 0-1.361-13.867l-29.558 46.987a17.163 17.163 0 0 0 4.821 5.012 11.647 11.647 0 0 0 6.558 1.928zM420 51.75c11.526 0 20.444 4.93 26.507 14.652a54.82 54.82 0 0 1 6.664 16.679 94.749 94.749 0 0 1 2.189 21.249 95.354 95.354 0 0 1-2.189 21.331 54.616 54.616 0 0 1-6.665 16.689c-6.063 9.701-14.981 14.62-26.506 14.62s-20.451-4.918-26.534-14.617a54.534 54.534 0 0 1-6.689-16.69 95.134 95.134 0 0 1-2.2-21.332 94.536 94.536 0 0 1 2.2-21.251 54.733 54.733 0 0 1 6.688-16.68c6.083-9.721 15.011-14.65 26.535-14.65zm12.059 21.21a15.924 15.924 0 0 0-5.462-5.907A13.606 13.606 0 0 0 420 65.29c-6.088 0-10.617 3.361-13.848 10.277a51.667 51.667 0 0 0-3.85 12.469A86.967 86.967 0 0 0 401 103.67c0 2.633.08 5.494.237 8.506a55.586 55.586 0 0 0 1.03 7.445l29.792-46.661zm-12.599 70.47c3.164.1 6.265-.905 8.768-2.842a20.1 20.1 0 0 0 5.98-8.943 72.797 72.797 0 0 0 3.592-13.415 89.128 89.128 0 0 0 1.2-14.86 70.256 70.256 0 0 0-1.361-13.867l-29.558 46.987a17.163 17.163 0 0 0 4.821 5.012 11.647 11.647 0 0 0 6.558 1.928zm-176.88-88.8h53.46a1.998 1.998 0 0 1 2 2v10.98a2 2 0 0 1-2 2h-40.06v19.4a72.34 72.34 0 0 1 18.766 2.222 40.233 40.233 0 0 1 14.208 6.806c7.9 6.112 11.906 14.446 11.906 24.772a33.088 33.088 0 0 1-4.8 17.607 32.988 32.988 0 0 1-13.46 12.197 40.087 40.087 0 0 1-18.3 4.356 59.224 59.224 0 0 1-10.9-1.16 121.55 121.55 0 0 1-13.337-3.431 1.996 1.996 0 0 1-1.403-1.909v-12.48a2.002 2.002 0 0 1 2.951-1.76 55.82 55.82 0 0 0 11.265 4.486 42.279 42.279 0 0 0 11.424 1.754 21.532 21.532 0 0 0 9.777-2.425 17.433 17.433 0 0 0 4.166-2.919 17.525 17.525 0 0 0 3.129-4.028 18.846 18.846 0 0 0 2.648-9.388 15.462 15.462 0 0 0-1.75-7.274 19.552 19.552 0 0 0-5.4-6.209c-4.9-3.82-13.929-5.757-26.85-5.757h-7.44a2 2 0 0 1-2-2V56.63a2 2 0 0 1 2-2z" fill="#007DFF"/></svg>