<svg viewBox="0 0 697 381" xmlns="http://www.w3.org/2000/svg"><path d="M98 267.09v50a10 10 0 1 0 20 0v-50a10.001 10.001 0 0 1 20 0v100a10.001 10.001 0 0 0 20 0v-70a10.001 10.001 0 0 1 20 0v40a10.001 10.001 0 0 0 20 0v-70a10.001 10.001 0 0 1 20 0v30a10.001 10.001 0 0 0 20 0v-50a10.001 10.001 0 0 1 20 0v80a10.001 10.001 0 0 0 20 0v-50a10.001 10.001 0 0 1 20 0v60a10.001 10.001 0 0 0 20 0v-73a10.001 10.001 0 0 1 20 0v23a10.001 10.001 0 0 0 20 0v-12a10.001 10.001 0 0 1 20 0v22a10.001 10.001 0 0 0 20 0v-53a10.001 10.001 0 0 1 20 0v123a10.001 10.001 0 0 0 20 0v-110a10.001 10.001 0 0 1 20 0v90a10.001 10.001 0 0 0 20 0v-60a10.001 10.001 0 0 1 20 0v50a10.001 10.001 0 0 0 20 0v-100a10.001 10.001 0 0 1 20 0v60a10.001 10.001 0 0 0 20 0v-40a10.001 10.001 0 0 1 20 0v80a10.001 10.001 0 0 0 20 0v-120" stroke="var(--icon-error-secondary-300, #DBDEE5)" stroke-width="2" stroke-linecap="round" stroke-dasharray="8 6" fill="none"/><path d="M338 369.09a10 10 0 1 1 20-.002 10 10 0 0 1-20 .002zm200-10v-30a10.001 10.001 0 0 1 20 0v30a10.001 10.001 0 0 1-20 0zm-200-20v-20a10.001 10.001 0 0 1 20 0v20a10.001 10.001 0 0 1-20 0zm-120 0v-10a10.001 10.001 0 0 1 20 0v10a10.001 10.001 0 0 1-20 0z" stroke="var(--icon-error-secondary-300, #DBDEE5)" stroke-width="2" stroke-linecap="round" stroke-dasharray="8 4" fill="none"/><path d="M98 276.09v-135a19.998 19.998 0 0 1 20-20h131.133m191.918 0H538m-74.037 56h96.313M99 177.09h122.047H99z" stroke="var(--icon-error-secondary-300, #DBDEE5)" stroke-width="2" stroke-linecap="round" fill="none"/><path d="M158 150.09a7 7 0 1 1 14 0 7 7 0 0 1-14 0v0zm-20 0a7 7 0 1 1 14 0 7 7 0 0 1-14 0v0zm-20 0a7 7 0 1 1 14 0 7 7 0 0 1-14 0zm313.175-7.11h107.783a7.114 7.114 0 0 1 7.111 7.111 7.113 7.113 0 0 1-7.111 7.111h-86.435m-233.912 0h-28.566a7.115 7.115 0 0 1-5.029-2.082 7.115 7.115 0 0 1 0-10.057 7.116 7.116 0 0 1 5.029-2.083h46.691" stroke="var(--icon-error-secondary-300, #DBDEE5)" stroke-width="2" stroke-linecap="round" fill="none"/><path d="M455 75.09h-16m8-8v16m30-8h-16m8-8v16m30-8h-16m8-8v16m30-8h-16m8-8v16m30-8h-16m8-8v16m-36 14h-16m8-8v16m30-8h-16m8-8v16m30-8h-16m8-8v16m118 14h-16m8-8v16m8 14h-16m8-8v16m8 14h-16m8-8v16m-14 14h-16m8-8v16m30-8h-16m8-8v16m30-8h-16m8-8v16m-36 14h-16m8-8v16m30-8h-16m8-8v16m30-8h-16m8-8v16m30-8h-16m8-8v16m-36 14h-16m8-8v16m30-8h-16m8-8v16m30-8h-16m8-8v16m-36 14h-16m8-8v16m30-8h-16m8-8v16m-36 14h-16m8-8v16m8 14h-16m8-8v16m-381-228h16m-8-8v16m-30-8h16m-8-8v16m-30-8h16m-8-8v16m-30-8h16m-8-8v16m-30-8h16m-8-8v16m36 14h16m-8-8v16m-30-8h16m-8-8v16m-30-8h16m-8-8v16m-30-8h16m-8-8v16m-30-8h16m-8-8v16m-74 14h16m-8-8v16m-8 14h16m-8-8v16m-8 14h16m-8-8v16m14 14h16m-8-8v16m-30-8h16m-8-8v16m-30-8h16m-8-8v16m36 14h16m-8-8v16m-30-8h16m-8-8v16m-30-8h16m-8-8v16m-30-8h16m-8-8v16m36 14h16m-8-8v16m-30-8h16m-8-8v16m-30-8h16m-8-8v16m36 14h16m-8-8v16m-30-8h16m-8-8v16m36 14h16m-8-8v16m-8 14h16m-8-8v16" stroke="var(--icon-error-secondary-300, #DBDEE5)" stroke-width="2" fill="none"/><path d="M243.261 205.618a48.051 48.051 0 0 1 14.846-68.071 48.052 48.052 0 0 1 72.905 43.344 48.055 48.055 0 0 1-8.009 24.383" stroke="var(--icon-error-secondary-300, #DBDEE5)" stroke-width="2" stroke-linecap="round" fill="none"/><path d="M250.87 204.934a41.504 41.504 0 0 1-5.724-44.293 41.505 41.505 0 0 1 60.065-17.2A41.505 41.505 0 0 1 323.8 184.05a41.505 41.505 0 0 1-9.549 21.213" stroke="var(--icon-error-secondary-300, #DBDEE5)" stroke-width="2" stroke-linecap="round" stroke-dasharray="8 4" fill="none"/><path d="M260.416 205.265a34.947 34.947 0 0 1-10.279-38.773 34.941 34.941 0 0 1 52.97-16.481 34.945 34.945 0 0 1 2.134 55.434" stroke="var(--icon-error-secondary-300, #DBDEE5)" stroke-width="2" stroke-linecap="round" fill="none"/><path d="M283.015 192.881c8.052 0 14.581-6.528 14.581-14.581s-6.529-14.581-14.581-14.581c-8.053 0-14.581 6.528-14.581 14.581s6.528 14.581 14.581 14.581z" fill="var(--icon-error-secondary-200, #EEF3F5)" stroke="var(--icon-error-secondary-300, #DBDEE5)" stroke-width="2" stroke-linecap="round"/><path d="M280.395 130.486v-3.4a2.616 2.616 0 0 1 1.618-2.422 2.631 2.631 0 0 1 2.006 0 2.623 2.623 0 0 1 1.618 2.422v3.444m46.281 46.345h3.467a2.622 2.622 0 0 1 0 5.242h-3.506m-98.208 0h-4.14a2.618 2.618 0 0 1-2.621-2.621 2.618 2.618 0 0 1 2.621-2.621h4.3l-.16 5.242zm81.966-39.566 2.408-2.408a2.615 2.615 0 0 1 2.879-.608 2.628 2.628 0 0 1 1.629 2.45 2.631 2.631 0 0 1-.802 1.864l-2.435 2.435m-73.184-.22-2.875-2.875a2.62 2.62 0 0 1 3.706-3.706l2.986 2.986m50.934-8.886 1.4-3.088a2.609 2.609 0 0 1 3.458-1.296 2.612 2.612 0 0 1 1.296 3.459l-1.421 3.123m22.953 61.178 3.088 1.4a2.61 2.61 0 0 1 1.296 3.458 2.606 2.606 0 0 1-1.461 1.364 2.613 2.613 0 0 1-1.998-.069l-3.123-1.42m-88.748-41.068-3.687-1.678a2.629 2.629 0 0 1-1.364-1.461 2.616 2.616 0 0 1 1.53-3.362 2.611 2.611 0 0 1 1.997.069l3.829 1.742-2.305 4.69zm90.245-1.561 3.177-1.19a2.61 2.61 0 0 1 3.361 1.529 2.616 2.616 0 0 1-.068 1.998 2.615 2.615 0 0 1-1.461 1.364l-3.213 1.2m-91.268 33.715-3.794 1.421a2.616 2.616 0 0 1-3.362-1.53 2.608 2.608 0 0 1 .664-2.824c.25-.234.545-.417.866-.537l3.94-1.476 1.686 4.946zm24.339-63.697-1.421-3.794a2.616 2.616 0 0 1 1.53-3.362 2.611 2.611 0 0 1 3.361 1.53l1.476 3.94M213 206.09h120m106.51 16.911a48.052 48.052 0 0 0 2.75-49.388 48.052 48.052 0 0 0-42.298-25.644 48.048 48.048 0 0 0-40.194 74.688" stroke="var(--icon-error-secondary-300, #DBDEE5)" stroke-width="2" stroke-linecap="round" fill="none"/><path d="M431.904 222.317a41.502 41.502 0 0 0-9.681-61.725 41.502 41.502 0 0 0-63.249 40.841 41.497 41.497 0 0 0 9.549 21.213" stroke="var(--icon-error-secondary-300, #DBDEE5)" stroke-width="2" stroke-linecap="round" stroke-dasharray="8 4" fill="none"/><path d="M422.359 222.648a34.947 34.947 0 0 0 10.279-38.773 34.947 34.947 0 0 0-32.94-22.89 34.942 34.942 0 0 0-22.164 61.843" stroke="var(--icon-error-secondary-300, #DBDEE5)" stroke-width="2" stroke-linecap="round" fill="none"/><path d="M399.761 210.264c8.053 0 14.581-6.529 14.581-14.581 0-8.053-6.528-14.581-14.581-14.581s-14.581 6.528-14.581 14.581c0 8.052 6.528 14.581 14.581 14.581z" fill="var(--icon-error-secondary-200, #EEF3F5)" stroke="var(--icon-error-secondary-300, #DBDEE5)" stroke-width="2" stroke-linecap="round"/><path d="M402.379 147.869v-3.4a2.622 2.622 0 0 0-5.242 0v3.444m-46.389 46.345h-3.4c-.696 0-1.362.276-1.854.767a2.625 2.625 0 0 0 0 3.707 2.62 2.62 0 0 0 1.854.768h3.444m97.723 0h4.066a2.62 2.62 0 0 0 2.621-2.621 2.623 2.623 0 0 0-2.621-2.621h-4.222l.156 5.242zm-81.379-39.566-2.408-2.408a2.623 2.623 0 0 0-3.671.035 2.62 2.62 0 0 0-.035 3.671l2.435 2.435m73.184-.22 2.875-2.875a2.62 2.62 0 0 0-3.706-3.706l-2.986 2.986m-50.932-8.886-1.4-3.088a2.61 2.61 0 0 0-4.822.165 2.616 2.616 0 0 0 .068 1.998l1.421 3.123m-22.951 61.177-3.088 1.4a2.622 2.622 0 0 0-1.364 1.461 2.615 2.615 0 0 0 1.529 3.362 2.613 2.613 0 0 0 1.998-.069l3.123-1.421m88.747-41.068 3.688-1.678a2.606 2.606 0 0 0 1.364-1.461 2.608 2.608 0 0 0-.069-1.997 2.604 2.604 0 0 0-1.461-1.364 2.609 2.609 0 0 0-1.997.068l-3.829 1.742 2.304 4.69zm-90.245-1.56-3.177-1.19a2.611 2.611 0 1 0-1.832 4.891l3.213 1.2m91.267 33.715 3.794 1.421a2.608 2.608 0 0 0 2.824-.664 2.602 2.602 0 0 0 .701-1.871 2.623 2.623 0 0 0-.827-1.82 2.61 2.61 0 0 0-.866-.536l-3.939-1.476-1.687 4.946zm-21.785-62.42 1.421-3.794a2.612 2.612 0 1 0-4.891-1.832l-1.476 3.94M475 223.09H303" stroke="var(--icon-error-secondary-300, #DBDEE5)" stroke-width="2" stroke-linecap="round" fill="none"/><path d="M351.497 144.102c15.565 0 28.184-12.618 28.184-28.184 0-15.565-12.619-28.184-28.184-28.184-15.566 0-28.185 12.619-28.185 28.184 0 15.566 12.619 28.184 28.185 28.184z" stroke="var(--icon-error-primary-600, #007DFF)" stroke-width="2" fill="none"/><path d="M351.316 140.077c13.444 0 24.343-10.899 24.343-24.343 0-13.445-10.899-24.343-24.343-24.343-13.445 0-24.343 10.898-24.343 24.343 0 13.444 10.898 24.343 24.343 24.343z" stroke="var(--icon-error-primary-600, #007DFF)" stroke-width="2" stroke-linecap="round" stroke-dasharray="4 4" fill="none"/><path d="M351.447 136.371c11.323 0 20.502-9.179 20.502-20.502 0-11.323-9.179-20.502-20.502-20.502-11.323 0-20.502 9.179-20.502 20.502 0 11.323 9.179 20.502 20.502 20.502z" fill="var(--icon-error-primary-100, #E5F0F8)" stroke="var(--icon-error-primary-600, #007DFF)" stroke-width="2"/><path d="M351.499 124.28a8.554 8.554 0 0 0 8.554-8.554 8.554 8.554 0 1 0-8.554 8.554zm-1.538-36.602v-2a1.538 1.538 0 0 1 3.075 0v2.02m0 56.582v2.385a1.537 1.537 0 1 1-3.075 0v-2.477l3.075.092zm27.211-29.389h2a1.537 1.537 0 1 1 0 3.075h-2.02m-56.581 0h-2.386a1.534 1.534 0 0 1-1.537-1.538 1.537 1.537 0 0 1 1.537-1.537h2.477l-.091 3.075zM364.445 90.6l1-1.73a1.54 1.54 0 0 1 2.1-.563 1.537 1.537 0 0 1 .563 2.1l-1.01 1.75m-28.29 48.998-1.193 2.066a1.539 1.539 0 0 1-2.1.563 1.536 1.536 0 0 1-.563-2.1l1.238-2.145 2.618 1.616zm38.262-11.847 1.73 1a1.538 1.538 0 0 1-1.537 2.663l-1.75-1.01m-48.999-28.29-2.066-1.193a1.538 1.538 0 1 1 1.538-2.662l2.145 1.237-1.617 2.618zm48.94-3.254 1.73-1a1.539 1.539 0 0 1 2.254 1.729c-.106.394-.363.73-.717.934l-1.75 1.01m-49 28.292-2.064 1.192a1.536 1.536 0 1 1-1.537-2.663l2.145-1.239 1.456 2.71zm39.055 8.873 1 1.73a1.532 1.532 0 0 1-.112 1.705 1.538 1.538 0 0 1-2.551-.168l-1.01-1.749m-28.29-48.999-1.193-2.066a1.535 1.535 0 0 1 .563-2.1 1.538 1.538 0 0 1 2.1.563l1.238 2.145-2.708 1.458z" stroke="var(--icon-error-primary-600, #007DFF)" stroke-width="2" fill="none"/><path d="M644 23.091H318a9.07 9.07 0 0 0-6 2c-1.155 1.015-9.48 8.462-11 10-1.52 1.538-2 2.143-2 3v5c0 1.694.481 3 3 3h259V193.47" stroke="var(--icon-error-secondary-300, #DBDEE5)" stroke-width="2" stroke-linecap="round" fill="none"/><path d="M598 210.09v-164h47" stroke="var(--icon-error-secondary-300, #DBDEE5)" stroke-width="2" stroke-linecap="round" fill="none"/><path d="M299 38.09h379.32m-16.82-37a16.499 16.499 0 0 1 16.5 16.5v31.895a2.603 2.603 0 0 1-2.605 2.605h-27.79A2.606 2.606 0 0 1 645 49.485V17.59a16.498 16.498 0 0 1 16.5-16.5z" stroke="var(--icon-error-secondary-300, #DBDEE5)" stroke-width="2" fill="none"/><path d="M579.5.09a19.5 19.5 0 0 1 19.5 19.5v4.5h-39v-4.5A19.5 19.5 0 0 1 579.5.09z" fill="var(--icon-error-secondary-200, #EEF3F5)"/><path d="M579.5 1.09a18.505 18.505 0 0 1 17.092 11.42A18.513 18.513 0 0 1 598 19.59v2.526a.977.977 0 0 1-.974.974h-35.052a.976.976 0 0 1-.974-.974V19.59a18.498 18.498 0 0 1 18.5-18.5zm-18.445 45.031 37.106 37.107m-37.106-.001 37.106 37.106m-37.106-.556 37.106 37.107m-37.106.003 37.106 37.107" stroke="var(--icon-error-secondary-300, #DBDEE5)" stroke-width="2" fill="none"/><path d="m561.055 193.992 26.525 26.329" stroke="var(--icon-error-secondary-300, #DBDEE5)" stroke-width="2" stroke-linecap="round" stroke-dasharray="4 4" fill="none"/><path d="m598.161 46.121-37.106 37.107m37.106-.001-37.106 37.106m37.106-.556-37.106 37.107m37.106.003-37.106 37.107" stroke="var(--icon-error-secondary-300, #DBDEE5)" stroke-width="2" fill="none"/><path d="m598.164 193.992-13.527 14.414M351.539 80.68V46.21" stroke="var(--icon-error-secondary-300, #DBDEE5)" stroke-width="2" stroke-linecap="round" fill="none"/><path d="M336 65.09h-16m8-8v16m84 22h-16m8-8v16m-97 8h-16m8-8v16" stroke="var(--icon-error-primary-600, #007DFF)" stroke-width="2" fill="none"/></svg>
