<svg width="342" height="271" xmlns="http://www.w3.org/2000/svg"><path d="M151.999 126.154v-10.818s-1.592-7.852-8.156-8.055c-6.565-.203-29.031 0-29.031 0s1.443 2.592 1.427 3.963c-.015 1.371 0 14.91 0 14.91h35.76z" fill="var(--icon-error-secondary-200, #EEF3F5)"/><path d="M255.467 223.215h22.694s.227-6.166-1.243-8.012c-1.471-1.846-3.771-5.349-5.328-5.465-1.558-.115-5.159-1.59-5.159-1.59h-2.355v-41.273s-3.68 7.104-8.879 9.367c-5.199 2.264-10.099 2.067-10.099 2.067s.512 9.476-.809 12.8c-1.321 3.325-5.373 11.08-6.216 12.329-.843 1.248-.613 1.843 1.326 1.882 1.94.039 6.026.743 8.959 2.565 2.934 1.822 6.744 4.963 7.109 8.363.364 3.4.769 4.033.719 4.543-.05.51-.719 2.424-.719 2.424zm8.78-137.941s-.702-10.559 2.294-14.48c2.996-3.923 11.878-14.136 12.492-19.563.614-5.428 1.904-11.973 0-14.654-1.904-2.682-5.534-2.15-6.439-2.014-.904.137 3.21 8.904-3.618 18.715-6.828 9.81-18.238 15.002-19.254 15.463-1.015.46-3.163 1.664 0 2.564 3.163.9 8.58 4.707 10.363 7.707 1.782 3 4.162 6.262 4.162 6.262z" fill="var(--icon-error-secondary-300, #DBDEE5)"/><path d="M298 112h-16m8-8v16m8 14h-16m8-8v16m8 14h-16m8-8v16m8 14h-16m8-8v16m30-8h-16m8-8v16m-14 14h-16m8-8v16m30-8h-16m8-8v16m30-8h-16m8-8v16m-36 14h-16m8-8v16m30-8h-16m8-8v16m30-8h-16m8-8v16m-36 14h-16m8-8v16m-36-8h-16m8-8v16m74-8h-16m8-8v16m-36-8h-16m8-8v16M37.073 153h-15.61m7.805-8v16m7.805 14h-15.61m7.805-8v16m7.805 14h-15.61m7.805-8v16M15.61 219H0m7.805-8v16m29.268-8h-15.61m7.805-8v16M15.61 241H0m7.805-8v16m29.268-8h-15.61m7.805-8v16m29.269-8h-15.61m7.805-8v16M80 241H64.39m7.805-8v16m-35.122 14h-15.61m7.805-8v16m29.269-8h-15.61m7.805-8v16M80 263H64.39m7.805-8v16m29.342-30h-15.61m7.805-8v16M123 241h-15.61m7.805-8v16" stroke="var(--icon-error-secondary-300, #DBDEE5)" stroke-width="2"/><path d="M201.294 223.246H91.842" stroke="var(--icon-error-secondary-300, #DBDEE5)" stroke-width="2" stroke-linecap="round"/><path d="M279.322 38.533c-.837 2.605-4.231-1.13-4.171-3.547.061-2.418 5.008.941 4.171 3.547z" fill="var(--icon-error-primary-600, #DE5846)"/><path d="M162 125.154c14.291-19.543 41-36.598 41-69s12.474-37.74 19-41c1.433-.716 5.45-10.043 6-12 .55-1.958 3.566-3.663 6 0 2.178 3.277 5 8 5 8s24.327.03 33 23c.396 1.05 4.644-.14 6 1 1.356 1.14 6.216 15.258-7 30-3.174 3.54-7 6.297-7 22v121s14-.269 14 13v1h-16" stroke="var(--icon-error-secondary-900, #212225)" stroke-width="2" stroke-linecap="round" fill="none"/><path d="M226.242 146.586c11.571 8.143 18.757 21.344 18.757 36.568 0 8.995-3.341 14.763-7.887 21.793m-.112.207c6.706 0 17.203 2.292 19 14 .168 1.093 0 3 0 3l-27.975.092m44.089-187.858S280.44 58.935 241 72.154m-20.105-56.287s5.561-1.414 8.105-3.713m35 73s-5.014-11.997-17-15m-38.364 55.822c-2.705-3.929-4.686-11.811-2.637-17.822m54.891-76.599s-2.604-2.2-8.058 0M245 178.582s15.492-.463 19.004-13.09" stroke="var(--icon-error-secondary-900, #212225)" stroke-width="2" stroke-linecap="round" fill="none"/><path d="M116 126.154h100c5.523 0 10 4.477 10 10v77m-167-86v-16c0-5.523 4.477-10 10-10h37c5.523 0 10 4.477 10 10v16" stroke="var(--icon-error-secondary-300, #DBDEE5)" stroke-width="2" fill="none"/><path d="M115 107.154h27c5.523 0 10 4.477 10 10v10" stroke="var(--icon-error-secondary-300, #DBDEE5)" stroke-width="2" fill="none"/><path d="M116 125.154a1 1 0 000 2v-2zm109 37a1 1 0 002 0h-2zm-167 51a1 1 0 002 0h-2zm2-86a1 1 0 00-2 0h2zm56 0h100v-2H116v2zm100 0a9 9 0 019 9h2c0-6.075-4.925-11-11-11v2zm9 9v26h2v-26h-2zm-165 77v-86h-2v86h2z" fill="var(--icon-error-secondary-300, #DBDEE5)"/><mask id="a" fill="#fff"><path fill-rule="evenodd" clip-rule="evenodd" d="M174 171.154v-4h4v4h-4zm-8 0v-4h4v4h-4zm-48 0v-4h4v4h-4zm-8 0v-4h4v4h-4zm60-4v-4h4v4h-4zm-56 0v-4h4v4h-4zm60-4v-4h4v4h-4zm-8 0v-4h4v4h-4zm-48 0v-4h4v4h-4zm-8 0v-4h4v4h-4z"/></mask><path d="M174 171.154h-2v2h2v-2zm0-4v-2h-2v2h2zm4 0h2v-2h-2v2zm0 4v2h2v-2h-2zm-12 0h-2v2h2v-2zm0-4v-2h-2v2h2zm4 0h2v-2h-2v2zm0 4v2h2v-2h-2zm-52 0h-2v2h2v-2zm0-4v-2h-2v2h2zm4 0h2v-2h-2v2zm0 4v2h2v-2h-2zm-12 0h-2v2h2v-2zm0-4v-2h-2v2h2zm4 0h2v-2h-2v2zm0 4v2h2v-2h-2zm56-4h-2v2h2v-2zm0-4v-2h-2v2h2zm4 0h2v-2h-2v2zm0 4v2h2v-2h-2zm-60 0h-2v2h2v-2zm0-4v-2h-2v2h2zm4 0h2v-2h-2v2zm0 4v2h2v-2h-2zm56-4h-2v2h2v-2zm0-4v-2h-2v2h2zm4 0h2v-2h-2v2zm0 4v2h2v-2h-2zm-12 0h-2v2h2v-2zm0-4v-2h-2v2h2zm4 0h2v-2h-2v2zm0 4v2h2v-2h-2zm-52 0h-2v2h2v-2zm0-4v-2h-2v2h2zm4 0h2v-2h-2v2zm0 4v2h2v-2h-2zm-12 0h-2v2h2v-2zm0-4v-2h-2v2h2zm4 0h2v-2h-2v2zm0 4v2h2v-2h-2zm62 8v-4h-4v4h4zm-2-2h4v-4h-4v4zm2-2v4h4v-4h-4zm2 2h-4v4h4v-4zm-10 2v-4h-4v4h4zm-2-2h4v-4h-4v4zm2-2v4h4v-4h-4zm2 2h-4v4h4v-4zm-50 2v-4h-4v4h4zm-2-2h4v-4h-4v4zm2-2v4h4v-4h-4zm2 2h-4v4h4v-4zm-10 2v-4h-4v4h4zm-2-2h4v-4h-4v4zm2-2v4h4v-4h-4zm2 2h-4v4h4v-4zm58-2v-4h-4v4h4zm-2-2h4v-4h-4v4zm2-2v4h4v-4h-4zm2 2h-4v4h4v-4zm-58 2v-4h-4v4h4zm-2-2h4v-4h-4v4zm2-2v4h4v-4h-4zm2 2h-4v4h4v-4zm58-2v-4h-4v4h4zm-2-2h4v-4h-4v4zm2-2v4h4v-4h-4zm2 2h-4v4h4v-4zm-10 2v-4h-4v4h4zm-2-2h4v-4h-4v4zm2-2v4h4v-4h-4zm2 2h-4v4h4v-4zm-50 2v-4h-4v4h4zm-2-2h4v-4h-4v4zm2-2v4h4v-4h-4zm2 2h-4v4h4v-4zm-10 2v-4h-4v4h4zm-2-2h4v-4h-4v4zm2-2v4h4v-4h-4zm2 2h-4v4h4v-4z" mask="url(#a)"/><path d="M133 190.154h24m-81.383 16H108.5a8.5 8.5 0 110 17h-53a8.5 8.5 0 010-17h2.587" stroke="var(--icon-error-secondary-900, #212225)" stroke-width="2" fill="none"/></svg>
