<svg viewBox="0 0 20 20" xmlns="http://www.w3.org/2000/svg">
<path fill-rule="evenodd" clip-rule="evenodd" d="M17.1696 3L15.5 3.18569C14.1905 3.33124 12.9695 3.91816 12.0379 4.84989L6.28125 10.6231L9.56155 13.9051L15.3197 8.13189C16.2517 7.20044 16.8387 5.97929 16.9839 4.66962L17.1696 3Z" stroke="currentColor" stroke-width="2" stroke-linecap="round" stroke-linejoin="round" fill="none"/>
<path fill-rule="evenodd" clip-rule="evenodd" d="M6.28106 10.6231L3.47887 9.68846C3.28807 9.62509 3.14375 9.46734 3.09755 9.27166C3.05135 9.07598 3.10988 8.87033 3.25219 8.72831L3.43168 8.54881C4.67485 7.30535 6.51384 6.87104 8.18193 7.42696L9.15287 7.75036L6.28106 10.6231Z" stroke="currentColor" stroke-width="2" stroke-linecap="round" stroke-linejoin="round" fill="none"/>
<path fill-rule="evenodd" clip-rule="evenodd" d="M6.28106 10.6231L3.47887 9.68846C3.28807 9.62509 3.14375 9.46734 3.09755 9.27166C3.05135 9.07598 3.10988 8.87033 3.25219 8.72831L3.43168 8.54881C4.67485 7.30535 6.51384 6.87104 8.18193 7.42696L9.15287 7.75036L6.28106 10.6231Z" stroke="currentColor" stroke-width="2" stroke-linecap="round" stroke-linejoin="round" fill="none"/>
<path fill-rule="evenodd" clip-rule="evenodd" d="M9.55859 13.9049L10.4932 16.7072C10.5565 16.8981 10.7143 17.0424 10.91 17.0886C11.1056 17.1348 11.3113 17.0763 11.4533 16.9339L11.6335 16.7544C12.8767 15.511 13.3107 13.672 12.7546 12.004L12.4327 11.0369L9.55859 13.9049Z" stroke="currentColor" stroke-width="2" stroke-linecap="round" stroke-linejoin="round" fill="none"/>
<path fill-rule="evenodd" clip-rule="evenodd" d="M9.55859 13.9049L10.4932 16.7072C10.5565 16.8981 10.7143 17.0424 10.91 17.0886C11.1056 17.1348 11.3113 17.0763 11.4533 16.9339L11.6335 16.7544C12.8767 15.511 13.3107 13.672 12.7546 12.004L12.4327 11.0369L9.55859 13.9049Z" stroke="currentColor" stroke-width="2" stroke-linecap="round" stroke-linejoin="round" fill="none"/>
<path d="M6.61022 14.9209C6.61082 15.3827 6.42733 15.8257 6.10038 16.1519C5.42111 16.8312 2 17.7929 2 17.7929C2 17.7929 2.96165 14.3693 3.64093 13.6923C3.93932 13.3932 4.33648 13.213 4.75808 13.1855" stroke="currentColor" stroke-width="2" stroke-linecap="round" stroke-linejoin="round" fill="none"/>
</svg>
