<svg viewBox="0 0 20 20" xmlns="http://www.w3.org/2000/svg">
<path d="M6.04617 13.5201C5.36424 12.0825 5.46508 10.396 6.31346 9.04987C7.16183 7.70376 8.63983 6.88516 10.231 6.88013C16.1814 6.88013 16.4142 16.1265 10.6038 14.3769C9.1691 13.9686 8.33636 12.4753 8.74297 11.0401C8.93177 10.421 9.39591 9.92382 10.0006 9.69293" stroke="currentColor" stroke-width="2" stroke-linecap="round" stroke-linejoin="round" fill="none"/>
<path d="M14.32 13.3599C16.231 13.5447 17.9537 14.5901 19 16.1999H6.0536C2.8208 16.1999 2.8608 13.9423 1 7.7999C1 6.47442 2.07452 5.3999 3.4 5.3999V5.3999C4.25914 5.40051 5.05243 5.86031 5.48 6.6055" stroke="currentColor" stroke-width="2" stroke-linecap="round" stroke-linejoin="round" fill="none"/>
<path d="M3.4 5.4C3.4 4.07452 2.32548 3 1 3" stroke="currentColor" stroke-width="2" stroke-linecap="round" stroke-linejoin="round" fill="none"/>
</svg>
