<svg xmlns="http://www.w3.org/2000/svg" viewBox="0 0 948 381"><path d="M132 297h-32a39.989 39.989 0 01-40-40V68h13v183c0 16.3 12.7 33 33 33h74v85h52v12h-65v-84z" fill="#3c4249"/><path d="M234 220.5V48h-53v182h-54V48H74v203.2a30.98 30.98 0 009.3 22.4A31.354 31.354 0 00106 283h75v85h53v-65.1m0 8.1v-8a20.059 20.059 0 0120-20h6m-8 0h12" fill="none" stroke="#7e8a9c" stroke-width="2"/><g transform="translate(262 279)" fill="none"><circle data-name="Эллипс 43" cx="5" cy="5" r="5"/><circle data-name="Эллипс 44" cx="4" cy="4" r="4" transform="translate(1 1)" stroke="#7e8a9c" stroke-width="2"/></g><g transform="translate(230 220)" fill="none"><circle data-name="Эллипс 45" cx="4.9" cy="4.9" r="4.9"/><circle data-name="Эллипс 46" cx="3.9" cy="3.9" r="3.9" transform="translate(1 1)" stroke="#7e8a9c" stroke-width="2"/></g><path d="M372 381v-55c0-27.7 24-53 24-53s-13 19.3-13 36v61h172v11zm125-189c1.7-2 4-9 4-17v-42c0-4.7-3.2-19-18-19h-44s4.1-11 13-11h44c7.5 0 16 7.4 16 16v46c0 12.9-14.8 27.2-15.1 27.2a.31.31 0 01.1-.2zm-125-30v-35c0-28.5 21-46 21-46s-10 18.3-10 34v36h43v11z" fill="#3c4249"/><path d="M480 315h-42a22.191 22.191 0 014.4-11.9 69.34 69.34 0 0111.4-12.2 133.524 133.524 0 0116-12c6-3.9 12-7.9 18.1-12 8.7-5.8 17.7-12.1 26.9-18.8a190.739 190.739 0 0025.4-22.1 102.575 102.575 0 0018.8-26.9 74.712 74.712 0 007.2-33.2v-47.2a67.491 67.491 0 00-5.7-27.3 72.875 72.875 0 00-37.7-37.8 67.371 67.371 0 00-27.2-5.7H455a68.046 68.046 0 00-27.7 5.7 72.523 72.523 0 00-37.7 37.8 67.491 67.491 0 00-5.7 27.3v31h53.6v-31a16.769 16.769 0 014.8-12 16.3 16.3 0 0112.3-5h40.8a17.136 17.136 0 0117.1 17v47.2a26.191 26.191 0 01-4.6 14.4 80.03 80.03 0 01-12 14 152.819 152.819 0 01-17.2 13.8c-6.5 4.5-13.3 9.1-20.3 13.8-8.7 5.8-17.5 11.9-26.4 18.1a167.678 167.678 0 00-24 20.5 99.357 99.357 0 00-17.4 24.7 66.963 66.963 0 00-6.8 30.1V369h183v-54h-26" fill="none" stroke="#7e8a9c" stroke-width="2"/><path d="M406.3 141.5V118a50.867 50.867 0 014.3-20.7 54.921 54.921 0 0128.5-28.6 50.181 50.181 0 0120.9-4.3h30.7a50.4 50.4 0 0120.6 4.3 54.921 54.921 0 0128.5 28.6 50.526 50.526 0 014.3 20.7v35.7a55.742 55.742 0 01-5.5 25.1c-3.6 7.5-6.2 11.6-14.2 20.3S489 233 443 265c-29.4 20.5-29 39.7-29 50v33h135" fill="none" stroke="#de5846" stroke-width="2"/><g transform="translate(479 309)" fill="none"><circle data-name="Эллипс 47" cx="5" cy="5" r="5"/><circle data-name="Эллипс 48" cx="4" cy="4" r="4" transform="translate(1 1)" stroke="#7e8a9c" stroke-width="2"/></g><g transform="translate(532 309)" fill="none"><circle data-name="Эллипс 49" cx="5" cy="5" r="5"/><circle data-name="Эллипс 50" cx="4" cy="4" r="4" transform="translate(1 1)" stroke="#7e8a9c" stroke-width="2"/></g><path d="M692 349c-14-19.6-13-46-13-46v-10l12-3v10c0 6.1 2.4 28.8 18 45s31 25 48 25h49c24.1 0 37-11 37-11s-13.7 22-47 22h-45.6c-6.3 0-35.9-.6-58.4-32zm118-92a121.664 121.664 0 01-16 1h-35c-7.6 0-46.2-1.4-65-29-12.3-18.1-14-40-14-52v-46c0-33.3 25-54 25-54s-14 14.2-14 38v58c0 46.2 36.7 75 72 75h28c6.9 0 29-2 29-2v55c0 8.7-10 13-10 13zm0-128a15.653 15.653 0 00-16-15h-46s3.5-11 13-11h44c6.9 0 15 5.1 15 15v58c0 10.8-10 15-10 15z" fill="#3c4249"/><path data-name="Контур 9" d="M874.9 137.6v-18.2c0-9.6-1.5-19.2-5.3-27.8a72.728 72.728 0 00-37.9-37.9 68.175 68.175 0 00-27.8-5.7h-40.3a68.174 68.174 0 00-27.8 5.7 72.728 72.728 0 00-37.9 37.9 67.612 67.612 0 00-5.7 27.4v56.5a68.176 68.176 0 005.7 27.8 72.728 72.728 0 0037.9 37.9 69.773 69.773 0 0028.1 5.9c11.7 0 22.1.2 29 0a194.549 194.549 0 0028.5-2.4v53.8a17.2 17.2 0 01-16.9 17.5h-40.9a17.2 17.2 0 01-17.5-16.9v-31.2l-53.8 13.6v17.1a68.176 68.176 0 005.7 27.8 72.728 72.728 0 0037.9 37.9c8.6 3.8 17.9 4.9 27.9 4.9h40.4c9.9 0 19-1.1 27.6-4.9a72.728 72.728 0 0037.9-37.9c3.8-8.6 5.3-17 5.3-27V187.9m-53.5-12.5a17.2 17.2 0 01-16.9 17.5h-40.9a17.2 17.2 0 01-17.5-16.9v-57.1a16.388 16.388 0 015-12 17.122 17.122 0 0112.5-5H804a17.122 17.122 0 0112.5 5 16.01 16.01 0 015 12z" fill="none"/><path data-name="Контур 10" d="M763.7 50a71.472 71.472 0 00-14 1.4 65.471 65.471 0 00-13 4.1 70.97 70.97 0 00-11.8 6.5 74.664 74.664 0 00-10.2 8.4 69.068 69.068 0 00-8.4 10.2 69.091 69.091 0 00-10.6 24.7 68.444 68.444 0 00-1.4 13.7v56.5a71.47 71.47 0 001.4 14 65.48 65.48 0 004.1 13 70.968 70.968 0 006.5 11.8 74.667 74.667 0 008.4 10.2 69.067 69.067 0 0010.2 8.4 67.181 67.181 0 0011.8 6.5 65.76 65.76 0 0013.2 4.3 66.877 66.877 0 0014.1 1.5h21.1c3.3 0 5.9 0 7.9-.1a199.1 199.1 0 0028.1-2.4l2.4-.5v56.3A19.132 19.132 0 01804 318h-40.3a19.132 19.132 0 01-19.5-19.5v-28.1L694.4 283v15.5a71.47 71.47 0 001.4 14 65.48 65.48 0 004.1 13 70.969 70.969 0 006.5 11.8 74.671 74.671 0 008.4 10.2 69.069 69.069 0 0010.2 8.4 67.181 67.181 0 0011.8 6.5 50.981 50.981 0 0012.9 3.7 85.7 85.7 0 0014.1 1h40.4c11.1 0 19.4-1.5 26.8-4.7a70.97 70.97 0 0011.8-6.5 74.662 74.662 0 0010.2-8.4 69.067 69.067 0 008.4-10.2 67.187 67.187 0 006.5-11.8c3.5-8 5.1-16.1 5.1-26.2V119.4c0-10.2-1.7-19.3-5.1-27a70.968 70.968 0 00-6.5-11.8 74.667 74.667 0 00-8.4-10.2 69.067 69.067 0 00-10.2-8.4 67.181 67.181 0 00-11.8-6.5 65.473 65.473 0 00-13-4.1 71.472 71.472 0 00-14-1.4h-40.3M804 194.9h-40.3a19.132 19.132 0 01-19.5-19.5v-56.5a18.749 18.749 0 015.6-13.5 19 19 0 0113.9-5.6H804a19 19 0 0113.9 5.6 18.584 18.584 0 015.6 13.5v56.5a19.132 19.132 0 01-19.5 19.5M763.7 48H804a68.121 68.121 0 0127.8 5.7 72.708 72.708 0 0137.8 37.8c3.8 8.6 5.3 18.2 5.3 27.8v179.9c0 9.9-1.5 18.4-5.3 27a72.708 72.708 0 01-37.8 37.8c-8.6 3.8-17.7 4.9-27.6 4.9h-40.4c-9.9 0-19.3-1.1-27.9-4.9a72.708 72.708 0 01-37.8-37.8 68.12 68.12 0 01-5.7-27.8v-17.1l53.8-13.6v30.6a17.2 17.2 0 005 12.5 16.808 16.808 0 0012.5 5H804a17.2 17.2 0 0012.5-5 16.808 16.808 0 005-12.5v-53.8a208.572 208.572 0 01-28.5 2.4c-2.3.1-5 .1-8 .1-6 0-13.2-.1-21-.1a69.678 69.678 0 01-28.1-5.9 72.708 72.708 0 01-37.8-37.8 68.12 68.12 0 01-5.7-27.8v-56.5a67.614 67.614 0 015.7-27.4 72.708 72.708 0 0137.8-37.8 68.119 68.119 0 0127.8-5.7zM804 192.9a17.2 17.2 0 0012.5-5 16.808 16.808 0 005-12.5v-56.5a16.387 16.387 0 00-5-12 16.808 16.808 0 00-12.5-5h-40.3a17.2 17.2 0 00-12.5 5 16.321 16.321 0 00-5 12v56.5a17.2 17.2 0 005 12.5 16.808 16.808 0 0012.5 5z" fill="#7e8a9c"/><g transform="translate(871 137)" fill="none"><circle data-name="Эллипс 51" cx="5" cy="5" r="5"/><circle data-name="Эллипс 52" cx="4" cy="4" r="4" transform="translate(1 1)" stroke="#7e8a9c" stroke-width="2"/></g><g transform="translate(871 180)" fill="none"><circle data-name="Эллипс 53" cx="5" cy="5" r="5"/><circle data-name="Эллипс 54" cx="4" cy="4" r="4" transform="translate(1 1)" stroke="#7e8a9c" stroke-width="2"/></g><path d="M592 381v-15h-5v-2h5v-38h-6v-2h6v-4h2v4h21v2h-21v38h38v-9h2v9h38v-7h2v7h18v2h-18v13h-2v-13h-38v8h-2v-8h-38v15zm0-67v-4h-4v-2h4v-4h2v4h4v2h-4v4zM335 204v-15h-5v-2h5v-38h-6v-2h6v-4h2v4h21v2h-21v38h38v-9h2v9h38v-7h2v7h18v2h-18v13h-2v-13h-38v8h-2v-8h-38v15zm0-67v-4h-4v-2h4v-4h2v4h4v2h-4v4zm601 159v-5h-10v-2h10v-38h-38v6h-2v-6h-4v-2h4v-21h2v21h38v-38h-9v-2h9v-38h-7v-2h7v-38h-38v11h-2v-11h-4v-2h4v-11h2v11h38v-21h2v21h5v2h-5v38h3v2h-3v38h3v2h-3v38h10v2h-10v38h10v2h-10v5zm-26-1v-4h-4v-2h4v-4h2v4h4v2h-4v4zm-14-187v-4h-4v-2h4v-4h2v4h4v2h-4v4zM95 377v-11H84v-2h11v-38H57v36h-2v-36H17v38h10v2H17v5h-2v-5H0v-2h15v-38H0v-2h15v-38H7v-2h8v-38H2v-2h13v-38h-5v-2h5v-21h2v21h4v2h-4v38h7v2h-7v38h9v2h-9v38h38v-21h2v21h38v-11h2v11h14v2H97v38h4v2h-4v11zm-54-7v-4h-4v-2h4v-4h2v4h4v2h-4v4zm-2-120v-4h-4v-2h4v-4h2v4h4v2h-4v4zM264 85V64h-5v-2h5V24h-38v9h-2v-9h-10v-2h10V0h2v22h38V10h2v12h7v2h-7v38h38V51h2v11h4v2h-4v11h-2V64h-38v21zm24-57v-4h-4v-2h4v-4h2v4h4v2h-4v4z" fill="#3c4249"/></svg>