<svg viewBox="0 0 60 60" fill="none" xmlns="http://www.w3.org/2000/svg"><rect width="60" height="60" rx="12"/><g clip-path="url(#a)"><path d="M45.9 52a.9.9 0 0 1-.641-.266L40.125 46.6a.909.909 0 0 1 0-1.284l.42-.42a.662.662 0 0 0 .008-.863 12.166 12.166 0 0 1-.206-.212c-.17-.176-.382-.396-.65-.645l-.116-.11c-.255-.247-.52-.501-.852-.501a.783.783 0 0 0-.389.112 9.42 9.42 0 0 0-.467.29l-.003.002a9.05 9.05 0 0 1-.393.246 18.881 18.881 0 0 1-20.141-.63 18.964 18.964 0 0 1-6.85-8.32 18.883 18.883 0 0 1 1.743-17.931 18.963 18.963 0 0 1 8.32-6.85 18.882 18.882 0 0 1 17.93 1.743 18.962 18.962 0 0 1 6.85 8.319 18.94 18.94 0 0 1-1.747 17.938c-.28.412-.578.819-.889 1.207a.805.805 0 0 0-.002 1.062l1.07 1.07.07.074c.098.105.19.205.324.205a.723.723 0 0 0 .45-.267l.653-.654a.906.906 0 0 1 1.284 0l5.134 5.134a.908.908 0 0 1 0 1.284l-5.134 5.134A.902.902 0 0 1 45.9 52zM27.81 23.635c-.044.046-4.426 4.687-10.413 10.49a2.73 2.73 0 0 0-.953 1.92c.004.6.238 1.175.652 1.609a15.128 15.128 0 0 0 10.713 4.505h.079A15.129 15.129 0 0 0 38.6 37.654c.414-.434.648-1.01.652-1.61a2.73 2.73 0 0 0-.953-1.92c-5.976-5.792-10.445-10.444-10.49-10.49v.001zm.07-9.15c.424.683 10.415 16.738 11.089 17.63.429.554.902.835 1.405.835a1.96 1.96 0 0 0 1.308-.62c.292-.27.518-.603.664-.973a15.172 15.172 0 0 0-14.453-19.55h-.09a15.19 15.19 0 0 0-14.454 19.55c.146.37.373.703.664.974.341.365.81.587 1.309.62.503 0 .976-.282 1.404-.836.212-.263 10.02-15.83 11.137-17.604l.016-.026h.002zm7.632 20.742H20.296l2.756-2.877h9.704l2.756 2.876zm-4.76-4.937h-5.657l2.828-2.912 2.829 2.912z" fill="#fff"/></g><defs><clipPath id="a"><path fill="#fff" transform="translate(9.001 8)" d="M0 0h42.941v44H0z"/></clipPath></defs></svg>