<svg width="208" height="105" fill="none" xmlns="http://www.w3.org/2000/svg"><path d="M147.015 52.059c0 23.748-19.252 43-43 43-4.902 0-9.612-.82-14-2.33m55.831-50.67a42.667 42.667 0 0 0-1.907-6m-4.24-8c-7.724-11.462-20.824-19-35.684-19-23.749 0-43 19.251-43 43 0 8.46 2.443 16.348 6.661 23m13.339 13.338a43.212 43.212 0 0 1-8.285-6.838" stroke="#DBDEE5" stroke-width="2" stroke-linecap="round"/><circle cx="103.515" cy="52.559" r="31.5" stroke="#DE5846" stroke-width="2"/><circle cx="103.501" cy="52.5" r="27.5" fill="#FFE0DA"/><path d="m103.5 59.325 6.451 6.463a4.112 4.112 0 0 0 2.92 1.212 4.112 4.112 0 0 0 2.92-1.212 4.143 4.143 0 0 0 0-5.852l-6.45-6.462 6.399-6.412a4.143 4.143 0 0 0 0-5.85 4.125 4.125 0 0 0-5.841 0l-.787.788m-5.612 5.623-6.399-6.411a4.123 4.123 0 0 0-5.839 0 4.142 4.142 0 0 0 0 5.85l6.399 6.412-6.45 6.462a4.144 4.144 0 0 0 0 5.852 4.123 4.123 0 0 0 5.839 0l.786-.788m9.036-20.755-1.686 1.689M101.33 61.5l-1.6 1.603" stroke="#DE5846" stroke-width="2" stroke-linecap="round"/><path d="M30.56 16.006h2v-7h7v-2h-7v-7h-2v7h-7v2h7v7ZM73.56 104.006h2v-7h7l.001-2h-7v-7h-2v7h-7v2h7v7ZM7.56 104.004h2v-7h7v-2h-7v-7h-2v7h-7v2h7v7ZM29.56 104.004h2v-7h7v-2h-7v-7h-2v7h-7v2h7v7ZM29.56 82.004h2v-7h7v-2h-7v-7h-2v7h-7v2h7v7ZM52.06 82.004h2v-7h7v-2h-7v-7h-2v7h-7v2h7v7ZM52.06 16.004h2v-7h7v-2h-7v-7h-2v7h-7v2h7v7ZM52.06 38.004h2v-7h7v-2h-7v-7h-2v7h-7v2h7v7ZM73.56 16.004h2v-7h7v-2h-7v-7h-2v7h-7v2h7v7ZM177.443 16h-2V9h-7V7h7V0h2v7h7v2h-7v7ZM134.442 104h-2v-7h-7v-2h7v-7h2v7h7v2h-7v7ZM200.44 104h-2v-7h-7v-2h7v-7h2v7h7v2h-7v7ZM178.44 104h-2v-7h-7v-2h7v-7h2v7h7v2h-7v7ZM178.44 82h-2v-7h-7v-2h7v-7h2v7h7v2h-7v7ZM155.94 82h-2v-7h-7v-2h7v-7h2v7h7v2h-7v7ZM155.941 16h-2V9h-7V7h7V0h2v7h7v2h-7v7ZM155.94 38h-2v-7h-7v-2h7v-7h2v7h7v2h-7v7ZM134.44 16h-2V9h-7V7h7V0h2v7h7v2h-7v7Z" fill="#DBDEE5"/></svg>