<svg viewBox="0 0 16 16" xmlns="http://www.w3.org/2000/svg"><path d="M16 14.989 8.03 2v4.54L16 14.989Zm-4.373-2.711-1.283-1.356H8.02v1.356h3.606Zm-2.199-2.3-1.4-1.454-.01 1.454h1.41Z" fill="currentColor"/><path d="M6 7.127c-.767 0-1.39.615-1.39 1.375 0 .759.623 1.374 1.39 1.374M5.875 3a.923.923 0 0 0-.917.787l-.182 1.256c-.44.145-.845.377-1.193.681l-1.19-.472a.931.931 0 0 0-1.146.394l-.123.211a.91.91 0 0 0 .23 1.18l1.018.788a3.59 3.59 0 0 0 .002 1.347l-1.017.793a.91.91 0 0 0-.231 1.182l.123.212a.931.931 0 0 0 1.146.39l1.202-.475c.346.296.746.524 1.178.675l.185 1.265a.923.923 0 0 0 .917.786" fill="none" stroke="currentColor" stroke-width="1.6" stroke-linecap="round" stroke-linejoin="round"/></svg>