<svg xmlns="http://www.w3.org/2000/svg" viewBox="0 0 19.25 19.25"><path d="M5.025 5.6h-3.45A.575.575 0 011 5.025v-3.45A.575.575 0 011.575 1h4.6a.575.575 0 01.575.575v2.3m0 11.5v2.3a.575.575 0 01-.575.575h-4.6A.575.575 0 011 17.675v-3.45a.575.575 0 01.575-.575h3.45M12.5 3.875v-2.3A.575.575 0 0113.075 1h4.6a.575.575 0 01.575.575v3.45a.575.575 0 01-.575.575h-3.45m0 8.05h3.45a.575.575 0 01.575.575v3.45a.575.575 0 01-.575.575h-4.6a.575.575 0 01-.575-.575v-2.3M9.05 2.725h1.15M9.05 17.1h1.15M3.3 7.9v.575m0 2.3v.575M15.95 7.9v.575m0 2.3v.575" fill="none" stroke="currentColor" stroke-linecap="round" stroke-linejoin="round" stroke-width="2"/></svg>