<svg xmlns="http://www.w3.org/2000/svg" viewBox="0 0 20 20"><path d="M5.109 5.8h-3.5c-.3 0-.6-.3-.6-.6V1.7c0-.3.3-.6.6-.6h4.8c.3 0 .6.3.6.6v2.4m-.1 11.9v2.4c0 .3-.3.6-.6.6h-4.7c-.3-.1-.6-.3-.6-.6v-3.5c0-.3.3-.6.6-.6h3.5m7.8-10.3V1.6c0-.3.3-.6.6-.6h4.8c.3 0 .6.3.6.6v3.5c0 .3-.3.6-.6.6h-3.6m0 8.5h3.6c.3 0 .6.3.6.6v3.5c0 .3-.3.6-.6.6h-4.8c-.3 0-.6-.3-.6-.6v-2.4m-3.6-13.2h1.1m-1.1 15h1.1m-7.1-9.5v.6m0 2.4v.6m13.2-3.6v.6m0 2.4v.6" fill="none" stroke="currentColor" stroke-width="2" stroke-linecap="round" stroke-linejoin="round"/></svg>