<svg version="1.1" id="Layer_1" xmlns="http://www.w3.org/2000/svg" x="0" y="0" viewBox="0 0 22.7 22.7" xml:space="preserve"><style>.block-id-st0{fill:none;stroke:currentColor;stroke-width:2;stroke-linecap:round;stroke-linejoin:round}</style><g id="block_id" transform="translate(-348 -1025)"><g id="Group_117" transform="translate(348.75 1025.75)"><g id="crypto-currency-bitcoin-monitor-mining"><path id="Shape_789" class="block-id-st0" d="M5 5.7H.7C.3 5.7 0 5.3 0 5V.7C0 .3.3 0 .7 0h5.7c.4 0 .7.3.7.7v2.8"/><path id="Shape_790" class="block-id-st0" d="M7.1 17.7v2.8c0 .4-.3.7-.7.7H.7c-.4 0-.7-.3-.7-.7v-4.2c0-.4.3-.7.7-.7H5"/><path id="Shape_791" class="block-id-st0" d="M14.2 3.5V.7c0-.4.3-.7.7-.7h5.7c.4 0 .7.3.7.7V5c0 .4-.3.7-.7.7h-4.2"/><path id="Shape_792" class="block-id-st0" d="M16.3 15.6h4.2c.4 0 .7.3.7.7v4.2c0 .4-.3.7-.7.7h-5.7c-.4 0-.7-.3-.7-.7v-2.8"/><path id="Shape_793" class="block-id-st0" d="M9.9 2.1h1.4"/><path id="Shape_794" class="block-id-st0" d="M9.9 19.8h1.4"/><path id="Shape_795" class="block-id-st0" d="M2.8 8.5v.7"/><path id="Shape_796" class="block-id-st0" d="M2.8 12v.7"/><path id="Shape_797" class="block-id-st0" d="M18.4 8.5v.7"/><path id="Shape_798" class="block-id-st0" d="M18.4 12v.7"/></g></g></g></svg>