<svg xmlns="http://www.w3.org/2000/svg" viewBox="0 0 20 20"><style>.block-id-st0{fill:none;stroke:currentColor;stroke-width:2;stroke-linecap:round;stroke-linejoin:round}</style><g id="Block_Current_Round" transform="translate(-285.341 -731.75)"><g id="Group_117" transform="translate(348.75 1025.75)"><g id="crypto-currency-bitcoin-monitor-mining"><path id="Shape_789" class="block-id-st0" d="M-58.3-288.2h-3.5c-.3 0-.6-.3-.6-.6v-3.5c0-.3.3-.6.6-.6h4.8c.3 0 .6.3.6.6v2.4"/><path id="Shape_790" class="block-id-st0" d="M-56.5-278v2.4c0 .3-.3.6-.6.6h-4.7c-.3-.1-.6-.3-.6-.6v-3.5c0-.3.3-.6.6-.6h3.5"/><path id="Shape_791" class="block-id-st0" d="M-50.5-290v-2.4c0-.3.3-.6.6-.6h4.8c.3 0 .6.3.6.6v3.5c0 .3-.3.6-.6.6h-3.6"/><path id="Shape_792" class="block-id-st0" d="M-48.7-279.8h3.6c.3 0 .6.3.6.6v3.5c0 .3-.3.6-.6.6h-4.8c-.3 0-.6-.3-.6-.6v-2.4"/><path id="Shape_793" class="block-id-st0" d="M-54.1-291.3h1.1"/><path id="Shape_794" class="block-id-st0" d="M-54.1-276.3h1.1"/><path id="Shape_795" class="block-id-st0" d="M-60.1-285.8v.6"/><path id="Shape_796" class="block-id-st0" d="M-60.1-282.8v.6"/><path id="Shape_797" class="block-id-st0" d="M-46.9-285.8v.6"/><path id="Shape_798" class="block-id-st0" d="M-46.9-282.8v.6"/></g></g></g></svg>