<svg width="20" height="21" fill="none" xmlns="http://www.w3.org/2000/svg"><path d="M20 10.543A10 10 0 119.956.587 10 10 0 0120 10.543z" fill="#637282"/><path d="M19.25 10.546a9.249 9.249 0 11-9.29-9.202 9.25 9.25 0 019.29 9.202z" fill="#212225"/><path d="M10.173 1.94a5.085 5.085 0 011.777 0 5.417 5.417 0 011.698.568c.527.29.983.683 1.437 1.052.454.369.905.746 1.335 1.16a6.8 6.8 0 011.138 1.376c.326.504.594 1.043.797 1.607.386 1.135.52 2.357.328 3.523h-.058c-.193-1.156-.455-2.257-.87-3.305a12.858 12.858 0 00-.683-1.537c-.273-.5-.573-.983-.9-1.45a5.24 5.24 0 00-1.206-1.217c-.47-.334-1.01-.551-1.532-.757-.522-.206-1.04-.417-1.585-.573a20.094 20.094 0 00-1.677-.388v-.06z" fill="#C4C8CF"/><path d="M14.69 7.282c-.67-.194-1.366-.47-2.07-.748-.041-.177-.198-.397-.514-.666-.46-.399-1.325-.389-2.072-.212-.825-.194-1.64-.263-2.421-.072-6.395 1.761-2.77 6.059-5.117 10.38.334.708 3.935 4.843 9.145 3.733 0 0-1.782-4.282 2.24-6.337 3.26-1.673 5.617-4.768.81-6.078z" fill="#637282"/><path d="M15.482 10.094a.388.388 0 11-.776.004.388.388 0 01.776-.004z" fill="#fff"/><path d="M10.031 5.653c.466.033 2.151.58 2.586.878-.363-1.05-1.582-1.19-2.586-.878z" fill="#637282"/><path d="M10.48 8.31a1.789 1.789 0 11-1.79-1.788 1.788 1.788 0 011.788 1.787l.001.001z" fill="#fff"/><path d="M9.946 8.326a1.258 1.258 0 11-2.516 0 1.258 1.258 0 012.516 0z" fill="#212225"/><path d="M16.929 10.883c-1.45 1.02-3.097 1.795-5.435 1.795-1.094 0-1.316-1.16-2.039-.592-.373.294-1.689.952-2.733.902-1.044-.05-2.737-.662-3.209-2.892-.187 2.23-.283 3.871-1.122 5.753 1.666 2.67 5.64 4.728 9.248 3.84-.385-2.706 1.984-5.356 3.313-6.71.507-.514 1.47-1.353 1.977-2.096z" fill="#637282"/><path d="M16.87 10.95c-.45.41-.985.713-1.53.981a9.783 9.783 0 01-1.717.626c-.592.152-1.208.268-1.833.211-.624-.057-1.263-.269-1.677-.737l.02-.022c.507.329 1.093.445 1.675.461a7.84 7.84 0 001.761-.145 9.608 9.608 0 001.71-.529c.554-.228 1.1-.492 1.572-.87l.02.023z" fill="#212225"/></svg>