<svg width="20" height="20" viewBox="0 0 20 20" xmlns="http://www.w3.org/2000/svg">
<path d="M3.50476 18.8568H2.2381C1.55714 18.8568 1 18.2997 1 17.6188V2.95685C1 2.27589 1.55714 1.71875 2.17619 1.71875H10.781C11.1524 1.71875 11.4 1.84256 11.6476 2.09018L16.3524 6.79494C16.6 7.04256 16.7238 7.35208 16.7238 7.66161V8.37589" stroke="currentColor" stroke-width="2" stroke-linecap="round" stroke-linejoin="round" fill="none"/>
<path d="M8 13C6.89543 13 6 14.0745 6 15.4V16.6C6 17.9255 6.89543 19 8 19" stroke="currentColor" stroke-width="2" stroke-linecap="round" stroke-linejoin="round" fill="none"/>
<path d="M14 13H12.5C11.6716 13 11 13.5373 11 14.2C11 16 14 16 14 17.8C14 18.4627 13.3284 19 12.5 19H11" stroke="currentColor" stroke-width="2" stroke-linecap="round" stroke-linejoin="round" fill="none"/>
<path d="M16 13V15.036C16.0001 16.4468 16.522 17.826 17.5 19C18.478 17.826 18.9999 16.4468 19 15.036V13" stroke="currentColor" stroke-width="2" stroke-linecap="round" stroke-linejoin="round" fill="none"/>
</svg>
