<svg width="20" height="20" xmlns="http://www.w3.org/2000/svg"><path d="M3.505 18.857H2.238A1.242 1.242 0 0 1 1 17.619V2.957c0-.681.557-1.238 1.176-1.238h8.605c.371 0 .619.124.867.371l4.704 4.705c.248.248.372.557.372.867v.714" stroke="var(--theme-color-dark-blue-500, var(--theme-color-primary-600))" stroke-width="2" stroke-linecap="round" stroke-linejoin="round" fill="none"/><path d="M8 13c-1.105 0-2 1.075-2 2.4v1.2c0 1.325.895 2.4 2 2.4m6-6h-1.5c-.828 0-1.5.537-1.5 1.2 0 1.8 3 1.8 3 3.6 0 .663-.672 1.2-1.5 1.2H11m5-6v2.036c0 1.41.522 2.79 1.5 3.964.978-1.174 1.5-2.553 1.5-3.964V13" stroke="currentColor" stroke-width="2" stroke-linecap="round" stroke-linejoin="round" fill="none"/></svg>
