<svg version="1.1" id="Layer_1" xmlns="http://www.w3.org/2000/svg" x="0" y="0" viewBox="0 0 23.5 24.6" xml:space="preserve"><style>.st0{fill:none;stroke:#212225;stroke-width:1.5;stroke-linecap:round;stroke-linejoin:round}</style><g id="current_delegate" transform="translate(-418 -2757)"><g id="Regular_384"><path id="Shape_1503" class="st0" d="M418.8 2775.2c0-3.7 3-6.8 6.8-6.7.9 0 1.8.2 2.6.5"/><path id="Oval_562" class="st0" d="M425.5 2766c2.3 0 4.1-1.8 4.1-4.1s-1.8-4.1-4.1-4.1-4.1 1.8-4.1 4.1 1.8 4.1 4.1 4.1z"/></g><g id="Многоугольник_1790"><path d="M931.5 744.2l-6.5-3.5v-7.1l6.5-3.5 6.5 3.5v7.1l-6.5 3.5z" fill="none" transform="translate(-496.499 2037.422)"/><path d="M931.5 742.5l5-2.7v-5.3l-5-2.7-5 2.7v5.3l5 2.7m0 1.7l-6.5-3.5v-7.1l6.5-3.5 6.5 3.5v7.1l-6.5 3.5z" fill="#212225" transform="translate(-496.499 2037.422)"/></g><path id="Многоугольник_1790_копия" class="st0" d="M435.1 2776.3v-1.9l-4.4-2.4"/></g></svg>