<svg version="1.1" id="Слой_1" xmlns="http://www.w3.org/2000/svg" x="0" y="0" viewBox="0 0 23.1 24.7" xml:space="preserve"><style>.delegate-name-st0{fill:none;stroke:currentColor;stroke-width:2;stroke-linecap:round;stroke-linejoin:round}</style><g id="Delegate_Name" transform="translate(-421.937 -2616.75)"><g id="Group_354" transform="translate(423.037 2617.75)"><g id="Regular_354"><path id="Shape_1416" class="delegate-name-st0" d="M20.4 14.3l-7.6 7.6-3.8.8.8-3.8 7.6-7.6c.8-.8 2.2-.8 3 0 .8.8.8 2.2 0 3z"/><path id="Oval_511" class="delegate-name-st0" d="M7.1 8.7c2.4 0 4.3-1.9 4.3-4.2v-.1C11.4 2 9.5.1 7.2 0S2.8 1.9 2.8 4.3s1.9 4.4 4.3 4.4z"/><path id="Shape_1393" class="delegate-name-st0" d="M10.2 12.3c-1-.5-2.1-.7-3.2-.7-3.9 0-7.1 3.2-7.1 7.1"/></g></g></g></svg>