<svg xmlns="http://www.w3.org/2000/svg" viewBox="0 0 20 20"><style>.delegate-name-st0{fill:none;stroke:currentColor;stroke-width:2;stroke-linecap:round;stroke-linejoin:round}</style><g id="Delegate_Name" transform="translate(284.646 -2292.75)"><g id="Group_354" transform="translate(418.75 2614.75)"><g id="Regular_354" transform="translate(3 3)"><path id="Shape_1416" class="delegate-name-st0" d="M-688.8-312.3l-5.8 5.8-2.9.5.5-2.9 5.8-5.8c.6-.6 1.6-.6 2.3 0 .8.8.8 1.8.1 2.4z"/><path id="Oval_511-4" class="delegate-name-st0" d="M-699-317.4c1.8 0 3.3-1.5 3.3-3.3s-1.5-3.3-3.3-3.3-3.3 1.4-3.3 3.2c.1 1.9 1.5 3.4 3.3 3.4z"/><path id="Shape_1393-3" class="delegate-name-st0" d="M-696.5-313.8c-.7-.4-1.5-.5-2.5-.5-3 0-5.5 2.5-5.5 5.5"/></g></g></g></svg>