<svg xmlns="http://www.w3.org/2000/svg" viewBox="0 0 20 20"><style>.st1{fill:none;stroke:currentColor;stroke-width:2;stroke-linecap:round;stroke-linejoin:round}</style><g id="Delegate_Registration" transform="translate(497.061 104)"><g id="Сгруппировать_779"><path id="Фигура_525" fill="none" stroke="currentColor" stroke-width="2" stroke-linecap="round" d="M-480.2-103l-10.3 18"/><path id="Oval_511" class="st1" d="M-490.2-97.1c1.4 0 2.7-1.1 2.7-2.7 0-1.5-1.2-2.7-2.7-2.7s-2.7 1.2-2.7 2.7c0 1.5 1.1 2.7 2.7 2.7z"/><path id="Shape_1393" class="st1" d="M-488.3-94.2c-.6-.3-1.2-.5-1.9-.5-2.5 0-4.4 2-4.4 4.4"/></g></g><path id="Oval_511_1_" class="st1" d="M15.1 18.4c1.4 0 2.7-1.1 2.7-2.7 0-1.5-1.2-2.7-2.7-2.7s-2.7 1.2-2.7 2.7c0 1.5 1.1 2.7 2.7 2.7z"/></svg>