<svg version="1.1" id="Слой_1" xmlns="http://www.w3.org/2000/svg" x="0" y="0" viewBox="0 0 20 20" xml:space="preserve"><style>.details-st0{fill:none;stroke:currentColor;stroke-width:2;stroke-linecap:round;stroke-linejoin:round}</style><g id="Interface-Essential_Search_search-bar" transform="translate(278.412 -3262.75)"><g id="Group_338" transform="translate(303.755 3442.75)"><g id="search-bar"><path id="Shape_1549" class="details-st0" d="M-564.4-174.3v-1.1c0-.7-.4-1.2-1.1-1.2h-14.4c-.7 0-1.2.6-1.2 1.2v4.8c0 .7.6 1.2 1.2 1.2h4.2"/><path id="Oval_206" class="details-st0" d="M-569.2-165.2c2.3 0 4.2-1.9 4.2-4.2s-1.9-4.2-4.2-4.2c-2.2.1-4.1 2-4.1 4.2-.1 2.3 1.8 4.2 4.1 4.2z"/><path id="Shape_1550" class="details-st0" d="M-563.2-163.4l-3-3"/></g></g></g><path id="Shape_1212" class="details-st0" d="M3.7 6.6c-.2 0-.3.1-.3.3s.1.3.3.3c.2-.1.3-.2.3-.3 0-.2-.1-.3-.3-.3"/><path id="Shape_1214" class="details-st0" d="M6.7 6.6c-.2 0-.3.1-.3.3s.1.3.3.3.3-.1.3-.3c0-.2-.1-.3-.3-.3"/></svg>