<svg xmlns="http://www.w3.org/2000/svg" viewBox="0 0 20 20"><g fill="none" stroke="currentColor" stroke-width="2" stroke-linecap="round" stroke-linejoin="round"><path d="M17.767 5.7V4.6c0-.7-.4-1.2-1.1-1.2h-14.4c-.7 0-1.2.6-1.2 1.2v4.8c0 .7.6 1.2 1.2 1.2h4.2"/><path d="M12.967 14.8c2.3 0 4.2-1.9 4.2-4.2s-1.9-4.2-4.2-4.2c-2.2.1-4.1 2-4.1 4.2-.1 2.3 1.8 4.2 4.1 4.2zm6 1.8l-3-3M3.7 6.6c-.2 0-.3.1-.3.3s.1.3.3.3c.2-.1.3-.2.3-.3 0-.2-.1-.3-.3-.3m3 0c-.2 0-.3.1-.3.3s.1.3.3.3.3-.1.3-.3c0-.2-.1-.3-.3-.3"/></g></svg>