<svg version="1.1" id="Слой_1" xmlns="http://www.w3.org/2000/svg" x="0" y="0" viewBox="0 0 20 20" xml:space="preserve"><style>.forged-st0{fill:none;stroke:currentColor;stroke-width:2;stroke-linecap:round;stroke-linejoin:round}</style><g id="Forging" transform="translate(677.004 -700.75)"><g id="Group_115" transform="translate(252.75 1026.75)"><g id="crypto-currency-bitcoin-mining"><path id="Oval_33" class="forged-st0" d="M-915.5-307c2.6 0 4.8-2.2 4.8-4.8 0-2.6-2.2-4.8-4.8-4.8s-4.8 2.2-4.8 4.8c-.1 2.7 2.1 4.8 4.8 4.8z"/><path id="Shape_776" class="forged-st0" d="M-920-319.6l-6.1 7c-.5.6-1.5.6-2.2 0-.6-.6-.6-1.5 0-2.2l7-6.1"/><path id="Shape_777" class="forged-st0" d="M-916.9-318.9c-.4-1.2-1.1-2.2-1.9-3.1-2.1-2.1-4-2.2-7.2-3 2.6 2.1 5 4.3 7.3 6.7"/></g></g></g></svg>