<svg version="1.1" id="Layer_1" xmlns="http://www.w3.org/2000/svg" x="0" y="0" viewBox="0 0 20 20" xml:space="preserve"><style>.forged-st0{fill:none;stroke:currentColor;stroke-width:1.5;stroke-linecap:round;stroke-linejoin:round}</style><g id="forged" transform="translate(-252 -1025)"><g id="Group_115" transform="translate(252.75 1025.75)"><g id="crypto-currency-bitcoin-mining"><path id="Oval_33" class="forged-st0" d="M13.6 18.5c2.7 0 4.9-2.2 4.9-4.9s-2.2-4.9-4.9-4.9-4.9 2.2-4.9 4.9c-.1 2.7 2.2 4.9 4.9 4.9z"/><path id="Shape_776" class="forged-st0" d="M9 5.5l-6.3 7.3c-.6.6-1.6.6-2.2 0-.6-.6-.6-1.6 0-2.2l7.3-6.3"/><path id="Shape_777" class="forged-st0" d="M12.2 6.2c-.4-1.2-1.1-2.2-2-3.1C8.1.9 6 .8 2.8 0 5.5 2.1 8 4.5 10.3 7"/></g></g></g></svg>