<svg version="1.1" id="Layer_1" xmlns="http://www.w3.org/2000/svg" x="0" y="0" viewBox="0 0 20.1 16" xml:space="preserve"><style>.height-st0{fill:none;stroke:#212225;stroke-width:1.5;stroke-linecap:round;stroke-linejoin:round}</style><g id="height" transform="translate(-11.7 -13.997)"><path id="Shape_1030" class="height-st0" d="M23.1 26.9c.4.6.9 1.2 1.5 1.6l.7.5"/><path id="Shape_1031" class="height-st0" d="M12.7 29l.7-.5c1.3-.9 2.1-2.4 2.2-4l.4-7c.1-1.5 1.4-2.7 3-2.7h.1"/><path id="Shape_1032" class="height-st0" d="M18.1 29l.7-.5c1.3-.9 2.1-2.4 2.2-4l.4-7c.1-1.5 1.4-2.7 3-2.7 1.5 0 2.8 1.2 3 2.7l.4 7c.1 1.6.9 3.1 2.2 4l.7.5"/></g></svg>