<svg version="1.1" id="Layer_1" xmlns="http://www.w3.org/2000/svg" x="0" y="0" viewBox="0 0 24 25" xml:space="preserve"><style>.next-delegate-st0{fill:none;stroke:currentColor;stroke-width:1.5;stroke-linecap:round;stroke-linejoin:round}</style><g id="netx_delegate" transform="translate(-418 -2757)"><g id="Group_384"><g id="Regular_384"><path id="Shape_1503" class="next-delegate-st0" d="M418.8 2775.2c0-3.7 3-6.8 6.8-6.7.9 0 1.8.2 2.6.5"/><path id="Oval_562" class="next-delegate-st0" d="M425.5 2766c2.3 0 4.1-1.8 4.1-4.1s-1.8-4.1-4.1-4.1-4.1 1.8-4.1 4.1 1.8 4.1 4.1 4.1z"/><path id="Oval_563" class="next-delegate-st0" d="M435.2 2781.2c3.3 0 6-2.7 6-6s-2.7-6-6-6-6 2.7-6 6 2.7 6 6 6z"/><path id="Shape_1504" class="next-delegate-st0" d="M437.9 2775.3h-2.6v-2.7"/></g></g></g></svg>