<svg viewBox="0 0 20 20" xmlns="http://www.w3.org/2000/svg"><path d="M10.337 1.96a1.186 1.186 0 0 0-1.39-.938L1.96 2.378a1.19 1.19 0 0 0-.939 1.39l2.035 10.48a1.186 1.186 0 0 0 1.39.94l.655-.128" stroke="currentColor" stroke-width="2" stroke-linecap="round" stroke-linejoin="round" fill="none"/><path clip-rule="evenodd" d="M9.542 5.112a.794.794 0 0 1 .935-.62l7.744 1.564c.43.087.708.505.622.935l-2.27 11.231a.794.794 0 0 1-.935.621L7.894 17.28a.794.794 0 0 1-.621-.936l2.269-11.23Z" stroke="currentColor" stroke-width="2" stroke-linecap="round" stroke-linejoin="round" fill="none"/></svg>