<svg version="1.1" id="Layer_1" xmlns="http://www.w3.org/2000/svg" x="0" y="0" viewBox="0 0 14 16" xml:space="preserve"><style>.percent-st0{fill:none}.percent-st1{fill:currentColor}</style><g id="percent" transform="translate(-666 -1061)"><g id="Прямоугольник_скругл._углы_771"><path class="percent-st0" d="M674 1074c0-1.7 1.3-3 3-3s3 1.3 3 3-1.3 3-3 3-3-1.3-3-3zm-8-10c0-1.7 1.3-3 3-3s3 1.3 3 3-1.3 3-3 3-3-1.3-3-3z"/><path class="percent-st1" d="M677 1075.5c.8 0 1.5-.7 1.5-1.5s-.7-1.5-1.5-1.5-1.5.7-1.5 1.5.7 1.5 1.5 1.5m-8-10c.8 0 1.5-.7 1.5-1.5s-.7-1.5-1.5-1.5-1.5.7-1.5 1.5.7 1.5 1.5 1.5m8 11.5c-1.7 0-3-1.3-3-3s1.3-3 3-3 3 1.3 3 3-1.3 3-3 3zm-8-10c-1.7 0-3-1.3-3-3s1.3-3 3-3 3 1.3 3 3-1.3 3-3 3z"/></g><g id="Прямоугольник_скругл._углы_773"><path class="percent-st0" d="M677.5 1061.1c.5.3.6.9.4 1.3l-8 14c-.3.5-.9.6-1.4.4-.5-.3-.6-.9-.4-1.3l8-14c.3-.5.9-.6 1.4-.4z"/><path class="percent-st1" d="M677 1061c.2 0 .3 0 .5.1.5.3.6.9.4 1.4l-8 14c-.2.3-.5.5-.9.5-.2 0-.3 0-.5-.1-.5-.3-.6-.9-.4-1.4l8-14c.2-.3.6-.5.9-.5z"/></g></g></svg>