<svg viewBox="0 0 20 20" xmlns="http://www.w3.org/2000/svg">
<path fill-rule="evenodd" clip-rule="evenodd" d="M18.722 6.35938L10.5597 2.13752C10.2046 1.95416 9.78273 1.95416 9.42767 2.13752L1.26694 6.35938C1.10304 6.44361 1 6.61241 1 6.79668C1 6.98095 1.10304 7.14975 1.26694 7.23398L9.42847 11.4558C9.78353 11.6392 10.2054 11.6392 10.5605 11.4558L18.722 7.23398C18.8854 7.14935 18.988 6.98069 18.988 6.79668C18.988 6.61267 18.8854 6.44401 18.722 6.35938Z" stroke="currentColor" stroke-width="1.59889" stroke-linecap="round" stroke-linejoin="round" fill="none"/>
<path d="M1.01562 10.9937L9.43138 15.0532C9.78644 15.2366 10.2083 15.2366 10.5634 15.0532L19.0031 10.9937" stroke="currentColor" stroke-width="1.59889" stroke-linecap="round" stroke-linejoin="round" fill="none"/>
<path d="M1.01562 14.5913L9.43138 18.6509C9.78644 18.8342 10.2083 18.8342 10.5634 18.6509L19.0031 14.5913" stroke="currentColor" stroke-width="1.59889" stroke-linecap="round" stroke-linejoin="round" fill="none"/>
</svg>
