<svg viewBox="0 0 20 20" xmlns="http://www.w3.org/2000/svg"><path clip-rule="evenodd" d="M18.722 6.36 10.56 2.137a1.234 1.234 0 0 0-1.132 0L1.267 6.359a.492.492 0 0 0 0 .875l8.161 4.222c.356.183.777.183 1.132 0l8.162-4.222a.492.492 0 0 0 0-.875Z" stroke="currentColor" stroke-width="1.599" stroke-linecap="round" stroke-linejoin="round" fill="none"/><path d="m1.016 10.994 8.415 4.06c.355.183.777.183 1.132 0l8.44-4.06" stroke="currentColor" stroke-width="1.599" stroke-linecap="round" stroke-linejoin="round" fill="none"/><path d="m1.016 14.591 8.415 4.06c.355.183.777.183 1.132 0l8.44-4.06" stroke="currentColor" stroke-width="1.599" stroke-linecap="round" stroke-linejoin="round" fill="none"/></svg>