<svg version="1.1" id="Слой_1" xmlns="http://www.w3.org/2000/svg" x="0" y="0" viewBox="0 0 20 20" xml:space="preserve"><style>.supply-st0{fill:none;stroke:currentColor;stroke-width:2;stroke-linecap:round;stroke-linejoin:round}</style><g id="Transcations_Volume_Total_Supply" transform="translate(-298.148 -732)"><g id="Group_123" transform="translate(636.75 1028)"><g id="crypto-currency-bitcoin-stack-coins"><path id="Oval_38" class="supply-st0" d="M-323.2-279.7c2 0 3.6-1.6 3.6-3.6s-1.6-3.4-3.6-3.4-3.6 1.6-3.6 3.6 1.7 3.4 3.6 3.4z"/><path id="Shape_843" class="supply-st0" d="M-331.3-282.3h-4.3c-.3 0-.7.3-.7.7v2.4c0 .3.3.7.7.7h6.2"/><path id="Shape_844" class="supply-st0" d="M-330.7-286h-3.8c-.3 0-.7.3-.7.7v2.3c0 .3.3.7.7.7h3.1"/><path id="Shape_845" class="supply-st0" d="M-329-289.7h-8c-.3 0-.7.2-.7.6v2.4c0 .3.3.7.7.7h6.2"/><path id="Shape_846" class="supply-st0" d="M-326.4-290.4v-2.4c0-.3-.3-.7-.7-.7h-8.7c-.3 0-.7.3-.7.7v2.4c0 .3.3.7.7.7"/></g></g></g></svg>