<svg xmlns="http://www.w3.org/2000/svg" viewBox="0 0 21.248 17.398"><g fill="none" stroke="currentColor" stroke-width="2" stroke-linecap="round" stroke-linejoin="round"><path d="M15.115 16.399a5.133 5.133 0 100-10.266 5.133 5.133 0 000 10.266h0zm-7.699-3.85H2.925a.642.642 0 00-.642.642v2.566c0 .355.287.642.642.642h6.416m-1.284-7.7h-3.85a.642.642 0 00-.642.642v2.566c0 .355.287.642.642.642h3.209"/><path d="M9.982 4.85H1.641a.642.642 0 00-.642.642v2.566c0 .355.287.642.642.642h6.416"/><path d="M12.549 4.208V1.642A.642.642 0 0011.907 1H2.925a.642.642 0 00-.642.642v2.566c0 .355.287.642.642.642"/></g></svg>