<svg xmlns="http://www.w3.org/2000/svg" viewBox="0 0 18.194 15.428"><g fill="none" stroke="currentColor" stroke-linecap="round" stroke-linejoin="round" stroke-width="2"><path d="M14.014 13.428a3.181 3.181 0 10-3.181-3.181 3.181 3.181 0 003.181 3.181zm-7.419-2.357H2.679a.56.56 0 00-.56.56v2.238a.56.56 0 00.56.559h5.6M7.155 7.714H3.798a.56.56 0 00-.56.56v2.238a.56.56 0 00.56.559h2.8m2.235-6.714H1.56a.56.56 0 00-.56.56v2.238a.56.56 0 00.56.559h5.6"/><path d="M11.069 3.8V1.562a.56.56 0 00-.56-.56h-7.83a.56.56 0 00-.56.56V3.8a.56.56 0 00.56.559"/></g></svg>