<svg version="1.1" id="Layer_1" xmlns="http://www.w3.org/2000/svg" x="0" y="0" viewBox="0 0 15.5 18.3" xml:space="preserve"><style>.st0{fill:none;stroke:currentColor;stroke-width:1.5;stroke-linecap:round;stroke-linejoin:round}</style><g id="verifed" transform="translate(-658 -2565)"><g id="Regular_349" transform="translate(658.75 2565.75)"><path id="Shape_1401" class="st0" d="M0 16.4c0-3.4 2.8-6.2 6.2-6.2.8 0 1.7.2 2.4.5"/><path id="Oval_513" class="st0" d="M6.7 7.1c2 0 3.5-1.6 3.5-3.5S8.7 0 6.7 0 3.2 1.6 3.2 3.5c0 2 1.5 3.6 3.5 3.6z"/><path id="Shape_1402" class="st0" d="M13.7 12.9L11 16.5c-.2.3-.7.4-1 .1 0 0-.1 0-.1-.1l-1.4-1.4"/></g></g></svg>