<?xml version="1.0" standalone="no"?>
<!DOCTYPE svg PUBLIC "-//W3C//DTD SVG 20010904//EN"
 "http://www.w3.org/TR/2001/REC-SVG-20010904/DTD/svg10.dtd">
<svg version="1.0" xmlns="http://www.w3.org/2000/svg"
 width="700.000000pt" height="700.000000pt" viewBox="0 0 700.000000 700.000000"
 preserveAspectRatio="xMidYMid meet">
<metadata>
Created by potrace 1.14, written by Peter Selinger 2001-2017
</metadata>
<g transform="translate(0.000000,700.000000) scale(0.100000,-0.100000)"
fill="#000000" stroke="none">
<path d="M2860 6979 c-36 -4 -85 -11 -110 -14 -286 -38 -624 -142 -888 -273
-319 -158 -568 -337 -812 -581 -382 -382 -643 -837 -784 -1362 -14 -52 -27
-107 -30 -124 -3 -16 -14 -79 -25 -140 -31 -175 -35 -236 -36 -480 0 -300 18
-468 76 -705 11 -47 22 -93 24 -103 8 -36 68 -213 102 -302 90 -233 251 -520
397 -710 122 -160 329 -380 445 -473 25 -20 55 -45 66 -55 42 -39 224 -167
327 -230 86 -53 300 -164 403 -207 238 -102 577 -188 850 -217 102 -10 518
-10 610 0 472 54 898 199 1269 432 154 97 174 94 327 -53 101 -97 127 -129
133 -163 5 -32 -24 -86 -69 -129 -63 -60 -79 -112 -54 -177 12 -32 839 -867
881 -889 32 -16 86 -18 124 -4 42 16 871 850 890 895 10 26 13 51 9 79 -7 38
-39 73 -434 470 -438 440 -474 471 -536 460 -45 -8 -65 -22 -152 -105 -57 -55
-90 -79 -107 -79 -18 0 -52 28 -125 100 -134 134 -141 144 -141 195 0 36 9 55
57 121 31 44 60 81 63 84 9 8 113 169 154 237 159 266 303 652 355 948 6 33
13 71 16 85 7 35 14 88 19 145 3 28 8 79 12 115 6 66 7 400 0 455 -2 17 -7 59
-10 95 -4 36 -14 106 -23 155 -8 50 -16 99 -18 110 -8 55 -61 252 -92 345 -65
197 -166 423 -247 555 -17 28 -40 67 -51 88 -11 20 -23 37 -27 37 -5 0 -8 5
-8 10 0 6 -32 55 -72 110 -470 657 -1175 1097 -1963 1224 -49 8 -108 18 -130
21 -63 11 -593 14 -665 4z m550 -602 c14 -3 50 -8 80 -12 30 -4 62 -8 70 -10
8 -2 44 -8 79 -15 230 -42 546 -166 767 -300 425 -259 770 -655 963 -1105 43
-101 105 -281 121 -350 25 -113 49 -235 54 -275 3 -25 8 -65 12 -90 9 -70 11
-374 2 -448 -14 -122 -20 -165 -24 -186 -2 -12 -7 -37 -10 -56 -12 -80 -57
-239 -80 -286 -31 -65 -113 -148 -179 -182 -38 -20 -65 -26 -115 -26 -58 0
-71 3 -121 35 -30 20 -69 54 -86 75 -28 36 -135 195 -158 237 -9 15 -241 382
-330 522 -18 28 -72 114 -121 192 -49 78 -128 204 -176 280 -48 76 -99 158
-114 183 -15 25 -46 74 -69 110 -23 36 -118 187 -210 335 -92 149 -182 293
-200 320 -17 28 -69 111 -115 185 -46 74 -98 158 -115 185 -18 28 -58 93 -90
145 -32 52 -63 101 -69 107 -10 11 -75 -81 -191 -272 -27 -46 -159 -254 -213
-340 -78 -122 -106 -166 -222 -350 -190 -301 -271 -430 -422 -670 -81 -126
-234 -369 -342 -540 -107 -170 -200 -317 -206 -325 -6 -8 -49 -76 -96 -150
-95 -149 -137 -199 -204 -238 -150 -89 -367 45 -431 265 -65 224 -84 379 -84
668 1 210 16 360 50 495 8 30 16 66 18 80 7 35 56 199 72 235 7 17 20 48 28
70 19 50 66 155 78 175 5 8 16 29 24 47 21 45 120 208 163 268 173 240 406
466 642 622 326 215 721 356 1090 389 41 3 76 8 78 9 6 5 375 -3 402 -8z
m1344 -3467 c133 -129 163 -169 195 -254 39 -105 24 -222 -40 -319 -91 -138
-440 -400 -694 -522 -183 -88 -460 -182 -589 -200 -17 -2 -58 -9 -91 -15 -192
-33 -559 -35 -715 -5 -14 3 -45 8 -70 11 -24 3 -103 21 -175 39 -411 104 -811
331 -1107 628 -76 77 -125 198 -113 281 21 147 47 192 209 349 426 416 1338
1335 1530 1542 l58 63 742 -742 c407 -408 794 -793 860 -856z"/>
<path d="M3102 3842 c-35 -37 -130 -135 -211 -218 -81 -83 -150 -155 -154
-160 -3 -6 159 -10 439 -10 l444 0 -23 25 c-89 99 -417 431 -425 431 -4 -1
-36 -31 -70 -68z"/>
<path d="M2256 2975 c-79 -82 -176 -184 -216 -225 l-72 -75 1198 -3 c658 -1
1199 0 1202 2 2 3 -2 11 -9 19 -22 23 -224 233 -326 338 l-91 95 -771 0 -771
0 -144 -151z"/>
</g>
</svg>
