<svg version="1.0" xmlns="http://www.w3.org/2000/svg" width="933.333" height="933.333" viewBox="0 0 700 700"><path d="M286 2.1c-3.6.4-8.5 1.1-11 1.4-28.6 3.8-62.4 14.2-88.8 27.3-31.9 15.8-56.8 33.7-81.2 58.1-38.2 38.2-64.3 83.7-78.4 136.2-1.4 5.2-2.7 10.7-3 12.4-.3 1.6-1.4 7.9-2.5 14-3.1 17.5-3.5 23.6-3.6 48 0 30 1.8 46.8 7.6 70.5 1.1 4.7 2.2 9.3 2.4 10.3.8 3.6 6.8 21.3 10.2 30.2 9 23.3 25.1 52 39.7 71 12.2 16 32.9 38 44.5 47.3 2.5 2 5.5 4.5 6.6 5.5 4.2 3.9 22.4 16.7 32.7 23 8.6 5.3 30 16.4 40.3 20.7 23.8 10.2 57.7 18.8 85 21.7 10.2 1 51.8 1 61 0 47.2-5.4 89.8-19.9 126.9-43.2 15.4-9.7 17.4-9.4 32.7 5.3 10.1 9.7 12.7 12.9 13.3 16.3.5 3.2-2.4 8.6-6.9 12.9-6.3 6-7.9 11.2-5.4 17.7 1.2 3.2 83.9 86.7 88.1 88.9 3.2 1.6 8.6 1.8 12.4.4 4.2-1.6 87.1-85 89-89.5 1-2.6 1.3-5.1.9-7.9-.7-3.8-3.9-7.3-43.4-47-43.8-44-47.4-47.1-53.6-46-4.5.8-6.5 2.2-15.2 10.5-5.7 5.5-9 7.9-10.7 7.9-1.8 0-5.2-2.8-12.5-10-13.4-13.4-14.1-14.4-14.1-19.5 0-3.6.9-5.5 5.7-12.1 3.1-4.4 6-8.1 6.3-8.4.9-.8 11.3-16.9 15.4-23.7 15.9-26.6 30.3-65.2 35.5-94.8.6-3.3 1.3-7.1 1.6-8.5.7-3.5 1.4-8.8 1.9-14.5.3-2.8.8-7.9 1.2-11.5.6-6.6.7-40 0-45.5-.2-1.7-.7-5.9-1-9.5-.4-3.6-1.4-10.6-2.3-15.5-.8-5-1.6-9.9-1.8-11-.8-5.5-6.1-25.2-9.2-34.5-6.5-19.7-16.6-42.3-24.7-55.5-1.7-2.8-4-6.7-5.1-8.8-1.1-2-2.3-3.7-2.7-3.7-.5 0-.8-.5-.8-1 0-.6-3.2-5.5-7.2-11-47-65.7-117.5-109.7-196.3-122.4-4.9-.8-10.8-1.8-13-2.1-6.3-1.1-59.3-1.4-66.5-.4zm55 60.2c1.4.3 5 .8 8 1.2 3 .4 6.2.8 7 1 .8.2 4.4.8 7.9 1.5 23 4.2 54.6 16.6 76.7 30 42.5 25.9 77 65.5 96.3 110.5 4.3 10.1 10.5 28.1 12.1 35 2.5 11.3 4.9 23.5 5.4 27.5.3 2.5.8 6.5 1.2 9 .9 7 1.1 37.4.2 44.8-1.4 12.2-2 16.5-2.4 18.6-.2 1.2-.7 3.7-1 5.6-1.2 8-5.7 23.9-8 28.6-3.1 6.5-11.3 14.8-17.9 18.2-3.8 2-6.5 2.6-11.5 2.6-5.8 0-7.1-.3-12.1-3.5-3-2-6.9-5.4-8.6-7.5-2.8-3.6-13.5-19.5-15.8-23.7-.9-1.5-24.1-38.2-33-52.2-1.8-2.8-7.2-11.4-12.1-19.2-4.9-7.8-12.8-20.4-17.6-28-4.8-7.6-9.9-15.8-11.4-18.3s-4.6-7.4-6.9-11c-2.3-3.6-11.8-18.7-21-33.5-9.2-14.9-18.2-29.3-20-32-1.7-2.8-6.9-11.1-11.5-18.5s-9.8-15.8-11.5-18.5c-1.8-2.8-5.8-9.3-9-14.5-3.2-5.2-6.3-10.1-6.9-10.7-1-1.1-7.5 8.1-19.1 27.2-2.7 4.6-15.9 25.4-21.3 34-7.8 12.2-10.6 16.6-22.2 35-19 30.1-27.1 43-42.2 67-8.1 12.6-23.4 36.9-34.2 54-10.7 17-20 31.7-20.6 32.5-.6.8-4.9 7.6-9.6 15-9.5 14.9-13.7 19.9-20.4 23.8-15 8.9-36.7-4.5-43.1-26.5-6.5-22.4-8.4-37.9-8.4-66.8.1-21 1.6-36 5-49.5.8-3 1.6-6.6 1.8-8 .7-3.5 5.6-19.9 7.2-23.5.7-1.7 2-4.8 2.8-7 1.9-5 6.6-15.5 7.8-17.5.5-.8 1.6-2.9 2.4-4.7 2.1-4.5 12-20.8 16.3-26.8 17.3-24 40.6-46.6 64.2-62.2 32.6-21.5 72.1-35.6 109-38.9 4.1-.3 7.6-.8 7.8-.9.6-.5 37.5.3 40.2.8zM475.4 409c13.3 12.9 16.3 16.9 19.5 25.4 3.9 10.5 2.4 22.2-4 31.9-9.1 13.8-44 40-69.4 52.2-18.3 8.8-46 18.2-58.9 20-1.7.2-5.8.9-9.1 1.5-19.2 3.3-55.9 3.5-71.5.5-1.4-.3-4.5-.8-7-1.1-2.4-.3-10.3-2.1-17.5-3.9-41.1-10.4-81.1-33.1-110.7-62.8-7.6-7.7-12.5-19.8-11.3-28.1 2.1-14.7 4.7-19.2 20.9-34.9 42.6-41.6 133.8-133.5 153-154.2l5.8-6.3 74.2 74.2c40.7 40.8 79.4 79.3 86 85.6z"/><path d="M310.2 315.8c-3.5 3.7-13 13.5-21.1 21.8-8.1 8.3-15 15.5-15.4 16-.3.6 15.9 1 43.9 1H362l-2.3-2.5c-8.9-9.9-41.7-43.1-42.5-43.1-.4.1-3.6 3.1-7 6.8zM225.6 402.5c-7.9 8.2-17.6 18.4-21.6 22.5l-7.2 7.5 119.8.3c65.8.1 119.9 0 120.2-.2.2-.3-.2-1.1-.9-1.9-2.2-2.3-22.4-23.3-32.6-33.8l-9.1-9.5H240l-14.4 15.1z"/></svg>