<svg version="1.0" xmlns="http://www.w3.org/2000/svg" width="933.333" height="933.333" viewBox="0 0 700 700"><path d="M40.3 1.4C20.7 6.2 4.6 23.1 1.1 42.4c-1.5 8.4-1.5 606.8 0 615.2 1.3 7.4 5.6 16.6 10.9 23.2 5 6.3 16.5 14.1 24.5 16.7 5.9 2 10.9 2 313.5 2h307.5l6.7-2.3c8.3-2.9 19.1-10.4 24.1-16.8 5.1-6.5 9.3-15.5 10.6-22.8 1.5-8.4 1.5-606.8 0-615.2-2.7-14.8-13.9-29.9-27-36.2C658.2-.5 684.6 0 349.5.1 107.8.2 44.4.4 40.3 1.4zM485 346.2C558.4 465.6 618.9 564 619.3 564.9c1.3 2.5-6.1-5.3-141.2-148.2L350.7 281.9l-2.7 2.8c-1.5 1.5-61.8 64.9-134 140.8C70.8 576 78.4 568.1 79.5 566c1-1.7 266.9-431.2 269.3-434.8.8-1.2 1.7-2.2 2.1-2.2.3 0 60.7 97.8 134.1 217.2zm-110.1 28l23.3 24.3-23.5.3c-13 .1-34.5.1-47.9 0l-24.3-.3 23.5-24.1c12.9-13.3 24-24.2 24.6-24.3.5 0 11.5 10.8 24.3 24.1zm76 79l21.1 22.3-61.1.3c-33.6.1-88.3.1-121.6 0l-60.6-.3 21.2-22.3 21.2-22.2h158.7l21.1 22.2z"/></svg>