<?xml version="1.0" encoding="utf-8"?>
<!-- Generator: Adobe Illustrator 27.5.0, SVG Export Plug-In . SVG Version: 6.00 Build 0)  -->
<svg version="1.1" xmlns="http://www.w3.org/2000/svg" xmlns:xlink="http://www.w3.org/1999/xlink" x="0px" y="0px"
	 viewBox="0 0 540 352" enable-background="new 0 0 540 352" xml:space="preserve">
<path fill="#F7FAFB" d="M32.4,47c0-11,9-20,20-20h445c11,0,20,9,20,20v264c0,11-9,20-20,20h-445c-11,0-20-9-20-20V47z"/>
<path fill="none" stroke="#DBDEE5" stroke-width="2" stroke-linecap="round" d="M182.1,320.6L119.2,85.9
	c-2.7-10.2,3.3-20.6,13.5-23.3l35-9.4 M199,44.8l126.4-33.9 M177.3,50.6l9.2-2.5 M405,33l16.9,63.1"/>
<path fill="#DBDEE5" d="M121.4,48h-2v7h-7v2h7v7h2v-7h7v-2h-7V48z"/>
<path fill="#DBDEE5" d="M99.4,48h-2v7h-7v2h7v7h2v-7h7v-2h-7V48z"/>
<path fill="#DBDEE5" d="M75.7,106.9h2v-7h7v-2h-7v-7h-2v7h-7v2h7V106.9z"/>
<path fill="#DBDEE5" d="M97.7,84.9h2v-7h7v-2h-7v-7h-2v7h-7v2h7V84.9z"/>
<path fill="#DBDEE5" d="M97.7,106.9h2v-7h7v-2h-7v-7h-2v7h-7v2h7V106.9z"/>
<path fill="#DBDEE5" d="M97.7,128.9h2v-7h7v-2h-7v-7h-2v7h-7v2h7V128.9z"/>
<path fill="none" stroke="#235B95" stroke-width="2" stroke-linecap="round" d="M118.6,105.6l12,44.8 M475.5,274.1l-36.6-143.5"/>
<path fill="#E6EFF9" d="M92.2,212c3.5-2.1,7.9-2.1,11.5,0l22,12.8c3.5,2.1,5.7,5.8,5.7,9.9v25.5c0,4.1-2.2,7.9-5.7,10l-22,12.8
	c-3.5,2.1-7.9,2.1-11.5,0l-22-12.8c-3.5-2.1-5.7-5.8-5.7-10v-25.5c0-4.1,2.2-7.9,5.7-9.9L92.2,212z"/>
<path fill="none" stroke="#DBDEE5" stroke-width="2" stroke-linecap="round" d="M77,206.1l11.9-6.9c4.9-2.9,11-2.9,15.9,0l5.8,3.4
	 M119.8,207.8l2.9,1.7 M73.7,289l15.3,8.9c4.9,2.9,11,2.9,15.9,0l30.6-17.8c4.9-2.9,8-8.1,8-13.9v-55.5c0-5.7,0-10.2-2.5-19.2
	c-2-7.2-6.5-25-9-34.5 M126.9,211.9l3.5,2 M157.4,255l-6.9-26.5"/>
<path fill="none" stroke="#DBDEE5" stroke-width="2" stroke-linecap="round" d="M68.4,138.7v7.6c0,2.8-1.5,5.4-3.9,6.9l-14.9,8.8
	c-2.4,1.4-5.4,1.4-7.8,0l-7.5-4.4 M22.4,141.7v4.4c0,2.9,1.5,5.5,4,6.9l2.7,1.5"/>
<path fill="none" stroke="#235B95" stroke-width="2" stroke-linecap="round" stroke-linejoin="round" d="M42.9,150
	c0.6,0.4,1.3,0.6,2.1,0.5l8-1c2.3-0.3,3.2-0.2,3.7-2.7c0.4-2.2,1.2-5.3,1.3-6.5 M42.9,150c-0.6-0.4-1.1-1-1.3-1.7l-0.8-2.8
	 M42.9,150l2-7.9 M38.3,135.6L25,137.2c-0.7,0.1-1.5-0.1-2.1-0.5 M38.3,135.6l1.8-7.8 M38.3,135.6L40,142 M23,136.7
	c-0.6-0.4-1.1-1-1.3-1.7L19,124.8c-0.5-1.7-0.5-2.8,0.2-4s1.6-3.4,2-3.9 M23,136.7l2.1-7.9 M56.9,133.5l9.2-1.1
	c2.3-0.3,2.8-0.8,3.2-2.2c0.2-1.1,0.6-5.3,0.8-7.3 M33.4,99.2c-0.2,0.3-0.3,0.6-0.4,0.9c-0.1,0.3,0,0.7,0.1,1l3.4,12.7l-3.8,0.4
	 M33.4,99.2c0.2-0.3,0.4-0.5,0.7-0.7c0.3-0.2,0.6-0.3,0.9-0.3l9.3-1.1c0.7-0.1,1.5,0.1,2.1,0.5c0.6,0.4,1.1,1,1.3,1.7L51,112
	l6.5-0.8 M33.4,99.2c-0.2,0.5-2.6,3-3,4.1c-0.4,1.1-0.2,1.8,0.2,3.3c0.3,1.3,1.5,5.6,2,7.6 M68,124.4c0.3,0,0.7-0.1,0.9-0.3
	c0.3-0.2,0.5-0.4,0.7-0.7c0.2-0.3,0.3-0.6,0.4-0.9c0.1-0.3,0-0.7-0.1-1l-2.4-8.9c-0.2-0.7-0.7-1.3-1.3-1.7c-0.6-0.4-1.3-0.6-2.1-0.5
	l-3.3,0.4 M32.7,114.2l-9.4,1.1c-0.3,0-0.7,0.1-0.9,0.3c-0.3,0.2-0.5,0.4-0.7,0.7c-0.2,0.3-0.3,0.6-0.4,0.9c-0.1,0.3,0,0.7,0.1,1
	l2.4,8.9c0.2,0.7,0.7,1.3,1.3,1.7c0.6,0.4,1.3,0.6,2.1,0.5l4.4-0.5 M37.4,128l2.8-0.3l3.4,12.7c0.2,0.7,0.7,1.3,1.3,1.7
	c0.6,0.4,1.3,0.6,2.1,0.5l9.3-1.1c0.3,0,0.7-0.1,0.9-0.3c0.3-0.2,0.5-0.4,0.7-0.7c0.2-0.3,0.3-0.6,0.4-0.9c0.1-0.3,0-0.7-0.1-1
	L54.8,126l10.2-1.2"/>
<path fill="none" stroke="#DBDEE5" stroke-width="2" stroke-linecap="round" stroke-linejoin="round" d="M96.4,179v17.5"/>
<path fill="#F7FAFB" stroke="#DBDEE5" stroke-width="2" stroke-linecap="round" stroke-linejoin="round" d="M108.4,169.6
	c0,1-0.3,2-0.8,2.9c-0.5,0.9-1.3,1.6-2.1,2.1l-6.1,3.6c-0.9,0.5-1.9,0.8-2.9,0.8s-2-0.3-2.9-0.8l-6.1-3.6c-0.9-0.5-1.6-1.3-2.1-2.1
	c-0.5-0.9-0.8-1.9-0.8-2.9v-7.2c0-1,0.3-2,0.8-2.9c0.5-0.9,1.3-1.6,2.1-2.1l6.1-3.6c0.9-0.5,1.9-0.8,2.9-0.8s2,0.3,2.9,0.8l6.1,3.6
	c0.9,0.5,1.6,1.3,2.1,2.1c0.5,0.9,0.8,1.9,0.8,2.9V169.6z"/>
<path fill="none" stroke="#DBDEE5" stroke-width="2" stroke-linecap="round" d="M80.9,153.5l-12.5-7"/>
<path fill="none" stroke="#DBDEE5" stroke-width="2" stroke-linecap="round" d="M83.9,160.5l-6-3.5 M72.9,154l-5-2.9"/>
<path fill="none" stroke="#235B95" stroke-width="2" stroke-linecap="round" d="M50.4,238.5v-7.8c0-5.7,3-11,8-13.8l11.7-6.8
	 M50.4,247.5v18.8c0,5.7,3,11,8,13.8l10.5,6.1"/>
<path fill="#8AC0F7" d="M78.6,235.6l16.2,9.4c5.2,1.7,3.5,1.9,3.5,5.3c0.1,3.4-0.1,19.7-0.1,19.7c-1.1,0-2.2-0.4-3.2-0.9l-13-7.5
	c-3.2-1.9-4.1-3.6-4.2-5.7c-0.1-2.1-0.2-14.6-0.1-17C77.9,236.5,78.6,235.6,78.6,235.6z"/>
<path fill="none" stroke="#235B95" stroke-width="2" stroke-linecap="round" d="M92.7,226.2l2.3-1.3c1-0.6,2.1-0.9,3.3-0.9
	c1.1,0,2.3,0.3,3.3,0.9l14.3,8.2c1,0.6,1.8,1.4,2.4,2.4c0.6,1,0.9,2.1,0.9,3.3v16.4c0,1.1-0.3,2.3-0.9,3.3c-0.6,1-1.4,1.8-2.4,2.4
	l-14.3,8.2c-1,0.6-2.1,0.9-3.3,0.9c-1.1,0-2.3-0.3-3.3-0.9l-14.3-8.2c-1-0.6-1.8-1.4-2.4-2.4c-0.6-1-0.9-2.1-0.9-3.3v-16.4
	c0-1.1,0.3-2.3,0.9-3.3c0.6-1,1.4-1.8,2.4-2.4l8-4.6"/>
<path fill="none" stroke="#235B95" stroke-width="2" stroke-linecap="round" d="M98.2,269.3v-2.8 M98.2,262.9v-5.7 M98.2,253v-3
	c0-0.9,0.2-1.7,0.7-2.4c0.4-0.7,1-1.4,1.8-1.8l17.3-10"/>
<path fill="none" stroke="#235B95" stroke-width="2" stroke-linecap="round" d="M100.3,246c-1.2,0.7-2.8,0.7-4,0l-5.6-3.2
	 M81.9,237.7l5.7,3.2"/>
<path fill="none" stroke="#DBDEE5" stroke-width="2" stroke-linecap="round" d="M484.9,337.5L428.1,120"/>
<path fill="#DBDEE5" d="M492.7,189.9h2v-7h7v-2h-7v-7h-2v7h-7v2h7V189.9z"/>
<path fill="#DBDEE5" d="M492.7,146.9h2v-7h7v-2h-7v-7h-2v7h-7v2h7V146.9z"/>
<path fill="#DBDEE5" d="M492.7,211.9h2v-7h7v-2h-7v-7h-2v7h-7v2h7V211.9z"/>
<path fill="#DBDEE5" d="M514.7,189.9h2v-7h7v-2h-7v-7h-2v7h-7v2h7V189.9z"/>
<path fill="#DBDEE5" d="M514.7,167.9h2v-7h7v-2h-7v-7h-2v7h-7v2h7V167.9z"/>
<path fill="#DBDEE5" d="M514.7,146.9h2v-7h7v-2h-7v-7h-2v7h-7v2h7V146.9z"/>
<path fill="#DBDEE5" d="M470.7,189.9h2v-7h7v-2h-7v-7h-2v7h-7v2h7V189.9z"/>
<path fill="none" stroke="#DBDEE5" stroke-width="2" stroke-linecap="round" stroke-linejoin="round" d="M505.5,29.5
	c0,0,2.1,2.4,6.9,7c2.6,2.4,4.8,5.3,6.5,8.4c5.3,9.4,6.4,21.1,3.9,32.7 M435.4,114.2c0,0,5.3,4.8,8.9,7.6c12.8,9.6,31.9,9.2,49-1.9
	 M520.9,84.3c-4,12-11.8,23.5-22.6,32 M470.8,118.2c0,0,3,2.9,7.9,7.7 M480.2,113.9c0,0,3.6,3.5,8.5,8.3"/>
<path fill="none" stroke="#DBDEE5" stroke-width="2" stroke-linecap="round" stroke-linejoin="round" d="M485.7,102.4
	C506,86.3,514,58.2,503.5,39.7c-10.5-18.6-35.4-20.6-55.7-4.5 M430,97.8c9.3,16.6,30.2,20,49,9.1 M442.6,39.8
	c-3.2,3.2-6,6.8-8.4,10.5 M494.5,29.7c-6.9-3.2-15.2-3.8-23.6-1.7 M442.3,109.8c-3.3-2.5-6-5.9-8-9.5c-10.5-18.6-2.5-46.7,17.8-62.7
	c3.8-3,7.7-5.3,11.6-7.1"/>
<path fill="#EEF3F5" d="M471,57.6l-33.2,30.1l37.5-46.8l13.8,50.6L471,57.6z M453.7,78.8l5.7-5.2l15.1,0.9l3,5.8L453.7,78.8z
	 M463.5,69.9l5.8-5.3l3,5.7L463.5,69.9z"/>
<path fill="none" stroke="#7E8A9C" stroke-width="2" stroke-linecap="round" stroke-linejoin="round" d="M485.5,78.2l3.6,13.3
	L471,57.6l-8.1,7.4 M484.4,74.1l-2.5-9.1 M479.9,57.7l-4.6-16.7l-37.5,46.8l12-10.9 M459.7,67.9l-5.3,4.8 M453.7,78.8l5.7-5.2
	l15.1,0.9l3,5.8L453.7,78.8z M463.5,69.9l5.8-5.3l3,5.7L463.5,69.9z"/>
<path fill="none" stroke="#DBDEE5" stroke-width="2" stroke-linecap="round" stroke-linejoin="round" d="M489.1,107.8
	c-23.4,18.5-52.2,16.2-64.3-5.2c-1.7-3-2.9-6.2-3.8-9.5 M494.3,103.2c4.2-4.1,7.9-8.7,10.9-13.6 M511.2,77.2
	c5.3-14.5,5.2-29.9-1.6-41.8c-12.1-21.4-40.8-23.8-64.3-5.3c-2.8,2.2-5.4,4.7-7.8,7.2c-2.7,3-5.2,6.1-7.3,9.4"/>
<path fill="none" stroke="#DBDEE5" stroke-width="2" stroke-linecap="round" d="M468,141.7l0.1-12.1"/>
<path fill="#F7FAFB" stroke="#DBDEE5" stroke-width="2" stroke-linecap="round" stroke-linejoin="round" d="M481.1,158.9
	c0,1.2-0.3,2.3-0.9,3.3c-0.6,1-1.4,1.8-2.4,2.4l-6.9,4c-1,0.6-2.1,0.9-3.3,0.9c-1.2,0-2.3-0.3-3.3-0.9l-6.9-4
	c-1-0.6-1.8-1.4-2.4-2.4c-0.6-1-0.9-2.1-0.9-3.3v-8c0-1.2,0.3-2.3,0.9-3.3c0.6-1,1.4-1.8,2.4-2.4l6.9-4c1-0.6,2.1-0.9,3.3-0.9
	c1.2,0,2.3,0.3,3.3,0.9l6.9,4c1,0.6,1.8,1.4,2.4,2.4c0.6,1,0.9,2.1,0.9,3.3V158.9z"/>
<path fill="#E6EFF9" d="M466,146.4c0.9-0.5,1.9-0.5,2.8,0l5.4,3.1c0.9,0.5,1.4,1.4,1.4,2.4v6.2c0,1-0.5,1.9-1.4,2.4l-5.4,3.1
	c-0.9,0.5-1.9,0.5-2.8,0l-5.4-3.1c-0.9-0.5-1.4-1.4-1.4-2.4V152c0-1,0.5-1.9,1.4-2.4L466,146.4z"/>
<g>
	<defs>
		<path id="SVGID_1_" d="M41.4,0h436.9c5.6,0,10.1,4.5,10.1,10.1v310.8c0,5.6-4.5,10.1-10.1,10.1H41.4V0z"/>
	</defs>
	<clipPath id="SVGID_00000101810218236712370390000012238447820853647495_">
		<use xlink:href="#SVGID_1_"  overflow="visible"/>
	</clipPath>
	<g clip-path="url(#SVGID_00000101810218236712370390000012238447820853647495_)">
		<g>
			<g>
				<defs>
					<path id="SVGID_00000003805537777611596250000007335174831635610790_" d="M137,67.2L373.1,3.9c7.1-1.9,14.4,2.3,16.3,9.4
						l225.7,842.4c1.9,7.1-2.3,14.4-9.4,16.3l-236.1,63.3c-7.1,1.9-14.4-2.3-16.3-9.4L127.6,83.5C125.7,76.4,129.9,69.1,137,67.2z"
						/>
				</defs>
				<clipPath id="SVGID_00000090984582253417219510000016923860684906805916_">
					<use xlink:href="#SVGID_00000003805537777611596250000007335174831635610790_"  overflow="visible"/>
				</clipPath>
				<g clip-path="url(#SVGID_00000090984582253417219510000016923860684906805916_)">
					<path fill="#FFFFFF" d="M137,67.2L373.1,3.9c7.1-1.9,14.4,2.3,16.3,9.4l225.7,842.4c1.9,7.1-2.3,14.4-9.4,16.3l-236.1,63.3
						c-7.1,1.9-14.4-2.3-16.3-9.4L127.6,83.5C125.7,76.4,129.9,69.1,137,67.2z"/>
					<path fill="#F7FAFB" d="M134.6,109.8l261.9-70.2l9.9,37l-261.9,70.2L134.6,109.8z"/>
					<g>
						<defs>

								<rect id="SVGID_00000137106310303555893510000011099316414369126333_" x="321.4" y="64.1" transform="matrix(0.9659 -0.2588 0.2588 0.9659 -6.5042 93.2013)" width="58.6" height="14.5"/>
						</defs>
						<clipPath id="SVGID_00000154415612614014543730000017680434216512753836_">
							<use xlink:href="#SVGID_00000137106310303555893510000011099316414369126333_"  overflow="visible"/>
						</clipPath>
						<g clip-path="url(#SVGID_00000154415612614014543730000017680434216512753836_)">
							<g>
								<defs>

										<rect id="SVGID_00000083809278478819364370000008551453165577829025_" x="322.2" y="69.8" transform="matrix(0.9659 -0.2588 0.2588 0.9659 -8.7073 87.8823)" width="14.5" height="14.5"/>
								</defs>
								<clipPath id="SVGID_00000120560341888823155410000011282090330857302668_">
									<use xlink:href="#SVGID_00000083809278478819364370000008551453165577829025_"  overflow="visible"/>
								</clipPath>
								<g clip-path="url(#SVGID_00000120560341888823155410000011282090330857302668_)">
									<path fill="none" stroke="#8AC0F7" stroke-width="1.4461" stroke-linecap="round" stroke-linejoin="round" d="M332.8,75.4
										l-1.5-5.6"/>
									<path fill="none" stroke="#8AC0F7" stroke-width="1.4461" stroke-linecap="round" stroke-linejoin="round" d="M334.6,82.4
										l-0.7-2.8"/>
									<path fill="none" stroke="#8AC0F7" stroke-width="1.4461" stroke-linecap="round" stroke-linejoin="round" d="M335.5,76.9
										c0.3,1.2-0.4,2.4-1.5,2.7c-1.2,0.3-2.4-0.4-2.7-1.5c-0.3-1.1,0.3-2.3,1.5-2.7C334,75.1,335.1,75.7,335.5,76.9z"/>
									<path fill="none" stroke="#8AC0F7" stroke-width="1.4461" stroke-linecap="round" stroke-linejoin="round" d="M325.4,75.9
										l2.2,8.3"/>
									<path fill="none" stroke="#8AC0F7" stroke-width="1.4461" stroke-linecap="round" stroke-linejoin="round" d="M326.9,73.2
										c-0.3-1.2-1.5-1.8-2.7-1.5c-1.1,0.3-1.8,1.5-1.5,2.7c0.3,1.2,1.5,1.8,2.7,1.5C326.5,75.6,327.2,74.4,326.9,73.2z
										 M326.9,73.2C326.9,73.3,326.9,73.2,326.9,73.2z"/>
								</g>
							</g>

								<rect x="350.4" y="64.1" transform="matrix(0.9659 -0.2588 0.2588 0.9659 -6.5042 93.2012)" fill="#DBDEE5" width="0.7" height="14.5"/>
							<path fill="none" stroke="#8AC0F7" stroke-width="1.4461" stroke-linecap="round" stroke-linejoin="round" d="M365.9,67.2
								l12.2-3.3"/>
							<path fill="none" stroke="#8AC0F7" stroke-width="1.4461" stroke-linecap="round" stroke-linejoin="round" d="M370.4,59.5
								l3.3,12.2"/>
						</g>
					</g>
					<path fill="#212225" d="M163.9,126.3l-2.4-9.1l3.4-0.9c0.7-0.2,1.3-0.2,1.9-0.1c0.5,0.1,1,0.4,1.4,0.8c0.4,0.4,0.6,0.9,0.8,1.5
						c0.2,0.6,0.2,1.1,0,1.7c-0.1,0.5-0.4,1-0.8,1.4c-0.4,0.4-1,0.7-1.7,0.9l-2.3,0.6l-0.4-1.4l2-0.5c0.4-0.1,0.7-0.3,1-0.5
						c0.2-0.2,0.4-0.5,0.4-0.7c0.1-0.3,0-0.6,0-0.9c-0.1-0.3-0.2-0.6-0.4-0.8c-0.2-0.2-0.4-0.4-0.7-0.4c-0.3-0.1-0.7,0-1.1,0.1
						l-1.5,0.4l2.1,7.8L163.9,126.3z M174.9,123.5c-0.7,0.2-1.3,0.2-1.9,0c-0.6-0.2-1.1-0.5-1.5-0.9c-0.4-0.5-0.7-1-0.9-1.7
						c-0.2-0.7-0.2-1.4-0.1-2c0.1-0.6,0.4-1.1,0.8-1.5c0.4-0.4,1-0.7,1.6-0.9c0.7-0.2,1.3-0.2,1.9,0c0.6,0.2,1.1,0.5,1.5,0.9
						c0.4,0.5,0.7,1,0.9,1.8c0.2,0.7,0.2,1.4,0.1,2c-0.1,0.6-0.4,1.1-0.8,1.5C176.1,123,175.5,123.3,174.9,123.5z M174.5,122.2
						c0.4-0.1,0.6-0.3,0.8-0.5c0.2-0.3,0.3-0.6,0.3-1c0-0.4,0-0.8-0.1-1.2c-0.1-0.4-0.3-0.8-0.5-1.1c-0.2-0.3-0.5-0.5-0.8-0.7
						c-0.3-0.1-0.6-0.2-1-0.1c-0.4,0.1-0.7,0.3-0.8,0.6c-0.2,0.3-0.3,0.6-0.3,1c0,0.4,0,0.8,0.1,1.2c0.1,0.4,0.3,0.8,0.5,1.1
						c0.2,0.3,0.5,0.5,0.8,0.7C173.8,122.3,174.2,122.3,174.5,122.2z M179.5,122.1l-1.8-6.9l1.6-0.4l0.3,1.1l0.1,0
						c0-0.4,0.2-0.8,0.4-1.1c0.2-0.3,0.6-0.5,1-0.6c0.1,0,0.2,0,0.3-0.1c0.1,0,0.2,0,0.3,0l0.4,1.5c-0.1,0-0.2,0-0.3,0
						c-0.2,0-0.3,0-0.4,0.1c-0.3,0.1-0.5,0.2-0.7,0.4c-0.2,0.2-0.3,0.4-0.4,0.7c-0.1,0.3-0.1,0.5,0,0.8l1.1,4L179.5,122.1z
						 M186.4,112.9l0.3,1.2l-3.9,1.1l-0.3-1.2L186.4,112.9z M183,112.1l1.6-0.4l1.7,6.4c0.1,0.2,0.1,0.4,0.2,0.5
						c0.1,0.1,0.2,0.1,0.3,0.2c0.1,0,0.2,0,0.4,0c0.1,0,0.2-0.1,0.3-0.1c0.1,0,0.1-0.1,0.2-0.1l0.6,1.2c-0.1,0.1-0.2,0.1-0.3,0.2
						c-0.1,0.1-0.3,0.2-0.6,0.2c-0.4,0.1-0.8,0.2-1.1,0.1c-0.4-0.1-0.7-0.2-0.9-0.4c-0.3-0.2-0.5-0.6-0.6-1L183,112.1z M191.3,111.6
						l0.3,1.2l-4.1,1.1l-0.3-1.2L191.3,111.6z M190.1,119.3l-2-7.5c-0.1-0.5-0.1-0.9,0-1.2c0.1-0.4,0.3-0.7,0.6-0.9
						c0.3-0.2,0.6-0.4,1-0.5c0.3-0.1,0.5-0.1,0.8-0.1c0.2,0,0.4,0,0.5,0l0,1.3c-0.1,0-0.2,0-0.3,0c-0.1,0-0.2,0-0.4,0.1
						c-0.3,0.1-0.5,0.2-0.6,0.4c-0.1,0.2-0.1,0.4,0,0.7l2,7.4L190.1,119.3z M197.1,117.5c-0.7,0.2-1.3,0.2-1.9,0
						c-0.6-0.2-1.1-0.5-1.5-0.9c-0.4-0.5-0.7-1-0.9-1.8c-0.2-0.7-0.2-1.4-0.1-2c0.1-0.6,0.4-1.1,0.8-1.5c0.4-0.4,1-0.7,1.6-0.9
						c0.7-0.2,1.3-0.2,1.9,0c0.6,0.2,1.1,0.5,1.5,0.9c0.4,0.5,0.7,1,0.9,1.8c0.2,0.7,0.2,1.4,0.1,2c-0.1,0.6-0.4,1.1-0.8,1.5
						C198.3,117.1,197.8,117.4,197.1,117.5z M196.8,116.2c0.4-0.1,0.6-0.3,0.8-0.5c0.2-0.3,0.3-0.6,0.3-1c0-0.4,0-0.8-0.1-1.2
						c-0.1-0.4-0.3-0.8-0.5-1.1c-0.2-0.3-0.5-0.5-0.8-0.7c-0.3-0.1-0.6-0.2-1-0.1c-0.4,0.1-0.7,0.3-0.8,0.6c-0.2,0.3-0.3,0.6-0.3,1
						c0,0.4,0,0.8,0.1,1.2c0.1,0.4,0.3,0.8,0.5,1.1c0.2,0.3,0.5,0.5,0.8,0.7C196.1,116.3,196.4,116.3,196.8,116.2z M200.9,106.6
						l2.4,9.1l-1.6,0.4l-2.4-9.1L200.9,106.6z M205,115.3l-1.8-6.9l1.6-0.4l1.8,6.9L205,115.3z M203.7,107.2c-0.3,0.1-0.5,0-0.7-0.1
						c-0.2-0.1-0.4-0.3-0.4-0.5c-0.1-0.2,0-0.5,0.1-0.7c0.1-0.2,0.3-0.4,0.6-0.4c0.3-0.1,0.5,0,0.7,0.1c0.2,0.1,0.4,0.3,0.4,0.5
						c0.1,0.2,0,0.5-0.1,0.7C204.2,107,204,107.2,203.7,107.2z M211.3,113.7c-0.7,0.2-1.3,0.2-1.9,0c-0.6-0.2-1.1-0.5-1.5-0.9
						c-0.4-0.5-0.7-1-0.9-1.8c-0.2-0.7-0.2-1.4-0.1-2c0.1-0.6,0.4-1.1,0.8-1.5c0.4-0.4,1-0.7,1.6-0.9c0.7-0.2,1.3-0.2,1.9,0
						c0.6,0.2,1.1,0.5,1.5,0.9c0.4,0.5,0.7,1,0.9,1.8c0.2,0.7,0.2,1.4,0.1,2c-0.1,0.6-0.4,1.1-0.8,1.5
						C212.5,113.2,212,113.6,211.3,113.7z M211,112.4c0.4-0.1,0.6-0.3,0.8-0.5c0.2-0.3,0.3-0.6,0.3-1c0-0.4,0-0.8-0.1-1.2
						c-0.1-0.4-0.3-0.8-0.5-1.1c-0.2-0.3-0.5-0.5-0.8-0.7s-0.6-0.2-1-0.1c-0.4,0.1-0.7,0.3-0.8,0.6c-0.2,0.3-0.3,0.6-0.3,1
						c0,0.4,0,0.8,0.1,1.2c0.1,0.4,0.3,0.8,0.5,1.1c0.2,0.3,0.5,0.5,0.8,0.7C210.3,112.5,210.6,112.5,211,112.4z"/>
					<path fill="#212225" d="M288,234.6c-0.5,0.1-1,0.2-1.4,0.1c-0.4-0.1-0.8-0.2-1.1-0.5c-0.3-0.2-0.5-0.6-0.6-1l1.3-0.3
						c0.1,0.2,0.2,0.3,0.3,0.5c0.2,0.1,0.3,0.2,0.6,0.2c0.2,0,0.4,0,0.7-0.1c0.3-0.1,0.5-0.2,0.6-0.3c0.2-0.1,0.3-0.3,0.4-0.5
						c0.1-0.2,0.1-0.4,0-0.6c-0.1-0.2-0.2-0.4-0.3-0.5c-0.2-0.1-0.4-0.2-0.6-0.3c-0.2,0-0.5,0-0.8,0.1l-0.6,0.2l-0.3-1l0.6-0.2
						c0.2-0.1,0.5-0.2,0.6-0.3c0.2-0.1,0.3-0.3,0.3-0.5c0.1-0.2,0.1-0.4,0-0.6c-0.1-0.2-0.1-0.4-0.3-0.5c-0.1-0.1-0.3-0.2-0.5-0.2
						c-0.2,0-0.4,0-0.6,0c-0.2,0.1-0.4,0.2-0.6,0.3c-0.2,0.1-0.3,0.3-0.4,0.5c-0.1,0.2-0.1,0.4,0,0.6l-1.2,0.3
						c-0.1-0.4-0.1-0.8,0.1-1.1c0.1-0.4,0.4-0.7,0.7-0.9c0.3-0.3,0.7-0.5,1.2-0.6c0.5-0.1,0.9-0.1,1.3-0.1c0.4,0.1,0.7,0.2,1,0.5
						c0.3,0.2,0.5,0.6,0.6,0.9c0.1,0.4,0.1,0.8-0.1,1.1c-0.2,0.3-0.4,0.6-0.8,0.8l0,0.1c0.5-0.1,1,0,1.3,0.2c0.3,0.2,0.6,0.6,0.7,1
						c0.1,0.4,0.1,0.8-0.1,1.2c-0.1,0.4-0.4,0.7-0.7,1C288.9,234.2,288.5,234.4,288,234.6z M292.8,232.1l0.1,0.4
						c0,0.3,0.1,0.6,0.1,0.9c0,0.3,0,0.6,0,0.9c0,0.3,0,0.5-0.1,0.7l-0.8,0.2c0-0.1,0-0.4,0-0.6c0-0.3,0-0.5-0.1-0.9
						c0-0.3-0.1-0.6-0.1-1l-0.1-0.4L292.8,232.1z M293.9,231.4l-0.3-1l1.7-5.6l0.9-0.2l0.4,1.5l-0.5,0.1L295,230l0,0.1l4.2-1.1
						l0.3,1.1L293.9,231.4z M297.7,231.8l-0.4-1.6l-0.1-0.5l-1.3-5l1.2-0.3l1.9,7.1L297.7,231.8z M303.6,230.4
						c-0.6,0.2-1.1,0.1-1.6,0c-0.5-0.2-0.9-0.5-1.3-1c-0.4-0.5-0.7-1.1-0.9-1.9c-0.2-0.8-0.3-1.5-0.2-2.1c0.1-0.6,0.3-1.1,0.6-1.5
						c0.3-0.4,0.8-0.7,1.4-0.8c0.6-0.2,1.1-0.1,1.6,0c0.5,0.2,0.9,0.5,1.3,1c0.4,0.5,0.7,1.1,0.9,1.9c0.2,0.8,0.3,1.5,0.2,2.1
						c-0.1,0.6-0.3,1.1-0.6,1.5C304.6,230,304.2,230.2,303.6,230.4z M303.3,229.3c0.4-0.1,0.7-0.4,0.9-0.9c0.1-0.5,0.1-1.2-0.1-2
						c-0.2-0.6-0.3-1-0.6-1.4c-0.2-0.4-0.5-0.6-0.7-0.7c-0.3-0.1-0.5-0.2-0.8-0.1c-0.4,0.1-0.7,0.4-0.9,0.9c-0.1,0.5-0.1,1.2,0.1,2
						c0.2,0.6,0.3,1,0.6,1.4c0.2,0.4,0.5,0.6,0.7,0.7C302.7,229.4,303,229.4,303.3,229.3z M307.5,229.2l1.4-6.8l0,0l-3.5,0.9
						l-0.3-1.1l4.8-1.3l0.3,1.1l-1.4,6.8L307.5,229.2z M312.6,227.9c-0.2,0.1-0.4,0-0.6-0.1c-0.2-0.1-0.3-0.3-0.4-0.5
						c-0.1-0.2,0-0.4,0.1-0.6c0.1-0.2,0.3-0.3,0.5-0.4c0.2-0.1,0.4,0,0.6,0.1c0.2,0.1,0.3,0.3,0.4,0.5c0,0.1,0,0.3,0,0.4
						c0,0.1-0.1,0.3-0.2,0.4C312.9,227.8,312.7,227.9,312.6,227.9z M315.1,219.5c0.3-0.1,0.7-0.1,1-0.1c0.4,0,0.7,0.1,1,0.3
						c0.3,0.2,0.6,0.5,0.9,0.9c0.3,0.4,0.5,0.9,0.7,1.6c0.2,0.6,0.2,1.2,0.2,1.7c0,0.5-0.1,1-0.2,1.4c-0.2,0.4-0.4,0.7-0.7,1
						c-0.3,0.3-0.7,0.5-1.1,0.6c-0.4,0.1-0.9,0.1-1.3,0.1c-0.4-0.1-0.7-0.2-1-0.5c-0.3-0.2-0.5-0.6-0.7-0.9l1.3-0.3
						c0.1,0.3,0.3,0.5,0.6,0.6c0.2,0.1,0.5,0.1,0.8,0c0.5-0.1,0.8-0.4,1-0.9c0.2-0.5,0.1-1.1-0.1-1.9l0,0c-0.1,0.2-0.2,0.5-0.3,0.6
						c-0.1,0.2-0.3,0.4-0.5,0.5c-0.2,0.1-0.4,0.2-0.7,0.3c-0.4,0.1-0.8,0.1-1.2,0c-0.4-0.1-0.7-0.3-1-0.6c-0.3-0.3-0.5-0.7-0.6-1.1
						c-0.1-0.5-0.1-0.9,0-1.3c0.1-0.4,0.3-0.8,0.7-1.1C314.1,219.8,314.5,219.6,315.1,219.5z M315.3,220.5c-0.2,0.1-0.5,0.2-0.6,0.4
						c-0.2,0.2-0.3,0.4-0.3,0.6c-0.1,0.2-0.1,0.5,0,0.7c0.1,0.3,0.2,0.5,0.4,0.6c0.2,0.2,0.4,0.3,0.6,0.4c0.2,0.1,0.5,0.1,0.7,0
						c0.2-0.1,0.4-0.1,0.5-0.2c0.1-0.1,0.3-0.3,0.3-0.4c0.1-0.2,0.1-0.3,0.2-0.5c0-0.2,0-0.4,0-0.5c-0.1-0.2-0.2-0.5-0.4-0.6
						c-0.2-0.2-0.4-0.3-0.6-0.4C315.8,220.4,315.6,220.4,315.3,220.5z M323.4,225.1c-0.5,0.1-0.9,0.1-1.3,0.1
						c-0.4-0.1-0.8-0.2-1.1-0.5c-0.3-0.2-0.5-0.6-0.6-1l1.2-0.3c0.1,0.3,0.3,0.5,0.6,0.6c0.3,0.1,0.6,0.1,0.9,0.1
						c0.3-0.1,0.5-0.2,0.6-0.4c0.2-0.2,0.3-0.4,0.3-0.6c0.1-0.2,0.1-0.5,0-0.8c-0.1-0.3-0.2-0.5-0.4-0.7c-0.2-0.2-0.4-0.3-0.6-0.4
						c-0.2-0.1-0.5-0.1-0.7,0c-0.2,0.1-0.4,0.1-0.6,0.3c-0.2,0.1-0.3,0.3-0.4,0.5l-1.2,0.1l-0.6-3.8l4.1-1.1l0.3,1.1l-3.1,0.8
						l0.3,1.9l0,0c0.1-0.2,0.2-0.4,0.5-0.5c0.2-0.2,0.5-0.3,0.8-0.4c0.4-0.1,0.8-0.1,1.2,0c0.4,0.1,0.7,0.3,1,0.6
						c0.3,0.3,0.5,0.7,0.6,1.1c0.1,0.5,0.1,0.9,0,1.3c-0.1,0.4-0.3,0.8-0.7,1.1C324.3,224.7,323.9,224.9,323.4,225.1z M329.6,223.4
						c-0.5,0.1-1,0.2-1.4,0.1c-0.4-0.1-0.8-0.2-1.1-0.5c-0.3-0.2-0.5-0.6-0.6-1l1.3-0.4c0.1,0.2,0.2,0.3,0.3,0.5
						c0.2,0.1,0.3,0.2,0.5,0.2c0.2,0,0.4,0,0.7-0.1c0.3-0.1,0.5-0.2,0.6-0.3c0.2-0.1,0.3-0.3,0.4-0.5c0.1-0.2,0.1-0.4,0-0.6
						c-0.1-0.2-0.2-0.4-0.3-0.5s-0.4-0.2-0.6-0.3c-0.2,0-0.5,0-0.8,0.1l-0.6,0.2l-0.3-1l0.6-0.2c0.2-0.1,0.5-0.2,0.6-0.3
						c0.2-0.1,0.3-0.3,0.3-0.5c0.1-0.2,0.1-0.4,0-0.6c-0.1-0.2-0.1-0.4-0.3-0.5c-0.1-0.1-0.3-0.2-0.5-0.2c-0.2,0-0.4,0-0.6,0
						c-0.2,0.1-0.4,0.2-0.6,0.3c-0.2,0.1-0.3,0.3-0.4,0.5c-0.1,0.2-0.1,0.4,0,0.6l-1.2,0.3c-0.1-0.4-0.1-0.8,0.1-1.1
						c0.1-0.4,0.4-0.7,0.7-0.9c0.3-0.3,0.7-0.5,1.2-0.6c0.5-0.1,0.9-0.1,1.3-0.1c0.4,0.1,0.7,0.2,1,0.5c0.3,0.2,0.5,0.6,0.6,0.9
						c0.1,0.4,0.1,0.8-0.1,1.1c-0.2,0.3-0.4,0.6-0.8,0.8l0,0.1c0.5-0.1,1,0,1.3,0.2c0.3,0.2,0.6,0.6,0.7,1c0.1,0.4,0.1,0.8-0.1,1.2
						c-0.1,0.4-0.4,0.7-0.7,1C330.6,223,330.1,223.2,329.6,223.4z M333.4,222.3l-0.2-0.9l1.8-3.1c0.2-0.3,0.3-0.6,0.4-0.8
						c0.1-0.2,0.2-0.4,0.2-0.6c0-0.2,0-0.4,0-0.6c-0.1-0.2-0.2-0.4-0.3-0.5c-0.1-0.1-0.3-0.2-0.5-0.3c-0.2,0-0.4,0-0.6,0
						c-0.2,0.1-0.4,0.2-0.6,0.3c-0.1,0.1-0.2,0.3-0.3,0.5c0,0.2,0,0.4,0,0.7l-1.2,0.3c-0.1-0.5-0.1-0.9,0-1.3c0.1-0.4,0.3-0.7,0.6-1
						c0.3-0.3,0.7-0.5,1.2-0.6c0.5-0.1,0.9-0.2,1.3-0.1c0.4,0.1,0.8,0.2,1,0.5c0.3,0.3,0.5,0.6,0.6,1c0.1,0.3,0.1,0.5,0.1,0.8
						c0,0.3-0.1,0.6-0.3,1c-0.2,0.4-0.4,0.9-0.8,1.4l-0.9,1.6l0,0l3.1-0.8l0.3,1.1L333.4,222.3z M342.1,220.1
						c-0.5,0.1-1,0.2-1.4,0.1c-0.4-0.1-0.8-0.2-1.1-0.5c-0.3-0.2-0.5-0.6-0.6-1l1.3-0.4c0.1,0.2,0.2,0.3,0.3,0.5
						c0.2,0.1,0.3,0.2,0.6,0.2c0.2,0,0.4,0,0.7-0.1c0.3-0.1,0.5-0.2,0.6-0.3c0.2-0.1,0.3-0.3,0.4-0.5c0.1-0.2,0.1-0.4,0-0.6
						c-0.1-0.2-0.2-0.4-0.3-0.5c-0.2-0.1-0.4-0.2-0.6-0.3c-0.2,0-0.5,0-0.8,0.1l-0.6,0.2l-0.3-1l0.6-0.2c0.2-0.1,0.5-0.2,0.6-0.3
						c0.2-0.1,0.3-0.3,0.3-0.5c0.1-0.2,0.1-0.4,0-0.6c-0.1-0.2-0.1-0.4-0.3-0.5c-0.1-0.1-0.3-0.2-0.5-0.2c-0.2,0-0.4,0-0.6,0
						c-0.2,0.1-0.4,0.2-0.6,0.3c-0.2,0.1-0.3,0.3-0.4,0.5c-0.1,0.2-0.1,0.4,0,0.6l-1.2,0.3c-0.1-0.4-0.1-0.8,0.1-1.1
						c0.1-0.4,0.4-0.7,0.7-0.9c0.3-0.3,0.7-0.5,1.2-0.6c0.5-0.1,0.9-0.1,1.3-0.1c0.4,0.1,0.7,0.2,1,0.5c0.3,0.2,0.5,0.6,0.6,0.9
						c0.1,0.4,0.1,0.8-0.1,1.1c-0.2,0.3-0.4,0.6-0.8,0.8l0,0.1c0.5-0.1,1,0,1.3,0.2c0.3,0.2,0.6,0.6,0.7,1c0.1,0.4,0.1,0.8-0.1,1.2
						c-0.1,0.4-0.4,0.7-0.7,1C343,219.7,342.6,219.9,342.1,220.1z M348.5,218.4c-0.6,0.2-1.1,0.1-1.6,0c-0.5-0.2-0.9-0.5-1.3-1
						c-0.4-0.5-0.7-1.1-0.9-1.9c-0.2-0.8-0.3-1.5-0.2-2.1c0.1-0.6,0.3-1.1,0.6-1.5c0.3-0.4,0.8-0.7,1.4-0.8c0.6-0.2,1.1-0.1,1.6,0
						c0.5,0.2,0.9,0.5,1.3,1c0.4,0.5,0.7,1.1,0.9,1.9c0.2,0.8,0.3,1.5,0.2,2.1c-0.1,0.6-0.3,1.1-0.6,1.5
						C349.5,217.9,349.1,218.2,348.5,218.4z M348.2,217.3c0.4-0.1,0.7-0.4,0.9-0.9c0.1-0.5,0.1-1.2-0.1-2c-0.2-0.6-0.3-1-0.6-1.4
						c-0.2-0.4-0.5-0.6-0.7-0.7c-0.3-0.1-0.5-0.2-0.8-0.1c-0.4,0.1-0.7,0.4-0.9,0.9c-0.1,0.5-0.1,1.2,0.1,2c0.2,0.6,0.3,1,0.6,1.4
						c0.2,0.4,0.5,0.6,0.7,0.7C347.7,217.3,347.9,217.4,348.2,217.3z M351.9,215.9l-0.3-1l1.7-5.6l0.9-0.2l0.4,1.5l-0.5,0.1
						l-1.2,3.8l0,0.1l4.2-1.1l0.3,1.1L351.9,215.9z M355.6,216.3l-0.4-1.6l-0.1-0.5l-1.3-5l1.2-0.3l1.9,7.1L355.6,216.3z
						 M362.3,214.5l-1.4,0.4l0.6-7.8l1.6-0.4l4.4,6.4l-1.4,0.4l-3.4-5.1l-0.1,0L362.3,214.5z M361.6,211.7l3.8-1l0.3,1l-3.8,1
						L361.6,211.7z M368.5,212.9l-1.9-7.1l2.7-0.7c0.5-0.1,1-0.2,1.5-0.1c0.4,0.1,0.8,0.3,1.1,0.6c0.3,0.3,0.5,0.7,0.6,1.1
						c0.1,0.5,0.1,0.9,0,1.3c-0.1,0.4-0.3,0.7-0.6,1c-0.3,0.3-0.8,0.5-1.3,0.6l-1.9,0.5l-0.3-1.1l1.7-0.5c0.3-0.1,0.6-0.2,0.7-0.3
						c0.2-0.1,0.3-0.3,0.3-0.5c0.1-0.2,0-0.4,0-0.7c-0.1-0.3-0.2-0.5-0.3-0.6c-0.1-0.2-0.3-0.2-0.6-0.3c-0.2,0-0.5,0-0.8,0.1
						l-1.2,0.3l1.6,6L368.5,212.9z M371.3,208.7l2.6,2.8l-1.4,0.4l-2.6-2.8L371.3,208.7z M374.8,211.2l-1.9-7.1l1.3-0.3l0.9,3.3
						l0.1,0l1.9-4l1.6-0.4l-1.9,3.9l3.8,3.2L379,210l-2.9-2.5l-0.5,1.1l0.6,2.1L374.8,211.2z"/>
					<path fill="#A5ADB9" d="M332.7,239.8c-0.4,0.1-0.8,0.1-1.1,0.1c-0.4-0.1-0.7-0.2-0.9-0.4c-0.3-0.2-0.4-0.5-0.5-0.8l1.1-0.3
						c0.1,0.2,0.2,0.4,0.5,0.5c0.2,0.1,0.5,0.1,0.8,0c0.2-0.1,0.4-0.2,0.5-0.3c0.1-0.1,0.2-0.3,0.3-0.5c0-0.2,0-0.4,0-0.6
						c-0.1-0.2-0.2-0.4-0.3-0.6c-0.1-0.2-0.3-0.3-0.5-0.3c-0.2-0.1-0.4-0.1-0.6,0c-0.2,0-0.4,0.1-0.5,0.2c-0.2,0.1-0.3,0.2-0.3,0.4
						l-1,0.1l-0.5-3.2l3.5-0.9l0.2,0.9l-2.6,0.7l0.3,1.7l0,0c0.1-0.2,0.2-0.3,0.4-0.5c0.2-0.1,0.4-0.2,0.6-0.3
						c0.4-0.1,0.7-0.1,1.1,0c0.3,0.1,0.6,0.3,0.9,0.5c0.2,0.3,0.4,0.6,0.5,1c0.1,0.4,0.1,0.8,0,1.2c-0.1,0.4-0.3,0.7-0.6,0.9
						C333.5,239.5,333.1,239.6,332.7,239.8z M336.7,237.7l0,0.3c0,0.3,0.1,0.5,0.1,0.8c0,0.3,0,0.5,0,0.8c0,0.2,0,0.4,0,0.6
						l-0.7,0.2c0-0.1,0-0.3,0-0.5c0-0.2,0-0.5,0-0.7c0-0.3-0.1-0.5-0.1-0.8l-0.1-0.3L336.7,237.7z M338.5,231.5
						c0.3-0.1,0.6-0.1,0.9-0.1c0.3,0,0.6,0.1,0.9,0.3c0.3,0.2,0.5,0.4,0.8,0.8c0.2,0.3,0.4,0.8,0.6,1.3c0.1,0.5,0.2,1,0.2,1.4
						c0,0.4-0.1,0.8-0.2,1.2c-0.1,0.3-0.3,0.6-0.6,0.9c-0.3,0.2-0.6,0.4-0.9,0.5c-0.4,0.1-0.7,0.1-1.1,0c-0.3-0.1-0.6-0.2-0.9-0.4
						c-0.3-0.2-0.4-0.5-0.6-0.8l1.1-0.3c0.1,0.2,0.3,0.4,0.5,0.5c0.2,0.1,0.4,0.1,0.7,0c0.4-0.1,0.7-0.4,0.8-0.8
						c0.1-0.4,0.1-1-0.1-1.6l0,0c-0.1,0.2-0.1,0.4-0.3,0.6c-0.1,0.2-0.3,0.3-0.5,0.4c-0.2,0.1-0.4,0.2-0.6,0.3c-0.4,0.1-0.7,0.1-1,0
						c-0.3-0.1-0.6-0.3-0.9-0.5c-0.2-0.3-0.4-0.6-0.5-1c-0.1-0.4-0.1-0.8,0-1.1c0.1-0.4,0.3-0.7,0.6-1
						C337.7,231.8,338.1,231.6,338.5,231.5z M338.8,232.4c-0.2,0.1-0.4,0.2-0.5,0.3c-0.1,0.1-0.2,0.3-0.3,0.5c-0.1,0.2,0,0.4,0,0.6
						c0.1,0.2,0.2,0.4,0.3,0.5c0.1,0.2,0.3,0.3,0.5,0.3c0.2,0.1,0.4,0.1,0.6,0c0.2,0,0.3-0.1,0.4-0.2c0.1-0.1,0.2-0.2,0.3-0.4
						c0.1-0.1,0.1-0.3,0.1-0.4c0-0.2,0-0.3,0-0.5c-0.1-0.2-0.2-0.4-0.3-0.5c-0.1-0.2-0.3-0.3-0.5-0.3
						C339.2,232.3,339,232.3,338.8,232.4z M345.8,236.3c-0.5,0.1-0.9,0.1-1.4,0c-0.4-0.2-0.8-0.4-1.1-0.9c-0.3-0.4-0.6-1-0.7-1.6
						c-0.2-0.7-0.2-1.3-0.2-1.8c0.1-0.5,0.2-0.9,0.5-1.3c0.3-0.3,0.7-0.6,1.2-0.7s0.9-0.1,1.4,0c0.4,0.2,0.8,0.4,1.1,0.9
						c0.3,0.4,0.6,1,0.7,1.6c0.2,0.7,0.2,1.3,0.2,1.8c-0.1,0.5-0.2,1-0.5,1.3C346.6,235.9,346.3,236.2,345.8,236.3z M345.5,235.4
						c0.4-0.1,0.6-0.4,0.8-0.8c0.1-0.4,0.1-1-0.1-1.8c-0.1-0.5-0.3-0.9-0.5-1.2c-0.2-0.3-0.4-0.5-0.6-0.6c-0.2-0.1-0.5-0.1-0.7-0.1
						c-0.4,0.1-0.6,0.4-0.7,0.8c-0.1,0.4-0.1,1,0.1,1.7c0.1,0.5,0.3,0.9,0.5,1.2c0.2,0.3,0.4,0.5,0.6,0.6
						C345,235.4,345.3,235.4,345.5,235.4z M349.9,228.5l1.6,6.1l-1.1,0.3l-1.3-5l0,0l-1.2,1.3l-0.3-1l1.3-1.4L349.9,228.5z
						 M353.5,234.2c-0.2,0-0.4,0-0.5-0.1c-0.2-0.1-0.3-0.2-0.3-0.4c0-0.2,0-0.3,0.1-0.5c0.1-0.2,0.2-0.3,0.4-0.3
						c0.2,0,0.3,0,0.5,0.1c0.2,0.1,0.3,0.2,0.3,0.4c0,0.1,0,0.2,0,0.4c0,0.1-0.1,0.2-0.2,0.3C353.7,234.1,353.6,234.2,353.5,234.2z
						 M355.6,226.9c0.3-0.1,0.6-0.1,0.9-0.1c0.3,0,0.6,0.1,0.9,0.3c0.3,0.2,0.5,0.4,0.8,0.8c0.2,0.3,0.4,0.8,0.6,1.3
						c0.1,0.5,0.2,1,0.2,1.4c0,0.4-0.1,0.8-0.2,1.2c-0.1,0.3-0.3,0.6-0.6,0.9c-0.3,0.2-0.6,0.4-0.9,0.5c-0.4,0.1-0.7,0.1-1.1,0
						c-0.3-0.1-0.6-0.2-0.9-0.4c-0.3-0.2-0.4-0.5-0.6-0.8l1.1-0.3c0.1,0.2,0.3,0.4,0.5,0.5c0.2,0.1,0.4,0.1,0.7,0
						c0.4-0.1,0.7-0.4,0.8-0.8c0.1-0.4,0.1-1-0.1-1.6l0,0c-0.1,0.2-0.1,0.4-0.3,0.6c-0.1,0.2-0.3,0.3-0.4,0.4
						c-0.2,0.1-0.4,0.2-0.6,0.3c-0.4,0.1-0.7,0.1-1,0c-0.3-0.1-0.6-0.3-0.9-0.5c-0.2-0.3-0.4-0.6-0.5-1c-0.1-0.4-0.1-0.8,0-1.1
						c0.1-0.4,0.3-0.7,0.6-1C354.8,227.2,355.1,227,355.6,226.9z M355.8,227.8c-0.2,0.1-0.4,0.2-0.5,0.3c-0.1,0.1-0.2,0.3-0.3,0.5
						c0,0.2,0,0.4,0,0.6c0.1,0.2,0.2,0.4,0.3,0.5c0.1,0.2,0.3,0.3,0.5,0.3c0.2,0.1,0.4,0.1,0.6,0c0.2,0,0.3-0.1,0.4-0.2
						c0.1-0.1,0.2-0.2,0.3-0.4c0.1-0.1,0.1-0.3,0.1-0.4c0-0.2,0-0.3,0-0.5c-0.1-0.2-0.2-0.4-0.3-0.5c-0.1-0.2-0.3-0.3-0.5-0.3
						C356.2,227.8,356,227.8,355.8,227.8z M362.7,231.7c-0.4,0.1-0.8,0.1-1.1,0.1c-0.4-0.1-0.7-0.2-0.9-0.4
						c-0.3-0.2-0.4-0.5-0.5-0.8l1.1-0.3c0.1,0.2,0.2,0.4,0.5,0.5c0.2,0.1,0.5,0.1,0.8,0c0.2-0.1,0.4-0.2,0.5-0.3s0.2-0.3,0.3-0.5
						c0.1-0.2,0-0.4,0-0.6c-0.1-0.2-0.2-0.4-0.3-0.6c-0.1-0.2-0.3-0.3-0.5-0.3c-0.2-0.1-0.4-0.1-0.6,0c-0.2,0-0.4,0.1-0.5,0.2
						c-0.2,0.1-0.3,0.2-0.3,0.4l-1,0.1l-0.5-3.2l3.5-0.9l0.2,0.9l-2.6,0.7l0.3,1.7l0,0c0.1-0.2,0.2-0.3,0.4-0.5
						c0.2-0.1,0.4-0.2,0.6-0.3c0.4-0.1,0.7-0.1,1.1,0c0.3,0.1,0.6,0.3,0.9,0.5c0.2,0.3,0.4,0.6,0.5,1c0.1,0.4,0.1,0.8,0,1.2
						c-0.1,0.4-0.3,0.7-0.6,0.9C363.5,231.4,363.1,231.6,362.7,231.7z M370.2,223.1l1.1-0.3l1.1,4c0.1,0.4,0.1,0.8,0,1.2
						c-0.1,0.4-0.3,0.7-0.7,1c-0.3,0.3-0.7,0.5-1.2,0.6c-0.5,0.1-1,0.2-1.4,0.1c-0.4-0.1-0.8-0.3-1.1-0.5c-0.3-0.3-0.5-0.6-0.6-1.1
						l-1.1-4l1.1-0.3l1,3.9c0.1,0.3,0.2,0.5,0.3,0.6c0.2,0.2,0.4,0.3,0.6,0.3c0.2,0.1,0.5,0,0.8,0s0.5-0.2,0.7-0.4
						c0.2-0.2,0.3-0.4,0.4-0.6c0.1-0.2,0.1-0.5,0-0.7L370.2,223.1z M376.3,223.3c-0.1-0.3-0.3-0.4-0.5-0.5c-0.2-0.1-0.5-0.1-0.9,0
						c-0.2,0.1-0.4,0.1-0.6,0.3c-0.1,0.1-0.2,0.2-0.3,0.4c-0.1,0.1-0.1,0.3,0,0.4c0,0.1,0.1,0.2,0.2,0.3c0.1,0.1,0.2,0.1,0.3,0.2
						c0.1,0,0.2,0.1,0.4,0.1c0.1,0,0.3,0,0.4,0l0.6,0c0.2,0,0.5,0,0.7,0c0.2,0,0.5,0.1,0.7,0.2c0.2,0.1,0.4,0.2,0.5,0.4
						s0.3,0.4,0.3,0.7c0.1,0.4,0.1,0.7,0,1c-0.1,0.3-0.3,0.6-0.6,0.8c-0.3,0.2-0.7,0.4-1.2,0.6c-0.5,0.1-0.9,0.2-1.3,0.1
						c-0.4-0.1-0.7-0.2-1-0.4c-0.3-0.2-0.5-0.5-0.6-0.9l1.1-0.3c0.1,0.2,0.2,0.4,0.3,0.5c0.2,0.1,0.3,0.2,0.5,0.2
						c0.2,0,0.4,0,0.7-0.1c0.2-0.1,0.4-0.2,0.6-0.3c0.2-0.1,0.3-0.3,0.3-0.4c0.1-0.2,0.1-0.3,0-0.5c0-0.2-0.1-0.3-0.2-0.4
						c-0.1-0.1-0.3-0.1-0.5-0.2c-0.2,0-0.4,0-0.6,0l-0.7,0c-0.5,0-1-0.1-1.3-0.3c-0.4-0.2-0.6-0.5-0.7-0.9c-0.1-0.4-0.1-0.7,0-1
						c0.1-0.3,0.3-0.6,0.6-0.8c0.3-0.2,0.7-0.4,1.1-0.5c0.4-0.1,0.8-0.1,1.2-0.1c0.4,0.1,0.7,0.2,0.9,0.4c0.3,0.2,0.4,0.5,0.5,0.8
						L376.3,223.3z M381.6,226.6l-2.1,0.6l-1.6-6.1l2.1-0.6c0.6-0.2,1.2-0.2,1.7-0.1c0.5,0.1,0.9,0.4,1.3,0.8
						c0.4,0.4,0.6,0.9,0.8,1.5c0.2,0.6,0.2,1.2,0.1,1.7c-0.1,0.5-0.4,1-0.7,1.3C382.8,226.1,382.3,226.4,381.6,226.6z M380.4,225.9
						l0.9-0.2c0.4-0.1,0.8-0.3,1-0.5c0.2-0.2,0.4-0.5,0.5-0.9c0.1-0.3,0-0.8-0.1-1.2c-0.1-0.5-0.3-0.8-0.5-1.1
						c-0.2-0.3-0.5-0.4-0.8-0.5c-0.3-0.1-0.7-0.1-1.1,0l-0.9,0.3L380.4,225.9z"/>
					<path fill="#E6EFF9" d="M204.1,246.1l14-3.7c4.6-1.2,9.4,1.5,10.6,6.1l3.7,14c1.2,4.6-1.5,9.4-6.1,10.6l-14,3.7
						c-4.6,1.2-9.4-1.5-10.6-6.1l-3.7-14C196.8,252.1,199.5,247.3,204.1,246.1z"/>
					<path fill-rule="evenodd" clip-rule="evenodd" fill="#235B95" d="M214.7,257.3l-6,11.1l4.8-15.8l12,11.3L214.7,257.3z
						 M212.7,264.7l0.9-2l4.6-1.2l1.7,1.3L212.7,264.7z M213.7,261.9l1.4-2.9l2.6,1.8L213.7,261.9z"/>
					<path fill="#FFFFFF" d="M414,222l-9.8,2.6c-3.5,0.9-7-1.1-8-4.6l-4.5-16.8c-0.9-3.5,1.1-7,4.6-8l9.8-2.6c3.5-0.9,7,1.1,8,4.6
						l4.5,16.8C419.6,217.5,417.5,221.1,414,222z"/>
					<g>
						<defs>

								<rect id="SVGID_00000019645466082332395460000011518199608502980525_" x="401.6" y="205.1" transform="matrix(0.9659 -0.2588 0.2588 0.9659 -40.2054 111.9851)" width="7.2" height="7.2"/>
						</defs>
						<clipPath id="SVGID_00000139294114717589493040000001665117965635633578_">
							<use xlink:href="#SVGID_00000019645466082332395460000011518199608502980525_"  overflow="visible"/>
						</clipPath>
						<g clip-path="url(#SVGID_00000139294114717589493040000001665117965635633578_)">
							<path fill="none" stroke="#637282" stroke-width="1.4461" stroke-linecap="round" stroke-linejoin="round" d="M402.8,210.8
								l1.9-3.4c0.1-0.1,0.2-0.1,0.3-0.1l3.4,1.9"/>
						</g>
					</g>
					<path fill="none" stroke="#E6EFF9" stroke-width="1.4461" stroke-linejoin="round" d="M414,222l-9.8,2.6c-3.5,0.9-7-1.1-8-4.6
						l-4.5-16.8c-0.9-3.5,1.1-7,4.6-8l9.8-2.6c3.5-0.9,7,1.1,8,4.6l4.5,16.8C419.6,217.5,417.5,221.1,414,222z"/>
					<path fill="#F7FAFB" stroke="#DBDEE5" stroke-width="1.1123" stroke-dasharray="2.22,2.22" d="M215.5,288.5l200.5-53.7
						c4.3-1.2,8.8,1.4,9.9,5.7l23.2,86.6c1.2,4.3-1.4,8.8-5.7,9.9l-200.5,53.7c-4.3,1.2-8.8-1.4-9.9-5.7l-23.2-86.6
						C208.6,294.2,211.2,289.7,215.5,288.5z"/>

						<rect x="152.1" y="110.1" transform="matrix(0.9659 -0.2588 0.2588 0.9659 -30.8535 79.8057)" fill="#F7FAFB" width="271.2" height="94"/>
					<path fill="#A5ADB9" d="M170.8,154.4l1.5-0.4l2.6,2.7l0.1,0l0.9-3.6l1.5-0.4l-1.4,5.2l0.7,2.7l-1.3,0.3l-0.7-2.7L170.8,154.4z
						 M181.4,159.3c-0.5,0.1-1,0.1-1.4,0c-0.4-0.1-0.8-0.4-1.1-0.7c-0.3-0.4-0.6-0.8-0.7-1.4c-0.1-0.6-0.2-1.1-0.1-1.5
						c0.1-0.5,0.3-0.9,0.6-1.2c0.3-0.3,0.7-0.6,1.3-0.7s1-0.1,1.4,0c0.4,0.1,0.8,0.4,1.1,0.7c0.3,0.4,0.6,0.8,0.7,1.4
						c0.1,0.6,0.2,1.1,0.1,1.5c-0.1,0.5-0.3,0.9-0.6,1.2C182.3,159,181.9,159.2,181.4,159.3z M181.1,158.3c0.3-0.1,0.5-0.2,0.6-0.4
						c0.1-0.2,0.2-0.5,0.3-0.7c0-0.3,0-0.6-0.1-0.9c-0.1-0.3-0.2-0.6-0.4-0.8c-0.2-0.2-0.4-0.4-0.6-0.5c-0.2-0.1-0.5-0.1-0.8,0
						c-0.3,0.1-0.5,0.2-0.7,0.4c-0.1,0.2-0.2,0.5-0.3,0.8c0,0.3,0,0.6,0.1,0.9c0.1,0.3,0.2,0.6,0.4,0.8c0.2,0.2,0.4,0.4,0.6,0.5
						C180.6,158.4,180.8,158.4,181.1,158.3z M187.8,155.1l-0.8-3.1l1.3-0.3l1.4,5.3l-1.2,0.3l-0.3-0.9l-0.1,0c0,0.3-0.2,0.6-0.4,0.9
						c-0.2,0.3-0.5,0.4-0.9,0.6c-0.4,0.1-0.7,0.1-1,0c-0.3-0.1-0.6-0.3-0.8-0.5c-0.2-0.3-0.4-0.6-0.5-1l-0.9-3.4l1.3-0.3l0.9,3.2
						c0.1,0.3,0.3,0.6,0.5,0.7c0.2,0.1,0.5,0.2,0.8,0.1c0.2,0,0.4-0.1,0.5-0.3c0.1-0.1,0.3-0.3,0.3-0.5
						C187.8,155.6,187.8,155.4,187.8,155.1z M190.9,156.7l-1.4-5.3l1.2-0.3l0.2,0.9l0.1,0c0-0.3,0.1-0.6,0.3-0.8
						c0.2-0.2,0.4-0.4,0.7-0.5c0.1,0,0.1,0,0.2-0.1c0.1,0,0.2,0,0.2,0l0.3,1.2c-0.1,0-0.1,0-0.3,0c-0.1,0-0.2,0-0.3,0.1
						c-0.2,0.1-0.4,0.2-0.6,0.3c-0.2,0.1-0.3,0.3-0.3,0.5c-0.1,0.2-0.1,0.4,0,0.6l0.8,3.1L190.9,156.7z M197.3,155l-1.9-7.1l2.7-0.7
						c0.5-0.1,1-0.2,1.3-0.1c0.4,0.1,0.7,0.2,0.9,0.4c0.2,0.2,0.4,0.5,0.5,0.9c0.1,0.3,0.1,0.6,0,0.8c-0.1,0.2-0.2,0.4-0.3,0.6
						c-0.2,0.2-0.3,0.3-0.6,0.4l0,0.1c0.3-0.1,0.5,0,0.8,0c0.3,0.1,0.5,0.2,0.7,0.4c0.2,0.2,0.4,0.5,0.5,0.9c0.1,0.4,0.1,0.7,0,1.1
						c-0.1,0.3-0.3,0.6-0.6,0.9c-0.3,0.3-0.7,0.5-1.3,0.6L197.3,155z M198.3,153.6l1.4-0.4c0.5-0.1,0.8-0.3,0.9-0.5
						c0.2-0.2,0.2-0.5,0.1-0.8c-0.1-0.2-0.2-0.4-0.3-0.5c-0.1-0.1-0.3-0.2-0.6-0.3c-0.2,0-0.5,0-0.7,0l-1.4,0.4L198.3,153.6z
						 M197.5,150.5l1.3-0.3c0.2-0.1,0.4-0.2,0.6-0.3c0.2-0.1,0.3-0.3,0.3-0.5c0.1-0.2,0.1-0.4,0-0.6c-0.1-0.3-0.2-0.5-0.5-0.6
						c-0.2-0.1-0.6-0.1-0.9,0l-1.3,0.3L197.5,150.5z M205.2,153c-0.3,0.1-0.7,0.1-1,0.1c-0.3-0.1-0.6-0.2-0.8-0.4
						c-0.2-0.2-0.4-0.5-0.5-0.8c-0.1-0.3-0.1-0.6,0-0.8c0.1-0.2,0.2-0.4,0.3-0.6c0.2-0.2,0.4-0.3,0.6-0.4c0.2-0.1,0.5-0.2,0.7-0.3
						c0.3-0.1,0.5-0.2,0.7-0.3c0.2-0.1,0.3-0.2,0.4-0.2c0.1-0.1,0.1-0.2,0.1-0.3l0,0c-0.1-0.3-0.2-0.4-0.4-0.5
						c-0.2-0.1-0.4-0.1-0.7,0c-0.3,0.1-0.5,0.2-0.7,0.4c-0.1,0.2-0.2,0.4-0.2,0.6l-1.2,0.1c0-0.3,0.1-0.7,0.2-0.9
						c0.2-0.3,0.4-0.5,0.6-0.7c0.3-0.2,0.6-0.3,1-0.4c0.3-0.1,0.5-0.1,0.8-0.1c0.3,0,0.5,0,0.8,0.1c0.2,0.1,0.5,0.2,0.7,0.4
						c0.2,0.2,0.3,0.5,0.4,0.8l1,3.6l-1.2,0.3l-0.2-0.7l0,0c0,0.2-0.1,0.3-0.2,0.5c-0.1,0.2-0.2,0.3-0.4,0.4
						C205.7,152.8,205.5,152.9,205.2,153z M205.3,152c0.3-0.1,0.5-0.2,0.6-0.3c0.2-0.2,0.3-0.3,0.3-0.5c0.1-0.2,0.1-0.4,0-0.6
						l-0.2-0.6c0,0-0.1,0.1-0.2,0.1c-0.1,0.1-0.2,0.1-0.3,0.2s-0.2,0.1-0.3,0.1c-0.1,0-0.2,0.1-0.3,0.1c-0.2,0.1-0.3,0.2-0.5,0.3
						c-0.1,0.1-0.2,0.2-0.3,0.3c-0.1,0.1-0.1,0.3,0,0.4c0.1,0.2,0.2,0.4,0.4,0.5C204.8,152,205,152,205.3,152z M208.6,144.3l1.9,7.1
						l-1.3,0.3l-1.9-7.1L208.6,144.3z M213.4,150.8c-0.3,0.1-0.7,0.1-1,0.1c-0.3-0.1-0.6-0.2-0.8-0.4c-0.2-0.2-0.4-0.5-0.5-0.8
						c-0.1-0.3-0.1-0.6,0-0.8c0.1-0.2,0.2-0.4,0.3-0.6c0.2-0.2,0.4-0.3,0.6-0.4c0.2-0.1,0.5-0.2,0.7-0.3c0.3-0.1,0.6-0.2,0.7-0.3
						c0.2-0.1,0.3-0.2,0.4-0.2c0.1-0.1,0.1-0.2,0.1-0.3l0,0c-0.1-0.3-0.2-0.4-0.4-0.5c-0.2-0.1-0.4-0.1-0.7,0
						c-0.3,0.1-0.5,0.2-0.7,0.4c-0.1,0.2-0.2,0.4-0.2,0.6l-1.2,0.1c0-0.3,0.1-0.7,0.2-0.9c0.2-0.3,0.4-0.5,0.6-0.7
						c0.3-0.2,0.6-0.3,1-0.4c0.3-0.1,0.5-0.1,0.8-0.1c0.3,0,0.5,0,0.8,0.1c0.2,0.1,0.5,0.2,0.7,0.4c0.2,0.2,0.3,0.5,0.4,0.8l1,3.6
						l-1.2,0.3l-0.2-0.7l0,0c0,0.2-0.1,0.3-0.2,0.5c-0.1,0.2-0.2,0.3-0.4,0.4C213.9,150.6,213.6,150.7,213.4,150.8z M213.4,149.8
						c0.3-0.1,0.5-0.2,0.6-0.3c0.2-0.2,0.3-0.3,0.3-0.5c0.1-0.2,0.1-0.4,0-0.6l-0.2-0.6c0,0-0.1,0.1-0.2,0.1
						c-0.1,0.1-0.2,0.1-0.3,0.2s-0.2,0.1-0.3,0.1c-0.1,0-0.2,0.1-0.3,0.1c-0.2,0.1-0.3,0.2-0.5,0.3c-0.1,0.1-0.2,0.2-0.3,0.3
						c-0.1,0.1-0.1,0.3,0,0.4c0.1,0.2,0.2,0.4,0.4,0.5C213,149.8,213.2,149.8,213.4,149.8z M217.8,146.1l0.8,3.1l-1.3,0.3l-1.4-5.3
						l1.2-0.3l0.2,0.9l0.1,0c0-0.3,0.2-0.6,0.4-0.9c0.2-0.2,0.5-0.4,0.9-0.5c0.4-0.1,0.7-0.1,1,0c0.3,0.1,0.6,0.3,0.8,0.5
						c0.2,0.3,0.4,0.6,0.5,1l0.9,3.4l-1.3,0.3l-0.9-3.2c-0.1-0.4-0.3-0.6-0.5-0.8c-0.2-0.2-0.5-0.2-0.8-0.1
						c-0.2,0.1-0.4,0.2-0.5,0.3c-0.1,0.1-0.2,0.3-0.3,0.5C217.8,145.6,217.8,145.9,217.8,146.1z M225.7,147.5c-0.5,0.1-1,0.1-1.5,0
						c-0.4-0.1-0.8-0.4-1.1-0.7c-0.3-0.4-0.5-0.8-0.7-1.3c-0.1-0.5-0.2-1-0.1-1.5c0.1-0.5,0.3-0.9,0.6-1.2c0.3-0.3,0.7-0.6,1.3-0.7
						c0.4-0.1,0.8-0.1,1.2-0.1c0.4,0.1,0.7,0.2,1,0.5c0.3,0.2,0.5,0.5,0.6,0.9l-1.2,0.3c-0.1-0.2-0.3-0.4-0.5-0.5
						c-0.2-0.1-0.5-0.1-0.8-0.1c-0.3,0.1-0.5,0.2-0.6,0.4c-0.2,0.2-0.3,0.4-0.3,0.7c0,0.3,0,0.6,0.1,1c0.1,0.4,0.2,0.7,0.4,0.9
						c0.2,0.2,0.4,0.4,0.6,0.5c0.2,0.1,0.5,0.1,0.7,0c0.2-0.1,0.3-0.1,0.5-0.2c0.1-0.1,0.2-0.2,0.3-0.4c0.1-0.2,0.1-0.3,0.1-0.5
						l1.2-0.3c0.1,0.4,0.1,0.8-0.1,1.1c-0.1,0.3-0.3,0.6-0.6,0.9C226.5,147.2,226.2,147.3,225.7,147.5z M231.4,145.9
						c-0.5,0.1-1,0.2-1.5,0c-0.4-0.1-0.8-0.4-1.1-0.7c-0.3-0.4-0.6-0.8-0.7-1.4c-0.1-0.5-0.2-1.1-0.1-1.5c0.1-0.5,0.3-0.9,0.6-1.2
						c0.3-0.3,0.7-0.6,1.2-0.7c0.3-0.1,0.7-0.1,1-0.1c0.3,0,0.6,0.1,0.9,0.3c0.3,0.2,0.5,0.4,0.8,0.7c0.2,0.3,0.4,0.7,0.5,1.2
						l0.1,0.4l-4.4,1.2l-0.2-0.8l3.2-0.8c-0.1-0.2-0.2-0.4-0.3-0.6c-0.2-0.2-0.3-0.3-0.5-0.3c-0.2-0.1-0.4-0.1-0.7,0
						c-0.3,0.1-0.5,0.2-0.6,0.4c-0.2,0.2-0.3,0.4-0.3,0.6c-0.1,0.2,0,0.5,0,0.7l0.2,0.7c0.1,0.3,0.2,0.6,0.4,0.8
						c0.2,0.2,0.4,0.3,0.6,0.4c0.2,0.1,0.5,0.1,0.8,0c0.2,0,0.3-0.1,0.5-0.2c0.1-0.1,0.2-0.2,0.3-0.3c0.1-0.1,0.1-0.3,0.1-0.4
						l1.2-0.2c0,0.3-0.1,0.6-0.2,0.9c-0.1,0.3-0.4,0.5-0.6,0.7C232.2,145.7,231.8,145.8,231.4,145.9z"/>
					<path fill="#212225" d="M181.1,179.2c-0.6,0.2-1.1,0.2-1.6,0.1c-0.5-0.1-0.9-0.3-1.3-0.5c-0.4-0.3-0.6-0.6-0.7-1.1l1.5-0.4
						c0.1,0.2,0.2,0.4,0.4,0.5c0.2,0.1,0.4,0.2,0.6,0.2c0.2,0,0.5,0,0.8-0.1c0.3-0.1,0.5-0.2,0.7-0.4c0.2-0.2,0.3-0.4,0.4-0.6
						c0.1-0.2,0.1-0.4,0-0.7c-0.1-0.2-0.2-0.4-0.4-0.6c-0.2-0.2-0.4-0.2-0.7-0.3c-0.3,0-0.6,0-0.9,0.1l-0.7,0.2l-0.3-1.1l0.7-0.2
						c0.3-0.1,0.5-0.2,0.7-0.3c0.2-0.2,0.3-0.3,0.4-0.5c0.1-0.2,0.1-0.4,0-0.7c-0.1-0.2-0.2-0.4-0.3-0.6c-0.1-0.1-0.3-0.2-0.5-0.3
						c-0.2,0-0.4,0-0.7,0c-0.2,0.1-0.5,0.2-0.7,0.3c-0.2,0.1-0.3,0.3-0.4,0.5c-0.1,0.2-0.1,0.4,0,0.6l-1.4,0.4
						c-0.1-0.5-0.1-0.9,0.1-1.3c0.2-0.4,0.4-0.8,0.8-1.1c0.4-0.3,0.8-0.5,1.3-0.7c0.5-0.1,1-0.2,1.5-0.1c0.5,0.1,0.8,0.3,1.2,0.6
						c0.3,0.3,0.5,0.6,0.6,1c0.1,0.5,0.1,0.9-0.1,1.3c-0.2,0.4-0.5,0.7-0.9,0.9l0,0.1c0.6-0.1,1.1,0,1.5,0.3
						c0.4,0.3,0.7,0.6,0.8,1.2c0.1,0.5,0.1,0.9-0.1,1.3c-0.2,0.4-0.4,0.8-0.8,1.1C182.2,178.8,181.7,179,181.1,179.2z M184.9,176.4
						l-0.3-1.2l2-6.4l1-0.3l0.4,1.7l-0.6,0.2l-1.3,4.3l0,0.1l4.8-1.3l0.3,1.2L184.9,176.4z M189.2,176.9l-0.5-1.9l-0.1-0.5l-1.5-5.7
						l1.4-0.4l2.2,8.1L189.2,176.9z M194,174.4l0.1,0.5c0.1,0.3,0.1,0.7,0.1,1.1c0,0.4,0,0.7,0,1c0,0.3,0,0.6-0.1,0.8l-1,0.3
						c0-0.2,0-0.4,0-0.7c0-0.3,0-0.6-0.1-1c0-0.4-0.1-0.7-0.2-1.1l-0.1-0.5L194,174.4z M195.9,175.1l-0.3-1.1l2.1-3.5
						c0.2-0.3,0.4-0.6,0.5-0.9c0.1-0.3,0.2-0.5,0.2-0.7c0-0.2,0-0.4,0-0.7c-0.1-0.3-0.2-0.5-0.4-0.6c-0.2-0.2-0.4-0.3-0.6-0.3
						c-0.2,0-0.5,0-0.7,0c-0.3,0.1-0.5,0.2-0.7,0.4c-0.2,0.2-0.3,0.4-0.3,0.6c-0.1,0.2,0,0.5,0,0.8l-1.4,0.4c-0.1-0.5-0.1-1,0-1.4
						c0.1-0.4,0.4-0.8,0.7-1.1c0.4-0.3,0.8-0.6,1.3-0.7c0.5-0.1,1.1-0.2,1.5-0.1c0.5,0.1,0.9,0.3,1.2,0.6c0.3,0.3,0.5,0.7,0.7,1.1
						c0.1,0.3,0.1,0.6,0.1,0.9c0,0.3-0.2,0.7-0.4,1.1c-0.2,0.4-0.5,1-0.9,1.6l-1,1.8l0,0.1l3.5-0.9l0.3,1.2L195.9,175.1z
						 M205.7,172.6c-0.5,0.1-1,0.2-1.5,0.1c-0.5-0.1-0.9-0.3-1.2-0.6c-0.3-0.3-0.6-0.6-0.7-1.1l1.4-0.4c0.1,0.3,0.3,0.6,0.7,0.7
						c0.3,0.1,0.7,0.2,1,0.1c0.3-0.1,0.5-0.2,0.7-0.4c0.2-0.2,0.3-0.4,0.4-0.7c0.1-0.3,0.1-0.6,0-0.9c-0.1-0.3-0.2-0.6-0.4-0.8
						c-0.2-0.2-0.4-0.3-0.7-0.4c-0.3-0.1-0.6-0.1-0.8,0c-0.2,0.1-0.5,0.2-0.7,0.3c-0.2,0.2-0.4,0.3-0.5,0.5l-1.4,0.1l-0.7-4.3
						l4.7-1.3l0.3,1.2l-3.5,0.9l0.3,2.2l0,0c0.1-0.2,0.3-0.4,0.5-0.6c0.2-0.2,0.5-0.3,0.9-0.4c0.5-0.1,1-0.1,1.4,0
						c0.4,0.1,0.8,0.4,1.2,0.7s0.6,0.8,0.7,1.3c0.1,0.5,0.1,1,0,1.5c-0.1,0.5-0.4,0.9-0.8,1.3C206.8,172.2,206.3,172.4,205.7,172.6z
						 M212.9,170.7c-0.6,0.2-1.1,0.2-1.6,0.1c-0.5-0.1-0.9-0.3-1.3-0.5c-0.4-0.3-0.6-0.6-0.7-1.1l1.5-0.4c0.1,0.2,0.2,0.4,0.4,0.5
						c0.2,0.1,0.4,0.2,0.6,0.2c0.2,0,0.5,0,0.8-0.1c0.3-0.1,0.5-0.2,0.7-0.4c0.2-0.2,0.3-0.4,0.4-0.6c0.1-0.2,0.1-0.4,0-0.7
						c-0.1-0.2-0.2-0.4-0.4-0.6c-0.2-0.2-0.4-0.2-0.7-0.3c-0.3,0-0.6,0-0.9,0.1l-0.7,0.2l-0.3-1.1l0.7-0.2c0.3-0.1,0.5-0.2,0.7-0.3
						c0.2-0.2,0.3-0.3,0.4-0.5c0.1-0.2,0.1-0.4,0-0.7c-0.1-0.2-0.2-0.4-0.3-0.6c-0.1-0.1-0.3-0.2-0.5-0.3c-0.2,0-0.4,0-0.7,0
						c-0.2,0.1-0.5,0.2-0.7,0.3c-0.2,0.1-0.3,0.3-0.4,0.5c-0.1,0.2-0.1,0.4,0,0.6l-1.4,0.4c-0.1-0.5-0.1-0.9,0.1-1.3
						c0.2-0.4,0.4-0.8,0.8-1.1c0.4-0.3,0.8-0.5,1.3-0.7c0.5-0.1,1-0.2,1.5-0.1c0.5,0.1,0.8,0.3,1.2,0.6c0.3,0.3,0.5,0.6,0.6,1
						c0.1,0.5,0.1,0.9-0.1,1.3c-0.2,0.4-0.5,0.7-0.9,0.9l0,0.1c0.6-0.1,1.1,0,1.5,0.3c0.4,0.3,0.7,0.6,0.8,1.2
						c0.1,0.5,0.1,0.9-0.1,1.3c-0.2,0.4-0.4,0.8-0.8,1.1C214,170.3,213.5,170.5,212.9,170.7z M217.9,169.3c-0.2,0.1-0.5,0-0.7-0.1
						c-0.2-0.1-0.4-0.3-0.4-0.6c-0.1-0.2,0-0.5,0.1-0.7c0.1-0.2,0.3-0.4,0.6-0.4c0.2-0.1,0.5,0,0.7,0.1c0.2,0.1,0.4,0.3,0.4,0.5
						c0,0.2,0,0.3,0,0.5c0,0.2-0.1,0.3-0.2,0.4C218.2,169.2,218.1,169.2,217.9,169.3z M220.3,168.6l1.6-7.8l0-0.1l-4,1.1l-0.3-1.2
						l5.5-1.5l0.3,1.3l-1.6,7.8L220.3,168.6z M229.3,166.3c-0.5,0.1-1,0.2-1.5,0.1c-0.5-0.1-0.9-0.3-1.2-0.6
						c-0.3-0.3-0.6-0.6-0.7-1.1l1.4-0.4c0.1,0.3,0.3,0.6,0.7,0.7c0.3,0.1,0.7,0.2,1,0.1c0.3-0.1,0.5-0.2,0.7-0.4
						c0.2-0.2,0.3-0.4,0.4-0.7c0.1-0.3,0.1-0.6,0-0.9c-0.1-0.3-0.2-0.6-0.4-0.8c-0.2-0.2-0.4-0.3-0.7-0.4c-0.3-0.1-0.6-0.1-0.8,0
						c-0.2,0.1-0.5,0.2-0.7,0.3c-0.2,0.2-0.4,0.3-0.5,0.5l-1.4,0.1l-0.7-4.3l4.7-1.3l0.3,1.2l-3.5,0.9l0.3,2.2l0,0
						c0.1-0.2,0.3-0.4,0.5-0.6c0.2-0.2,0.5-0.3,0.9-0.4c0.5-0.1,1-0.1,1.4,0c0.4,0.1,0.8,0.4,1.2,0.7c0.3,0.3,0.6,0.8,0.7,1.3
						c0.1,0.5,0.1,1.1,0,1.5c-0.1,0.5-0.4,0.9-0.8,1.3C230.3,165.9,229.8,166.1,229.3,166.3z M239.3,154.8l1.5-0.4l1.4,5.3
						c0.2,0.6,0.2,1.1,0,1.6c-0.2,0.5-0.4,1-0.9,1.3c-0.4,0.4-1,0.7-1.6,0.8c-0.7,0.2-1.3,0.2-1.8,0.1c-0.6-0.1-1-0.4-1.4-0.7
						c-0.4-0.4-0.7-0.8-0.8-1.4l-1.4-5.3l1.5-0.4l1.4,5.2c0.1,0.3,0.2,0.6,0.5,0.8c0.2,0.2,0.5,0.4,0.8,0.5c0.3,0.1,0.7,0.1,1,0
						c0.4-0.1,0.7-0.3,0.9-0.5c0.2-0.2,0.4-0.5,0.5-0.8c0.1-0.3,0.1-0.6,0-1L239.3,154.8z M247.4,155c-0.1-0.3-0.4-0.6-0.7-0.7
						c-0.3-0.1-0.7-0.1-1.1,0c-0.3,0.1-0.6,0.2-0.8,0.4c-0.2,0.2-0.3,0.3-0.4,0.5c-0.1,0.2-0.1,0.4,0,0.6c0,0.2,0.1,0.3,0.2,0.4
						c0.1,0.1,0.2,0.2,0.4,0.2c0.2,0,0.3,0.1,0.5,0.1c0.2,0,0.4,0,0.5,0l0.8,0c0.3,0,0.6,0,1,0.1c0.3,0,0.6,0.1,0.9,0.3
						c0.3,0.1,0.5,0.3,0.7,0.5c0.2,0.2,0.4,0.5,0.4,0.9c0.1,0.5,0.1,0.9,0,1.4c-0.1,0.4-0.4,0.8-0.8,1.1c-0.4,0.3-0.9,0.6-1.6,0.7
						c-0.6,0.2-1.2,0.2-1.7,0.1c-0.5-0.1-1-0.3-1.3-0.6c-0.4-0.3-0.6-0.7-0.8-1.3l1.4-0.4c0.1,0.3,0.2,0.5,0.5,0.6
						c0.2,0.1,0.4,0.2,0.7,0.3c0.3,0,0.6,0,0.9-0.1c0.3-0.1,0.6-0.2,0.8-0.4c0.2-0.2,0.4-0.3,0.5-0.6c0.1-0.2,0.1-0.4,0-0.7
						c-0.1-0.2-0.2-0.4-0.3-0.5c-0.2-0.1-0.4-0.2-0.6-0.2c-0.2,0-0.5-0.1-0.8-0.1l-1,0c-0.7,0-1.3-0.1-1.8-0.4
						c-0.5-0.2-0.8-0.7-1-1.2c-0.1-0.5-0.1-0.9,0.1-1.4c0.2-0.4,0.4-0.8,0.8-1.1c0.4-0.3,0.9-0.6,1.4-0.7c0.6-0.2,1.1-0.2,1.6-0.1
						c0.5,0.1,0.9,0.3,1.2,0.6c0.3,0.3,0.6,0.7,0.7,1.1L247.4,155z M254.5,159.4l-2.8,0.7l-2.2-8.1l2.8-0.8c0.8-0.2,1.5-0.2,2.2-0.1
						c0.7,0.2,1.2,0.5,1.7,1c0.5,0.5,0.8,1.2,1.1,2c0.2,0.8,0.3,1.6,0.1,2.3c-0.1,0.7-0.5,1.3-1,1.8
						C256,158.8,255.4,159.2,254.5,159.4z M252.9,158.4l1.2-0.3c0.6-0.2,1-0.4,1.3-0.7c0.3-0.3,0.5-0.7,0.6-1.2c0.1-0.5,0-1-0.1-1.6
						c-0.2-0.6-0.4-1.1-0.7-1.5c-0.3-0.4-0.7-0.6-1.1-0.7c-0.4-0.1-0.9-0.1-1.5,0.1l-1.3,0.3L252.9,158.4z"/>
					<path fill="#A5ADB9" d="M306.4,125.7l-1.4,0.4l0.6-7.8l1.6-0.4l4.4,6.4l-1.4,0.4l-3.4-5.1l-0.1,0L306.4,125.7z M305.7,122.9
						l3.8-1l0.3,1l-3.8,1L305.7,122.9z M315.6,119.1l-1.1,0.4c-0.1-0.1-0.1-0.2-0.3-0.3c-0.1-0.1-0.2-0.1-0.4-0.2
						c-0.2,0-0.3,0-0.5,0c-0.3,0.1-0.5,0.2-0.6,0.3c-0.1,0.2-0.2,0.3-0.1,0.5c0,0.2,0.1,0.3,0.3,0.3c0.1,0.1,0.4,0.1,0.6,0.1l1,0
						c0.5,0,1,0,1.3,0.2c0.3,0.2,0.5,0.4,0.6,0.8c0.1,0.3,0.1,0.7-0.1,1c-0.1,0.3-0.3,0.6-0.6,0.8c-0.3,0.2-0.7,0.4-1.1,0.5
						c-0.7,0.2-1.2,0.2-1.7,0c-0.5-0.2-0.8-0.5-1-1l1.2-0.4c0.1,0.2,0.3,0.4,0.5,0.5c0.2,0.1,0.5,0.1,0.8,0c0.3-0.1,0.5-0.2,0.7-0.4
						c0.1-0.2,0.2-0.3,0.2-0.5c0-0.2-0.1-0.3-0.3-0.3c-0.1-0.1-0.3-0.1-0.6-0.1l-1,0.1c-0.5,0-1,0-1.3-0.2c-0.3-0.2-0.5-0.5-0.6-0.9
						c-0.1-0.3-0.1-0.6,0-0.9c0.1-0.3,0.3-0.5,0.6-0.8c0.3-0.2,0.6-0.4,1.1-0.5c0.6-0.2,1.2-0.2,1.6,0
						C315.1,118.3,315.4,118.6,315.6,119.1z M320.9,117.6l-1.1,0.4c-0.1-0.1-0.1-0.2-0.3-0.3c-0.1-0.1-0.2-0.1-0.4-0.2
						c-0.2,0-0.3,0-0.5,0c-0.3,0.1-0.5,0.2-0.6,0.3c-0.1,0.2-0.2,0.3-0.1,0.5c0,0.2,0.1,0.3,0.3,0.3c0.1,0.1,0.4,0.1,0.6,0.1l1,0
						c0.5,0,1,0,1.3,0.2c0.3,0.2,0.5,0.4,0.6,0.8c0.1,0.3,0.1,0.7-0.1,1c-0.1,0.3-0.3,0.6-0.6,0.8c-0.3,0.2-0.7,0.4-1.1,0.5
						c-0.7,0.2-1.2,0.2-1.7,0c-0.5-0.2-0.8-0.5-1-1l1.2-0.4c0.1,0.2,0.3,0.4,0.5,0.4c0.2,0.1,0.5,0.1,0.8,0c0.3-0.1,0.5-0.2,0.7-0.4
						c0.1-0.2,0.2-0.3,0.2-0.5c0-0.2-0.1-0.3-0.3-0.3c-0.1-0.1-0.3-0.1-0.6-0.1l-1,0.1c-0.5,0-1,0-1.3-0.2c-0.3-0.2-0.5-0.5-0.6-0.9
						c-0.1-0.3-0.1-0.6,0-0.9c0.1-0.3,0.3-0.5,0.6-0.8c0.3-0.2,0.6-0.4,1.1-0.5c0.6-0.2,1.2-0.2,1.6,0
						C320.4,116.9,320.7,117.2,320.9,117.6z M325.5,120.7c-0.5,0.1-1,0.2-1.5,0c-0.4-0.1-0.8-0.4-1.1-0.7c-0.3-0.4-0.6-0.8-0.7-1.4
						c-0.1-0.5-0.2-1.1-0.1-1.5c0.1-0.5,0.3-0.9,0.6-1.2c0.3-0.3,0.7-0.6,1.2-0.7c0.3-0.1,0.7-0.1,1-0.1c0.3,0,0.6,0.1,0.9,0.3
						c0.3,0.2,0.5,0.4,0.8,0.7c0.2,0.3,0.4,0.7,0.5,1.2l0.1,0.4l-4.4,1.2l-0.2-0.8l3.2-0.8c-0.1-0.2-0.2-0.4-0.3-0.6
						c-0.2-0.2-0.3-0.3-0.5-0.3c-0.2-0.1-0.4-0.1-0.7,0c-0.3,0.1-0.5,0.2-0.6,0.4c-0.2,0.2-0.3,0.4-0.3,0.6c-0.1,0.2,0,0.5,0,0.7
						l0.2,0.7c0.1,0.3,0.2,0.6,0.4,0.8c0.2,0.2,0.4,0.3,0.6,0.4c0.2,0.1,0.5,0.1,0.8,0c0.2,0,0.3-0.1,0.5-0.2
						c0.1-0.1,0.2-0.2,0.3-0.3c0.1-0.1,0.1-0.3,0.1-0.4l1.2-0.2c0,0.3-0.1,0.6-0.2,0.9c-0.1,0.3-0.4,0.5-0.6,0.7
						C326.3,120.4,326,120.6,325.5,120.7z M330.2,113.6l0.3,1l-3.1,0.8l-0.3-1L330.2,113.6z M327.5,113l1.3-0.3l1.3,5
						c0,0.2,0.1,0.3,0.2,0.4c0.1,0.1,0.2,0.1,0.3,0.1c0.1,0,0.2,0,0.3,0c0.1,0,0.1,0,0.2-0.1c0.1,0,0.1-0.1,0.1-0.1l0.5,0.9
						c-0.1,0-0.2,0.1-0.3,0.2c-0.1,0.1-0.3,0.1-0.4,0.2c-0.3,0.1-0.6,0.1-0.9,0.1c-0.3,0-0.5-0.1-0.7-0.3c-0.2-0.2-0.4-0.4-0.4-0.8
						L327.5,113z M335.8,113.7l-1.1,0.4c-0.1-0.1-0.1-0.2-0.3-0.3c-0.1-0.1-0.2-0.1-0.4-0.2c-0.2,0-0.3,0-0.5,0
						c-0.3,0.1-0.5,0.2-0.6,0.3c-0.1,0.2-0.2,0.3-0.1,0.5c0,0.2,0.1,0.3,0.3,0.3c0.1,0.1,0.4,0.1,0.6,0.1l1-0.1c0.5,0,1,0,1.3,0.2
						c0.3,0.2,0.5,0.4,0.6,0.8c0.1,0.3,0.1,0.7-0.1,1c-0.1,0.3-0.3,0.6-0.6,0.8c-0.3,0.2-0.7,0.4-1.1,0.5c-0.7,0.2-1.2,0.2-1.7,0
						c-0.5-0.2-0.8-0.5-1-1l1.2-0.4c0.1,0.2,0.3,0.4,0.5,0.5c0.2,0.1,0.5,0.1,0.8,0c0.3-0.1,0.5-0.2,0.7-0.4
						c0.1-0.2,0.2-0.3,0.2-0.5c0-0.2-0.1-0.3-0.3-0.3c-0.1-0.1-0.3-0.1-0.6-0.1l-1,0.1c-0.5,0-1,0-1.3-0.2c-0.3-0.2-0.5-0.5-0.6-0.9
						c-0.1-0.3-0.1-0.6,0-0.9c0.1-0.3,0.3-0.5,0.6-0.8c0.3-0.2,0.6-0.4,1.1-0.5c0.6-0.2,1.2-0.2,1.6,0
						C335.2,112.9,335.5,113.2,335.8,113.7z"/>
					<path fill="#637282" d="M333.3,136.6l-0.3-1.2l2-6.4l1-0.3l0.4,1.7l-0.6,0.2l-1.3,4.3l0,0.1l4.8-1.3l0.3,1.2L333.3,136.6z
						 M337.6,137.1l-0.5-1.9l-0.1-0.5l-1.5-5.7l1.4-0.4l2.2,8.1L337.6,137.1z"/>

						<rect x="349.5" y="104.3" transform="matrix(0.9659 -0.2588 0.2588 0.9659 -19.3851 94.6663)" fill="#DBDEE5" width="0.7" height="33.3"/>
					<path fill="#A5ADB9" d="M361.3,110l-3.4-5.6l1.2-0.3l2.3,4.2l0.1,0l0-4.8l1.1-0.3l2.4,4.2l0.1,0l-0.1-4.8l1.2-0.3l-0.1,6.6
						l-1.1,0.3l-2.4-3.9l0,0l-0.1,4.6L361.3,110z M369.3,108c-0.3,0.1-0.6,0.1-0.8,0.1c-0.3,0-0.5-0.1-0.7-0.3
						c-0.2-0.2-0.3-0.4-0.4-0.7c-0.1-0.3-0.1-0.5,0-0.7s0.1-0.4,0.3-0.5c0.1-0.1,0.3-0.3,0.5-0.4c0.2-0.1,0.4-0.2,0.6-0.3
						c0.3-0.1,0.5-0.2,0.6-0.2c0.2-0.1,0.3-0.1,0.3-0.2c0.1-0.1,0.1-0.2,0.1-0.3l0,0c-0.1-0.2-0.2-0.4-0.3-0.5
						c-0.2-0.1-0.4-0.1-0.6,0c-0.3,0.1-0.5,0.2-0.6,0.3c-0.1,0.2-0.2,0.3-0.2,0.5l-1,0.1c0-0.3,0.1-0.6,0.2-0.8
						c0.1-0.2,0.3-0.4,0.6-0.6c0.2-0.2,0.5-0.3,0.8-0.4c0.2-0.1,0.4-0.1,0.7-0.1c0.2,0,0.5,0,0.7,0.1c0.2,0.1,0.4,0.2,0.6,0.4
						c0.2,0.2,0.3,0.4,0.4,0.7l0.8,3.1l-1,0.3l-0.2-0.6l0,0c0,0.1-0.1,0.3-0.2,0.4c-0.1,0.1-0.2,0.3-0.4,0.4
						C369.7,107.8,369.5,107.9,369.3,108z M369.3,107.1c0.2-0.1,0.4-0.2,0.5-0.3c0.1-0.1,0.2-0.3,0.3-0.4c0-0.2,0.1-0.3,0-0.5
						l-0.1-0.5c0,0-0.1,0.1-0.2,0.1c-0.1,0-0.2,0.1-0.3,0.1c-0.1,0-0.2,0.1-0.3,0.1c-0.1,0-0.2,0.1-0.2,0.1
						c-0.2,0.1-0.3,0.1-0.4,0.2c-0.1,0.1-0.2,0.2-0.2,0.3c-0.1,0.1-0.1,0.2,0,0.4c0.1,0.2,0.2,0.3,0.3,0.4
						C368.9,107.1,369.1,107.1,369.3,107.1z M372.2,100.5l1.6,6.1l-1.1,0.3l-1.6-6.1L372.2,100.5z M374.4,100l1.6,6.1l-1.1,0.3
						l-1.6-6.1L374.4,100z M379.2,105.3c-0.5,0.1-0.9,0.1-1.3,0c-0.4-0.1-0.7-0.3-1-0.6c-0.3-0.3-0.5-0.7-0.6-1.2
						c-0.1-0.5-0.1-0.9-0.1-1.3c0.1-0.4,0.3-0.8,0.5-1c0.3-0.3,0.6-0.5,1.1-0.6c0.3-0.1,0.6-0.1,0.8-0.1c0.3,0,0.5,0.1,0.8,0.2
						c0.2,0.1,0.5,0.3,0.7,0.6c0.2,0.3,0.3,0.6,0.4,1l0.1,0.3l-3.7,1l-0.2-0.7l2.7-0.7c-0.1-0.2-0.2-0.4-0.3-0.5
						c-0.1-0.1-0.3-0.2-0.5-0.3c-0.2-0.1-0.4-0.1-0.6,0c-0.2,0.1-0.4,0.2-0.5,0.3c-0.1,0.1-0.2,0.3-0.3,0.5c0,0.2,0,0.4,0,0.6
						l0.2,0.6c0.1,0.3,0.2,0.5,0.3,0.6c0.1,0.2,0.3,0.3,0.5,0.3c0.2,0.1,0.4,0,0.7,0c0.2,0,0.3-0.1,0.4-0.2c0.1-0.1,0.2-0.2,0.3-0.3
						c0.1-0.1,0.1-0.2,0.1-0.4l1-0.2c0,0.3-0.1,0.5-0.2,0.8c-0.1,0.2-0.3,0.5-0.6,0.6C379.8,105.1,379.5,105.2,379.2,105.3z
						 M383.1,99.2l0.2,0.8l-2.6,0.7l-0.2-0.8L383.1,99.2z M380.9,98.7l1.1-0.3l1.2,4.3c0,0.1,0.1,0.2,0.2,0.3
						c0.1,0.1,0.1,0.1,0.2,0.1c0.1,0,0.2,0,0.3,0c0.1,0,0.1,0,0.2-0.1c0.1,0,0.1,0,0.1-0.1l0.4,0.8c-0.1,0-0.1,0.1-0.2,0.1
						c-0.1,0.1-0.2,0.1-0.4,0.1c-0.3,0.1-0.5,0.1-0.8,0.1c-0.2,0-0.5-0.1-0.6-0.3c-0.2-0.2-0.3-0.4-0.4-0.7L380.9,98.7z M387.9,99.3
						l-1,0.4c-0.1-0.1-0.1-0.2-0.2-0.2c-0.1-0.1-0.2-0.1-0.3-0.1c-0.1,0-0.3,0-0.4,0c-0.2,0.1-0.4,0.2-0.5,0.3
						c-0.1,0.1-0.2,0.3-0.1,0.4c0,0.1,0.1,0.2,0.2,0.3c0.1,0.1,0.3,0.1,0.6,0.1l0.8,0c0.5,0,0.8,0,1.1,0.2c0.3,0.1,0.4,0.4,0.5,0.7
						c0.1,0.3,0.1,0.6,0,0.8c-0.1,0.3-0.3,0.5-0.6,0.7c-0.3,0.2-0.6,0.4-1,0.5c-0.6,0.1-1,0.2-1.4,0c-0.4-0.1-0.7-0.4-0.9-0.8l1-0.4
						c0.1,0.2,0.2,0.3,0.4,0.4c0.2,0.1,0.4,0.1,0.6,0c0.3-0.1,0.4-0.2,0.6-0.3c0.1-0.1,0.2-0.3,0.1-0.5c0-0.1-0.1-0.2-0.2-0.3
						c-0.1-0.1-0.3-0.1-0.5-0.1l-0.8,0c-0.5,0-0.8,0-1.1-0.2c-0.3-0.2-0.4-0.4-0.5-0.7c-0.1-0.3-0.1-0.5,0-0.8
						c0.1-0.3,0.3-0.5,0.5-0.7c0.2-0.2,0.6-0.3,0.9-0.4c0.5-0.1,1-0.1,1.4,0C387.5,98.6,387.7,98.9,387.9,99.3z"/>
					<path fill="#637282" d="M381.8,116.6l2.2,8.1l-1.5,0.4l-1.8-6.7l0,0l-1.6,1.7l-0.4-1.3l1.7-1.8L381.8,116.6z M389,123.5
						c-0.6,0.2-1.1,0.2-1.6,0.1c-0.5-0.1-0.9-0.3-1.3-0.5c-0.4-0.3-0.6-0.6-0.7-1.1l1.5-0.4c0.1,0.2,0.2,0.4,0.4,0.5
						c0.2,0.1,0.4,0.2,0.6,0.2c0.2,0,0.5,0,0.8-0.1c0.3-0.1,0.5-0.2,0.7-0.4c0.2-0.2,0.3-0.4,0.4-0.6c0.1-0.2,0.1-0.4,0-0.7
						c-0.1-0.2-0.2-0.4-0.4-0.6s-0.4-0.2-0.7-0.3c-0.3,0-0.6,0-0.9,0.1l-0.7,0.2l-0.3-1.1l0.7-0.2c0.3-0.1,0.5-0.2,0.7-0.3
						c0.2-0.2,0.3-0.3,0.4-0.5c0.1-0.2,0.1-0.4,0-0.7c-0.1-0.2-0.2-0.4-0.3-0.6c-0.1-0.1-0.3-0.2-0.5-0.3c-0.2,0-0.4,0-0.7,0
						c-0.2,0.1-0.5,0.2-0.7,0.3c-0.2,0.1-0.3,0.3-0.4,0.5c-0.1,0.2-0.1,0.4,0,0.6l-1.4,0.4c-0.1-0.5-0.1-0.9,0.1-1.3
						c0.2-0.4,0.4-0.8,0.8-1.1c0.4-0.3,0.8-0.5,1.3-0.7c0.5-0.1,1-0.2,1.5-0.1c0.5,0.1,0.8,0.3,1.2,0.6c0.3,0.3,0.5,0.6,0.6,1
						c0.1,0.5,0.1,0.9-0.1,1.3c-0.2,0.4-0.5,0.7-0.9,0.9l0,0.1c0.6-0.1,1.1,0,1.5,0.3c0.4,0.3,0.7,0.6,0.8,1.2
						c0.1,0.5,0.1,0.9-0.1,1.3c-0.2,0.4-0.4,0.8-0.8,1.1C390.1,123.1,389.6,123.3,389,123.5z"/>

						<rect x="179.8" y="177.3" transform="matrix(0.9659 -0.2588 0.2588 0.9659 -38.2661 69.8038)" fill="#289548" width="132.3" height="5.8"/>

						<rect x="309.2" y="154.8" transform="matrix(0.9659 -0.2588 0.2588 0.9659 -29.5619 90.8181)" fill="#FC9F0F" width="41.9" height="5.8"/>

						<rect x="349.9" y="145.5" transform="matrix(0.9659 -0.2588 0.2588 0.9659 -25.9864 99.4504)" fill="#007DFF" width="29.6" height="5.8"/>

						<rect x="378.7" y="139" transform="matrix(0.9659 -0.2588 0.2588 0.9659 -23.4581 105.5542)" fill="#DE5846" width="21" height="5.8"/>
					<path fill="#235B95" d="M265.4,189.7l1.6-0.4l3.5,4.6l0.1,0l0.7-5.7l1.6-0.4l1.9,7.1l-1.2,0.3l-1.3-4.9l-0.1,0l-0.7,5.4
						l-0.9,0.2l-3.3-4.3l-0.1,0l1.3,4.9l-1.2,0.3L265.4,189.7z M278.4,194c-0.5,0.1-1,0.1-1.4,0c-0.4-0.1-0.8-0.4-1.1-0.7
						c-0.3-0.4-0.6-0.8-0.7-1.4c-0.1-0.6-0.2-1.1-0.1-1.5c0.1-0.5,0.3-0.9,0.6-1.2c0.3-0.3,0.7-0.6,1.3-0.7c0.5-0.1,1-0.1,1.4,0
						c0.4,0.1,0.8,0.4,1.1,0.7c0.3,0.4,0.6,0.8,0.7,1.4c0.1,0.5,0.2,1.1,0.1,1.5c-0.1,0.5-0.3,0.9-0.6,1.2
						C279.4,193.6,279,193.8,278.4,194z M278.2,193c0.3-0.1,0.5-0.2,0.6-0.4c0.1-0.2,0.2-0.5,0.3-0.7c0-0.3,0-0.6-0.1-0.9
						c-0.1-0.3-0.2-0.6-0.4-0.8c-0.2-0.2-0.4-0.4-0.6-0.5c-0.2-0.1-0.5-0.1-0.8,0c-0.3,0.1-0.5,0.2-0.7,0.4
						c-0.1,0.2-0.2,0.5-0.3,0.8c0,0.3,0,0.6,0.1,0.9c0.1,0.3,0.2,0.6,0.4,0.8c0.2,0.2,0.4,0.4,0.6,0.5
						C277.6,193,277.9,193,278.2,193z M282,192.9l-1.4-5.3l1.2-0.3l0.2,0.9l0.1,0c0-0.3,0.1-0.6,0.3-0.8c0.2-0.2,0.4-0.4,0.7-0.5
						c0.1,0,0.1,0,0.2-0.1c0.1,0,0.2,0,0.2,0l0.3,1.2c-0.1,0-0.1,0-0.3,0c-0.1,0-0.2,0-0.3,0.1c-0.2,0.1-0.4,0.2-0.6,0.3
						c-0.2,0.1-0.3,0.3-0.3,0.5c-0.1,0.2-0.1,0.4,0,0.6l0.8,3.1L282,192.9z M288.1,191.4c-0.5,0.1-1,0.2-1.5,0
						c-0.4-0.1-0.8-0.4-1.1-0.7c-0.3-0.4-0.6-0.8-0.7-1.4c-0.1-0.5-0.2-1.1-0.1-1.5c0.1-0.5,0.3-0.9,0.6-1.2
						c0.3-0.3,0.7-0.6,1.2-0.7c0.3-0.1,0.7-0.1,1-0.1c0.3,0,0.6,0.1,0.9,0.3c0.3,0.2,0.5,0.4,0.8,0.7c0.2,0.3,0.4,0.7,0.5,1.2
						l0.1,0.4l-4.4,1.2l-0.2-0.8l3.2-0.8c-0.1-0.2-0.2-0.4-0.3-0.6c-0.2-0.2-0.3-0.3-0.5-0.3c-0.2-0.1-0.4-0.1-0.7,0
						c-0.3,0.1-0.5,0.2-0.6,0.4c-0.2,0.2-0.3,0.4-0.3,0.6c-0.1,0.2,0,0.5,0,0.7l0.2,0.7c0.1,0.3,0.2,0.6,0.4,0.8
						c0.2,0.2,0.4,0.3,0.6,0.4c0.2,0.1,0.5,0.1,0.8,0c0.2,0,0.3-0.1,0.5-0.2c0.1-0.1,0.2-0.2,0.3-0.3c0.1-0.1,0.1-0.3,0.1-0.4
						l1.2-0.2c0,0.3-0.1,0.6-0.2,0.9c-0.1,0.3-0.4,0.5-0.6,0.7C288.8,191.1,288.5,191.3,288.1,191.4z M296.4,189.1l-2.4,0.6
						l-1.9-7.1l2.5-0.7c0.7-0.2,1.4-0.2,1.9-0.1c0.6,0.1,1.1,0.4,1.5,0.9s0.7,1.1,0.9,1.8c0.2,0.7,0.2,1.4,0.1,2
						c-0.1,0.6-0.4,1.1-0.9,1.5C297.7,188.6,297.1,188.9,296.4,189.1z M295,188.2l1.1-0.3c0.5-0.1,0.9-0.3,1.2-0.6
						c0.3-0.3,0.5-0.6,0.5-1c0.1-0.4,0-0.9-0.1-1.4c-0.1-0.5-0.4-1-0.6-1.3c-0.3-0.3-0.6-0.5-1-0.6c-0.4-0.1-0.8-0.1-1.3,0.1
						l-1.1,0.3L295,188.2z M303.4,187.3c-0.5,0.1-1,0.2-1.5,0c-0.4-0.1-0.8-0.4-1.1-0.7c-0.3-0.4-0.6-0.8-0.7-1.4
						c-0.1-0.5-0.2-1.1-0.1-1.5c0.1-0.5,0.3-0.9,0.6-1.2c0.3-0.3,0.7-0.6,1.2-0.7c0.3-0.1,0.7-0.1,1-0.1c0.3,0,0.6,0.1,0.9,0.3
						c0.3,0.2,0.5,0.4,0.8,0.7c0.2,0.3,0.4,0.7,0.5,1.2l0.1,0.4l-4.4,1.2l-0.2-0.8l3.2-0.8c-0.1-0.2-0.2-0.4-0.3-0.6
						c-0.2-0.2-0.3-0.3-0.5-0.3c-0.2-0.1-0.4-0.1-0.7,0c-0.3,0.1-0.5,0.2-0.6,0.4c-0.2,0.2-0.3,0.4-0.3,0.6c-0.1,0.2,0,0.5,0,0.7
						l0.2,0.7c0.1,0.3,0.2,0.6,0.4,0.8c0.2,0.2,0.4,0.3,0.6,0.4c0.2,0.1,0.5,0.1,0.8,0c0.2,0,0.3-0.1,0.5-0.2
						c0.1-0.1,0.2-0.2,0.3-0.3c0.1-0.1,0.1-0.3,0.1-0.4l1.2-0.2c0,0.3-0.1,0.6-0.2,0.9c-0.1,0.3-0.4,0.5-0.6,0.7
						C304.2,187,303.8,187.2,303.4,187.3z M308,180.2l0.3,1l-3.1,0.8l-0.3-1L308,180.2z M305.4,179.6l1.3-0.3l1.3,5
						c0,0.2,0.1,0.3,0.2,0.4c0.1,0.1,0.2,0.1,0.3,0.1c0.1,0,0.2,0,0.3,0c0.1,0,0.1,0,0.2-0.1c0.1,0,0.1-0.1,0.1-0.1l0.5,0.9
						c-0.1,0-0.2,0.1-0.3,0.2c-0.1,0.1-0.3,0.1-0.4,0.2c-0.3,0.1-0.6,0.1-0.9,0.1c-0.3,0-0.5-0.1-0.7-0.3c-0.2-0.2-0.4-0.4-0.4-0.8
						L305.4,179.6z M312.1,185c-0.3,0.1-0.7,0.1-1,0.1c-0.3-0.1-0.6-0.2-0.8-0.4c-0.2-0.2-0.4-0.5-0.5-0.8c-0.1-0.3-0.1-0.6,0-0.8
						c0.1-0.2,0.2-0.4,0.3-0.6c0.2-0.2,0.4-0.3,0.6-0.4c0.2-0.1,0.5-0.2,0.7-0.3c0.3-0.1,0.5-0.2,0.7-0.3c0.2-0.1,0.3-0.2,0.4-0.2
						c0.1-0.1,0.1-0.2,0.1-0.3l0,0c-0.1-0.3-0.2-0.4-0.4-0.5c-0.2-0.1-0.4-0.1-0.7,0c-0.3,0.1-0.5,0.2-0.7,0.4
						c-0.1,0.2-0.2,0.4-0.2,0.6l-1.2,0.1c0-0.3,0.1-0.7,0.2-0.9c0.2-0.3,0.4-0.5,0.6-0.7c0.3-0.2,0.6-0.3,1-0.4
						c0.3-0.1,0.5-0.1,0.8-0.1c0.3,0,0.5,0,0.8,0.1c0.2,0.1,0.5,0.2,0.7,0.4c0.2,0.2,0.3,0.5,0.4,0.8l1,3.6l-1.2,0.3l-0.2-0.7l0,0
						c0,0.2-0.1,0.3-0.2,0.5c-0.1,0.2-0.2,0.3-0.4,0.4C312.6,184.8,312.4,184.9,312.1,185z M312.2,184c0.3-0.1,0.5-0.2,0.6-0.3
						c0.2-0.2,0.3-0.3,0.3-0.5c0.1-0.2,0.1-0.4,0-0.6l-0.2-0.6c0,0-0.1,0.1-0.2,0.1c-0.1,0.1-0.2,0.1-0.3,0.2
						c-0.1,0.1-0.2,0.1-0.3,0.1c-0.1,0-0.2,0.1-0.3,0.1c-0.2,0.1-0.3,0.2-0.5,0.3c-0.1,0.1-0.2,0.2-0.3,0.3c-0.1,0.1-0.1,0.3,0,0.4
						c0.1,0.2,0.2,0.4,0.4,0.5C311.7,184,311.9,184,312.2,184z M316.1,183.8l-1.4-5.3l1.3-0.3l1.4,5.3L316.1,183.8z M315.1,177.5
						c-0.2,0.1-0.4,0-0.6-0.1c-0.2-0.1-0.3-0.2-0.3-0.4c-0.1-0.2,0-0.4,0.1-0.5c0.1-0.2,0.3-0.3,0.5-0.3c0.2-0.1,0.4,0,0.6,0.1
						c0.2,0.1,0.3,0.2,0.3,0.4c0,0.2,0,0.4-0.1,0.5C315.5,177.3,315.3,177.5,315.1,177.5z M318,175.6l1.9,7.1l-1.3,0.3l-1.9-7.1
						L318,175.6z M324.4,177.3l-1.1,0.4c-0.1-0.1-0.1-0.2-0.3-0.3c-0.1-0.1-0.2-0.1-0.4-0.2c-0.2,0-0.3,0-0.5,0
						c-0.3,0.1-0.5,0.2-0.6,0.3c-0.1,0.2-0.2,0.3-0.1,0.5c0,0.2,0.1,0.3,0.3,0.3c0.1,0.1,0.4,0.1,0.6,0.1l1,0c0.5,0,1,0,1.3,0.2
						c0.3,0.2,0.5,0.4,0.6,0.8c0.1,0.3,0.1,0.7-0.1,1c-0.1,0.3-0.3,0.6-0.6,0.8c-0.3,0.2-0.7,0.4-1.1,0.5c-0.7,0.2-1.2,0.2-1.7,0
						c-0.5-0.2-0.8-0.5-1-1l1.2-0.4c0.1,0.2,0.3,0.4,0.5,0.4c0.2,0.1,0.5,0.1,0.8,0c0.3-0.1,0.5-0.2,0.7-0.4
						c0.1-0.2,0.2-0.3,0.2-0.5c0-0.2-0.1-0.3-0.3-0.3c-0.1-0.1-0.3-0.1-0.6-0.1l-1,0.1c-0.5,0-1,0-1.3-0.2c-0.3-0.2-0.5-0.5-0.6-0.9
						c-0.1-0.3-0.1-0.6,0-0.9c0.1-0.3,0.3-0.5,0.6-0.8c0.3-0.2,0.6-0.4,1.1-0.5c0.6-0.2,1.2-0.2,1.6,0
						C323.9,176.6,324.2,176.9,324.4,177.3z"/>
					<path fill="none" stroke="#DBDEE5" stroke-width="0.7231" d="M144.5,146.8l261.9-70.2"/>

						<rect x="124.7" y="34.9" transform="matrix(0.9659 -0.2588 0.2588 0.9659 -5.3412 69.2115)" fill="#FFFFFF" width="271" height="40"/>

						<rect x="129.8" y="73.5" transform="matrix(0.9659 -0.2588 0.2588 0.9659 -10.0776 71.1735)" fill="#DBDEE5" width="271" height="0.7"/>
					<path fill="#235B95" d="M151.5,72.3l16.8-4.5c1.5-0.4,3.1,0.5,3.5,2l4.5,16.8c0.4,1.5-0.5,3.1-2,3.5l-16.8,4.5
						c-1.5,0.4-3.1-0.5-3.5-2l-4.5-16.8C149.1,74.3,150,72.7,151.5,72.3z"/>
					<g>
						<defs>

								<rect id="SVGID_00000129920492763552129240000011676966393642257072_" x="154.5" y="72.8" transform="matrix(0.9659 -0.2588 0.2588 0.9659 -15.4697 44.9268)" width="16.8" height="16.8"/>
						</defs>
						<clipPath id="SVGID_00000055674160050349926480000009095690499097655727_">
							<use xlink:href="#SVGID_00000129920492763552129240000011676966393642257072_"  overflow="visible"/>
						</clipPath>
						<g clip-path="url(#SVGID_00000055674160050349926480000009095690499097655727_)">
							<path fill="#FFFFFF" d="M164.6,89c-0.5-0.2-0.9-0.4-1.3-0.6c-0.5-0.2-0.9-0.5-1.4-0.8c-0.6-0.3-1.1-0.7-1.6-1.1
								c-1.3-1-2.5-2.2-3.6-3.4c-0.6-0.8-1.2-1.5-1.7-2.4c-0.5-0.9-1-1.9-1.4-2.9c-0.1-0.2-0.1-0.5,0.1-0.7c0.7-0.6,1.4-1.1,2.1-1.5
								c0.7-0.4,1.4-0.8,2.1-1.1c0.8-0.4,1.7-0.7,2.6-1l0.5-0.1c0.9-0.2,1.8-0.4,2.7-0.5c0.8-0.1,1.6-0.1,2.4-0.1
								c0.9,0,1.7,0.1,2.6,0.2c0.3,0.1,0.4,0.3,0.4,0.5c0.2,1,0.2,2.1,0.2,3.2c0,1-0.1,1.9-0.2,2.9c-0.3,1.6-0.7,3.2-1.4,4.8
								c-0.3,0.6-0.5,1.2-0.9,1.8c-0.3,0.5-0.5,0.9-0.8,1.4c-0.3,0.4-0.5,0.8-0.9,1.2c-0.1,0.1-0.2,0.1-0.3,0.2
								C164.9,89,164.7,89,164.6,89L164.6,89z M162.2,78.8c0,0-0.9,1.6-1.5,2.8c-0.2,0.4-0.4,0.8-0.5,1c-0.2,0.4-0.3,0.9-0.3,1.5
								c0,0.3,0.1,0.5,0.3,0.7c0.2,0.3,0.4,0.5,0.7,0.7c0.7,0.6,1.5,1.1,2.4,1.5c0.3,0.2,0.7,0.3,1,0.5c0.1,0,0.2,0,0.3,0
								c0.1,0,0.2-0.1,0.2-0.1c0.2-0.3,0.5-0.6,0.7-0.9c0.5-0.8,0.9-1.6,1.3-2.5c0.1-0.3,0.2-0.6,0.2-0.9c0-0.3,0-0.5-0.1-0.8
								c-0.2-0.5-0.5-0.9-1-1.1l-0.8-0.5l-0.1-0.1C163.9,79.8,162.3,78.8,162.2,78.8C162.3,78.8,162.3,78.8,162.2,78.8
								C162.3,78.8,162.3,78.8,162.2,78.8C162.2,78.8,162.2,78.8,162.2,78.8C162.2,78.8,162.2,78.8,162.2,78.8L162.2,78.8z
								 M161.5,75.8C161.5,75.8,161.5,75.8,161.5,75.8c0.1,0.1,0.4,0.4,0.9,0.9c1.2,1.1,3.2,3.1,3.7,3.5c0.4,0.3,0.8,0.5,1.1,0.4
								c0.3-0.1,0.7-0.4,0.8-1.6c0.1-1.3,0.1-2.5-0.1-3.8c0-0.2-0.1-0.4-0.3-0.4c-0.7-0.1-1.4-0.2-2.1-0.2c-0.6,0-1.3,0-1.9,0.1
								c-0.7,0.1-1.5,0.2-2.2,0.4l-0.4,0.1c-0.7,0.2-1.4,0.4-2.1,0.8c-0.6,0.3-1.1,0.6-1.7,0.9c-0.6,0.4-1.1,0.8-1.7,1.2
								c-0.2,0.2-0.1,0.4-0.1,0.5c0.5,1.2,1,2.3,1.8,3.3c0.4,0.5,0.9,1.1,1.5,1c0.3-0.1,0.6-0.4,0.8-0.9c0.2-0.7,1-3.3,1.5-4.9l0,0
								C161.2,76.3,161.4,75.8,161.5,75.8C161.4,75.8,161.4,75.8,161.5,75.8C161.4,75.7,161.4,75.7,161.5,75.8
								C161.4,75.7,161.4,75.7,161.5,75.8z M160.8,82.9l0.6-1.1l3-0.8l1.1,0.7L160.8,82.9z M161.9,81l0.6-1.1l1.1,0.7L161.9,81z"/>
						</g>
					</g>
					<path fill="none" stroke="#637282" stroke-width="1.4461" stroke-linecap="round" stroke-linejoin="round" d="M192.7,77.8
						l12.6-3.4"/>
					<path fill="none" stroke="#637282" stroke-width="1.4461" stroke-linecap="round" stroke-linejoin="round" d="M191.6,73.9
						l12.6-3.4"/>
					<path fill="none" stroke="#637282" stroke-width="1.4461" stroke-linecap="round" stroke-linejoin="round" d="M190.6,70.1
						l12.6-3.4"/>
					<g>
						<defs>

								<rect id="SVGID_00000056398989042648340010000013781932710302679483_" x="265.6" y="37.5" transform="matrix(0.9659 -0.2588 0.2588 0.9659 -1.4119 78.6976)" width="65.1" height="14.5"/>
						</defs>
						<clipPath id="SVGID_00000100355904515519651540000002125712573394780849_">
							<use xlink:href="#SVGID_00000056398989042648340010000013781932710302679483_"  overflow="visible"/>
						</clipPath>
						<g clip-path="url(#SVGID_00000100355904515519651540000002125712573394780849_)">
							<path fill="none" stroke="#7E8A9C" stroke-width="1.4461" stroke-linecap="round" stroke-linejoin="round" d="M276.2,50.8
								c-1.1-2.2-3.6-3.3-5.8-2.4c-2.2,0.9-3.3,3.5-2.5,5.8c0.8,2.4,3.2,3.7,5.5,3.1l5.5-1.5c1.1-0.3,1.9-1.3,2.1-2.5
								c0.1-1.2-0.5-2.4-1.5-2.9C278.3,49.9,277,50,276.2,50.8z M276.2,50.8c0.2,0.5,0.3,1.1,0.2,2"/>
							<path fill="#289548" d="M279.4,44.5c-0.3-1.2-1.5-1.8-2.7-1.5c-1.1,0.3-1.8,1.5-1.5,2.7c0.3,1.2,1.5,1.8,2.7,1.5
								C279,46.9,279.7,45.7,279.4,44.5C279.4,44.6,279.4,44.5,279.4,44.5z"/>

								<rect x="291.9" y="39.1" transform="matrix(0.9659 -0.2588 0.2588 0.9659 -2.0259 77.2151)" fill="#DBDEE5" width="0.7" height="14.5"/>
							<g>
								<defs>

										<rect id="SVGID_00000158743677100714554470000003176796422928346294_" x="303.5" y="34.1" transform="matrix(0.9659 -0.2588 0.2588 0.9659 -0.1117 81.8366)" width="14.5" height="14.5"/>
								</defs>
								<clipPath id="SVGID_00000160166819764520346080000001438119982227408556_">
									<use xlink:href="#SVGID_00000158743677100714554470000003176796422928346294_"  overflow="visible"/>
								</clipPath>
								<g clip-path="url(#SVGID_00000160166819764520346080000001438119982227408556_)">
									<path fill="none" stroke="#637282" stroke-width="1.4461" stroke-linecap="round" stroke-linejoin="round" d="M311.1,47.1
										c0.4,0.6,1.1,0.8,1.7,0.4c0.3-0.2,0.6-0.6,0.6-1"/>
									<path fill="none" stroke="#637282" stroke-width="1.4461" stroke-linecap="round" stroke-linejoin="round" d="M309.4,36.3
										l-0.3-1.3"/>
									<path fill="none" stroke="#637282" stroke-width="1.4461" stroke-linecap="round" stroke-linejoin="round" d="M309.4,36.3
										c2.3-0.6,4.7,0.8,5.3,3.1c1,3.9,2.1,4.4,2.1,4.4l-10.1,2.7c0,0,0.6-1.3-0.4-4.8C305.7,39.3,307.1,36.9,309.4,36.3z"/>
								</g>
							</g>

								<rect x="328.9" y="29.2" transform="matrix(0.9659 -0.2588 0.2588 0.9659 1.8025 86.4578)" fill="#DBDEE5" width="0.7" height="14.5"/>
						</g>
					</g>
					<g>
						<defs>

								<rect id="SVGID_00000143584643633900599530000012543926915101985185_" x="346" y="17.2" transform="matrix(0.9659 -0.2588 0.2588 0.9659 4.7281 93.5207)" width="23.1" height="23.1"/>
						</defs>
						<clipPath id="SVGID_00000099630133890473239350000013282726349767775906_">
							<use xlink:href="#SVGID_00000143584643633900599530000012543926915101985185_"  overflow="visible"/>
						</clipPath>
						<g clip-path="url(#SVGID_00000099630133890473239350000013282726349767775906_)">
							<g>
								<defs>

										<rect id="SVGID_00000118372158419477780340000018346757895688880562_" x="346" y="17.2" transform="matrix(0.9659 -0.2588 0.2588 0.9659 4.7266 93.517)" width="23.1" height="23.1"/>
								</defs>
								<clipPath id="SVGID_00000142899020497074654590000002411249807588989063_">
									<use xlink:href="#SVGID_00000118372158419477780340000018346757895688880562_"  overflow="visible"/>
								</clipPath>
								<g clip-path="url(#SVGID_00000142899020497074654590000002411249807588989063_)">
									<circle fill="#007DFF" cx="357.5" cy="28.8" r="11.6"/>
									<g>
										<defs>

												<rect id="SVGID_00000034807403847977911030000009407009637591584129_" x="346" y="17.2" transform="matrix(0.9659 -0.2588 0.2588 0.9659 4.7299 93.5155)" width="23.1" height="23.1"/>
										</defs>
										<clipPath id="SVGID_00000119833268084587854400000017202754736931264442_">
											<use xlink:href="#SVGID_00000034807403847977911030000009407009637591584129_"  overflow="visible"/>
										</clipPath>
										<g clip-path="url(#SVGID_00000119833268084587854400000017202754736931264442_)">
											<g>
												<defs>

														<rect id="SVGID_00000160907068916044823160000004159825769083239839_" x="346" y="17.2" transform="matrix(0.9659 -0.2588 0.2588 0.9659 4.7299 93.5155)" width="23.1" height="23.1"/>
												</defs>
												<clipPath id="SVGID_00000163757085824928980660000002045049215994454405_">
													<use xlink:href="#SVGID_00000160907068916044823160000004159825769083239839_"  overflow="visible"/>
												</clipPath>
												<g clip-path="url(#SVGID_00000163757085824928980660000002045049215994454405_)">
													<circle fill="#3E9DFF" cx="357.5" cy="28.8" r="11.6"/>
													<defs>
														<filter id="Adobe_OpacityMaskFilter" filterUnits="userSpaceOnUse" x="336.3" y="6.7" width="33.8" height="36.2">
															<feColorMatrix  type="matrix" values="1 0 0 0 0  0 1 0 0 0  0 0 1 0 0  0 0 0 1 0"/>
														</filter>
													</defs>

														<mask maskUnits="userSpaceOnUse" x="336.3" y="6.7" width="33.8" height="36.2" id="mask0_2307_42559_00000151528589400900405620000014029219947842715057_">
														<circle filter="url(#Adobe_OpacityMaskFilter)" cx="357.5" cy="28.8" r="11.6"/>
													</mask>
													<g mask="url(#mask0_2307_42559_00000151528589400900405620000014029219947842715057_)">

															<ellipse transform="matrix(0.9659 -0.2588 0.2588 0.9659 7.4144 93.3683)" fill="#007DFF" cx="358.3" cy="18.5" rx="11.8" ry="11.8"/>

															<ellipse transform="matrix(0.9659 -0.2588 0.2588 0.9659 3.7595 91.1728)" fill="#0B4DC7" cx="348.1" cy="31.3" rx="11.8" ry="11.6"/>
													</g>
												</g>
											</g>
										</g>
									</g>
									<path fill="#FFFFFF" d="M358.2,28.2c0.1,0.5,0.2,1,0.1,1.4c-0.1,0.4-0.3,0.8-0.6,1.1c-0.3,0.3-0.6,0.5-1.1,0.6
										c-0.4,0.1-0.8,0.1-1.2,0c-0.4-0.1-0.7-0.3-1-0.6c-0.3-0.3-0.5-0.7-0.6-1.3c-0.1-0.5-0.2-1-0.1-1.4c0.1-0.4,0.3-0.8,0.6-1.1
										c0.3-0.3,0.6-0.5,1.1-0.6c0.4-0.1,0.8-0.1,1.2,0c0.4,0.1,0.7,0.3,1,0.6C357.8,27.3,358,27.7,358.2,28.2z M357.3,28.5
										c-0.1-0.4-0.2-0.7-0.4-0.9c-0.2-0.2-0.4-0.4-0.6-0.4c-0.2-0.1-0.5-0.1-0.8,0c-0.3,0.1-0.5,0.2-0.6,0.4
										c-0.2,0.2-0.3,0.4-0.3,0.7c0,0.3,0,0.6,0.1,1c0.1,0.4,0.2,0.7,0.4,0.9c0.2,0.2,0.4,0.4,0.6,0.4c0.2,0.1,0.5,0.1,0.7,0
										c0.3-0.1,0.5-0.2,0.6-0.4c0.2-0.2,0.3-0.4,0.3-0.7C357.4,29.2,357.4,28.8,357.3,28.5z M359.2,25.4l1.3,4.8l-0.9,0.2
										l-1.3-4.8L359.2,25.4z"/>
								</g>
							</g>
						</g>
					</g>
				</g>
			</g>
		</g>
	</g>
</g>
<path fill="#E6EFF9" d="M267.4,249.5l196-52.5c4.5-1.2,9.2,1.5,10.4,6l22.7,84.7c1.2,4.5-1.5,9.2-6,10.4l-196,52.5
	c-4.5,1.2-9.2-1.5-10.4-6l-22.7-84.7C260.1,255.4,262.8,250.7,267.4,249.5z"/>
<path fill="#FEB933" d="M459.9,210l2.8,3.1l3.6-0.6c0.4,0,0.7,0.3,0.5,0.7l-2.1,3.6l2.1,3.6c0.2,0.3-0.1,0.8-0.5,0.7l-4-0.9l-3,2.7
	c-0.2,0.2-0.8,0.1-0.8-0.4l0-4.3l-3.7-1.9c-0.3-0.2-0.5-0.6,0.1-0.8l3.4-1.3l0.9-4.1C459.2,209.7,459.6,209.7,459.9,210z"/>
<g>
	<defs>

			<rect id="SVGID_00000086667711670905166740000005354759086212815004_" x="281.7" y="253.8" transform="matrix(0.9659 -0.2588 0.2588 0.9659 -59.5749 86.1177)" width="31.1" height="31.1"/>
	</defs>
	<clipPath id="SVGID_00000151507666020367124930000016345700806037287823_">
		<use xlink:href="#SVGID_00000086667711670905166740000005354759086212815004_"  overflow="visible"/>
	</clipPath>
	<g clip-path="url(#SVGID_00000151507666020367124930000016345700806037287823_)">
		<g>
			<defs>

					<rect id="SVGID_00000005259907861892326630000012751065012549683362_" x="281.7" y="253.8" transform="matrix(0.9659 -0.2588 0.2588 0.9659 -59.5751 86.1164)" width="31.1" height="31.1"/>
			</defs>
			<clipPath id="SVGID_00000019639126303759547090000003568563147653590670_">
				<use xlink:href="#SVGID_00000005259907861892326630000012751065012549683362_"  overflow="visible"/>
			</clipPath>
			<g clip-path="url(#SVGID_00000019639126303759547090000003568563147653590670_)">
				<ellipse fill="#599294" cx="297.3" cy="269.3" rx="15.6" ry="15.6"/>
				<g>
					<defs>

							<rect id="SVGID_00000009574775502052694980000000162235006495768994_" x="281.7" y="253.8" transform="matrix(0.9659 -0.2588 0.2588 0.9659 -59.5751 86.1162)" width="31.1" height="31.1"/>
					</defs>
					<clipPath id="SVGID_00000128446850954796592650000013169780349611433615_">
						<use xlink:href="#SVGID_00000009574775502052694980000000162235006495768994_"  overflow="visible"/>
					</clipPath>
					<g clip-path="url(#SVGID_00000128446850954796592650000013169780349611433615_)">
						<defs>

								<filter id="Adobe_OpacityMaskFilter_00000137840205335283837080000004988040164904128664_" filterUnits="userSpaceOnUse" x="280.3" y="261.3" width="57.9" height="49.6">
								<feColorMatrix  type="matrix" values="1 0 0 0 0  0 1 0 0 0  0 0 1 0 0  0 0 0 1 0"/>
							</filter>
						</defs>

							<mask maskUnits="userSpaceOnUse" x="280.3" y="261.3" width="57.9" height="49.6" id="mask1_2307_42559_00000131366595021905768900000008858625221014867083_">

								<ellipse filter="url(#Adobe_OpacityMaskFilter_00000137840205335283837080000004988040164904128664_)" cx="297.3" cy="269.3" rx="15.6" ry="15.6"/>
						</mask>
						<g mask="url(#mask1_2307_42559_00000131366595021905768900000008858625221014867083_)">

								<rect x="284.6" y="268.6" transform="matrix(0.9659 -0.2588 0.2588 0.9659 -64.1042 88.3836)" fill="#2C7A7D" width="38" height="38"/>

								<rect x="296" y="265.6" transform="matrix(0.9659 -0.2588 0.2588 0.9659 -62.9306 91.2178)" fill="#7EB6B8" width="38" height="38"/>
						</g>
					</g>
				</g>
			</g>
		</g>
	</g>
</g>
<path fill="#212225" d="M321,251.2l1.5-0.4l3.4,4.5l0.1,0l0.7-5.6l1.5-0.4l1.9,7l-1.2,0.3l-1.3-4.8l-0.1,0l-0.6,5.3l-0.9,0.2
	l-3.2-4.3l-0.1,0l1.3,4.8l-1.2,0.3L321,251.2z M332.8,257.6c-0.2,0-0.3,0.1-0.5,0.1c-0.1,0-0.3,0-0.4,0l0-1c0.2,0,0.4,0,0.5-0.1
	c0.1,0,0.3-0.1,0.3-0.2c0.1-0.1,0.1-0.3,0.2-0.5l0-0.3l-3.3-4.8l1.3-0.3l2.3,3.6l0.1,0l0.2-4.3l1.3-0.4l-0.5,6.4
	c0,0.3-0.1,0.6-0.2,0.8c-0.1,0.2-0.3,0.4-0.5,0.6C333.4,257.4,333.1,257.5,332.8,257.6z M340.4,253.5l-2.9-4.8l1.3-0.3l1.9,3.4l0,0
	l0-3.9l1.2-0.3l1.9,3.4l0.1,0l-0.1-3.9l1.3-0.3l-0.1,5.6l-1.3,0.3l-1.9-3.3l-0.1,0l0,3.8L340.4,253.5z M348.9,251.3
	c-0.3,0.1-0.6,0.1-0.9,0.1c-0.3,0-0.5-0.2-0.8-0.4c-0.2-0.2-0.4-0.5-0.5-0.8c-0.1-0.3-0.1-0.6,0-0.8c0.1-0.2,0.2-0.4,0.3-0.6
	c0.2-0.2,0.3-0.3,0.6-0.4c0.2-0.1,0.5-0.2,0.7-0.3c0.3-0.1,0.5-0.2,0.7-0.3c0.2-0.1,0.3-0.2,0.4-0.2c0.1-0.1,0.1-0.2,0.1-0.3l0,0
	c-0.1-0.3-0.2-0.4-0.4-0.5c-0.2-0.1-0.4-0.1-0.7,0c-0.3,0.1-0.5,0.2-0.7,0.4c-0.1,0.2-0.2,0.4-0.2,0.6l-1.2,0.1
	c0-0.3,0.1-0.6,0.2-0.9c0.2-0.3,0.4-0.5,0.6-0.7c0.3-0.2,0.6-0.3,1-0.4c0.3-0.1,0.5-0.1,0.8-0.1c0.3,0,0.5,0,0.8,0.1
	c0.2,0.1,0.5,0.2,0.6,0.4c0.2,0.2,0.3,0.5,0.4,0.8l0.9,3.5l-1.2,0.3l-0.2-0.7l0,0c0,0.2-0.1,0.3-0.2,0.5c-0.1,0.2-0.2,0.3-0.4,0.4
	C349.4,251.2,349.2,251.3,348.9,251.3z M349,250.3c0.2-0.1,0.4-0.2,0.6-0.3c0.2-0.1,0.3-0.3,0.3-0.5c0.1-0.2,0.1-0.4,0-0.6l-0.2-0.6
	c0,0-0.1,0.1-0.2,0.1c-0.1,0.1-0.2,0.1-0.3,0.2c-0.1,0.1-0.2,0.1-0.3,0.1c-0.1,0-0.2,0.1-0.3,0.1c-0.2,0.1-0.3,0.2-0.5,0.3
	c-0.1,0.1-0.2,0.2-0.3,0.3c-0.1,0.1-0.1,0.3,0,0.4c0.1,0.2,0.2,0.4,0.4,0.4C348.5,250.4,348.7,250.4,349,250.3z M352.2,242.9l1.9,7
	l-1.2,0.3l-1.9-7L352.2,242.9z M354.7,242.2l1.9,7l-1.2,0.3l-1.9-7L354.7,242.2z M360.2,248.3c-0.5,0.1-1,0.2-1.4,0
	c-0.4-0.1-0.8-0.4-1.1-0.7c-0.3-0.3-0.5-0.8-0.7-1.3c-0.1-0.5-0.2-1-0.1-1.5c0.1-0.5,0.3-0.9,0.6-1.2c0.3-0.3,0.7-0.6,1.2-0.7
	c0.3-0.1,0.6-0.1,1-0.1c0.3,0,0.6,0.1,0.9,0.3c0.3,0.2,0.5,0.4,0.7,0.7c0.2,0.3,0.4,0.7,0.5,1.1l0.1,0.4l-4.3,1.1l-0.2-0.8l3.1-0.8
	c-0.1-0.2-0.2-0.4-0.3-0.6c-0.1-0.2-0.3-0.3-0.5-0.3c-0.2-0.1-0.4-0.1-0.7,0c-0.3,0.1-0.5,0.2-0.6,0.4c-0.2,0.2-0.3,0.4-0.3,0.6
	c-0.1,0.2,0,0.5,0,0.7l0.2,0.7c0.1,0.3,0.2,0.5,0.4,0.7c0.2,0.2,0.4,0.3,0.6,0.4c0.2,0.1,0.5,0.1,0.7,0c0.2,0,0.3-0.1,0.5-0.2
	c0.1-0.1,0.2-0.2,0.3-0.3c0.1-0.1,0.1-0.3,0.1-0.4l1.2-0.2c0,0.3-0.1,0.6-0.2,0.9c-0.1,0.3-0.4,0.5-0.6,0.7
	C360.9,248,360.6,248.2,360.2,248.3z M364.7,241.4l0.3,1l-3,0.8l-0.3-0.9L364.7,241.4z M362.1,240.7l1.2-0.3l1.3,4.9
	c0,0.2,0.1,0.3,0.2,0.4c0.1,0.1,0.2,0.1,0.3,0.1c0.1,0,0.2,0,0.3,0c0.1,0,0.1,0,0.2-0.1c0.1,0,0.1-0.1,0.1-0.1l0.5,0.9
	c-0.1,0-0.1,0.1-0.3,0.2c-0.1,0.1-0.3,0.1-0.4,0.2c-0.3,0.1-0.6,0.1-0.9,0.1c-0.3,0-0.5-0.1-0.7-0.3c-0.2-0.2-0.3-0.4-0.4-0.8
	L362.1,240.7z M372.1,245l-0.7-7.3l0.9-0.3l0.7,7.3L372.1,245z M368.5,244l-0.1-1l5.3-1.4l0.1,1L368.5,244z M369.7,245.6l-0.7-7.3
	l0.9-0.3l0.7,7.3L369.7,245.6z M368.3,241.5l-0.1-1l5.4-1.4l0.1,1L368.3,241.5z M376.6,236.3l1.9,7l-1.3,0.3l-1.5-5.7l0,0l-1.3,1.5
	l-0.3-1.2l1.4-1.6L376.6,236.3z"/>
<path fill="#A5ADB9" d="M327.6,273.1l-1.2,0.3l0.5-6.5l1.3-0.4l3.7,5.4l-1.2,0.3L328,268l0,0L327.6,273.1z M327,270.8l3.1-0.8
	l0.2,0.9l-3.1,0.8L327,270.8z M335.4,266.7c-0.1-0.1-0.2-0.3-0.3-0.4c-0.1-0.1-0.2-0.2-0.4-0.2c-0.1-0.1-0.3-0.1-0.5-0.1
	c-0.2,0-0.3,0-0.5,0.1c-0.3,0.1-0.6,0.2-0.8,0.5s-0.3,0.5-0.4,0.9c-0.1,0.3,0,0.7,0.1,1.2c0.1,0.5,0.3,0.8,0.5,1.1
	c0.2,0.3,0.5,0.5,0.8,0.6c0.3,0.1,0.6,0.1,0.9,0c0.3-0.1,0.5-0.2,0.7-0.4c0.2-0.2,0.3-0.4,0.4-0.6c0.1-0.2,0.1-0.5,0-0.8l0.3,0
	l-1.6,0.4l-0.2-0.8l2.4-0.6l0.2,0.7c0.1,0.5,0.1,1,0,1.4c-0.1,0.4-0.3,0.8-0.7,1.1c-0.3,0.3-0.7,0.5-1.2,0.7c-0.5,0.1-1.1,0.2-1.5,0
	c-0.5-0.1-0.9-0.4-1.3-0.8c-0.4-0.4-0.6-0.9-0.8-1.5c-0.1-0.5-0.2-0.9-0.1-1.3c0-0.4,0.1-0.8,0.3-1.1c0.2-0.3,0.4-0.6,0.7-0.8
	c0.3-0.2,0.6-0.4,1-0.5c0.3-0.1,0.7-0.1,1-0.1c0.3,0,0.6,0.1,0.9,0.2c0.3,0.1,0.5,0.3,0.7,0.5c0.2,0.2,0.4,0.4,0.5,0.7L335.4,266.7z
	 M336.8,265.3l-0.2-0.9l4.8-1.3l0.2,0.9l-1.8,0.5l1.4,5.1l-1.1,0.3l-1.4-5.1L336.8,265.3z M345.9,268.3c-0.4,0.1-0.8,0.1-1.2,0.1
	c-0.4-0.1-0.7-0.2-0.9-0.4c-0.3-0.2-0.4-0.5-0.5-0.8c-0.1-0.2-0.1-0.5,0-0.7c0.1-0.2,0.2-0.5,0.3-0.6c0.2-0.2,0.3-0.3,0.6-0.4l0,0
	c-0.3,0-0.6-0.1-0.9-0.3c-0.3-0.2-0.4-0.5-0.5-0.8c-0.1-0.3-0.1-0.6,0-0.9c0.1-0.3,0.3-0.5,0.6-0.8c0.3-0.2,0.6-0.4,1-0.5
	c0.4-0.1,0.7-0.1,1.1-0.1c0.3,0.1,0.6,0.2,0.9,0.4c0.2,0.2,0.4,0.4,0.5,0.8c0.1,0.3,0.1,0.6-0.1,0.9c-0.1,0.3-0.3,0.5-0.6,0.7l0,0
	c0.2,0,0.5,0,0.7,0.1c0.2,0.1,0.4,0.2,0.6,0.4c0.2,0.2,0.3,0.4,0.4,0.6c0.1,0.3,0.1,0.6-0.1,0.9c-0.1,0.3-0.3,0.6-0.6,0.8
	C346.7,268,346.3,268.2,345.9,268.3z M345.7,267.5c0.2-0.1,0.4-0.1,0.6-0.3c0.1-0.1,0.2-0.3,0.3-0.4c0.1-0.2,0.1-0.3,0-0.5
	c-0.1-0.2-0.1-0.3-0.3-0.5c-0.1-0.1-0.3-0.2-0.5-0.2c-0.2,0-0.4,0-0.6,0c-0.2,0.1-0.4,0.1-0.5,0.3c-0.1,0.1-0.2,0.3-0.3,0.5
	c-0.1,0.2-0.1,0.4,0,0.5c0,0.2,0.1,0.3,0.3,0.4c0.1,0.1,0.3,0.2,0.5,0.2C345.3,267.6,345.5,267.6,345.7,267.5z M345,264.8
	c0.2,0,0.3-0.1,0.5-0.2c0.1-0.1,0.2-0.2,0.3-0.4c0-0.2,0-0.3,0-0.5c0-0.2-0.1-0.3-0.2-0.4c-0.1-0.1-0.3-0.2-0.4-0.2
	c-0.2,0-0.3,0-0.5,0c-0.2,0.1-0.3,0.1-0.5,0.2c-0.1,0.1-0.2,0.2-0.3,0.4c0,0.1,0,0.3,0,0.5c0,0.2,0.1,0.3,0.2,0.4
	c0.1,0.1,0.3,0.2,0.4,0.2C344.6,264.8,344.8,264.8,345,264.8z M351.4,264.7l-0.7-2.6l1.1-0.3l1.2,4.5l-1,0.3l-0.2-0.8l0,0
	c0,0.3-0.1,0.5-0.3,0.7c-0.2,0.2-0.4,0.4-0.8,0.5c-0.3,0.1-0.6,0.1-0.8,0c-0.3-0.1-0.5-0.2-0.7-0.4c-0.2-0.2-0.3-0.5-0.4-0.9
	l-0.8-2.8l1.1-0.3l0.7,2.7c0.1,0.3,0.2,0.5,0.4,0.6c0.2,0.1,0.4,0.2,0.7,0.1c0.2,0,0.3-0.1,0.4-0.2c0.1-0.1,0.2-0.3,0.3-0.4
	C351.5,265.2,351.5,265,351.4,264.7z M358.1,260.7l-1.1,0.3c-0.1-0.2-0.2-0.3-0.3-0.4c-0.1-0.1-0.3-0.2-0.4-0.3
	c-0.1-0.1-0.3-0.1-0.5-0.1c-0.2,0-0.3,0-0.5,0.1c-0.3,0.1-0.6,0.2-0.8,0.5c-0.2,0.2-0.3,0.5-0.4,0.9c-0.1,0.3,0,0.7,0.1,1.2
	c0.1,0.5,0.3,0.8,0.5,1.1c0.2,0.3,0.5,0.5,0.8,0.5c0.3,0.1,0.6,0.1,0.9,0c0.2,0,0.3-0.1,0.5-0.2c0.1-0.1,0.3-0.2,0.4-0.3
	c0.1-0.1,0.2-0.3,0.2-0.4c0.1-0.2,0.1-0.3,0.1-0.5l1.1-0.3c0,0.3,0,0.6-0.1,0.9c-0.1,0.3-0.2,0.6-0.4,0.8c-0.2,0.2-0.4,0.5-0.6,0.6
	c-0.3,0.2-0.6,0.3-0.9,0.4c-0.5,0.1-1,0.1-1.5,0c-0.5-0.1-0.9-0.4-1.3-0.8c-0.4-0.4-0.6-0.9-0.8-1.6c-0.2-0.6-0.2-1.2-0.1-1.7
	c0.1-0.5,0.3-1,0.7-1.3c0.3-0.4,0.8-0.6,1.3-0.7c0.3-0.1,0.7-0.1,1-0.1c0.3,0,0.6,0.1,0.9,0.2c0.3,0.1,0.5,0.3,0.7,0.5
	C357.8,260.1,358,260.4,358.1,260.7z M363.6,265.3l-0.6-2.4l0,0c0,0.1-0.1,0.3-0.1,0.4c-0.1,0.1-0.2,0.3-0.3,0.4
	c-0.1,0.1-0.3,0.2-0.6,0.3c-0.4,0.1-0.7,0.1-1,0c-0.3-0.1-0.6-0.3-0.9-0.6s-0.4-0.7-0.6-1.2c-0.1-0.5-0.2-0.9-0.1-1.3
	c0.1-0.4,0.2-0.7,0.5-1c0.2-0.3,0.5-0.4,0.9-0.5c0.3-0.1,0.5-0.1,0.7,0c0.2,0,0.4,0.1,0.5,0.2c0.1,0.1,0.2,0.2,0.3,0.3l0.1,0
	l-0.2-0.7l1-0.3l1.6,6.1L363.6,265.3z M361.9,263.1c0.2-0.1,0.4-0.2,0.5-0.3c0.1-0.2,0.2-0.4,0.2-0.6c0-0.2,0-0.5-0.1-0.8
	c-0.1-0.3-0.2-0.5-0.3-0.7c-0.1-0.2-0.3-0.3-0.5-0.4c-0.2-0.1-0.4-0.1-0.6,0c-0.2,0.1-0.4,0.2-0.5,0.3c-0.1,0.2-0.2,0.4-0.2,0.6
	c0,0.2,0,0.5,0.1,0.8c0.1,0.3,0.2,0.5,0.3,0.7c0.1,0.2,0.3,0.3,0.5,0.4C361.4,263.2,361.7,263.2,361.9,263.1z M365.6,260.2l0.7,2.6
	l-1.1,0.3l-1.6-6l1-0.3l0.6,2.2l0.1,0c0-0.3,0.1-0.5,0.3-0.7c0.2-0.2,0.4-0.4,0.8-0.4c0.3-0.1,0.6-0.1,0.9,0
	c0.3,0.1,0.5,0.2,0.7,0.4c0.2,0.2,0.3,0.5,0.4,0.9l0.8,2.8l-1.1,0.3l-0.7-2.7c-0.1-0.3-0.2-0.5-0.4-0.6c-0.2-0.1-0.4-0.2-0.7-0.1
	c-0.2,0.1-0.3,0.1-0.5,0.3c-0.1,0.1-0.2,0.3-0.3,0.4C365.5,259.7,365.6,259.9,365.6,260.2z M370.7,263.4l-1.6-6.1l1-0.3l0.2,0.7
	l0.1,0c0-0.1,0.1-0.3,0.1-0.4c0.1-0.2,0.2-0.3,0.3-0.4c0.1-0.1,0.3-0.2,0.6-0.3c0.3-0.1,0.7-0.1,1,0c0.3,0.1,0.6,0.3,0.9,0.6
	c0.3,0.3,0.5,0.7,0.6,1.2c0.1,0.5,0.2,0.9,0.1,1.3c-0.1,0.4-0.2,0.7-0.4,1c-0.2,0.3-0.5,0.4-0.9,0.5c-0.3,0.1-0.5,0.1-0.7,0
	c-0.2,0-0.4-0.1-0.5-0.2c-0.1-0.1-0.2-0.2-0.3-0.3l0,0l0.6,2.4L370.7,263.4z M370.7,259.2c0.1,0.3,0.2,0.5,0.3,0.7
	c0.1,0.2,0.3,0.3,0.5,0.4c0.2,0.1,0.4,0.1,0.6,0c0.2-0.1,0.4-0.2,0.5-0.3c0.1-0.2,0.2-0.4,0.2-0.6c0-0.2,0-0.5-0.1-0.8
	c-0.1-0.3-0.2-0.5-0.3-0.7c-0.1-0.2-0.3-0.3-0.5-0.4c-0.2-0.1-0.4-0.1-0.6,0c-0.2,0.1-0.4,0.2-0.5,0.3c-0.1,0.2-0.2,0.4-0.2,0.6
	C370.6,258.6,370.6,258.9,370.7,259.2z M376.1,260.2c-0.2,0-0.3,0-0.5-0.1c-0.2-0.1-0.3-0.2-0.3-0.4c0-0.2,0-0.3,0.1-0.5
	c0.1-0.2,0.2-0.3,0.4-0.3c0.2,0,0.3,0,0.5,0.1c0.2,0.1,0.3,0.2,0.3,0.4c0,0.1,0,0.2,0,0.3c0,0.1-0.1,0.2-0.2,0.3
	C376.3,260.1,376.2,260.2,376.1,260.2z M378.5,259.6c-0.2,0-0.3,0-0.5-0.1c-0.2-0.1-0.3-0.2-0.3-0.4c0-0.2,0-0.3,0.1-0.5
	c0.1-0.2,0.2-0.3,0.4-0.3c0.2,0,0.3,0,0.5,0.1c0.2,0.1,0.3,0.2,0.3,0.4c0,0.1,0,0.2,0,0.3c0,0.1-0.1,0.2-0.2,0.3
	C378.7,259.5,378.6,259.6,378.5,259.6z M380.8,259c-0.2,0-0.3,0-0.5-0.1c-0.2-0.1-0.3-0.2-0.3-0.4c0-0.2,0-0.3,0.1-0.5
	c0.1-0.2,0.2-0.3,0.4-0.3c0.2,0,0.3,0,0.5,0.1c0.2,0.1,0.3,0.2,0.3,0.4c0,0.1,0,0.2,0,0.3c0,0.1-0.1,0.2-0.2,0.3
	C381,258.9,380.9,258.9,380.8,259z M380.1,252.7l1.2-0.3l2.2,2.2l0.1,0l0.8-3l1.2-0.3l-1.2,4.3l0.6,2.2l-1.1,0.3l-0.6-2.2
	L380.1,252.7z M390,256.5c-0.4,0.1-0.8,0.1-1.2,0.1c-0.4-0.1-0.7-0.2-0.9-0.4c-0.3-0.2-0.4-0.5-0.5-0.8c-0.1-0.2-0.1-0.5,0-0.7
	c0.1-0.2,0.2-0.5,0.3-0.6c0.2-0.2,0.3-0.3,0.6-0.4l0,0c-0.3,0-0.6-0.1-0.9-0.3c-0.3-0.2-0.4-0.5-0.5-0.8c-0.1-0.3-0.1-0.6,0-0.9
	c0.1-0.3,0.3-0.5,0.6-0.8c0.3-0.2,0.6-0.4,1-0.5c0.4-0.1,0.7-0.1,1.1-0.1c0.3,0.1,0.6,0.2,0.9,0.4c0.2,0.2,0.4,0.4,0.5,0.8
	c0.1,0.3,0.1,0.6-0.1,0.9c-0.1,0.3-0.3,0.5-0.6,0.7l0,0c0.2,0,0.5,0,0.7,0.1c0.2,0.1,0.4,0.2,0.6,0.4c0.2,0.2,0.3,0.4,0.4,0.6
	c0.1,0.3,0.1,0.6-0.1,0.9c-0.1,0.3-0.3,0.6-0.6,0.8C390.8,256.2,390.4,256.4,390,256.5z M389.7,255.7c0.2-0.1,0.4-0.1,0.6-0.3
	c0.1-0.1,0.2-0.3,0.3-0.4c0.1-0.2,0.1-0.3,0-0.5c-0.1-0.2-0.1-0.3-0.3-0.5c-0.1-0.1-0.3-0.2-0.5-0.2c-0.2,0-0.4,0-0.6,0
	c-0.2,0.1-0.4,0.1-0.5,0.3c-0.1,0.1-0.2,0.3-0.3,0.5c-0.1,0.2-0.1,0.4,0,0.5c0,0.2,0.1,0.3,0.3,0.4c0.1,0.1,0.3,0.2,0.5,0.2
	C389.3,255.8,389.5,255.7,389.7,255.7z M389,253c0.2,0,0.3-0.1,0.5-0.2c0.1-0.1,0.2-0.2,0.3-0.4c0-0.2,0-0.3,0-0.5
	c0-0.2-0.1-0.3-0.2-0.4c-0.1-0.1-0.3-0.2-0.4-0.2c-0.2,0-0.3,0-0.5,0c-0.2,0-0.3,0.1-0.5,0.2c-0.1,0.1-0.2,0.2-0.3,0.4
	c0,0.1,0,0.3,0,0.5c0,0.2,0.1,0.3,0.2,0.4c0.1,0.1,0.3,0.2,0.4,0.2C388.7,253,388.8,253,389,253z M393.5,252.7l0.7,2.6l-1.1,0.3
	l-1.2-4.5l1-0.3l0.2,0.8l0.1,0c0-0.3,0.1-0.5,0.3-0.7c0.2-0.2,0.4-0.4,0.8-0.4c0.3-0.1,0.6-0.1,0.9,0c0.3,0.1,0.5,0.2,0.7,0.4
	c0.2,0.2,0.3,0.5,0.4,0.9l0.8,2.8l-1.1,0.3l-0.7-2.7c-0.1-0.3-0.2-0.5-0.4-0.6c-0.2-0.1-0.4-0.2-0.7-0.1c-0.2,0.1-0.3,0.1-0.5,0.3
	c-0.1,0.1-0.2,0.3-0.2,0.4C393.4,252.3,393.4,252.5,393.5,252.7z M399.2,249.2l0.2,0.8l-2.6,0.7l-0.2-0.8L399.2,249.2z M398.4,254.2
	l-1.3-4.9c-0.1-0.3-0.1-0.6,0-0.8c0.1-0.2,0.2-0.4,0.4-0.6c0.2-0.2,0.4-0.3,0.7-0.3c0.2,0,0.3-0.1,0.5-0.1c0.1,0,0.3,0,0.3,0l0,0.9
	c0,0-0.1,0-0.2,0c-0.1,0-0.1,0-0.2,0c-0.2,0.1-0.3,0.1-0.4,0.3c-0.1,0.1-0.1,0.3,0,0.4l1.3,4.8L398.4,254.2z M400,248.9l1.1-0.3
	l1.3,4.7c0.1,0.3,0.1,0.6,0,0.8c-0.1,0.2-0.2,0.4-0.4,0.6c-0.2,0.2-0.5,0.3-0.8,0.4c0,0-0.1,0-0.1,0c0,0-0.1,0-0.1,0l-0.2-0.9
	c0,0,0.1,0,0.1,0c0,0,0,0,0.1,0c0.2-0.1,0.3-0.1,0.4-0.3c0.1-0.1,0.1-0.3,0-0.5L400,248.9z M400.4,248.2c-0.2,0-0.3,0-0.5,0
	c-0.1-0.1-0.2-0.2-0.3-0.4c0-0.2,0-0.3,0.1-0.5c0.1-0.1,0.2-0.2,0.4-0.3c0.2,0,0.3,0,0.5,0.1c0.1,0.1,0.2,0.2,0.3,0.4
	c0,0.2,0,0.3-0.1,0.5C400.7,248,400.5,248.1,400.4,248.2z M401.4,247l1.2-0.3l2.2,2.2l0.1,0l0.8-3l1.2-0.3l-1.2,4.3l0.6,2.2
	l-1.1,0.3l-0.6-2.2L401.4,247z M410.4,251l-3.3-5.5l1.2-0.3l2.2,4.1l0.1,0l0-4.7l1.1-0.3l2.3,4.1l0.1,0l-0.1-4.7l1.2-0.3l-0.1,6.4
	l-1.1,0.3l-2.3-3.9l0,0l-0.1,4.5L410.4,251z M420.3,250.1l-0.6-2.4l0,0c0,0.1-0.1,0.3-0.1,0.4c-0.1,0.1-0.2,0.3-0.3,0.4
	c-0.1,0.1-0.3,0.2-0.6,0.3c-0.4,0.1-0.7,0.1-1,0c-0.3-0.1-0.6-0.3-0.9-0.6c-0.3-0.3-0.4-0.7-0.6-1.2c-0.1-0.5-0.2-0.9-0.1-1.3
	c0.1-0.4,0.2-0.7,0.5-1c0.2-0.3,0.5-0.4,0.9-0.5c0.3-0.1,0.5-0.1,0.7,0c0.2,0,0.4,0.1,0.5,0.2c0.1,0.1,0.2,0.2,0.3,0.3l0.1,0
	l-0.2-0.7l1-0.3l1.6,6.1L420.3,250.1z M418.7,247.9c0.2-0.1,0.4-0.2,0.5-0.3c0.1-0.2,0.2-0.4,0.2-0.6c0-0.2,0-0.5-0.1-0.8
	c-0.1-0.3-0.2-0.5-0.3-0.7c-0.1-0.2-0.3-0.3-0.5-0.4c-0.2-0.1-0.4-0.1-0.6,0c-0.2,0.1-0.4,0.2-0.5,0.3c-0.1,0.2-0.2,0.4-0.2,0.6
	c0,0.2,0,0.5,0.1,0.8c0.1,0.3,0.2,0.5,0.3,0.7c0.1,0.2,0.3,0.3,0.5,0.4C418.2,248,418.4,248,418.7,247.9z M424.2,247.4
	c-0.4,0.1-0.8,0.1-1.2,0.1c-0.4-0.1-0.7-0.2-0.9-0.4c-0.3-0.2-0.4-0.5-0.5-0.8c-0.1-0.2-0.1-0.5,0-0.7c0.1-0.2,0.2-0.5,0.3-0.6
	c0.2-0.2,0.3-0.3,0.6-0.4l0,0c-0.3,0-0.6-0.1-0.9-0.3c-0.3-0.2-0.4-0.5-0.5-0.8c-0.1-0.3-0.1-0.6,0-0.9c0.1-0.3,0.3-0.5,0.6-0.8
	c0.3-0.2,0.6-0.4,1-0.5c0.4-0.1,0.7-0.1,1.1-0.1c0.3,0.1,0.6,0.2,0.9,0.4c0.2,0.2,0.4,0.4,0.5,0.8c0.1,0.3,0.1,0.6-0.1,0.9
	c-0.1,0.3-0.3,0.5-0.6,0.7l0,0c0.2,0,0.5,0,0.7,0.1c0.2,0.1,0.4,0.2,0.6,0.4c0.2,0.2,0.3,0.4,0.4,0.6c0.1,0.3,0.1,0.6-0.1,0.9
	c-0.1,0.3-0.3,0.6-0.6,0.8C425,247.1,424.6,247.2,424.2,247.4z M423.9,246.5c0.2-0.1,0.4-0.1,0.6-0.3c0.1-0.1,0.2-0.3,0.3-0.4
	c0.1-0.2,0.1-0.3,0-0.5c-0.1-0.2-0.1-0.3-0.3-0.5c-0.1-0.1-0.3-0.2-0.5-0.2c-0.2,0-0.4,0-0.6,0c-0.2,0.1-0.4,0.1-0.5,0.3
	c-0.1,0.1-0.2,0.3-0.3,0.5c-0.1,0.2-0.1,0.4,0,0.5c0,0.2,0.1,0.3,0.3,0.4c0.1,0.1,0.3,0.2,0.5,0.2
	C423.5,246.6,423.7,246.6,423.9,246.5z M423.2,243.8c0.2,0,0.3-0.1,0.5-0.2c0.1-0.1,0.2-0.2,0.3-0.4c0-0.2,0-0.3,0-0.5
	c0-0.2-0.1-0.3-0.2-0.4c-0.1-0.1-0.3-0.2-0.4-0.2c-0.2,0-0.3,0-0.5,0c-0.2,0.1-0.3,0.1-0.5,0.2c-0.1,0.1-0.2,0.2-0.3,0.4
	c0,0.1,0,0.3,0,0.5c0,0.2,0.1,0.3,0.2,0.4c0.1,0.1,0.3,0.2,0.4,0.2C422.9,243.9,423,243.9,423.2,243.8z"/>
<path fill="#4381C0" d="M286.7,300l185-49.6c4.5-1.2,9.2,1.5,10.4,6l7.3,27.3c1.2,4.5-1.5,9.2-6,10.4l-185,49.6
	c-4.5,1.2-9.2-1.5-10.4-6l-7.3-27.3C279.5,305.8,282.2,301.2,286.7,300z"/>
<path fill="#235B95" d="M449.9,256.2l21.9-5.9c4.5-1.2,9.2,1.5,10.4,6l7.3,27.3c1.2,4.5-1.5,9.2-6,10.4l-21.8,5.9L449.9,256.2z"/>
<g>
	<defs>

			<rect id="SVGID_00000072281115272566472420000001334888401590764941_" x="463.8" y="267" transform="matrix(0.9659 -0.2588 0.2588 0.9659 -54.8868 131.2023)" width="14.1" height="14.1"/>
	</defs>
	<clipPath id="SVGID_00000118358205118427203680000002903991517388249485_">
		<use xlink:href="#SVGID_00000072281115272566472420000001334888401590764941_"  overflow="visible"/>
	</clipPath>
	<g clip-path="url(#SVGID_00000118358205118427203680000002903991517388249485_)">
		<path fill="none" stroke="#FFFFFF" stroke-width="1.4138" stroke-linecap="round" stroke-linejoin="round" d="M464.3,274.1
			l6.1-1.6l-0.7-2.7c-0.1-0.3,0.1-0.3,0.3-0.2c1.7,0.6,5.9,2.1,6.6,2.3c0.4,0.1,0.5,0.7,0.3,1c-0.4,0.6-3.3,4-4.5,5.3
			c-0.2,0.2-0.3,0.2-0.4,0l-0.7-2.5l-6.1,1.6"/>
	</g>
</g>
<path fill="#FFFFFF" d="M295.1,316.8l1.4-6.6l0,0l-3.4,0.9l-0.3-1.1l4.7-1.3l0.3,1.1l-1.4,6.7L295.1,316.8z M302.9,314.9
	c-0.6,0.1-1.1,0.1-1.6,0c-0.5-0.2-0.9-0.5-1.2-1c-0.4-0.5-0.6-1.1-0.8-1.9c-0.2-0.8-0.3-1.4-0.2-2c0.1-0.6,0.3-1.1,0.6-1.5
	c0.3-0.4,0.8-0.7,1.3-0.8c0.6-0.1,1.1-0.1,1.5,0c0.5,0.2,0.9,0.5,1.2,1c0.4,0.5,0.6,1.1,0.8,1.8c0.2,0.8,0.3,1.4,0.2,2
	c-0.1,0.6-0.3,1.1-0.6,1.5C303.9,314.5,303.5,314.7,302.9,314.9z M302.6,313.8c0.4-0.1,0.7-0.4,0.9-0.9c0.1-0.5,0.1-1.2-0.1-2
	c-0.1-0.6-0.3-1-0.5-1.3c-0.2-0.3-0.5-0.6-0.7-0.7c-0.3-0.1-0.5-0.2-0.8-0.1c-0.4,0.1-0.7,0.4-0.9,0.9c-0.1,0.5-0.1,1.2,0.1,2
	c0.1,0.6,0.3,1,0.5,1.4c0.2,0.3,0.5,0.6,0.7,0.7C302,313.9,302.3,313.9,302.6,313.8z M309.3,313.2c-0.6,0.1-1.1,0.1-1.6,0
	c-0.5-0.2-0.9-0.5-1.3-1c-0.4-0.5-0.6-1.1-0.8-1.9c-0.2-0.8-0.3-1.4-0.2-2c0.1-0.6,0.3-1.1,0.6-1.5c0.3-0.4,0.8-0.7,1.3-0.8
	c0.6-0.1,1.1-0.1,1.5,0c0.5,0.2,0.9,0.5,1.2,1c0.4,0.5,0.6,1.1,0.8,1.8c0.2,0.8,0.3,1.4,0.2,2c-0.1,0.6-0.3,1.1-0.6,1.5
	C310.3,312.8,309.8,313,309.3,313.2z M309,312.1c0.4-0.1,0.7-0.4,0.9-0.9c0.1-0.5,0.1-1.2-0.1-2c-0.1-0.6-0.3-1-0.5-1.3
	c-0.2-0.3-0.5-0.6-0.7-0.7c-0.3-0.1-0.5-0.2-0.8-0.1c-0.4,0.1-0.7,0.4-0.9,0.9c-0.1,0.5-0.1,1.2,0.1,2c0.1,0.6,0.3,1,0.5,1.4
	c0.2,0.3,0.5,0.6,0.7,0.7C308.4,312.2,308.7,312.2,309,312.1z M313.6,312c-0.2,0.1-0.4,0-0.6-0.1c-0.2-0.1-0.3-0.3-0.4-0.5
	c-0.1-0.2,0-0.4,0.1-0.6c0.1-0.2,0.3-0.3,0.5-0.4c0.2-0.1,0.4,0,0.6,0.1c0.2,0.1,0.3,0.3,0.4,0.5c0,0.1,0,0.3,0,0.4
	c0,0.1-0.1,0.2-0.2,0.3C313.8,311.9,313.7,311.9,313.6,312z M316,303.7c0.3-0.1,0.7-0.1,1-0.1c0.3,0,0.7,0.1,1,0.3
	c0.3,0.2,0.6,0.5,0.9,0.9c0.3,0.4,0.5,0.9,0.7,1.5c0.2,0.6,0.2,1.1,0.2,1.7c0,0.5-0.1,0.9-0.2,1.3c-0.2,0.4-0.4,0.7-0.7,1
	c-0.3,0.3-0.6,0.4-1.1,0.6c-0.4,0.1-0.9,0.1-1.2,0.1c-0.4-0.1-0.7-0.2-1-0.5c-0.3-0.2-0.5-0.5-0.7-0.9l1.2-0.3
	c0.1,0.3,0.3,0.4,0.6,0.6c0.2,0.1,0.5,0.1,0.8,0c0.5-0.1,0.8-0.4,0.9-0.9c0.1-0.5,0.1-1.1-0.1-1.8l0,0c-0.1,0.2-0.2,0.4-0.3,0.6
	c-0.1,0.2-0.3,0.4-0.5,0.5c-0.2,0.1-0.4,0.2-0.7,0.3c-0.4,0.1-0.8,0.1-1.2,0c-0.4-0.1-0.7-0.3-1-0.6c-0.3-0.3-0.5-0.7-0.6-1.1
	c-0.1-0.5-0.1-0.9,0-1.3c0.1-0.4,0.3-0.8,0.6-1.1C315.1,304,315.5,303.8,316,303.7z M316.2,304.7c-0.2,0.1-0.4,0.2-0.6,0.4
	c-0.2,0.2-0.3,0.4-0.3,0.6c-0.1,0.2-0.1,0.5,0,0.7c0.1,0.2,0.2,0.5,0.3,0.6c0.2,0.2,0.4,0.3,0.6,0.4c0.2,0.1,0.5,0.1,0.7,0
	c0.2,0,0.3-0.1,0.5-0.2c0.1-0.1,0.3-0.2,0.3-0.4c0.1-0.2,0.1-0.3,0.2-0.5c0-0.2,0-0.4,0-0.5c-0.1-0.2-0.2-0.4-0.3-0.6
	c-0.2-0.2-0.4-0.3-0.6-0.4C316.7,304.6,316.5,304.6,316.2,304.7z M324.2,309.2c-0.6,0.1-1.1,0.1-1.6,0c-0.5-0.2-0.9-0.5-1.2-1
	c-0.4-0.5-0.6-1.1-0.8-1.9c-0.2-0.8-0.3-1.4-0.2-2c0.1-0.6,0.3-1.1,0.6-1.5c0.3-0.4,0.8-0.7,1.3-0.8c0.6-0.1,1.1-0.1,1.5,0
	c0.5,0.2,0.9,0.5,1.2,1c0.4,0.5,0.6,1.1,0.8,1.8c0.2,0.8,0.3,1.4,0.2,2c-0.1,0.6-0.3,1.1-0.6,1.5C325.2,308.8,324.8,309,324.2,309.2
	z M324,308.1c0.4-0.1,0.7-0.4,0.9-0.9c0.1-0.5,0.1-1.2-0.1-2c-0.1-0.6-0.3-1-0.5-1.3c-0.2-0.3-0.5-0.6-0.7-0.7
	c-0.3-0.1-0.5-0.2-0.8-0.1c-0.4,0.1-0.7,0.4-0.9,0.9c-0.1,0.5-0.1,1.2,0.1,2c0.1,0.6,0.3,1,0.5,1.4c0.2,0.3,0.5,0.6,0.7,0.7
	C323.4,308.2,323.7,308.2,324,308.1z M330.5,307.4c-0.5,0.1-0.9,0.2-1.4,0.1c-0.4-0.1-0.8-0.2-1.1-0.5c-0.3-0.2-0.5-0.6-0.6-0.9
	l1.3-0.3c0.1,0.2,0.2,0.3,0.3,0.4c0.1,0.1,0.3,0.2,0.5,0.2c0.2,0,0.4,0,0.7-0.1c0.2-0.1,0.5-0.2,0.6-0.3c0.2-0.1,0.3-0.3,0.4-0.5
	c0.1-0.2,0.1-0.4,0-0.6c-0.1-0.2-0.2-0.4-0.3-0.5c-0.2-0.1-0.3-0.2-0.6-0.2c-0.2,0-0.5,0-0.8,0.1l-0.6,0.2l-0.3-1l0.6-0.2
	c0.2-0.1,0.4-0.2,0.6-0.3c0.2-0.1,0.3-0.3,0.3-0.5c0.1-0.2,0.1-0.4,0-0.6c-0.1-0.2-0.1-0.4-0.3-0.5c-0.1-0.1-0.3-0.2-0.5-0.2
	c-0.2,0-0.4,0-0.6,0c-0.2,0.1-0.4,0.1-0.6,0.3c-0.2,0.1-0.3,0.3-0.3,0.4c-0.1,0.2-0.1,0.4,0,0.5l-1.2,0.3c-0.1-0.4-0.1-0.8,0.1-1.1
	c0.1-0.4,0.4-0.7,0.7-0.9c0.3-0.3,0.7-0.5,1.2-0.6c0.5-0.1,0.9-0.1,1.3-0.1c0.4,0.1,0.7,0.2,1,0.5c0.3,0.2,0.4,0.5,0.5,0.9
	c0.1,0.4,0.1,0.8-0.1,1.1c-0.2,0.3-0.4,0.6-0.8,0.8l0,0.1c0.5-0.1,0.9,0,1.3,0.2c0.3,0.2,0.6,0.5,0.7,1c0.1,0.4,0.1,0.8-0.1,1.1
	c-0.1,0.4-0.4,0.7-0.7,1C331.5,307.1,331,307.3,330.5,307.4z M334.2,306.4l-0.2-0.9l1.8-3c0.2-0.3,0.3-0.6,0.4-0.8
	c0.1-0.2,0.2-0.4,0.2-0.6c0-0.2,0-0.4,0-0.6c-0.1-0.2-0.2-0.4-0.3-0.5c-0.1-0.1-0.3-0.2-0.5-0.3c-0.2,0-0.4,0-0.6,0
	c-0.2,0.1-0.4,0.2-0.6,0.3c-0.1,0.1-0.2,0.3-0.3,0.5c0,0.2,0,0.4,0,0.7l-1.2,0.3c-0.1-0.4-0.1-0.9,0-1.2c0.1-0.4,0.3-0.7,0.6-1
	c0.3-0.3,0.7-0.5,1.1-0.6c0.5-0.1,0.9-0.1,1.3-0.1c0.4,0.1,0.7,0.2,1,0.5c0.3,0.3,0.5,0.6,0.6,1c0.1,0.3,0.1,0.5,0.1,0.8
	c0,0.3-0.1,0.6-0.3,1c-0.2,0.4-0.4,0.8-0.8,1.4l-0.9,1.5l0,0l3-0.8l0.3,1.1L334.2,306.4z M342.7,304.2c-0.5,0.1-0.9,0.2-1.4,0.1
	c-0.4-0.1-0.8-0.2-1.1-0.5c-0.3-0.2-0.5-0.6-0.6-0.9l1.3-0.3c0.1,0.2,0.2,0.3,0.3,0.4c0.1,0.1,0.3,0.2,0.5,0.2c0.2,0,0.4,0,0.7-0.1
	c0.2-0.1,0.5-0.2,0.6-0.3c0.2-0.1,0.3-0.3,0.4-0.5c0.1-0.2,0.1-0.4,0-0.6c-0.1-0.2-0.2-0.4-0.3-0.5c-0.2-0.1-0.3-0.2-0.6-0.2
	c-0.2,0-0.5,0-0.8,0.1l-0.6,0.2l-0.3-1l0.6-0.2c0.2-0.1,0.4-0.2,0.6-0.3c0.2-0.1,0.3-0.3,0.3-0.5c0.1-0.2,0.1-0.4,0-0.6
	c0-0.2-0.1-0.4-0.3-0.5c-0.1-0.1-0.3-0.2-0.5-0.2c-0.2,0-0.4,0-0.6,0c-0.2,0.1-0.4,0.1-0.6,0.3c-0.2,0.1-0.3,0.3-0.3,0.4
	c-0.1,0.2-0.1,0.4,0,0.6l-1.2,0.3c-0.1-0.4-0.1-0.8,0.1-1.1c0.1-0.4,0.4-0.7,0.7-0.9c0.3-0.3,0.7-0.5,1.2-0.6
	c0.5-0.1,0.9-0.1,1.3-0.1c0.4,0.1,0.7,0.2,1,0.5c0.3,0.2,0.4,0.5,0.5,0.9c0.1,0.4,0.1,0.8-0.1,1.1c-0.2,0.3-0.4,0.6-0.8,0.8l0,0.1
	c0.5-0.1,0.9,0,1.3,0.2c0.3,0.2,0.6,0.5,0.7,1c0.1,0.4,0.1,0.8-0.1,1.1c-0.1,0.4-0.4,0.7-0.7,1C343.6,303.8,343.2,304.1,342.7,304.2
	z M349,302.5c-0.6,0.1-1.1,0.1-1.6,0c-0.5-0.2-0.9-0.5-1.2-1c-0.4-0.5-0.6-1.1-0.8-1.9c-0.2-0.8-0.3-1.4-0.2-2
	c0.1-0.6,0.3-1.1,0.6-1.5c0.3-0.4,0.8-0.7,1.3-0.8c0.6-0.1,1.1-0.1,1.5,0c0.5,0.2,0.9,0.5,1.2,1c0.4,0.5,0.6,1.1,0.8,1.8
	c0.2,0.8,0.3,1.4,0.2,2c-0.1,0.6-0.3,1.1-0.6,1.5C350,302.1,349.6,302.4,349,302.5z M348.7,301.5c0.4-0.1,0.7-0.4,0.9-0.9
	c0.1-0.5,0.1-1.2-0.1-2c-0.1-0.6-0.3-1-0.5-1.3c-0.2-0.3-0.5-0.6-0.7-0.7c-0.3-0.1-0.5-0.2-0.8-0.1c-0.4,0.1-0.7,0.4-0.9,0.9
	c-0.1,0.5-0.1,1.2,0.1,2c0.1,0.6,0.3,1,0.5,1.4c0.2,0.3,0.5,0.6,0.7,0.7C348.2,301.5,348.4,301.6,348.7,301.5z M356.1,300.5
	l-1.3,0.4l0.6-7.6l1.6-0.4l4.3,6.3l-1.3,0.4l-3.3-5l-0.1,0L356.1,300.5z M355.4,297.8l3.7-1l0.3,1l-3.7,1L355.4,297.8z M362.1,298.9
	l-1.9-7l2.6-0.7c0.5-0.1,1-0.2,1.4-0.1c0.4,0.1,0.8,0.3,1,0.6c0.3,0.3,0.5,0.6,0.6,1.1c0.1,0.4,0.1,0.9,0,1.2
	c-0.1,0.4-0.3,0.7-0.6,1c-0.3,0.3-0.7,0.5-1.3,0.6l-1.9,0.5l-0.3-1l1.7-0.5c0.3-0.1,0.6-0.2,0.7-0.3c0.2-0.1,0.3-0.3,0.3-0.5
	c0.1-0.2,0-0.4,0-0.7c-0.1-0.2-0.2-0.4-0.3-0.6c-0.1-0.1-0.3-0.2-0.6-0.3c-0.2,0-0.5,0-0.8,0.1l-1.2,0.3l1.6,5.9L362.1,298.9z
	 M364.9,294.8l2.6,2.7l-1.4,0.4l-2.5-2.7L364.9,294.8z M368.4,297.2l-1.9-7l1.3-0.3l0.9,3.2l0.1,0l1.9-3.9l1.5-0.4l-1.9,3.8l3.7,3.1
	l-1.5,0.4l-2.9-2.4l-0.5,1.1l0.6,2.1L368.4,297.2z"/>
<path fill="#212225" d="M300.9,331.6c-0.4,0.1-0.8,0.1-1.1,0.1c-0.3-0.1-0.6-0.2-0.9-0.4c-0.2-0.2-0.4-0.5-0.5-0.8l1-0.3
	c0.1,0.2,0.2,0.4,0.5,0.5c0.2,0.1,0.5,0.1,0.8,0c0.2-0.1,0.4-0.2,0.5-0.3c0.1-0.1,0.2-0.3,0.3-0.5c0-0.2,0-0.4,0-0.6
	c-0.1-0.2-0.2-0.4-0.3-0.6c-0.1-0.1-0.3-0.2-0.5-0.3c-0.2-0.1-0.4-0.1-0.6,0c-0.2,0-0.3,0.1-0.5,0.2c-0.2,0.1-0.3,0.2-0.3,0.4
	l-1,0.1l-0.5-3.2l3.5-0.9l0.2,0.9l-2.6,0.7l0.3,1.6l0,0c0.1-0.2,0.2-0.3,0.4-0.4c0.2-0.1,0.4-0.2,0.6-0.3c0.4-0.1,0.7-0.1,1,0
	c0.3,0.1,0.6,0.3,0.9,0.5c0.2,0.3,0.4,0.6,0.5,1c0.1,0.4,0.1,0.8,0,1.1c-0.1,0.4-0.3,0.7-0.6,0.9
	C301.7,331.3,301.3,331.5,300.9,331.6z M304.8,329.6l0,0.3c0,0.3,0.1,0.5,0.1,0.8c0,0.3,0,0.5,0,0.8c0,0.2,0,0.4,0,0.6l-0.7,0.2
	c0-0.1,0-0.3,0-0.5c0-0.2,0-0.5,0-0.7c0-0.3-0.1-0.5-0.1-0.8l-0.1-0.3L304.8,329.6z M306.6,323.5c0.3-0.1,0.6-0.1,0.9-0.1
	c0.3,0,0.6,0.1,0.9,0.3c0.3,0.2,0.5,0.4,0.8,0.7c0.2,0.3,0.4,0.8,0.6,1.3c0.1,0.5,0.2,1,0.2,1.4c0,0.4-0.1,0.8-0.2,1.1
	s-0.3,0.6-0.6,0.8c-0.2,0.2-0.6,0.4-0.9,0.5c-0.4,0.1-0.7,0.1-1.1,0c-0.3-0.1-0.6-0.2-0.9-0.4c-0.2-0.2-0.4-0.5-0.6-0.8l1.1-0.3
	c0.1,0.2,0.3,0.4,0.5,0.5c0.2,0.1,0.4,0.1,0.7,0c0.4-0.1,0.7-0.4,0.8-0.8c0.1-0.4,0.1-0.9-0.1-1.6l0,0c0,0.2-0.1,0.4-0.3,0.5
	c-0.1,0.2-0.3,0.3-0.4,0.4c-0.2,0.1-0.4,0.2-0.6,0.3c-0.3,0.1-0.7,0.1-1,0c-0.3-0.1-0.6-0.3-0.8-0.5c-0.2-0.2-0.4-0.6-0.5-0.9
	c-0.1-0.4-0.1-0.8,0-1.1c0.1-0.4,0.3-0.7,0.6-0.9C305.8,323.8,306.1,323.6,306.6,323.5z M306.8,324.4c-0.2,0.1-0.4,0.2-0.5,0.3
	c-0.1,0.1-0.2,0.3-0.3,0.5c0,0.2,0,0.4,0,0.6c0.1,0.2,0.2,0.4,0.3,0.5c0.1,0.1,0.3,0.2,0.5,0.3c0.2,0.1,0.4,0.1,0.6,0
	c0.2,0,0.3-0.1,0.4-0.2c0.1-0.1,0.2-0.2,0.3-0.3c0.1-0.1,0.1-0.3,0.1-0.4c0-0.2,0-0.3,0-0.5c-0.1-0.2-0.2-0.4-0.3-0.5
	c-0.1-0.1-0.3-0.3-0.5-0.3C307.2,324.3,307,324.3,306.8,324.4z M313.7,328.2c-0.5,0.1-0.9,0.1-1.3,0c-0.4-0.2-0.8-0.4-1.1-0.8
	c-0.3-0.4-0.5-0.9-0.7-1.6c-0.2-0.7-0.2-1.2-0.2-1.7c0.1-0.5,0.2-0.9,0.5-1.3c0.3-0.3,0.7-0.6,1.1-0.7s0.9-0.1,1.3,0
	c0.4,0.1,0.8,0.4,1.1,0.8c0.3,0.4,0.5,0.9,0.7,1.6c0.2,0.7,0.2,1.2,0.2,1.7c-0.1,0.5-0.2,0.9-0.5,1.3
	C314.5,327.9,314.1,328.1,313.7,328.2z M313.4,327.3c0.4-0.1,0.6-0.4,0.7-0.8c0.1-0.4,0.1-1-0.1-1.7c-0.1-0.5-0.3-0.9-0.5-1.2
	c-0.2-0.3-0.4-0.5-0.6-0.6c-0.2-0.1-0.5-0.1-0.7-0.1c-0.4,0.1-0.6,0.4-0.7,0.8c-0.1,0.4-0.1,1,0.1,1.7c0.1,0.5,0.3,0.9,0.5,1.2
	c0.2,0.3,0.4,0.5,0.6,0.6C312.9,327.3,313.2,327.4,313.4,327.3z M317.7,320.6l1.6,6l-1.1,0.3l-1.3-4.9l0,0l-1.2,1.3l-0.3-1l1.2-1.3
	L317.7,320.6z M321.2,326.1c-0.2,0-0.3,0-0.5-0.1s-0.3-0.2-0.3-0.4c0-0.2,0-0.3,0.1-0.5s0.2-0.3,0.4-0.3c0.2,0,0.3,0,0.5,0.1
	c0.2,0.1,0.3,0.2,0.3,0.4c0,0.1,0,0.2,0,0.3c0,0.1-0.1,0.2-0.2,0.3C321.4,326.1,321.3,326.1,321.2,326.1z M323.2,319.1
	c0.3-0.1,0.6-0.1,0.9-0.1c0.3,0,0.6,0.1,0.9,0.3c0.3,0.2,0.5,0.4,0.8,0.7c0.2,0.3,0.4,0.8,0.6,1.3c0.1,0.5,0.2,1,0.2,1.4
	c0,0.4-0.1,0.8-0.2,1.1c-0.1,0.3-0.3,0.6-0.6,0.8c-0.2,0.2-0.6,0.4-0.9,0.5c-0.4,0.1-0.7,0.1-1.1,0c-0.3-0.1-0.6-0.2-0.9-0.4
	c-0.2-0.2-0.4-0.5-0.6-0.8l1.1-0.3c0.1,0.2,0.3,0.4,0.5,0.5c0.2,0.1,0.4,0.1,0.7,0c0.4-0.1,0.7-0.4,0.8-0.8c0.1-0.4,0.1-0.9-0.1-1.6
	l0,0c0,0.2-0.1,0.4-0.3,0.5c-0.1,0.2-0.3,0.3-0.4,0.4c-0.2,0.1-0.4,0.2-0.6,0.3c-0.3,0.1-0.7,0.1-1,0c-0.3-0.1-0.6-0.3-0.8-0.5
	c-0.2-0.2-0.4-0.6-0.5-0.9c-0.1-0.4-0.1-0.8,0-1.1c0.1-0.4,0.3-0.7,0.6-0.9C322.5,319.4,322.8,319.2,323.2,319.1z M323.5,319.9
	c-0.2,0.1-0.4,0.2-0.5,0.3c-0.1,0.1-0.2,0.3-0.3,0.5c0,0.2,0,0.4,0,0.6c0.1,0.2,0.2,0.4,0.3,0.5c0.1,0.1,0.3,0.2,0.5,0.3
	c0.2,0.1,0.4,0.1,0.6,0c0.2,0,0.3-0.1,0.4-0.2c0.1-0.1,0.2-0.2,0.3-0.3c0.1-0.1,0.1-0.3,0.1-0.4c0-0.2,0-0.3,0-0.5
	c-0.1-0.2-0.2-0.4-0.3-0.5c-0.1-0.1-0.3-0.2-0.5-0.3C323.9,319.9,323.7,319.9,323.5,319.9z M330.2,323.8c-0.4,0.1-0.8,0.1-1.1,0.1
	c-0.3-0.1-0.6-0.2-0.9-0.4c-0.2-0.2-0.4-0.5-0.5-0.8l1-0.3c0.1,0.2,0.2,0.4,0.5,0.5c0.2,0.1,0.5,0.1,0.8,0c0.2-0.1,0.4-0.2,0.5-0.3
	c0.1-0.1,0.2-0.3,0.3-0.5c0-0.2,0-0.4,0-0.6c-0.1-0.2-0.2-0.4-0.3-0.6c-0.1-0.1-0.3-0.2-0.5-0.3c-0.2-0.1-0.4-0.1-0.6,0
	c-0.2,0-0.3,0.1-0.5,0.2c-0.2,0.1-0.3,0.2-0.3,0.4l-1,0.1l-0.5-3.2l3.5-0.9l0.2,0.9l-2.6,0.7l0.3,1.6l0,0c0.1-0.2,0.2-0.3,0.4-0.4
	c0.2-0.1,0.4-0.2,0.6-0.3c0.4-0.1,0.7-0.1,1,0c0.3,0.1,0.6,0.3,0.9,0.5c0.2,0.3,0.4,0.6,0.5,1c0.1,0.4,0.1,0.8,0,1.1
	c-0.1,0.4-0.3,0.7-0.6,0.9C331,323.5,330.6,323.6,330.2,323.8z M337.5,315.3l1.1-0.3l1,3.9c0.1,0.4,0.1,0.8,0,1.2
	c-0.1,0.4-0.3,0.7-0.6,1c-0.3,0.3-0.7,0.5-1.2,0.6c-0.5,0.1-0.9,0.2-1.3,0.1c-0.4-0.1-0.8-0.3-1-0.5c-0.3-0.3-0.5-0.6-0.6-1l-1-3.9
	l1.1-0.3l1,3.8c0.1,0.2,0.2,0.5,0.3,0.6c0.2,0.2,0.4,0.3,0.6,0.3c0.2,0.1,0.5,0,0.8,0c0.3-0.1,0.5-0.2,0.7-0.4
	c0.2-0.2,0.3-0.4,0.3-0.6c0.1-0.2,0.1-0.5,0-0.7L337.5,315.3z M343.5,315.5c-0.1-0.2-0.3-0.4-0.5-0.5c-0.2-0.1-0.5-0.1-0.8,0
	c-0.2,0.1-0.4,0.1-0.6,0.3c-0.1,0.1-0.2,0.2-0.3,0.4c-0.1,0.1-0.1,0.3,0,0.4c0,0.1,0.1,0.2,0.2,0.3c0.1,0.1,0.2,0.1,0.3,0.2
	c0.1,0,0.2,0.1,0.4,0.1c0.1,0,0.3,0,0.4,0l0.6,0c0.2,0,0.5,0,0.7,0c0.2,0,0.4,0.1,0.7,0.2c0.2,0.1,0.4,0.2,0.5,0.4
	c0.1,0.2,0.3,0.4,0.3,0.6c0.1,0.3,0.1,0.7,0,1c-0.1,0.3-0.3,0.6-0.6,0.8c-0.3,0.2-0.7,0.4-1.2,0.5c-0.5,0.1-0.9,0.2-1.3,0.1
	c-0.4-0.1-0.7-0.2-1-0.4c-0.3-0.2-0.5-0.5-0.6-0.9l1.1-0.3c0.1,0.2,0.2,0.4,0.3,0.5c0.1,0.1,0.3,0.2,0.5,0.2c0.2,0,0.4,0,0.6-0.1
	c0.2-0.1,0.4-0.2,0.6-0.3c0.2-0.1,0.3-0.3,0.3-0.4c0.1-0.2,0.1-0.3,0-0.5c0-0.2-0.1-0.3-0.2-0.3c-0.1-0.1-0.3-0.1-0.4-0.2
	c-0.2,0-0.4,0-0.6,0l-0.7,0c-0.5,0-1-0.1-1.3-0.3c-0.4-0.2-0.6-0.5-0.7-0.9c-0.1-0.4-0.1-0.7,0-1c0.1-0.3,0.3-0.6,0.6-0.8
	c0.3-0.2,0.6-0.4,1.1-0.5c0.4-0.1,0.8-0.1,1.2-0.1c0.4,0.1,0.7,0.2,0.9,0.4c0.3,0.2,0.4,0.5,0.5,0.8L343.5,315.5z M348.7,318.7
	l-2,0.5l-1.6-6l2.1-0.6c0.6-0.2,1.1-0.2,1.6-0.1c0.5,0.1,0.9,0.4,1.3,0.8s0.6,0.9,0.8,1.5c0.2,0.6,0.2,1.2,0.1,1.7
	c-0.1,0.5-0.3,0.9-0.7,1.3C349.8,318.3,349.3,318.5,348.7,318.7z M347.5,318l0.9-0.2c0.4-0.1,0.7-0.3,1-0.5c0.2-0.2,0.4-0.5,0.4-0.9
	c0.1-0.3,0-0.7-0.1-1.2c-0.1-0.5-0.3-0.8-0.5-1.1c-0.2-0.3-0.5-0.4-0.8-0.5c-0.3-0.1-0.7-0.1-1.1,0l-0.9,0.2L347.5,318z"/>
</svg>
