<svg xmlns="http://www.w3.org/2000/svg" xmlns:xlink="http://www.w3.org/1999/xlink" viewBox="0 0 540 352" enable-background="new 0 0 540 352" xml:space="preserve"><path fill="#F7FAFB" d="M32.4 47c0-11 9-20 20-20h445c11 0 20 9 20 20v264c0 11-9 20-20 20h-445c-11 0-20-9-20-20V47z"/><path fill="none" stroke="#DBDEE5" stroke-width="2" stroke-linecap="round" d="M182.1 320.6 119.2 85.9c-2.7-10.2 3.3-20.6 13.5-23.3l35-9.4m31.3-8.4 126.4-33.9M177.3 50.6l9.2-2.5M405 33l16.9 63.1"/><path fill="#DBDEE5" d="M121.4 48h-2v7h-7v2h7v7h2v-7h7v-2h-7v-7zm-22 0h-2v7h-7v2h7v7h2v-7h7v-2h-7v-7zm-23.7 58.9h2v-7h7v-2h-7v-7h-2v7h-7v2h7v7zm22-22h2v-7h7v-2h-7v-7h-2v7h-7v2h7v7zm0 22h2v-7h7v-2h-7v-7h-2v7h-7v2h7v7zm0 22h2v-7h7v-2h-7v-7h-2v7h-7v2h7v7z"/><path fill="none" stroke="#235B95" stroke-width="2" stroke-linecap="round" d="m118.6 105.6 12 44.8m344.9 123.7-36.6-143.5"/><path fill="#E6EFF9" d="M92.2 212c3.5-2.1 7.9-2.1 11.5 0l22 12.8c3.5 2.1 5.7 5.8 5.7 9.9v25.5c0 4.1-2.2 7.9-5.7 10l-22 12.8c-3.5 2.1-7.9 2.1-11.5 0l-22-12.8c-3.5-2.1-5.7-5.8-5.7-10v-25.5c0-4.1 2.2-7.9 5.7-9.9l22-12.8z"/><path fill="none" stroke="#DBDEE5" stroke-width="2" stroke-linecap="round" d="m77 206.1 11.9-6.9c4.9-2.9 11-2.9 15.9 0l5.8 3.4m9.2 5.2 2.9 1.7m-49 79.5 15.3 8.9c4.9 2.9 11 2.9 15.9 0l30.6-17.8c4.9-2.9 8-8.1 8-13.9v-55.5c0-5.7 0-10.2-2.5-19.2-2-7.2-6.5-25-9-34.5m-5.1 54.9 3.5 2m27 41.1-6.9-26.5m-82.1-89.8v7.6c0 2.8-1.5 5.4-3.9 6.9L49.6 162c-2.4 1.4-5.4 1.4-7.8 0l-7.5-4.4m-11.9-15.9v4.4c0 2.9 1.5 5.5 4 6.9l2.7 1.5"/><path fill="none" stroke="#235B95" stroke-width="2" stroke-linecap="round" stroke-linejoin="round" d="M42.9 150c.6.4 1.3.6 2.1.5l8-1c2.3-.3 3.2-.2 3.7-2.7.4-2.2 1.2-5.3 1.3-6.5M42.9 150c-.6-.4-1.1-1-1.3-1.7l-.8-2.8m2.1 4.5 2-7.9m-6.6-6.5L25 137.2c-.7.1-1.5-.1-2.1-.5m15.4-1.1 1.8-7.8m-1.8 7.8L40 142m-17-5.3c-.6-.4-1.1-1-1.3-1.7L19 124.8c-.5-1.7-.5-2.8.2-4s1.6-3.4 2-3.9m1.8 19.8 2.1-7.9m31.8 4.7 9.2-1.1c2.3-.3 2.8-.8 3.2-2.2.2-1.1.6-5.3.8-7.3M33.4 99.2c-.2.3-.3.6-.4.9-.1.3 0 .7.1 1l3.4 12.7-3.8.4m.7-15c.2-.3.4-.5.7-.7.3-.2.6-.3.9-.3l9.3-1.1c.7-.1 1.5.1 2.1.5.6.4 1.1 1 1.3 1.7L51 112l6.5-.8m-24.1-12c-.2.5-2.6 3-3 4.1-.4 1.1-.2 1.8.2 3.3.3 1.3 1.5 5.6 2 7.6M68 124.4c.3 0 .7-.1.9-.3.3-.2.5-.4.7-.7.2-.3.3-.6.4-.9.1-.3 0-.7-.1-1l-2.4-8.9c-.2-.7-.7-1.3-1.3-1.7-.6-.4-1.3-.6-2.1-.5l-3.3.4m-28.1 3.4-9.4 1.1c-.3 0-.7.1-.9.3-.3.2-.5.4-.7.7-.2.3-.3.6-.4.9-.1.3 0 .7.1 1l2.4 8.9c.2.7.7 1.3 1.3 1.7.6.4 1.3.6 2.1.5l4.4-.5m5.8-.8 2.8-.3 3.4 12.7c.2.7.7 1.3 1.3 1.7.6.4 1.3.6 2.1.5l9.3-1.1c.3 0 .7-.1.9-.3.3-.2.5-.4.7-.7.2-.3.3-.6.4-.9.1-.3 0-.7-.1-1L54.8 126l10.2-1.2"/><path fill="none" stroke="#DBDEE5" stroke-width="2" stroke-linecap="round" stroke-linejoin="round" d="M96.4 179v17.5"/><path fill="#F7FAFB" stroke="#DBDEE5" stroke-width="2" stroke-linecap="round" stroke-linejoin="round" d="M108.4 169.6c0 1-.3 2-.8 2.9-.5.9-1.3 1.6-2.1 2.1l-6.1 3.6c-.9.5-1.9.8-2.9.8s-2-.3-2.9-.8l-6.1-3.6c-.9-.5-1.6-1.3-2.1-2.1-.5-.9-.8-1.9-.8-2.9v-7.2c0-1 .3-2 .8-2.9.5-.9 1.3-1.6 2.1-2.1l6.1-3.6c.9-.5 1.9-.8 2.9-.8s2 .3 2.9.8l6.1 3.6c.9.5 1.6 1.3 2.1 2.1.5.9.8 1.9.8 2.9v7.2z"/><path fill="none" stroke="#DBDEE5" stroke-width="2" stroke-linecap="round" d="m80.9 153.5-12.5-7m15.5 14-6-3.5m-5-3-5-2.9"/><path fill="none" stroke="#235B95" stroke-width="2" stroke-linecap="round" d="M50.4 238.5v-7.8c0-5.7 3-11 8-13.8l11.7-6.8m-19.7 37.4v18.8c0 5.7 3 11 8 13.8l10.5 6.1"/><path fill="#8AC0F7" d="m78.6 235.6 16.2 9.4c5.2 1.7 3.5 1.9 3.5 5.3.1 3.4-.1 19.7-.1 19.7-1.1 0-2.2-.4-3.2-.9l-13-7.5c-3.2-1.9-4.1-3.6-4.2-5.7-.1-2.1-.2-14.6-.1-17 .2-2.4.9-3.3.9-3.3z"/><path fill="none" stroke="#235B95" stroke-width="2" stroke-linecap="round" d="m92.7 226.2 2.3-1.3c1-.6 2.1-.9 3.3-.9 1.1 0 2.3.3 3.3.9l14.3 8.2c1 .6 1.8 1.4 2.4 2.4.6 1 .9 2.1.9 3.3v16.4c0 1.1-.3 2.3-.9 3.3-.6 1-1.4 1.8-2.4 2.4l-14.3 8.2c-1 .6-2.1.9-3.3.9-1.1 0-2.3-.3-3.3-.9l-14.3-8.2c-1-.6-1.8-1.4-2.4-2.4-.6-1-.9-2.1-.9-3.3v-16.4c0-1.1.3-2.3.9-3.3.6-1 1.4-1.8 2.4-2.4l8-4.6"/><path fill="none" stroke="#235B95" stroke-width="2" stroke-linecap="round" d="M98.2 269.3v-2.8m0-3.6v-5.7m0-4.2v-3c0-.9.2-1.7.7-2.4.4-.7 1-1.4 1.8-1.8l17.3-10M100.3 246c-1.2.7-2.8.7-4 0l-5.6-3.2m-8.8-5.1 5.7 3.2"/><path fill="none" stroke="#DBDEE5" stroke-width="2" stroke-linecap="round" d="M484.9 337.5 428.1 120"/><path fill="#DBDEE5" d="M492.7 189.9h2v-7h7v-2h-7v-7h-2v7h-7v2h7v7zm0-43h2v-7h7v-2h-7v-7h-2v7h-7v2h7v7zm0 65h2v-7h7v-2h-7v-7h-2v7h-7v2h7v7zm22-22h2v-7h7v-2h-7v-7h-2v7h-7v2h7v7zm0-22h2v-7h7v-2h-7v-7h-2v7h-7v2h7v7zm0-21h2v-7h7v-2h-7v-7h-2v7h-7v2h7v7zm-44 43h2v-7h7v-2h-7v-7h-2v7h-7v2h7v7z"/><path fill="none" stroke="#DBDEE5" stroke-width="2" stroke-linecap="round" stroke-linejoin="round" d="M505.5 29.5s2.1 2.4 6.9 7c2.6 2.4 4.8 5.3 6.5 8.4 5.3 9.4 6.4 21.1 3.9 32.7m-87.4 36.6s5.3 4.8 8.9 7.6c12.8 9.6 31.9 9.2 49-1.9m27.6-35.6c-4 12-11.8 23.5-22.6 32m-27.5 1.9s3 2.9 7.9 7.7m1.5-12s3.6 3.5 8.5 8.3"/><path fill="none" stroke="#DBDEE5" stroke-width="2" stroke-linecap="round" stroke-linejoin="round" d="M485.7 102.4C506 86.3 514 58.2 503.5 39.7c-10.5-18.6-35.4-20.6-55.7-4.5M430 97.8c9.3 16.6 30.2 20 49 9.1m-36.4-67.1c-3.2 3.2-6 6.8-8.4 10.5m60.3-20.6c-6.9-3.2-15.2-3.8-23.6-1.7m-28.6 81.8c-3.3-2.5-6-5.9-8-9.5-10.5-18.6-2.5-46.7 17.8-62.7 3.8-3 7.7-5.3 11.6-7.1"/><path fill="#EEF3F5" d="m471 57.6-33.2 30.1 37.5-46.8 13.8 50.6L471 57.6zm-17.3 21.2 5.7-5.2 15.1.9 3 5.8-23.8-1.5zm9.8-8.9 5.8-5.3 3 5.7-8.8-.4z"/><path fill="none" stroke="#7E8A9C" stroke-width="2" stroke-linecap="round" stroke-linejoin="round" d="m485.5 78.2 3.6 13.3L471 57.6l-8.1 7.4m21.5 9.1-2.5-9.1m-2-7.3L475.3 41l-37.5 46.8 12-10.9m9.9-9-5.3 4.8m-.7 6.1 5.7-5.2 15.1.9 3 5.8-23.8-1.5zm9.8-8.9 5.8-5.3 3 5.7-8.8-.4z"/><path fill="none" stroke="#DBDEE5" stroke-width="2" stroke-linecap="round" stroke-linejoin="round" d="M489.1 107.8c-23.4 18.5-52.2 16.2-64.3-5.2-1.7-3-2.9-6.2-3.8-9.5m73.3 10.1c4.2-4.1 7.9-8.7 10.9-13.6m6-12.4c5.3-14.5 5.2-29.9-1.6-41.8-12.1-21.4-40.8-23.8-64.3-5.3-2.8 2.2-5.4 4.7-7.8 7.2-2.7 3-5.2 6.1-7.3 9.4"/><path fill="none" stroke="#DBDEE5" stroke-width="2" stroke-linecap="round" d="m468 141.7.1-12.1"/><path fill="#F7FAFB" stroke="#DBDEE5" stroke-width="2" stroke-linecap="round" stroke-linejoin="round" d="M481.1 158.9c0 1.2-.3 2.3-.9 3.3-.6 1-1.4 1.8-2.4 2.4l-6.9 4c-1 .6-2.1.9-3.3.9-1.2 0-2.3-.3-3.3-.9l-6.9-4c-1-.6-1.8-1.4-2.4-2.4-.6-1-.9-2.1-.9-3.3v-8c0-1.2.3-2.3.9-3.3.6-1 1.4-1.8 2.4-2.4l6.9-4c1-.6 2.1-.9 3.3-.9 1.2 0 2.3.3 3.3.9l6.9 4c1 .6 1.8 1.4 2.4 2.4.6 1 .9 2.1.9 3.3v8z"/><path fill="#E6EFF9" d="M466 146.4c.9-.5 1.9-.5 2.8 0l5.4 3.1c.9.5 1.4 1.4 1.4 2.4v6.2c0 1-.5 1.9-1.4 2.4l-5.4 3.1c-.9.5-1.9.5-2.8 0l-5.4-3.1c-.9-.5-1.4-1.4-1.4-2.4V152c0-1 .5-1.9 1.4-2.4l5.4-3.2z"/><defs><path id="a" d="M41.4 0h436.9c5.6 0 10.1 4.5 10.1 10.1v310.8c0 5.6-4.5 10.1-10.1 10.1H41.4V0z"/></defs><clipPath id="b"><use xlink:href="#a" overflow="visible"/></clipPath><g clip-path="url(#b)"><defs><path id="c" d="M137 67.2 373.1 3.9c7.1-1.9 14.4 2.3 16.3 9.4l225.7 842.4c1.9 7.1-2.3 14.4-9.4 16.3l-236.1 63.3c-7.1 1.9-14.4-2.3-16.3-9.4L127.6 83.5c-1.9-7.1 2.3-14.4 9.4-16.3z"/></defs><clipPath id="d"><use xlink:href="#c" overflow="visible"/></clipPath><g clip-path="url(#d)"><path fill="#FFF" d="M137 67.2 373.1 3.9c7.1-1.9 14.4 2.3 16.3 9.4l225.7 842.4c1.9 7.1-2.3 14.4-9.4 16.3l-236.1 63.3c-7.1 1.9-14.4-2.3-16.3-9.4L127.6 83.5c-1.9-7.1 2.3-14.4 9.4-16.3z"/><path fill="#F7FAFB" d="m134.6 109.8 261.9-70.2 9.9 37-261.9 70.2-9.9-37z"/><defs><path id="e" transform="rotate(-14.999 350.741 71.306)" d="M321.4 64.1H380v14.5h-58.6z"/></defs><clipPath id="f"><use xlink:href="#e" overflow="visible"/></clipPath><g clip-path="url(#f)"><defs><path id="g" transform="rotate(-14.999 329.437 77.014)" d="M322.2 69.8h14.5v14.5h-14.5z"/></defs><clipPath id="h"><use xlink:href="#g" overflow="visible"/></clipPath><g clip-path="url(#h)" fill="none" stroke="#8AC0F7" stroke-width="1.446" stroke-linecap="round" stroke-linejoin="round"><path d="m332.8 75.4-1.5-5.6m3.3 12.6-.7-2.8m1.6-2.7c.3 1.2-.4 2.4-1.5 2.7-1.2.3-2.4-.4-2.7-1.5-.3-1.1.3-2.3 1.5-2.7 1.2-.3 2.3.3 2.7 1.5zm-10.1-1 2.2 8.3m-.7-11c-.3-1.2-1.5-1.8-2.7-1.5-1.1.3-1.8 1.5-1.5 2.7.3 1.2 1.5 1.8 2.7 1.5 1.1-.3 1.8-1.5 1.5-2.7zm0 0c0 .1 0 0 0 0z"/></g><path fill="#DBDEE5" d="m348.536 64.432.676-.181 3.753 14.005-.676.181z"/><path fill="none" stroke="#8AC0F7" stroke-width="1.446" stroke-linecap="round" stroke-linejoin="round" d="m365.9 67.2 12.2-3.3m-7.7-4.4 3.3 12.2"/></g><path fill="#212225" d="m163.9 126.3-2.4-9.1 3.4-.9c.7-.2 1.3-.2 1.9-.1.5.1 1 .4 1.4.8.4.4.6.9.8 1.5.2.6.2 1.1 0 1.7-.1.5-.4 1-.8 1.4-.4.4-1 .7-1.7.9l-2.3.6-.4-1.4 2-.5c.4-.1.7-.3 1-.5.2-.2.4-.5.4-.7.1-.3 0-.6 0-.9-.1-.3-.2-.6-.4-.8-.2-.2-.4-.4-.7-.4-.3-.1-.7 0-1.1.1l-1.5.4 2.1 7.8-1.7.1zm11-2.8c-.7.2-1.3.2-1.9 0-.6-.2-1.1-.5-1.5-.9-.4-.5-.7-1-.9-1.7-.2-.7-.2-1.4-.1-2 .1-.6.4-1.1.8-1.5.4-.4 1-.7 1.6-.9.7-.2 1.3-.2 1.9 0 .6.2 1.1.5 1.5.9.4.5.7 1 .9 1.8.2.7.2 1.4.1 2-.1.6-.4 1.1-.8 1.5-.4.3-1 .6-1.6.8zm-.4-1.3c.4-.1.6-.3.8-.5.2-.3.3-.6.3-1s0-.8-.1-1.2c-.1-.4-.3-.8-.5-1.1-.2-.3-.5-.5-.8-.7-.3-.1-.6-.2-1-.1s-.7.3-.8.6c-.2.3-.3.6-.3 1s0 .8.1 1.2c.1.4.3.8.5 1.1.2.3.5.5.8.7.3.1.7.1 1 0zm5-.1-1.8-6.9 1.6-.4.3 1.1h.1c0-.4.2-.8.4-1.1.2-.3.6-.5 1-.6.1 0 .2 0 .3-.1h.3l.4 1.5h-.3c-.2 0-.3 0-.4.1-.3.1-.5.2-.7.4-.2.2-.3.4-.4.7-.1.3-.1.5 0 .8l1.1 4-1.9.5zm6.9-9.2.3 1.2-3.9 1.1-.3-1.2 3.9-1.1zm-3.4-.8 1.6-.4 1.7 6.4c.1.2.1.4.2.5.1.1.2.1.3.2h.4c.1 0 .2-.1.3-.1.1 0 .1-.1.2-.1l.6 1.2c-.1.1-.2.1-.3.2-.1.1-.3.2-.6.2-.4.1-.8.2-1.1.1-.4-.1-.7-.2-.9-.4-.3-.2-.5-.6-.6-1l-1.8-6.8zm8.3-.5.3 1.2-4.1 1.1-.3-1.2 4.1-1.1zm-1.2 7.7-2-7.5c-.1-.5-.1-.9 0-1.2.1-.4.3-.7.6-.9.3-.2.6-.4 1-.5.3-.1.5-.1.8-.1h.5v1.3h-.3c-.1 0-.2 0-.4.1-.3.1-.5.2-.6.4-.1.2-.1.4 0 .7l2 7.4-1.6.3zm7-1.8c-.7.2-1.3.2-1.9 0-.6-.2-1.1-.5-1.5-.9-.4-.5-.7-1-.9-1.8-.2-.7-.2-1.4-.1-2 .1-.6.4-1.1.8-1.5.4-.4 1-.7 1.6-.9.7-.2 1.3-.2 1.9 0 .6.2 1.1.5 1.5.9.4.5.7 1 .9 1.8.2.7.2 1.4.1 2-.1.6-.4 1.1-.8 1.5-.4.5-.9.8-1.6.9zm-.3-1.3c.4-.1.6-.3.8-.5.2-.3.3-.6.3-1s0-.8-.1-1.2c-.1-.4-.3-.8-.5-1.1-.2-.3-.5-.5-.8-.7-.3-.1-.6-.2-1-.1s-.7.3-.8.6c-.2.3-.3.6-.3 1s0 .8.1 1.2c.1.4.3.8.5 1.1.2.3.5.5.8.7.3.1.6.1 1 0zm4.1-9.6 2.4 9.1-1.6.4-2.4-9.1 1.6-.4zm4.1 8.7-1.8-6.9 1.6-.4 1.8 6.9-1.6.4zm-1.3-8.1c-.3.1-.5 0-.7-.1-.2-.1-.4-.3-.4-.5-.1-.2 0-.5.1-.7.1-.2.3-.4.6-.4.3-.1.5 0 .7.1.2.1.4.3.4.5.1.2 0 .5-.1.7-.1.2-.3.4-.6.4zm7.6 6.5c-.7.2-1.3.2-1.9 0-.6-.2-1.1-.5-1.5-.9-.4-.5-.7-1-.9-1.8-.2-.7-.2-1.4-.1-2 .1-.6.4-1.1.8-1.5.4-.4 1-.7 1.6-.9.7-.2 1.3-.2 1.9 0 .6.2 1.1.5 1.5.9.4.5.7 1 .9 1.8.2.7.2 1.4.1 2-.1.6-.4 1.1-.8 1.5-.4.4-.9.8-1.6.9zm-.3-1.3c.4-.1.6-.3.8-.5.2-.3.3-.6.3-1s0-.8-.1-1.2c-.1-.4-.3-.8-.5-1.1-.2-.3-.5-.5-.8-.7s-.6-.2-1-.1-.7.3-.8.6c-.2.3-.3.6-.3 1s0 .8.1 1.2c.1.4.3.8.5 1.1.2.3.5.5.8.7.3.1.6.1 1 0zm77 122.2c-.5.1-1 .2-1.4.1-.4-.1-.8-.2-1.1-.5-.3-.2-.5-.6-.6-1l1.3-.3c.1.2.2.3.3.5.2.1.3.2.6.2.2 0 .4 0 .7-.1.3-.1.5-.2.6-.3.2-.1.3-.3.4-.5.1-.2.1-.4 0-.6-.1-.2-.2-.4-.3-.5l-.6-.3c-.2 0-.5 0-.8.1l-.6.2-.3-1 .6-.2c.2-.1.5-.2.6-.3.2-.1.3-.3.3-.5.1-.2.1-.4 0-.6-.1-.2-.1-.4-.3-.5-.1-.1-.3-.2-.5-.2h-.6l-.6.3c-.2.1-.3.3-.4.5-.1.2-.1.4 0 .6l-1.2.3c-.1-.4-.1-.8.1-1.1.1-.4.4-.7.7-.9.3-.3.7-.5 1.2-.6.5-.1.9-.1 1.3-.1.4.1.7.2 1 .5.3.2.5.6.6.9.1.4.1.8-.1 1.1-.2.3-.4.6-.8.8v.1c.5-.1 1 0 1.3.2.3.2.6.6.7 1 .1.4.1.8-.1 1.2-.1.4-.4.7-.7 1-.4.1-.8.3-1.3.5zm4.8-2.5.1.4c0 .3.1.6.1.9v.9c0 .3 0 .5-.1.7l-.8.2v-.6c0-.3 0-.5-.1-.9 0-.3-.1-.6-.1-1l-.1-.4 1-.2zm1.1-.7-.3-1 1.7-5.6.9-.2.4 1.5-.5.1-1.1 3.8v.1l4.2-1.1.3 1.1-5.6 1.3zm3.8.4-.4-1.6-.1-.5-1.3-5 1.2-.3 1.9 7.1-1.3.3zm5.9-1.4c-.6.2-1.1.1-1.6 0-.5-.2-.9-.5-1.3-1s-.7-1.1-.9-1.9c-.2-.8-.3-1.5-.2-2.1.1-.6.3-1.1.6-1.5.3-.4.8-.7 1.4-.8.6-.2 1.1-.1 1.6 0 .5.2.9.5 1.3 1s.7 1.1.9 1.9c.2.8.3 1.5.2 2.1-.1.6-.3 1.1-.6 1.5-.4.4-.8.6-1.4.8zm-.3-1.1c.4-.1.7-.4.9-.9.1-.5.1-1.2-.1-2-.2-.6-.3-1-.6-1.4-.2-.4-.5-.6-.7-.7-.3-.1-.5-.2-.8-.1-.4.1-.7.4-.9.9-.1.5-.1 1.2.1 2 .2.6.3 1 .6 1.4.2.4.5.6.7.7.2.2.5.2.8.1zm4.2-.1 1.4-6.8-3.5.9-.3-1.1 4.8-1.3.3 1.1-1.4 6.8-1.3.4zm5.1-1.3c-.2.1-.4 0-.6-.1-.2-.1-.3-.3-.4-.5-.1-.2 0-.4.1-.6.1-.2.3-.3.5-.4.2-.1.4 0 .6.1.2.1.3.3.4.5v.4c0 .1-.1.3-.2.4-.1.1-.3.2-.4.2zm2.5-8.4c.3-.1.7-.1 1-.1.4 0 .7.1 1 .3.3.2.6.5.9.9.3.4.5.9.7 1.6.2.6.2 1.2.2 1.7s-.1 1-.2 1.4c-.2.4-.4.7-.7 1-.3.3-.7.5-1.1.6-.4.1-.9.1-1.3.1-.4-.1-.7-.2-1-.5-.3-.2-.5-.6-.7-.9l1.3-.3c.1.3.3.5.6.6.2.1.5.1.8 0 .5-.1.8-.4 1-.9.2-.5.1-1.1-.1-1.9-.1.2-.2.5-.3.6-.1.2-.3.4-.5.5-.2.1-.4.2-.7.3-.4.1-.8.1-1.2 0-.4-.1-.7-.3-1-.6-.3-.3-.5-.7-.6-1.1-.1-.5-.1-.9 0-1.3s.3-.8.7-1.1c.2-.6.6-.8 1.2-.9zm.2 1c-.2.1-.5.2-.6.4-.2.2-.3.4-.3.6-.1.2-.1.5 0 .7.1.3.2.5.4.6.2.2.4.3.6.4.2.1.5.1.7 0 .2-.1.4-.1.5-.2.1-.1.3-.3.3-.4.1-.2.1-.3.2-.5v-.5c-.1-.2-.2-.5-.4-.6-.2-.2-.4-.3-.6-.4-.3-.2-.5-.2-.8-.1zm8.1 4.6c-.5.1-.9.1-1.3.1-.4-.1-.8-.2-1.1-.5-.3-.2-.5-.6-.6-1l1.2-.3c.1.3.3.5.6.6.3.1.6.1.9.1.3-.1.5-.2.6-.4.2-.2.3-.4.3-.6.1-.2.1-.5 0-.8-.1-.3-.2-.5-.4-.7-.2-.2-.4-.3-.6-.4-.2-.1-.5-.1-.7 0-.2.1-.4.1-.6.3-.2.1-.3.3-.4.5l-1.2.1-.6-3.8 4.1-1.1.3 1.1-3.1.8.3 1.9c.1-.2.2-.4.5-.5.2-.2.5-.3.8-.4.4-.1.8-.1 1.2 0 .4.1.7.3 1 .6.3.3.5.7.6 1.1.1.5.1.9 0 1.3s-.3.8-.7 1.1c-.2.5-.6.7-1.1.9zm6.2-1.7c-.5.1-1 .2-1.4.1-.4-.1-.8-.2-1.1-.5-.3-.2-.5-.6-.6-1l1.3-.4c.1.2.2.3.3.5.2.1.3.2.5.2s.4 0 .7-.1c.3-.1.5-.2.6-.3.2-.1.3-.3.4-.5.1-.2.1-.4 0-.6-.1-.2-.2-.4-.3-.5s-.4-.2-.6-.3c-.2 0-.5 0-.8.1l-.6.2-.3-1 .6-.2c.2-.1.5-.2.6-.3.2-.1.3-.3.3-.5.1-.2.1-.4 0-.6-.1-.2-.1-.4-.3-.5-.1-.1-.3-.2-.5-.2h-.6l-.6.3c-.2.1-.3.3-.4.5-.1.2-.1.4 0 .6l-1.2.3c-.1-.4-.1-.8.1-1.1.1-.4.4-.7.7-.9.3-.3.7-.5 1.2-.6.5-.1.9-.1 1.3-.1.4.1.7.2 1 .5.3.2.5.6.6.9.1.4.1.8-.1 1.1-.2.3-.4.6-.8.8v.1c.5-.1 1 0 1.3.2.3.2.6.6.7 1 .1.4.1.8-.1 1.2-.1.4-.4.7-.7 1-.2.2-.7.4-1.2.6zm3.8-1.1-.2-.9 1.8-3.1c.2-.3.3-.6.4-.8.1-.2.2-.4.2-.6v-.6c-.1-.2-.2-.4-.3-.5-.1-.1-.3-.2-.5-.3h-.6l-.6.3c-.1.1-.2.3-.3.5v.7l-1.2.3c-.1-.5-.1-.9 0-1.3s.3-.7.6-1c.3-.3.7-.5 1.2-.6.5-.1.9-.2 1.3-.1s.8.2 1 .5c.3.3.5.6.6 1 .1.3.1.5.1.8 0 .3-.1.6-.3 1-.2.4-.4.9-.8 1.4l-.9 1.6 3.1-.8.3 1.1-4.9 1.4zm8.7-2.2c-.5.1-1 .2-1.4.1-.4-.1-.8-.2-1.1-.5-.3-.2-.5-.6-.6-1l1.3-.4c.1.2.2.3.3.5.2.1.3.2.6.2.2 0 .4 0 .7-.1.3-.1.5-.2.6-.3.2-.1.3-.3.4-.5.1-.2.1-.4 0-.6-.1-.2-.2-.4-.3-.5l-.6-.3c-.2 0-.5 0-.8.1l-.6.2-.3-1 .6-.2c.2-.1.5-.2.6-.3.2-.1.3-.3.3-.5.1-.2.1-.4 0-.6-.1-.2-.1-.4-.3-.5-.1-.1-.3-.2-.5-.2h-.6l-.6.3c-.2.1-.3.3-.4.5-.1.2-.1.4 0 .6l-1.2.3c-.1-.4-.1-.8.1-1.1.1-.4.4-.7.7-.9.3-.3.7-.5 1.2-.6.5-.1.9-.1 1.3-.1.4.1.7.2 1 .5.3.2.5.6.6.9.1.4.1.8-.1 1.1-.2.3-.4.6-.8.8v.1c.5-.1 1 0 1.3.2.3.2.6.6.7 1 .1.4.1.8-.1 1.2-.1.4-.4.7-.7 1-.4.2-.8.4-1.3.6zm6.4-1.7c-.6.2-1.1.1-1.6 0-.5-.2-.9-.5-1.3-1s-.7-1.1-.9-1.9c-.2-.8-.3-1.5-.2-2.1.1-.6.3-1.1.6-1.5.3-.4.8-.7 1.4-.8.6-.2 1.1-.1 1.6 0 .5.2.9.5 1.3 1s.7 1.1.9 1.9c.2.8.3 1.5.2 2.1-.1.6-.3 1.1-.6 1.5-.4.3-.8.6-1.4.8zm-.3-1.1c.4-.1.7-.4.9-.9.1-.5.1-1.2-.1-2-.2-.6-.3-1-.6-1.4-.2-.4-.5-.6-.7-.7-.3-.1-.5-.2-.8-.1-.4.1-.7.4-.9.9-.1.5-.1 1.2.1 2 .2.6.3 1 .6 1.4.2.4.5.6.7.7.3.1.5.2.8.1zm3.7-1.4-.3-1 1.7-5.6.9-.2.4 1.5-.5.1-1.2 3.8v.1l4.2-1.1.3 1.1-5.5 1.3zm3.7.4-.4-1.6-.1-.5-1.3-5 1.2-.3 1.9 7.1-1.3.3zm6.7-1.8-1.4.4.6-7.8 1.6-.4 4.4 6.4-1.4.4-3.4-5.1h-.1l-.3 6.1zm-.7-2.8 3.8-1 .3 1-3.8 1-.3-1zm6.9 1.2-1.9-7.1 2.7-.7c.5-.1 1-.2 1.5-.1.4.1.8.3 1.1.6.3.3.5.7.6 1.1.1.5.1.9 0 1.3s-.3.7-.6 1c-.3.3-.8.5-1.3.6l-1.9.5-.3-1.1 1.7-.5c.3-.1.6-.2.7-.3.2-.1.3-.3.3-.5.1-.2 0-.4 0-.7-.1-.3-.2-.5-.3-.6-.1-.2-.3-.2-.6-.3-.2 0-.5 0-.8.1l-1.2.3 1.6 6-1.3.4zm2.8-4.2 2.6 2.8-1.4.4-2.6-2.8 1.4-.4zm3.5 2.5-1.9-7.1 1.3-.3.9 3.3h.1l1.9-4 1.6-.4-1.9 3.9 3.8 3.2-1.6.2-2.9-2.5-.5 1.1.6 2.1-1.4.5z"/><path fill="#A5ADB9" d="M332.7 239.8c-.4.1-.8.1-1.1.1-.4-.1-.7-.2-.9-.4-.3-.2-.4-.5-.5-.8l1.1-.3c.1.2.2.4.5.5.2.1.5.1.8 0 .2-.1.4-.2.5-.3.1-.1.2-.3.3-.5v-.6l-.3-.6c-.1-.2-.3-.3-.5-.3-.2-.1-.4-.1-.6 0-.2 0-.4.1-.5.2-.2.1-.3.2-.3.4l-1 .1-.5-3.2 3.5-.9.2.9-2.6.7.3 1.7c.1-.2.2-.3.4-.5l.6-.3c.4-.1.7-.1 1.1 0 .3.1.6.3.9.5.2.3.4.6.5 1 .1.4.1.8 0 1.2-.1.4-.3.7-.6.9-.5.2-.9.3-1.3.5zm4-2.1v.3c0 .3.1.5.1.8v1.4l-.7.2v-1.2c0-.3-.1-.5-.1-.8l-.1-.3.8-.4zm1.8-6.2c.3-.1.6-.1.9-.1.3 0 .6.1.9.3.3.2.5.4.8.8.2.3.4.8.6 1.3.1.5.2 1 .2 1.4 0 .4-.1.8-.2 1.2-.1.3-.3.6-.6.9-.3.2-.6.4-.9.5-.4.1-.7.1-1.1 0-.3-.1-.6-.2-.9-.4-.3-.2-.4-.5-.6-.8l1.1-.3c.1.2.3.4.5.5.2.1.4.1.7 0 .4-.1.7-.4.8-.8.1-.4.1-1-.1-1.6-.1.2-.1.4-.3.6-.1.2-.3.3-.5.4l-.6.3c-.4.1-.7.1-1 0-.3-.1-.6-.3-.9-.5-.2-.3-.4-.6-.5-1-.1-.4-.1-.8 0-1.1.1-.4.3-.7.6-1 .3-.3.7-.5 1.1-.6zm.3.9c-.2.1-.4.2-.5.3-.1.1-.2.3-.3.5-.1.2 0 .4 0 .6.1.2.2.4.3.5.1.2.3.3.5.3.2.1.4.1.6 0 .2 0 .3-.1.4-.2.1-.1.2-.2.3-.4.1-.1.1-.3.1-.4v-.5c-.1-.2-.2-.4-.3-.5-.1-.2-.3-.3-.5-.3s-.4 0-.6.1zm7 3.9c-.5.1-.9.1-1.4 0-.4-.2-.8-.4-1.1-.9-.3-.4-.6-1-.7-1.6-.2-.7-.2-1.3-.2-1.8.1-.5.2-.9.5-1.3.3-.3.7-.6 1.2-.7s.9-.1 1.4 0c.4.2.8.4 1.1.9.3.4.6 1 .7 1.6.2.7.2 1.3.2 1.8-.1.5-.2 1-.5 1.3-.4.3-.7.6-1.2.7zm-.3-.9c.4-.1.6-.4.8-.8.1-.4.1-1-.1-1.8-.1-.5-.3-.9-.5-1.2-.2-.3-.4-.5-.6-.6-.2-.1-.5-.1-.7-.1-.4.1-.6.4-.7.8-.1.4-.1 1 .1 1.7.1.5.3.9.5 1.2.2.3.4.5.6.6.1.2.4.2.6.2zm4.4-6.9 1.6 6.1-1.1.3-1.3-5-1.2 1.3-.3-1 1.3-1.4 1-.3zm3.6 5.7c-.2 0-.4 0-.5-.1-.2-.1-.3-.2-.3-.4s0-.3.1-.5.2-.3.4-.3.3 0 .5.1.3.2.3.4v.4c0 .1-.1.2-.2.3-.1 0-.2.1-.3.1zm2.1-7.3c.3-.1.6-.1.9-.1.3 0 .6.1.9.3.3.2.5.4.8.8.2.3.4.8.6 1.3.1.5.2 1 .2 1.4 0 .4-.1.8-.2 1.2-.1.3-.3.6-.6.9-.3.2-.6.4-.9.5-.4.1-.7.1-1.1 0-.3-.1-.6-.2-.9-.4-.3-.2-.4-.5-.6-.8l1.1-.3c.1.2.3.4.5.5.2.1.4.1.7 0 .4-.1.7-.4.8-.8.1-.4.1-1-.1-1.6-.1.2-.1.4-.3.6-.1.2-.3.3-.4.4l-.6.3c-.4.1-.7.1-1 0-.3-.1-.6-.3-.9-.5-.2-.3-.4-.6-.5-1-.1-.4-.1-.8 0-1.1.1-.4.3-.7.6-1 .2-.3.5-.5 1-.6zm.2.9c-.2.1-.4.2-.5.3-.1.1-.2.3-.3.5v.6c.1.2.2.4.3.5.1.2.3.3.5.3.2.1.4.1.6 0 .2 0 .3-.1.4-.2.1-.1.2-.2.3-.4.1-.1.1-.3.1-.4v-.5c-.1-.2-.2-.4-.3-.5-.1-.2-.3-.3-.5-.3-.2.1-.4.1-.6.1zm6.9 3.9c-.4.1-.8.1-1.1.1-.4-.1-.7-.2-.9-.4-.3-.2-.4-.5-.5-.8l1.1-.3c.1.2.2.4.5.5.2.1.5.1.8 0 .2-.1.4-.2.5-.3s.2-.3.3-.5c.1-.2 0-.4 0-.6l-.3-.6c-.1-.2-.3-.3-.5-.3-.2-.1-.4-.1-.6 0-.2 0-.4.1-.5.2-.2.1-.3.2-.3.4l-1 .1-.5-3.2 3.5-.9.2.9-2.6.7.3 1.7c.1-.2.2-.3.4-.5l.6-.3c.4-.1.7-.1 1.1 0 .3.1.6.3.9.5.2.3.4.6.5 1 .1.4.1.8 0 1.2-.1.4-.3.7-.6.9-.5.2-.9.4-1.3.5zm7.5-8.6 1.1-.3 1.1 4c.1.4.1.8 0 1.2-.1.4-.3.7-.7 1-.3.3-.7.5-1.2.6-.5.1-1 .2-1.4.1-.4-.1-.8-.3-1.1-.5-.3-.3-.5-.6-.6-1.1l-1.1-4 1.1-.3 1 3.9c.1.3.2.5.3.6.2.2.4.3.6.3.2.1.5 0 .8 0s.5-.2.7-.4c.2-.2.3-.4.4-.6.1-.2.1-.5 0-.7l-1-3.8zm6.1.2c-.1-.3-.3-.4-.5-.5-.2-.1-.5-.1-.9 0-.2.1-.4.1-.6.3-.1.1-.2.2-.3.4-.1.1-.1.3 0 .4 0 .1.1.2.2.3.1.1.2.1.3.2.1 0 .2.1.4.1h1.7c.2 0 .5.1.7.2.2.1.4.2.5.4s.3.4.3.7c.1.4.1.7 0 1-.1.3-.3.6-.6.8-.3.2-.7.4-1.2.6-.5.1-.9.2-1.3.1s-.7-.2-1-.4c-.3-.2-.5-.5-.6-.9l1.1-.3c.1.2.2.4.3.5.2.1.3.2.5.2s.4 0 .7-.1l.6-.3c.2-.1.3-.3.3-.4.1-.2.1-.3 0-.5 0-.2-.1-.3-.2-.4-.1-.1-.3-.1-.5-.2h-1.3c-.5 0-1-.1-1.3-.3-.4-.2-.6-.5-.7-.9-.1-.4-.1-.7 0-1 .1-.3.3-.6.6-.8.3-.2.7-.4 1.1-.5.4-.1.8-.1 1.2-.1.4.1.7.2.9.4.3.2.4.5.5.8l-.9.2zm5.3 3.3-2.1.6-1.6-6.1 2.1-.6c.6-.2 1.2-.2 1.7-.1s.9.4 1.3.8.6.9.8 1.5c.2.6.2 1.2.1 1.7s-.4 1-.7 1.3c-.4.4-.9.7-1.6.9zm-1.2-.7.9-.2c.4-.1.8-.3 1-.5.2-.2.4-.5.5-.9.1-.3 0-.8-.1-1.2-.1-.5-.3-.8-.5-1.1-.2-.3-.5-.4-.8-.5-.3-.1-.7-.1-1.1 0l-.9.3 1 4.1z"/><path fill="#E6EFF9" d="m204.1 246.1 14-3.7c4.6-1.2 9.4 1.5 10.6 6.1l3.7 14c1.2 4.6-1.5 9.4-6.1 10.6l-14 3.7c-4.6 1.2-9.4-1.5-10.6-6.1l-3.7-14c-1.2-4.6 1.5-9.4 6.1-10.6z"/><path fill-rule="evenodd" clip-rule="evenodd" fill="#235B95" d="m214.7 257.3-6 11.1 4.8-15.8 12 11.3-10.8-6.6zm-2 7.4.9-2 4.6-1.2 1.7 1.3-7.2 1.9zm1-2.8 1.4-2.9 2.6 1.8-4 1.1z"/><path fill="#FFF" d="m414 222-9.8 2.6c-3.5.9-7-1.1-8-4.6l-4.5-16.8c-.9-3.5 1.1-7 4.6-8l9.8-2.6c3.5-.9 7 1.1 8 4.6l4.5 16.8c1 3.5-1.1 7.1-4.6 8z"/><defs><path id="i" transform="rotate(-14.999 405.234 208.7)" d="M401.6 205.1h7.2v7.2h-7.2z"/></defs><clipPath id="j"><use xlink:href="#i" overflow="visible"/></clipPath><g clip-path="url(#j)"><path fill="none" stroke="#637282" stroke-width="1.446" stroke-linecap="round" stroke-linejoin="round" d="m402.8 210.8 1.9-3.4c.1-.1.2-.1.3-.1l3.4 1.9"/></g><path fill="none" stroke="#E6EFF9" stroke-width="1.446" stroke-linejoin="round" d="m414 222-9.8 2.6c-3.5.9-7-1.1-8-4.6l-4.5-16.8c-.9-3.5 1.1-7 4.6-8l9.8-2.6c3.5-.9 7 1.1 8 4.6l4.5 16.8c1 3.5-1.1 7.1-4.6 8z"/><path fill="#F7FAFB" stroke="#DBDEE5" stroke-width="1.112" stroke-dasharray="2.22,2.22" d="M215.5 288.5 416 234.8c4.3-1.2 8.8 1.4 9.9 5.7l23.2 86.6c1.2 4.3-1.4 8.8-5.7 9.9l-200.5 53.7c-4.3 1.2-8.8-1.4-9.9-5.7l-23.2-86.6c-1.2-4.2 1.4-8.7 5.7-9.9z"/><path fill="#F7FAFB" d="M144.554 146.788 406.506 76.6l24.327 90.795-261.952 70.186z"/><path fill="#A5ADB9" d="m170.8 154.4 1.5-.4 2.6 2.7h.1l.9-3.6 1.5-.4-1.4 5.2.7 2.7-1.3.3-.7-2.7-3.9-3.8zm10.6 4.9c-.5.1-1 .1-1.4 0-.4-.1-.8-.4-1.1-.7-.3-.4-.6-.8-.7-1.4-.1-.6-.2-1.1-.1-1.5.1-.5.3-.9.6-1.2.3-.3.7-.6 1.3-.7s1-.1 1.4 0c.4.1.8.4 1.1.7.3.4.6.8.7 1.4.1.6.2 1.1.1 1.5-.1.5-.3.9-.6 1.2-.4.4-.8.6-1.3.7zm-.3-1c.3-.1.5-.2.6-.4.1-.2.2-.5.3-.7 0-.3 0-.6-.1-.9-.1-.3-.2-.6-.4-.8-.2-.2-.4-.4-.6-.5-.2-.1-.5-.1-.8 0-.3.1-.5.2-.7.4-.1.2-.2.5-.3.8 0 .3 0 .6.1.9.1.3.2.6.4.8.2.2.4.4.6.5.4 0 .6 0 .9-.1zm6.7-3.2-.8-3.1 1.3-.3 1.4 5.3-1.2.3-.3-.9h-.1c0 .3-.2.6-.4.9-.2.3-.5.4-.9.6-.4.1-.7.1-1 0-.3-.1-.6-.3-.8-.5-.2-.3-.4-.6-.5-1l-.9-3.4 1.3-.3.9 3.2c.1.3.3.6.5.7.2.1.5.2.8.1.2 0 .4-.1.5-.3.1-.1.3-.3.3-.5-.1-.3-.1-.5-.1-.8zm3.1 1.6-1.4-5.3 1.2-.3.2.9h.1c0-.3.1-.6.3-.8.2-.2.4-.4.7-.5.1 0 .1 0 .2-.1h.2l.3 1.2h-.3c-.1 0-.2 0-.3.1l-.6.3c-.2.1-.3.3-.3.5-.1.2-.1.4 0 .6l.8 3.1-1.1.3zm6.4-1.7-1.9-7.1 2.7-.7c.5-.1 1-.2 1.3-.1.4.1.7.2.9.4.2.2.4.5.5.9.1.3.1.6 0 .8l-.3.6c-.2.2-.3.3-.6.4v.1c.3-.1.5 0 .8 0 .3.1.5.2.7.4.2.2.4.5.5.9.1.4.1.7 0 1.1-.1.3-.3.6-.6.9-.3.3-.7.5-1.3.6l-2.7.8zm1-1.4 1.4-.4c.5-.1.8-.3.9-.5.2-.2.2-.5.1-.8-.1-.2-.2-.4-.3-.5-.1-.1-.3-.2-.6-.3h-.7l-1.4.4.6 2.1zm-.8-3.1 1.3-.3.6-.3c.2-.1.3-.3.3-.5.1-.2.1-.4 0-.6-.1-.3-.2-.5-.5-.6-.2-.1-.6-.1-.9 0l-1.3.3.5 2zm7.7 2.5c-.3.1-.7.1-1 .1-.3-.1-.6-.2-.8-.4-.2-.2-.4-.5-.5-.8-.1-.3-.1-.6 0-.8l.3-.6c.2-.2.4-.3.6-.4.2-.1.5-.2.7-.3.3-.1.5-.2.7-.3.2-.1.3-.2.4-.2.1-.1.1-.2.1-.3-.1-.3-.2-.4-.4-.5-.2-.1-.4-.1-.7 0-.3.1-.5.2-.7.4-.1.2-.2.4-.2.6l-1.2.1c0-.3.1-.7.2-.9.2-.3.4-.5.6-.7.3-.2.6-.3 1-.4.3-.1.5-.1.8-.1.3 0 .5 0 .8.1.2.1.5.2.7.4.2.2.3.5.4.8l1 3.6-1.2.3-.2-.7c0 .2-.1.3-.2.5s-.2.3-.4.4c-.3-.1-.5 0-.8.1zm.1-1c.3-.1.5-.2.6-.3.2-.2.3-.3.3-.5.1-.2.1-.4 0-.6l-.2-.6s-.1.1-.2.1c-.1.1-.2.1-.3.2s-.2.1-.3.1c-.1 0-.2.1-.3.1-.2.1-.3.2-.5.3l-.3.3c-.1.1-.1.3 0 .4.1.2.2.4.4.5h.8zm3.3-7.7 1.9 7.1-1.3.3-1.9-7.1 1.3-.3zm4.8 6.5c-.3.1-.7.1-1 .1-.3-.1-.6-.2-.8-.4-.2-.2-.4-.5-.5-.8-.1-.3-.1-.6 0-.8l.3-.6c.2-.2.4-.3.6-.4.2-.1.5-.2.7-.3.3-.1.6-.2.7-.3.2-.1.3-.2.4-.2.1-.1.1-.2.1-.3-.1-.3-.2-.4-.4-.5-.2-.1-.4-.1-.7 0-.3.1-.5.2-.7.4-.1.2-.2.4-.2.6l-1.2.1c0-.3.1-.7.2-.9.2-.3.4-.5.6-.7.3-.2.6-.3 1-.4.3-.1.5-.1.8-.1.3 0 .5 0 .8.1.2.1.5.2.7.4.2.2.3.5.4.8l1 3.6-1.2.3-.2-.7c0 .2-.1.3-.2.5s-.2.3-.4.4c-.3-.1-.6 0-.8.1zm0-1c.3-.1.5-.2.6-.3.2-.2.3-.3.3-.5.1-.2.1-.4 0-.6l-.2-.6s-.1.1-.2.1c-.1.1-.2.1-.3.2s-.2.1-.3.1c-.1 0-.2.1-.3.1-.2.1-.3.2-.5.3l-.3.3c-.1.1-.1.3 0 .4.1.2.2.4.4.5h.8zm4.4-3.7.8 3.1-1.3.3-1.4-5.3 1.2-.3.2.9h.1c0-.3.2-.6.4-.9.2-.2.5-.4.9-.5.4-.1.7-.1 1 0 .3.1.6.3.8.5.2.3.4.6.5 1l.9 3.4-1.3.3-.9-3.2c-.1-.4-.3-.6-.5-.8-.2-.2-.5-.2-.8-.1-.2.1-.4.2-.5.3-.1.1-.2.3-.3.5.2.3.2.6.2.8zm7.9 1.4c-.5.1-1 .1-1.5 0-.4-.1-.8-.4-1.1-.7-.3-.4-.5-.8-.7-1.3-.1-.5-.2-1-.1-1.5s.3-.9.6-1.2c.3-.3.7-.6 1.3-.7.4-.1.8-.1 1.2-.1.4.1.7.2 1 .5.3.2.5.5.6.9l-1.2.3c-.1-.2-.3-.4-.5-.5-.2-.1-.5-.1-.8-.1-.3.1-.5.2-.6.4-.2.2-.3.4-.3.7 0 .3 0 .6.1 1s.2.7.4.9c.2.2.4.4.6.5.2.1.5.1.7 0 .2-.1.3-.1.5-.2.1-.1.2-.2.3-.4.1-.2.1-.3.1-.5l1.2-.3c.1.4.1.8-.1 1.1-.1.3-.3.6-.6.9-.3 0-.6.1-1.1.3zm5.7-1.6c-.5.1-1 .2-1.5 0-.4-.1-.8-.4-1.1-.7-.3-.4-.6-.8-.7-1.4-.1-.5-.2-1.1-.1-1.5.1-.5.3-.9.6-1.2.3-.3.7-.6 1.2-.7.3-.1.7-.1 1-.1.3 0 .6.1.9.3.3.2.5.4.8.7.2.3.4.7.5 1.2l.1.4-4.4 1.2-.2-.8 3.2-.8-.3-.6c-.2-.2-.3-.3-.5-.3-.2-.1-.4-.1-.7 0-.3.1-.5.2-.6.4-.2.2-.3.4-.3.6-.1.2 0 .5 0 .7l.2.7c.1.3.2.6.4.8.2.2.4.3.6.4.2.1.5.1.8 0 .2 0 .3-.1.5-.2l.3-.3c.1-.1.1-.3.1-.4l1.2-.2c0 .3-.1.6-.2.9-.1.3-.4.5-.6.7-.4 0-.8.1-1.2.2z"/><path fill="#212225" d="M181.1 179.2c-.6.2-1.1.2-1.6.1s-.9-.3-1.3-.5c-.4-.3-.6-.6-.7-1.1l1.5-.4c.1.2.2.4.4.5.2.1.4.2.6.2.2 0 .5 0 .8-.1.3-.1.5-.2.7-.4.2-.2.3-.4.4-.6.1-.2.1-.4 0-.7-.1-.2-.2-.4-.4-.6-.2-.2-.4-.2-.7-.3-.3 0-.6 0-.9.1l-.7.2-.3-1.1.7-.2c.3-.1.5-.2.7-.3.2-.2.3-.3.4-.5.1-.2.1-.4 0-.7l-.3-.6c-.1-.1-.3-.2-.5-.3h-.7c-.2.1-.5.2-.7.3-.2.1-.3.3-.4.5-.1.2-.1.4 0 .6l-1.4.4c-.1-.5-.1-.9.1-1.3s.4-.8.8-1.1c.4-.3.8-.5 1.3-.7.5-.1 1-.2 1.5-.1s.8.3 1.2.6c.3.3.5.6.6 1 .1.5.1.9-.1 1.3s-.5.7-.9.9v.1c.6-.1 1.1 0 1.5.3.4.3.7.6.8 1.2.1.5.1.9-.1 1.3s-.4.8-.8 1.1c-.4.5-.9.7-1.5.9zm3.8-2.8-.3-1.2 2-6.4 1-.3.4 1.7-.6.2-1.3 4.3v.1l4.8-1.3.3 1.2-6.3 1.7zm4.3.5-.5-1.9-.1-.5-1.5-5.7 1.4-.4 2.2 8.1-1.5.4zm4.8-2.5.1.5c.1.3.1.7.1 1.1v1c0 .3 0 .6-.1.8l-1 .3v-.7c0-.3 0-.6-.1-1 0-.4-.1-.7-.2-1.1l-.1-.5 1.3-.4zm1.9.7-.3-1.1 2.1-3.5c.2-.3.4-.6.5-.9.1-.3.2-.5.2-.7v-.7c-.1-.3-.2-.5-.4-.6-.2-.2-.4-.3-.6-.3h-.7c-.3.1-.5.2-.7.4-.2.2-.3.4-.3.6-.1.2 0 .5 0 .8l-1.4.4c-.1-.5-.1-1 0-1.4.1-.4.4-.8.7-1.1.4-.3.8-.6 1.3-.7.5-.1 1.1-.2 1.5-.1.5.1.9.3 1.2.6.3.3.5.7.7 1.1.1.3.1.6.1.9 0 .3-.2.7-.4 1.1-.2.4-.5 1-.9 1.6l-1 1.8v.1l3.5-.9.3 1.2-5.4 1.4zm9.8-2.5c-.5.1-1 .2-1.5.1s-.9-.3-1.2-.6c-.3-.3-.6-.6-.7-1.1l1.4-.4c.1.3.3.6.7.7.3.1.7.2 1 .1.3-.1.5-.2.7-.4.2-.2.3-.4.4-.7.1-.3.1-.6 0-.9-.1-.3-.2-.6-.4-.8-.2-.2-.4-.3-.7-.4-.3-.1-.6-.1-.8 0-.2.1-.5.2-.7.3-.2.2-.4.3-.5.5l-1.4.1-.7-4.3 4.7-1.3.3 1.2-3.5.9.3 2.2c.1-.2.3-.4.5-.6.2-.2.5-.3.9-.4.5-.1 1-.1 1.4 0 .4.1.8.4 1.2.7s.6.8.7 1.3c.1.5.1 1 0 1.5s-.4.9-.8 1.3c-.2.6-.7.8-1.3 1zm7.2-1.9c-.6.2-1.1.2-1.6.1s-.9-.3-1.3-.5c-.4-.3-.6-.6-.7-1.1l1.5-.4c.1.2.2.4.4.5.2.1.4.2.6.2.2 0 .5 0 .8-.1.3-.1.5-.2.7-.4.2-.2.3-.4.4-.6.1-.2.1-.4 0-.7-.1-.2-.2-.4-.4-.6-.2-.2-.4-.2-.7-.3-.3 0-.6 0-.9.1l-.7.2-.3-1.1.7-.2c.3-.1.5-.2.7-.3.2-.2.3-.3.4-.5.1-.2.1-.4 0-.7l-.3-.6c-.1-.1-.3-.2-.5-.3h-.7c-.2.1-.5.2-.7.3-.2.1-.3.3-.4.5-.1.2-.1.4 0 .6l-1.4.4c-.1-.5-.1-.9.1-1.3s.4-.8.8-1.1c.4-.3.8-.5 1.3-.7.5-.1 1-.2 1.5-.1s.8.3 1.2.6c.3.3.5.6.6 1 .1.5.1.9-.1 1.3s-.5.7-.9.9v.1c.6-.1 1.1 0 1.5.3.4.3.7.6.8 1.2.1.5.1.9-.1 1.3s-.4.8-.8 1.1c-.4.5-.9.7-1.5.9zm5-1.4c-.2.1-.5 0-.7-.1-.2-.1-.4-.3-.4-.6-.1-.2 0-.5.1-.7.1-.2.3-.4.6-.4.2-.1.5 0 .7.1.2.1.4.3.4.5v.5c0 .2-.1.3-.2.4-.2.2-.3.2-.5.3zm2.4-.7 1.6-7.8v-.1l-4 1.1-.3-1.2 5.5-1.5.3 1.3-1.6 7.8-1.5.4zm9-2.3c-.5.1-1 .2-1.5.1s-.9-.3-1.2-.6c-.3-.3-.6-.6-.7-1.1l1.4-.4c.1.3.3.6.7.7.3.1.7.2 1 .1.3-.1.5-.2.7-.4.2-.2.3-.4.4-.7.1-.3.1-.6 0-.9-.1-.3-.2-.6-.4-.8-.2-.2-.4-.3-.7-.4-.3-.1-.6-.1-.8 0-.2.1-.5.2-.7.3-.2.2-.4.3-.5.5l-1.4.1-.7-4.3 4.7-1.3.3 1.2-3.5.9.3 2.2c.1-.2.3-.4.5-.6.2-.2.5-.3.9-.4.5-.1 1-.1 1.4 0 .4.1.8.4 1.2.7.3.3.6.8.7 1.3.1.5.1 1.1 0 1.5-.1.5-.4.9-.8 1.3-.3.6-.8.8-1.3 1zm10-11.5 1.5-.4 1.4 5.3c.2.6.2 1.1 0 1.6s-.4 1-.9 1.3c-.4.4-1 .7-1.6.8-.7.2-1.3.2-1.8.1-.6-.1-1-.4-1.4-.7-.4-.4-.7-.8-.8-1.4l-1.4-5.3 1.5-.4 1.4 5.2c.1.3.2.6.5.8.2.2.5.4.8.5.3.1.7.1 1 0 .4-.1.7-.3.9-.5.2-.2.4-.5.5-.8.1-.3.1-.6 0-1l-1.6-5.1zm8.1.2c-.1-.3-.4-.6-.7-.7-.3-.1-.7-.1-1.1 0-.3.1-.6.2-.8.4-.2.2-.3.3-.4.5-.1.2-.1.4 0 .6 0 .2.1.3.2.4.1.1.2.2.4.2s.3.1.5.1h1.3c.3 0 .6 0 1 .1.3 0 .6.1.9.3.3.1.5.3.7.5.2.2.4.5.4.9.1.5.1.9 0 1.4-.1.4-.4.8-.8 1.1-.4.3-.9.6-1.6.7-.6.2-1.2.2-1.7.1s-1-.3-1.3-.6c-.4-.3-.6-.7-.8-1.3l1.4-.4c.1.3.2.5.5.6.2.1.4.2.7.3.3 0 .6 0 .9-.1.3-.1.6-.2.8-.4.2-.2.4-.3.5-.6.1-.2.1-.4 0-.7-.1-.2-.2-.4-.3-.5-.2-.1-.4-.2-.6-.2-.2 0-.5-.1-.8-.1h-1c-.7 0-1.3-.1-1.8-.4-.5-.2-.8-.7-1-1.2-.1-.5-.1-.9.1-1.4.2-.4.4-.8.8-1.1.4-.3.9-.6 1.4-.7.6-.2 1.1-.2 1.6-.1s.9.3 1.2.6c.3.3.6.7.7 1.1l-1.3.6zm7.1 4.4-2.8.7-2.2-8.1 2.8-.8c.8-.2 1.5-.2 2.2-.1.7.2 1.2.5 1.7 1s.8 1.2 1.1 2c.2.8.3 1.6.1 2.3-.1.7-.5 1.3-1 1.8-.4.6-1 1-1.9 1.2zm-1.6-1 1.2-.3c.6-.2 1-.4 1.3-.7.3-.3.5-.7.6-1.2.1-.5 0-1-.1-1.6-.2-.6-.4-1.1-.7-1.5-.3-.4-.7-.6-1.1-.7-.4-.1-.9-.1-1.5.1l-1.3.3 1.6 5.6z"/><path fill="#A5ADB9" d="m306.4 125.7-1.4.4.6-7.8 1.6-.4 4.4 6.4-1.4.4-3.4-5.1h-.1l-.3 6.1zm-.7-2.8 3.8-1 .3 1-3.8 1-.3-1zm9.9-3.8-1.1.4c-.1-.1-.1-.2-.3-.3-.1-.1-.2-.1-.4-.2h-.5c-.3.1-.5.2-.6.3-.1.2-.2.3-.1.5 0 .2.1.3.3.3.1.1.4.1.6.1h1c.5 0 1 0 1.3.2.3.2.5.4.6.8.1.3.1.7-.1 1-.1.3-.3.6-.6.8-.3.2-.7.4-1.1.5-.7.2-1.2.2-1.7 0s-.8-.5-1-1l1.2-.4c.1.2.3.4.5.5.2.1.5.1.8 0 .3-.1.5-.2.7-.4.1-.2.2-.3.2-.5s-.1-.3-.3-.3c-.1-.1-.3-.1-.6-.1l-1 .1c-.5 0-1 0-1.3-.2-.3-.2-.5-.5-.6-.9-.1-.3-.1-.6 0-.9.1-.3.3-.5.6-.8.3-.2.6-.4 1.1-.5.6-.2 1.2-.2 1.6 0 .3.2.6.5.8 1zm5.3-1.5-1.1.4c-.1-.1-.1-.2-.3-.3-.1-.1-.2-.1-.4-.2h-.5c-.3.1-.5.2-.6.3-.1.2-.2.3-.1.5 0 .2.1.3.3.3.1.1.4.1.6.1h1c.5 0 1 0 1.3.2.3.2.5.4.6.8.1.3.1.7-.1 1-.1.3-.3.6-.6.8-.3.2-.7.4-1.1.5-.7.2-1.2.2-1.7 0s-.8-.5-1-1l1.2-.4c.1.2.3.4.5.4.2.1.5.1.8 0 .3-.1.5-.2.7-.4.1-.2.2-.3.2-.5s-.1-.3-.3-.3c-.1-.1-.3-.1-.6-.1l-1 .1c-.5 0-1 0-1.3-.2-.3-.2-.5-.5-.6-.9-.1-.3-.1-.6 0-.9.1-.3.3-.5.6-.8.3-.2.6-.4 1.1-.5.6-.2 1.2-.2 1.6 0 .3.4.6.7.8 1.1zm4.6 3.1c-.5.1-1 .2-1.5 0-.4-.1-.8-.4-1.1-.7-.3-.4-.6-.8-.7-1.4-.1-.5-.2-1.1-.1-1.5.1-.5.3-.9.6-1.2.3-.3.7-.6 1.2-.7.3-.1.7-.1 1-.1.3 0 .6.1.9.3.3.2.5.4.8.7.2.3.4.7.5 1.2l.1.4-4.4 1.2-.2-.8 3.2-.8-.3-.6c-.2-.2-.3-.3-.5-.3-.2-.1-.4-.1-.7 0-.3.1-.5.2-.6.4-.2.2-.3.4-.3.6-.1.2 0 .5 0 .7l.2.7c.1.3.2.6.4.8.2.2.4.3.6.4.2.1.5.1.8 0 .2 0 .3-.1.5-.2l.3-.3c.1-.1.1-.3.1-.4l1.2-.2c0 .3-.1.6-.2.9-.1.3-.4.5-.6.7-.4-.1-.7.1-1.2.2zm4.7-7.1.3 1-3.1.8-.3-1 3.1-.8zm-2.7-.6 1.3-.3 1.3 5c0 .2.1.3.2.4.1.1.2.1.3.1h.3c.1 0 .1 0 .2-.1.1 0 .1-.1.1-.1l.5.9c-.1 0-.2.1-.3.2-.1.1-.3.1-.4.2-.3.1-.6.1-.9.1-.3 0-.5-.1-.7-.3-.2-.2-.4-.4-.4-.8l-1.5-5.3zm8.3.7-1.1.4c-.1-.1-.1-.2-.3-.3-.1-.1-.2-.1-.4-.2h-.5c-.3.1-.5.2-.6.3-.1.2-.2.3-.1.5 0 .2.1.3.3.3.1.1.4.1.6.1l1-.1c.5 0 1 0 1.3.2.3.2.5.4.6.8.1.3.1.7-.1 1-.1.3-.3.6-.6.8-.3.2-.7.4-1.1.5-.7.2-1.2.2-1.7 0s-.8-.5-1-1l1.2-.4c.1.2.3.4.5.5.2.1.5.1.8 0 .3-.1.5-.2.7-.4.1-.2.2-.3.2-.5s-.1-.3-.3-.3c-.1-.1-.3-.1-.6-.1l-1 .1c-.5 0-1 0-1.3-.2-.3-.2-.5-.5-.6-.9-.1-.3-.1-.6 0-.9.1-.3.3-.5.6-.8.3-.2.6-.4 1.1-.5.6-.2 1.2-.2 1.6 0 .2.3.5.6.8 1.1z"/><path fill="#637282" d="m333.3 136.6-.3-1.2 2-6.4 1-.3.4 1.7-.6.2-1.3 4.3v.1l4.8-1.3.3 1.2-6.3 1.7zm4.3.5-.5-1.9-.1-.5-1.5-5.7 1.4-.4 2.2 8.1-1.5.4z"/><path fill="#DBDEE5" d="m345.19 104.96.676-.182 8.618 32.164-.676.182z"/><path fill="#A5ADB9" d="m361.3 110-3.4-5.6 1.2-.3 2.3 4.2h.1v-4.8l1.1-.3 2.4 4.2h.1l-.1-4.8 1.2-.3-.1 6.6-1.1.3-2.4-3.9-.1 4.6-1.2.1zm8-2c-.3.1-.6.1-.8.1-.3 0-.5-.1-.7-.3-.2-.2-.3-.4-.4-.7-.1-.3-.1-.5 0-.7s.1-.4.3-.5c.1-.1.3-.3.5-.4l.6-.3c.3-.1.5-.2.6-.2.2-.1.3-.1.3-.2.1-.1.1-.2.1-.3-.1-.2-.2-.4-.3-.5-.2-.1-.4-.1-.6 0-.3.1-.5.2-.6.3-.1.2-.2.3-.2.5l-1 .1c0-.3.1-.6.2-.8.1-.2.3-.4.6-.6.2-.2.5-.3.8-.4.2-.1.4-.1.7-.1.2 0 .5 0 .7.1.2.1.4.2.6.4.2.2.3.4.4.7l.8 3.1-1 .3-.2-.6c0 .1-.1.3-.2.4-.1.1-.2.3-.4.4-.4 0-.6.1-.8.2zm0-.9c.2-.1.4-.2.5-.3.1-.1.2-.3.3-.4 0-.2.1-.3 0-.5l-.1-.5s-.1.1-.2.1-.2.1-.3.1c-.1 0-.2.1-.3.1-.1 0-.2.1-.2.1-.2.1-.3.1-.4.2-.1.1-.2.2-.2.3-.1.1-.1.2 0 .4s.2.3.3.4h.6zm2.9-6.6 1.6 6.1-1.1.3-1.6-6.1 1.1-.3zm2.2-.5 1.6 6.1-1.1.3-1.6-6.1 1.1-.3zm4.8 5.3c-.5.1-.9.1-1.3 0s-.7-.3-1-.6c-.3-.3-.5-.7-.6-1.2-.1-.5-.1-.9-.1-1.3.1-.4.3-.8.5-1 .3-.3.6-.5 1.1-.6.3-.1.6-.1.8-.1.3 0 .5.1.8.2.2.1.5.3.7.6.2.3.3.6.4 1l.1.3-3.7 1-.2-.7 2.7-.7c-.1-.2-.2-.4-.3-.5-.1-.1-.3-.2-.5-.3-.2-.1-.4-.1-.6 0-.2.1-.4.2-.5.3-.1.1-.2.3-.3.5v.6l.2.6c.1.3.2.5.3.6.1.2.3.3.5.3.2.1.4 0 .7 0 .2 0 .3-.1.4-.2l.3-.3c.1-.1.1-.2.1-.4l1-.2c0 .3-.1.5-.2.8-.1.2-.3.5-.6.6-.1.5-.4.6-.7.7zm3.9-6.1.2.8-2.6.7-.2-.8 2.6-.7zm-2.2-.5 1.1-.3 1.2 4.3c0 .1.1.2.2.3.1.1.1.1.2.1h.3c.1 0 .1 0 .2-.1.1 0 .1 0 .1-.1l.4.8c-.1 0-.1.1-.2.1-.1.1-.2.1-.4.1-.3.1-.5.1-.8.1-.2 0-.5-.1-.6-.3-.2-.2-.3-.4-.4-.7l-1.3-4.3zm7 .6-1 .4c-.1-.1-.1-.2-.2-.2-.1-.1-.2-.1-.3-.1h-.4c-.2.1-.4.2-.5.3-.1.1-.2.3-.1.4 0 .1.1.2.2.3.1.1.3.1.6.1h.8c.5 0 .8 0 1.1.2.3.1.4.4.5.7.1.3.1.6 0 .8-.1.3-.3.5-.6.7-.3.2-.6.4-1 .5-.6.1-1 .2-1.4 0-.4-.1-.7-.4-.9-.8l1-.4c.1.2.2.3.4.4.2.1.4.1.6 0 .3-.1.4-.2.6-.3.1-.1.2-.3.1-.5 0-.1-.1-.2-.2-.3-.1-.1-.3-.1-.5-.1h-.8c-.5 0-.8 0-1.1-.2-.3-.2-.4-.4-.5-.7-.1-.3-.1-.5 0-.8.1-.3.3-.5.5-.7.2-.2.6-.3.9-.4.5-.1 1-.1 1.4 0 .4 0 .6.3.8.7z"/><path fill="#637282" d="m381.8 116.6 2.2 8.1-1.5.4-1.8-6.7-1.6 1.7-.4-1.3 1.7-1.8 1.4-.4zm7.2 6.9c-.6.2-1.1.2-1.6.1s-.9-.3-1.3-.5c-.4-.3-.6-.6-.7-1.1l1.5-.4c.1.2.2.4.4.5.2.1.4.2.6.2.2 0 .5 0 .8-.1.3-.1.5-.2.7-.4.2-.2.3-.4.4-.6.1-.2.1-.4 0-.7-.1-.2-.2-.4-.4-.6s-.4-.2-.7-.3c-.3 0-.6 0-.9.1l-.7.2-.3-1.1.7-.2c.3-.1.5-.2.7-.3.2-.2.3-.3.4-.5.1-.2.1-.4 0-.7l-.3-.6c-.1-.1-.3-.2-.5-.3h-.7c-.2.1-.5.2-.7.3-.2.1-.3.3-.4.5-.1.2-.1.4 0 .6l-1.4.4c-.1-.5-.1-.9.1-1.3s.4-.8.8-1.1c.4-.3.8-.5 1.3-.7.5-.1 1-.2 1.5-.1s.8.3 1.2.6c.3.3.5.6.6 1 .1.5.1.9-.1 1.3s-.5.7-.9.9v.1c.6-.1 1.1 0 1.5.3.4.3.7.6.8 1.2.1.5.1.9-.1 1.3s-.4.8-.8 1.1c-.4.5-.9.7-1.5.9z"/><path fill="#289548" d="m181.288 194.526 127.789-34.24 1.5 5.603-127.788 34.239z"/><path fill="#FC9F0F" d="m309.157 160.318 40.47-10.843 1.502 5.602-40.471 10.844z"/><path fill="#007DFF" d="m349.637 149.435 28.591-7.66 1.501 5.601-28.59 7.661z"/><path fill="#DE5846" d="m378.301 141.807 20.284-5.435 1.501 5.602-20.284 5.435z"/><path fill="#235B95" d="m265.4 189.7 1.6-.4 3.5 4.6h.1l.7-5.7 1.6-.4 1.9 7.1-1.2.3-1.3-4.9h-.1l-.7 5.4-.9.2-3.3-4.3h-.1l1.3 4.9-1.2.3-1.9-7.1zm13 4.3c-.5.1-1 .1-1.4 0-.4-.1-.8-.4-1.1-.7-.3-.4-.6-.8-.7-1.4-.1-.6-.2-1.1-.1-1.5.1-.5.3-.9.6-1.2.3-.3.7-.6 1.3-.7.5-.1 1-.1 1.4 0 .4.1.8.4 1.1.7.3.4.6.8.7 1.4.1.5.2 1.1.1 1.5-.1.5-.3.9-.6 1.2-.3.3-.7.5-1.3.7zm-.2-1c.3-.1.5-.2.6-.4.1-.2.2-.5.3-.7 0-.3 0-.6-.1-.9-.1-.3-.2-.6-.4-.8-.2-.2-.4-.4-.6-.5-.2-.1-.5-.1-.8 0-.3.1-.5.2-.7.4-.1.2-.2.5-.3.8 0 .3 0 .6.1.9.1.3.2.6.4.8.2.2.4.4.6.5.3-.1.6-.1.9-.1zm3.8-.1-1.4-5.3 1.2-.3.2.9h.1c0-.3.1-.6.3-.8.2-.2.4-.4.7-.5.1 0 .1 0 .2-.1h.2l.3 1.2h-.3c-.1 0-.2 0-.3.1l-.6.3c-.2.1-.3.3-.3.5-.1.2-.1.4 0 .6l.8 3.1-1.1.3zm6.1-1.5c-.5.1-1 .2-1.5 0-.4-.1-.8-.4-1.1-.7-.3-.4-.6-.8-.7-1.4-.1-.5-.2-1.1-.1-1.5.1-.5.3-.9.6-1.2.3-.3.7-.6 1.2-.7.3-.1.7-.1 1-.1.3 0 .6.1.9.3.3.2.5.4.8.7.2.3.4.7.5 1.2l.1.4-4.4 1.2-.2-.8 3.2-.8-.3-.6c-.2-.2-.3-.3-.5-.3-.2-.1-.4-.1-.7 0-.3.1-.5.2-.6.4-.2.2-.3.4-.3.6-.1.2 0 .5 0 .7l.2.7c.1.3.2.6.4.8.2.2.4.3.6.4.2.1.5.1.8 0 .2 0 .3-.1.5-.2l.3-.3c.1-.1.1-.3.1-.4l1.2-.2c0 .3-.1.6-.2.9-.1.3-.4.5-.6.7-.5-.1-.8.1-1.2.2zm8.3-2.3-2.4.6-1.9-7.1 2.5-.7c.7-.2 1.4-.2 1.9-.1.6.1 1.1.4 1.5.9s.7 1.1.9 1.8c.2.7.2 1.4.1 2-.1.6-.4 1.1-.9 1.5-.4.6-1 .9-1.7 1.1zm-1.4-.9 1.1-.3c.5-.1.9-.3 1.2-.6.3-.3.5-.6.5-1 .1-.4 0-.9-.1-1.4-.1-.5-.4-1-.6-1.3-.3-.3-.6-.5-1-.6-.4-.1-.8-.1-1.3.1l-1.1.3 1.3 4.8zm8.4-.9c-.5.1-1 .2-1.5 0-.4-.1-.8-.4-1.1-.7-.3-.4-.6-.8-.7-1.4-.1-.5-.2-1.1-.1-1.5.1-.5.3-.9.6-1.2.3-.3.7-.6 1.2-.7.3-.1.7-.1 1-.1.3 0 .6.1.9.3.3.2.5.4.8.7.2.3.4.7.5 1.2l.1.4-4.4 1.2-.2-.8 3.2-.8-.3-.6c-.2-.2-.3-.3-.5-.3-.2-.1-.4-.1-.7 0-.3.1-.5.2-.6.4-.2.2-.3.4-.3.6-.1.2 0 .5 0 .7l.2.7c.1.3.2.6.4.8.2.2.4.3.6.4.2.1.5.1.8 0 .2 0 .3-.1.5-.2l.3-.3c.1-.1.1-.3.1-.4l1.2-.2c0 .3-.1.6-.2.9-.1.3-.4.5-.6.7-.4-.1-.8.1-1.2.2zm4.6-7.1.3 1-3.1.8-.3-1 3.1-.8zm-2.6-.6 1.3-.3 1.3 5c0 .2.1.3.2.4.1.1.2.1.3.1h.3c.1 0 .1 0 .2-.1.1 0 .1-.1.1-.1l.5.9c-.1 0-.2.1-.3.2-.1.1-.3.1-.4.2-.3.1-.6.1-.9.1-.3 0-.5-.1-.7-.3-.2-.2-.4-.4-.4-.8l-1.5-5.3zm6.7 5.4c-.3.1-.7.1-1 .1-.3-.1-.6-.2-.8-.4-.2-.2-.4-.5-.5-.8-.1-.3-.1-.6 0-.8l.3-.6c.2-.2.4-.3.6-.4.2-.1.5-.2.7-.3.3-.1.5-.2.7-.3.2-.1.3-.2.4-.2.1-.1.1-.2.1-.3-.1-.3-.2-.4-.4-.5-.2-.1-.4-.1-.7 0-.3.1-.5.2-.7.4-.1.2-.2.4-.2.6l-1.2.1c0-.3.1-.7.2-.9.2-.3.4-.5.6-.7.3-.2.6-.3 1-.4.3-.1.5-.1.8-.1.3 0 .5 0 .8.1.2.1.5.2.7.4.2.2.3.5.4.8l1 3.6-1.2.3-.2-.7c0 .2-.1.3-.2.5s-.2.3-.4.4c-.3-.1-.5 0-.8.1zm.1-1c.3-.1.5-.2.6-.3.2-.2.3-.3.3-.5.1-.2.1-.4 0-.6l-.2-.6s-.1.1-.2.1c-.1.1-.2.1-.3.2-.1.1-.2.1-.3.1-.1 0-.2.1-.3.1-.2.1-.3.2-.5.3l-.3.3c-.1.1-.1.3 0 .4.1.2.2.4.4.5h.8zm3.9-.2-1.4-5.3 1.3-.3 1.4 5.3-1.3.3zm-1-6.3c-.2.1-.4 0-.6-.1-.2-.1-.3-.2-.3-.4-.1-.2 0-.4.1-.5.1-.2.3-.3.5-.3.2-.1.4 0 .6.1.2.1.3.2.3.4s0 .4-.1.5c-.1.1-.3.3-.5.3zm2.9-1.9 1.9 7.1-1.3.3-1.9-7.1 1.3-.3zm6.4 1.7-1.1.4c-.1-.1-.1-.2-.3-.3-.1-.1-.2-.1-.4-.2h-.5c-.3.1-.5.2-.6.3-.1.2-.2.3-.1.5 0 .2.1.3.3.3.1.1.4.1.6.1h1c.5 0 1 0 1.3.2.3.2.5.4.6.8.1.3.1.7-.1 1-.1.3-.3.6-.6.8-.3.2-.7.4-1.1.5-.7.2-1.2.2-1.7 0s-.8-.5-1-1l1.2-.4c.1.2.3.4.5.4.2.1.5.1.8 0 .3-.1.5-.2.7-.4.1-.2.2-.3.2-.5s-.1-.3-.3-.3c-.1-.1-.3-.1-.6-.1l-1 .1c-.5 0-1 0-1.3-.2-.3-.2-.5-.5-.6-.9-.1-.3-.1-.6 0-.9.1-.3.3-.5.6-.8.3-.2.6-.4 1.1-.5.6-.2 1.2-.2 1.6 0 .3.4.6.7.8 1.1z"/><path fill="none" stroke="#DBDEE5" stroke-width=".723" d="m144.5 146.8 261.9-70.2"/><path fill="#FFF" d="M124.139 70.649 385.898.514 396.25 39.15l-261.76 70.135z"/><path fill="#DBDEE5" d="M134.318 108.575 396.077 38.44l.181.676L134.5 109.251z"/><path fill="#235B95" d="m151.5 72.3 16.8-4.5c1.5-.4 3.1.5 3.5 2l4.5 16.8c.4 1.5-.5 3.1-2 3.5l-16.8 4.5c-1.5.4-3.1-.5-3.5-2l-4.5-16.8c-.4-1.5.5-3.1 2-3.5z"/><defs><path id="k" transform="rotate(-14.999 162.904 81.22)" d="M154.5 72.8h16.8v16.8h-16.8z"/></defs><clipPath id="l"><use xlink:href="#k" overflow="visible"/></clipPath><g clip-path="url(#l)"><path fill="#FFF" d="M164.6 89c-.5-.2-.9-.4-1.3-.6-.5-.2-.9-.5-1.4-.8-.6-.3-1.1-.7-1.6-1.1-1.3-1-2.5-2.2-3.6-3.4-.6-.8-1.2-1.5-1.7-2.4-.5-.9-1-1.9-1.4-2.9-.1-.2-.1-.5.1-.7.7-.6 1.4-1.1 2.1-1.5.7-.4 1.4-.8 2.1-1.1.8-.4 1.7-.7 2.6-1l.5-.1c.9-.2 1.8-.4 2.7-.5.8-.1 1.6-.1 2.4-.1.9 0 1.7.1 2.6.2.3.1.4.3.4.5.2 1 .2 2.1.2 3.2 0 1-.1 1.9-.2 2.9-.3 1.6-.7 3.2-1.4 4.8-.3.6-.5 1.2-.9 1.8-.3.5-.5.9-.8 1.4-.3.4-.5.8-.9 1.2-.1.1-.2.1-.3.2h-.2zm-2.4-10.2s-.9 1.6-1.5 2.8l-.5 1c-.2.4-.3.9-.3 1.5 0 .3.1.5.3.7.2.3.4.5.7.7.7.6 1.5 1.1 2.4 1.5.3.2.7.3 1 .5h.3c.1 0 .2-.1.2-.1.2-.3.5-.6.7-.9.5-.8.9-1.6 1.3-2.5.1-.3.2-.6.2-.9 0-.3 0-.5-.1-.8-.2-.5-.5-.9-1-1.1l-.8-.5-.1-.1c-1.1-.8-2.7-1.8-2.8-1.8.1 0 .1 0 0 0 .1 0 .1 0 0 0zm-.7-3 .9.9c1.2 1.1 3.2 3.1 3.7 3.5.4.3.8.5 1.1.4.3-.1.7-.4.8-1.6.1-1.3.1-2.5-.1-3.8 0-.2-.1-.4-.3-.4-.7-.1-1.4-.2-2.1-.2-.6 0-1.3 0-1.9.1-.7.1-1.5.2-2.2.4l-.4.1c-.7.2-1.4.4-2.1.8-.6.3-1.1.6-1.7.9-.6.4-1.1.8-1.7 1.2-.2.2-.1.4-.1.5.5 1.2 1 2.3 1.8 3.3.4.5.9 1.1 1.5 1 .3-.1.6-.4.8-.9.2-.7 1-3.3 1.5-4.9.2-.8.4-1.3.5-1.3-.1 0-.1 0 0 0-.1-.1-.1-.1 0 0-.1-.1-.1-.1 0 0zm-.7 7.1.6-1.1 3-.8 1.1.7-4.7 1.2zm1.1-1.9.6-1.1 1.1.7-1.7.4z"/></g><path fill="none" stroke="#637282" stroke-width="1.446" stroke-linecap="round" stroke-linejoin="round" d="m192.7 77.8 12.6-3.4m-13.7-.5 12.6-3.4m-13.6-.4 12.6-3.4"/><defs><path id="m" transform="rotate(-14.999 298.2 44.713)" d="M265.6 37.5h65.1V52h-65.1z"/></defs><clipPath id="n"><use xlink:href="#m" overflow="visible"/></clipPath><g clip-path="url(#n)"><path fill="none" stroke="#7E8A9C" stroke-width="1.446" stroke-linecap="round" stroke-linejoin="round" d="M276.2 50.8c-1.1-2.2-3.6-3.3-5.8-2.4-2.2.9-3.3 3.5-2.5 5.8.8 2.4 3.2 3.7 5.5 3.1l5.5-1.5c1.1-.3 1.9-1.3 2.1-2.5.1-1.2-.5-2.4-1.5-2.9-1.2-.5-2.5-.4-3.3.4zm0 0c.2.5.3 1.1.2 2"/><path fill="#289548" d="M279.4 44.5c-.3-1.2-1.5-1.8-2.7-1.5-1.1.3-1.8 1.5-1.5 2.7.3 1.2 1.5 1.8 2.7 1.5 1.1-.3 1.8-1.5 1.5-2.7 0 .1 0 0 0 0z"/><path fill="#DBDEE5" d="m290.04 39.438.676-.181 3.752 14.005-.676.182z"/><defs><path id="o" transform="rotate(-14.999 310.773 41.344)" d="M303.5 34.1H318v14.5h-14.5z"/></defs><clipPath id="p"><use xlink:href="#o" overflow="visible"/></clipPath><g clip-path="url(#p)" fill="none" stroke="#637282" stroke-width="1.446" stroke-linecap="round" stroke-linejoin="round"><path d="M311.1 47.1c.4.6 1.1.8 1.7.4.3-.2.6-.6.6-1m-4-10.2-.3-1.3m.3 1.3c2.3-.6 4.7.8 5.3 3.1 1 3.9 2.1 4.4 2.1 4.4l-10.1 2.7s.6-1.3-.4-4.8c-.6-2.4.8-4.8 3.1-5.4z"/></g><path fill="#DBDEE5" d="m327.044 29.543.676-.181 3.753 14.005-.676.181z"/></g><defs><path id="q" transform="rotate(-14.999 357.57 28.804)" d="M346 17.2h23.1v23.1H346z"/></defs><clipPath id="r"><use xlink:href="#q" overflow="visible"/></clipPath><g clip-path="url(#r)"><defs><path id="s" transform="rotate(-14.999 357.556 28.808)" d="M346 17.2h23.1v23.1H346z"/></defs><clipPath id="t"><use xlink:href="#s" overflow="visible"/></clipPath><g clip-path="url(#t)"><circle fill="#007DFF" cx="357.5" cy="28.8" r="11.6"/><defs><path id="u" transform="rotate(-14.999 357.552 28.794)" d="M346 17.2h23.1v23.1H346z"/></defs><clipPath id="v"><use xlink:href="#u" overflow="visible"/></clipPath><g clip-path="url(#v)"><defs><path id="w" transform="rotate(-14.999 357.552 28.794)" d="M346 17.2h23.1v23.1H346z"/></defs><clipPath id="x"><use xlink:href="#w" overflow="visible"/></clipPath><g clip-path="url(#x)"><circle fill="#3E9DFF" cx="357.5" cy="28.8" r="11.6"/><defs><filter id="y" filterUnits="userSpaceOnUse" x="336.3" y="6.7" width="33.8" height="36.2"><feColorMatrix values="1 0 0 0 0 0 1 0 0 0 0 0 1 0 0 0 0 0 1 0"/></filter></defs><mask maskUnits="userSpaceOnUse" x="336.3" y="6.7" width="33.8" height="36.2" id="z"><circle filter="url(#y)" cx="357.5" cy="28.8" r="11.6"/></mask><g mask="url(#z)"><circle transform="rotate(-14.999 358.335 18.524)" fill="#007DFF" cx="358.3" cy="18.5" r="11.8"/><ellipse transform="rotate(-14.999 348.169 31.309)" fill="#0B4DC7" cx="348.1" cy="31.3" rx="11.8" ry="11.6"/></g></g></g><path fill="#FFF" d="M358.2 28.2c.1.5.2 1 .1 1.4-.1.4-.3.8-.6 1.1-.3.3-.6.5-1.1.6-.4.1-.8.1-1.2 0-.4-.1-.7-.3-1-.6-.3-.3-.5-.7-.6-1.3-.1-.5-.2-1-.1-1.4.1-.4.3-.8.6-1.1.3-.3.6-.5 1.1-.6.4-.1.8-.1 1.2 0 .4.1.7.3 1 .6.2.4.4.8.6 1.3zm-.9.3c-.1-.4-.2-.7-.4-.9-.2-.2-.4-.4-.6-.4-.2-.1-.5-.1-.8 0-.3.1-.5.2-.6.4-.2.2-.3.4-.3.7 0 .3 0 .6.1 1s.2.7.4.9c.2.2.4.4.6.4.2.1.5.1.7 0 .3-.1.5-.2.6-.4.2-.2.3-.4.3-.7.1-.3.1-.7 0-1zm1.9-3.1 1.3 4.8-.9.2-1.3-4.8.9-.2z"/></g></g></g></g><path fill="#E6EFF9" d="m267.4 249.5 196-52.5c4.5-1.2 9.2 1.5 10.4 6l22.7 84.7c1.2 4.5-1.5 9.2-6 10.4l-196 52.5c-4.5 1.2-9.2-1.5-10.4-6l-22.7-84.7c-1.3-4.5 1.4-9.2 6-10.4z"/><path fill="#FEB933" d="m459.9 210 2.8 3.1 3.6-.6c.4 0 .7.3.5.7l-2.1 3.6 2.1 3.6c.2.3-.1.8-.5.7l-4-.9-3 2.7c-.2.2-.8.1-.8-.4v-4.3l-3.7-1.9c-.3-.2-.5-.6.1-.8l3.4-1.3.9-4.1c0-.4.4-.4.7-.1z"/><defs><path id="A" transform="rotate(-14.999 297.3 269.335)" d="M281.7 253.8h31.1v31.1h-31.1z"/></defs><clipPath id="B"><use xlink:href="#A" overflow="visible"/></clipPath><g clip-path="url(#B)"><defs><path id="C" transform="rotate(-14.999 297.296 269.335)" d="M281.7 253.8h31.1v31.1h-31.1z"/></defs><clipPath id="D"><use xlink:href="#C" overflow="visible"/></clipPath><g clip-path="url(#D)"><circle fill="#599294" cx="297.3" cy="269.3" r="15.6"/><defs><path id="E" transform="rotate(-14.999 297.295 269.335)" d="M281.7 253.8h31.1v31.1h-31.1z"/></defs><clipPath id="F"><use xlink:href="#E" overflow="visible"/></clipPath><g clip-path="url(#F)"><defs><filter id="G" filterUnits="userSpaceOnUse" x="280.3" y="261.3" width="57.9" height="49.6"><feColorMatrix values="1 0 0 0 0 0 1 0 0 0 0 0 1 0 0 0 0 0 1 0"/></filter></defs><mask maskUnits="userSpaceOnUse" x="280.3" y="261.3" width="57.9" height="49.6" id="H"><circle filter="url(#G)" cx="297.3" cy="269.3" r="15.6"/></mask><g mask="url(#H)"><path fill="#2C7A7D" d="m280.305 274.17 36.704-9.835 9.834 36.705-36.704 9.834z"/><path fill="#7EB6B8" d="m291.713 271.156 36.704-9.834 9.835 36.704-36.705 9.834z"/></g></g></g></g><path fill="#212225" d="m321 251.2 1.5-.4 3.4 4.5h.1l.7-5.6 1.5-.4 1.9 7-1.2.3-1.3-4.8h-.1l-.6 5.3-.9.2-3.2-4.3h-.1l1.3 4.8-1.2.3-1.8-6.9zm11.8 6.4c-.2 0-.3.1-.5.1h-.4v-1c.2 0 .4 0 .5-.1.1 0 .3-.1.3-.2.1-.1.1-.3.2-.5v-.3l-3.3-4.8 1.3-.3 2.3 3.6h.1l.2-4.3 1.3-.4-.5 6.4c0 .3-.1.6-.2.8-.1.2-.3.4-.5.6-.2.2-.5.3-.8.4zm7.6-4.1-2.9-4.8 1.3-.3 1.9 3.4v-3.9l1.2-.3 1.9 3.4h.1l-.1-3.9 1.3-.3-.1 5.6-1.3.3-1.9-3.3h-.1v3.8l-1.3.3zm8.5-2.2c-.3.1-.6.1-.9.1-.3 0-.5-.2-.8-.4-.2-.2-.4-.5-.5-.8-.1-.3-.1-.6 0-.8l.3-.6c.2-.2.3-.3.6-.4.2-.1.5-.2.7-.3.3-.1.5-.2.7-.3.2-.1.3-.2.4-.2.1-.1.1-.2.1-.3-.1-.3-.2-.4-.4-.5-.2-.1-.4-.1-.7 0-.3.1-.5.2-.7.4-.1.2-.2.4-.2.6l-1.2.1c0-.3.1-.6.2-.9.2-.3.4-.5.6-.7.3-.2.6-.3 1-.4.3-.1.5-.1.8-.1.3 0 .5 0 .8.1.2.1.5.2.6.4.2.2.3.5.4.8l.9 3.5-1.2.3-.2-.7c0 .2-.1.3-.2.5s-.2.3-.4.4c-.2.1-.4.2-.7.2zm.1-1 .6-.3c.2-.1.3-.3.3-.5.1-.2.1-.4 0-.6l-.2-.6s-.1.1-.2.1c-.1.1-.2.1-.3.2-.1.1-.2.1-.3.1-.1 0-.2.1-.3.1-.2.1-.3.2-.5.3l-.3.3c-.1.1-.1.3 0 .4.1.2.2.4.4.4.3.2.5.2.8.1zm3.2-7.4 1.9 7-1.2.3-1.9-7 1.2-.3zm2.5-.7 1.9 7-1.2.3-1.9-7 1.2-.3zm5.5 6.1c-.5.1-1 .2-1.4 0-.4-.1-.8-.4-1.1-.7-.3-.3-.5-.8-.7-1.3-.1-.5-.2-1-.1-1.5s.3-.9.6-1.2c.3-.3.7-.6 1.2-.7.3-.1.6-.1 1-.1.3 0 .6.1.9.3.3.2.5.4.7.7.2.3.4.7.5 1.1l.1.4-4.3 1.1-.2-.8 3.1-.8-.3-.6c-.1-.2-.3-.3-.5-.3-.2-.1-.4-.1-.7 0-.3.1-.5.2-.6.4-.2.2-.3.4-.3.6-.1.2 0 .5 0 .7l.2.7c.1.3.2.5.4.7.2.2.4.3.6.4.2.1.5.1.7 0 .2 0 .3-.1.5-.2l.3-.3c.1-.1.1-.3.1-.4l1.2-.2c0 .3-.1.6-.2.9-.1.3-.4.5-.6.7-.4.1-.7.3-1.1.4zm4.5-6.9.3 1-3 .8-.3-.9 3-.9zm-2.6-.7 1.2-.3 1.3 4.9c0 .2.1.3.2.4.1.1.2.1.3.1h.3c.1 0 .1 0 .2-.1.1 0 .1-.1.1-.1l.5.9c-.1 0-.1.1-.3.2-.1.1-.3.1-.4.2-.3.1-.6.1-.9.1-.3 0-.5-.1-.7-.3-.2-.2-.3-.4-.4-.8l-1.4-5.2zm10 4.3-.7-7.3.9-.3.7 7.3-.9.3zm-3.6-1-.1-1 5.3-1.4.1 1-5.3 1.4zm1.2 1.6-.7-7.3.9-.3.7 7.3-.9.3zm-1.4-4.1-.1-1 5.4-1.4.1 1-5.4 1.4zm8.3-5.2 1.9 7-1.3.3-1.5-5.7-1.3 1.5-.3-1.2 1.4-1.6 1.1-.3z"/><path fill="#A5ADB9" d="m327.6 273.1-1.2.3.5-6.5 1.3-.4 3.7 5.4-1.2.3-2.7-4.2-.4 5.1zm-.6-2.3 3.1-.8.2.9-3.1.8-.2-.9zm8.4-4.1c-.1-.1-.2-.3-.3-.4-.1-.1-.2-.2-.4-.2-.1-.1-.3-.1-.5-.1s-.3 0-.5.1c-.3.1-.6.2-.8.5s-.3.5-.4.9c-.1.3 0 .7.1 1.2s.3.8.5 1.1c.2.3.5.5.8.6.3.1.6.1.9 0 .3-.1.5-.2.7-.4.2-.2.3-.4.4-.6.1-.2.1-.5 0-.8h.3l-1.6.4-.2-.8 2.4-.6.2.7c.1.5.1 1 0 1.4-.1.4-.3.8-.7 1.1-.3.3-.7.5-1.2.7-.5.1-1.1.2-1.5 0-.5-.1-.9-.4-1.3-.8s-.6-.9-.8-1.5c-.1-.5-.2-.9-.1-1.3 0-.4.1-.8.3-1.1.2-.3.4-.6.7-.8.3-.2.6-.4 1-.5.3-.1.7-.1 1-.1.3 0 .6.1.9.2.3.1.5.3.7.5.2.2.4.4.5.7l-1.1-.1zm1.4-1.4-.2-.9 4.8-1.3.2.9-1.8.5 1.4 5.1-1.1.3-1.4-5.1-1.9.5zm9.1 3c-.4.1-.8.1-1.2.1-.4-.1-.7-.2-.9-.4-.3-.2-.4-.5-.5-.8-.1-.2-.1-.5 0-.7.1-.2.2-.5.3-.6.2-.2.3-.3.6-.4-.3 0-.6-.1-.9-.3-.3-.2-.4-.5-.5-.8-.1-.3-.1-.6 0-.9.1-.3.3-.5.6-.8.3-.2.6-.4 1-.5.4-.1.7-.1 1.1-.1.3.1.6.2.9.4.2.2.4.4.5.8.1.3.1.6-.1.9-.1.3-.3.5-.6.7.2 0 .5 0 .7.1.2.1.4.2.6.4.2.2.3.4.4.6.1.3.1.6-.1.9-.1.3-.3.6-.6.8-.5.3-.9.5-1.3.6zm-.2-.8c.2-.1.4-.1.6-.3.1-.1.2-.3.3-.4.1-.2.1-.3 0-.5s-.1-.3-.3-.5c-.1-.1-.3-.2-.5-.2h-.6c-.2.1-.4.1-.5.3-.1.1-.2.3-.3.5-.1.2-.1.4 0 .5 0 .2.1.3.3.4.1.1.3.2.5.2.1.1.3.1.5 0zm-.7-2.7c.2 0 .3-.1.5-.2.1-.1.2-.2.3-.4v-.5c0-.2-.1-.3-.2-.4-.1-.1-.3-.2-.4-.2h-.5c-.2.1-.3.1-.5.2-.1.1-.2.2-.3.4v.5c0 .2.1.3.2.4.1.1.3.2.4.2h.5zm6.4-.1-.7-2.6 1.1-.3 1.2 4.5-1 .3-.2-.8c0 .3-.1.5-.3.7-.2.2-.4.4-.8.5-.3.1-.6.1-.8 0-.3-.1-.5-.2-.7-.4-.2-.2-.3-.5-.4-.9l-.8-2.8 1.1-.3.7 2.7c.1.3.2.5.4.6.2.1.4.2.7.1.2 0 .3-.1.4-.2.1-.1.2-.3.3-.4-.1-.2-.1-.4-.2-.7zm6.7-4-1.1.3c-.1-.2-.2-.3-.3-.4-.1-.1-.3-.2-.4-.3-.1-.1-.3-.1-.5-.1s-.3 0-.5.1c-.3.1-.6.2-.8.5-.2.2-.3.5-.4.9-.1.3 0 .7.1 1.2s.3.8.5 1.1c.2.3.5.5.8.5.3.1.6.1.9 0 .2 0 .3-.1.5-.2.1-.1.3-.2.4-.3.1-.1.2-.3.2-.4.1-.2.1-.3.1-.5l1.1-.3c0 .3 0 .6-.1.9-.1.3-.2.6-.4.8-.2.2-.4.5-.6.6-.3.2-.6.3-.9.4-.5.1-1 .1-1.5 0s-.9-.4-1.3-.8-.6-.9-.8-1.6c-.2-.6-.2-1.2-.1-1.7s.3-1 .7-1.3c.3-.4.8-.6 1.3-.7.3-.1.7-.1 1-.1.3 0 .6.1.9.2.3.1.5.3.7.5.2.1.4.4.5.7zm5.5 4.6-.6-2.4c0 .1-.1.3-.1.4-.1.1-.2.3-.3.4-.1.1-.3.2-.6.3-.4.1-.7.1-1 0-.3-.1-.6-.3-.9-.6s-.4-.7-.6-1.2c-.1-.5-.2-.9-.1-1.3s.2-.7.5-1c.2-.3.5-.4.9-.5.3-.1.5-.1.7 0 .2 0 .4.1.5.2l.3.3h.1l-.2-.7 1-.3 1.6 6.1-1.2.3zm-1.7-2.2c.2-.1.4-.2.5-.3.1-.2.2-.4.2-.6 0-.2 0-.5-.1-.8-.1-.3-.2-.5-.3-.7-.1-.2-.3-.3-.5-.4-.2-.1-.4-.1-.6 0-.2.1-.4.2-.5.3-.1.2-.2.4-.2.6 0 .2 0 .5.1.8.1.3.2.5.3.7.1.2.3.3.5.4.1.1.4.1.6 0zm3.7-2.9.7 2.6-1.1.3-1.6-6 1-.3.6 2.2h.1c0-.3.1-.5.3-.7.2-.2.4-.4.8-.4.3-.1.6-.1.9 0 .3.1.5.2.7.4.2.2.3.5.4.9l.8 2.8-1.1.3-.7-2.7c-.1-.3-.2-.5-.4-.6-.2-.1-.4-.2-.7-.1-.2.1-.3.1-.5.3-.1.1-.2.3-.3.4 0 .1.1.3.1.6zm5.1 3.2-1.6-6.1 1-.3.2.7h.1c0-.1.1-.3.1-.4.1-.2.2-.3.3-.4.1-.1.3-.2.6-.3.3-.1.7-.1 1 0 .3.1.6.3.9.6.3.3.5.7.6 1.2.1.5.2.9.1 1.3s-.2.7-.4 1c-.2.3-.5.4-.9.5-.3.1-.5.1-.7 0-.2 0-.4-.1-.5-.2l-.3-.3.6 2.4-1.1.3zm0-4.2c.1.3.2.5.3.7.1.2.3.3.5.4.2.1.4.1.6 0 .2-.1.4-.2.5-.3.1-.2.2-.4.2-.6 0-.2 0-.5-.1-.8-.1-.3-.2-.5-.3-.7-.1-.2-.3-.3-.5-.4-.2-.1-.4-.1-.6 0-.2.1-.4.2-.5.3-.1.2-.2.4-.2.6 0 .2 0 .5.1.8zm5.4 1c-.2 0-.3 0-.5-.1s-.3-.2-.3-.4 0-.3.1-.5.2-.3.4-.3.3 0 .5.1.3.2.3.4v.3c0 .1-.1.2-.2.3-.1.1-.2.2-.3.2zm2.4-.6c-.2 0-.3 0-.5-.1s-.3-.2-.3-.4 0-.3.1-.5.2-.3.4-.3.3 0 .5.1.3.2.3.4v.3c0 .1-.1.2-.2.3-.1.1-.2.2-.3.2zm2.3-.6c-.2 0-.3 0-.5-.1s-.3-.2-.3-.4 0-.3.1-.5.2-.3.4-.3.3 0 .5.1.3.2.3.4v.3c0 .1-.1.2-.2.3-.1.1-.2.1-.3.2zm-.7-6.3 1.2-.3 2.2 2.2h.1l.8-3 1.2-.3-1.2 4.3.6 2.2-1.1.3-.6-2.2-3.2-3.2zm9.9 3.8c-.4.1-.8.1-1.2.1-.4-.1-.7-.2-.9-.4-.3-.2-.4-.5-.5-.8-.1-.2-.1-.5 0-.7.1-.2.2-.5.3-.6.2-.2.3-.3.6-.4-.3 0-.6-.1-.9-.3-.3-.2-.4-.5-.5-.8-.1-.3-.1-.6 0-.9.1-.3.3-.5.6-.8.3-.2.6-.4 1-.5.4-.1.7-.1 1.1-.1.3.1.6.2.9.4.2.2.4.4.5.8.1.3.1.6-.1.9-.1.3-.3.5-.6.7.2 0 .5 0 .7.1.2.1.4.2.6.4.2.2.3.4.4.6.1.3.1.6-.1.9-.1.3-.3.6-.6.8-.5.3-.9.5-1.3.6zm-.3-.8c.2-.1.4-.1.6-.3.1-.1.2-.3.3-.4.1-.2.1-.3 0-.5s-.1-.3-.3-.5c-.1-.1-.3-.2-.5-.2h-.6c-.2.1-.4.1-.5.3-.1.1-.2.3-.3.5-.1.2-.1.4 0 .5 0 .2.1.3.3.4.1.1.3.2.5.2.1.1.3 0 .5 0zm-.7-2.7c.2 0 .3-.1.5-.2.1-.1.2-.2.3-.4v-.5c0-.2-.1-.3-.2-.4-.1-.1-.3-.2-.4-.2h-.5c-.2 0-.3.1-.5.2-.1.1-.2.2-.3.4v.5c0 .2.1.3.2.4.1.1.3.2.4.2h.5zm4.5-.3.7 2.6-1.1.3-1.2-4.5 1-.3.2.8h.1c0-.3.1-.5.3-.7.2-.2.4-.4.8-.4.3-.1.6-.1.9 0 .3.1.5.2.7.4.2.2.3.5.4.9l.8 2.8-1.1.3-.7-2.7c-.1-.3-.2-.5-.4-.6-.2-.1-.4-.2-.7-.1-.2.1-.3.1-.5.3-.1.1-.2.3-.2.4-.1.1-.1.3 0 .5zm5.7-3.5.2.8-2.6.7-.2-.8 2.6-.7zm-.8 5-1.3-4.9c-.1-.3-.1-.6 0-.8.1-.2.2-.4.4-.6.2-.2.4-.3.7-.3.2 0 .3-.1.5-.1h.3v.9h-.4c-.2.1-.3.1-.4.3-.1.1-.1.3 0 .4l1.3 4.8-1.1.3zm1.6-5.3 1.1-.3 1.3 4.7c.1.3.1.6 0 .8-.1.2-.2.4-.4.6-.2.2-.5.3-.8.4h-.2l-.2-.9h.2c.2-.1.3-.1.4-.3.1-.1.1-.3 0-.5l-1.4-4.5zm.4-.7h-.5c-.1-.1-.2-.2-.3-.4 0-.2 0-.3.1-.5.1-.1.2-.2.4-.3.2 0 .3 0 .5.1.1.1.2.2.3.4 0 .2 0 .3-.1.5-.1 0-.3.1-.4.2zm1-1.2 1.2-.3 2.2 2.2h.1l.8-3 1.2-.3-1.2 4.3.6 2.2-1.1.3-.6-2.2-3.2-3.2zm9 4-3.3-5.5 1.2-.3 2.2 4.1h.1v-4.7l1.1-.3 2.3 4.1h.1l-.1-4.7 1.2-.3-.1 6.4-1.1.3-2.3-3.9-.1 4.5-1.2.3zm9.9-.9-.6-2.4c0 .1-.1.3-.1.4-.1.1-.2.3-.3.4-.1.1-.3.2-.6.3-.4.1-.7.1-1 0-.3-.1-.6-.3-.9-.6-.3-.3-.4-.7-.6-1.2-.1-.5-.2-.9-.1-1.3s.2-.7.5-1c.2-.3.5-.4.9-.5.3-.1.5-.1.7 0 .2 0 .4.1.5.2l.3.3h.1l-.2-.7 1-.3 1.6 6.1-1.2.3zm-1.6-2.2c.2-.1.4-.2.5-.3.1-.2.2-.4.2-.6 0-.2 0-.5-.1-.8-.1-.3-.2-.5-.3-.7-.1-.2-.3-.3-.5-.4-.2-.1-.4-.1-.6 0-.2.1-.4.2-.5.3-.1.2-.2.4-.2.6 0 .2 0 .5.1.8.1.3.2.5.3.7.1.2.3.3.5.4.1.1.3.1.6 0zm5.5-.5c-.4.1-.8.1-1.2.1-.4-.1-.7-.2-.9-.4-.3-.2-.4-.5-.5-.8-.1-.2-.1-.5 0-.7.1-.2.2-.5.3-.6.2-.2.3-.3.6-.4-.3 0-.6-.1-.9-.3-.3-.2-.4-.5-.5-.8-.1-.3-.1-.6 0-.9.1-.3.3-.5.6-.8.3-.2.6-.4 1-.5.4-.1.7-.1 1.1-.1.3.1.6.2.9.4.2.2.4.4.5.8.1.3.1.6-.1.9-.1.3-.3.5-.6.7.2 0 .5 0 .7.1.2.1.4.2.6.4.2.2.3.4.4.6.1.3.1.6-.1.9-.1.3-.3.6-.6.8-.5.3-.9.4-1.3.6zm-.3-.9c.2-.1.4-.1.6-.3.1-.1.2-.3.3-.4.1-.2.1-.3 0-.5s-.1-.3-.3-.5c-.1-.1-.3-.2-.5-.2h-.6c-.2.1-.4.1-.5.3-.1.1-.2.3-.3.5-.1.2-.1.4 0 .5 0 .2.1.3.3.4.1.1.3.2.5.2.1.1.3.1.5 0zm-.7-2.7c.2 0 .3-.1.5-.2.1-.1.2-.2.3-.4v-.5c0-.2-.1-.3-.2-.4-.1-.1-.3-.2-.4-.2h-.5c-.2.1-.3.1-.5.2-.1.1-.2.2-.3.4v.5c0 .2.1.3.2.4.1.1.3.2.4.2.2.1.3.1.5 0z"/><path fill="#4381C0" d="m286.7 300 185-49.6c4.5-1.2 9.2 1.5 10.4 6l7.3 27.3c1.2 4.5-1.5 9.2-6 10.4l-185 49.6c-4.5 1.2-9.2-1.5-10.4-6l-7.3-27.3c-1.2-4.6 1.5-9.2 6-10.4z"/><path fill="#235B95" d="m449.9 256.2 21.9-5.9c4.5-1.2 9.2 1.5 10.4 6l7.3 27.3c1.2 4.5-1.5 9.2-6 10.4l-21.8 5.9-11.8-43.7z"/><defs><path id="I" transform="rotate(-14.999 470.883 274.072)" d="M463.8 267h14.1v14.1h-14.1z"/></defs><clipPath id="J"><use xlink:href="#I" overflow="visible"/></clipPath><g clip-path="url(#J)"><path fill="none" stroke="#FFF" stroke-width="1.414" stroke-linecap="round" stroke-linejoin="round" d="m464.3 274.1 6.1-1.6-.7-2.7c-.1-.3.1-.3.3-.2 1.7.6 5.9 2.1 6.6 2.3.4.1.5.7.3 1-.4.6-3.3 4-4.5 5.3-.2.2-.3.2-.4 0l-.7-2.5-6.1 1.6"/></g><path fill="#FFF" d="m295.1 316.8 1.4-6.6-3.4.9-.3-1.1 4.7-1.3.3 1.1-1.4 6.7-1.3.3zm7.8-1.9c-.6.1-1.1.1-1.6 0-.5-.2-.9-.5-1.2-1-.4-.5-.6-1.1-.8-1.9-.2-.8-.3-1.4-.2-2 .1-.6.3-1.1.6-1.5.3-.4.8-.7 1.3-.8.6-.1 1.1-.1 1.5 0 .5.2.9.5 1.2 1 .4.5.6 1.1.8 1.8.2.8.3 1.4.2 2-.1.6-.3 1.1-.6 1.5-.2.5-.6.7-1.2.9zm-.3-1.1c.4-.1.7-.4.9-.9.1-.5.1-1.2-.1-2-.1-.6-.3-1-.5-1.3-.2-.3-.5-.6-.7-.7-.3-.1-.5-.2-.8-.1-.4.1-.7.4-.9.9-.1.5-.1 1.2.1 2 .1.6.3 1 .5 1.4.2.3.5.6.7.7.2.1.5.1.8 0zm6.7-.6c-.6.1-1.1.1-1.6 0-.5-.2-.9-.5-1.3-1s-.6-1.1-.8-1.9c-.2-.8-.3-1.4-.2-2 .1-.6.3-1.1.6-1.5.3-.4.8-.7 1.3-.8.6-.1 1.1-.1 1.5 0 .5.2.9.5 1.2 1 .4.5.6 1.1.8 1.8.2.8.3 1.4.2 2-.1.6-.3 1.1-.6 1.5-.1.5-.6.7-1.1.9zm-.3-1.1c.4-.1.7-.4.9-.9.1-.5.1-1.2-.1-2-.1-.6-.3-1-.5-1.3-.2-.3-.5-.6-.7-.7-.3-.1-.5-.2-.8-.1-.4.1-.7.4-.9.9-.1.5-.1 1.2.1 2 .1.6.3 1 .5 1.4.2.3.5.6.7.7.2.1.5.1.8 0zm4.6-.1c-.2.1-.4 0-.6-.1-.2-.1-.3-.3-.4-.5-.1-.2 0-.4.1-.6.1-.2.3-.3.5-.4.2-.1.4 0 .6.1.2.1.3.3.4.5v.4c0 .1-.1.2-.2.3-.2.2-.3.2-.4.3zm2.4-8.3c.3-.1.7-.1 1-.1.3 0 .7.1 1 .3.3.2.6.5.9.9.3.4.5.9.7 1.5.2.6.2 1.1.2 1.7 0 .5-.1.9-.2 1.3-.2.4-.4.7-.7 1-.3.3-.6.4-1.1.6-.4.1-.9.1-1.2.1-.4-.1-.7-.2-1-.5-.3-.2-.5-.5-.7-.9l1.2-.3c.1.3.3.4.6.6.2.1.5.1.8 0 .5-.1.8-.4.9-.9.1-.5.1-1.1-.1-1.8l-.3.6c-.1.2-.3.4-.5.5-.2.1-.4.2-.7.3-.4.1-.8.1-1.2 0-.4-.1-.7-.3-1-.6-.3-.3-.5-.7-.6-1.1-.1-.5-.1-.9 0-1.3s.3-.8.6-1.1c.5-.5.9-.7 1.4-.8zm.2 1c-.2.1-.4.2-.6.4-.2.2-.3.4-.3.6-.1.2-.1.5 0 .7.1.2.2.5.3.6.2.2.4.3.6.4.2.1.5.1.7 0 .2 0 .3-.1.5-.2.1-.1.3-.2.3-.4.1-.2.1-.3.2-.5v-.5l-.3-.6c-.2-.2-.4-.3-.6-.4-.3-.2-.5-.2-.8-.1zm8 4.5c-.6.1-1.1.1-1.6 0-.5-.2-.9-.5-1.2-1-.4-.5-.6-1.1-.8-1.9-.2-.8-.3-1.4-.2-2 .1-.6.3-1.1.6-1.5.3-.4.8-.7 1.3-.8.6-.1 1.1-.1 1.5 0 .5.2.9.5 1.2 1 .4.5.6 1.1.8 1.8.2.8.3 1.4.2 2-.1.6-.3 1.1-.6 1.5-.2.5-.6.7-1.2.9zm-.2-1.1c.4-.1.7-.4.9-.9.1-.5.1-1.2-.1-2-.1-.6-.3-1-.5-1.3-.2-.3-.5-.6-.7-.7-.3-.1-.5-.2-.8-.1-.4.1-.7.4-.9.9-.1.5-.1 1.2.1 2 .1.6.3 1 .5 1.4.2.3.5.6.7.7.2.1.5.1.8 0zm6.5-.7c-.5.1-.9.2-1.4.1-.4-.1-.8-.2-1.1-.5-.3-.2-.5-.6-.6-.9l1.3-.3c.1.2.2.3.3.4.1.1.3.2.5.2s.4 0 .7-.1c.2-.1.5-.2.6-.3.2-.1.3-.3.4-.5.1-.2.1-.4 0-.6-.1-.2-.2-.4-.3-.5-.2-.1-.3-.2-.6-.2-.2 0-.5 0-.8.1l-.6.2-.3-1 .6-.2.6-.3c.2-.1.3-.3.3-.5.1-.2.1-.4 0-.6-.1-.2-.1-.4-.3-.5-.1-.1-.3-.2-.5-.2h-.6c-.2.1-.4.1-.6.3-.2.1-.3.3-.3.4-.1.2-.1.4 0 .5l-1.2.3c-.1-.4-.1-.8.1-1.1.1-.4.4-.7.7-.9.3-.3.7-.5 1.2-.6.5-.1.9-.1 1.3-.1.4.1.7.2 1 .5.3.2.4.5.5.9.1.4.1.8-.1 1.1-.2.3-.4.6-.8.8v.1c.5-.1.9 0 1.3.2.3.2.6.5.7 1 .1.4.1.8-.1 1.1-.1.4-.4.7-.7 1-.2.4-.7.6-1.2.7zm3.7-1-.2-.9 1.8-3c.2-.3.3-.6.4-.8.1-.2.2-.4.2-.6v-.6c-.1-.2-.2-.4-.3-.5-.1-.1-.3-.2-.5-.3h-.6l-.6.3c-.1.1-.2.3-.3.5v.7l-1.2.3c-.1-.4-.1-.9 0-1.2.1-.4.3-.7.6-1 .3-.3.7-.5 1.1-.6.5-.1.9-.1 1.3-.1.4.1.7.2 1 .5.3.3.5.6.6 1 .1.3.1.5.1.8 0 .3-.1.6-.3 1-.2.4-.4.8-.8 1.4l-.9 1.5 3-.8.3 1.1-4.7 1.3zm8.5-2.2c-.5.1-.9.2-1.4.1-.4-.1-.8-.2-1.1-.5-.3-.2-.5-.6-.6-.9l1.3-.3c.1.2.2.3.3.4.1.1.3.2.5.2s.4 0 .7-.1c.2-.1.5-.2.6-.3.2-.1.3-.3.4-.5.1-.2.1-.4 0-.6-.1-.2-.2-.4-.3-.5-.2-.1-.3-.2-.6-.2-.2 0-.5 0-.8.1l-.6.2-.3-1 .6-.2.6-.3c.2-.1.3-.3.3-.5.1-.2.1-.4 0-.6 0-.2-.1-.4-.3-.5-.1-.1-.3-.2-.5-.2h-.6c-.2.1-.4.1-.6.3-.2.1-.3.3-.3.4-.1.2-.1.4 0 .6l-1.2.3c-.1-.4-.1-.8.1-1.1.1-.4.4-.7.7-.9.3-.3.7-.5 1.2-.6.5-.1.9-.1 1.3-.1.4.1.7.2 1 .5.3.2.4.5.5.9.1.4.1.8-.1 1.1-.2.3-.4.6-.8.8v.1c.5-.1.9 0 1.3.2.3.2.6.5.7 1 .1.4.1.8-.1 1.1-.1.4-.4.7-.7 1-.3.2-.7.5-1.2.6zm6.3-1.7c-.6.1-1.1.1-1.6 0-.5-.2-.9-.5-1.2-1-.4-.5-.6-1.1-.8-1.9-.2-.8-.3-1.4-.2-2 .1-.6.3-1.1.6-1.5.3-.4.8-.7 1.3-.8.6-.1 1.1-.1 1.5 0 .5.2.9.5 1.2 1 .4.5.6 1.1.8 1.8.2.8.3 1.4.2 2-.1.6-.3 1.1-.6 1.5-.2.5-.6.8-1.2.9zm-.3-1c.4-.1.7-.4.9-.9.1-.5.1-1.2-.1-2-.1-.6-.3-1-.5-1.3-.2-.3-.5-.6-.7-.7-.3-.1-.5-.2-.8-.1-.4.1-.7.4-.9.9-.1.5-.1 1.2.1 2 .1.6.3 1 .5 1.4.2.3.5.6.7.7.3 0 .5.1.8 0zm7.4-1-1.3.4.6-7.6 1.6-.4 4.3 6.3-1.3.4-3.3-5h-.1l-.5 5.9zm-.7-2.7 3.7-1 .3 1-3.7 1-.3-1zm6.7 1.1-1.9-7 2.6-.7c.5-.1 1-.2 1.4-.1.4.1.8.3 1 .6.3.3.5.6.6 1.1.1.4.1.9 0 1.2-.1.4-.3.7-.6 1-.3.3-.7.5-1.3.6l-1.9.5-.3-1 1.7-.5c.3-.1.6-.2.7-.3.2-.1.3-.3.3-.5.1-.2 0-.4 0-.7l-.3-.6c-.1-.1-.3-.2-.6-.3-.2 0-.5 0-.8.1l-1.2.3 1.6 5.9-1 .4zm2.8-4.1 2.6 2.7-1.4.4-2.5-2.7 1.3-.4zm3.5 2.4-1.9-7 1.3-.3.9 3.2h.1l1.9-3.9 1.5-.4-1.9 3.8 3.7 3.1-1.5.4-2.9-2.4-.5 1.1.6 2.1-1.3.3z"/><path fill="#212225" d="M300.9 331.6c-.4.1-.8.1-1.1.1-.3-.1-.6-.2-.9-.4-.2-.2-.4-.5-.5-.8l1-.3c.1.2.2.4.5.5.2.1.5.1.8 0 .2-.1.4-.2.5-.3.1-.1.2-.3.3-.5v-.6l-.3-.6c-.1-.1-.3-.2-.5-.3-.2-.1-.4-.1-.6 0-.2 0-.3.1-.5.2s-.3.2-.3.4l-1 .1-.5-3.2 3.5-.9.2.9-2.6.7.3 1.6c.1-.2.2-.3.4-.4l.6-.3c.4-.1.7-.1 1 0 .3.1.6.3.9.5.2.3.4.6.5 1 .1.4.1.8 0 1.1-.1.4-.3.7-.6.9-.3.3-.7.5-1.1.6zm3.9-2v.3c0 .3.1.5.1.8v1.4l-.7.2v-1.2c0-.3-.1-.5-.1-.8l-.1-.3.8-.4zm1.8-6.1c.3-.1.6-.1.9-.1.3 0 .6.1.9.3.3.2.5.4.8.7.2.3.4.8.6 1.3.1.5.2 1 .2 1.4 0 .4-.1.8-.2 1.1s-.3.6-.6.8c-.2.2-.6.4-.9.5-.4.1-.7.1-1.1 0-.3-.1-.6-.2-.9-.4-.2-.2-.4-.5-.6-.8l1.1-.3c.1.2.3.4.5.5.2.1.4.1.7 0 .4-.1.7-.4.8-.8.1-.4.1-.9-.1-1.6 0 .2-.1.4-.3.5-.1.2-.3.3-.4.4l-.6.3c-.3.1-.7.1-1 0-.3-.1-.6-.3-.8-.5-.2-.2-.4-.6-.5-.9-.1-.4-.1-.8 0-1.1.1-.4.3-.7.6-.9.1-.1.4-.3.9-.4zm.2.9c-.2.1-.4.2-.5.3-.1.1-.2.3-.3.5v.6c.1.2.2.4.3.5.1.1.3.2.5.3.2.1.4.1.6 0 .2 0 .3-.1.4-.2l.3-.3c.1-.1.1-.3.1-.4v-.5c-.1-.2-.2-.4-.3-.5-.1-.1-.3-.3-.5-.3-.2-.1-.4-.1-.6 0zm6.9 3.8c-.5.1-.9.1-1.3 0-.4-.2-.8-.4-1.1-.8-.3-.4-.5-.9-.7-1.6-.2-.7-.2-1.2-.2-1.7.1-.5.2-.9.5-1.3.3-.3.7-.6 1.1-.7s.9-.1 1.3 0 .8.4 1.1.8c.3.4.5.9.7 1.6.2.7.2 1.2.2 1.7-.1.5-.2.9-.5 1.3s-.7.6-1.1.7zm-.3-.9c.4-.1.6-.4.7-.8.1-.4.1-1-.1-1.7-.1-.5-.3-.9-.5-1.2-.2-.3-.4-.5-.6-.6-.2-.1-.5-.1-.7-.1-.4.1-.6.4-.7.8-.1.4-.1 1 .1 1.7.1.5.3.9.5 1.2.2.3.4.5.6.6.2.1.5.2.7.1zm4.3-6.7 1.6 6-1.1.3-1.3-4.9-1.2 1.3-.3-1 1.2-1.3 1.1-.4zm3.5 5.5c-.2 0-.3 0-.5-.1s-.3-.2-.3-.4 0-.3.1-.5.2-.3.4-.3.3 0 .5.1.3.2.3.4v.3c0 .1-.1.2-.2.3-.1.2-.2.2-.3.2zm2-7c.3-.1.6-.1.9-.1.3 0 .6.1.9.3.3.2.5.4.8.7.2.3.4.8.6 1.3.1.5.2 1 .2 1.4 0 .4-.1.8-.2 1.1-.1.3-.3.6-.6.8-.2.2-.6.4-.9.5-.4.1-.7.1-1.1 0-.3-.1-.6-.2-.9-.4-.2-.2-.4-.5-.6-.8l1.1-.3c.1.2.3.4.5.5.2.1.4.1.7 0 .4-.1.7-.4.8-.8.1-.4.1-.9-.1-1.6 0 .2-.1.4-.3.5-.1.2-.3.3-.4.4l-.6.3c-.3.1-.7.1-1 0-.3-.1-.6-.3-.8-.5-.2-.2-.4-.6-.5-.9-.1-.4-.1-.8 0-1.1.1-.4.3-.7.6-.9.2-.1.5-.3.9-.4zm.3.8c-.2.1-.4.2-.5.3-.1.1-.2.3-.3.5v.6c.1.2.2.4.3.5.1.1.3.2.5.3.2.1.4.1.6 0 .2 0 .3-.1.4-.2l.3-.3c.1-.1.1-.3.1-.4v-.5c-.1-.2-.2-.4-.3-.5-.1-.1-.3-.2-.5-.3h-.6zm6.7 3.9c-.4.1-.8.1-1.1.1-.3-.1-.6-.2-.9-.4-.2-.2-.4-.5-.5-.8l1-.3c.1.2.2.4.5.5.2.1.5.1.8 0 .2-.1.4-.2.5-.3.1-.1.2-.3.3-.5v-.6l-.3-.6c-.1-.1-.3-.2-.5-.3-.2-.1-.4-.1-.6 0-.2 0-.3.1-.5.2s-.3.2-.3.4l-1 .1-.5-3.2 3.5-.9.2.9-2.6.7.3 1.6c.1-.2.2-.3.4-.4l.6-.3c.4-.1.7-.1 1 0 .3.1.6.3.9.5.2.3.4.6.5 1 .1.4.1.8 0 1.1-.1.4-.3.7-.6.9-.3.3-.7.4-1.1.6zm7.3-8.5 1.1-.3 1 3.9c.1.4.1.8 0 1.2-.1.4-.3.7-.6 1-.3.3-.7.5-1.2.6-.5.1-.9.2-1.3.1s-.8-.3-1-.5c-.3-.3-.5-.6-.6-1l-1-3.9 1.1-.3 1 3.8c.1.2.2.5.3.6.2.2.4.3.6.3.2.1.5 0 .8 0 .3-.1.5-.2.7-.4.2-.2.3-.4.3-.6.1-.2.1-.5 0-.7l-1.2-3.8zm6 .2c-.1-.2-.3-.4-.5-.5-.2-.1-.5-.1-.8 0-.2.1-.4.1-.6.3-.1.1-.2.2-.3.4-.1.1-.1.3 0 .4 0 .1.1.2.2.3.1.1.2.1.3.2.1 0 .2.1.4.1h1.7c.2 0 .4.1.7.2.2.1.4.2.5.4.1.2.3.4.3.6.1.3.1.7 0 1-.1.3-.3.6-.6.8-.3.2-.7.4-1.2.5-.5.1-.9.2-1.3.1s-.7-.2-1-.4c-.3-.2-.5-.5-.6-.9l1.1-.3c.1.2.2.4.3.5.1.1.3.2.5.2s.4 0 .6-.1l.6-.3c.2-.1.3-.3.3-.4.1-.2.1-.3 0-.5 0-.2-.1-.3-.2-.3-.1-.1-.3-.1-.4-.2h-1.3c-.5 0-1-.1-1.3-.3-.4-.2-.6-.5-.7-.9-.1-.4-.1-.7 0-1 .1-.3.3-.6.6-.8.3-.2.6-.4 1.1-.5.4-.1.8-.1 1.2-.1.4.1.7.2.9.4.3.2.4.5.5.8l-1 .3zm5.2 3.2-2 .5-1.6-6 2.1-.6c.6-.2 1.1-.2 1.6-.1s.9.4 1.3.8.6.9.8 1.5c.2.6.2 1.2.1 1.7s-.3.9-.7 1.3c-.5.5-1 .7-1.6.9zm-1.2-.7.9-.2c.4-.1.7-.3 1-.5.2-.2.4-.5.4-.9.1-.3 0-.7-.1-1.2s-.3-.8-.5-1.1c-.2-.3-.5-.4-.8-.5-.3-.1-.7-.1-1.1 0l-.9.2 1.1 4.2z"/></svg>