<svg width="127" height="58" viewBox="0 0 127 58" fill="none" xmlns="http://www.w3.org/2000/svg">
<path d="M61.6113 7.57705L82.5005 28.625L69.1811 42.2775M61.8885 49.7524L65.0169 46.5458M98.8367 49.5877L119.449 28.4603L102.861 11.7466M100.306 9.1717L98.5595 7.41235" stroke="#42B263" stroke-width="2" stroke-linecap="round" stroke-linejoin="round"/>
<path d="M61.6113 7.5769L82.5005 28.6248L69.1811 42.2773M61.8885 49.7522L65.0169 46.5456" stroke="#60C07C" stroke-width="2" stroke-linecap="round" stroke-linejoin="round"/>
<path d="M25.7873 31.5713L28.4976 28.8609L25.4132 25.8279M12.703 44.6556L1 56.3585H25.2896L52.3289 28.8609L25.2896 1.82153L1 1.82153L13.6179 14.2291M17.2754 17.8257L23.0397 23.4939M25.5794 7.74015L46.4686 28.7881L25.8566 49.9155M50.567 14.0649L65.4467 28.6966L37.9491 56.1943H49.5923" stroke="#B0DBBC" stroke-width="2" stroke-linecap="round" stroke-linejoin="round"/>
<path d="M99.1056 31.0486L101.816 28.3382L98.7316 25.3052M86.0214 44.1328L74.3184 55.8358H98.608L125.647 28.3382L98.608 1.29883L74.3184 1.29883L86.9363 13.7064M90.5938 17.303L96.3581 22.9712M69.1155 8.53591L62.2378 1.65828L37.9482 1.65828L45.908 9.48538M78.1738 17.5943L73.8124 13.2328M81.2806 20.701L89.2772 28.6976L62.2378 56.1953H56.4079" stroke="#289548" stroke-width="2" stroke-linecap="round" stroke-linejoin="round"/>
<path d="M69.1164 8.53584L62.2388 1.6582L37.9492 1.6582L45.909 9.48531M78.1748 17.5942L73.8134 13.2328M81.2815 20.7009L89.2781 28.6975L62.2388 56.1952H56.4089" stroke="#60C07C" stroke-width="2" stroke-linecap="round" stroke-linejoin="round"/>
</svg>
