<svg viewBox="0 0 127 58" xmlns="http://www.w3.org/2000/svg"><path d="M61.612 7.577 82.5 28.625 69.18 42.278m-7.292 7.474 3.128-3.206m33.82 3.042 20.612-21.128-16.588-16.713m-2.555-2.575-1.746-1.76" fill="none" stroke="#77B9FE" stroke-width="2" stroke-linecap="round" stroke-linejoin="round"/><path d="M61.612 7.577 82.5 28.625 69.18 42.277m-7.292 7.475 3.128-3.207" fill="none" stroke="#B6D7F8" stroke-width="2" stroke-linecap="round" stroke-linejoin="round"/><path d="m52.329 28.86.713.702a1 1 0 0 0-.006-1.408l-.707.707zM25.289 1.823l.708-.708a1 1 0 0 0-.707-.292v1zM1 1.822v-1a1 1 0 0 0-.701 1.713L1 1.822zm0 54.537-.707-.708A1 1 0 0 0 1 57.36v-1zm24.29 0v1a1 1 0 0 0 .713-.3l-.713-.7zm3.208-27.498.707.707a1 1 0 0 0-.006-1.42l-.701.713zm-3.418 2.003a1 1 0 1 0 1.414 1.414l-1.414-1.414zM13.41 45.363a1 1 0 0 0-1.414-1.414l1.414 1.414zm-.493-30.42a1 1 0 1 0 1.402-1.427l-1.402 1.426zm13.197 10.172a1 1 0 0 0-1.402 1.426l1.402-1.426zm-8.137-8.002a1 1 0 0 0-1.403 1.426l1.402-1.426zm4.362 7.094a1 1 0 1 0 1.402-1.426l-1.402 1.426zm24.13 4.581.715.698a1 1 0 0 0-.006-1.402l-.71.704zM26.289 7.036a1 1 0 0 0-1.42 1.409l1.42-1.41zm-1.148 42.181a1 1 0 0 0 1.431 1.397l-1.431-1.397zm40.306-20.52.707.707a1 1 0 0 0-.006-1.42l-.701.713zM37.949 56.194l-.707-.707a1 1 0 0 0 .707 1.707v-1zm13.32-42.842a1 1 0 1 0-1.403 1.426l1.402-1.426zm-1.677 43.842a1 1 0 0 0 0-2v2zm3.444-29.04-27.04-27.04-1.413 1.415 27.039 27.039 1.414-1.414zM25.29.822H1v2h24.29v-2zM1 57.359h24.29v-2H1v2zm25.003-.3 27.039-27.497-1.426-1.402-27.04 27.497 1.427 1.403zm1.788-28.905-2.71 2.71 1.413 1.414 2.71-2.71-1.413-1.414zM11.996 43.949.293 55.651l1.414 1.414L13.41 45.363l-1.414-1.414zM.299 2.535l12.618 12.407 1.402-1.426L1.701 1.11.3 2.535zM24.712 26.54l3.085 3.033 1.402-1.426-3.085-3.033-1.402 1.426zm-8.138-8.002 5.765 5.668 1.402-1.426-5.764-5.668-1.403 1.426zm30.604 9.545L26.29 7.036l-1.42 1.409 20.89 21.047 1.42-1.408zm-20.606 22.53 20.612-21.128-1.431-1.396L25.14 49.217l1.431 1.397zm11.377 6.58h11.643v-2H37.95v2zM64.74 27.99 37.243 55.487l1.414 1.414 27.498-27.497-1.414-1.414zM49.867 14.778l14.88 14.632 1.402-1.426-14.88-14.632-1.402 1.426z" fill="#E6EFF9"/><path d="m125.648 28.338.713.701a1 1 0 0 0-.006-1.408l-.707.707zm-27.04-27.04.708-.706a1 1 0 0 0-.707-.293v1zm-24.29 0v-1a1 1 0 0 0-.7 1.714l.7-.713zm0 54.538-.706-.707a1 1 0 0 0 .707 1.707v-1zm24.29 0v1a1 1 0 0 0 .713-.299l-.712-.701zm3.209-27.498.707.707a1.003 1.003 0 0 0-.006-1.42l-.701.713zm-3.418 2.003a1 1 0 0 0 1.414 1.415L98.4 30.34zM86.729 44.84a1 1 0 0 0-1.414-1.414l1.414 1.414zm-.493-30.42a1 1 0 0 0 1.402-1.427l-1.402 1.426zm13.197 10.172a1 1 0 1 0-1.402 1.426l1.402-1.426zm-8.138-8.002a1 1 0 0 0-1.402 1.426l1.402-1.426zm4.362 7.094a1 1 0 1 0 1.403-1.426l-1.403 1.426zm30.698 3.947L99.315.591l-1.414 1.415 27.04 27.04 1.414-1.415zM98.609.3h-24.29v2h24.29v-2zm-24.29 56.537h24.29v-2h-24.29v2zm25.002-.299 27.04-27.498-1.426-1.402-27.04 27.498 1.427 1.402zm1.788-28.906-2.71 2.71 1.414 1.415 2.711-2.71-1.415-1.415zM85.315 43.426 73.612 55.129l1.414 1.414L86.729 44.84l-1.414-1.414zM73.618 2.012l12.618 12.407 1.402-1.426L75.02.586l-1.402 1.426zM98.03 26.018l3.084 3.033 1.403-1.426-3.085-3.033-1.402 1.426zm-8.138-8.002 5.764 5.668 1.403-1.426-5.765-5.668-1.402 1.426z" fill="#007DFF"/><path d="m62.238 1.658.707-.707a1 1 0 0 0-.707-.293v1zm-24.29 0v-1a1 1 0 0 0-.7 1.713l.7-.713zm24.29 54.537v1a1 1 0 0 0 .713-.299l-.713-.7zm27.04-27.497.713.7a1 1 0 0 0-.006-1.407l-.707.707zM68.408 9.243a1 1 0 0 0 1.415-1.414L68.41 9.243zm9.06 9.058a1 1 0 0 0 1.413-1.414l-1.414 1.414zm-2.948-5.775a1 1 0 0 0-1.414 1.414l1.414-1.414zm7.468 7.468a1 1 0 0 0-1.414 1.414l1.414-1.414zm-36.78-9.796a1 1 0 1 0 1.402-1.426l-1.403 1.426zm11.2 44.997a1 1 0 1 0 0 2v-2zM62.238.658h-24.29v2h24.29v-2zm.713 56.238L89.991 29.4l-1.426-1.402-27.04 27.497 1.426 1.402zM69.823 7.83 62.945.95l-1.414 1.414 6.878 6.878 1.414-1.414zm9.058 9.058-4.361-4.361-1.414 1.414 4.361 4.361 1.414-1.414zm11.104 11.104-7.997-7.997-1.414 1.414 7.997 7.997 1.414-1.415zM37.248 2.37l7.96 7.827 1.402-1.426L38.65.945l-1.402 1.426zm19.16 54.824h5.83v-2h-5.83v2z" fill="#B6D7F8"/></svg>