<svg width="127" height="58" fill="none" xmlns="http://www.w3.org/2000/svg"><path d="m61.611 7.577 20.89 21.048-13.32 13.653m-7.292 7.474 3.128-3.206m33.82 3.042 20.612-21.128-16.588-16.713m-2.555-2.575-1.746-1.76" stroke="#42B263" stroke-width="2" stroke-linecap="round" stroke-linejoin="round"/><path d="m61.611 7.577 20.89 21.048-13.32 13.652m-7.292 7.475 3.128-3.206" stroke="#60C07C" stroke-width="2" stroke-linecap="round" stroke-linejoin="round"/><path d="m25.787 31.571 2.71-2.71-3.084-3.033m-12.71 18.828L1 56.359h24.29L52.329 28.86 25.289 1.82H1L13.618 14.23m3.657 3.597 5.765 5.668M25.58 7.74l20.889 21.048-20.612 21.128m24.71-35.851 14.88 14.632-27.498 27.497h11.643" stroke="#B0DBBC" stroke-width="2" stroke-linecap="round" stroke-linejoin="round"/><path d="m99.106 31.049 2.71-2.71-3.084-3.034m-12.71 18.828L74.317 55.836h24.29l27.039-27.498-27.039-27.04h-24.29l12.618 12.408m3.658 3.597 5.764 5.668M69.115 8.536l-6.877-6.878h-24.29l7.96 7.827m32.266 8.11-4.362-4.362m7.469 7.468 7.996 7.997-27.04 27.497h-5.83" stroke="#289548" stroke-width="2" stroke-linecap="round" stroke-linejoin="round"/><path d="M69.116 8.536 62.24 1.658h-24.29l7.96 7.827m32.266 8.11-4.362-4.362m7.468 7.468 7.997 7.997-27.04 27.497h-5.83" stroke="#60C07C" stroke-width="2" stroke-linecap="round" stroke-linejoin="round"/></svg>