<svg xmlns="http://www.w3.org/2000/svg" fill="none" viewBox="0 0 20 20"><path fill="#3170d1" d="M4.1 15.75H.85L5.6 6.4H.1V4h8.45v2.2zm15.8-4.15c0 .6-.1 1.15-.25 1.65-.2.55-.45 1-.75 1.4-.35.4-.75.7-1.2.95-.5.25-1.05.35-1.65.35-.55 0-1.05-.1-1.55-.35s-.85-.55-1.1-1h-.05v1.1h-2.5V5.6L13.5 4v4.35h.05c.25-.3.55-.55.95-.75.4-.25.95-.35 1.55-.35s1.15.1 1.6.35c.5.25.9.55 1.2.95.35.4.6.85.75 1.4.25.5.3 1.05.3 1.65m-2.6 0c0-.25-.05-.55-.15-.8s-.2-.5-.35-.65c-.15-.2-.35-.35-.6-.5-.25-.1-.5-.2-.85-.2-.3 0-.6.05-.8.2-.25.1-.45.3-.65.5-.15.2-.3.45-.4.7s-.15.5-.15.8c0 .25.05.55.15.8s.25.5.4.7c.2.2.4.35.65.5.25.1.5.2.8.2s.6-.05.85-.2c.25-.1.45-.3.6-.5s.3-.45.35-.7c.15-.35.15-.6.15-.85"/></svg>