<svg width="611" height="353" fill="none" xmlns="http://www.w3.org/2000/svg"><path d="M33 48c0-11.046 8.954-20 20-20h445c11.046 0 20 8.954 20 20v264c0 11.046-8.954 20-20 20H53c-11.046 0-20-8.954-20-20V48Z" fill="#3C4249"/><path d="M182.708 321.615 119.816 86.896c-2.725-10.167 3.309-20.618 13.476-23.342l34.978-9.372m31.296-8.386L326 11.918M177.935 51.592l9.204-2.466m218.417-15.117 16.904 63.084" stroke="#637282" stroke-width="2" stroke-linecap="round"/><path d="M122.012 49h-2v7h-7v2h7v7h2v-7h7v-2h-7v-7Zm-22 0h-2v7h-7v2h7v7h2v-7h7v-2h-7v-7Zm-23.75 58.885h2v-7h7v-2h-7v-7h-2v7h-7v2h7v7Zm22-22h2v-7h7v-2h-7v-7h-2v7h-7v2h7v7Zm0 22h2v-7h7v-2h-7v-7h-2v7h-7v2h7v7Zm0 22h2v-7h7v-2h-7v-7h-2v7h-7v2h7v7Z" fill="#637282"/><path d="m119.18 106.602 12.011 44.826m344.886 123.663-36.583-143.495" stroke="#0D7ED6" stroke-width="2" stroke-linecap="round"/><path d="M92.777 213.037a11.44 11.44 0 0 1 11.462 0l22.038 12.756a11.494 11.494 0 0 1 5.731 9.95v25.51c0 4.105-2.185 7.898-5.731 9.951l-22.038 12.755a11.44 11.44 0 0 1-11.462 0L70.74 271.204a11.497 11.497 0 0 1-5.731-9.951v-25.51c0-4.105 2.184-7.898 5.73-9.95l22.04-12.756Z" fill="#637282"/><path d="m77.621 207.068 11.932-6.925a15.836 15.836 0 0 1 15.909 0l5.824 3.38m9.091 5.276 2.932 1.701m-49.051 79.481 15.295 8.876a15.836 15.836 0 0 0 15.909 0l30.591-17.753a16.008 16.008 0 0 0 7.955-13.85v-55.508c0-5.746 0-10.246-2.5-19.246-2-7.2-6.501-25-9.002-34.5m-4.998 54.937 3.5 2.031m27 41.032-6.886-26.5m-82.114-89.791v7.581c0 2.829-1.478 5.444-3.878 6.858l-14.911 8.791a7.62 7.62 0 0 1-7.755 0l-7.456-4.396m-12-15.875v4.362a7.964 7.964 0 0 0 4.047 6.914l2.683 1.528" stroke="#637282" stroke-width="2" stroke-linecap="round"/><path d="M43.522 151.016a3.151 3.151 0 0 0 2.06.518l8.002-1.047c2.302-.277 3.185-.203 3.693-2.687.441-2.155 1.184-5.296 1.323-6.465m-15.078 9.681a3.156 3.156 0 0 1-1.264-1.708l-.753-2.808m2.017 4.516 1.984-7.87m-6.643-6.508-13.23 1.544a3.146 3.146 0 0 1-2.06-.517m15.29-1.027 1.788-7.808m-1.788 7.808 1.712 6.391m-17.002-5.364a3.151 3.151 0 0 1-1.264-1.708l-2.716-10.136c-.469-1.747-.516-2.753.18-3.958.695-1.205 1.587-3.368 2.002-3.932m1.798 19.734 2.06-7.867m31.807 4.672 9.203-1.075c2.32-.269 2.845-.842 3.15-2.236.245-1.114.611-5.322.764-7.287M33.97 100.151a2.222 2.222 0 0 0-.302 1.893l3.395 12.67-3.81.444m.717-15.007a2.218 2.218 0 0 1 1.664-.95l9.26-1.08a3.152 3.152 0 0 1 3.325 2.224l3.395 12.67 6.49-.757M33.97 100.151c-.215.528-2.58 2.982-2.96 4.102-.378 1.12-.208 1.754.216 3.338l2.028 7.567m35.324 10.25a2.213 2.213 0 0 0 1.664-.95 2.222 2.222 0 0 0 .302-1.893l-2.376-8.869a3.15 3.15 0 0 0-3.325-2.225l-3.341.39m-28.248 3.297-9.42 1.1a2.213 2.213 0 0 0-1.666.95 2.215 2.215 0 0 0-.302 1.893l2.377 8.87a3.153 3.153 0 0 0 3.325 2.225l4.431-.518m6.003-.701 2.795-.326 3.395 12.67a3.156 3.156 0 0 0 3.325 2.226l9.26-1.081a2.226 2.226 0 0 0 1.664-.951 2.21 2.21 0 0 0 .302-1.892l-3.395-12.67 10.154-1.186" stroke="#0D7ED6" stroke-width="2" stroke-linecap="round" stroke-linejoin="round"/><path d="M97.008 180v17.5" stroke="#637282" stroke-width="2" stroke-linecap="round" stroke-linejoin="round"/><path d="M109.004 170.576a5.87 5.87 0 0 1-2.923 5.075l-6.14 3.559a5.852 5.852 0 0 1-5.875 0l-6.139-3.559a5.857 5.857 0 0 1-2.923-5.075v-7.152a5.87 5.87 0 0 1 2.923-5.075l6.14-3.559a5.863 5.863 0 0 1 5.875 0l6.139 3.559a5.857 5.857 0 0 1 2.923 5.075v7.152Z" fill="#637282" stroke="#637282" stroke-width="2" stroke-linecap="round" stroke-linejoin="round"/><path d="m81.496 154.5-12.5-7M84.5 161.491l-6-3.533m-5-2.944-5-2.944" stroke="#637282" stroke-width="2" stroke-linecap="round"/><path d="M51.003 239.504v-7.759a16.01 16.01 0 0 1 7.955-13.85l11.698-6.789M51.003 248.5v18.753a16.006 16.006 0 0 0 7.955 13.849l10.545 6.121" stroke="#0D7ED6" stroke-width="2" stroke-linecap="round"/><path d="m93.264 227.179 2.275-1.31a6.52 6.52 0 0 1 6.503 0l14.267 8.215a6.514 6.514 0 0 1 3.264 5.646v16.398a6.517 6.517 0 0 1-3.264 5.647l-14.267 8.215a6.522 6.522 0 0 1-6.503 0l-14.267-8.215a6.514 6.514 0 0 1-3.264-5.646v-16.397a6.517 6.517 0 0 1 3.264-5.647l7.963-4.585" stroke="#72BFFB" stroke-width="2" stroke-linecap="round"/><path d="M98.777 270.345v-2.8m0-3.69v-5.676m0-4.215v-2.956a4.889 4.889 0 0 1 2.449-4.235l17.315-10.043" stroke="#72BFFB" stroke-width="2" stroke-linecap="round"/><path d="M100.898 246.975a4.043 4.043 0 0 1-4.008 0l-5.61-3.207m-8.82-5.043 5.67 3.242" stroke="#72BFFB" stroke-width="2" stroke-linecap="round"/><path d="m485.498 338.5-56.817-217.532" stroke="#637282" stroke-width="2" stroke-linecap="round"/><path d="M493.258 190.885h2v-7h7v-2h-7v-7h-2v7h-7v2h7v7Zm0-43h2v-7h7v-2h-7v-7h-2v7h-7v2h7v7Zm0 65h2v-7h7v-2h-7v-7h-2v7h-7v2h7v7Zm22-22h2v-7h7v-2h-7v-7h-2v7h-7v2h7v7Zm0-22h2v-7h7v-2h-7v-7h-2v7h-7v2h7v7Zm0-21h2v-7h7v-2h-7v-7h-2v7h-7v2h7v7Zm-44 43h2v-7h7v-2h-7v-7h-2v7h-7v2h7v7Z" fill="#637282"/><path d="M506.059 30.501s2.063 2.44 6.933 6.984a34.54 34.54 0 0 1 6.529 8.358c5.314 9.432 6.382 21.058 3.882 32.663m-87.407 36.726s5.273 4.842 8.933 7.582c12.82 9.594 31.876 9.196 48.996-1.86m27.597-35.63c-4.04 12.002-11.813 23.509-22.553 32.012m-27.58 1.881s2.994 2.855 7.862 7.696m1.556-12.038s3.647 3.508 8.515 8.35" stroke="#637282" stroke-width="2" stroke-linecap="round" stroke-linejoin="round"/><path d="M486.316 103.376c20.287-16.062 28.252-44.139 17.789-62.712-10.462-18.574-35.391-20.611-55.678-4.549m-17.789 62.712c9.343 16.586 30.221 19.985 49.028 9.086m-36.488-67.11a60.9 60.9 0 0 0-8.356 10.507m60.265-20.649c-6.921-3.241-15.173-3.84-23.588-1.703m-28.619 81.795c-3.341-2.519-5.982-5.852-8.014-9.51-10.463-18.573-2.499-46.65 17.788-62.712 3.761-2.977 7.682-5.333 11.64-7.076" stroke="#637282" stroke-width="2" stroke-linecap="round" stroke-linejoin="round"/><path d="m471.604 58.645-33.214 30.11 37.533-46.816 13.788 50.63-18.107-33.925Zm-17.342 21.13 5.665-5.205 15.072.874 2.986 5.843-23.723-1.512Zm9.82-8.923 5.779-5.255 2.984 5.728-8.763-.473Z" fill="#212225"/><path d="m486.077 79.223 3.634 13.345-18.107-33.923-8.15 7.388m21.488 9.025-2.481-9.11m-1.985-7.288-4.553-16.72-37.533 46.814 12.005-10.882m9.904-8.979-5.298 4.803m-.739 6.079 5.665-5.205 15.072.874 2.986 5.843-23.723-1.512Zm9.82-8.923 5.779-5.255 2.984 5.728-8.763-.473Z" stroke="#7E8A9C" stroke-width="2" stroke-linecap="round" stroke-linejoin="round"/><path d="M489.667 108.779c-23.416 18.538-52.188 16.187-64.264-5.25-1.676-2.974-2.942-6.158-3.817-9.488m73.31 10.146a70.166 70.166 0 0 0 10.887-13.61m5.986-12.355c5.285-14.48 5.17-29.86-1.57-41.825-12.076-21.438-40.848-23.788-64.264-5.25a68.889 68.889 0 0 0-7.819 7.247 70.29 70.29 0 0 0-7.329 9.421" stroke="#637282" stroke-width="2" stroke-linecap="round" stroke-linejoin="round"/><path d="m468.563 142.7.146-12.077" stroke="#637282" stroke-width="2" stroke-linecap="round"/><path d="M481.724 159.896a6.573 6.573 0 0 1-3.28 5.691l-6.889 3.99a6.57 6.57 0 0 1-6.593 0l-6.889-3.99a6.573 6.573 0 0 1-3.28-5.691v-8.019a6.576 6.576 0 0 1 3.28-5.691l6.889-3.99a6.58 6.58 0 0 1 6.593 0l6.889 3.99a6.575 6.575 0 0 1 3.28 5.691v8.019Z" fill="#212225" stroke="#637282" stroke-width="2" stroke-linecap="round" stroke-linejoin="round"/><path d="M466.541 147.441a2.815 2.815 0 0 1 2.813 0l5.408 3.117a2.808 2.808 0 0 1 1.406 2.432v6.235c0 1.003-.536 1.93-1.406 2.431l-5.408 3.118a2.82 2.82 0 0 1-2.813 0l-5.408-3.118a2.806 2.806 0 0 1-1.406-2.431v-6.235c0-1.003.536-1.93 1.406-2.432l5.408-3.117Z" fill="#3C4249"/><g clip-path="url(#a)"><g clip-path="url(#b)"><rect x="124" y="70.139" width="271" height="869.368" rx="12" transform="rotate(-15 124 70.14)" fill="#212225"/><path d="m135.172 109.042 261.766-70.14 9.913 36.997-261.766 70.14-9.913-36.997Z" fill="#121213"/><path d="m163.811 125.763-2.448-9.138 3.426-.919c.702-.188 1.327-.215 1.873-.08a2.699 2.699 0 0 1 1.373.789c.369.389.631.873.787 1.453.157.586.173 1.14.048 1.661a2.745 2.745 0 0 1-.805 1.369c-.413.388-.972.676-1.677.865l-2.271.608-.364-1.361 2.048-.548c.41-.11.727-.272.951-.485.223-.213.364-.461.422-.744a1.93 1.93 0 0 0-.039-.913 1.905 1.905 0 0 0-.421-.805 1.358 1.358 0 0 0-.739-.419c-.299-.07-.656-.049-1.069.062l-1.517.406 2.078 7.755-1.656.444Zm10.942-2.789c-.669.18-1.289.188-1.858.025a3.108 3.108 0 0 1-1.474-.93c-.409-.458-.709-1.041-.899-1.749-.189-.708-.222-1.364-.097-1.968.128-.605.398-1.12.81-1.546.412-.426.953-.729 1.622-.908.669-.18 1.289-.188 1.859-.025a3.073 3.073 0 0 1 1.47.936c.413.46.715 1.044.904 1.752.19.707.22 1.362.092 1.964a3.073 3.073 0 0 1-.807 1.541c-.412.426-.953.729-1.622.908Zm-.338-1.296c.363-.097.64-.278.831-.543.189-.268.298-.587.326-.958a3.46 3.46 0 0 0-.12-1.182 3.463 3.463 0 0 0-.488-1.089 1.87 1.87 0 0 0-.763-.671c-.299-.137-.629-.156-.992-.059-.372.099-.654.284-.847.552a1.911 1.911 0 0 0-.33.964c-.028.371.014.766.127 1.185.111.417.272.778.482 1.086.213.306.468.528.766.665.3.133.637.15 1.008.05Zm4.957-.085-1.836-6.853 1.566-.42.306 1.142.071-.019c.019-.429.152-.791.398-1.087.248-.299.568-.501.961-.606.089-.024.19-.047.303-.067.114-.024.211-.039.289-.044l.398 1.486a1.695 1.695 0 0 0-.342.024 3.12 3.12 0 0 0-.432.083 1.694 1.694 0 0 0-.743.404 1.456 1.456 0 0 0-.409.67c-.074.258-.072.534.006.825l1.079 4.029-1.615.433Zm6.936-9.204.335 1.249-3.94 1.056-.335-1.249 3.94-1.056Zm-3.407-.847 1.615-.433 1.724 6.435c.058.217.136.374.232.473a.547.547 0 0 0 .33.16c.121.012.249.001.383-.035.101-.027.191-.06.27-.097.083-.038.144-.069.186-.093l.61 1.19a3.193 3.193 0 0 1-.907.416c-.401.12-.782.156-1.142.11a1.766 1.766 0 0 1-.942-.427c-.264-.236-.452-.568-.563-.997l-1.796-6.702Zm8.229-.445.335 1.249-4.052 1.086-.334-1.249 4.051-1.086Zm-1.202 7.668-2.01-7.501c-.123-.461-.131-.87-.023-1.227.112-.359.309-.657.593-.896.283-.238.623-.41 1.018-.516.28-.075.534-.12.763-.133.23-.014.401-.017.515-.009l.013 1.336a2.708 2.708 0 0 0-.275.006c-.111.005-.23.024-.358.058-.3.08-.494.21-.579.39-.084.175-.09.397-.018.664l1.981 7.394-1.62.434Zm7.071-1.752c-.669.18-1.289.188-1.858.025a3.108 3.108 0 0 1-1.474-.93c-.409-.458-.709-1.04-.899-1.748-.189-.708-.222-1.364-.097-1.969.128-.605.398-1.12.81-1.546.412-.426.953-.729 1.622-.908.669-.179 1.289-.188 1.859-.025a3.073 3.073 0 0 1 1.47.936c.413.46.715 1.044.904 1.752.19.708.22 1.363.092 1.965a3.074 3.074 0 0 1-.807 1.54c-.412.426-.953.729-1.622.908Zm-.338-1.296c.363-.097.64-.278.831-.543.189-.267.298-.587.326-.958a3.462 3.462 0 0 0-.12-1.182 3.484 3.484 0 0 0-.488-1.089 1.86 1.86 0 0 0-.763-.67c-.299-.137-.629-.157-.992-.06-.372.1-.654.284-.847.552a1.911 1.911 0 0 0-.33.964c-.028.371.014.766.127 1.185.111.417.272.779.482 1.086.213.306.468.528.766.665.301.133.637.15 1.008.05Zm4.124-9.655 2.448 9.138-1.615.432-2.448-9.138 1.615-.432Zm4.109 8.693-1.836-6.854 1.615-.433 1.837 6.854-1.616.433Zm-1.285-8.044a.978.978 0 0 1-.728-.078.849.849 0 0 1-.443-.546.84.84 0 0 1 .111-.694.967.967 0 0 1 .591-.436.955.955 0 0 1 .729.082c.23.12.378.302.443.546a.847.847 0 0 1-.11.694.966.966 0 0 1-.593.432Zm7.587 6.498c-.669.18-1.289.188-1.859.025a3.11 3.11 0 0 1-1.473-.93c-.41-.458-.709-1.04-.899-1.748-.19-.708-.222-1.364-.097-1.969.128-.605.398-1.12.81-1.546.412-.426.952-.729 1.622-.908.669-.179 1.289-.188 1.858-.025.57.163 1.06.475 1.47.936.414.46.715 1.044.905 1.752.19.708.22 1.363.091 1.965a3.073 3.073 0 0 1-.806 1.54c-.412.426-.953.729-1.622.908Zm-.338-1.296c.363-.097.64-.278.83-.543a1.86 1.86 0 0 0 .327-.958 3.44 3.44 0 0 0-.121-1.182 3.461 3.461 0 0 0-.488-1.089 1.853 1.853 0 0 0-.763-.67c-.298-.137-.628-.157-.991-.06-.372.1-.654.284-.847.552-.19.268-.3.589-.33.964-.028.371.014.766.126 1.185.112.417.273.779.483 1.086.212.306.468.528.766.665.3.133.636.15 1.008.05Z" fill="#EEF3F5"/><g clip-path="url(#c)"><g clip-path="url(#d)" stroke="#7E8A9C" stroke-width="1.445" stroke-linecap="round" stroke-linejoin="round"><path d="m332.602 75.22-1.497-5.585m3.367 12.565-.748-2.792m1.533-2.655a2.174 2.174 0 0 1-1.533 2.655 2.174 2.174 0 0 1-2.655-1.533c-.3-1.117.276-2.319 1.533-2.655 1.186-.318 2.337.346 2.655 1.533Zm-9.991-.99 2.225 8.307m-.711-11.031a2.174 2.174 0 0 0-2.655-1.533c-1.117.299-1.833 1.538-1.533 2.655a2.174 2.174 0 0 0 2.655 1.533 2.174 2.174 0 0 0 1.533-2.655Zm0 0c.019.07 0 0 0 0Z"/></g><path fill="#3C4249" d="m348.369 64.261.698-.187 3.74 13.96-.697.188z"/><path d="m365.771 67.08 12.216-3.273m-7.745-4.471 3.273 12.215" stroke="#7E8A9C" stroke-width="1.445" stroke-linecap="round" stroke-linejoin="round"/></g><path d="M287.698 233.96a3.39 3.39 0 0 1-1.401.1 2.299 2.299 0 0 1-1.108-.469 1.917 1.917 0 0 1-.641-.963l1.305-.349a.896.896 0 0 0 .325.452c.154.11.337.178.55.206.213.027.439.009.677-.055.255-.068.469-.173.642-.313.172-.143.293-.31.361-.499a.957.957 0 0 0 .015-.595.993.993 0 0 0-.319-.525 1.152 1.152 0 0 0-.596-.253 1.981 1.981 0 0 0-.808.068l-.628.168-.266-.993.628-.168c.248-.066.453-.167.615-.302.165-.136.279-.296.344-.479a.962.962 0 0 0 .01-.587.97.97 0 0 0-.276-.488.947.947 0 0 0-.479-.247 1.321 1.321 0 0 0-.613.03 1.6 1.6 0 0 0-.572.28 1.134 1.134 0 0 0-.357.457.878.878 0 0 0-.043.562l-1.239.332a1.859 1.859 0 0 1 .063-1.141c.14-.362.373-.677.698-.946.325-.27.717-.467 1.177-.59.475-.127.91-.149 1.307-.064a2.09 2.09 0 0 1 1.007.493c.272.247.456.551.553.912.109.399.081.767-.085 1.101a1.719 1.719 0 0 1-.787.78l.014.056c.519-.065.951.018 1.298.247.348.227.581.562.697 1.007.107.398.089.785-.053 1.16a2.331 2.331 0 0 1-.733.985c-.346.284-.773.494-1.282.63Zm4.807-2.434.057.394c.046.3.068.612.065.935 0 .325-.011.627-.033.905a33.48 33.48 0 0 1-.057.659l-.847.227-.023-.611a14.312 14.312 0 0 0-.053-.864 8.434 8.434 0 0 0-.139-.952l-.08-.395 1.11-.298Zm1.172-.686-.274-1.023 1.739-5.573.854-.229.39 1.458-.52.139-1.169 3.761.015.056 4.21-1.128.284 1.058-5.529 1.481Zm3.744.411-.437-1.631-.109-.462-1.344-5.018 1.214-.326 1.905 7.107-1.229.33Zm5.91-1.439c-.571.153-1.101.14-1.588-.039-.485-.183-.911-.519-1.278-1.008-.365-.492-.651-1.126-.859-1.901-.205-.776-.272-1.465-.2-2.067.073-.605.275-1.105.606-1.501.332-.397.783-.671 1.352-.824.569-.152 1.097-.14 1.584.037.486.177.911.51 1.275.998.366.487.653 1.117.86 1.889.208.778.276 1.471.204 2.081-.071.606-.272 1.109-.604 1.508-.33.398-.78.674-1.352.827Zm-.291-1.086c.444-.119.736-.432.876-.938.141-.509.097-1.19-.131-2.044-.152-.564-.338-1.023-.559-1.375-.22-.353-.465-.597-.732-.734a1.13 1.13 0 0 0-.842-.09c-.442.118-.733.431-.872.94-.139.506-.097 1.183.128 2.03.149.568.334 1.029.553 1.384.221.355.466.602.734.741.267.137.549.165.845.086Zm4.215-.11 1.42-6.793-.013-.049-3.509.94-.288-1.076 4.841-1.297.295 1.1-1.41 6.817-1.336.358Zm5.062-1.275a.77.77 0 0 1-.6-.077.743.743 0 0 1-.368-.482.74.74 0 0 1 .079-.594.772.772 0 0 1 .482-.367.756.756 0 0 1 .591.08.754.754 0 0 1 .367.887.821.821 0 0 1-.203.352.751.751 0 0 1-.348.201Zm2.459-8.462a3.01 3.01 0 0 1 1.041-.086c.354.029.697.141 1.027.335.329.192.629.487.899.886.271.399.493.922.666 1.57.166.61.248 1.173.245 1.69-.002.514-.079.968-.234 1.364a2.546 2.546 0 0 1-.675.992 2.617 2.617 0 0 1-1.086.57c-.449.12-.87.139-1.264.056a2.312 2.312 0 0 1-1.03-.498 2.365 2.365 0 0 1-.673-.943l1.267-.339c.14.265.332.454.576.567.245.111.52.125.826.043.493-.132.815-.448.966-.947.151-.499.125-1.13-.079-1.891l-.048.013a1.897 1.897 0 0 1-.3.646 2.069 2.069 0 0 1-.524.501 2.276 2.276 0 0 1-.69.311 2.222 2.222 0 0 1-1.205.003 2.256 2.256 0 0 1-1.007-.608 2.526 2.526 0 0 1-.61-1.112 2.53 2.53 0 0 1-.015-1.331c.116-.428.338-.8.665-1.116.326-.318.747-.543 1.262-.676Zm.282 1.04a1.32 1.32 0 0 0-.627.365c-.167.174-.28.38-.34.619-.058.237-.053.482.015.737.07.251.188.465.354.641.168.176.366.298.593.366.228.067.469.067.721 0a1.348 1.348 0 0 0 .839-.66c.088-.162.143-.335.166-.517a1.302 1.302 0 0 0-.039-.547 1.398 1.398 0 0 0-.354-.627 1.385 1.385 0 0 0-.601-.371 1.282 1.282 0 0 0-.727-.006Zm8.014 4.563c-.462.124-.9.148-1.312.072a2.303 2.303 0 0 1-1.064-.488 1.98 1.98 0 0 1-.621-.957l1.249-.335c.102.285.291.49.57.614.278.121.578.139.9.052a1.34 1.34 0 0 0 .626-.353c.166-.169.278-.371.336-.607a1.465 1.465 0 0 0-.022-.75 1.468 1.468 0 0 0-.362-.669 1.314 1.314 0 0 0-.606-.362 1.38 1.38 0 0 0-.743.006 1.7 1.7 0 0 0-.596.286 1.333 1.333 0 0 0-.404.45l-1.214.121-.61-3.764 4.122-1.105.289 1.076-3.058.819.3 1.939.042-.011c.09-.19.242-.368.456-.535.212-.168.462-.291.749-.368.43-.115.842-.116 1.234-.003.392.111.732.317 1.021.619.29.302.495.681.617 1.136.126.47.13.918.011 1.344-.117.423-.34.792-.668 1.105-.325.31-.739.533-1.242.668Zm6.265-1.679c-.5.134-.967.167-1.402.1a2.307 2.307 0 0 1-1.108-.469 1.917 1.917 0 0 1-.641-.963l1.305-.349a.897.897 0 0 0 .326.452c.153.11.337.178.55.206.213.027.439.009.677-.055.254-.068.468-.173.641-.313.173-.143.293-.31.361-.499a.95.95 0 0 0 .016-.595 1 1 0 0 0-.319-.525 1.156 1.156 0 0 0-.596-.253 1.981 1.981 0 0 0-.808.068l-.628.168-.266-.993.628-.168c.248-.066.452-.167.615-.302.164-.136.279-.296.344-.479a.97.97 0 0 0 .01-.587.984.984 0 0 0-.276-.488.951.951 0 0 0-.479-.247 1.32 1.32 0 0 0-.613.03 1.593 1.593 0 0 0-.572.28 1.137 1.137 0 0 0-.358.457.885.885 0 0 0-.043.562l-1.239.332a1.874 1.874 0 0 1 .063-1.141c.141-.362.374-.677.699-.946a3.03 3.03 0 0 1 1.177-.59c.474-.127.91-.149 1.307-.064.399.082.734.246 1.006.493s.456.551.553.912c.11.399.082.767-.084 1.101a1.721 1.721 0 0 1-.788.78l.015.056c.518-.065.951.018 1.297.247.349.227.581.562.698 1.007a1.84 1.84 0 0 1-.054 1.16c-.14.373-.385.701-.733.985-.345.284-.772.494-1.281.63Zm3.788-1.119-.249-.93 1.819-3.08c.173-.302.312-.566.42-.793.108-.228.178-.439.21-.633.032-.195.022-.39-.031-.587a1.077 1.077 0 0 0-.307-.535 1.053 1.053 0 0 0-.52-.263 1.417 1.417 0 0 0-.643.031 1.295 1.295 0 0 0-.575.311c-.15.142-.251.314-.301.515-.047.202-.039.424.026.667l-1.225.328c-.121-.451-.123-.871-.006-1.259.117-.389.331-.723.643-1.002a2.84 2.84 0 0 1 1.176-.609c.476-.128.919-.151 1.328-.069.408.081.754.25 1.036.507.284.256.479.583.586.981.071.266.09.541.058.825-.033.284-.137.617-.31.998-.17.381-.427.855-.768 1.422l-.891 1.574.013.049 3.095-.83.289 1.076-4.873 1.306Zm8.647-2.213c-.5.134-.967.167-1.402.1a2.3 2.3 0 0 1-1.107-.469 1.91 1.91 0 0 1-.641-.963l1.304-.349a.897.897 0 0 0 .326.452c.154.11.337.178.55.206.213.027.439.009.677-.055a1.7 1.7 0 0 0 .641-.313 1.16 1.16 0 0 0 .362-.499.957.957 0 0 0 .015-.595.993.993 0 0 0-.319-.525 1.156 1.156 0 0 0-.596-.253 1.997 1.997 0 0 0-.808.067l-.628.169-.266-.993.628-.168c.248-.066.453-.167.615-.302.164-.136.279-.296.344-.479a.97.97 0 0 0 .01-.587.984.984 0 0 0-.276-.488.947.947 0 0 0-.479-.247 1.321 1.321 0 0 0-.613.03 1.6 1.6 0 0 0-.572.28 1.145 1.145 0 0 0-.358.457.878.878 0 0 0-.042.562l-1.239.332a1.866 1.866 0 0 1 .062-1.141c.141-.362.374-.677.699-.946.324-.27.717-.467 1.177-.59.474-.127.91-.149 1.307-.064.399.082.734.246 1.006.493s.457.551.553.912c.11.399.082.766-.084 1.101a1.716 1.716 0 0 1-.788.78l.015.056c.519-.065.951.018 1.298.247.348.227.581.562.697 1.007.107.398.089.785-.053 1.16a2.331 2.331 0 0 1-.733.985c-.346.284-.773.494-1.282.63Zm6.452-1.688c-.572.153-1.101.14-1.588-.039-.485-.183-.911-.519-1.278-1.008-.365-.492-.651-1.126-.859-1.901-.205-.776-.272-1.465-.2-2.067.073-.605.275-1.105.606-1.501.332-.397.783-.671 1.352-.824.569-.152 1.097-.14 1.583.037.487.177.912.51 1.276.998.366.487.652 1.117.859 1.889.209.778.277 1.471.204 2.081-.07.606-.271 1.109-.603 1.508-.33.398-.781.674-1.352.827Zm-.291-1.086c.444-.119.736-.432.876-.938.141-.509.097-1.19-.132-2.044-.151-.564-.337-1.023-.558-1.375-.221-.353-.465-.597-.732-.734a1.13 1.13 0 0 0-.842-.09c-.442.118-.733.431-.872.94-.139.506-.097 1.183.128 2.03.149.567.334 1.029.553 1.384.221.355.466.602.734.741.267.137.549.165.845.086Zm3.664-1.376-.274-1.024 1.739-5.573.853-.229.391 1.458-.521.139-1.168 3.761.015.056 4.21-1.128.283 1.059-5.528 1.481Zm3.744.41-.437-1.631-.109-.462-1.345-5.018 1.215-.325 1.904 7.107-1.228.329Zm6.653-1.783-1.375.369.598-7.778 1.59-.426 4.41 6.436-1.375.368-3.412-5.141-.055.015-.381 6.157Zm-.702-2.798 3.748-1.005.277 1.035-3.748 1.004-.277-1.034Zm6.861 1.148-1.905-7.107 2.666-.714c.546-.147 1.029-.175 1.45-.084.423.09.776.281 1.057.572.283.289.486.66.607 1.113.122.456.131.878.027 1.265a1.99 1.99 0 0 1-.643 1.002c-.327.281-.763.495-1.309.641l-1.898.509-.286-1.069 1.724-.462c.32-.086.569-.2.749-.343a.955.955 0 0 0 .346-.513c.053-.2.046-.426-.022-.678a1.353 1.353 0 0 0-.322-.606.987.987 0 0 0-.564-.287c-.229-.041-.504-.018-.826.069l-1.18.316 1.616 6.031-1.287.345Zm2.808-4.204 2.623 2.749-1.437.385-2.591-2.758 1.405-.376Zm3.548 2.501-1.905-7.107 1.288-.345.875 3.265.087-.023 1.897-4.008 1.573-.422-1.894 3.926 3.822 3.175-1.548.415-2.936-2.479-.539 1.141.567 2.117-1.287.345Z" fill="#EEF3F5"/><path d="M332.418 239.171a2.542 2.542 0 0 1-1.125.062 1.957 1.957 0 0 1-.912-.419 1.699 1.699 0 0 1-.533-.82l1.071-.287c.087.245.25.42.489.526.238.104.495.119.771.045a1.105 1.105 0 0 0 .825-.823 1.26 1.26 0 0 0-.019-.643 1.265 1.265 0 0 0-.31-.573 1.123 1.123 0 0 0-.52-.31 1.179 1.179 0 0 0-.637.004 1.464 1.464 0 0 0-.511.246 1.132 1.132 0 0 0-.346.386l-1.04.103-.524-3.226 3.534-.947.247.922-2.62.702.257 1.662.036-.009c.077-.163.207-.316.39-.459.182-.144.396-.249.642-.315a1.923 1.923 0 0 1 1.934.527c.247.259.424.584.528.975.108.402.111.786.009 1.151-.1.363-.291.679-.572.947-.279.267-.634.457-1.064.573Zm4.009-2.057.049.338c.039.257.057.524.055.801 0 .279-.009.537-.028.776-.019.239-.035.427-.05.565l-.725.195-.02-.525a12.288 12.288 0 0 0-.045-.74 7.168 7.168 0 0 0-.12-.816l-.068-.339.952-.255Zm1.787-6.205c.293-.076.59-.1.893-.073.304.025.597.121.88.287.282.165.539.418.771.76.232.341.422.79.571 1.345.142.523.212 1.006.21 1.449a3.25 3.25 0 0 1-.2 1.169 2.203 2.203 0 0 1-.579.85 2.24 2.24 0 0 1-.931.489 2.314 2.314 0 0 1-1.084.048 1.988 1.988 0 0 1-1.459-1.235l1.085-.291c.121.227.285.389.494.486.21.095.446.107.708.037.423-.113.699-.384.828-.812.13-.428.108-.968-.067-1.62l-.042.011c-.05.2-.136.385-.256.553-.122.166-.271.31-.45.43a1.96 1.96 0 0 1-.591.267 1.917 1.917 0 0 1-1.033.002 1.935 1.935 0 0 1-.863-.521 2.164 2.164 0 0 1-.523-.953 2.172 2.172 0 0 1-.013-1.142c.1-.366.29-.685.57-.956.28-.272.64-.466 1.081-.58Zm.243.892a1.126 1.126 0 0 0-.538.313c-.143.149-.24.326-.292.531-.049.202-.045.413.013.631.06.216.161.399.304.55a1.119 1.119 0 0 0 1.126.313 1.148 1.148 0 0 0 .719-.565c.076-.14.123-.287.143-.443a1.135 1.135 0 0 0-.033-.47 1.198 1.198 0 0 0-.304-.537 1.196 1.196 0 0 0-.515-.318 1.099 1.099 0 0 0-.623-.005Zm7.012 3.908c-.49.131-.944.12-1.361-.034-.416-.157-.781-.444-1.096-.864-.312-.422-.558-.965-.736-1.63-.176-.664-.233-1.255-.172-1.771.063-.518.236-.947.52-1.287.285-.34.671-.575 1.159-.706.488-.13.94-.12 1.357.032.417.152.781.437 1.093.855.314.417.56.957.737 1.62.179.666.237 1.26.175 1.783-.061.52-.233.951-.518 1.293-.282.341-.668.577-1.158.709Zm-.25-.931c.381-.102.631-.37.751-.804.121-.436.084-1.02-.112-1.752-.13-.484-.29-.877-.479-1.179-.189-.302-.399-.512-.628-.629a.968.968 0 0 0-.722-.077c-.379.101-.627.37-.747.805-.119.434-.083 1.014.11 1.741.128.486.286.881.474 1.186.19.304.399.516.629.635.229.117.47.142.724.074Zm4.399-6.835 1.633 6.092-1.104.296-1.344-5.018-.036.009-1.181 1.292-.271-1.011 1.253-1.379 1.05-.281Zm3.537 5.652a.663.663 0 0 1-.515-.066.638.638 0 0 1-.315-.413.63.63 0 0 1 .068-.509.657.657 0 0 1 .413-.315.65.65 0 0 1 .506.068.649.649 0 0 1 .315.761.711.711 0 0 1-.174.302.643.643 0 0 1-.298.172Zm2.107-7.253c.292-.077.589-.101.892-.074.304.025.598.121.881.287.282.165.539.418.77.76.232.341.423.79.571 1.345.143.523.213 1.006.21 1.449-.001.44-.068.83-.2 1.169-.132.34-.325.623-.579.85a2.225 2.225 0 0 1-.93.489 2.314 2.314 0 0 1-1.084.048 1.997 1.997 0 0 1-1.46-1.235l1.086-.291c.12.227.285.389.494.486.21.095.446.107.708.037.422-.113.698-.384.828-.812.13-.428.107-.968-.068-1.62l-.041.011c-.051.2-.136.385-.257.553a1.77 1.77 0 0 1-.449.43 1.967 1.967 0 0 1-.592.267 1.914 1.914 0 0 1-1.032.002 1.926 1.926 0 0 1-.863-.521 2.166 2.166 0 0 1-.524-.953 2.168 2.168 0 0 1-.012-1.141 2.05 2.05 0 0 1 .569-.956c.28-.273.641-.466 1.082-.58Zm.242.891a1.143 1.143 0 0 0-.829.844c-.05.203-.046.413.013.631.06.216.161.399.303.55.145.15.314.255.508.313.197.058.403.058.619 0 .161-.043.302-.113.424-.212.123-.099.221-.217.295-.353a1.244 1.244 0 0 0 .109-.913 1.206 1.206 0 0 0-.303-.537 1.205 1.205 0 0 0-.516-.318 1.099 1.099 0 0 0-.623-.005Zm6.87 3.911a2.542 2.542 0 0 1-1.125.062 1.974 1.974 0 0 1-.913-.418 1.707 1.707 0 0 1-.532-.821l1.071-.287c.087.245.25.42.489.526.238.104.495.119.77.046a1.15 1.15 0 0 0 .538-.304c.142-.144.238-.318.288-.52a1.266 1.266 0 0 0-.019-.642 1.264 1.264 0 0 0-.31-.574 1.132 1.132 0 0 0-.52-.31 1.179 1.179 0 0 0-.637.005 1.462 1.462 0 0 0-.511.245 1.14 1.14 0 0 0-.346.386l-1.04.103-.524-3.226 3.534-.947.247.922-2.621.702.258 1.663.035-.01c.078-.163.208-.316.391-.458a1.74 1.74 0 0 1 .642-.316 1.94 1.94 0 0 1 1.058-.003c.336.095.628.272.875.531.248.259.425.583.529.974.108.402.111.786.009 1.152-.1.362-.291.678-.572.947a2.414 2.414 0 0 1-1.064.572Zm7.505-8.63 1.104-.296 1.066 3.98c.117.437.117.848-.001 1.235a2.162 2.162 0 0 1-.654 1.007c-.322.284-.73.492-1.226.625-.498.133-.957.158-1.377.072a2.159 2.159 0 0 1-1.071-.545 2.224 2.224 0 0 1-.615-1.069l-1.066-3.98 1.104-.296 1.041 3.888c.068.254.184.465.349.634.166.168.366.281.601.339.234.057.491.047.77-.028.28-.075.507-.195.681-.361.176-.168.293-.366.351-.594a1.412 1.412 0 0 0-.015-.723l-1.042-3.888Zm6.063.171a.84.84 0 0 0-.514-.513c-.243-.09-.528-.091-.855-.004-.23.062-.418.15-.564.263a.904.904 0 0 0-.302.384.705.705 0 0 0-.025.443.63.63 0 0 0 .175.307.812.812 0 0 0 .305.174c.118.036.244.06.379.07.134.011.268.014.401.011l.609-.011a4.12 4.12 0 0 1 .722.04c.239.034.461.097.666.191.208.093.388.225.54.394.151.17.263.387.333.651.096.357.089.695-.021 1.016-.11.319-.317.6-.621.846-.303.242-.698.429-1.186.56-.474.127-.905.163-1.293.11a1.906 1.906 0 0 1-.988-.424c-.269-.229-.466-.544-.591-.945l1.086-.291a.962.962 0 0 0 .338.477c.153.11.331.175.534.195.205.02.422-.001.653-.063.239-.064.44-.156.601-.276.163-.122.279-.262.347-.418a.754.754 0 0 0 .035-.501.6.6 0 0 0-.245-.355 1.074 1.074 0 0 0-.453-.159 3.815 3.815 0 0 0-.623-.037l-.741.007c-.536.006-.985-.083-1.346-.267-.361-.186-.599-.497-.716-.934a1.628 1.628 0 0 1 .039-1.021c.124-.322.335-.603.632-.842a2.89 2.89 0 0 1 1.084-.533c.433-.116.832-.142 1.197-.078.367.061.68.199.937.415.257.214.435.492.533.833l-1.062.285Zm5.377 3.293-2.064.553-1.633-6.092 2.106-.564c.605-.162 1.157-.179 1.657-.052.501.125.929.384 1.285.775.356.391.618.903.788 1.536.17.635.198 1.212.084 1.731a2.528 2.528 0 0 1-.733 1.322c-.375.362-.871.626-1.49.791Zm-1.217-.697.908-.243c.424-.114.757-.286.999-.517.242-.232.393-.523.453-.87.059-.35.026-.758-.099-1.224-.125-.466-.3-.833-.525-1.102a1.514 1.514 0 0 0-.819-.524c-.319-.08-.685-.065-1.097.046l-.94.252 1.12 4.182Z" fill="#637282"/><path fill-rule="evenodd" clip-rule="evenodd" d="m214.43 256.73-6.044 11.073 4.775-15.811 11.978 11.322-10.709-6.584Zm-1.912 7.405.849-1.951 4.633-1.242 1.71 1.266-7.192 1.927Zm.944-2.836 1.385-2.915 2.631 1.839-4.016 1.076Z" fill="#0D7ED6"/><rect x="196.414" y="248.25" width="30.352" height="30.352" rx="7.949" transform="rotate(-15 196.414 248.25)" stroke="#3C4249" stroke-width="1.445"/><rect x="419.965" y="219.772" width="23.125" height="30.352" rx="6.504" transform="rotate(165 419.965 219.772)" fill="#212225"/><g clip-path="url(#e)"><path d="m402.431 210.181 1.942-3.363c.051-.089.191-.126.279-.075l3.364 1.942" stroke="#EEF3F5" stroke-width="1.445" stroke-linecap="round" stroke-linejoin="round"/></g><rect x="419.965" y="219.772" width="23.125" height="30.352" rx="6.504" transform="rotate(165 419.965 219.772)" stroke="#637282" stroke-width="1.445" stroke-linejoin="round"/><rect x="207.432" y="290.015" width="223.763" height="105.902" rx="8.121" transform="rotate(-15 207.432 290.015)" fill="#3C4249" stroke="#637282" stroke-width="1.112" stroke-dasharray="2.22 2.22"/><path fill="#121213" d="m144.387 146.226 261.766-70.14 24.315 90.746-261.766 70.14z"/><path d="m170.616 153.903 1.454-.389 2.581 2.678.07-.018.896-3.611 1.454-.389-1.391 5.149.71 2.651-1.284.344-.71-2.651-3.78-3.764Zm10.576 4.896c-.52.139-1.002.146-1.445.019a2.42 2.42 0 0 1-1.146-.723c-.319-.356-.552-.81-.699-1.36-.148-.551-.173-1.061-.076-1.531.1-.471.31-.872.63-1.203.321-.331.741-.567 1.262-.706.52-.14 1.002-.146 1.445-.019.443.126.824.369 1.144.727.321.358.556.812.703 1.363.148.55.171 1.06.071 1.528a2.398 2.398 0 0 1-.627 1.199c-.321.331-.741.566-1.262.706Zm-.262-1.008c.282-.076.497-.217.645-.423.148-.208.233-.456.254-.745a2.677 2.677 0 0 0-.093-.919 2.686 2.686 0 0 0-.38-.847 1.462 1.462 0 0 0-.593-.522 1.112 1.112 0 0 0-.772-.046 1.14 1.14 0 0 0-.658.429 1.475 1.475 0 0 0-.257.75 2.76 2.76 0 0 0 .098.922c.087.324.212.605.375.844.166.239.365.411.596.517.234.104.495.117.785.04Zm6.652-3.219-.828-3.088 1.256-.337 1.429 5.331-1.218.326-.254-.947-.056.014c-.04.331-.173.628-.397.892-.222.263-.533.448-.934.555a1.891 1.891 0 0 1-.989.016 1.665 1.665 0 0 1-.807-.517c-.231-.26-.404-.603-.518-1.029l-.909-3.394 1.256-.337.857 3.2c.091.338.255.581.494.731.238.149.508.184.808.103.185-.05.353-.143.502-.279.149-.137.256-.309.319-.517.065-.211.061-.452-.011-.723Zm3.149 1.559-1.429-5.33 1.218-.326.238.888.056-.015a1.379 1.379 0 0 1 1.057-1.317c.069-.019.148-.036.235-.052.089-.019.164-.03.225-.034l.31 1.155a1.422 1.422 0 0 0-.267.02 2.35 2.35 0 0 0-.336.064 1.312 1.312 0 0 0-.577.314 1.132 1.132 0 0 0-.314 1.163l.84 3.134-1.256.336Zm6.354-1.702-1.905-7.108 2.721-.729c.514-.137.962-.171 1.346-.1.385.068.699.218.943.451.245.231.415.523.509.875.078.289.089.551.033.787a1.459 1.459 0 0 1-.315.616 1.952 1.952 0 0 1-.555.443l.019.069c.256-.054.518-.041.788.038.27.077.514.222.73.437.217.215.373.503.47.863.098.368.098.723-.002 1.065-.1.339-.306.641-.62.906-.313.265-.742.47-1.285.616l-2.877.771Zm.999-1.421 1.385-.371c.467-.125.78-.305.938-.538a.906.906 0 0 0 .126-.778 1.1 1.1 0 0 0-.86-.81 1.53 1.53 0 0 0-.727.034l-1.42.381.558 2.082Zm-.806-3.009 1.273-.341c.223-.06.412-.154.568-.282.156-.131.265-.286.326-.463a.965.965 0 0 0 .011-.584.91.91 0 0 0-.473-.602c-.24-.126-.55-.139-.929-.037l-1.302.348.526 1.961Zm7.737 2.42a2.29 2.29 0 0 1-.961.064 1.539 1.539 0 0 1-.784-.37c-.219-.197-.375-.47-.469-.819-.08-.301-.091-.564-.033-.791a1.34 1.34 0 0 1 .328-.594 2.4 2.4 0 0 1 .578-.441 5.53 5.53 0 0 1 .716-.337c.304-.116.55-.213.737-.29.187-.08.317-.16.39-.239.075-.082.096-.183.064-.303l-.006-.021c-.07-.261-.202-.443-.395-.545-.193-.102-.436-.114-.727-.036-.308.083-.534.215-.679.398a1.03 1.03 0 0 0-.233.572l-1.218.148c.006-.349.086-.661.241-.935.154-.277.37-.511.648-.702.278-.194.604-.34.976-.44.257-.069.521-.107.791-.115.271-.008.53.029.778.111.247.08.466.221.656.423.193.201.337.479.432.833l.956 3.568-1.208.323-.196-.732-.042.011a1.595 1.595 0 0 1-.211.503 1.597 1.597 0 0 1-.435.447 2.137 2.137 0 0 1-.694.309Zm.079-1.01c.252-.068.457-.176.616-.325.157-.152.264-.324.319-.517.057-.194.059-.389.006-.586l-.168-.628a.618.618 0 0 1-.177.144 2.898 2.898 0 0 1-.293.157c-.11.051-.22.101-.329.147l-.283.121a2.242 2.242 0 0 0-.47.26.863.863 0 0 0-.286.337.618.618 0 0 0-.022.43c.062.231.193.383.394.456.2.072.431.074.693.004Zm3.322-7.634 1.904 7.107-1.256.337-1.905-7.107 1.257-.337Zm4.759 6.458c-.338.09-.659.112-.961.064a1.543 1.543 0 0 1-.784-.37c-.219-.197-.375-.47-.469-.819-.08-.301-.092-.565-.033-.791a1.33 1.33 0 0 1 .328-.594c.16-.169.353-.316.577-.441.227-.128.465-.24.717-.337.304-.116.549-.213.737-.291.187-.079.317-.159.39-.238.075-.082.096-.183.064-.304l-.006-.02c-.07-.262-.202-.443-.395-.545-.194-.102-.436-.114-.728-.036-.307.082-.533.215-.678.397-.142.182-.22.373-.234.573l-1.217.147c.006-.348.086-.66.24-.935.154-.276.371-.51.649-.702.278-.193.603-.34.976-.439.257-.069.52-.108.791-.116.271-.008.53.029.777.112.248.08.466.221.657.423.193.201.336.479.431.833l.956 3.567-1.207.324-.197-.732-.041.011a1.605 1.605 0 0 1-.211.503 1.624 1.624 0 0 1-.435.447 2.137 2.137 0 0 1-.694.309Zm.078-1.011c.253-.067.458-.176.616-.325.158-.151.265-.323.319-.517.058-.193.06-.389.007-.585l-.168-.628a.635.635 0 0 1-.177.144 3.12 3.12 0 0 1-.293.156c-.11.052-.22.101-.329.148l-.284.121c-.18.075-.337.162-.469.259a.87.87 0 0 0-.286.337.613.613 0 0 0-.022.43c.062.232.193.384.394.456.2.073.431.074.692.004Zm4.39-3.649.837 3.123-1.257.337-1.428-5.331 1.201-.322.243.906.062-.017c.043-.331.175-.62.396-.868.224-.248.534-.426.932-.533.368-.098.71-.105 1.025-.021.317.083.591.254.821.512.233.258.405.6.517 1.026l.91 3.394-1.257.337-.857-3.2c-.096-.356-.263-.61-.502-.762-.237-.152-.517-.185-.841-.098-.22.059-.402.16-.547.303-.144.14-.24.313-.289.52-.046.206-.035.437.034.694Zm7.889 1.345c-.532.143-1.021.148-1.465.017a2.418 2.418 0 0 1-1.137-.733c-.315-.36-.545-.809-.689-1.348-.145-.541-.169-1.047-.072-1.517a2.42 2.42 0 0 1 .621-1.208c.32-.336.739-.574 1.26-.713a2.71 2.71 0 0 1 1.213-.068c.377.067.704.219.981.455.276.233.479.538.61.915l-1.201.322a1.182 1.182 0 0 0-.519-.549c-.227-.126-.492-.148-.795-.066a1.167 1.167 0 0 0-.621.389 1.382 1.382 0 0 0-.297.712c-.037.285-.008.607.088.966.097.363.234.661.411.894.176.231.378.391.608.481.232.086.478.095.74.025.185-.05.341-.129.468-.238.129-.111.225-.247.289-.408.063-.161.088-.342.073-.544l1.201-.322c.071.385.05.749-.064 1.092a2.054 2.054 0 0 1-.602.891c-.288.25-.655.435-1.101.555Zm5.675-1.52c-.535.143-1.026.155-1.474.037a2.334 2.334 0 0 1-1.147-.712c-.319-.356-.553-.812-.702-1.37-.147-.548-.172-1.057-.074-1.527.098-.473.306-.876.621-1.208.314-.335.726-.57 1.235-.707a2.77 2.77 0 0 1 .973-.089c.321.025.624.117.907.277.286.159.539.391.76.697.22.303.392.688.518 1.155l.103.386-4.369 1.17-.227-.846 3.165-.849a1.4 1.4 0 0 0-.328-.6 1.182 1.182 0 0 0-.547-.333 1.253 1.253 0 0 0-.676.006 1.271 1.271 0 0 0-.626.369c-.162.175-.27.377-.324.608a1.44 1.44 0 0 0 .012.699l.198.739a1.8 1.8 0 0 0 .384.753c.172.189.376.316.611.379.235.061.489.055.762-.018.183-.049.341-.119.476-.209.133-.093.241-.205.322-.336a.993.993 0 0 0 .145-.444l1.209-.183c.009.33-.06.639-.206.926a2.144 2.144 0 0 1-.648.746 3.12 3.12 0 0 1-1.053.484Z" fill="#637282"/><path d="M180.907 178.622c-.571.153-1.105.191-1.602.114a2.635 2.635 0 0 1-1.266-.536 2.187 2.187 0 0 1-.732-1.1l1.491-.4c.072.216.196.388.372.517.176.126.385.204.629.235.243.031.501.01.774-.063.29-.078.535-.197.733-.358.197-.163.334-.353.412-.569.078-.217.084-.444.018-.681a1.14 1.14 0 0 0-.365-.599 1.321 1.321 0 0 0-.681-.29c-.272-.04-.579-.014-.923.078l-.718.192-.304-1.134.718-.193c.283-.075.517-.191.702-.345.188-.155.319-.338.393-.548.074-.212.078-.435.012-.67a1.115 1.115 0 0 0-.315-.557 1.075 1.075 0 0 0-.548-.283 1.495 1.495 0 0 0-.7.035 1.799 1.799 0 0 0-.654.319 1.302 1.302 0 0 0-.409.522 1.014 1.014 0 0 0-.049.642l-1.416.38a2.136 2.136 0 0 1 .072-1.303c.161-.415.427-.775.799-1.081.37-.309.819-.534 1.345-.675.542-.146 1.04-.17 1.494-.073.455.093.839.281 1.149.563.311.282.522.63.633 1.042.125.457.093.876-.097 1.259a1.967 1.967 0 0 1-.9.891l.017.064c.592-.074 1.087.02 1.483.283.398.259.664.642.797 1.151.122.454.101.896-.061 1.325-.161.426-.44.801-.838 1.126-.395.324-.883.564-1.465.72Zm3.779-2.747-.313-1.17 1.987-6.369.976-.262.446 1.666-.595.159-1.335 4.299.017.063 4.811-1.289.325 1.21-6.319 1.693Zm4.279.469-.499-1.864-.125-.528-1.536-5.735 1.388-.372 2.176 8.122-1.404.377Zm4.885-2.5.066.45c.052.344.077.7.073 1.069.001.371-.012.716-.037 1.034-.025.319-.047.57-.066.754l-.968.259-.025-.699a17.33 17.33 0 0 0-.061-.987 9.705 9.705 0 0 0-.159-1.088l-.092-.452 1.269-.34Zm1.89.684-.284-1.063 2.079-3.52c.197-.344.356-.646.48-.906.123-.26.203-.501.239-.723a1.573 1.573 0 0 0-.035-.671 1.247 1.247 0 0 0-.351-.612 1.192 1.192 0 0 0-.594-.299 1.595 1.595 0 0 0-.735.035 1.47 1.47 0 0 0-.657.355 1.182 1.182 0 0 0-.344.589c-.054.23-.045.484.03.761l-1.4.376c-.138-.516-.141-.996-.008-1.44.134-.443.379-.825.735-1.144.359-.321.807-.552 1.344-.696.545-.146 1.051-.173 1.518-.08a2.43 2.43 0 0 1 1.184.58c.325.293.548.666.67 1.121.081.304.103.619.066.943-.038.325-.156.705-.354 1.141-.195.435-.488.976-.878 1.625l-1.018 1.799.015.056 3.537-.948.33 1.229-5.569 1.492Zm9.791-2.504a3.39 3.39 0 0 1-1.5.083 2.621 2.621 0 0 1-1.216-.558 2.26 2.26 0 0 1-.71-1.094l1.428-.383c.116.327.333.56.651.702.318.138.66.159 1.028.06a1.54 1.54 0 0 0 .716-.404c.19-.193.318-.424.384-.694.067-.27.058-.556-.025-.856a1.681 1.681 0 0 0-.414-.765 1.5 1.5 0 0 0-.693-.414 1.567 1.567 0 0 0-.848.006 1.964 1.964 0 0 0-.682.328 1.511 1.511 0 0 0-.461.514l-1.388.138-.697-4.302 4.711-1.262.33 1.229-3.494.937.343 2.216.047-.013c.104-.217.277-.421.521-.611.243-.193.528-.333.856-.421a2.591 2.591 0 0 1 1.411-.004c.447.127.836.363 1.167.708.33.345.565.778.705 1.299a2.86 2.86 0 0 1 .012 1.535 2.725 2.725 0 0 1-.763 1.263c-.372.355-.845.609-1.419.763Zm7.159-1.918c-.571.153-1.105.191-1.602.114a2.635 2.635 0 0 1-1.266-.536 2.2 2.2 0 0 1-.733-1.1l1.492-.4c.072.216.196.388.372.517.175.125.385.204.628.235a2 2 0 0 0 .774-.063 1.94 1.94 0 0 0 .733-.358c.197-.163.335-.353.413-.569a1.09 1.09 0 0 0 .017-.681 1.128 1.128 0 0 0-.364-.599 1.321 1.321 0 0 0-.681-.29 2.274 2.274 0 0 0-.923.078l-.718.192-.304-1.134.718-.193c.283-.076.517-.191.702-.345.188-.155.319-.338.393-.548.074-.212.078-.436.012-.67a1.122 1.122 0 0 0-.315-.558 1.081 1.081 0 0 0-.548-.282 1.498 1.498 0 0 0-.701.034 1.82 1.82 0 0 0-.653.32 1.302 1.302 0 0 0-.409.522 1.007 1.007 0 0 0-.049.642l-1.416.38a2.136 2.136 0 0 1 .072-1.303c.161-.415.427-.775.798-1.081a3.458 3.458 0 0 1 1.346-.675c.542-.146 1.04-.17 1.493-.073.456.093.839.281 1.15.563.311.282.522.63.632 1.042.126.457.093.876-.096 1.259a1.971 1.971 0 0 1-.9.891l.017.064c.592-.074 1.086.02 1.482.283.399.258.664.642.798 1.15.122.455.101.897-.062 1.326-.161.426-.44.801-.837 1.126-.395.324-.884.564-1.465.72Zm5.014-1.369a.883.883 0 0 1-.687-.088.854.854 0 0 1-.42-.551.846.846 0 0 1 .09-.679.88.88 0 0 1 .551-.419.864.864 0 0 1 .675.091.86.86 0 0 1 .42 1.014.947.947 0 0 1-.232.402.858.858 0 0 1-.397.23Zm2.351-.724 1.622-7.763-.015-.056-4.009 1.075-.33-1.23 5.533-1.482.337 1.257-1.611 7.79-1.527.409Zm9.002-2.293a3.39 3.39 0 0 1-1.5.083 2.621 2.621 0 0 1-1.216-.558 2.267 2.267 0 0 1-.71-1.094l1.428-.382c.116.326.333.559.651.701.318.139.661.159 1.028.06a1.473 1.473 0 0 0 1.1-1.098c.067-.27.058-.555-.025-.856a1.68 1.68 0 0 0-.413-.765 1.507 1.507 0 0 0-.694-.414 1.567 1.567 0 0 0-.848.007 1.944 1.944 0 0 0-.682.327c-.21.155-.364.327-.461.515l-1.387.137-.698-4.302 4.712-1.262.329 1.229-3.494.937.343 2.216.047-.013c.104-.217.277-.421.521-.611a2.33 2.33 0 0 1 .857-.421 2.56 2.56 0 0 1 2.577.704c.331.345.566.778.705 1.299a2.86 2.86 0 0 1 .012 1.535 2.725 2.725 0 0 1-.763 1.263c-.372.355-.845.609-1.419.763Zm10.008-11.506 1.471-.395 1.422 5.307c.156.582.155 1.13-.001 1.646a2.886 2.886 0 0 1-.873 1.343c-.429.378-.973.656-1.634.833-.664.178-1.276.21-1.836.097a2.893 2.893 0 0 1-1.428-.727c-.391-.369-.664-.844-.82-1.426l-1.422-5.306 1.472-.395 1.389 5.184c.09.339.245.62.464.845.222.224.489.375.802.453.312.075.654.062 1.027-.038.373-.1.675-.26.908-.481.235-.224.391-.489.468-.793.077-.304.07-.625-.02-.964l-1.389-5.183Zm8.083.227a1.124 1.124 0 0 0-.685-.684c-.324-.12-.704-.121-1.14-.004a2.092 2.092 0 0 0-.752.35 1.207 1.207 0 0 0-.403.512.945.945 0 0 0-.033.591.849.849 0 0 0 .233.409c.113.103.248.18.406.231.158.049.326.08.506.095.179.014.358.018.535.013l.812-.013a5.39 5.39 0 0 1 .962.052c.319.045.615.13.889.255.277.124.517.3.719.526.203.226.351.515.445.867.128.476.118.928-.028 1.355-.147.425-.423.801-.829 1.128-.403.323-.93.572-1.581.746-.632.17-1.206.219-1.724.148a2.534 2.534 0 0 1-1.316-.566c-.36-.306-.623-.726-.789-1.259l1.448-.388c.097.277.247.489.451.636.204.146.441.233.711.26.274.025.564-.003.871-.085.32-.086.587-.208.802-.368a1.42 1.42 0 0 0 .463-.557 1.01 1.01 0 0 0 .046-.668.805.805 0 0 0-.326-.473 1.411 1.411 0 0 0-.605-.212 5.11 5.11 0 0 0-.83-.05l-.988.01c-.715.007-1.313-.112-1.796-.357-.48-.248-.798-.663-.954-1.244a2.17 2.17 0 0 1 .052-1.362c.165-.43.446-.804.843-1.123.395-.321.877-.558 1.446-.71.576-.155 1.108-.189 1.596-.105.489.082.906.266 1.249.554.343.285.579.655.71 1.111l-1.416.379Zm7.169 4.392-2.752.737-2.177-8.123 2.808-.752c.807-.216 1.543-.239 2.209-.069.669.167 1.24.511 1.714 1.033.474.522.824 1.204 1.05 2.048.227.846.265 1.615.113 2.308a3.38 3.38 0 0 1-.977 1.762c-.5.483-1.163.834-1.988 1.056Zm-1.622-.93 1.21-.324c.566-.152 1.01-.382 1.333-.689a2.05 2.05 0 0 0 .603-1.161c.079-.466.035-1.01-.131-1.631-.167-.621-.4-1.111-.7-1.47a2.015 2.015 0 0 0-1.093-.698c-.425-.107-.913-.087-1.463.06l-1.253.336 1.494 5.577Z" fill="#EEF3F5"/><path d="m306.152 125.204-1.374.369.597-7.778 1.59-.426 4.41 6.436-1.374.368-3.412-5.141-.056.015-.381 6.157Zm-.702-2.798 3.748-1.005.278 1.035-3.748 1.004-.278-1.034Zm9.882-3.864-1.112.431a.946.946 0 0 0-.257-.28.868.868 0 0 0-.386-.161 1.193 1.193 0 0 0-.517.038c-.262.07-.467.186-.614.347-.146.161-.193.331-.142.51a.475.475 0 0 0 .271.333c.144.066.36.094.647.083l.961-.049c.534-.026.955.046 1.263.216.311.17.519.445.623.826.088.336.069.659-.056.968a1.957 1.957 0 0 1-.642.811 3.143 3.143 0 0 1-1.122.532c-.653.174-1.215.179-1.686.012a1.704 1.704 0 0 1-1.019-.958l1.193-.446c.12.226.287.376.5.45.214.074.465.073.754-.005.299-.08.522-.205.669-.376.15-.172.201-.348.153-.528a.49.49 0 0 0-.279-.331c-.142-.069-.343-.097-.602-.084l-.961.053c-.54.03-.966-.048-1.279-.234-.313-.189-.521-.478-.623-.867a1.418 1.418 0 0 1 .039-.926c.117-.292.321-.547.609-.766.29-.221.648-.389 1.074-.503.625-.167 1.152-.166 1.582.004.432.169.752.469.959.9Zm5.363-1.437-1.111.431a.963.963 0 0 0-.258-.28.864.864 0 0 0-.385-.161 1.197 1.197 0 0 0-.518.038c-.261.07-.466.186-.614.347-.145.16-.193.331-.142.51.039.156.13.267.271.333.144.066.36.093.648.083l.961-.049c.533-.026.954.046 1.263.216.311.169.518.445.623.826.088.336.069.659-.057.967a1.96 1.96 0 0 1-.642.812 3.142 3.142 0 0 1-1.122.531c-.652.175-1.214.18-1.685.013a1.702 1.702 0 0 1-1.019-.958l1.193-.446c.12.226.287.376.5.45.213.074.464.072.754-.005.298-.08.521-.205.669-.376.15-.172.2-.348.152-.529a.492.492 0 0 0-.278-.33c-.143-.069-.343-.097-.603-.084l-.96.052c-.54.031-.966-.047-1.279-.233-.314-.189-.521-.478-.623-.868a1.41 1.41 0 0 1 .038-.925c.118-.292.321-.547.61-.766.29-.221.648-.389 1.074-.503.624-.168 1.152-.166 1.581.004.433.169.752.469.959.9Zm4.589 3.085c-.534.143-1.025.155-1.474.037a2.333 2.333 0 0 1-1.146-.711c-.319-.356-.553-.813-.702-1.371-.147-.548-.172-1.057-.075-1.527.099-.473.306-.876.621-1.208.315-.335.727-.57 1.236-.707.328-.088.652-.118.972-.089.322.025.625.118.908.277.286.159.539.391.759.697.221.303.393.688.518 1.155l.104.386-4.37 1.17-.226-.846 3.165-.848a1.41 1.41 0 0 0-.329-.601 1.18 1.18 0 0 0-.546-.333 1.253 1.253 0 0 0-.676.006 1.267 1.267 0 0 0-.626.369c-.162.175-.27.377-.325.608a1.44 1.44 0 0 0 .013.699l.198.739a1.8 1.8 0 0 0 .384.753c.172.189.376.316.611.379.235.061.488.055.761-.018.183-.049.342-.118.476-.209.134-.093.242-.205.323-.336a.993.993 0 0 0 .145-.444l1.209-.182c.009.329-.06.638-.206.925a2.144 2.144 0 0 1-.648.746c-.288.212-.64.373-1.054.484Zm4.639-7.068.26.972-3.064.821-.26-.972 3.064-.821Zm-2.65-.659 1.256-.336 1.341 5.004a.83.83 0 0 0 .181.368.425.425 0 0 0 .256.125c.095.009.194 0 .298-.028a1.22 1.22 0 0 0 .21-.075c.064-.03.112-.054.145-.072l.475.925a2.453 2.453 0 0 1-.706.323 2.124 2.124 0 0 1-.889.086 1.376 1.376 0 0 1-.732-.332c-.205-.183-.351-.442-.438-.775l-1.397-5.213Zm8.215.678-1.112.432a.95.95 0 0 0-.257-.281.88.88 0 0 0-.386-.161 1.2 1.2 0 0 0-.518.039c-.261.07-.466.185-.613.346-.146.161-.193.331-.143.511a.48.48 0 0 0 .272.332c.144.066.36.094.647.084l.961-.05c.534-.026.955.046 1.263.216.311.17.519.445.623.826.088.336.069.659-.056.968a1.966 1.966 0 0 1-.642.812 3.142 3.142 0 0 1-1.122.531c-.653.175-1.215.179-1.686.012a1.704 1.704 0 0 1-1.019-.958l1.193-.446c.12.226.287.376.5.45.214.074.465.073.754-.005.299-.08.522-.205.669-.376.15-.172.201-.348.153-.528a.49.49 0 0 0-.279-.331c-.142-.068-.343-.096-.602-.084l-.961.053c-.54.03-.966-.048-1.279-.234-.313-.189-.521-.478-.623-.867a1.415 1.415 0 0 1 .039-.925c.117-.292.321-.548.609-.766.29-.222.648-.39 1.074-.504.625-.167 1.152-.166 1.582.004.432.169.752.469.959.9Z" fill="#637282"/><path d="m333.075 136.114-.314-1.17 1.988-6.369.976-.261.446 1.666-.595.159-1.335 4.298.017.064 4.811-1.289.324 1.209-6.318 1.693Zm4.279.469-.5-1.864-.124-.528-1.537-5.735 1.388-.372 2.177 8.123-1.404.376Z" fill="#A5ADB9"/><path fill="#3C4249" d="m344.926 104.462.698-.187 8.604 32.11-.698.187z"/><path d="m361.005 109.471-3.352-5.631 1.187-.318 2.297 4.183.057-.016-.028-4.79 1.08-.29 2.375 4.165.054-.014-.103-4.774 1.187-.318-.087 6.553-1.089.291-2.365-3.947-.047.012-.077 4.603-1.089.291Zm7.977-2.038a2 2 0 0 1-.824.055 1.324 1.324 0 0 1-.671-.318c-.188-.169-.322-.403-.402-.702-.069-.258-.079-.484-.028-.678.05-.194.143-.364.281-.509.137-.145.302-.271.495-.378.194-.109.398-.206.614-.289.26-.099.471-.182.632-.249a.994.994 0 0 0 .334-.204c.064-.07.082-.157.054-.26l-.004-.018c-.06-.224-.173-.38-.339-.467-.166-.088-.374-.098-.624-.031-.263.071-.457.184-.581.341a.88.88 0 0 0-.2.49l-1.044.127c.005-.299.074-.566.206-.801.132-.238.318-.438.556-.602a2.64 2.64 0 0 1 .837-.377c.22-.059.446-.092.678-.099a1.9 1.9 0 0 1 .666.096c.212.068.4.189.563.362.165.173.288.411.37.714l.819 3.058-1.035.277-.168-.627-.036.009a1.351 1.351 0 0 1-.553.815 1.853 1.853 0 0 1-.596.265Zm.068-.867c.216-.058.392-.15.528-.278a.985.985 0 0 0 .273-.443.911.911 0 0 0 .006-.502l-.144-.539a.539.539 0 0 1-.152.124c-.073.045-.157.09-.251.134a8.743 8.743 0 0 1-.282.127l-.243.103a1.942 1.942 0 0 0-.403.223.735.735 0 0 0-.244.288.529.529 0 0 0-.02.369c.054.198.166.329.338.391.172.062.37.063.594.003Zm2.847-6.543 1.633 6.092-1.077.289-1.633-6.092 1.077-.289Zm2.184-.585 1.633 6.092-1.077.289-1.633-6.092 1.077-.289Zm4.787 5.343c-.458.122-.88.133-1.264.032a2.007 2.007 0 0 1-.983-.61c-.273-.305-.473-.697-.601-1.175-.126-.47-.148-.906-.064-1.309.085-.405.262-.75.532-1.035.27-.287.623-.489 1.059-.606.282-.075.56-.101.834-.077.276.022.535.101.778.238.245.136.462.336.651.597.188.26.336.59.444.991l.088.33-3.745 1.003-.194-.725 2.712-.727a1.204 1.204 0 0 0-.281-.515 1.006 1.006 0 0 0-.469-.285 1.062 1.062 0 0 0-.578.005c-.221.059-.4.164-.537.316a1.13 1.13 0 0 0-.278.521 1.24 1.24 0 0 0 .01.599l.17.634c.071.266.181.481.329.645.148.163.322.271.524.325.201.053.419.048.653-.015.156-.042.292-.102.408-.18a.978.978 0 0 0 .276-.287.864.864 0 0 0 .125-.381l1.035-.157c.008.283-.051.548-.176.794a1.835 1.835 0 0 1-.556.64c-.246.18-.547.319-.902.414Zm3.976-6.058.223.832-2.627.704-.223-.833 2.627-.703Zm-2.272-.565 1.077-.289 1.149 4.29a.71.71 0 0 0 .155.315.36.36 0 0 0 .22.107.73.73 0 0 0 .255-.023 1.398 1.398 0 0 0 .304-.127l.407.794a2.374 2.374 0 0 1-.229.131 2.098 2.098 0 0 1-.376.146c-.267.08-.521.104-.761.073a1.167 1.167 0 0 1-.628-.285c-.176-.157-.301-.378-.376-.664l-1.197-4.468Zm7.041.58-.952.371a.825.825 0 0 0-.221-.24.752.752 0 0 0-.33-.138 1.03 1.03 0 0 0-.444.032c-.224.06-.4.16-.526.298-.125.137-.166.283-.122.437a.408.408 0 0 0 .232.285c.124.057.309.08.555.072l.824-.043c.457-.022.818.04 1.083.185.266.146.444.382.534.709a1.29 1.29 0 0 1-.049.829c-.106.262-.29.494-.55.696a2.702 2.702 0 0 1-.962.455c-.559.15-1.041.153-1.445.011a1.46 1.46 0 0 1-.873-.821l1.023-.383a.765.765 0 0 0 .428.386c.183.064.398.062.646-.004.256-.069.447-.176.574-.323.128-.147.172-.298.13-.453a.42.42 0 0 0-.238-.283c-.122-.059-.294-.083-.517-.072l-.823.045c-.463.026-.828-.041-1.096-.2-.269-.162-.447-.41-.534-.744a1.205 1.205 0 0 1 .033-.793c.101-.25.275-.469.522-.656.249-.19.556-.334.921-.432.535-.143.987-.142 1.356.004.37.145.644.402.821.77Z" fill="#637282"/><path d="m381.522 116.042 2.176 8.123-1.471.394-1.793-6.69-.048.012-1.574 1.723-.362-1.349 1.672-1.837 1.4-.376Zm7.183 6.9c-.571.154-1.105.192-1.601.115a2.635 2.635 0 0 1-1.266-.536 2.198 2.198 0 0 1-.733-1.101l1.491-.399c.072.216.196.388.373.516.175.126.385.205.628.236a2 2 0 0 0 .774-.063 1.94 1.94 0 0 0 .733-.358c.197-.163.335-.353.413-.57.078-.216.083-.443.017-.68a1.132 1.132 0 0 0-.365-.6 1.317 1.317 0 0 0-.681-.289 2.292 2.292 0 0 0-.923.077l-.718.193-.304-1.135.718-.192a1.83 1.83 0 0 0 .703-.345c.188-.156.319-.338.393-.548a1.1 1.1 0 0 0 .011-.67 1.122 1.122 0 0 0-.315-.558 1.078 1.078 0 0 0-.547-.282 1.498 1.498 0 0 0-.701.034 1.817 1.817 0 0 0-.654.32 1.308 1.308 0 0 0-.408.522 1.007 1.007 0 0 0-.049.642l-1.416.379a2.126 2.126 0 0 1 .071-1.302 2.63 2.63 0 0 1 .799-1.082 3.474 3.474 0 0 1 1.345-.675c.542-.145 1.04-.169 1.494-.073.456.094.839.281 1.15.564.311.282.521.629.632 1.042.125.457.093.876-.096 1.258a1.966 1.966 0 0 1-.901.892l.017.064c.593-.074 1.087.02 1.483.282.398.259.664.643.797 1.151.122.455.102.897-.061 1.326-.161.426-.44.801-.838 1.126-.395.324-.883.564-1.465.719Z" fill="#A5ADB9"/><path fill="#289548" d="m181.127 193.99 127.742-34.228 1.496 5.584-127.742 34.228z"/><path fill="#FC9F0F" d="m308.869 159.761 40.487-10.848 1.496 5.584-40.487 10.848z"/><path fill="#3170D1" d="m349.355 148.913 28.62-7.669 1.496 5.584-28.62 7.669z"/><path fill="#DE5846" d="m377.975 141.245 20.243-5.424 1.496 5.584-20.243 5.424z"/><path d="m265.131 189.179 1.576-.422 3.49 4.585.083-.023.73-5.715 1.575-.422 1.905 7.107-1.236.331-1.308-4.883-.066.018-.661 5.388-.923.248-3.27-4.347-.066.018 1.311 4.893-1.235.331-1.905-7.107Zm13.058 4.23c-.52.14-1.002.146-1.445.019a2.406 2.406 0 0 1-1.146-.723c-.319-.356-.552-.809-.699-1.36-.148-.551-.173-1.061-.076-1.531.1-.47.31-.871.63-1.203.321-.331.741-.566 1.262-.706.52-.139 1.002-.146 1.445-.019a2.39 2.39 0 0 1 1.144.728c.321.358.556.812.703 1.362.148.551.171 1.06.071 1.529a2.395 2.395 0 0 1-.627 1.198c-.321.331-.741.567-1.262.706Zm-.262-1.008a1.12 1.12 0 0 0 .645-.422 1.45 1.45 0 0 0 .255-.745 2.709 2.709 0 0 0-.094-.92 2.706 2.706 0 0 0-.38-.847 1.445 1.445 0 0 0-.593-.521 1.112 1.112 0 0 0-.772-.047c-.289.078-.508.221-.658.43a1.474 1.474 0 0 0-.257.749c-.022.289.011.596.098.922.087.324.212.606.375.845.166.238.365.41.597.517.233.103.495.116.784.039Zm3.855-.066-1.428-5.33 1.218-.327.238.889.055-.015c.015-.334.118-.616.31-.846a1.43 1.43 0 0 1 .747-.472c.07-.018.148-.035.235-.051.09-.019.165-.031.226-.035l.309 1.156a1.387 1.387 0 0 0-.266.019 2.44 2.44 0 0 0-.336.064 1.328 1.328 0 0 0-.578.315 1.14 1.14 0 0 0-.318.52c-.058.202-.056.416.005.643l.839 3.133-1.256.337Zm6.043-1.508c-.534.144-1.026.156-1.474.038a2.338 2.338 0 0 1-1.147-.712c-.318-.356-.552-.812-.702-1.37-.147-.548-.171-1.057-.074-1.527.099-.473.306-.876.621-1.208.314-.335.726-.571 1.235-.707.329-.088.653-.118.973-.089.322.025.624.117.908.277.285.159.538.391.759.697.22.303.393.688.518 1.155l.103.386-4.369 1.17-.227-.847 3.165-.848a1.4 1.4 0 0 0-.328-.6 1.182 1.182 0 0 0-.547-.333 1.25 1.25 0 0 0-.675.006 1.27 1.27 0 0 0-.627.369 1.339 1.339 0 0 0-.324.607c-.053.228-.049.461.013.7l.198.739c.083.31.211.561.383.753.173.189.376.316.612.379.234.061.488.055.761-.018.183-.049.341-.119.476-.209.134-.093.241-.205.323-.336.081-.131.13-.279.145-.444l1.208-.183c.009.33-.059.639-.206.926-.144.284-.36.533-.648.746a3.14 3.14 0 0 1-1.053.483Zm8.293-2.333-2.408.645-1.905-7.107 2.457-.659c.706-.189 1.35-.209 1.933-.06a2.953 2.953 0 0 1 1.5.904c.415.456.721 1.054.919 1.792.198.74.231 1.413.098 2.019a2.95 2.95 0 0 1-.855 1.542c-.437.422-1.017.73-1.739.924Zm-1.419-.814 1.058-.284c.495-.132.884-.333 1.167-.602a1.8 1.8 0 0 0 .527-1.016c.069-.408.031-.883-.114-1.427-.146-.544-.35-.973-.613-1.287a1.765 1.765 0 0 0-.956-.61c-.372-.094-.799-.076-1.28.053l-1.097.294 1.308 4.879Zm8.424-.952c-.534.143-1.025.156-1.474.038a2.335 2.335 0 0 1-1.146-.712c-.319-.356-.553-.813-.702-1.37-.147-.548-.172-1.058-.075-1.528.099-.472.306-.875.621-1.207.315-.335.727-.571 1.236-.707.328-.088.652-.118.972-.09.322.026.625.118.908.278.286.159.539.391.759.697.22.303.393.688.518 1.155l.104.385-4.37 1.171-.227-.847 3.165-.848a1.39 1.39 0 0 0-.328-.6 1.177 1.177 0 0 0-.547-.333 1.23 1.23 0 0 0-.675.006 1.263 1.263 0 0 0-.626.369c-.162.174-.27.377-.325.607-.053.228-.049.461.013.7l.198.739a1.8 1.8 0 0 0 .384.753c.172.189.376.316.611.379.235.061.488.055.761-.018.183-.049.342-.119.476-.209.134-.093.242-.205.323-.336a.993.993 0 0 0 .145-.444l1.208-.183c.01.33-.059.639-.205.926a2.144 2.144 0 0 1-.648.746c-.288.211-.64.372-1.054.483Zm4.639-7.067.26.971-3.064.821-.26-.971 3.064-.821Zm-2.65-.659 1.256-.337 1.341 5.004a.834.834 0 0 0 .181.369.424.424 0 0 0 .256.124c.094.01.194.001.298-.027a1.25 1.25 0 0 0 .21-.075c.064-.03.112-.054.145-.072l.474.925c-.06.041-.15.092-.267.153a2.375 2.375 0 0 1-.438.17 2.108 2.108 0 0 1-.889.085 1.367 1.367 0 0 1-.732-.331c-.205-.183-.351-.442-.438-.776l-1.397-5.212Zm6.692 5.404a2.291 2.291 0 0 1-.961.064 1.543 1.543 0 0 1-.784-.37c-.219-.197-.375-.47-.469-.819-.08-.301-.091-.565-.033-.791a1.34 1.34 0 0 1 .328-.594c.16-.169.353-.316.577-.441.227-.127.466-.24.717-.337.304-.116.549-.213.737-.29.187-.08.317-.16.39-.239.075-.082.096-.183.064-.303l-.006-.021c-.07-.262-.202-.443-.395-.545-.194-.102-.436-.114-.728-.036-.307.083-.533.215-.678.398a1.03 1.03 0 0 0-.233.572l-1.218.148c.006-.349.086-.661.24-.935.154-.277.371-.511.649-.702.278-.194.603-.34.976-.44.257-.069.52-.108.791-.116.271-.008.53.03.778.112.247.08.465.221.656.423.193.201.337.479.431.833l.956 3.567-1.207.324-.197-.732-.041.011a1.605 1.605 0 0 1-.211.503 1.61 1.61 0 0 1-.435.447 2.137 2.137 0 0 1-.694.309Zm.078-1.01c.253-.068.458-.176.616-.325.158-.152.265-.324.319-.517.058-.194.06-.389.007-.586l-.168-.628a.618.618 0 0 1-.177.144 2.903 2.903 0 0 1-.293.156c-.11.052-.22.101-.329.148l-.284.121c-.18.075-.337.162-.469.26a.86.86 0 0 0-.286.336.613.613 0 0 0-.022.43c.062.232.193.384.394.457.2.072.431.074.692.004Zm3.97-.19-1.428-5.331 1.256-.336 1.429 5.33-1.257.337Zm-.999-6.256a.759.759 0 0 1-.567-.061.658.658 0 0 1-.344-.424.652.652 0 0 1 .086-.54.748.748 0 0 1 .46-.339.743.743 0 0 1 .567.063.655.655 0 0 1 .345.425.662.662 0 0 1-.086.54.753.753 0 0 1-.461.336Zm2.899-1.871 1.905 7.108-1.256.336-1.905-7.107 1.256-.337Zm6.359 1.711-1.112.432a.95.95 0 0 0-.257-.281.88.88 0 0 0-.385-.161 1.215 1.215 0 0 0-.518.039c-.262.07-.466.185-.614.346-.146.161-.193.331-.142.511a.475.475 0 0 0 .271.332c.144.066.36.094.647.084l.962-.05c.533-.026.954.046 1.262.216.311.17.519.445.624.826a1.51 1.51 0 0 1-.057.968 1.966 1.966 0 0 1-.642.812 3.142 3.142 0 0 1-1.122.531c-.653.175-1.215.179-1.686.013a1.706 1.706 0 0 1-1.019-.959l1.194-.446a.89.89 0 0 0 .5.45c.213.075.464.073.753-.005.299-.08.522-.205.669-.376.15-.172.201-.348.153-.528a.49.49 0 0 0-.279-.331c-.142-.068-.343-.096-.602-.084l-.961.053c-.54.03-.966-.048-1.279-.234-.313-.189-.521-.478-.623-.867a1.415 1.415 0 0 1 .039-.925c.118-.292.321-.548.609-.766.291-.222.648-.39 1.074-.504.625-.167 1.152-.166 1.582.004.432.169.752.469.959.9Z" fill="#0D7ED6"/><path d="m144.387 146.226 261.766-70.14" stroke="#3C4249" stroke-width=".723"/><path fill="#212225" d="M124 70.139 385.766-.001l10.353 38.637-261.766 70.14z"/><path fill="#3C4249" d="m134.166 108.078 261.766-70.14.187.698-261.766 70.14z"/><rect x="148.582" y="72.531" width="23.125" height="23.125" rx="2.891" transform="rotate(-15 148.582 72.53)" fill="#235B95"/><g clip-path="url(#f)"><path d="M164.471 88.47a12.466 12.466 0 0 1-1.339-.606 19.795 19.795 0 0 1-1.364-.77 21.318 21.318 0 0 1-1.644-1.125 20.496 20.496 0 0 1-3.57-3.441 19.307 19.307 0 0 1-3.026-5.247c-.078-.204-.139-.466.09-.674a17.267 17.267 0 0 1 2.097-1.499 20.053 20.053 0 0 1 2.112-1.139c.837-.39 1.705-.708 2.595-.95l.496-.133a16.237 16.237 0 0 1 2.723-.474 19.98 19.98 0 0 1 2.398-.07c.859.019 1.717.102 2.566.25.302.065.38.322.415.538a19.34 19.34 0 0 1 .241 3.17 19.364 19.364 0 0 1-.239 2.887 20.443 20.443 0 0 1-1.371 4.765 21.043 21.043 0 0 1-.861 1.796c-.252.468-.52.922-.797 1.35-.262.415-.548.814-.856 1.194a.777.777 0 0 1-.665.178h-.001Zm-2.412-10.163c-.011.029-.868 1.622-1.493 2.785l-.526.98c-.25.436-.346.948-.271 1.452.046.265.146.52.293.745.179.27.404.504.664.693a16.603 16.603 0 0 0 2.361 1.477c.34.179.691.337 1.048.474a.58.58 0 0 0 .514-.138 9.83 9.83 0 0 0 .672-.934c.502-.78.939-1.603 1.306-2.46.131-.293.208-.61.228-.933a1.98 1.98 0 0 0-.119-.791 2.255 2.255 0 0 0-.96-1.122l-.815-.505-.098-.06a642.006 642.006 0 0 1-2.742-1.698.05.05 0 0 0-.048.013.051.051 0 0 0-.014.022Zm-.756-3.062.035.032c.024.02.385.363.886.84 1.2 1.142 3.21 3.053 3.727 3.511.381.339.788.483 1.114.396.317-.085.717-.429.819-1.585a15.39 15.39 0 0 0-.133-3.774c-.028-.173-.091-.379-.332-.43a13.749 13.749 0 0 0-2.049-.2c-.64-.02-1.279-.001-1.916.056-.734.064-1.462.19-2.174.378l-.38.102c-.711.194-1.404.448-2.072.76-.58.268-1.143.572-1.687.909-.587.356-1.147.756-1.675 1.197-.183.166-.135.375-.072.539a15.381 15.381 0 0 0 1.771 3.335c.368.524.927 1.117 1.502.963.326-.087.606-.415.767-.9.219-.654 1.003-3.313 1.471-4.902l.001-.002a133.289 133.289 0 0 1 .361-1.215c.006-.017.008-.025.013-.026.004-.001.011.004.023.016Zm-.619 7.191.6-1.129 2.962-.794 1.084.678-4.646 1.245Zm1.049-1.943.619-1.146 1.109.683-1.728.463Z" fill="#fff"/></g><path d="m192.499 77.28 12.565-3.367m-13.6-.499 12.564-3.366m-13.6-.5 12.564-3.367" stroke="#7E8A9C" stroke-width="1.445" stroke-linecap="round" stroke-linejoin="round"/><g clip-path="url(#g)"><path d="M276.096 50.28c-1.062-2.238-3.61-3.27-5.818-2.355-2.208.913-3.315 3.458-2.528 5.81.787 2.352 3.197 3.7 5.503 3.08l5.46-1.463c1.122-.3 1.939-1.28 2.06-2.474a3.012 3.012 0 0 0-1.512-2.93 2.742 2.742 0 0 0-3.165.333Zm0 0c.2.482.279 1.06.225 1.972" stroke="#7E8A9C" stroke-width="1.445" stroke-linecap="round" stroke-linejoin="round"/><path d="M279.348 44.006a2.174 2.174 0 0 0-2.655-1.533c-1.117.3-1.832 1.538-1.533 2.655a2.174 2.174 0 0 0 2.655 1.533 2.174 2.174 0 0 0 1.533-2.655s.019.07 0 0Z" fill="#289548"/><path fill="#3C4249" d="m289.95 38.897.698-.187 3.741 13.96-.698.188z"/><g clip-path="url(#h)" stroke="#7E8A9C" stroke-width="1.445" stroke-linecap="round" stroke-linejoin="round"><path d="M311.011 46.572c.378.572 1.1.752 1.672.375.312-.233.586-.606.562-.974m-3.924-10.171-.337-1.257m.337 1.257a4.349 4.349 0 0 1 5.311 3.066c1.047 3.909 2.072 4.383 2.072 4.383l-10.052 2.693s.557-1.272-.397-4.832a4.35 4.35 0 0 1 3.066-5.31Z"/></g><path fill="#3C4249" d="m326.946 28.984.698-.187 3.741 13.96-.698.188z"/></g><g clip-path="url(#i)"><g clip-path="url(#j)"><circle cx="357.417" cy="28.285" r="11.547" transform="rotate(-15 357.417 28.285)" fill="#3170D1"/><g clip-path="url(#k)"><g clip-path="url(#l)"><circle cx="357.418" cy="28.286" r="11.547" transform="rotate(-15 357.418 28.286)" fill="#3E9DFF"/><mask id="m" style="mask-type:alpha" maskUnits="userSpaceOnUse" x="345" y="16" width="24" height="24"><circle cx="357.418" cy="28.286" r="11.547" transform="rotate(-15 357.418 28.286)" fill="#000"/></mask><g mask="url(#m)"><circle cx="358.201" cy="18.023" r="11.81" transform="rotate(-15 358.201 18.023)" fill="#3170D1"/><ellipse cx="348.04" cy="30.799" rx="11.81" ry="11.547" transform="rotate(-15 348.04 30.799)" fill="#0B4DC7"/></g></g></g><path d="M358.049 27.726c.139.521.161.994.066 1.418a2.157 2.157 0 0 1-.566 1.064 2.277 2.277 0 0 1-1.058.6 2.286 2.286 0 0 1-1.218.01 2.184 2.184 0 0 1-1.022-.641c-.294-.32-.51-.74-.649-1.26-.14-.52-.162-.993-.068-1.415a2.17 2.17 0 0 1 .565-1.066 2.287 2.287 0 0 1 1.06-.6 2.273 2.273 0 0 1 1.216-.01 2.15 2.15 0 0 1 1.022.641c.295.318.512.738.652 1.259Zm-.882.236c-.098-.367-.238-.661-.421-.882a1.321 1.321 0 0 0-.626-.448 1.298 1.298 0 0 0-.75-.01 1.297 1.297 0 0 0-.644.384 1.346 1.346 0 0 0-.322.701c-.045.283-.019.607.079.974.099.367.238.662.42.886.182.22.392.37.628.447.237.075.486.077.749.007.264-.07.479-.198.646-.38.166-.186.272-.42.318-.702.047-.284.022-.61-.077-.977Zm1.88-3.097 1.296 4.84-.855.229-1.297-4.84.856-.229Z" fill="#fff"/></g></g></g></g><rect x="259.746" y="252.722" width="219.85" height="104.623" rx="8.483" transform="rotate(-15 259.746 252.722)" fill="#566270"/><path d="m460.469 210.958 2.813 3.125 3.574-.592c.428-.041.674.332.474.678l-2.099 3.636 2.135 3.6c.16.323-.072.824-.536.729l-4.045-.892-3.007 2.708c-.168.192-.769.133-.761-.381l.032-4.254-3.668-1.944c-.278-.218-.456-.61.072-.824l3.391-1.275.874-4.113c.095-.464.454-.488.751-.201Z" fill="#FEB933"/><g clip-path="url(#n)"><g clip-path="url(#o)"><circle cx="297.859" cy="270.317" transform="rotate(-15 297.859 270.317)" fill="#599294" r="15.552"/><g clip-path="url(#p)"><mask id="q" style="mask-type:alpha" maskUnits="userSpaceOnUse" x="282" y="254" width="32" height="32"><circle cx="297.853" cy="270.317" transform="rotate(-15 297.853 270.317)" fill="#000" r="15.552"/></mask><g mask="url(#q)"><path fill="#2C7A7D" d="m280.926 275.211 36.72-9.84 9.84 36.721-36.72 9.84z"/><path fill="#7EB6B8" d="m292.277 272.171 36.72-9.84 9.84 36.721-36.72 9.84z"/></g></g></g></g><path d="m321.759 252.189 1.005-.269 3.909 5.138.081-.022.817-6.404 1.005-.269 1.863 6.952-.788.211-1.415-5.282-.068.018-.757 5.864-.761.204-3.588-4.7-.068.018 1.416 5.282-.788.211-1.863-6.952Zm11.299 6.52a1.854 1.854 0 0 1-.609.061l.014-.76c.208-.003.385-.031.531-.084a.642.642 0 0 0 .343-.307c.086-.149.143-.369.169-.66l.04-.448-3.333-4.724.87-.233 2.552 3.769.055-.014.326-4.541.869-.233-.613 6.568a2.325 2.325 0 0 1-.191.768 1.427 1.427 0 0 1-.406.534 1.63 1.63 0 0 1-.617.304Zm8.151-4.28-2.986-4.789.842-.225 2.197 3.69.054-.015.044-4.29.856-.229 2.165 3.684.055-.015.061-4.281.842-.225-.192 5.64-.787.211-2.214-3.7-.082.022-.067 4.311-.788.211Zm8.153-2.054a2.19 2.19 0 0 1-.949.055 1.608 1.608 0 0 1-.789-.375c-.222-.197-.379-.466-.47-.805-.08-.299-.086-.557-.018-.774.067-.219.185-.409.353-.568.169-.159.365-.296.589-.412.225-.119.454-.226.688-.323.306-.125.555-.225.746-.298.193-.076.328-.152.405-.228.078-.077.101-.18.066-.309l-.007-.027c-.09-.335-.251-.571-.484-.708-.231-.137-.531-.156-.9-.057-.382.103-.66.267-.832.492a1.543 1.543 0 0 0-.315.66l-.833-.068a1.89 1.89 0 0 1 .345-.886 2.1 2.1 0 0 1 .647-.573c.252-.146.509-.253.772-.324.167-.045.365-.076.593-.093.23-.021.463.003.7.071.238.067.459.205.66.416.202.21.359.522.47.936l.92 3.436-.801.214-.189-.706-.041.011a1.46 1.46 0 0 1-.174.436 1.611 1.611 0 0 1-.418.465 2.011 2.011 0 0 1-.734.342Zm-.07-.752c.316-.085.567-.219.751-.401a1.322 1.322 0 0 0 .369-1.282l-.196-.733c-.023.05-.088.107-.194.172a3.94 3.94 0 0 1-.371.19 19.071 19.071 0 0 1-.74.308 3.229 3.229 0 0 0-.549.288 1.043 1.043 0 0 0-.362.385c-.077.147-.089.322-.034.526.075.278.234.461.478.548.246.085.528.084.848-.001Zm2.828-7.569 1.863 6.952-.801.215-1.863-6.952.801-.215Zm2.268-.608 1.863 6.952-.801.215-1.863-6.952.801-.215Zm5.546 6.082c-.503.135-.966.14-1.389.016a2.313 2.313 0 0 1-1.09-.712c-.303-.351-.525-.794-.668-1.328-.144-.534-.172-1.031-.087-1.49.087-.462.276-.855.565-1.178.291-.325.672-.551 1.143-.677a2.57 2.57 0 0 1 .841-.08c.289.02.569.102.841.248.271.143.516.364.734.662.218.298.393.69.523 1.177l.091.339-4.019 1.077-.186-.692 3.205-.859a1.765 1.765 0 0 0-.388-.74 1.375 1.375 0 0 0-.642-.414 1.437 1.437 0 0 0-.807.002 1.493 1.493 0 0 0-.765.459 1.62 1.62 0 0 0-.369.754 1.86 1.86 0 0 0 .03.858l.123.462c.106.394.263.709.472.947.211.234.458.39.741.467.282.075.584.069.908-.018.211-.056.393-.136.547-.241.155-.107.279-.237.372-.39.091-.156.147-.333.166-.533l.833.01a1.79 1.79 0 0 1-.226.803 2.076 2.076 0 0 1-.589.653 2.734 2.734 0 0 1-.91.418Zm4.219-6.835.182.678-2.702.725-.182-.679 2.702-.724Zm-2.249-.737.801-.214 1.332 4.969c.06.227.138.388.234.483a.525.525 0 0 0 .318.155c.117.008.233-.004.351-.036a1.44 1.44 0 0 0 .214-.071l.128-.064.356.676a1.624 1.624 0 0 1-.211.122 1.72 1.72 0 0 1-.361.133 1.663 1.663 0 0 1-.704.033c-.242-.04-.46-.14-.656-.301-.194-.162-.331-.394-.412-.698l-1.39-5.187Zm10.134 4.213-.723-7.258.679-.182.722 7.258-.678.182Zm-3.681-1.081-.073-.708 5.187-1.39.073.708-5.187 1.39Zm1.236 1.735-.722-7.258.679-.181.722 7.258-.679.181Zm-1.476-4.261-.074-.708 5.188-1.39.073.708-5.187 1.39Zm7.925-4.918 1.863 6.952-.842.226-1.626-6.07-.041.011-1.395 1.582-.229-.856 1.429-1.62.841-.225Z" fill="#EEF3F5"/><path d="m327.803 274.247-.757.203.591-6.546.745-.2 3.785 5.373-.756.203-3.125-4.539-.047.012-.436 5.494Zm-.345-2.403 3.05-.817.171.64-3.049.817-.172-.64Zm8.333-4.129a2.188 2.188 0 0 0-.394-.459 1.694 1.694 0 0 0-.477-.302 1.6 1.6 0 0 0-.551-.124 1.979 1.979 0 0 0-.617.072c-.353.094-.65.272-.89.531-.24.26-.398.591-.473.991-.076.401-.045.859.094 1.375.138.516.341.929.609 1.237.267.309.573.515.917.619.344.103.7.105 1.068.006.342-.091.623-.244.844-.46.222-.217.37-.479.444-.786a2.022 2.022 0 0 0-.034-1.011l.234-.012-1.793.48-.171-.64 2.269-.608.172.64c.132.491.141.945.029 1.364a2.25 2.25 0 0 1-.635 1.075 2.688 2.688 0 0 1-1.178.633c-.528.142-1.024.142-1.491.001a2.596 2.596 0 0 1-1.214-.81c-.344-.398-.6-.912-.769-1.541a4.115 4.115 0 0 1-.151-1.322c.026-.412.12-.783.282-1.111.162-.328.382-.605.663-.832.28-.227.611-.392.993-.494.314-.084.62-.115.917-.093.299.02.578.087.837.203a2.416 2.416 0 0 1 1.211 1.179l-.745.199Zm1.115-1.608-.172-.64 4.469-1.198.172.64-1.874.502 1.425 5.319-.721.194-1.426-5.319-1.873.502Zm8.834 3.421c-.4.107-.772.131-1.116.071a1.797 1.797 0 0 1-.871-.399 1.531 1.531 0 0 1-.484-.794 1.627 1.627 0 0 1 .23-1.387 1.31 1.31 0 0 1 .516-.435l-.009-.035a1.187 1.187 0 0 1-.809-.297 1.503 1.503 0 0 1-.478-.78 1.49 1.49 0 0 1 .013-.873c.091-.281.254-.526.489-.736a2.11 2.11 0 0 1 .878-.457c.346-.093.673-.107.981-.042.309.065.572.196.791.393.222.197.374.446.457.748.082.317.072.622-.032.916a1.191 1.191 0 0 1-.544.661l.009.035a1.27 1.27 0 0 1 .656.12c.211.097.397.24.558.428.16.185.275.404.344.656a1.56 1.56 0 0 1-.031.931 1.8 1.8 0 0 1-.555.782 2.54 2.54 0 0 1-.993.494Zm-.172-.64c.27-.072.491-.178.664-.318.172-.14.29-.304.354-.491.065-.188.069-.389.014-.603a1.117 1.117 0 0 0-.335-.55 1.231 1.231 0 0 0-.577-.281 1.522 1.522 0 0 0-.712.031 1.57 1.57 0 0 0-.641.331c-.172.152-.292.33-.36.533a1.092 1.092 0 0 0-.006.641c.056.214.157.386.304.517.15.131.335.213.556.248.221.034.468.015.739-.058Zm-.758-2.829c.214-.057.392-.15.534-.28a1.004 1.004 0 0 0 .298-1.04 1.028 1.028 0 0 0-.284-.488.953.953 0 0 0-.481-.246 1.315 1.315 0 0 0-.609.029c-.223.06-.407.154-.552.282a.934.934 0 0 0-.293.453 1.01 1.01 0 0 0 .007.563c.053.206.147.373.281.501.136.128.299.212.489.253.19.04.393.032.61-.027Zm6.387-.039-.708-2.642.687-.184 1.197 4.469-.686.184-.203-.756-.047.012a1.521 1.521 0 0 1-.333.71c-.179.217-.438.37-.775.46-.28.075-.544.081-.794.017a1.33 1.33 0 0 1-.662-.422c-.191-.217-.338-.515-.44-.896l-.761-2.84.687-.184.749 2.794c.087.326.248.561.482.706a.962.962 0 0 0 .782.103c.171-.046.333-.136.486-.271.155-.135.269-.309.34-.521.074-.214.074-.46-.001-.739Zm6.225-4.101-.722.194a1.542 1.542 0 0 0-.371-.487 1.533 1.533 0 0 0-.49-.293 1.664 1.664 0 0 0-.563-.111 2.038 2.038 0 0 0-.592.071 1.888 1.888 0 0 0-.907.536 1.98 1.98 0 0 0-.48.993c-.075.4-.044.859.094 1.375.139.516.341.928.607 1.238.267.308.571.515.911.619.342.104.693.108 1.054.011a2.06 2.06 0 0 0 .548-.234 1.72 1.72 0 0 0 .433-.375 1.57 1.57 0 0 0 .355-1.109l.721-.193c.028.319.002.618-.077.897a2.319 2.319 0 0 1-.988 1.331c-.24.158-.511.278-.811.358a2.59 2.59 0 0 1-1.456-.009 2.647 2.647 0 0 1-1.218-.809c-.35-.397-.609-.91-.777-1.538-.168-.629-.2-1.202-.096-1.721.104-.518.321-.955.65-1.309s.748-.6 1.256-.736a2.81 2.81 0 0 1 .882-.096c.289.016.563.08.822.192.258.109.491.265.699.467.207.2.379.446.516.738Zm5.669 4.669-.633-2.363-.058.016a4.663 4.663 0 0 1-.133.366c-.06.147-.164.292-.311.435-.147.142-.364.251-.651.328-.372.1-.726.094-1.062-.018a1.974 1.974 0 0 1-.884-.624c-.254-.304-.445-.693-.572-1.166-.126-.47-.154-.898-.086-1.287.069-.388.221-.715.458-.98.237-.265.543-.448.92-.549.291-.078.533-.091.728-.039.196.049.355.123.477.221.124.096.221.176.292.24l.082-.022-.19-.71.663-.178 1.647 6.146-.687.184Zm-1.858-1.86c.275-.074.489-.208.641-.403.151-.196.241-.435.272-.718a2.576 2.576 0 0 0-.091-.933 2.509 2.509 0 0 0-.38-.837 1.317 1.317 0 0 0-.589-.472 1.182 1.182 0 0 0-.761-.024c-.291.078-.513.218-.667.419a1.384 1.384 0 0 0-.272.718c-.028.278.001.574.085.888.085.318.211.594.378.828.168.232.368.398.601.5.235.1.496.111.783.034Zm3.319-3.21.72 2.689-.686.184-1.597-5.959.687-.184.586 2.188.058-.016c.043-.259.151-.484.324-.676.175-.194.437-.339.789-.433.304-.081.587-.092.849-.031.261.059.488.197.681.413.195.214.344.513.446.897l.761 2.84-.686.184-.749-2.793c-.095-.355-.261-.605-.497-.749-.235-.147-.514-.178-.838-.091-.225.06-.414.162-.567.305a1.077 1.077 0 0 0-.308.528c-.052.21-.043.444.027.704Zm5.324 3.252-1.647-6.146.664-.177.19.71.081-.022c.03-.091.073-.209.13-.353.059-.147.16-.29.303-.431.145-.142.362-.253.653-.331.377-.1.734-.095 1.071.016.338.111.633.318.887.62.253.302.443.688.569 1.157.127.474.156.906.088 1.296-.069.388-.22.716-.454.982a1.81 1.81 0 0 1-.911.547c-.287.077-.53.091-.728.042a1.326 1.326 0 0 1-.486-.222 4.258 4.258 0 0 1-.298-.251l-.059.016.634 2.363-.687.184Zm-.373-4.092c.09.338.22.622.388.854a1.4 1.4 0 0 0 .595.486c.228.092.48.102.756.028.287-.077.506-.217.658-.42.153-.205.243-.449.271-.733a2.517 2.517 0 0 0-.084-.907 2.444 2.444 0 0 0-.373-.811 1.355 1.355 0 0 0-.595-.486c-.232-.098-.494-.108-.785-.03a1.19 1.19 0 0 0-.647.401 1.315 1.315 0 0 0-.273.703c-.03.277 0 .581.089.915Zm5.43.99a.52.52 0 0 1-.411-.055.522.522 0 0 1-.253-.328.52.52 0 0 1 .055-.411.522.522 0 0 1 .328-.253.52.52 0 0 1 .411.055c.13.075.215.185.253.328a.51.51 0 0 1-.002.282.565.565 0 0 1-.138.242.51.51 0 0 1-.243.14Zm2.256-.604a.522.522 0 0 1-.411-.056.522.522 0 0 1-.253-.328.526.526 0 0 1 .055-.411.527.527 0 0 1 .329-.253.526.526 0 0 1 .411.055.527.527 0 0 1 .25.61.527.527 0 0 1-.381.383Zm2.257-.605a.525.525 0 0 1-.411-.055.522.522 0 0 1-.253-.328.52.52 0 0 1 .055-.411.523.523 0 0 1 .328-.254.52.52 0 0 1 .411.056c.13.075.215.184.253.328a.506.506 0 0 1-.002.281.568.568 0 0 1-.138.243.519.519 0 0 1-.243.14Zm-.552-6.289.826-.221 2.398 2.338.07-.018.907-3.225.827-.221-1.215 4.08.658 2.456-.721.193-.658-2.456-3.092-2.926Zm9.384 3.96c-.4.107-.772.131-1.116.071a1.805 1.805 0 0 1-.872-.399 1.544 1.544 0 0 1-.484-.794 1.641 1.641 0 0 1 .231-1.387c.137-.193.309-.338.516-.435l-.009-.035a1.191 1.191 0 0 1-.81-.297 1.508 1.508 0 0 1-.477-.78 1.482 1.482 0 0 1 .013-.873 1.67 1.67 0 0 1 .489-.736 2.11 2.11 0 0 1 .878-.457c.345-.093.672-.106.981-.042.308.065.572.196.791.393.221.197.373.446.456.748.083.317.072.622-.032.916a1.19 1.19 0 0 1-.543.661l.009.035a1.27 1.27 0 0 1 .656.12 1.677 1.677 0 0 1 .902 1.084 1.56 1.56 0 0 1-.031.931 1.8 1.8 0 0 1-.555.782 2.546 2.546 0 0 1-.993.494Zm-.172-.64c.27-.072.491-.178.663-.318.173-.14.291-.304.355-.491a1.114 1.114 0 0 0-.321-1.152 1.227 1.227 0 0 0-.578-.282 1.519 1.519 0 0 0-.711.031 1.575 1.575 0 0 0-.642.331 1.23 1.23 0 0 0-.359.533 1.092 1.092 0 0 0-.006.641c.055.214.157.386.304.517.149.131.335.213.556.248.221.034.468.015.739-.058Zm-.758-2.828a1.26 1.26 0 0 0 .533-.281 1.006 1.006 0 0 0 .299-1.04 1.028 1.028 0 0 0-.284-.488.953.953 0 0 0-.481-.246 1.315 1.315 0 0 0-.609.029c-.223.06-.407.154-.552.282a.927.927 0 0 0-.293.453 1.01 1.01 0 0 0 .007.563c.053.206.147.373.281.501.136.128.299.212.489.253.19.041.393.032.61-.026Zm4.026-.331.72 2.689-.686.184-1.198-4.469.664-.178.187.698.058-.015c.044-.256.154-.48.331-.675.176-.197.432-.341.77-.431.302-.081.584-.09.844-.027.26.061.486.2.679.417.193.214.34.512.442.892l.761 2.84-.687.184-.748-2.794c-.094-.351-.259-.6-.494-.747-.235-.149-.512-.181-.83-.095a1.225 1.225 0 0 0-.549.3c-.146.14-.243.315-.293.524-.05.209-.041.443.029.703Zm5.62-3.414.156.582-2.41.645-.156-.582 2.41-.645Zm-.49 4.922-1.363-5.087c-.069-.256-.066-.485.009-.688.074-.203.196-.373.365-.51a1.53 1.53 0 0 1 .574-.291c.169-.045.31-.068.424-.07.114-.001.2.003.259.012l-.039.647a2.762 2.762 0 0 0-.157-.005.911.911 0 0 0-.246.038c-.227.06-.375.162-.445.303-.069.141-.073.322-.014.543l1.319 4.924-.686.184Zm1.452-5.18.687-.184 1.285 4.795c.073.276.09.527.049.754a1.068 1.068 0 0 1-.299.583c-.159.161-.382.28-.669.357a6.991 6.991 0 0 1-.07.018l-.07.019-.171-.64.064-.017.064-.018c.209-.056.346-.159.41-.309.064-.148.066-.336.005-.563l-1.285-4.795Zm.138-.835a.506.506 0 0 1-.383-.044.46.46 0 0 1-.231-.291.455.455 0 0 1 .055-.367.502.502 0 0 1 .309-.229.497.497 0 0 1 .38.044.45.45 0 0 1 .234.29.454.454 0 0 1-.057.368.496.496 0 0 1-.307.229Zm.988-1.064.827-.221 2.398 2.339.07-.019.907-3.224.826-.222-1.214 4.081.658 2.455-.722.194-.658-2.456-3.092-2.927Zm8.641 4.072-3.226-5.522.733-.197 2.546 4.52.058-.016-.032-5.193.815-.218 2.569 4.513.058-.015-.055-5.188.733-.196-.032 6.396-.745.199-2.588-4.396-.046.013-.043 5.101-.745.199Zm9.684-.798-.633-2.363-.058.016a4.592 4.592 0 0 1-.132.366 1.327 1.327 0 0 1-.311.435c-.147.142-.364.251-.651.328a1.824 1.824 0 0 1-1.062-.018 1.976 1.976 0 0 1-.885-.624c-.254-.304-.444-.693-.571-1.166-.126-.47-.155-.899-.086-1.287.068-.388.221-.715.458-.98.236-.265.543-.448.919-.549.291-.078.534-.091.729-.039.196.049.355.123.477.221.123.096.221.176.292.24l.081-.022-.19-.71.664-.178 1.646 6.146-.687.184Zm-1.858-1.86c.276-.074.489-.208.641-.403.151-.196.242-.436.272-.718.03-.285 0-.596-.091-.933a2.49 2.49 0 0 0-.38-.837 1.315 1.315 0 0 0-.588-.472 1.183 1.183 0 0 0-.761-.024c-.291.078-.514.217-.668.419a1.393 1.393 0 0 0-.272.718c-.027.278.001.574.085.888.086.318.212.594.378.828.168.232.369.398.602.5.234.1.495.111.782.034Zm5.272-.764a2.58 2.58 0 0 1-1.116.071 1.801 1.801 0 0 1-.871-.399 1.538 1.538 0 0 1-.484-.794 1.642 1.642 0 0 1 .23-1.387c.138-.193.31-.338.517-.435l-.01-.035a1.19 1.19 0 0 1-.809-.297 1.508 1.508 0 0 1-.477-.78 1.49 1.49 0 0 1 .012-.873 1.67 1.67 0 0 1 .489-.736 2.12 2.12 0 0 1 .879-.457c.345-.093.672-.106.98-.042.309.065.573.196.792.393.221.197.373.446.456.748.083.317.072.622-.032.916a1.191 1.191 0 0 1-.544.661l.01.035c.225-.019.444.021.656.12.211.097.397.24.557.428.16.186.275.404.344.656.085.322.074.633-.031.931a1.79 1.79 0 0 1-.554.782 2.544 2.544 0 0 1-.994.494Zm-.171-.64c.269-.072.49-.178.663-.318.172-.14.291-.304.355-.491.064-.188.068-.389.013-.603a1.108 1.108 0 0 0-.334-.549 1.231 1.231 0 0 0-.578-.282 1.523 1.523 0 0 0-.712.031 1.57 1.57 0 0 0-.641.331 1.23 1.23 0 0 0-.359.533 1.076 1.076 0 0 0-.006.641c.055.214.156.386.303.517.15.131.335.213.556.248a1.8 1.8 0 0 0 .74-.058Zm-.758-2.828c.213-.058.391-.151.533-.281.144-.13.243-.284.297-.463.054-.178.054-.371.001-.577a1.028 1.028 0 0 0-.284-.488.95.95 0 0 0-.48-.246 1.319 1.319 0 0 0-.61.029c-.223.06-.407.154-.551.282a.936.936 0 0 0-.294.453 1.01 1.01 0 0 0 .008.563c.053.206.146.373.281.501.136.128.299.212.488.253.19.041.393.032.611-.026Z" fill="#C4C8CF"/><rect x="279.106" y="303.153" width="208.539" height="45.242" rx="8.483" transform="rotate(-15 279.106 303.153)" fill="#2391E7"/><path d="m450.503 257.229 21.851-5.855a8.483 8.483 0 0 1 10.389 5.999l7.318 27.313a8.483 8.483 0 0 1-5.998 10.389l-21.85 5.855-11.71-43.701Z" fill="#0D7ED6"/><g clip-path="url(#r)"><path d="m464.846 275.13 6.145-1.646-.713-2.663c-.073-.273.063-.31.305-.228 1.708.64 5.899 2.078 6.555 2.342.397.113.543.659.275 1.024-.437.556-3.329 3.965-4.507 5.306-.236.209-.304.228-.378-.045l-.677-2.527-6.145 1.647" stroke="#fff" stroke-width="1.414" stroke-linecap="round" stroke-linejoin="round"/></g><path d="m295.735 317.827 1.462-6.984-.015-.054-3.585.96-.2-.747 4.454-1.193.211.788-1.444 6.994-.883.236Zm7.388-1.877c-.511.137-.984.114-1.419-.068-.435-.184-.819-.516-1.151-.997-.333-.483-.601-1.103-.804-1.859-.201-.751-.278-1.418-.23-2.001.049-.586.216-1.067.5-1.444.287-.38.683-.638 1.19-.774.507-.136.978-.11 1.414.076.437.184.823.517 1.156 1 .335.481.603 1.096.804 1.848.203.756.28 1.426.234 2.011-.048.583-.214 1.063-.499 1.44-.285.375-.683.631-1.195.768Zm-.2-.747c.507-.136.835-.486.985-1.05.149-.564.103-1.299-.14-2.204-.161-.602-.363-1.097-.605-1.486-.24-.389-.51-.662-.809-.82a1.26 1.26 0 0 0-.948-.103c-.503.135-.829.488-.979 1.06-.151.569-.105 1.305.137 2.208.161.602.362 1.096.601 1.483.24.387.508.659.804.815.299.155.617.187.954.097Zm6.175-.854c-.512.137-.985.114-1.419-.068-.435-.184-.819-.516-1.152-.997-.333-.483-.601-1.103-.803-1.859-.202-.751-.278-1.418-.231-2.001.049-.586.216-1.067.501-1.444.286-.38.683-.638 1.19-.774.507-.136.978-.11 1.414.076.437.184.822.517 1.156 1 .334.481.603 1.097.804 1.848.202.756.28 1.426.233 2.011-.047.583-.214 1.063-.498 1.44-.285.375-.684.631-1.195.768Zm-.2-.747c.507-.136.835-.486.985-1.05.149-.564.103-1.299-.14-2.204-.161-.602-.363-1.097-.605-1.486-.241-.389-.51-.662-.81-.82a1.256 1.256 0 0 0-.948-.102c-.502.134-.828.487-.978 1.059-.151.569-.105 1.305.137 2.208.161.602.361 1.096.601 1.483.239.387.507.659.804.815.298.155.616.187.954.097Zm4.251-.382a.609.609 0 0 1-.48-.065.606.606 0 0 1-.295-.383.607.607 0 0 1 .064-.479.607.607 0 0 1 .383-.295.61.61 0 0 1 .48.064c.152.088.25.215.295.383a.652.652 0 0 1-.164.611.605.605 0 0 1-.283.164Zm2.28-8.223a2.58 2.58 0 0 1 .899-.066c.314.03.621.137.923.32.301.182.579.465.835.85.256.385.469.896.64 1.535.166.617.254 1.182.265 1.693.013.509-.047.956-.179 1.343a2.295 2.295 0 0 1-.594.96 2.225 2.225 0 0 1-.984.537 2.37 2.37 0 0 1-1.104.048 2.122 2.122 0 0 1-.921-.448 2.349 2.349 0 0 1-.629-.869l.829-.221c.16.299.379.523.656.671.279.146.602.17.969.072.536-.144.897-.492 1.081-1.043.187-.552.166-1.256-.063-2.111l-.055.014a2.18 2.18 0 0 1-.319.613 2.089 2.089 0 0 1-1.144.769c-.399.107-.79.106-1.176-.002a2.31 2.31 0 0 1-1.013-.605 2.467 2.467 0 0 1-.616-1.116 2.514 2.514 0 0 1-.028-1.244c.097-.407.291-.762.581-1.065.292-.304.674-.516 1.147-.635Zm.2.747a1.47 1.47 0 0 0-.713.42c-.189.201-.318.44-.387.715-.068.273-.063.554.015.844a1.7 1.7 0 0 0 .402.74c.192.201.418.342.677.423.261.078.534.078.819.002a1.503 1.503 0 0 0 .959-.766c.101-.187.165-.385.194-.594a1.607 1.607 0 0 0-.442-1.337 1.623 1.623 0 0 0-.691-.434 1.438 1.438 0 0 0-.833-.013Zm7.733 4.783c-.511.137-.984.114-1.418-.068-.435-.184-.819-.517-1.152-.997-.333-.484-.601-1.103-.804-1.859-.201-.751-.278-1.418-.23-2.001.049-.586.216-1.067.501-1.444.286-.38.683-.638 1.19-.774.507-.136.978-.11 1.413.076.438.184.823.517 1.156 1 .335.481.603 1.096.805 1.848.202.756.28 1.426.233 2.011-.048.583-.214 1.063-.499 1.44-.285.375-.683.631-1.195.768Zm-.2-.747c.507-.136.836-.486.985-1.05.15-.564.103-1.299-.139-2.204-.162-.602-.363-1.097-.606-1.486-.24-.389-.51-.663-.809-.82a1.26 1.26 0 0 0-.948-.103c-.502.135-.829.488-.979 1.059-.15.57-.105 1.306.137 2.209.161.602.362 1.096.601 1.483.24.387.508.659.804.814.299.156.617.188.954.098Zm6.257-.876c-.449.12-.869.15-1.261.09-.389-.06-.724-.2-1.003-.419a1.777 1.777 0 0 1-.59-.871l.855-.229c.078.219.207.392.387.518.178.125.389.201.633.231.243.029.498.008.765-.063.299-.08.549-.203.752-.369a1.35 1.35 0 0 0 .427-.58 1.12 1.12 0 0 0 .024-.698 1.25 1.25 0 0 0-.371-.625 1.296 1.296 0 0 0-.68-.312c-.274-.046-.588-.021-.941.074l-.557.149-.2-.747.557-.149c.276-.074.505-.189.686-.344.184-.156.31-.341.38-.553.071-.213.074-.442.009-.687a1.221 1.221 0 0 0-.321-.572 1.1 1.1 0 0 0-.551-.289 1.47 1.47 0 0 0-.704.032c-.24.064-.455.169-.644.314a1.323 1.323 0 0 0-.415.515c-.09.199-.109.415-.059.649l-.814.219a1.72 1.72 0 0 1 .072-1.046 2.15 2.15 0 0 1 .635-.861c.294-.244.641-.42 1.042-.527.43-.115.822-.127 1.177-.035.354.089.651.254.892.492.241.239.405.522.493.85.105.392.092.753-.04 1.085-.13.33-.356.596-.678.796l.014.054c.459-.045.852.05 1.179.285.327.233.549.57.668 1.011a1.82 1.82 0 0 1-.037 1.101 2.17 2.17 0 0 1-.645.93c-.307.267-.686.46-1.136.581Zm3.712-1.097-.164-.611 1.622-3.127c.19-.366.343-.681.459-.945a2.91 2.91 0 0 0 .222-.722 1.543 1.543 0 0 0-.035-.645 1.166 1.166 0 0 0-.346-.588 1.193 1.193 0 0 0-.587-.287 1.604 1.604 0 0 0-.718.036c-.267.072-.485.19-.654.354-.168.161-.28.355-.336.581a1.48 1.48 0 0 0 .026.735l-.801.215a2.093 2.093 0 0 1-.006-1.148c.106-.358.297-.667.575-.925.279-.26.622-.444 1.027-.552.407-.109.791-.12 1.152-.032.361.087.67.253.927.497s.433.545.529.903c.068.255.089.518.062.787-.026.267-.112.579-.258.939-.145.356-.359.802-.643 1.336l-1.114 2.089.015.054 3.232-.866.2.747-4.386 1.175Zm8.162-2.085c-.448.12-.868.15-1.26.09-.39-.06-.724-.2-1.003-.418a1.792 1.792 0 0 1-.591-.872l.856-.229c.078.219.207.392.386.518.179.125.39.202.633.231.243.029.499.008.766-.063.298-.08.549-.203.752-.369.203-.166.345-.359.427-.58.081-.221.089-.454.024-.698a1.257 1.257 0 0 0-.371-.625 1.3 1.3 0 0 0-.681-.312c-.274-.046-.587-.021-.94.074l-.557.149-.2-.747.556-.149a1.73 1.73 0 0 0 .687-.344c.184-.156.31-.34.379-.553.072-.213.075-.442.009-.686a1.211 1.211 0 0 0-.321-.573 1.101 1.101 0 0 0-.55-.289 1.483 1.483 0 0 0-.704.032c-.24.064-.455.169-.644.314a1.317 1.317 0 0 0-.415.516c-.09.198-.109.415-.059.648l-.815.219a1.72 1.72 0 0 1 .073-1.046 2.15 2.15 0 0 1 .635-.861 2.71 2.71 0 0 1 1.042-.527c.43-.115.822-.127 1.176-.035.354.09.652.254.893.492.241.239.405.522.493.851.105.391.091.752-.04 1.084-.13.33-.356.596-.678.796l.014.055c.459-.046.851.049 1.179.284.327.233.549.57.667 1.011.102.378.09.745-.036 1.101a2.16 2.16 0 0 1-.646.93c-.307.267-.685.46-1.136.581Zm6.006-1.609c-.512.137-.985.115-1.419-.067-.435-.185-.819-.517-1.152-.998-.333-.483-.601-1.103-.803-1.859-.202-.751-.279-1.418-.231-2.001.049-.586.216-1.067.501-1.444.286-.38.683-.638 1.19-.774.507-.135.978-.11 1.414.076.437.184.822.517 1.155 1.001.335.48.603 1.096.805 1.847.202.756.28 1.426.233 2.011-.048.583-.214 1.063-.498 1.44-.286.375-.684.631-1.195.768Zm-.201-.747c.507-.136.836-.486.985-1.05.15-.564.104-1.298-.139-2.204-.161-.602-.363-1.097-.606-1.486-.24-.389-.509-.662-.809-.82a1.256 1.256 0 0 0-.948-.102c-.502.134-.828.487-.979 1.059-.15.569-.105 1.305.137 2.208.162.602.362 1.096.602 1.483.239.387.507.659.804.815.298.155.616.187.953.097Zm6.978-1.171-.882.237.689-7.637.87-.233 4.415 6.269-.882.236-3.646-5.296-.054.015-.51 6.409Zm-.402-2.803 3.558-.953.2.746-3.558.954-.2-.747Zm6.577 1.148-1.863-6.952 2.349-.629c.544-.146 1.014-.173 1.413-.08.397.089.723.273.976.549.254.277.436.62.545 1.029.11.41.124.796.041 1.157-.082.362-.273.68-.57.954-.299.271-.717.479-1.256.624l-1.901.509-.204-.76 1.874-.503c.371-.099.656-.233.853-.403.199-.17.323-.368.372-.594.05-.229.038-.483-.037-.762a1.68 1.68 0 0 0-.352-.688 1.104 1.104 0 0 0-.628-.348c-.259-.054-.577-.031-.953.07l-1.48.396 1.663 6.206-.842.225Zm2.436-4 2.548 2.665-.978.262-2.521-2.672.951-.255Zm3.679 2.362-1.863-6.952.842-.226.924 3.449.082-.022 2.199-4.286 1.099-.294-2.079 3.919 3.942 3.033-1.018.273-3.283-2.584-.607 1.21.604 2.254-.842.226Z" fill="#fff"/><path d="M301.356 332.634a2.119 2.119 0 0 1-.977.044 1.78 1.78 0 0 1-.808-.383 1.579 1.579 0 0 1-.487-.736l.698-.187c.1.262.282.453.546.571.266.116.552.133.856.051a1.257 1.257 0 0 0 .931-.938c.056-.232.05-.474-.018-.729a1.436 1.436 0 0 0-.358-.649 1.303 1.303 0 0 0-.595-.361 1.359 1.359 0 0 0-.727.001 1.926 1.926 0 0 0-.539.235 1.646 1.646 0 0 0-.416.345l-.696.1-.426-3.03 3.096-.83.172.641-2.491.667.262 1.814.035-.01a1.819 1.819 0 0 1 .945-.615 1.893 1.893 0 0 1 1.045.001c.333.095.622.272.865.529.246.256.42.578.524.964.101.38.107.742.016 1.087a1.938 1.938 0 0 1-.509.891c-.251.25-.566.426-.944.527Zm3.694-1.95.038.327c.026.23.039.48.039.75a18.567 18.567 0 0 1-.051 1.348l-.523.141-.033-.519a19.523 19.523 0 0 0-.162-1.512l-.053-.336.745-.199Zm1.702-6.057c.245-.064.502-.083.771-.057.268.026.532.117.79.275.258.155.497.398.716.728.22.33.403.768.549 1.315.142.53.218 1.014.227 1.452.011.436-.04.82-.153 1.151a1.98 1.98 0 0 1-.509.823c-.227.217-.508.37-.844.46a2.028 2.028 0 0 1-.946.041 1.81 1.81 0 0 1-.789-.384 2 2 0 0 1-.54-.744l.71-.19c.138.256.325.448.563.575.24.125.516.146.831.062.459-.123.768-.421.926-.894.161-.473.142-1.077-.054-1.81l-.047.012a1.868 1.868 0 0 1-.274.526 1.765 1.765 0 0 1-.98.659 1.885 1.885 0 0 1-1.008-.001 1.996 1.996 0 0 1-.869-.519 2.13 2.13 0 0 1-.527-.957 2.144 2.144 0 0 1-.024-1.066 1.95 1.95 0 0 1 .498-.913c.25-.261.578-.442.983-.544Zm.171.64a1.267 1.267 0 0 0-.611.36 1.37 1.37 0 0 0-.332.613c-.058.234-.053.475.013.723.067.249.182.46.345.635.164.172.358.292.58.362.224.067.458.067.702.002a1.282 1.282 0 0 0 .822-.657c.086-.16.142-.33.167-.509a1.37 1.37 0 0 0-.035-.537 1.371 1.371 0 0 0-.344-.609 1.392 1.392 0 0 0-.593-.372 1.229 1.229 0 0 0-.714-.011Zm6.629 4.099c-.438.118-.844.099-1.216-.057-.373-.158-.702-.443-.987-.856-.286-.414-.515-.945-.689-1.593-.173-.644-.238-1.215-.198-1.715.043-.502.186-.914.43-1.238.245-.325.585-.546 1.02-.663.434-.116.838-.094 1.211.065.375.158.705.443.991.858.287.411.517.939.69 1.583.173.648.24 1.223.2 1.724-.041.5-.184.911-.428 1.234-.244.322-.586.541-1.024.658Zm-.172-.64c.435-.116.716-.416.845-.9.128-.483.088-1.113-.12-1.889-.138-.516-.311-.94-.519-1.273-.206-.334-.437-.568-.693-.703a1.076 1.076 0 0 0-.813-.088c-.431.115-.71.418-.839.908-.129.487-.09 1.118.117 1.892.139.516.31.94.516 1.272.205.332.435.564.689.698.256.133.528.161.817.083Zm3.826-6.813 1.597 5.959-.722.193-1.394-5.202-.035.009-1.196 1.356-.196-.733 1.224-1.389.722-.193Zm3.483 5.504a.52.52 0 0 1-.411-.056.519.519 0 0 1-.253-.328.522.522 0 0 1 .055-.411.525.525 0 0 1 .328-.253.525.525 0 0 1 .411.055.52.52 0 0 1 .253.328.558.558 0 0 1-.14.525.519.519 0 0 1-.243.14Zm1.954-7.048c.245-.064.502-.083.771-.057.269.025.533.117.791.274.258.156.497.399.716.729.219.33.402.768.549 1.315.142.53.217 1.014.227 1.452.011.436-.041.819-.153 1.151a1.977 1.977 0 0 1-.51.823c-.226.216-.508.37-.843.46a2.032 2.032 0 0 1-.947.041 1.82 1.82 0 0 1-.789-.384 2.016 2.016 0 0 1-.539-.744l.71-.191c.137.257.325.449.563.576.239.125.516.146.83.062.46-.124.769-.422.927-.894.16-.474.142-1.077-.054-1.81l-.047.012a1.881 1.881 0 0 1-.274.526 1.783 1.783 0 0 1-.98.659 1.875 1.875 0 0 1-1.008-.002 1.979 1.979 0 0 1-.869-.518 2.123 2.123 0 0 1-.528-.957 2.155 2.155 0 0 1-.023-1.066c.083-.349.249-.653.497-.913.251-.261.578-.442.983-.544Zm.172.64a1.259 1.259 0 0 0-.611.36 1.36 1.36 0 0 0-.332.613 1.42 1.42 0 0 0 .013.723c.066.248.181.46.344.634.165.172.359.293.581.363.224.066.458.067.702.002a1.3 1.3 0 0 0 .822-.657c.086-.16.141-.33.166-.509a1.383 1.383 0 0 0-.379-1.146 1.389 1.389 0 0 0-.592-.372 1.23 1.23 0 0 0-.714-.011Zm6.547 4.121a2.118 2.118 0 0 1-.977.044 1.771 1.771 0 0 1-.807-.383 1.571 1.571 0 0 1-.487-.736l.698-.187a.992.992 0 0 0 .546.571c.266.115.551.132.856.051.244-.066.446-.181.605-.346.162-.166.27-.364.325-.593a1.443 1.443 0 0 0-.017-.728 1.446 1.446 0 0 0-.358-.649 1.308 1.308 0 0 0-1.322-.36 1.914 1.914 0 0 0-.539.235 1.588 1.588 0 0 0-.416.345l-.697.099-.425-3.029 3.096-.83.171.64-2.49.668.261 1.813.035-.009a1.805 1.805 0 0 1 .945-.615 1.893 1.893 0 0 1 1.911.53c.245.256.42.577.523.963.102.381.107.743.017 1.087a1.939 1.939 0 0 1-.51.892c-.251.25-.566.426-.944.527Zm7.824-8.571.722-.193 1.057 3.945c.109.408.111.797.005 1.169a2.093 2.093 0 0 1-.604.969c-.299.276-.682.476-1.149.601-.468.126-.9.144-1.296.054a2.104 2.104 0 0 1-1.01-.537 2.167 2.167 0 0 1-.578-1.014l-1.057-3.946.721-.193 1.042 3.887c.078.291.211.533.4.726.189.19.418.319.69.385.273.065.575.052.907-.037.332-.089.6-.229.804-.421.204-.194.338-.42.404-.679a1.609 1.609 0 0 0-.016-.828l-1.042-3.888Zm5.821.037a.949.949 0 0 0-.609-.573c-.292-.096-.618-.096-.979.001a1.79 1.79 0 0 0-.658.313 1.143 1.143 0 0 0-.365.476.868.868 0 0 0-.027.552c.043.16.117.286.224.38.107.092.231.16.372.203.14.042.282.069.427.082.145.011.276.017.395.016l.648.001c.167-.001.354.009.564.03.211.02.42.069.628.146.21.075.397.193.563.355.166.161.286.382.361.661.086.322.08.635-.019.941a1.787 1.787 0 0 1-.567.816c-.279.239-.648.42-1.105.542-.427.115-.815.145-1.164.091a1.825 1.825 0 0 1-.888-.38 1.7 1.7 0 0 1-.53-.778l.745-.199c.08.219.205.385.377.497.173.11.37.173.593.191.225.014.455-.01.692-.073.275-.074.511-.185.706-.333a1.31 1.31 0 0 0 .419-.518.926.926 0 0 0 .04-.622.72.72 0 0 0-.296-.438 1.244 1.244 0 0 0-.517-.186 4.775 4.775 0 0 0-.64-.047l-.789-.013c-.501-.009-.921-.101-1.259-.277-.338-.175-.561-.464-.669-.865a1.5 1.5 0 0 1 .037-.946c.115-.299.308-.558.577-.778.271-.223.597-.385.977-.487a2.5 2.5 0 0 1 1.08-.067c.335.055.621.178.859.368.24.189.405.433.496.731l-.699.187Zm5.003 3.45-1.839.493-1.597-5.959 1.921-.515c.578-.155 1.105-.168 1.58-.04.474.127.881.383 1.219.768.338.384.589.884.755 1.501.166.621.198 1.185.097 1.692a2.441 2.441 0 0 1-.69 1.289c-.359.352-.841.609-1.446.771Zm-1.289-.341 1.071-.287c.493-.132.876-.336 1.149-.613a1.82 1.82 0 0 0 .507-1.006c.065-.394.032-.833-.098-1.318-.129-.481-.318-.874-.568-1.179a1.808 1.808 0 0 0-.92-.615c-.363-.104-.777-.094-1.242.031l-1.152.308 1.253 4.679Z" fill="#212225"/><defs><clipPath id="a"><path fill="#fff" transform="translate(124)" d="M0 0h487v332H0z"/></clipPath><clipPath id="b"><rect x="124" y="70.139" width="271" height="869.368" rx="12" transform="rotate(-15 124 70.14)" fill="#fff"/></clipPath><clipPath id="c"><path fill="#fff" transform="rotate(-15 432.694 -1181.147)" d="M0 0h58.536v14.453H0z"/></clipPath><clipPath id="d"><path fill="#fff" transform="rotate(-15 432.694 -1181.147)" d="M0 0h14.453v14.453H0z"/></clipPath><clipPath id="e"><path fill="#fff" transform="rotate(165 190.78 132.273)" d="M0 0h7.227v7.227H0z"/></clipPath><clipPath id="f"><path fill="#fff" transform="rotate(-15 360.152 -541.583)" d="M0 0h16.818v16.818H0z"/></clipPath><clipPath id="g"><path fill="#fff" transform="rotate(-15 305.71 -982.939)" d="M0 0h65.04v14.453H0z"/></clipPath><clipPath id="h"><path fill="#fff" transform="rotate(-15 286.56 -1128.405)" d="M0 0h14.453v14.453H0z"/></clipPath><clipPath id="i"><path fill="#fff" transform="rotate(-15 248.05 -1293.656)" d="M0 0h23.125v23.125H0z"/></clipPath><clipPath id="j"><path fill="#fff" transform="rotate(-15 248.05 -1293.656)" d="M0 0h23.095v23.125H0z"/></clipPath><clipPath id="k"><path fill="#fff" transform="rotate(-15 248.055 -1293.656)" d="M0 0h23.095v23.095H0z"/></clipPath><clipPath id="l"><path fill="#fff" transform="rotate(-15 248.055 -1293.656)" d="M0 0h23.095v23.095H0z"/></clipPath><clipPath id="n"><path fill="#fff" transform="rotate(-15 1124.274 -929.256)" d="M0 0h31.104v31.104H0z"/></clipPath><clipPath id="o"><path fill="#fff" transform="rotate(-15 1124.272 -929.237)" d="M0 0h31.104v31.104H0z"/></clipPath><clipPath id="p"><path fill="#fff" transform="rotate(-15 1124.271 -929.23)" d="M0 0h31.104v31.104H0z"/></clipPath><clipPath id="r"><path fill="#fff" transform="rotate(-15 1257.028 -1622.542)" d="M0 0h14.138v14.138H0z"/></clipPath></defs></svg>