<?xml version="1.0" encoding="utf-8"?>
<!-- Generator: Adobe Illustrator 27.5.0, SVG Export Plug-In . SVG Version: 6.00 Build 0)  -->
<svg version="1.1" xmlns="http://www.w3.org/2000/svg" xmlns:xlink="http://www.w3.org/1999/xlink" x="0px" y="0px"
	 viewBox="0 0 540 352" enable-background="new 0 0 540 352" xml:space="preserve">
<path fill="#3C4249" d="M32.1,45.9c0-11,9-20,20-20h445c11,0,20,9,20,20v264c0,11-9,20-20,20h-445c-11,0-20-9-20-20V45.9z"/>
<path fill="none" stroke="#637282" stroke-width="2" stroke-linecap="round" d="M181.8,319.6L118.9,84.8
	c-2.7-10.2,3.3-20.6,13.5-23.3l35-9.4 M198.7,43.7L325.1,9.9 M177,49.5l9.2-2.5 M404.6,32L421.6,95"/>
<path fill="#637282" d="M121.1,46.9h-2v7h-7v2h7v7h2v-7h7v-2h-7V46.9z"/>
<path fill="#637282" d="M99.1,46.9h-2v7h-7v2h7v7h2v-7h7v-2h-7V46.9z"/>
<path fill="#637282" d="M75.4,105.8h2v-7h7v-2h-7v-7h-2v7h-7v2h7V105.8z"/>
<path fill="#637282" d="M97.4,83.8h2v-7h7v-2h-7v-7h-2v7h-7v2h7V83.8z"/>
<path fill="#637282" d="M97.4,105.8h2v-7h7v-2h-7v-7h-2v7h-7v2h7V105.8z"/>
<path fill="#637282" d="M97.4,127.8h2v-7h7v-2h-7v-7h-2v7h-7v2h7V127.8z"/>
<path fill="none" stroke="#0D7ED6" stroke-width="2" stroke-linecap="round" d="M118.3,104.5l12,44.8 M475.2,273l-36.6-143.5"/>
<path fill="#637282" d="M91.9,211c3.5-2.1,7.9-2.1,11.5,0l22,12.8c3.5,2.1,5.7,5.8,5.7,9.9v25.5c0,4.1-2.2,7.9-5.7,10l-22,12.8
	c-3.5,2.1-7.9,2.1-11.5,0l-22-12.8c-3.5-2.1-5.7-5.8-5.7-10v-25.5c0-4.1,2.2-7.9,5.7-9.9L91.9,211z"/>
<path fill="none" stroke="#637282" stroke-width="2" stroke-linecap="round" d="M76.7,205l11.9-6.9c4.9-2.9,11-2.9,15.9,0l5.8,3.4
	 M119.5,206.7l2.9,1.7 M73.3,287.9l15.3,8.9c4.9,2.9,11,2.9,15.9,0l30.6-17.8c4.9-2.9,8-8.1,8-13.9v-55.5c0-5.7,0-10.2-2.5-19.2
	c-2-7.2-6.5-25-9-34.5 M126.6,210.9l3.5,2 M157.1,253.9l-6.9-26.5"/>
<path fill="none" stroke="#637282" stroke-width="2" stroke-linecap="round" d="M68.1,137.7v7.6c0,2.8-1.5,5.4-3.9,6.9l-14.9,8.8
	c-2.4,1.4-5.4,1.4-7.8,0l-7.5-4.4 M22.1,140.6v4.4c0,2.9,1.5,5.5,4,6.9l2.7,1.5"/>
<path fill="none" stroke="#0D7ED6" stroke-width="2" stroke-linecap="round" stroke-linejoin="round" d="M42.6,149
	c0.6,0.4,1.3,0.6,2.1,0.5l8-1c2.3-0.3,3.2-0.2,3.7-2.7c0.4-2.2,1.2-5.3,1.3-6.5 M42.6,149c-0.6-0.4-1.1-1-1.3-1.7l-0.8-2.8
	 M42.6,149l2-7.9 M38,134.6l-13.2,1.5c-0.7,0.1-1.5-0.1-2.1-0.5 M38,134.6l1.8-7.8 M38,134.6l1.7,6.4 M22.7,135.6
	c-0.6-0.4-1.1-1-1.3-1.7l-2.7-10.1c-0.5-1.7-0.5-2.8,0.2-4s1.6-3.4,2-3.9 M22.7,135.6l2.1-7.9 M56.5,132.4l9.2-1.1
	c2.3-0.3,2.8-0.8,3.2-2.2c0.2-1.1,0.6-5.3,0.8-7.3 M33.1,98.1c-0.2,0.3-0.3,0.6-0.4,0.9c-0.1,0.3,0,0.7,0.1,1l3.4,12.7l-3.8,0.4
	 M33.1,98.1c0.2-0.3,0.4-0.5,0.7-0.7c0.3-0.2,0.6-0.3,0.9-0.3l9.3-1.1c0.7-0.1,1.5,0.1,2.1,0.5c0.6,0.4,1.1,1,1.3,1.7l3.4,12.7
	l6.5-0.8 M33.1,98.1c-0.2,0.5-2.6,3-3,4.1c-0.4,1.1-0.2,1.8,0.2,3.3c0.3,1.3,1.5,5.6,2,7.6 M67.7,123.4c0.3,0,0.7-0.1,0.9-0.3
	c0.3-0.2,0.5-0.4,0.7-0.7c0.2-0.3,0.3-0.6,0.4-0.9c0.1-0.3,0-0.7-0.1-1l-2.4-8.9c-0.2-0.7-0.7-1.3-1.3-1.7c-0.6-0.4-1.3-0.6-2.1-0.5
	l-3.3,0.4 M32.3,113.1l-9.4,1.1c-0.3,0-0.7,0.1-0.9,0.3c-0.3,0.2-0.5,0.4-0.7,0.7c-0.2,0.3-0.3,0.6-0.4,0.9c-0.1,0.3,0,0.7,0.1,1
	l2.4,8.9c0.2,0.7,0.7,1.3,1.3,1.7c0.6,0.4,1.3,0.6,2.1,0.5l4.4-0.5 M37.1,126.9l2.8-0.3l3.4,12.7c0.2,0.7,0.7,1.3,1.3,1.7
	c0.6,0.4,1.3,0.6,2.1,0.5l9.3-1.1c0.3,0,0.7-0.1,0.9-0.3c0.3-0.2,0.5-0.4,0.7-0.7c0.2-0.3,0.3-0.6,0.4-0.9c0.1-0.3,0-0.7-0.1-1
	l-3.4-12.7l10.2-1.2"/>
<path fill="none" stroke="#637282" stroke-width="2" stroke-linecap="round" stroke-linejoin="round" d="M96.1,177.9v17.5"/>
<path fill="#637282" stroke="#637282" stroke-width="2" stroke-linecap="round" stroke-linejoin="round" d="M108.1,168.5
	c0,1-0.3,2-0.8,2.9c-0.5,0.9-1.3,1.6-2.1,2.1l-6.1,3.6c-0.9,0.5-1.9,0.8-2.9,0.8s-2-0.3-2.9-0.8l-6.1-3.6c-0.9-0.5-1.6-1.3-2.1-2.1
	c-0.5-0.9-0.8-1.9-0.8-2.9v-7.2c0-1,0.3-2,0.8-2.9c0.5-0.9,1.3-1.6,2.1-2.1l6.1-3.6c0.9-0.5,1.9-0.8,2.9-0.8s2,0.3,2.9,0.8l6.1,3.6
	c0.9,0.5,1.6,1.3,2.1,2.1c0.5,0.9,0.8,1.9,0.8,2.9V168.5z"/>
<path fill="none" stroke="#637282" stroke-width="2" stroke-linecap="round" d="M80.6,152.4l-12.5-7"/>
<path fill="none" stroke="#637282" stroke-width="2" stroke-linecap="round" d="M83.6,159.4l-6-3.5 M72.6,153l-5-2.9"/>
<path fill="none" stroke="#0D7ED6" stroke-width="2" stroke-linecap="round" d="M50.1,237.5v-7.8c0-5.7,3-11,8-13.8l11.7-6.8
	 M50.1,246.4v18.8c0,5.7,3,11,8,13.8l10.5,6.1"/>
<path fill="none" stroke="#72BFFB" stroke-width="2" stroke-linecap="round" d="M92.4,225.1l2.3-1.3c1-0.6,2.1-0.9,3.3-0.9
	c1.1,0,2.3,0.3,3.3,0.9l14.3,8.2c1,0.6,1.8,1.4,2.4,2.4c0.6,1,0.9,2.1,0.9,3.3v16.4c0,1.1-0.3,2.3-0.9,3.3c-0.6,1-1.4,1.8-2.4,2.4
	l-14.3,8.2c-1,0.6-2.1,0.9-3.3,0.9c-1.1,0-2.3-0.3-3.3-0.9l-14.3-8.2c-1-0.6-1.8-1.4-2.4-2.4c-0.6-1-0.9-2.1-0.9-3.3v-16.4
	c0-1.1,0.3-2.3,0.9-3.3c0.6-1,1.4-1.8,2.4-2.4l8-4.6"/>
<path fill="none" stroke="#72BFFB" stroke-width="2" stroke-linecap="round" d="M97.9,268.3v-2.8 M97.9,261.8v-5.7 M97.9,251.9v-3
	c0-0.9,0.2-1.7,0.7-2.4c0.4-0.7,1-1.4,1.8-1.8l17.3-10"/>
<path fill="none" stroke="#72BFFB" stroke-width="2" stroke-linecap="round" d="M100,244.9c-1.2,0.7-2.8,0.7-4,0l-5.6-3.2
	 M81.6,236.7l5.7,3.2"/>
<path fill="none" stroke="#637282" stroke-width="2" stroke-linecap="round" d="M484.6,336.4l-56.8-217.5"/>
<path fill="#637282" d="M492.3,188.8h2v-7h7v-2h-7v-7h-2v7h-7v2h7V188.8z"/>
<path fill="#637282" d="M492.3,145.8h2v-7h7v-2h-7v-7h-2v7h-7v2h7V145.8z"/>
<path fill="#637282" d="M492.3,210.8h2v-7h7v-2h-7v-7h-2v7h-7v2h7V210.8z"/>
<path fill="#637282" d="M514.3,188.8h2v-7h7v-2h-7v-7h-2v7h-7v2h7V188.8z"/>
<path fill="#637282" d="M514.3,166.8h2v-7h7v-2h-7v-7h-2v7h-7v2h7V166.8z"/>
<path fill="#637282" d="M514.3,145.8h2v-7h7v-2h-7v-7h-2v7h-7v2h7V145.8z"/>
<path fill="#637282" d="M470.3,188.8h2v-7h7v-2h-7v-7h-2v7h-7v2h7V188.8z"/>
<path fill="none" stroke="#637282" stroke-width="2" stroke-linecap="round" stroke-linejoin="round" d="M505.2,28.4
	c0,0,2.1,2.4,6.9,7c2.6,2.4,4.8,5.3,6.5,8.4c5.3,9.4,6.4,21.1,3.9,32.7 M435.1,113.2c0,0,5.3,4.8,8.9,7.6c12.8,9.6,31.9,9.2,49-1.9
	 M520.6,83.3c-4,12-11.8,23.5-22.6,32 M470.5,117.2c0,0,3,2.9,7.9,7.7 M479.9,112.8c0,0,3.6,3.5,8.5,8.3"/>
<path fill="none" stroke="#637282" stroke-width="2" stroke-linecap="round" stroke-linejoin="round" d="M485.4,101.3
	c20.3-16.1,28.3-44.1,17.8-62.7C492.7,20,467.8,18,447.5,34.1 M429.7,96.8c9.3,16.6,30.2,20,49,9.1 M442.3,38.8
	c-3.2,3.2-6,6.8-8.4,10.5 M494.2,28.6c-6.9-3.2-15.2-3.8-23.6-1.7 M442,108.7c-3.3-2.5-6-5.9-8-9.5c-10.5-18.6-2.5-46.7,17.8-62.7
	c3.8-3,7.7-5.3,11.6-7.1"/>
<path fill="#212225" d="M470.7,56.6l-33.2,30.1L475,39.9l13.8,50.6L470.7,56.6z M453.4,77.7l5.7-5.2l15.1,0.9l3,5.8L453.4,77.7z
	 M463.2,68.8l5.8-5.3l3,5.7L463.2,68.8z"/>
<path fill="none" stroke="#7E8A9C" stroke-width="2" stroke-linecap="round" stroke-linejoin="round" d="M485.2,77.2l3.6,13.3
	l-18.1-33.9l-8.1,7.4 M484,73l-2.5-9.1 M479.6,56.6L475,39.9l-37.5,46.8l12-10.9 M459.4,66.8l-5.3,4.8 M453.4,77.7l5.7-5.2l15.1,0.9
	l3,5.8L453.4,77.7z M463.2,68.8l5.8-5.3l3,5.7L463.2,68.8z"/>
<path fill="none" stroke="#637282" stroke-width="2" stroke-linecap="round" stroke-linejoin="round" d="M488.8,106.7
	c-23.4,18.5-52.2,16.2-64.3-5.2c-1.7-3-2.9-6.2-3.8-9.5 M494,102.1c4.2-4.1,7.9-8.7,10.9-13.6 M510.9,76.2
	c5.3-14.5,5.2-29.9-1.6-41.8c-12.1-21.4-40.8-23.8-64.3-5.3c-2.8,2.2-5.4,4.7-7.8,7.2c-2.7,3-5.2,6.1-7.3,9.4"/>
<path fill="none" stroke="#637282" stroke-width="2" stroke-linecap="round" d="M467.7,140.6l0.1-12.1"/>
<path fill="#212225" stroke="#637282" stroke-width="2" stroke-linecap="round" stroke-linejoin="round" d="M480.8,157.8
	c0,1.2-0.3,2.3-0.9,3.3c-0.6,1-1.4,1.8-2.4,2.4l-6.9,4c-1,0.6-2.1,0.9-3.3,0.9c-1.2,0-2.3-0.3-3.3-0.9l-6.9-4
	c-1-0.6-1.8-1.4-2.4-2.4c-0.6-1-0.9-2.1-0.9-3.3v-8c0-1.2,0.3-2.3,0.9-3.3c0.6-1,1.4-1.8,2.4-2.4l6.9-4c1-0.6,2.1-0.9,3.3-0.9
	c1.2,0,2.3,0.3,3.3,0.9l6.9,4c1,0.6,1.8,1.4,2.4,2.4c0.6,1,0.9,2.1,0.9,3.3V157.8z"/>
<path fill="#3C4249" d="M465.6,145.4c0.9-0.5,1.9-0.5,2.8,0l5.4,3.1c0.9,0.5,1.4,1.4,1.4,2.4v6.2c0,1-0.5,1.9-1.4,2.4l-5.4,3.1
	c-0.9,0.5-1.9,0.5-2.8,0l-5.4-3.1c-0.9-0.5-1.4-1.4-1.4-2.4v-6.2c0-1,0.5-1.9,1.4-2.4L465.6,145.4z"/>
<g>
	<defs>
		<rect id="SVGID_1_" x="123.1" y="-2.1" width="487" height="332"/>
	</defs>
	<clipPath id="SVGID_00000177469582744837867550000006901090476410518177_">
		<use xlink:href="#SVGID_1_"  overflow="visible"/>
	</clipPath>
	<g clip-path="url(#SVGID_00000177469582744837867550000006901090476410518177_)">
		<g>
			<defs>
				<path id="SVGID_00000131341948791592628120000016593127883076556721_" d="M134.7,65L373.3,1.1c6.4-1.7,13,2.1,14.7,8.5
					l218.8,816.6c1.7,6.4-2.1,13-8.5,14.7l-238.6,63.9c-6.4,1.7-13-2.1-14.7-8.5L126.2,79.7C124.5,73.3,128.3,66.7,134.7,65z"/>
			</defs>
			<clipPath id="SVGID_00000057141300451355076850000014058222389407585682_">
				<use xlink:href="#SVGID_00000131341948791592628120000016593127883076556721_"  overflow="visible"/>
			</clipPath>
			<g clip-path="url(#SVGID_00000057141300451355076850000014058222389407585682_)">
				<path fill="#212225" d="M134.7,65L373.3,1.1c6.4-1.7,13,2.1,14.7,8.5l218.8,816.6c1.7,6.4-2.1,13-8.5,14.7l-238.6,63.9
					c-6.4,1.7-13-2.1-14.7-8.5L126.2,79.7C124.5,73.3,128.3,66.7,134.7,65z"/>
				<path fill="#121213" d="M134.3,107L396,36.8l9.9,37L144.2,144L134.3,107z"/>
				<path fill="#EEF3F5" d="M162.9,123.7l-2.4-9.1l3.4-0.9c0.7-0.2,1.3-0.2,1.9-0.1c0.5,0.1,1,0.4,1.4,0.8c0.4,0.4,0.6,0.9,0.8,1.5
					c0.2,0.6,0.2,1.1,0,1.7c-0.1,0.5-0.4,1-0.8,1.4c-0.4,0.4-1,0.7-1.7,0.9l-2.3,0.6l-0.4-1.4l2-0.5c0.4-0.1,0.7-0.3,1-0.5
					c0.2-0.2,0.4-0.5,0.4-0.7c0.1-0.3,0-0.6,0-0.9c-0.1-0.3-0.2-0.6-0.4-0.8c-0.2-0.2-0.4-0.4-0.7-0.4c-0.3-0.1-0.7,0-1.1,0.1
					l-1.5,0.4l2.1,7.8L162.9,123.7z M173.8,120.9c-0.7,0.2-1.3,0.2-1.9,0c-0.6-0.2-1.1-0.5-1.5-0.9c-0.4-0.5-0.7-1-0.9-1.7
					c-0.2-0.7-0.2-1.4-0.1-2c0.1-0.6,0.4-1.1,0.8-1.5s1-0.7,1.6-0.9c0.7-0.2,1.3-0.2,1.9,0c0.6,0.2,1.1,0.5,1.5,0.9
					c0.4,0.5,0.7,1,0.9,1.8c0.2,0.7,0.2,1.4,0.1,2c-0.1,0.6-0.4,1.1-0.8,1.5C175.1,120.4,174.5,120.7,173.8,120.9z M173.5,119.6
					c0.4-0.1,0.6-0.3,0.8-0.5c0.2-0.3,0.3-0.6,0.3-1c0-0.4,0-0.8-0.1-1.2c-0.1-0.4-0.3-0.8-0.5-1.1c-0.2-0.3-0.5-0.5-0.8-0.7
					c-0.3-0.1-0.6-0.2-1-0.1c-0.4,0.1-0.7,0.3-0.8,0.6c-0.2,0.3-0.3,0.6-0.3,1c0,0.4,0,0.8,0.1,1.2c0.1,0.4,0.3,0.8,0.5,1.1
					c0.2,0.3,0.5,0.5,0.8,0.7C172.8,119.7,173.1,119.7,173.5,119.6z M178.5,119.5l-1.8-6.9l1.6-0.4l0.3,1.1l0.1,0
					c0-0.4,0.2-0.8,0.4-1.1c0.2-0.3,0.6-0.5,1-0.6c0.1,0,0.2,0,0.3-0.1c0.1,0,0.2,0,0.3,0l0.4,1.5c-0.1,0-0.2,0-0.3,0
					c-0.2,0-0.3,0-0.4,0.1c-0.3,0.1-0.5,0.2-0.7,0.4c-0.2,0.2-0.3,0.4-0.4,0.7c-0.1,0.3-0.1,0.5,0,0.8l1.1,4L178.5,119.5z
					 M185.4,110.3l0.3,1.2l-3.9,1.1l-0.3-1.2L185.4,110.3z M182,109.5l1.6-0.4l1.7,6.4c0.1,0.2,0.1,0.4,0.2,0.5
					c0.1,0.1,0.2,0.1,0.3,0.2s0.2,0,0.4,0c0.1,0,0.2-0.1,0.3-0.1c0.1,0,0.1-0.1,0.2-0.1l0.6,1.2c-0.1,0.1-0.2,0.1-0.3,0.2
					c-0.1,0.1-0.3,0.2-0.6,0.2c-0.4,0.1-0.8,0.2-1.1,0.1c-0.4-0.1-0.7-0.2-0.9-0.4c-0.3-0.2-0.5-0.6-0.6-1L182,109.5z M190.2,109
					l0.3,1.2l-4.1,1.1l-0.3-1.2L190.2,109z M189,116.7l-2-7.5c-0.1-0.5-0.1-0.9,0-1.2c0.1-0.4,0.3-0.7,0.6-0.9
					c0.3-0.2,0.6-0.4,1-0.5c0.3-0.1,0.5-0.1,0.8-0.1c0.2,0,0.4,0,0.5,0l0,1.3c-0.1,0-0.2,0-0.3,0c-0.1,0-0.2,0-0.4,0.1
					c-0.3,0.1-0.5,0.2-0.6,0.4c-0.1,0.2-0.1,0.4,0,0.7l2,7.4L189,116.7z M196.1,115c-0.7,0.2-1.3,0.2-1.9,0
					c-0.6-0.2-1.1-0.5-1.5-0.9c-0.4-0.5-0.7-1-0.9-1.7c-0.2-0.7-0.2-1.4-0.1-2c0.1-0.6,0.4-1.1,0.8-1.5s1-0.7,1.6-0.9
					c0.7-0.2,1.3-0.2,1.9,0c0.6,0.2,1.1,0.5,1.5,0.9c0.4,0.5,0.7,1,0.9,1.8c0.2,0.7,0.2,1.4,0.1,2c-0.1,0.6-0.4,1.1-0.8,1.5
					C197.3,114.5,196.8,114.8,196.1,115z M195.8,113.7c0.4-0.1,0.6-0.3,0.8-0.5c0.2-0.3,0.3-0.6,0.3-1c0-0.4,0-0.8-0.1-1.2
					c-0.1-0.4-0.3-0.8-0.5-1.1c-0.2-0.3-0.5-0.5-0.8-0.7c-0.3-0.1-0.6-0.2-1-0.1c-0.4,0.1-0.7,0.3-0.8,0.6c-0.2,0.3-0.3,0.6-0.3,1
					c0,0.4,0,0.8,0.1,1.2c0.1,0.4,0.3,0.8,0.5,1.1c0.2,0.3,0.5,0.5,0.8,0.7C195,113.7,195.4,113.8,195.8,113.7z M199.9,104l2.4,9.1
					l-1.6,0.4l-2.4-9.1L199.9,104z M204,112.7l-1.8-6.9l1.6-0.4l1.8,6.9L204,112.7z M202.7,104.7c-0.3,0.1-0.5,0-0.7-0.1
					c-0.2-0.1-0.4-0.3-0.4-0.5c-0.1-0.2,0-0.5,0.1-0.7c0.1-0.2,0.3-0.4,0.6-0.4c0.3-0.1,0.5,0,0.7,0.1c0.2,0.1,0.4,0.3,0.4,0.5
					c0.1,0.2,0,0.5-0.1,0.7C203.2,104.4,203,104.6,202.7,104.7z M210.3,111.2c-0.7,0.2-1.3,0.2-1.9,0c-0.6-0.2-1.1-0.5-1.5-0.9
					c-0.4-0.5-0.7-1-0.9-1.7s-0.2-1.4-0.1-2c0.1-0.6,0.4-1.1,0.8-1.5c0.4-0.4,1-0.7,1.6-0.9c0.7-0.2,1.3-0.2,1.9,0
					c0.6,0.2,1.1,0.5,1.5,0.9c0.4,0.5,0.7,1,0.9,1.8s0.2,1.4,0.1,2c-0.1,0.6-0.4,1.1-0.8,1.5C211.5,110.7,211,111,210.3,111.2z
					 M209.9,109.9c0.4-0.1,0.6-0.3,0.8-0.5c0.2-0.3,0.3-0.6,0.3-1c0-0.4,0-0.8-0.1-1.2c-0.1-0.4-0.3-0.8-0.5-1.1
					c-0.2-0.3-0.5-0.5-0.8-0.7c-0.3-0.1-0.6-0.2-1-0.1c-0.4,0.1-0.7,0.3-0.8,0.6c-0.2,0.3-0.3,0.6-0.3,1c0,0.4,0,0.8,0.1,1.2
					c0.1,0.4,0.3,0.8,0.5,1.1c0.2,0.3,0.5,0.5,0.8,0.7C209.2,109.9,209.6,110,209.9,109.9z"/>
				<g>
					<defs>

							<rect id="SVGID_00000176006539630363152490000017686293163888990389_" x="320.4" y="61.9" transform="matrix(0.9659 -0.2588 0.2588 0.9659 -5.9681 92.8581)" width="58.5" height="14.5"/>
					</defs>
					<clipPath id="SVGID_00000163034259009463210890000003493770984755803017_">
						<use xlink:href="#SVGID_00000176006539630363152490000017686293163888990389_"  overflow="visible"/>
					</clipPath>
					<g clip-path="url(#SVGID_00000163034259009463210890000003493770984755803017_)">
						<g>
							<defs>

									<rect id="SVGID_00000171690619480858224370000001050734536682503576_" x="321.2" y="67.6" transform="matrix(0.9659 -0.2588 0.2588 0.9659 -8.1701 87.5422)" width="14.5" height="14.5"/>
							</defs>
							<clipPath id="SVGID_00000015345538976458328630000013300580602422844034_">
								<use xlink:href="#SVGID_00000171690619480858224370000001050734536682503576_"  overflow="visible"/>
							</clipPath>
							<g clip-path="url(#SVGID_00000015345538976458328630000013300580602422844034_)">
								<path fill="none" stroke="#7E8A9C" stroke-width="1.4453" stroke-linecap="round" stroke-linejoin="round" d="M331.7,73.2
									l-1.5-5.6"/>
								<path fill="none" stroke="#7E8A9C" stroke-width="1.4453" stroke-linecap="round" stroke-linejoin="round" d="M333.6,80.1
									l-0.7-2.8"/>
								<path fill="none" stroke="#7E8A9C" stroke-width="1.4453" stroke-linecap="round" stroke-linejoin="round" d="M334.3,74.7
									c0.3,1.2-0.4,2.4-1.5,2.7c-1.2,0.3-2.4-0.4-2.7-1.5c-0.3-1.1,0.3-2.3,1.5-2.7C332.9,72.8,334,73.5,334.3,74.7z"/>
								<path fill="none" stroke="#7E8A9C" stroke-width="1.4453" stroke-linecap="round" stroke-linejoin="round" d="M324.4,73.7
									l2.2,8.3"/>
								<path fill="none" stroke="#7E8A9C" stroke-width="1.4453" stroke-linecap="round" stroke-linejoin="round" d="M325.9,71
									c-0.3-1.2-1.5-1.8-2.7-1.5c-1.1,0.3-1.8,1.5-1.5,2.7c0.3,1.2,1.5,1.8,2.7,1.5C325.5,73.3,326.2,72.2,325.9,71z M325.9,71
									C325.9,71.1,325.9,71,325.9,71z"/>
							</g>
						</g>

							<rect x="349.3" y="61.9" transform="matrix(0.9659 -0.2588 0.2588 0.9659 -5.9682 92.8582)" fill="#3C4249" width="0.7" height="14.5"/>
						<path fill="none" stroke="#7E8A9C" stroke-width="1.4453" stroke-linecap="round" stroke-linejoin="round" d="M364.9,65
							l12.2-3.3"/>
						<path fill="none" stroke="#7E8A9C" stroke-width="1.4453" stroke-linecap="round" stroke-linejoin="round" d="M369.3,57.3
							l3.3,12.2"/>
					</g>
				</g>
				<path fill="#EEF3F5" d="M286.8,231.9c-0.5,0.1-1,0.2-1.4,0.1c-0.4-0.1-0.8-0.2-1.1-0.5c-0.3-0.2-0.5-0.6-0.6-1l1.3-0.3
					c0.1,0.2,0.2,0.3,0.3,0.5c0.2,0.1,0.3,0.2,0.5,0.2c0.2,0,0.4,0,0.7-0.1c0.3-0.1,0.5-0.2,0.6-0.3c0.2-0.1,0.3-0.3,0.4-0.5
					c0.1-0.2,0.1-0.4,0-0.6c-0.1-0.2-0.2-0.4-0.3-0.5c-0.2-0.1-0.4-0.2-0.6-0.3c-0.2,0-0.5,0-0.8,0.1l-0.6,0.2l-0.3-1l0.6-0.2
					c0.2-0.1,0.5-0.2,0.6-0.3c0.2-0.1,0.3-0.3,0.3-0.5c0.1-0.2,0.1-0.4,0-0.6c-0.1-0.2-0.1-0.4-0.3-0.5c-0.1-0.1-0.3-0.2-0.5-0.2
					c-0.2,0-0.4,0-0.6,0c-0.2,0.1-0.4,0.2-0.6,0.3c-0.2,0.1-0.3,0.3-0.4,0.5c-0.1,0.2-0.1,0.4,0,0.6l-1.2,0.3
					c-0.1-0.4-0.1-0.8,0.1-1.1c0.1-0.4,0.4-0.7,0.7-0.9c0.3-0.3,0.7-0.5,1.2-0.6c0.5-0.1,0.9-0.1,1.3-0.1c0.4,0.1,0.7,0.2,1,0.5
					s0.5,0.6,0.6,0.9c0.1,0.4,0.1,0.8-0.1,1.1c-0.2,0.3-0.4,0.6-0.8,0.8l0,0.1c0.5-0.1,1,0,1.3,0.2c0.3,0.2,0.6,0.6,0.7,1
					c0.1,0.4,0.1,0.8-0.1,1.2c-0.1,0.4-0.4,0.7-0.7,1C287.7,231.6,287.3,231.8,286.8,231.9z M291.6,229.5l0.1,0.4
					c0,0.3,0.1,0.6,0.1,0.9c0,0.3,0,0.6,0,0.9c0,0.3,0,0.5-0.1,0.7l-0.8,0.2c0-0.1,0-0.4,0-0.6c0-0.3,0-0.5-0.1-0.9
					c0-0.3-0.1-0.6-0.1-1l-0.1-0.4L291.6,229.5z M292.8,228.8l-0.3-1l1.7-5.6l0.9-0.2l0.4,1.5l-0.5,0.1l-1.2,3.8l0,0.1l4.2-1.1
					l0.3,1.1L292.8,228.8z M296.5,229.2l-0.4-1.6l-0.1-0.5l-1.3-5l1.2-0.3l1.9,7.1L296.5,229.2z M302.4,227.8
					c-0.6,0.2-1.1,0.1-1.6,0c-0.5-0.2-0.9-0.5-1.3-1c-0.4-0.5-0.7-1.1-0.9-1.9c-0.2-0.8-0.3-1.5-0.2-2.1c0.1-0.6,0.3-1.1,0.6-1.5
					c0.3-0.4,0.8-0.7,1.4-0.8c0.6-0.2,1.1-0.1,1.6,0c0.5,0.2,0.9,0.5,1.3,1c0.4,0.5,0.7,1.1,0.9,1.9c0.2,0.8,0.3,1.5,0.2,2.1
					c-0.1,0.6-0.3,1.1-0.6,1.5C303.4,227.3,303,227.6,302.4,227.8z M302.1,226.7c0.4-0.1,0.7-0.4,0.9-0.9c0.1-0.5,0.1-1.2-0.1-2
					c-0.2-0.6-0.3-1-0.6-1.4c-0.2-0.4-0.5-0.6-0.7-0.7c-0.3-0.1-0.5-0.2-0.8-0.1c-0.4,0.1-0.7,0.4-0.9,0.9c-0.1,0.5-0.1,1.2,0.1,2
					c0.1,0.6,0.3,1,0.6,1.4c0.2,0.4,0.5,0.6,0.7,0.7C301.6,226.7,301.8,226.8,302.1,226.7z M306.3,226.6l1.4-6.8l0,0l-3.5,0.9
					l-0.3-1.1l4.8-1.3l0.3,1.1l-1.4,6.8L306.3,226.6z M311.4,225.3c-0.2,0.1-0.4,0-0.6-0.1c-0.2-0.1-0.3-0.3-0.4-0.5
					c-0.1-0.2,0-0.4,0.1-0.6c0.1-0.2,0.3-0.3,0.5-0.4c0.2-0.1,0.4,0,0.6,0.1c0.2,0.1,0.3,0.3,0.4,0.5c0,0.1,0,0.3,0,0.4
					c0,0.1-0.1,0.3-0.2,0.4C311.7,225.2,311.5,225.3,311.4,225.3z M313.9,216.8c0.3-0.1,0.7-0.1,1-0.1c0.4,0,0.7,0.1,1,0.3
					c0.3,0.2,0.6,0.5,0.9,0.9c0.3,0.4,0.5,0.9,0.7,1.6c0.2,0.6,0.2,1.2,0.2,1.7c0,0.5-0.1,1-0.2,1.4c-0.2,0.4-0.4,0.7-0.7,1
					s-0.7,0.5-1.1,0.6c-0.4,0.1-0.9,0.1-1.3,0.1c-0.4-0.1-0.7-0.2-1-0.5c-0.3-0.2-0.5-0.6-0.7-0.9l1.3-0.3c0.1,0.3,0.3,0.5,0.6,0.6
					c0.2,0.1,0.5,0.1,0.8,0c0.5-0.1,0.8-0.4,1-0.9c0.2-0.5,0.1-1.1-0.1-1.9l0,0c-0.1,0.2-0.2,0.4-0.3,0.6c-0.1,0.2-0.3,0.4-0.5,0.5
					c-0.2,0.1-0.4,0.2-0.7,0.3c-0.4,0.1-0.8,0.1-1.2,0c-0.4-0.1-0.7-0.3-1-0.6c-0.3-0.3-0.5-0.7-0.6-1.1c-0.1-0.5-0.1-0.9,0-1.3
					c0.1-0.4,0.3-0.8,0.7-1.1C312.9,217.2,313.4,217,313.9,216.8z M314.1,217.9c-0.2,0.1-0.5,0.2-0.6,0.4c-0.2,0.2-0.3,0.4-0.3,0.6
					c-0.1,0.2-0.1,0.5,0,0.7c0.1,0.3,0.2,0.5,0.4,0.6c0.2,0.2,0.4,0.3,0.6,0.4c0.2,0.1,0.5,0.1,0.7,0c0.2-0.1,0.4-0.1,0.5-0.2
					c0.1-0.1,0.3-0.3,0.3-0.4c0.1-0.2,0.1-0.3,0.2-0.5c0-0.2,0-0.4,0-0.5c-0.1-0.2-0.2-0.5-0.4-0.6c-0.2-0.2-0.4-0.3-0.6-0.4
					C314.6,217.8,314.4,217.8,314.1,217.9z M322.2,222.4c-0.5,0.1-0.9,0.1-1.3,0.1c-0.4-0.1-0.8-0.2-1.1-0.5c-0.3-0.2-0.5-0.6-0.6-1
					l1.2-0.3c0.1,0.3,0.3,0.5,0.6,0.6c0.3,0.1,0.6,0.1,0.9,0.1c0.3-0.1,0.5-0.2,0.6-0.4c0.2-0.2,0.3-0.4,0.3-0.6
					c0.1-0.2,0.1-0.5,0-0.8c-0.1-0.3-0.2-0.5-0.4-0.7c-0.2-0.2-0.4-0.3-0.6-0.4c-0.2-0.1-0.5-0.1-0.7,0c-0.2,0.1-0.4,0.1-0.6,0.3
					s-0.3,0.3-0.4,0.4l-1.2,0.1l-0.6-3.8l4.1-1.1l0.3,1.1l-3.1,0.8l0.3,1.9l0,0c0.1-0.2,0.2-0.4,0.5-0.5c0.2-0.2,0.5-0.3,0.7-0.4
					c0.4-0.1,0.8-0.1,1.2,0c0.4,0.1,0.7,0.3,1,0.6c0.3,0.3,0.5,0.7,0.6,1.1c0.1,0.5,0.1,0.9,0,1.3c-0.1,0.4-0.3,0.8-0.7,1.1
					C323.1,222.1,322.7,222.3,322.2,222.4z M328.4,220.8c-0.5,0.1-1,0.2-1.4,0.1c-0.4-0.1-0.8-0.2-1.1-0.5c-0.3-0.2-0.5-0.6-0.6-1
					l1.3-0.3c0.1,0.2,0.2,0.3,0.3,0.5c0.2,0.1,0.3,0.2,0.6,0.2c0.2,0,0.4,0,0.7-0.1c0.3-0.1,0.5-0.2,0.6-0.3
					c0.2-0.1,0.3-0.3,0.4-0.5c0.1-0.2,0.1-0.4,0-0.6c-0.1-0.2-0.2-0.4-0.3-0.5c-0.2-0.1-0.4-0.2-0.6-0.3c-0.2,0-0.5,0-0.8,0.1
					l-0.6,0.2l-0.3-1l0.6-0.2c0.2-0.1,0.5-0.2,0.6-0.3c0.2-0.1,0.3-0.3,0.3-0.5c0.1-0.2,0.1-0.4,0-0.6c-0.1-0.2-0.1-0.4-0.3-0.5
					c-0.1-0.1-0.3-0.2-0.5-0.2c-0.2,0-0.4,0-0.6,0c-0.2,0.1-0.4,0.2-0.6,0.3c-0.2,0.1-0.3,0.3-0.4,0.5c-0.1,0.2-0.1,0.4,0,0.6
					l-1.2,0.3c-0.1-0.4-0.1-0.8,0.1-1.1c0.1-0.4,0.4-0.7,0.7-0.9c0.3-0.3,0.7-0.5,1.2-0.6c0.5-0.1,0.9-0.1,1.3-0.1
					c0.4,0.1,0.7,0.2,1,0.5c0.3,0.2,0.5,0.6,0.6,0.9c0.1,0.4,0.1,0.8-0.1,1.1c-0.2,0.3-0.4,0.6-0.8,0.8l0,0.1c0.5-0.1,1,0,1.3,0.2
					c0.3,0.2,0.6,0.6,0.7,1c0.1,0.4,0.1,0.8-0.1,1.2c-0.1,0.4-0.4,0.7-0.7,1C329.4,220.4,328.9,220.6,328.4,220.8z M332.2,219.6
					l-0.2-0.9l1.8-3.1c0.2-0.3,0.3-0.6,0.4-0.8c0.1-0.2,0.2-0.4,0.2-0.6c0-0.2,0-0.4,0-0.6c-0.1-0.2-0.2-0.4-0.3-0.5
					c-0.1-0.1-0.3-0.2-0.5-0.3c-0.2,0-0.4,0-0.6,0c-0.2,0.1-0.4,0.2-0.6,0.3c-0.1,0.1-0.3,0.3-0.3,0.5c0,0.2,0,0.4,0,0.7l-1.2,0.3
					c-0.1-0.5-0.1-0.9,0-1.3c0.1-0.4,0.3-0.7,0.6-1c0.3-0.3,0.7-0.5,1.2-0.6c0.5-0.1,0.9-0.2,1.3-0.1c0.4,0.1,0.8,0.2,1,0.5
					c0.3,0.3,0.5,0.6,0.6,1c0.1,0.3,0.1,0.5,0.1,0.8c0,0.3-0.1,0.6-0.3,1c-0.2,0.4-0.4,0.9-0.8,1.4l-0.9,1.6l0,0l3.1-0.8l0.3,1.1
					L332.2,219.6z M340.9,217.4c-0.5,0.1-1,0.2-1.4,0.1c-0.4-0.1-0.8-0.2-1.1-0.5c-0.3-0.2-0.5-0.6-0.6-1l1.3-0.3
					c0.1,0.2,0.2,0.3,0.3,0.5c0.2,0.1,0.3,0.2,0.5,0.2c0.2,0,0.4,0,0.7-0.1c0.3-0.1,0.5-0.2,0.6-0.3c0.2-0.1,0.3-0.3,0.4-0.5
					c0.1-0.2,0.1-0.4,0-0.6c-0.1-0.2-0.2-0.4-0.3-0.5c-0.2-0.1-0.4-0.2-0.6-0.3c-0.2,0-0.5,0-0.8,0.1l-0.6,0.2l-0.3-1l0.6-0.2
					c0.2-0.1,0.5-0.2,0.6-0.3c0.2-0.1,0.3-0.3,0.3-0.5c0.1-0.2,0.1-0.4,0-0.6c-0.1-0.2-0.1-0.4-0.3-0.5c-0.1-0.1-0.3-0.2-0.5-0.2
					c-0.2,0-0.4,0-0.6,0c-0.2,0.1-0.4,0.2-0.6,0.3c-0.2,0.1-0.3,0.3-0.4,0.5c-0.1,0.2-0.1,0.4,0,0.6l-1.2,0.3
					c-0.1-0.4-0.1-0.8,0.1-1.1c0.1-0.4,0.4-0.7,0.7-0.9c0.3-0.3,0.7-0.5,1.2-0.6c0.5-0.1,0.9-0.1,1.3-0.1c0.4,0.1,0.7,0.2,1,0.5
					c0.3,0.2,0.5,0.6,0.6,0.9c0.1,0.4,0.1,0.8-0.1,1.1c-0.2,0.3-0.4,0.6-0.8,0.8l0,0.1c0.5-0.1,1,0,1.3,0.2c0.3,0.2,0.6,0.6,0.7,1
					c0.1,0.4,0.1,0.8-0.1,1.2c-0.1,0.4-0.4,0.7-0.7,1C341.8,217.1,341.4,217.3,340.9,217.4z M347.3,215.7c-0.6,0.2-1.1,0.1-1.6,0
					c-0.5-0.2-0.9-0.5-1.3-1c-0.4-0.5-0.7-1.1-0.9-1.9c-0.2-0.8-0.3-1.5-0.2-2.1c0.1-0.6,0.3-1.1,0.6-1.5c0.3-0.4,0.8-0.7,1.4-0.8
					c0.6-0.2,1.1-0.1,1.6,0c0.5,0.2,0.9,0.5,1.3,1c0.4,0.5,0.7,1.1,0.9,1.9c0.2,0.8,0.3,1.5,0.2,2.1c-0.1,0.6-0.3,1.1-0.6,1.5
					C348.3,215.3,347.9,215.6,347.3,215.7z M347,214.6c0.4-0.1,0.7-0.4,0.9-0.9c0.1-0.5,0.1-1.2-0.1-2c-0.2-0.6-0.3-1-0.6-1.4
					c-0.2-0.4-0.5-0.6-0.7-0.7c-0.3-0.1-0.5-0.2-0.8-0.1c-0.4,0.1-0.7,0.4-0.9,0.9c-0.1,0.5-0.1,1.2,0.1,2c0.1,0.6,0.3,1,0.6,1.4
					c0.2,0.4,0.5,0.6,0.7,0.7C346.4,214.7,346.7,214.7,347,214.6z M350.7,213.3l-0.3-1l1.7-5.6l0.9-0.2l0.4,1.5l-0.5,0.1l-1.2,3.8
					l0,0.1l4.2-1.1l0.3,1.1L350.7,213.3z M354.4,213.7L354,212l-0.1-0.5l-1.3-5l1.2-0.3l1.9,7.1L354.4,213.7z M361.1,211.9l-1.4,0.4
					l0.6-7.8l1.6-0.4l4.4,6.4l-1.4,0.4l-3.4-5.1l-0.1,0L361.1,211.9z M360.4,209.1l3.7-1l0.3,1l-3.7,1L360.4,209.1z M367.2,210.2
					l-1.9-7.1l2.7-0.7c0.5-0.1,1-0.2,1.5-0.1c0.4,0.1,0.8,0.3,1.1,0.6c0.3,0.3,0.5,0.7,0.6,1.1c0.1,0.5,0.1,0.9,0,1.3
					c-0.1,0.4-0.3,0.7-0.6,1c-0.3,0.3-0.8,0.5-1.3,0.6l-1.9,0.5l-0.3-1.1l1.7-0.5c0.3-0.1,0.6-0.2,0.7-0.3c0.2-0.1,0.3-0.3,0.3-0.5
					c0.1-0.2,0-0.4,0-0.7c-0.1-0.3-0.2-0.5-0.3-0.6c-0.1-0.2-0.3-0.2-0.6-0.3c-0.2,0-0.5,0-0.8,0.1l-1.2,0.3l1.6,6L367.2,210.2z
					 M370.1,206l2.6,2.7l-1.4,0.4l-2.6-2.8L370.1,206z M373.6,208.5l-1.9-7.1l1.3-0.3l0.9,3.3l0.1,0l1.9-4l1.6-0.4l-1.9,3.9l3.8,3.2
					l-1.5,0.4l-2.9-2.5l-0.5,1.1l0.6,2.1L373.6,208.5z"/>
				<path fill="#637282" d="M331.5,237.1c-0.4,0.1-0.8,0.1-1.1,0.1c-0.4-0.1-0.7-0.2-0.9-0.4c-0.3-0.2-0.4-0.5-0.5-0.8l1.1-0.3
					c0.1,0.2,0.2,0.4,0.5,0.5c0.2,0.1,0.5,0.1,0.8,0c0.2-0.1,0.4-0.2,0.5-0.3c0.1-0.1,0.2-0.3,0.3-0.5c0-0.2,0-0.4,0-0.6
					c-0.1-0.2-0.2-0.4-0.3-0.6c-0.1-0.2-0.3-0.3-0.5-0.3c-0.2-0.1-0.4-0.1-0.6,0c-0.2,0-0.4,0.1-0.5,0.2c-0.2,0.1-0.3,0.2-0.3,0.4
					l-1,0.1l-0.5-3.2l3.5-0.9l0.2,0.9l-2.6,0.7l0.3,1.7l0,0c0.1-0.2,0.2-0.3,0.4-0.5c0.2-0.1,0.4-0.2,0.6-0.3c0.4-0.1,0.7-0.1,1.1,0
					c0.3,0.1,0.6,0.3,0.9,0.5c0.2,0.3,0.4,0.6,0.5,1c0.1,0.4,0.1,0.8,0,1.2c-0.1,0.4-0.3,0.7-0.6,0.9
					C332.3,236.8,331.9,237,331.5,237.1z M335.5,235.1l0,0.3c0,0.3,0.1,0.5,0.1,0.8c0,0.3,0,0.5,0,0.8c0,0.2,0,0.4,0,0.6l-0.7,0.2
					c0-0.1,0-0.3,0-0.5c0-0.2,0-0.5,0-0.7c0-0.3-0.1-0.5-0.1-0.8l-0.1-0.3L335.5,235.1z M337.3,228.9c0.3-0.1,0.6-0.1,0.9-0.1
					c0.3,0,0.6,0.1,0.9,0.3c0.3,0.2,0.5,0.4,0.8,0.8c0.2,0.3,0.4,0.8,0.6,1.3c0.1,0.5,0.2,1,0.2,1.4c0,0.4-0.1,0.8-0.2,1.2
					c-0.1,0.3-0.3,0.6-0.6,0.9c-0.3,0.2-0.6,0.4-0.9,0.5c-0.4,0.1-0.7,0.1-1.1,0c-0.3-0.1-0.6-0.2-0.9-0.4c-0.3-0.2-0.4-0.5-0.6-0.8
					l1.1-0.3c0.1,0.2,0.3,0.4,0.5,0.5c0.2,0.1,0.4,0.1,0.7,0c0.4-0.1,0.7-0.4,0.8-0.8c0.1-0.4,0.1-1-0.1-1.6l0,0
					c0,0.2-0.1,0.4-0.3,0.6c-0.1,0.2-0.3,0.3-0.5,0.4c-0.2,0.1-0.4,0.2-0.6,0.3c-0.4,0.1-0.7,0.1-1,0c-0.3-0.1-0.6-0.3-0.9-0.5
					c-0.2-0.3-0.4-0.6-0.5-1c-0.1-0.4-0.1-0.8,0-1.1c0.1-0.4,0.3-0.7,0.6-1C336.5,229.2,336.9,229,337.3,228.9z M337.5,229.7
					c-0.2,0.1-0.4,0.2-0.5,0.3c-0.1,0.1-0.2,0.3-0.3,0.5c0,0.2,0,0.4,0,0.6c0.1,0.2,0.2,0.4,0.3,0.6c0.1,0.1,0.3,0.3,0.5,0.3
					c0.2,0.1,0.4,0.1,0.6,0c0.2,0,0.3-0.1,0.4-0.2c0.1-0.1,0.2-0.2,0.3-0.4c0.1-0.1,0.1-0.3,0.1-0.4c0-0.2,0-0.3,0-0.5
					c-0.1-0.2-0.2-0.4-0.3-0.5c-0.1-0.1-0.3-0.3-0.5-0.3C338,229.7,337.8,229.7,337.5,229.7z M344.6,233.7c-0.5,0.1-0.9,0.1-1.4,0
					c-0.4-0.2-0.8-0.4-1.1-0.9c-0.3-0.4-0.6-1-0.7-1.6c-0.2-0.7-0.2-1.3-0.2-1.8c0.1-0.5,0.2-0.9,0.5-1.3c0.3-0.3,0.7-0.6,1.2-0.7
					c0.5-0.1,0.9-0.1,1.4,0c0.4,0.2,0.8,0.4,1.1,0.9c0.3,0.4,0.6,1,0.7,1.6c0.2,0.7,0.2,1.3,0.2,1.8c-0.1,0.5-0.2,1-0.5,1.3
					C345.4,233.3,345.1,233.5,344.6,233.7z M344.3,232.7c0.4-0.1,0.6-0.4,0.8-0.8c0.1-0.4,0.1-1-0.1-1.8c-0.1-0.5-0.3-0.9-0.5-1.2
					s-0.4-0.5-0.6-0.6c-0.2-0.1-0.5-0.1-0.7-0.1c-0.4,0.1-0.6,0.4-0.7,0.8c-0.1,0.4-0.1,1,0.1,1.7c0.1,0.5,0.3,0.9,0.5,1.2
					c0.2,0.3,0.4,0.5,0.6,0.6C343.8,232.8,344.1,232.8,344.3,232.7z M348.7,225.9l1.6,6.1l-1.1,0.3l-1.3-5l0,0l-1.2,1.3l-0.3-1
					l1.3-1.4L348.7,225.9z M352.2,231.5c-0.2,0-0.4,0-0.5-0.1c-0.2-0.1-0.3-0.2-0.3-0.4c-0.1-0.2,0-0.3,0.1-0.5
					c0.1-0.2,0.2-0.3,0.4-0.3c0.2,0,0.3,0,0.5,0.1c0.2,0.1,0.3,0.2,0.3,0.4c0,0.1,0,0.2,0,0.4c0,0.1-0.1,0.2-0.2,0.3
					C352.5,231.5,352.4,231.5,352.2,231.5z M354.4,224.3c0.3-0.1,0.6-0.1,0.9-0.1c0.3,0,0.6,0.1,0.9,0.3c0.3,0.2,0.5,0.4,0.8,0.8
					c0.2,0.3,0.4,0.8,0.6,1.3c0.1,0.5,0.2,1,0.2,1.4c0,0.4-0.1,0.8-0.2,1.2c-0.1,0.3-0.3,0.6-0.6,0.9c-0.3,0.2-0.6,0.4-0.9,0.5
					c-0.4,0.1-0.7,0.1-1.1,0c-0.3-0.1-0.6-0.2-0.9-0.4c-0.3-0.2-0.4-0.5-0.6-0.8l1.1-0.3c0.1,0.2,0.3,0.4,0.5,0.5
					c0.2,0.1,0.4,0.1,0.7,0c0.4-0.1,0.7-0.4,0.8-0.8c0.1-0.4,0.1-1-0.1-1.6l0,0c-0.1,0.2-0.1,0.4-0.3,0.6c-0.1,0.2-0.3,0.3-0.4,0.4
					c-0.2,0.1-0.4,0.2-0.6,0.3c-0.4,0.1-0.7,0.1-1,0c-0.3-0.1-0.6-0.3-0.9-0.5c-0.2-0.3-0.4-0.6-0.5-1c-0.1-0.4-0.1-0.8,0-1.1
					c0.1-0.4,0.3-0.7,0.6-1C353.6,224.6,353.9,224.4,354.4,224.3z M354.6,225.2c-0.2,0.1-0.4,0.2-0.5,0.3c-0.1,0.1-0.2,0.3-0.3,0.5
					c0,0.2,0,0.4,0,0.6c0.1,0.2,0.2,0.4,0.3,0.6c0.1,0.2,0.3,0.3,0.5,0.3c0.2,0.1,0.4,0.1,0.6,0c0.2,0,0.3-0.1,0.4-0.2
					c0.1-0.1,0.2-0.2,0.3-0.4c0.1-0.1,0.1-0.3,0.1-0.4c0-0.2,0-0.3,0-0.5c-0.1-0.2-0.2-0.4-0.3-0.5c-0.1-0.1-0.3-0.3-0.5-0.3
					C355,225.1,354.8,225.1,354.6,225.2z M361.5,229.1c-0.4,0.1-0.8,0.1-1.1,0.1c-0.4-0.1-0.7-0.2-0.9-0.4c-0.3-0.2-0.4-0.5-0.5-0.8
					l1.1-0.3c0.1,0.2,0.2,0.4,0.5,0.5c0.2,0.1,0.5,0.1,0.8,0c0.2-0.1,0.4-0.2,0.5-0.3c0.1-0.1,0.2-0.3,0.3-0.5c0-0.2,0-0.4,0-0.6
					c-0.1-0.2-0.2-0.4-0.3-0.6c-0.1-0.2-0.3-0.3-0.5-0.3c-0.2-0.1-0.4-0.1-0.6,0c-0.2,0-0.4,0.1-0.5,0.2c-0.2,0.1-0.3,0.2-0.3,0.4
					l-1,0.1l-0.5-3.2l3.5-0.9l0.2,0.9l-2.6,0.7l0.3,1.7l0,0c0.1-0.2,0.2-0.3,0.4-0.5c0.2-0.1,0.4-0.2,0.6-0.3c0.4-0.1,0.7-0.1,1.1,0
					c0.3,0.1,0.6,0.3,0.9,0.5c0.2,0.3,0.4,0.6,0.5,1c0.1,0.4,0.1,0.8,0,1.2c-0.1,0.4-0.3,0.7-0.6,0.9
					C362.3,228.8,361.9,229,361.5,229.1z M369,220.5l1.1-0.3l1.1,4c0.1,0.4,0.1,0.8,0,1.2c-0.1,0.4-0.3,0.7-0.7,1
					c-0.3,0.3-0.7,0.5-1.2,0.6c-0.5,0.1-1,0.2-1.4,0.1c-0.4-0.1-0.8-0.3-1.1-0.5c-0.3-0.3-0.5-0.6-0.6-1.1l-1.1-4l1.1-0.3l1,3.9
					c0.1,0.3,0.2,0.5,0.3,0.6c0.2,0.2,0.4,0.3,0.6,0.3c0.2,0.1,0.5,0,0.8,0c0.3-0.1,0.5-0.2,0.7-0.4c0.2-0.2,0.3-0.4,0.4-0.6
					c0.1-0.2,0.1-0.5,0-0.7L369,220.5z M375,220.6c-0.1-0.3-0.3-0.4-0.5-0.5c-0.2-0.1-0.5-0.1-0.9,0c-0.2,0.1-0.4,0.1-0.6,0.3
					c-0.1,0.1-0.2,0.2-0.3,0.4c-0.1,0.1-0.1,0.3,0,0.4c0,0.1,0.1,0.2,0.2,0.3c0.1,0.1,0.2,0.1,0.3,0.2c0.1,0,0.2,0.1,0.4,0.1
					c0.1,0,0.3,0,0.4,0l0.6,0c0.2,0,0.5,0,0.7,0c0.2,0,0.5,0.1,0.7,0.2c0.2,0.1,0.4,0.2,0.5,0.4c0.2,0.2,0.3,0.4,0.3,0.7
					c0.1,0.4,0.1,0.7,0,1c-0.1,0.3-0.3,0.6-0.6,0.8c-0.3,0.2-0.7,0.4-1.2,0.6c-0.5,0.1-0.9,0.2-1.3,0.1c-0.4-0.1-0.7-0.2-1-0.4
					c-0.3-0.2-0.5-0.5-0.6-0.9l1.1-0.3c0.1,0.2,0.2,0.4,0.3,0.5c0.2,0.1,0.3,0.2,0.5,0.2c0.2,0,0.4,0,0.7-0.1
					c0.2-0.1,0.4-0.2,0.6-0.3c0.2-0.1,0.3-0.3,0.3-0.4c0.1-0.2,0.1-0.3,0-0.5c0-0.2-0.1-0.3-0.2-0.4c-0.1-0.1-0.3-0.1-0.5-0.2
					c-0.2,0-0.4,0-0.6,0l-0.7,0c-0.5,0-1-0.1-1.3-0.3c-0.4-0.2-0.6-0.5-0.7-0.9c-0.1-0.4-0.1-0.7,0-1c0.1-0.3,0.3-0.6,0.6-0.8
					c0.3-0.2,0.7-0.4,1.1-0.5c0.4-0.1,0.8-0.1,1.2-0.1c0.4,0.1,0.7,0.2,0.9,0.4c0.3,0.2,0.4,0.5,0.5,0.8L375,220.6z M380.4,223.9
					l-2.1,0.6l-1.6-6.1l2.1-0.6c0.6-0.2,1.2-0.2,1.7-0.1c0.5,0.1,0.9,0.4,1.3,0.8c0.4,0.4,0.6,0.9,0.8,1.5c0.2,0.6,0.2,1.2,0.1,1.7
					c-0.1,0.5-0.4,1-0.7,1.3C381.5,223.5,381,223.8,380.4,223.9z M379.2,223.2l0.9-0.2c0.4-0.1,0.8-0.3,1-0.5
					c0.2-0.2,0.4-0.5,0.5-0.9c0.1-0.4,0-0.8-0.1-1.2s-0.3-0.8-0.5-1.1c-0.2-0.3-0.5-0.4-0.8-0.5c-0.3-0.1-0.7-0.1-1.1,0l-0.9,0.3
					L379.2,223.2z"/>
				<path fill-rule="evenodd" clip-rule="evenodd" fill="#0D7ED6" d="M213.5,254.7l-6,11.1l4.8-15.8l12,11.3L213.5,254.7z
					 M211.6,262.1l0.8-2l4.6-1.2l1.7,1.3L211.6,262.1z M212.6,259.2l1.4-2.9l2.6,1.8L212.6,259.2z"/>
				<path fill="none" stroke="#3C4249" stroke-width="1.4453" d="M203.2,244.1l14-3.7c4.2-1.1,8.6,1.4,9.7,5.6l3.7,14
					c1.1,4.2-1.4,8.6-5.6,9.7l-14,3.7c-4.2,1.1-8.6-1.4-9.7-5.6l-3.7-14C196.4,249.6,198.9,245.3,203.2,244.1z"/>
				<path fill="#212225" d="M412.8,219.4L403,222c-3.5,0.9-7-1.1-8-4.6l-4.5-16.8c-0.9-3.5,1.1-7,4.6-8l9.8-2.6c3.5-0.9,7,1.1,8,4.6
					l4.5,16.8C418.3,214.9,416.2,218.5,412.8,219.4z"/>
				<g>
					<defs>

							<rect id="SVGID_00000028308777064759142640000001843623539412147589_" x="400.3" y="202.4" transform="matrix(0.9659 -0.2588 0.2588 0.9659 -39.5659 111.5737)" width="7.2" height="7.2"/>
					</defs>
					<clipPath id="SVGID_00000147206512465271123620000009741663103433311619_">
						<use xlink:href="#SVGID_00000028308777064759142640000001843623539412147589_"  overflow="visible"/>
					</clipPath>
					<g clip-path="url(#SVGID_00000147206512465271123620000009741663103433311619_)">
						<path fill="none" stroke="#EEF3F5" stroke-width="1.4453" stroke-linecap="round" stroke-linejoin="round" d="M401.5,208.1
							l1.9-3.4c0.1-0.1,0.2-0.1,0.3-0.1l3.4,1.9"/>
					</g>
				</g>
				<path fill="none" stroke="#637282" stroke-width="1.4453" stroke-linejoin="round" d="M412.8,219.4L403,222
					c-3.5,0.9-7-1.1-8-4.6l-4.5-16.8c-0.9-3.5,1.1-7,4.6-8l9.8-2.6c3.5-0.9,7,1.1,8,4.6l4.5,16.8
					C418.3,214.9,416.2,218.5,412.8,219.4z"/>
				<path fill="#3C4249" stroke="#637282" stroke-width="1.1123" stroke-dasharray="2.22,2.22" d="M214.4,285.9l200.5-53.7
					c4.3-1.2,8.8,1.4,9.9,5.7l23.2,86.6c1.2,4.3-1.4,8.8-5.7,9.9l-200.5,53.7c-4.3,1.2-8.8-1.4-9.9-5.7l-23.2-86.6
					C207.5,291.5,210,287,214.4,285.9z"/>

					<rect x="151" y="107.5" transform="matrix(0.9659 -0.2588 0.2588 0.9659 -30.2184 79.4202)" fill="#121213" width="271" height="93.9"/>
				<path fill="#637282" d="M169.7,151.9l1.5-0.4l2.6,2.7l0.1,0l0.9-3.6l1.5-0.4l-1.4,5.1l0.7,2.7l-1.3,0.3l-0.7-2.7L169.7,151.9z
					 M180.3,156.7c-0.5,0.1-1,0.1-1.4,0c-0.4-0.1-0.8-0.4-1.1-0.7c-0.3-0.4-0.6-0.8-0.7-1.4c-0.1-0.6-0.2-1.1-0.1-1.5
					c0.1-0.5,0.3-0.9,0.6-1.2c0.3-0.3,0.7-0.6,1.3-0.7c0.5-0.1,1-0.1,1.4,0c0.4,0.1,0.8,0.4,1.1,0.7c0.3,0.4,0.6,0.8,0.7,1.4
					c0.1,0.6,0.2,1.1,0.1,1.5c-0.1,0.5-0.3,0.9-0.6,1.2C181.2,156.4,180.8,156.6,180.3,156.7z M180,155.7c0.3-0.1,0.5-0.2,0.6-0.4
					c0.1-0.2,0.2-0.5,0.3-0.7c0-0.3,0-0.6-0.1-0.9c-0.1-0.3-0.2-0.6-0.4-0.8c-0.2-0.2-0.4-0.4-0.6-0.5c-0.2-0.1-0.5-0.1-0.8,0
					c-0.3,0.1-0.5,0.2-0.7,0.4c-0.1,0.2-0.2,0.5-0.3,0.8c0,0.3,0,0.6,0.1,0.9c0.1,0.3,0.2,0.6,0.4,0.8c0.2,0.2,0.4,0.4,0.6,0.5
					C179.5,155.8,179.7,155.8,180,155.7z M186.7,152.5l-0.8-3.1l1.3-0.3l1.4,5.3l-1.2,0.3l-0.3-0.9l-0.1,0c0,0.3-0.2,0.6-0.4,0.9
					c-0.2,0.3-0.5,0.4-0.9,0.6c-0.3,0.1-0.7,0.1-1,0c-0.3-0.1-0.6-0.3-0.8-0.5c-0.2-0.3-0.4-0.6-0.5-1l-0.9-3.4l1.3-0.3l0.9,3.2
					c0.1,0.3,0.3,0.6,0.5,0.7c0.2,0.1,0.5,0.2,0.8,0.1c0.2-0.1,0.4-0.1,0.5-0.3c0.1-0.1,0.3-0.3,0.3-0.5
					C186.7,153,186.7,152.8,186.7,152.5z M189.8,154.1l-1.4-5.3l1.2-0.3l0.2,0.9l0.1,0c0-0.3,0.1-0.6,0.3-0.8
					c0.2-0.2,0.4-0.4,0.7-0.5c0.1,0,0.1,0,0.2-0.1c0.1,0,0.2,0,0.2,0l0.3,1.2c-0.1,0-0.1,0-0.3,0c-0.1,0-0.2,0-0.3,0.1
					c-0.2,0.1-0.4,0.2-0.6,0.3c-0.2,0.1-0.3,0.3-0.3,0.5c-0.1,0.2-0.1,0.4,0,0.6l0.8,3.1L189.8,154.1z M196.2,152.4l-1.9-7.1
					l2.7-0.7c0.5-0.1,1-0.2,1.3-0.1c0.4,0.1,0.7,0.2,0.9,0.5c0.2,0.2,0.4,0.5,0.5,0.9c0.1,0.3,0.1,0.6,0,0.8
					c-0.1,0.2-0.2,0.4-0.3,0.6c-0.2,0.2-0.3,0.3-0.6,0.4l0,0.1c0.3-0.1,0.5,0,0.8,0c0.3,0.1,0.5,0.2,0.7,0.4
					c0.2,0.2,0.4,0.5,0.5,0.9c0.1,0.4,0.1,0.7,0,1.1c-0.1,0.3-0.3,0.6-0.6,0.9c-0.3,0.3-0.7,0.5-1.3,0.6L196.2,152.4z M197.2,151
					l1.4-0.4c0.5-0.1,0.8-0.3,0.9-0.5c0.2-0.2,0.2-0.5,0.1-0.8c-0.1-0.2-0.2-0.4-0.3-0.5c-0.2-0.1-0.3-0.2-0.6-0.3
					c-0.2,0-0.5,0-0.7,0l-1.4,0.4L197.2,151z M196.4,147.9l1.3-0.3c0.2-0.1,0.4-0.2,0.6-0.3c0.2-0.1,0.3-0.3,0.3-0.5
					c0.1-0.2,0.1-0.4,0-0.6c-0.1-0.3-0.2-0.5-0.5-0.6c-0.2-0.1-0.6-0.1-0.9,0l-1.3,0.3L196.4,147.9z M204.1,150.4
					c-0.3,0.1-0.7,0.1-1,0.1c-0.3-0.1-0.6-0.2-0.8-0.4c-0.2-0.2-0.4-0.5-0.5-0.8c-0.1-0.3-0.1-0.6,0-0.8c0.1-0.2,0.2-0.4,0.3-0.6
					c0.2-0.2,0.4-0.3,0.6-0.4c0.2-0.1,0.5-0.2,0.7-0.3c0.3-0.1,0.6-0.2,0.7-0.3c0.2-0.1,0.3-0.2,0.4-0.2c0.1-0.1,0.1-0.2,0.1-0.3
					l0,0c-0.1-0.3-0.2-0.4-0.4-0.5c-0.2-0.1-0.4-0.1-0.7,0c-0.3,0.1-0.5,0.2-0.7,0.4c-0.1,0.2-0.2,0.4-0.2,0.6l-1.2,0.1
					c0-0.3,0.1-0.7,0.2-0.9c0.2-0.3,0.4-0.5,0.6-0.7c0.3-0.2,0.6-0.3,1-0.4c0.3-0.1,0.5-0.1,0.8-0.1c0.3,0,0.5,0,0.8,0.1
					c0.2,0.1,0.5,0.2,0.7,0.4c0.2,0.2,0.3,0.5,0.4,0.8l1,3.6l-1.2,0.3l-0.2-0.7l0,0c0,0.2-0.1,0.3-0.2,0.5c-0.1,0.2-0.2,0.3-0.4,0.4
					C204.6,150.2,204.4,150.3,204.1,150.4z M204.2,149.4c0.3-0.1,0.5-0.2,0.6-0.3c0.2-0.2,0.3-0.3,0.3-0.5c0.1-0.2,0.1-0.4,0-0.6
					l-0.2-0.6c0,0-0.1,0.1-0.2,0.1c-0.1,0.1-0.2,0.1-0.3,0.2c-0.1,0.1-0.2,0.1-0.3,0.1c-0.1,0-0.2,0.1-0.3,0.1
					c-0.2,0.1-0.3,0.2-0.5,0.3c-0.1,0.1-0.2,0.2-0.3,0.3c-0.1,0.1-0.1,0.3,0,0.4c0.1,0.2,0.2,0.4,0.4,0.5
					C203.7,149.4,203.9,149.4,204.2,149.4z M207.5,141.7l1.9,7.1l-1.3,0.3l-1.9-7.1L207.5,141.7z M212.3,148.2
					c-0.3,0.1-0.7,0.1-1,0.1c-0.3-0.1-0.6-0.2-0.8-0.4c-0.2-0.2-0.4-0.5-0.5-0.8c-0.1-0.3-0.1-0.6,0-0.8c0.1-0.2,0.2-0.4,0.3-0.6
					c0.2-0.2,0.4-0.3,0.6-0.4c0.2-0.1,0.5-0.2,0.7-0.3c0.3-0.1,0.5-0.2,0.7-0.3c0.2-0.1,0.3-0.2,0.4-0.2c0.1-0.1,0.1-0.2,0.1-0.3
					l0,0c-0.1-0.3-0.2-0.4-0.4-0.5c-0.2-0.1-0.4-0.1-0.7,0c-0.3,0.1-0.5,0.2-0.7,0.4c-0.1,0.2-0.2,0.4-0.2,0.6l-1.2,0.1
					c0-0.3,0.1-0.7,0.2-0.9c0.2-0.3,0.4-0.5,0.6-0.7c0.3-0.2,0.6-0.3,1-0.4c0.3-0.1,0.5-0.1,0.8-0.1c0.3,0,0.5,0,0.8,0.1
					c0.2,0.1,0.5,0.2,0.7,0.4c0.2,0.2,0.3,0.5,0.4,0.8l1,3.6l-1.2,0.3l-0.2-0.7l0,0c0,0.2-0.1,0.3-0.2,0.5c-0.1,0.2-0.2,0.3-0.4,0.4
					C212.8,148,212.5,148.1,212.3,148.2z M212.3,147.2c0.3-0.1,0.5-0.2,0.6-0.3c0.2-0.2,0.3-0.3,0.3-0.5c0.1-0.2,0.1-0.4,0-0.6
					l-0.2-0.6c0,0-0.1,0.1-0.2,0.1c-0.1,0.1-0.2,0.1-0.3,0.2s-0.2,0.1-0.3,0.1c-0.1,0-0.2,0.1-0.3,0.1c-0.2,0.1-0.3,0.2-0.5,0.3
					c-0.1,0.1-0.2,0.2-0.3,0.3c-0.1,0.1-0.1,0.3,0,0.4c0.1,0.2,0.2,0.4,0.4,0.5C211.9,147.2,212.1,147.2,212.3,147.2z M216.7,143.5
					l0.8,3.1l-1.3,0.3l-1.4-5.3l1.2-0.3l0.2,0.9l0.1,0c0-0.3,0.2-0.6,0.4-0.9c0.2-0.2,0.5-0.4,0.9-0.5c0.4-0.1,0.7-0.1,1,0
					c0.3,0.1,0.6,0.3,0.8,0.5c0.2,0.3,0.4,0.6,0.5,1l0.9,3.4l-1.3,0.3l-0.9-3.2c-0.1-0.4-0.3-0.6-0.5-0.8c-0.2-0.2-0.5-0.2-0.8-0.1
					c-0.2,0.1-0.4,0.2-0.5,0.3c-0.1,0.1-0.2,0.3-0.3,0.5C216.7,143,216.7,143.3,216.7,143.5z M224.6,144.9c-0.5,0.1-1,0.1-1.5,0
					c-0.4-0.1-0.8-0.4-1.1-0.7c-0.3-0.4-0.5-0.8-0.7-1.3c-0.1-0.5-0.2-1-0.1-1.5c0.1-0.5,0.3-0.9,0.6-1.2c0.3-0.3,0.7-0.6,1.3-0.7
					c0.4-0.1,0.8-0.1,1.2-0.1c0.4,0.1,0.7,0.2,1,0.5c0.3,0.2,0.5,0.5,0.6,0.9l-1.2,0.3c-0.1-0.2-0.3-0.4-0.5-0.5
					c-0.2-0.1-0.5-0.1-0.8-0.1c-0.3,0.1-0.5,0.2-0.6,0.4c-0.2,0.2-0.3,0.4-0.3,0.7c0,0.3,0,0.6,0.1,1c0.1,0.4,0.2,0.7,0.4,0.9
					c0.2,0.2,0.4,0.4,0.6,0.5c0.2,0.1,0.5,0.1,0.7,0c0.2-0.1,0.3-0.1,0.5-0.2c0.1-0.1,0.2-0.2,0.3-0.4c0.1-0.2,0.1-0.3,0.1-0.5
					l1.2-0.3c0.1,0.4,0.1,0.7-0.1,1.1c-0.1,0.3-0.3,0.6-0.6,0.9C225.4,144.6,225.1,144.7,224.6,144.9z M230.3,143.3
					c-0.5,0.1-1,0.2-1.5,0c-0.4-0.1-0.8-0.4-1.1-0.7c-0.3-0.4-0.6-0.8-0.7-1.4c-0.1-0.5-0.2-1.1-0.1-1.5c0.1-0.5,0.3-0.9,0.6-1.2
					c0.3-0.3,0.7-0.6,1.2-0.7c0.3-0.1,0.7-0.1,1-0.1c0.3,0,0.6,0.1,0.9,0.3c0.3,0.2,0.5,0.4,0.8,0.7c0.2,0.3,0.4,0.7,0.5,1.2
					l0.1,0.4l-4.4,1.2l-0.2-0.8l3.2-0.8c-0.1-0.2-0.2-0.4-0.3-0.6c-0.2-0.2-0.3-0.3-0.5-0.3c-0.2-0.1-0.4-0.1-0.7,0
					c-0.3,0.1-0.5,0.2-0.6,0.4c-0.2,0.2-0.3,0.4-0.3,0.6c-0.1,0.2,0,0.5,0,0.7l0.2,0.7c0.1,0.3,0.2,0.6,0.4,0.8
					c0.2,0.2,0.4,0.3,0.6,0.4c0.2,0.1,0.5,0.1,0.8,0c0.2,0,0.3-0.1,0.5-0.2c0.1-0.1,0.2-0.2,0.3-0.3c0.1-0.1,0.1-0.3,0.1-0.4
					l1.2-0.2c0,0.3-0.1,0.6-0.2,0.9c-0.1,0.3-0.4,0.5-0.6,0.7C231.1,143.1,230.7,143.2,230.3,143.3z"/>
				<path fill="#EEF3F5" d="M180,176.6c-0.6,0.2-1.1,0.2-1.6,0.1c-0.5-0.1-0.9-0.3-1.3-0.5s-0.6-0.6-0.7-1.1l1.5-0.4
					c0.1,0.2,0.2,0.4,0.4,0.5c0.2,0.1,0.4,0.2,0.6,0.2c0.2,0,0.5,0,0.8-0.1c0.3-0.1,0.5-0.2,0.7-0.4c0.2-0.2,0.3-0.4,0.4-0.6
					c0.1-0.2,0.1-0.4,0-0.7c-0.1-0.2-0.2-0.4-0.4-0.6c-0.2-0.2-0.4-0.2-0.7-0.3c-0.3,0-0.6,0-0.9,0.1l-0.7,0.2l-0.3-1.1l0.7-0.2
					c0.3-0.1,0.5-0.2,0.7-0.3c0.2-0.2,0.3-0.3,0.4-0.5c0.1-0.2,0.1-0.4,0-0.7c-0.1-0.2-0.2-0.4-0.3-0.6c-0.1-0.1-0.3-0.2-0.5-0.3
					c-0.2,0-0.4,0-0.7,0c-0.2,0.1-0.5,0.2-0.7,0.3c-0.2,0.1-0.3,0.3-0.4,0.5c-0.1,0.2-0.1,0.4,0,0.6l-1.4,0.4
					c-0.1-0.5-0.1-0.9,0.1-1.3c0.2-0.4,0.4-0.8,0.8-1.1c0.4-0.3,0.8-0.5,1.3-0.7c0.5-0.1,1-0.2,1.5-0.1c0.5,0.1,0.8,0.3,1.1,0.6
					c0.3,0.3,0.5,0.6,0.6,1c0.1,0.5,0.1,0.9-0.1,1.3c-0.2,0.4-0.5,0.7-0.9,0.9l0,0.1c0.6-0.1,1.1,0,1.5,0.3c0.4,0.3,0.7,0.6,0.8,1.2
					c0.1,0.5,0.1,0.9-0.1,1.3c-0.2,0.4-0.4,0.8-0.8,1.1C181.1,176.2,180.6,176.4,180,176.6z M183.8,173.8l-0.3-1.2l2-6.4l1-0.3
					l0.4,1.7l-0.6,0.2l-1.3,4.3l0,0.1l4.8-1.3l0.3,1.2L183.8,173.8z M188.1,174.3l-0.5-1.9l-0.1-0.5l-1.5-5.7l1.4-0.4l2.2,8.1
					L188.1,174.3z M192.9,171.8l0.1,0.5c0.1,0.3,0.1,0.7,0.1,1.1c0,0.4,0,0.7,0,1c0,0.3,0,0.6-0.1,0.8l-1,0.3c0-0.2,0-0.4,0-0.7
					c0-0.3,0-0.6-0.1-1s-0.1-0.7-0.2-1.1l-0.1-0.5L192.9,171.8z M194.8,172.5l-0.3-1.1l2.1-3.5c0.2-0.3,0.4-0.6,0.5-0.9
					c0.1-0.3,0.2-0.5,0.2-0.7c0-0.2,0-0.4,0-0.7c-0.1-0.3-0.2-0.5-0.4-0.6c-0.2-0.2-0.4-0.3-0.6-0.3c-0.2,0-0.5,0-0.7,0
					c-0.3,0.1-0.5,0.2-0.7,0.4c-0.2,0.2-0.3,0.4-0.3,0.6c-0.1,0.2,0,0.5,0,0.8l-1.4,0.4c-0.1-0.5-0.1-1,0-1.4
					c0.1-0.4,0.4-0.8,0.7-1.1c0.4-0.3,0.8-0.6,1.3-0.7c0.5-0.1,1.1-0.2,1.5-0.1c0.5,0.1,0.9,0.3,1.2,0.6c0.3,0.3,0.5,0.7,0.7,1.1
					c0.1,0.3,0.1,0.6,0.1,0.9c0,0.3-0.2,0.7-0.4,1.1c-0.2,0.4-0.5,1-0.9,1.6l-1,1.8l0,0.1l3.5-0.9l0.3,1.2L194.8,172.5z M204.6,170
					c-0.5,0.1-1,0.2-1.5,0.1c-0.5-0.1-0.9-0.3-1.2-0.6c-0.3-0.3-0.6-0.6-0.7-1.1l1.4-0.4c0.1,0.3,0.3,0.6,0.7,0.7
					c0.3,0.1,0.7,0.2,1,0.1c0.3-0.1,0.5-0.2,0.7-0.4c0.2-0.2,0.3-0.4,0.4-0.7c0.1-0.3,0.1-0.6,0-0.9c-0.1-0.3-0.2-0.6-0.4-0.8
					c-0.2-0.2-0.4-0.3-0.7-0.4c-0.3-0.1-0.5-0.1-0.8,0c-0.2,0.1-0.5,0.2-0.7,0.3c-0.2,0.2-0.4,0.3-0.5,0.5l-1.4,0.1l-0.7-4.3
					l4.7-1.3l0.3,1.2l-3.5,0.9l0.3,2.2l0,0c0.1-0.2,0.3-0.4,0.5-0.6c0.2-0.2,0.5-0.3,0.9-0.4c0.5-0.1,1-0.1,1.4,0
					c0.4,0.1,0.8,0.4,1.2,0.7c0.3,0.3,0.6,0.8,0.7,1.3c0.1,0.5,0.1,1,0,1.5c-0.1,0.5-0.4,0.9-0.8,1.3
					C205.7,169.6,205.2,169.8,204.6,170z M211.8,168.1c-0.6,0.2-1.1,0.2-1.6,0.1c-0.5-0.1-0.9-0.3-1.3-0.5c-0.4-0.3-0.6-0.6-0.7-1.1
					l1.5-0.4c0.1,0.2,0.2,0.4,0.4,0.5c0.2,0.1,0.4,0.2,0.6,0.2c0.2,0,0.5,0,0.8-0.1c0.3-0.1,0.5-0.2,0.7-0.4
					c0.2-0.2,0.3-0.4,0.4-0.6c0.1-0.2,0.1-0.4,0-0.7c-0.1-0.2-0.2-0.4-0.4-0.6c-0.2-0.2-0.4-0.2-0.7-0.3c-0.3,0-0.6,0-0.9,0.1
					l-0.7,0.2l-0.3-1.1l0.7-0.2c0.3-0.1,0.5-0.2,0.7-0.3c0.2-0.2,0.3-0.3,0.4-0.5c0.1-0.2,0.1-0.4,0-0.7c-0.1-0.2-0.2-0.4-0.3-0.6
					c-0.1-0.1-0.3-0.2-0.5-0.3c-0.2,0-0.4,0-0.7,0c-0.2,0.1-0.5,0.2-0.7,0.3c-0.2,0.1-0.3,0.3-0.4,0.5c-0.1,0.2-0.1,0.4,0,0.6
					l-1.4,0.4c-0.1-0.5-0.1-0.9,0.1-1.3c0.2-0.4,0.4-0.8,0.8-1.1c0.4-0.3,0.8-0.5,1.3-0.7c0.5-0.1,1-0.2,1.5-0.1
					c0.5,0.1,0.8,0.3,1.2,0.6s0.5,0.6,0.6,1c0.1,0.5,0.1,0.9-0.1,1.3c-0.2,0.4-0.5,0.7-0.9,0.9l0,0.1c0.6-0.1,1.1,0,1.5,0.3
					c0.4,0.3,0.7,0.6,0.8,1.2c0.1,0.5,0.1,0.9-0.1,1.3c-0.2,0.4-0.4,0.8-0.8,1.1C212.9,167.7,212.4,167.9,211.8,168.1z M216.8,166.7
					c-0.2,0.1-0.5,0-0.7-0.1s-0.4-0.3-0.4-0.6c-0.1-0.2,0-0.5,0.1-0.7c0.1-0.2,0.3-0.4,0.6-0.4c0.2-0.1,0.5,0,0.7,0.1
					c0.2,0.1,0.4,0.3,0.4,0.5c0,0.2,0,0.3,0,0.5c0,0.2-0.1,0.3-0.2,0.4C217.1,166.6,217,166.6,216.8,166.7z M219.1,166l1.6-7.8
					l0-0.1l-4,1.1l-0.3-1.2l5.5-1.5l0.3,1.3l-1.6,7.8L219.1,166z M228.1,163.7c-0.5,0.1-1,0.2-1.5,0.1c-0.5-0.1-0.9-0.3-1.2-0.6
					c-0.3-0.3-0.6-0.6-0.7-1.1l1.4-0.4c0.1,0.3,0.3,0.6,0.7,0.7c0.3,0.1,0.7,0.2,1,0.1c0.3-0.1,0.5-0.2,0.7-0.4
					c0.2-0.2,0.3-0.4,0.4-0.7c0.1-0.3,0.1-0.6,0-0.9c-0.1-0.3-0.2-0.6-0.4-0.8c-0.2-0.2-0.4-0.3-0.7-0.4c-0.3-0.1-0.5-0.1-0.8,0
					c-0.2,0.1-0.5,0.2-0.7,0.3c-0.2,0.2-0.4,0.3-0.5,0.5l-1.4,0.1l-0.7-4.3l4.7-1.3l0.3,1.2l-3.5,0.9l0.3,2.2l0,0
					c0.1-0.2,0.3-0.4,0.5-0.6c0.2-0.2,0.5-0.3,0.9-0.4c0.5-0.1,1-0.1,1.4,0c0.4,0.1,0.8,0.4,1.2,0.7c0.3,0.3,0.6,0.8,0.7,1.3
					c0.1,0.5,0.1,1,0,1.5c-0.1,0.5-0.4,0.9-0.8,1.3C229.2,163.3,228.7,163.5,228.1,163.7z M238.2,152.2l1.5-0.4l1.4,5.3
					c0.2,0.6,0.2,1.1,0,1.6c-0.2,0.5-0.4,1-0.9,1.3c-0.4,0.4-1,0.7-1.6,0.8c-0.7,0.2-1.3,0.2-1.8,0.1c-0.6-0.1-1-0.4-1.4-0.7
					c-0.4-0.4-0.7-0.8-0.8-1.4l-1.4-5.3l1.5-0.4l1.4,5.2c0.1,0.3,0.2,0.6,0.5,0.8c0.2,0.2,0.5,0.4,0.8,0.5c0.3,0.1,0.7,0.1,1,0
					c0.4-0.1,0.7-0.3,0.9-0.5c0.2-0.2,0.4-0.5,0.5-0.8c0.1-0.3,0.1-0.6,0-1L238.2,152.2z M246.2,152.4c-0.1-0.3-0.4-0.6-0.7-0.7
					c-0.3-0.1-0.7-0.1-1.1,0c-0.3,0.1-0.6,0.2-0.8,0.3c-0.2,0.2-0.3,0.3-0.4,0.5c-0.1,0.2-0.1,0.4,0,0.6c0,0.2,0.1,0.3,0.2,0.4
					c0.1,0.1,0.2,0.2,0.4,0.2c0.2,0,0.3,0.1,0.5,0.1c0.2,0,0.4,0,0.5,0l0.8,0c0.3,0,0.6,0,1,0.1c0.3,0,0.6,0.1,0.9,0.3
					c0.3,0.1,0.5,0.3,0.7,0.5c0.2,0.2,0.4,0.5,0.4,0.9c0.1,0.5,0.1,0.9,0,1.4c-0.1,0.4-0.4,0.8-0.8,1.1c-0.4,0.3-0.9,0.6-1.6,0.7
					c-0.6,0.2-1.2,0.2-1.7,0.1c-0.5-0.1-1-0.3-1.3-0.6c-0.4-0.3-0.6-0.7-0.8-1.3l1.4-0.4c0.1,0.3,0.2,0.5,0.5,0.6
					c0.2,0.1,0.4,0.2,0.7,0.3c0.3,0,0.6,0,0.9-0.1c0.3-0.1,0.6-0.2,0.8-0.4c0.2-0.2,0.4-0.3,0.5-0.6c0.1-0.2,0.1-0.4,0-0.7
					c-0.1-0.2-0.2-0.4-0.3-0.5c-0.2-0.1-0.4-0.2-0.6-0.2c-0.2,0-0.5-0.1-0.8-0.1l-1,0c-0.7,0-1.3-0.1-1.8-0.4
					c-0.5-0.2-0.8-0.7-1-1.2c-0.1-0.5-0.1-0.9,0.1-1.4c0.2-0.4,0.4-0.8,0.8-1.1c0.4-0.3,0.9-0.6,1.4-0.7c0.6-0.2,1.1-0.2,1.6-0.1
					c0.5,0.1,0.9,0.3,1.2,0.6c0.3,0.3,0.6,0.7,0.7,1.1L246.2,152.4z M253.4,156.8l-2.8,0.7l-2.2-8.1l2.8-0.8
					c0.8-0.2,1.5-0.2,2.2-0.1c0.7,0.2,1.2,0.5,1.7,1c0.5,0.5,0.8,1.2,1.1,2c0.2,0.8,0.3,1.6,0.1,2.3c-0.1,0.7-0.5,1.3-1,1.8
					C254.9,156.2,254.2,156.6,253.4,156.8z M251.8,155.9l1.2-0.3c0.6-0.2,1-0.4,1.3-0.7c0.3-0.3,0.5-0.7,0.6-1.2
					c0.1-0.5,0-1-0.1-1.6c-0.2-0.6-0.4-1.1-0.7-1.5c-0.3-0.4-0.7-0.6-1.1-0.7c-0.4-0.1-0.9-0.1-1.5,0.1l-1.3,0.3L251.8,155.9z"/>
				<path fill="#637282" d="M305.2,123.2l-1.4,0.4l0.6-7.8l1.6-0.4l4.4,6.4l-1.4,0.4l-3.4-5.1l-0.1,0L305.2,123.2z M304.5,120.4
					l3.7-1l0.3,1l-3.7,1L304.5,120.4z M314.4,116.5l-1.1,0.4c-0.1-0.1-0.1-0.2-0.3-0.3c-0.1-0.1-0.2-0.1-0.4-0.2c-0.2,0-0.3,0-0.5,0
					c-0.3,0.1-0.5,0.2-0.6,0.3c-0.1,0.2-0.2,0.3-0.1,0.5c0,0.2,0.1,0.3,0.3,0.3c0.1,0.1,0.4,0.1,0.6,0.1l1,0c0.5,0,1,0,1.3,0.2
					c0.3,0.2,0.5,0.4,0.6,0.8c0.1,0.3,0.1,0.7-0.1,1c-0.1,0.3-0.3,0.6-0.6,0.8c-0.3,0.2-0.7,0.4-1.1,0.5c-0.7,0.2-1.2,0.2-1.7,0
					c-0.5-0.2-0.8-0.5-1-1l1.2-0.4c0.1,0.2,0.3,0.4,0.5,0.5c0.2,0.1,0.5,0.1,0.8,0c0.3-0.1,0.5-0.2,0.7-0.4c0.1-0.2,0.2-0.3,0.2-0.5
					c0-0.2-0.1-0.3-0.3-0.3c-0.1-0.1-0.3-0.1-0.6-0.1l-1,0.1c-0.5,0-1,0-1.3-0.2c-0.3-0.2-0.5-0.5-0.6-0.9c-0.1-0.3-0.1-0.6,0-0.9
					c0.1-0.3,0.3-0.5,0.6-0.8c0.3-0.2,0.6-0.4,1.1-0.5c0.6-0.2,1.2-0.2,1.6,0C313.9,115.8,314.2,116.1,314.4,116.5z M319.8,115.1
					l-1.1,0.4c-0.1-0.1-0.2-0.2-0.3-0.3c-0.1-0.1-0.2-0.1-0.4-0.2c-0.2,0-0.3,0-0.5,0c-0.3,0.1-0.5,0.2-0.6,0.3
					c-0.1,0.2-0.2,0.3-0.1,0.5c0,0.2,0.1,0.3,0.3,0.3c0.1,0.1,0.4,0.1,0.6,0.1l1,0c0.5,0,1,0,1.3,0.2c0.3,0.2,0.5,0.4,0.6,0.8
					c0.1,0.3,0.1,0.7-0.1,1c-0.1,0.3-0.3,0.6-0.6,0.8c-0.3,0.2-0.7,0.4-1.1,0.5c-0.7,0.2-1.2,0.2-1.7,0c-0.5-0.2-0.8-0.5-1-1
					l1.2-0.4c0.1,0.2,0.3,0.4,0.5,0.4c0.2,0.1,0.5,0.1,0.8,0c0.3-0.1,0.5-0.2,0.7-0.4c0.2-0.2,0.2-0.3,0.2-0.5
					c0-0.2-0.1-0.3-0.3-0.3c-0.1-0.1-0.3-0.1-0.6-0.1l-1,0.1c-0.5,0-1,0-1.3-0.2c-0.3-0.2-0.5-0.5-0.6-0.9c-0.1-0.3-0.1-0.6,0-0.9
					c0.1-0.3,0.3-0.5,0.6-0.8c0.3-0.2,0.6-0.4,1.1-0.5c0.6-0.2,1.2-0.2,1.6,0C319.3,114.3,319.6,114.6,319.8,115.1z M324.4,118.1
					c-0.5,0.1-1,0.2-1.5,0c-0.4-0.1-0.8-0.4-1.1-0.7c-0.3-0.4-0.6-0.8-0.7-1.4c-0.1-0.5-0.2-1.1-0.1-1.5c0.1-0.5,0.3-0.9,0.6-1.2
					c0.3-0.3,0.7-0.6,1.2-0.7c0.3-0.1,0.7-0.1,1-0.1c0.3,0,0.6,0.1,0.9,0.3c0.3,0.2,0.5,0.4,0.8,0.7c0.2,0.3,0.4,0.7,0.5,1.2
					l0.1,0.4l-4.4,1.2l-0.2-0.8l3.2-0.8c-0.1-0.2-0.2-0.4-0.3-0.6c-0.2-0.2-0.3-0.3-0.5-0.3c-0.2-0.1-0.4-0.1-0.7,0
					c-0.3,0.1-0.5,0.2-0.6,0.4c-0.2,0.2-0.3,0.4-0.3,0.6c-0.1,0.2,0,0.5,0,0.7l0.2,0.7c0.1,0.3,0.2,0.6,0.4,0.8
					c0.2,0.2,0.4,0.3,0.6,0.4c0.2,0.1,0.5,0.1,0.8,0c0.2,0,0.3-0.1,0.5-0.2c0.1-0.1,0.2-0.2,0.3-0.3c0.1-0.1,0.1-0.3,0.1-0.4
					l1.2-0.2c0,0.3-0.1,0.6-0.2,0.9c-0.1,0.3-0.4,0.5-0.6,0.7C325.1,117.9,324.8,118,324.4,118.1z M329,111.1l0.3,1l-3.1,0.8l-0.3-1
					L329,111.1z M326.4,110.4l1.3-0.3l1.3,5c0,0.2,0.1,0.3,0.2,0.4c0.1,0.1,0.2,0.1,0.3,0.1c0.1,0,0.2,0,0.3,0c0.1,0,0.1,0,0.2-0.1
					c0.1,0,0.1-0.1,0.1-0.1l0.5,0.9c-0.1,0-0.2,0.1-0.3,0.2c-0.1,0.1-0.3,0.1-0.4,0.2c-0.3,0.1-0.6,0.1-0.9,0.1
					c-0.3,0-0.5-0.1-0.7-0.3c-0.2-0.2-0.4-0.4-0.4-0.8L326.4,110.4z M334.6,111.1l-1.1,0.4c-0.1-0.1-0.1-0.2-0.3-0.3
					c-0.1-0.1-0.2-0.1-0.4-0.2c-0.2,0-0.3,0-0.5,0c-0.3,0.1-0.5,0.2-0.6,0.3c-0.1,0.2-0.2,0.3-0.1,0.5c0,0.2,0.1,0.3,0.3,0.3
					c0.1,0.1,0.4,0.1,0.6,0.1l1-0.1c0.5,0,1,0,1.3,0.2c0.3,0.2,0.5,0.4,0.6,0.8c0.1,0.3,0.1,0.7-0.1,1c-0.1,0.3-0.3,0.6-0.6,0.8
					c-0.3,0.2-0.7,0.4-1.1,0.5c-0.7,0.2-1.2,0.2-1.7,0c-0.5-0.2-0.8-0.5-1-1l1.2-0.4c0.1,0.2,0.3,0.4,0.5,0.5c0.2,0.1,0.5,0.1,0.8,0
					c0.3-0.1,0.5-0.2,0.7-0.4c0.1-0.2,0.2-0.3,0.2-0.5c0-0.2-0.1-0.3-0.3-0.3c-0.1-0.1-0.3-0.1-0.6-0.1l-1,0.1c-0.5,0-1,0-1.3-0.2
					c-0.3-0.2-0.5-0.5-0.6-0.9c-0.1-0.3-0.1-0.6,0-0.9c0.1-0.3,0.3-0.5,0.6-0.8c0.3-0.2,0.6-0.4,1.1-0.5c0.6-0.2,1.2-0.2,1.6,0
					C334.1,110.4,334.4,110.7,334.6,111.1z"/>
				<path fill="#A5ADB9" d="M332.2,134.1l-0.3-1.2l2-6.4l1-0.3l0.4,1.7l-0.6,0.2l-1.3,4.3l0,0.1l4.8-1.3l0.3,1.2L332.2,134.1z
					 M336.4,134.5l-0.5-1.9l-0.1-0.5l-1.5-5.7l1.4-0.4l2.2,8.1L336.4,134.5z"/>

					<rect x="348.3" y="101.7" transform="matrix(0.9659 -0.2588 0.2588 0.9659 -18.756 94.2754)" fill="#3C4249" width="0.7" height="33.2"/>
				<path fill="#637282" d="M360.1,107.4l-3.4-5.6l1.2-0.3l2.3,4.2l0.1,0l0-4.8l1.1-0.3l2.4,4.2l0.1,0l-0.1-4.8l1.2-0.3l-0.1,6.6
					l-1.1,0.3l-2.4-3.9l0,0l-0.1,4.6L360.1,107.4z M368.1,105.4c-0.3,0.1-0.6,0.1-0.8,0.1c-0.3,0-0.5-0.2-0.7-0.3
					c-0.2-0.2-0.3-0.4-0.4-0.7c-0.1-0.3-0.1-0.5,0-0.7c0-0.2,0.1-0.4,0.3-0.5c0.1-0.1,0.3-0.3,0.5-0.4c0.2-0.1,0.4-0.2,0.6-0.3
					c0.3-0.1,0.5-0.2,0.6-0.2c0.2-0.1,0.3-0.1,0.3-0.2c0.1-0.1,0.1-0.2,0.1-0.3l0,0c-0.1-0.2-0.2-0.4-0.3-0.5
					c-0.2-0.1-0.4-0.1-0.6,0c-0.3,0.1-0.5,0.2-0.6,0.3c-0.1,0.2-0.2,0.3-0.2,0.5l-1,0.1c0-0.3,0.1-0.6,0.2-0.8
					c0.1-0.2,0.3-0.4,0.6-0.6c0.2-0.2,0.5-0.3,0.8-0.4c0.2-0.1,0.4-0.1,0.7-0.1c0.2,0,0.5,0,0.7,0.1c0.2,0.1,0.4,0.2,0.6,0.4
					c0.2,0.2,0.3,0.4,0.4,0.7l0.8,3.1l-1,0.3l-0.2-0.6l0,0c0,0.1-0.1,0.3-0.2,0.4c-0.1,0.1-0.2,0.3-0.4,0.4
					C368.5,105.2,368.3,105.3,368.1,105.4z M368.1,104.5c0.2-0.1,0.4-0.2,0.5-0.3c0.1-0.1,0.2-0.3,0.3-0.4c0-0.2,0.1-0.3,0-0.5
					l-0.1-0.5c0,0-0.1,0.1-0.2,0.1c-0.1,0-0.2,0.1-0.3,0.1c-0.1,0-0.2,0.1-0.3,0.1c-0.1,0-0.2,0.1-0.2,0.1c-0.2,0.1-0.3,0.1-0.4,0.2
					c-0.1,0.1-0.2,0.2-0.2,0.3c0,0.1-0.1,0.2,0,0.4c0.1,0.2,0.2,0.3,0.3,0.4C367.7,104.6,367.9,104.6,368.1,104.5z M371,98l1.6,6.1
					l-1.1,0.3l-1.6-6.1L371,98z M373.2,97.4l1.6,6.1l-1.1,0.3l-1.6-6.1L373.2,97.4z M378,102.7c-0.5,0.1-0.9,0.1-1.3,0
					c-0.4-0.1-0.7-0.3-1-0.6c-0.3-0.3-0.5-0.7-0.6-1.2c-0.1-0.5-0.1-0.9-0.1-1.3c0.1-0.4,0.3-0.8,0.5-1c0.3-0.3,0.6-0.5,1.1-0.6
					c0.3-0.1,0.6-0.1,0.8-0.1c0.3,0,0.5,0.1,0.8,0.2c0.2,0.1,0.5,0.3,0.7,0.6c0.2,0.3,0.3,0.6,0.4,1l0.1,0.3l-3.7,1l-0.2-0.7
					l2.7-0.7c-0.1-0.2-0.2-0.4-0.3-0.5c-0.1-0.1-0.3-0.2-0.5-0.3c-0.2-0.1-0.4,0-0.6,0c-0.2,0.1-0.4,0.2-0.5,0.3
					c-0.1,0.2-0.2,0.3-0.3,0.5c0,0.2,0,0.4,0,0.6l0.2,0.6c0.1,0.3,0.2,0.5,0.3,0.6c0.1,0.2,0.3,0.3,0.5,0.3c0.2,0.1,0.4,0,0.7,0
					c0.2,0,0.3-0.1,0.4-0.2c0.1-0.1,0.2-0.2,0.3-0.3c0.1-0.1,0.1-0.2,0.1-0.4l1-0.2c0,0.3-0.1,0.5-0.2,0.8c-0.1,0.2-0.3,0.5-0.6,0.6
					C378.6,102.5,378.3,102.6,378,102.7z M381.9,96.7l0.2,0.8l-2.6,0.7l-0.2-0.8L381.9,96.7z M379.7,96.1l1.1-0.3l1.1,4.3
					c0,0.1,0.1,0.2,0.2,0.3c0.1,0.1,0.1,0.1,0.2,0.1c0.1,0,0.2,0,0.3,0c0.1,0,0.1,0,0.2-0.1c0.1,0,0.1,0,0.1-0.1l0.4,0.8
					c-0.1,0-0.1,0.1-0.2,0.1c-0.1,0.1-0.2,0.1-0.4,0.1c-0.3,0.1-0.5,0.1-0.8,0.1c-0.2,0-0.5-0.1-0.6-0.3c-0.2-0.2-0.3-0.4-0.4-0.7
					L379.7,96.1z M386.7,96.7l-1,0.4c-0.1-0.1-0.1-0.2-0.2-0.2c-0.1-0.1-0.2-0.1-0.3-0.1c-0.1,0-0.3,0-0.4,0
					c-0.2,0.1-0.4,0.2-0.5,0.3c-0.1,0.1-0.2,0.3-0.1,0.4c0,0.1,0.1,0.2,0.2,0.3c0.1,0.1,0.3,0.1,0.6,0.1l0.8,0c0.5,0,0.8,0,1.1,0.2
					c0.3,0.1,0.4,0.4,0.5,0.7c0.1,0.3,0.1,0.6,0,0.8c-0.1,0.3-0.3,0.5-0.5,0.7c-0.3,0.2-0.6,0.4-1,0.5c-0.6,0.2-1,0.2-1.4,0
					c-0.4-0.1-0.7-0.4-0.9-0.8l1-0.4c0.1,0.2,0.2,0.3,0.4,0.4c0.2,0.1,0.4,0.1,0.6,0c0.3-0.1,0.4-0.2,0.6-0.3
					c0.1-0.1,0.2-0.3,0.1-0.5c0-0.1-0.1-0.2-0.2-0.3c-0.1-0.1-0.3-0.1-0.5-0.1l-0.8,0c-0.5,0-0.8,0-1.1-0.2
					c-0.3-0.2-0.4-0.4-0.5-0.7c-0.1-0.3-0.1-0.5,0-0.8c0.1-0.3,0.3-0.5,0.5-0.7c0.2-0.2,0.6-0.3,0.9-0.4c0.5-0.1,1-0.1,1.4,0
					C386.3,96.1,386.5,96.3,386.7,96.7z"/>
				<path fill="#A5ADB9" d="M380.6,114l2.2,8.1l-1.5,0.4l-1.8-6.7l0,0l-1.6,1.7l-0.4-1.3l1.7-1.8L380.6,114z M387.8,120.9
					c-0.6,0.2-1.1,0.2-1.6,0.1c-0.5-0.1-0.9-0.3-1.3-0.5c-0.4-0.3-0.6-0.6-0.7-1.1l1.5-0.4c0.1,0.2,0.2,0.4,0.4,0.5
					c0.2,0.1,0.4,0.2,0.6,0.2c0.2,0,0.5,0,0.8-0.1c0.3-0.1,0.5-0.2,0.7-0.4c0.2-0.2,0.3-0.4,0.4-0.6c0.1-0.2,0.1-0.4,0-0.7
					c-0.1-0.2-0.2-0.4-0.4-0.6c-0.2-0.2-0.4-0.2-0.7-0.3c-0.3,0-0.6,0-0.9,0.1l-0.7,0.2l-0.3-1.1l0.7-0.2c0.3-0.1,0.5-0.2,0.7-0.3
					c0.2-0.2,0.3-0.3,0.4-0.5c0.1-0.2,0.1-0.4,0-0.7c-0.1-0.2-0.2-0.4-0.3-0.6c-0.1-0.1-0.3-0.2-0.5-0.3c-0.2,0-0.4,0-0.7,0
					c-0.2,0.1-0.5,0.2-0.7,0.3c-0.2,0.1-0.3,0.3-0.4,0.5c-0.1,0.2-0.1,0.4,0,0.6l-1.4,0.4c-0.1-0.5-0.1-0.9,0.1-1.3
					c0.2-0.4,0.4-0.8,0.8-1.1c0.4-0.3,0.8-0.5,1.3-0.7c0.5-0.1,1-0.2,1.5-0.1c0.5,0.1,0.8,0.3,1.1,0.6c0.3,0.3,0.5,0.6,0.6,1
					c0.1,0.5,0.1,0.9-0.1,1.3c-0.2,0.4-0.5,0.7-0.9,0.9l0,0.1c0.6-0.1,1.1,0,1.5,0.3c0.4,0.3,0.7,0.6,0.8,1.2
					c0.1,0.5,0.1,0.9-0.1,1.3c-0.2,0.4-0.4,0.8-0.8,1.1C388.9,120.5,388.4,120.7,387.8,120.9z"/>

					<rect x="178.7" y="174.7" transform="matrix(0.9659 -0.2588 0.2588 0.9659 -37.6276 69.4207)" fill="#289548" width="132.2" height="5.8"/>

					<rect x="308" y="152.2" transform="matrix(0.9659 -0.2588 0.2588 0.9659 -28.9279 90.4231)" fill="#FC9F0F" width="41.9" height="5.8"/>

					<rect x="348.7" y="142.9" transform="matrix(0.9659 -0.2588 0.2588 0.9659 -25.3544 99.0505)" fill="#3170D1" width="29.6" height="5.8"/>

					<rect x="377.5" y="136.4" transform="matrix(0.9659 -0.2588 0.2588 0.9659 -22.8277 105.1509)" fill="#DE5846" width="21" height="5.8"/>
				<path fill="#0D7ED6" d="M264.2,187.1l1.6-0.4l3.5,4.6l0.1,0l0.7-5.7l1.6-0.4l1.9,7.1l-1.2,0.3l-1.3-4.9l-0.1,0l-0.7,5.4
					l-0.9,0.2l-3.3-4.3l-0.1,0l1.3,4.9l-1.2,0.3L264.2,187.1z M277.3,191.4c-0.5,0.1-1,0.1-1.4,0c-0.4-0.1-0.8-0.4-1.1-0.7
					c-0.3-0.4-0.6-0.8-0.7-1.4c-0.1-0.6-0.2-1.1-0.1-1.5c0.1-0.5,0.3-0.9,0.6-1.2c0.3-0.3,0.7-0.6,1.3-0.7c0.5-0.1,1-0.1,1.4,0
					s0.8,0.4,1.1,0.7c0.3,0.4,0.6,0.8,0.7,1.4c0.1,0.6,0.2,1.1,0.1,1.5c-0.1,0.5-0.3,0.9-0.6,1.2C278.2,191,277.8,191.2,277.3,191.4
					z M277,190.3c0.3-0.1,0.5-0.2,0.6-0.4c0.1-0.2,0.2-0.5,0.3-0.7c0-0.3,0-0.6-0.1-0.9c-0.1-0.3-0.2-0.6-0.4-0.8
					c-0.2-0.2-0.4-0.4-0.6-0.5c-0.2-0.1-0.5-0.1-0.8,0c-0.3,0.1-0.5,0.2-0.7,0.4c-0.1,0.2-0.2,0.5-0.3,0.7c0,0.3,0,0.6,0.1,0.9
					c0.1,0.3,0.2,0.6,0.4,0.8c0.2,0.2,0.4,0.4,0.6,0.5C276.5,190.4,276.7,190.4,277,190.3z M280.9,190.3l-1.4-5.3l1.2-0.3l0.2,0.9
					l0.1,0c0-0.3,0.1-0.6,0.3-0.8c0.2-0.2,0.4-0.4,0.7-0.5c0.1,0,0.1,0,0.2-0.1c0.1,0,0.2,0,0.2,0l0.3,1.2c-0.1,0-0.1,0-0.3,0
					c-0.1,0-0.2,0-0.3,0.1c-0.2,0.1-0.4,0.2-0.6,0.3c-0.2,0.1-0.3,0.3-0.3,0.5c-0.1,0.2-0.1,0.4,0,0.6l0.8,3.1L280.9,190.3z
					 M286.9,188.8c-0.5,0.1-1,0.2-1.5,0c-0.4-0.1-0.8-0.4-1.1-0.7c-0.3-0.4-0.6-0.8-0.7-1.4c-0.1-0.5-0.2-1.1-0.1-1.5
					c0.1-0.5,0.3-0.9,0.6-1.2c0.3-0.3,0.7-0.6,1.2-0.7c0.3-0.1,0.7-0.1,1-0.1c0.3,0,0.6,0.1,0.9,0.3c0.3,0.2,0.5,0.4,0.8,0.7
					c0.2,0.3,0.4,0.7,0.5,1.2l0.1,0.4l-4.4,1.2L284,186l3.2-0.8c-0.1-0.2-0.2-0.4-0.3-0.6c-0.2-0.2-0.3-0.3-0.5-0.3
					c-0.2-0.1-0.4-0.1-0.7,0c-0.3,0.1-0.5,0.2-0.6,0.4c-0.2,0.2-0.3,0.4-0.3,0.6c-0.1,0.2,0,0.5,0,0.7l0.2,0.7
					c0.1,0.3,0.2,0.6,0.4,0.8c0.2,0.2,0.4,0.3,0.6,0.4c0.2,0.1,0.5,0.1,0.8,0c0.2,0,0.3-0.1,0.5-0.2c0.1-0.1,0.2-0.2,0.3-0.3
					c0.1-0.1,0.1-0.3,0.1-0.4l1.2-0.2c0,0.3-0.1,0.6-0.2,0.9c-0.1,0.3-0.4,0.5-0.6,0.7C287.7,188.5,287.3,188.7,286.9,188.8z
					 M295.2,186.4l-2.4,0.6l-1.9-7.1l2.5-0.7c0.7-0.2,1.4-0.2,1.9-0.1c0.6,0.1,1.1,0.4,1.5,0.9c0.4,0.5,0.7,1.1,0.9,1.8
					c0.2,0.7,0.2,1.4,0.1,2c-0.1,0.6-0.4,1.1-0.9,1.5C296.5,185.9,295.9,186.2,295.2,186.4z M293.8,185.6l1.1-0.3
					c0.5-0.1,0.9-0.3,1.2-0.6c0.3-0.3,0.5-0.6,0.5-1c0.1-0.4,0-0.9-0.1-1.4c-0.1-0.5-0.4-1-0.6-1.3c-0.3-0.3-0.6-0.5-1-0.6
					c-0.4-0.1-0.8-0.1-1.3,0.1l-1.1,0.3L293.8,185.6z M302.2,184.7c-0.5,0.1-1,0.2-1.5,0c-0.4-0.1-0.8-0.4-1.1-0.7
					c-0.3-0.4-0.6-0.8-0.7-1.4c-0.1-0.5-0.2-1.1-0.1-1.5c0.1-0.5,0.3-0.9,0.6-1.2c0.3-0.3,0.7-0.6,1.2-0.7c0.3-0.1,0.7-0.1,1-0.1
					c0.3,0,0.6,0.1,0.9,0.3c0.3,0.2,0.5,0.4,0.8,0.7c0.2,0.3,0.4,0.7,0.5,1.2l0.1,0.4l-4.4,1.2l-0.2-0.8l3.2-0.8
					c-0.1-0.2-0.2-0.4-0.3-0.6c-0.2-0.2-0.3-0.3-0.5-0.3c-0.2-0.1-0.4-0.1-0.7,0c-0.3,0.1-0.5,0.2-0.6,0.4c-0.2,0.2-0.3,0.4-0.3,0.6
					c-0.1,0.2,0,0.5,0,0.7l0.2,0.7c0.1,0.3,0.2,0.6,0.4,0.8c0.2,0.2,0.4,0.3,0.6,0.4c0.2,0.1,0.5,0.1,0.8,0c0.2,0,0.3-0.1,0.5-0.2
					c0.1-0.1,0.2-0.2,0.3-0.3c0.1-0.1,0.1-0.3,0.1-0.4l1.2-0.2c0,0.3-0.1,0.6-0.2,0.9c-0.1,0.3-0.4,0.5-0.6,0.7
					C303,184.4,302.6,184.6,302.2,184.7z M306.9,177.6l0.3,1l-3.1,0.8l-0.3-1L306.9,177.6z M304.2,176.9l1.3-0.3l1.3,5
					c0,0.2,0.1,0.3,0.2,0.4c0.1,0.1,0.2,0.1,0.3,0.1c0.1,0,0.2,0,0.3,0c0.1,0,0.1,0,0.2-0.1c0.1,0,0.1-0.1,0.1-0.1l0.5,0.9
					c-0.1,0-0.2,0.1-0.3,0.2c-0.1,0.1-0.3,0.1-0.4,0.2c-0.3,0.1-0.6,0.1-0.9,0.1c-0.3,0-0.5-0.1-0.7-0.3c-0.2-0.2-0.4-0.4-0.4-0.8
					L304.2,176.9z M310.9,182.4c-0.3,0.1-0.7,0.1-1,0.1c-0.3-0.1-0.6-0.2-0.8-0.4c-0.2-0.2-0.4-0.5-0.5-0.8c-0.1-0.3-0.1-0.6,0-0.8
					c0.1-0.2,0.2-0.4,0.3-0.6c0.2-0.2,0.4-0.3,0.6-0.4c0.2-0.1,0.5-0.2,0.7-0.3c0.3-0.1,0.5-0.2,0.7-0.3c0.2-0.1,0.3-0.2,0.4-0.2
					c0.1-0.1,0.1-0.2,0.1-0.3l0,0c-0.1-0.3-0.2-0.4-0.4-0.5c-0.2-0.1-0.4-0.1-0.7,0c-0.3,0.1-0.5,0.2-0.7,0.4
					c-0.1,0.2-0.2,0.4-0.2,0.6l-1.2,0.1c0-0.3,0.1-0.7,0.2-0.9c0.2-0.3,0.4-0.5,0.6-0.7c0.3-0.2,0.6-0.3,1-0.4
					c0.3-0.1,0.5-0.1,0.8-0.1c0.3,0,0.5,0,0.8,0.1c0.2,0.1,0.5,0.2,0.7,0.4c0.2,0.2,0.3,0.5,0.4,0.8l1,3.6l-1.2,0.3l-0.2-0.7l0,0
					c0,0.2-0.1,0.3-0.2,0.5c-0.1,0.2-0.2,0.3-0.4,0.4C311.4,182.2,311.2,182.3,310.9,182.4z M311,181.3c0.3-0.1,0.5-0.2,0.6-0.3
					c0.2-0.2,0.3-0.3,0.3-0.5c0.1-0.2,0.1-0.4,0-0.6l-0.2-0.6c0,0-0.1,0.1-0.2,0.1c-0.1,0.1-0.2,0.1-0.3,0.2
					c-0.1,0.1-0.2,0.1-0.3,0.1c-0.1,0-0.2,0.1-0.3,0.1c-0.2,0.1-0.3,0.2-0.5,0.3c-0.1,0.1-0.2,0.2-0.3,0.3c-0.1,0.1-0.1,0.3,0,0.4
					c0.1,0.2,0.2,0.4,0.4,0.5C310.5,181.4,310.7,181.4,311,181.3z M314.9,181.2l-1.4-5.3l1.3-0.3l1.4,5.3L314.9,181.2z M313.9,174.9
					c-0.2,0.1-0.4,0-0.6-0.1c-0.2-0.1-0.3-0.2-0.3-0.4c-0.1-0.2,0-0.4,0.1-0.5c0.1-0.2,0.3-0.3,0.5-0.3c0.2-0.1,0.4,0,0.6,0.1
					c0.2,0.1,0.3,0.2,0.3,0.4c0.1,0.2,0,0.4-0.1,0.5C314.3,174.7,314.1,174.8,313.9,174.9z M316.8,173l1.9,7.1l-1.3,0.3l-1.9-7.1
					L316.8,173z M323.2,174.7l-1.1,0.4c-0.1-0.1-0.1-0.2-0.3-0.3c-0.1-0.1-0.2-0.1-0.4-0.2c-0.2,0-0.3,0-0.5,0
					c-0.3,0.1-0.5,0.2-0.6,0.3c-0.1,0.2-0.2,0.3-0.1,0.5c0,0.2,0.1,0.3,0.3,0.3c0.1,0.1,0.4,0.1,0.6,0.1l1,0c0.5,0,1,0,1.3,0.2
					c0.3,0.2,0.5,0.4,0.6,0.8c0.1,0.3,0.1,0.7-0.1,1c-0.1,0.3-0.3,0.6-0.6,0.8c-0.3,0.2-0.7,0.4-1.1,0.5c-0.7,0.2-1.2,0.2-1.7,0
					c-0.5-0.2-0.8-0.5-1-1l1.2-0.4c0.1,0.2,0.3,0.4,0.5,0.4c0.2,0.1,0.5,0.1,0.8,0c0.3-0.1,0.5-0.2,0.7-0.4c0.1-0.2,0.2-0.3,0.2-0.5
					c0-0.2-0.1-0.3-0.3-0.3c-0.1-0.1-0.3-0.1-0.6-0.1l-1,0.1c-0.5,0-1,0-1.3-0.2c-0.3-0.2-0.5-0.5-0.6-0.9c-0.1-0.3-0.1-0.6,0-0.9
					c0.1-0.3,0.3-0.5,0.6-0.8c0.3-0.2,0.6-0.4,1.1-0.5c0.6-0.2,1.2-0.2,1.6,0C322.7,174,323,174.3,323.2,174.7z"/>
				<path fill="none" stroke="#3C4249" stroke-width="0.7227" d="M143.5,144.2L405.2,74"/>

					<rect x="123.7" y="32.3" transform="matrix(0.9659 -0.2588 0.2588 0.9659 -4.715 68.8565)" fill="#212225" width="271" height="40"/>

					<rect x="128.7" y="70.9" transform="matrix(0.9659 -0.2588 0.2588 0.9659 -9.4513 70.8184)" fill="#3C4249" width="271" height="0.7"/>
				<path fill="#235B95" d="M150.5,69.7l16.8-4.5c1.5-0.4,3.1,0.5,3.5,2l4.5,16.8c0.4,1.5-0.5,3.1-2,3.5l-16.8,4.5
					c-1.5,0.4-3.1-0.5-3.5-2l-4.5-16.8C148,71.7,148.9,70.1,150.5,69.7z"/>
				<g>
					<defs>

							<rect id="SVGID_00000000186865655404367020000016223481779441582488_" x="153.4" y="70.2" transform="matrix(0.9659 -0.2588 0.2588 0.9659 -14.8427 44.566)" width="16.8" height="16.8"/>
					</defs>
					<clipPath id="SVGID_00000042733423797122625340000001802803735866839431_">
						<use xlink:href="#SVGID_00000000186865655404367020000016223481779441582488_"  overflow="visible"/>
					</clipPath>
					<g clip-path="url(#SVGID_00000042733423797122625340000001802803735866839431_)">
						<path fill="#FFFFFF" d="M163.6,86.4c-0.5-0.2-0.9-0.4-1.3-0.6c-0.5-0.2-0.9-0.5-1.4-0.8c-0.6-0.3-1.1-0.7-1.6-1.1
							c-1.3-1-2.5-2.2-3.6-3.4c-0.6-0.8-1.2-1.5-1.6-2.4c-0.5-0.9-1-1.9-1.4-2.9c-0.1-0.2-0.1-0.5,0.1-0.7c0.7-0.6,1.4-1.1,2.1-1.5
							c0.7-0.4,1.4-0.8,2.1-1.1c0.8-0.4,1.7-0.7,2.6-1l0.5-0.1c0.9-0.2,1.8-0.4,2.7-0.5c0.8-0.1,1.6-0.1,2.4-0.1
							c0.9,0,1.7,0.1,2.6,0.2c0.3,0.1,0.4,0.3,0.4,0.5c0.2,1,0.2,2.1,0.2,3.2c0,1-0.1,1.9-0.2,2.9c-0.3,1.6-0.7,3.2-1.4,4.8
							c-0.3,0.6-0.5,1.2-0.9,1.8c-0.3,0.5-0.5,0.9-0.8,1.3c-0.3,0.4-0.5,0.8-0.9,1.2c-0.1,0.1-0.2,0.1-0.3,0.2
							C163.8,86.4,163.7,86.4,163.6,86.4L163.6,86.4z M161.2,76.3c0,0-0.9,1.6-1.5,2.8c-0.2,0.4-0.4,0.8-0.5,1
							c-0.2,0.4-0.3,0.9-0.3,1.5c0,0.3,0.1,0.5,0.3,0.7c0.2,0.3,0.4,0.5,0.7,0.7c0.7,0.6,1.5,1.1,2.4,1.5c0.3,0.2,0.7,0.3,1,0.5
							c0.1,0,0.2,0,0.3,0c0.1,0,0.2-0.1,0.2-0.1c0.2-0.3,0.5-0.6,0.7-0.9c0.5-0.8,0.9-1.6,1.3-2.5c0.1-0.3,0.2-0.6,0.2-0.9
							c0-0.3,0-0.5-0.1-0.8c-0.2-0.5-0.5-0.9-1-1.1l-0.8-0.5l-0.1-0.1C162.8,77.2,161.3,76.3,161.2,76.3
							C161.2,76.2,161.2,76.2,161.2,76.3C161.2,76.2,161.2,76.2,161.2,76.3C161.2,76.2,161.2,76.2,161.2,76.3
							C161.2,76.2,161.2,76.2,161.2,76.3L161.2,76.3z M160.4,73.2C160.4,73.2,160.4,73.2,160.4,73.2c0.1,0.1,0.4,0.4,0.9,0.9
							c1.2,1.1,3.2,3.1,3.7,3.5c0.4,0.3,0.8,0.5,1.1,0.4c0.3-0.1,0.7-0.4,0.8-1.6c0.1-1.3,0.1-2.5-0.1-3.8c0-0.2-0.1-0.4-0.3-0.4
							c-0.7-0.1-1.4-0.2-2-0.2c-0.6,0-1.3,0-1.9,0.1c-0.7,0.1-1.5,0.2-2.2,0.4l-0.4,0.1c-0.7,0.2-1.4,0.4-2.1,0.8
							c-0.6,0.3-1.1,0.6-1.7,0.9c-0.6,0.4-1.1,0.8-1.7,1.2c-0.2,0.2-0.1,0.4-0.1,0.5c0.5,1.2,1,2.3,1.8,3.3c0.4,0.5,0.9,1.1,1.5,1
							c0.3-0.1,0.6-0.4,0.8-0.9c0.2-0.7,1-3.3,1.5-4.9l0,0C160.2,73.8,160.3,73.3,160.4,73.2C160.4,73.2,160.4,73.2,160.4,73.2
							C160.4,73.2,160.4,73.2,160.4,73.2C160.4,73.2,160.4,73.2,160.4,73.2z M159.8,80.4l0.6-1.1l3-0.8l1.1,0.7L159.8,80.4z
							 M160.8,78.4l0.6-1.1l1.1,0.7L160.8,78.4z"/>
					</g>
				</g>
				<path fill="none" stroke="#7E8A9C" stroke-width="1.4453" stroke-linecap="round" stroke-linejoin="round" d="M191.6,75.2
					l12.6-3.4"/>
				<path fill="none" stroke="#7E8A9C" stroke-width="1.4453" stroke-linecap="round" stroke-linejoin="round" d="M190.6,71.4
					l12.6-3.4"/>
				<path fill="none" stroke="#7E8A9C" stroke-width="1.4453" stroke-linecap="round" stroke-linejoin="round" d="M189.5,67.5
					l12.6-3.4"/>
				<g>
					<defs>

							<rect id="SVGID_00000039823114035393672190000017785987417858286471_" x="264.7" y="34.9" transform="matrix(0.9659 -0.2588 0.2588 0.9659 -0.7804 78.3554)" width="65" height="14.5"/>
					</defs>
					<clipPath id="SVGID_00000160155485899296315030000000988068443305657501_">
						<use xlink:href="#SVGID_00000039823114035393672190000017785987417858286471_"  overflow="visible"/>
					</clipPath>
					<g clip-path="url(#SVGID_00000160155485899296315030000000988068443305657501_)">
						<path fill="none" stroke="#7E8A9C" stroke-width="1.4453" stroke-linecap="round" stroke-linejoin="round" d="M275.2,48.2
							c-1.1-2.2-3.6-3.3-5.8-2.4c-2.2,0.9-3.3,3.5-2.5,5.8c0.8,2.4,3.2,3.7,5.5,3.1l5.5-1.5c1.1-0.3,1.9-1.3,2.1-2.5
							c0.1-1.2-0.5-2.4-1.5-2.9C277.3,47.3,276.1,47.5,275.2,48.2z M275.2,48.2c0.2,0.5,0.3,1.1,0.2,2"/>
						<path fill="#289548" d="M278.4,42c-0.3-1.2-1.5-1.8-2.7-1.5c-1.1,0.3-1.8,1.5-1.5,2.7c0.3,1.2,1.5,1.8,2.7,1.5
							C278,44.3,278.8,43.1,278.4,42C278.5,42,278.4,42,278.4,42z"/>

							<rect x="290.9" y="36.5" transform="matrix(0.9659 -0.2588 0.2588 0.9659 -1.394 76.874)" fill="#3C4249" width="0.7" height="14.5"/>
						<g>
							<defs>

									<rect id="SVGID_00000080191677542669243510000015213168648608589246_" x="302.5" y="31.5" transform="matrix(0.9659 -0.2588 0.2588 0.9659 0.5192 81.4928)" width="14.5" height="14.5"/>
							</defs>
							<clipPath id="SVGID_00000091731443427434310920000015911369079009225900_">
								<use xlink:href="#SVGID_00000080191677542669243510000015213168648608589246_"  overflow="visible"/>
							</clipPath>
							<g clip-path="url(#SVGID_00000091731443427434310920000015911369079009225900_)">
								<path fill="none" stroke="#7E8A9C" stroke-width="1.4453" stroke-linecap="round" stroke-linejoin="round" d="M310.1,44.5
									c0.4,0.6,1.1,0.8,1.7,0.4c0.3-0.2,0.6-0.6,0.6-1"/>
								<path fill="none" stroke="#7E8A9C" stroke-width="1.4453" stroke-linecap="round" stroke-linejoin="round" d="M308.4,33.7
									l-0.3-1.3"/>
								<path fill="none" stroke="#7E8A9C" stroke-width="1.4453" stroke-linecap="round" stroke-linejoin="round" d="M308.4,33.7
									c2.3-0.6,4.7,0.8,5.3,3.1c1,3.9,2.1,4.4,2.1,4.4l-10.1,2.7c0,0,0.6-1.3-0.4-4.8C304.7,36.8,306.1,34.4,308.4,33.7z"/>
							</g>
						</g>

							<rect x="327.9" y="26.6" transform="matrix(0.9659 -0.2588 0.2588 0.9659 2.4323 86.1115)" fill="#3C4249" width="0.7" height="14.5"/>
					</g>
				</g>
				<g>
					<defs>

							<rect id="SVGID_00000147902593958939295880000014053976447309240202_" x="345" y="14.7" transform="matrix(0.9659 -0.2588 0.2588 0.9659 5.3562 93.1704)" width="23.1" height="23.1"/>
					</defs>
					<clipPath id="SVGID_00000124850091999981180740000006951741050254213534_">
						<use xlink:href="#SVGID_00000147902593958939295880000014053976447309240202_"  overflow="visible"/>
					</clipPath>
					<g clip-path="url(#SVGID_00000124850091999981180740000006951741050254213534_)">
						<g>
							<defs>

									<rect id="SVGID_00000085953226049643491560000015148134002459828363_" x="345" y="14.7" transform="matrix(0.9659 -0.2588 0.2588 0.9659 5.3547 93.1667)" width="23.1" height="23.1"/>
							</defs>
							<clipPath id="SVGID_00000016050374419816852710000017801553179549308552_">
								<use xlink:href="#SVGID_00000085953226049643491560000015148134002459828363_"  overflow="visible"/>
							</clipPath>
							<g clip-path="url(#SVGID_00000016050374419816852710000017801553179549308552_)">
								<circle fill="#3170D1" cx="356.5" cy="26.2" r="11.5"/>
								<g>
									<defs>

											<rect id="SVGID_00000052087898784405850250000015018097234049950104_" x="345" y="14.7" transform="matrix(0.9659 -0.2588 0.2588 0.9659 5.358 93.1652)" width="23.1" height="23.1"/>
									</defs>
									<clipPath id="SVGID_00000110428929252389621100000010706593233799477378_">
										<use xlink:href="#SVGID_00000052087898784405850250000015018097234049950104_"  overflow="visible"/>
									</clipPath>
									<g clip-path="url(#SVGID_00000110428929252389621100000010706593233799477378_)">
										<g>
											<defs>

													<rect id="SVGID_00000163063699305912132210000016767175839911160751_" x="345" y="14.7" transform="matrix(0.9659 -0.2588 0.2588 0.9659 5.3581 93.1652)" width="23.1" height="23.1"/>
											</defs>
											<clipPath id="SVGID_00000165920810781809923230000011664262936085107097_">
												<use xlink:href="#SVGID_00000163063699305912132210000016767175839911160751_"  overflow="visible"/>
											</clipPath>
											<g clip-path="url(#SVGID_00000165920810781809923230000011664262936085107097_)">
												<circle fill="#3E9DFF" cx="356.5" cy="26.2" r="11.5"/>
												<defs>
													<filter id="Adobe_OpacityMaskFilter" filterUnits="userSpaceOnUse" x="335.3" y="4.2" width="33.8" height="36.2">
														<feColorMatrix  type="matrix" values="1 0 0 0 0  0 1 0 0 0  0 0 1 0 0  0 0 0 1 0"/>
													</filter>
												</defs>

													<mask maskUnits="userSpaceOnUse" x="335.3" y="4.2" width="33.8" height="36.2" id="mask0_2320_33847_00000000908854379277290580000004083458165133622183_">
													<circle filter="url(#Adobe_OpacityMaskFilter)" cx="356.5" cy="26.2" r="11.5"/>
												</mask>
												<g mask="url(#mask0_2320_33847_00000000908854379277290580000004083458165133622183_)">
													<circle fill="#3170D1" cx="357.3" cy="16" r="11.8"/>

														<ellipse transform="matrix(0.9659 -0.2588 0.2588 0.9659 4.3882 90.8237)" fill="#0B4DC7" cx="347.1" cy="28.7" rx="11.8" ry="11.5"/>
												</g>
											</g>
										</g>
									</g>
								</g>
								<path fill="#FFFFFF" d="M357.1,25.7c0.1,0.5,0.2,1,0.1,1.4c-0.1,0.4-0.3,0.8-0.6,1.1c-0.3,0.3-0.6,0.5-1.1,0.6
									c-0.4,0.1-0.8,0.1-1.2,0c-0.4-0.1-0.7-0.3-1-0.6c-0.3-0.3-0.5-0.7-0.6-1.3c-0.1-0.5-0.2-1-0.1-1.4c0.1-0.4,0.3-0.8,0.6-1.1
									c0.3-0.3,0.6-0.5,1.1-0.6c0.4-0.1,0.8-0.1,1.2,0c0.4,0.1,0.7,0.3,1,0.6C356.8,24.7,357,25.2,357.1,25.7z M356.3,25.9
									c-0.1-0.4-0.2-0.7-0.4-0.9c-0.2-0.2-0.4-0.4-0.6-0.4c-0.2-0.1-0.5-0.1-0.8,0c-0.3,0.1-0.5,0.2-0.6,0.4
									c-0.2,0.2-0.3,0.4-0.3,0.7c0,0.3,0,0.6,0.1,1c0.1,0.4,0.2,0.7,0.4,0.9c0.2,0.2,0.4,0.4,0.6,0.4c0.2,0.1,0.5,0.1,0.7,0
									c0.3-0.1,0.5-0.2,0.6-0.4c0.2-0.2,0.3-0.4,0.3-0.7C356.4,26.6,356.4,26.3,356.3,25.9z M358.1,22.8l1.3,4.8l-0.9,0.2
									l-1.3-4.8L358.1,22.8z"/>
							</g>
						</g>
					</g>
				</g>
			</g>
		</g>
	</g>
</g>
<path fill="#566270" d="M267,248.5L463,196c4.5-1.2,9.2,1.5,10.4,6l22.7,84.7c1.2,4.5-1.5,9.2-6,10.4l-196,52.5
	c-4.5,1.2-9.2-1.5-10.4-6L261,258.9C259.8,254.3,262.5,249.7,267,248.5z"/>
<path fill="#FEB933" d="M459.6,208.9l2.8,3.1l3.6-0.6c0.4,0,0.7,0.3,0.5,0.7l-2.1,3.6l2.1,3.6c0.2,0.3-0.1,0.8-0.5,0.7l-4-0.9
	l-3,2.7c-0.2,0.2-0.8,0.1-0.8-0.4l0-4.3l-3.7-1.9c-0.3-0.2-0.5-0.6,0.1-0.8l3.4-1.3l0.9-4.1C458.9,208.6,459.3,208.6,459.6,208.9z"
	/>
<g>
	<defs>

			<rect id="SVGID_00000047769926430591001190000017652250896626856837_" x="281.4" y="252.7" transform="matrix(0.9659 -0.2588 0.2588 0.9659 -59.3133 85.999)" width="31.1" height="31.1"/>
	</defs>
	<clipPath id="SVGID_00000062901922293832351510000016222971431941392554_">
		<use xlink:href="#SVGID_00000047769926430591001190000017652250896626856837_"  overflow="visible"/>
	</clipPath>
	<g clip-path="url(#SVGID_00000062901922293832351510000016222971431941392554_)">
		<g>
			<defs>

					<rect id="SVGID_00000035529184504035176280000006866293635075100561_" x="281.4" y="252.7" transform="matrix(0.9659 -0.2588 0.2588 0.9659 -59.3135 85.9977)" width="31.1" height="31.1"/>
			</defs>
			<clipPath id="SVGID_00000158714450647329149380000001108649964192846976_">
				<use xlink:href="#SVGID_00000035529184504035176280000006866293635075100561_"  overflow="visible"/>
			</clipPath>
			<g clip-path="url(#SVGID_00000158714450647329149380000001108649964192846976_)">
				<ellipse fill="#599294" cx="297" cy="268.3" rx="15.6" ry="15.6"/>
				<g>
					<defs>

							<rect id="SVGID_00000119835959573508497890000002121666741103787449_" x="281.4" y="252.7" transform="matrix(0.9659 -0.2588 0.2588 0.9659 -59.3135 85.9971)" width="31.1" height="31.1"/>
					</defs>
					<clipPath id="SVGID_00000005265490705463357880000014715120345912314041_">
						<use xlink:href="#SVGID_00000119835959573508497890000002121666741103787449_"  overflow="visible"/>
					</clipPath>
					<g clip-path="url(#SVGID_00000005265490705463357880000014715120345912314041_)">
						<defs>

								<filter id="Adobe_OpacityMaskFilter_00000126306454761431815200000016478988021366217622_" filterUnits="userSpaceOnUse" x="280" y="260.3" width="57.9" height="49.6">
								<feColorMatrix  type="matrix" values="1 0 0 0 0  0 1 0 0 0  0 0 1 0 0  0 0 0 1 0"/>
							</filter>
						</defs>

							<mask maskUnits="userSpaceOnUse" x="280" y="260.3" width="57.9" height="49.6" id="mask1_2320_33847_00000123439016771686583350000013667481217892649633_">

								<ellipse filter="url(#Adobe_OpacityMaskFilter_00000126306454761431815200000016478988021366217622_)" cx="296.9" cy="268.3" rx="15.6" ry="15.6"/>
						</mask>
						<g mask="url(#mask1_2320_33847_00000123439016771686583350000013667481217892649633_)">

								<rect x="284.3" y="267.6" transform="matrix(0.9659 -0.2588 0.2588 0.9659 -63.8426 88.2648)" fill="#2C7A7D" width="38" height="38"/>

								<rect x="295.6" y="264.6" transform="matrix(0.9659 -0.2588 0.2588 0.9659 -62.6691 91.0991)" fill="#7EB6B8" width="38" height="38"/>
						</g>
					</g>
				</g>
			</g>
		</g>
	</g>
</g>
<path fill="#EEF3F5" d="M320.9,250.1l1-0.3l3.9,5.1l0.1,0l0.8-6.4l1-0.3l1.9,7l-0.8,0.2l-1.4-5.3l-0.1,0l-0.8,5.9l-0.8,0.2l-3.6-4.7
	l-0.1,0l1.4,5.3l-0.8,0.2L320.9,250.1z M332.1,256.7c-0.1,0-0.3,0.1-0.4,0.1c-0.1,0-0.2,0-0.2,0l0-0.8c0.2,0,0.4,0,0.5-0.1
	c0.1-0.1,0.3-0.2,0.3-0.3c0.1-0.1,0.1-0.4,0.2-0.7l0-0.4l-3.3-4.7l0.9-0.2l2.6,3.8l0.1,0l0.3-4.5l0.9-0.2l-0.6,6.6
	c0,0.3-0.1,0.6-0.2,0.8c-0.1,0.2-0.2,0.4-0.4,0.5C332.6,256.5,332.4,256.6,332.1,256.7z M340.3,252.4l-3-4.8l0.8-0.2l2.2,3.7l0.1,0
	l0-4.3l0.9-0.2l2.2,3.7l0.1,0l0.1-4.3l0.8-0.2l-0.2,5.6l-0.8,0.2l-2.2-3.7l-0.1,0l-0.1,4.3L340.3,252.4z M348.5,250.3
	c-0.3,0.1-0.6,0.1-0.9,0.1c-0.3-0.1-0.6-0.2-0.8-0.4c-0.2-0.2-0.4-0.5-0.5-0.8c-0.1-0.3-0.1-0.6,0-0.8c0.1-0.2,0.2-0.4,0.4-0.6
	c0.2-0.2,0.4-0.3,0.6-0.4c0.2-0.1,0.5-0.2,0.7-0.3c0.3-0.1,0.6-0.2,0.7-0.3c0.2-0.1,0.3-0.2,0.4-0.2c0.1-0.1,0.1-0.2,0.1-0.3l0,0
	c-0.1-0.3-0.3-0.6-0.5-0.7c-0.2-0.1-0.5-0.2-0.9-0.1c-0.4,0.1-0.7,0.3-0.8,0.5c-0.2,0.2-0.3,0.4-0.3,0.7l-0.8-0.1
	c0.1-0.4,0.2-0.6,0.3-0.9c0.2-0.2,0.4-0.4,0.6-0.6c0.3-0.1,0.5-0.3,0.8-0.3c0.2,0,0.4-0.1,0.6-0.1c0.2,0,0.5,0,0.7,0.1
	c0.2,0.1,0.5,0.2,0.7,0.4c0.2,0.2,0.4,0.5,0.5,0.9l0.9,3.4l-0.8,0.2l-0.2-0.7l0,0c0,0.1-0.1,0.3-0.2,0.4c-0.1,0.2-0.2,0.3-0.4,0.5
	C349,250.1,348.8,250.2,348.5,250.3z M348.4,249.6c0.3-0.1,0.6-0.2,0.8-0.4c0.2-0.2,0.3-0.4,0.4-0.6c0.1-0.2,0.1-0.4,0-0.7l-0.2-0.7
	c0,0.1-0.1,0.1-0.2,0.2c-0.1,0.1-0.2,0.1-0.4,0.2c-0.1,0.1-0.3,0.1-0.4,0.2c-0.1,0.1-0.2,0.1-0.3,0.1c-0.2,0.1-0.4,0.2-0.5,0.3
	c-0.2,0.1-0.3,0.2-0.4,0.4c-0.1,0.1-0.1,0.3,0,0.5c0.1,0.3,0.2,0.5,0.5,0.5C347.8,249.7,348.1,249.7,348.4,249.6z M351.2,242l1.9,7
	l-0.8,0.2l-1.9-7L351.2,242z M353.5,241.4l1.9,7l-0.8,0.2l-1.9-7L353.5,241.4z M359,247.5c-0.5,0.1-1,0.1-1.4,0
	c-0.4-0.1-0.8-0.4-1.1-0.7c-0.3-0.4-0.5-0.8-0.7-1.3c-0.1-0.5-0.2-1-0.1-1.5c0.1-0.5,0.3-0.9,0.6-1.2c0.3-0.3,0.7-0.6,1.1-0.7
	c0.3-0.1,0.6-0.1,0.8-0.1c0.3,0,0.6,0.1,0.8,0.2c0.3,0.1,0.5,0.4,0.7,0.7c0.2,0.3,0.4,0.7,0.5,1.2l0.1,0.3l-4,1.1l-0.2-0.7l3.2-0.9
	c-0.1-0.3-0.2-0.5-0.4-0.7c-0.2-0.2-0.4-0.3-0.6-0.4c-0.2-0.1-0.5-0.1-0.8,0c-0.3,0.1-0.6,0.2-0.8,0.5c-0.2,0.2-0.3,0.5-0.4,0.8
	c-0.1,0.3,0,0.6,0,0.9l0.1,0.5c0.1,0.4,0.3,0.7,0.5,0.9c0.2,0.2,0.5,0.4,0.7,0.5c0.3,0.1,0.6,0.1,0.9,0c0.2-0.1,0.4-0.1,0.5-0.2
	c0.2-0.1,0.3-0.2,0.4-0.4c0.1-0.2,0.1-0.3,0.2-0.5l0.8,0c0,0.3-0.1,0.6-0.2,0.8c-0.1,0.2-0.3,0.5-0.6,0.7
	C359.7,247.2,359.4,247.4,359,247.5z M363.2,240.6l0.2,0.7l-2.7,0.7l-0.2-0.7L363.2,240.6z M361,239.9l0.8-0.2l1.3,5
	c0.1,0.2,0.1,0.4,0.2,0.5c0.1,0.1,0.2,0.1,0.3,0.2c0.1,0,0.2,0,0.4,0c0.1,0,0.2,0,0.2-0.1c0.1,0,0.1,0,0.1-0.1l0.4,0.7
	c0,0-0.1,0.1-0.2,0.1c-0.1,0-0.2,0.1-0.4,0.1c-0.2,0.1-0.5,0.1-0.7,0c-0.2,0-0.5-0.1-0.7-0.3c-0.2-0.2-0.3-0.4-0.4-0.7L361,239.9z
	 M371.1,244.1l-0.7-7.3l0.7-0.2l0.7,7.3L371.1,244.1z M367.4,243l-0.1-0.7l5.2-1.4l0.1,0.7L367.4,243z M368.7,244.8l-0.7-7.3
	l0.7-0.2l0.7,7.3L368.7,244.8z M367.2,240.5l-0.1-0.7l5.2-1.4l0.1,0.7L367.2,240.5z M375.1,235.6l1.9,7l-0.8,0.2l-1.6-6.1l0,0
	l-1.4,1.6l-0.2-0.9l1.4-1.6L375.1,235.6z"/>
<path fill="#C4C8CF" d="M326.9,272.2l-0.8,0.2l0.6-6.5l0.7-0.2l3.8,5.4l-0.8,0.2l-3.1-4.5l0,0L326.9,272.2z M326.5,269.8l3-0.8
	l0.2,0.6l-3,0.8L326.5,269.8z M334.9,265.7c-0.1-0.2-0.2-0.3-0.4-0.5c-0.1-0.1-0.3-0.2-0.5-0.3c-0.2-0.1-0.4-0.1-0.6-0.1
	c-0.2,0-0.4,0-0.6,0.1c-0.4,0.1-0.7,0.3-0.9,0.5c-0.2,0.3-0.4,0.6-0.5,1c-0.1,0.4,0,0.9,0.1,1.4c0.1,0.5,0.3,0.9,0.6,1.2
	c0.3,0.3,0.6,0.5,0.9,0.6c0.3,0.1,0.7,0.1,1.1,0c0.3-0.1,0.6-0.2,0.8-0.5c0.2-0.2,0.4-0.5,0.4-0.8c0.1-0.3,0.1-0.6,0-1l0.2,0
	l-1.8,0.5l-0.2-0.6l2.3-0.6l0.2,0.6c0.1,0.5,0.1,0.9,0,1.4c-0.1,0.4-0.3,0.8-0.6,1.1c-0.3,0.3-0.7,0.5-1.2,0.6c-0.5,0.1-1,0.1-1.5,0
	c-0.5-0.1-0.9-0.4-1.2-0.8c-0.3-0.4-0.6-0.9-0.8-1.5c-0.1-0.5-0.2-0.9-0.2-1.3c0-0.4,0.1-0.8,0.3-1.1c0.2-0.3,0.4-0.6,0.7-0.8
	c0.3-0.2,0.6-0.4,1-0.5c0.3-0.1,0.6-0.1,0.9-0.1c0.3,0,0.6,0.1,0.8,0.2c0.3,0.1,0.5,0.3,0.7,0.5c0.2,0.2,0.4,0.4,0.5,0.7
	L334.9,265.7z M336,264.1l-0.2-0.6l4.5-1.2l0.2,0.6l-1.9,0.5l1.4,5.3l-0.7,0.2l-1.4-5.3L336,264.1z M344.8,267.5
	c-0.4,0.1-0.8,0.1-1.1,0.1c-0.3-0.1-0.6-0.2-0.9-0.4c-0.2-0.2-0.4-0.5-0.5-0.8c-0.1-0.3-0.1-0.5,0-0.7c0-0.2,0.1-0.5,0.3-0.6
	c0.1-0.2,0.3-0.3,0.5-0.4l0,0c-0.3,0-0.6-0.1-0.8-0.3c-0.2-0.2-0.4-0.5-0.5-0.8c-0.1-0.3-0.1-0.6,0-0.9c0.1-0.3,0.3-0.5,0.5-0.7
	c0.2-0.2,0.5-0.4,0.9-0.5c0.3-0.1,0.7-0.1,1,0c0.3,0.1,0.6,0.2,0.8,0.4c0.2,0.2,0.4,0.4,0.5,0.7c0.1,0.3,0.1,0.6,0,0.9
	c-0.1,0.3-0.3,0.5-0.5,0.7l0,0c0.2,0,0.4,0,0.7,0.1c0.2,0.1,0.4,0.2,0.6,0.4c0.2,0.2,0.3,0.4,0.3,0.7c0.1,0.3,0.1,0.6,0,0.9
	c-0.1,0.3-0.3,0.6-0.6,0.8C345.6,267.2,345.2,267.4,344.8,267.5z M344.7,266.8c0.3-0.1,0.5-0.2,0.7-0.3c0.2-0.1,0.3-0.3,0.4-0.5
	c0.1-0.2,0.1-0.4,0-0.6c-0.1-0.2-0.2-0.4-0.3-0.6c-0.2-0.1-0.4-0.2-0.6-0.3c-0.2,0-0.5,0-0.7,0c-0.3,0.1-0.5,0.2-0.6,0.3
	c-0.2,0.2-0.3,0.3-0.4,0.5c-0.1,0.2-0.1,0.4,0,0.6c0.1,0.2,0.2,0.4,0.3,0.5c0.1,0.1,0.3,0.2,0.6,0.2
	C344.1,266.9,344.4,266.9,344.7,266.8z M343.9,264c0.2-0.1,0.4-0.1,0.5-0.3c0.1-0.1,0.2-0.3,0.3-0.5c0.1-0.2,0.1-0.4,0-0.6
	c-0.1-0.2-0.2-0.4-0.3-0.5c-0.1-0.1-0.3-0.2-0.5-0.2c-0.2,0-0.4,0-0.6,0c-0.2,0.1-0.4,0.2-0.6,0.3c-0.1,0.1-0.2,0.3-0.3,0.5
	c-0.1,0.2,0,0.4,0,0.6c0.1,0.2,0.1,0.4,0.3,0.5c0.1,0.1,0.3,0.2,0.5,0.3C343.5,264.1,343.7,264.1,343.9,264z M350.3,264l-0.7-2.6
	l0.7-0.2l1.2,4.5l-0.7,0.2l-0.2-0.8l0,0c0,0.3-0.2,0.5-0.3,0.7c-0.2,0.2-0.4,0.4-0.8,0.5c-0.3,0.1-0.5,0.1-0.8,0
	c-0.3-0.1-0.5-0.2-0.7-0.4c-0.2-0.2-0.3-0.5-0.4-0.9l-0.8-2.8l0.7-0.2l0.7,2.8c0.1,0.3,0.2,0.6,0.5,0.7c0.2,0.1,0.5,0.2,0.8,0.1
	c0.2,0,0.3-0.1,0.5-0.3c0.2-0.1,0.3-0.3,0.3-0.5C350.4,264.5,350.4,264.2,350.3,264z M356.5,259.9l-0.7,0.2
	c-0.1-0.2-0.2-0.4-0.4-0.5c-0.1-0.1-0.3-0.2-0.5-0.3c-0.2-0.1-0.4-0.1-0.6-0.1c-0.2,0-0.4,0-0.6,0.1c-0.4,0.1-0.7,0.3-0.9,0.5
	c-0.2,0.3-0.4,0.6-0.5,1c-0.1,0.4,0,0.9,0.1,1.4c0.1,0.5,0.3,0.9,0.6,1.2c0.3,0.3,0.6,0.5,0.9,0.6c0.3,0.1,0.7,0.1,1.1,0
	c0.2-0.1,0.4-0.1,0.5-0.2s0.3-0.2,0.4-0.4c0.1-0.1,0.2-0.3,0.3-0.5c0.1-0.2,0.1-0.4,0.1-0.6l0.7-0.2c0,0.3,0,0.6-0.1,0.9
	c-0.1,0.3-0.2,0.5-0.4,0.8c-0.2,0.2-0.4,0.4-0.6,0.6c-0.2,0.2-0.5,0.3-0.8,0.4c-0.5,0.1-1,0.1-1.5,0c-0.5-0.1-0.9-0.4-1.2-0.8
	s-0.6-0.9-0.8-1.5c-0.2-0.6-0.2-1.2-0.1-1.7c0.1-0.5,0.3-1,0.7-1.3c0.3-0.4,0.7-0.6,1.3-0.7c0.3-0.1,0.6-0.1,0.9-0.1
	c0.3,0,0.6,0.1,0.8,0.2c0.3,0.1,0.5,0.3,0.7,0.5C356.2,259.3,356.4,259.6,356.5,259.9z M362.2,264.5l-0.6-2.4l-0.1,0
	c0,0.1-0.1,0.2-0.1,0.4c-0.1,0.1-0.2,0.3-0.3,0.4c-0.1,0.1-0.4,0.3-0.7,0.3c-0.4,0.1-0.7,0.1-1.1,0c-0.3-0.1-0.6-0.3-0.9-0.6
	c-0.3-0.3-0.4-0.7-0.6-1.2c-0.1-0.5-0.2-0.9-0.1-1.3c0.1-0.4,0.2-0.7,0.5-1c0.2-0.3,0.5-0.4,0.9-0.5c0.3-0.1,0.5-0.1,0.7,0
	c0.2,0,0.4,0.1,0.5,0.2c0.1,0.1,0.2,0.2,0.3,0.2l0.1,0l-0.2-0.7l0.7-0.2l1.6,6.1L362.2,264.5z M360.3,262.7c0.3-0.1,0.5-0.2,0.6-0.4
	c0.2-0.2,0.2-0.4,0.3-0.7c0-0.3,0-0.6-0.1-0.9c-0.1-0.3-0.2-0.6-0.4-0.8c-0.2-0.2-0.4-0.4-0.6-0.5c-0.2-0.1-0.5-0.1-0.8,0
	c-0.3,0.1-0.5,0.2-0.7,0.4c-0.2,0.2-0.2,0.4-0.3,0.7c0,0.3,0,0.6,0.1,0.9c0.1,0.3,0.2,0.6,0.4,0.8c0.2,0.2,0.4,0.4,0.6,0.5
	C359.8,262.7,360,262.8,360.3,262.7z M363.6,259.5l0.7,2.7l-0.7,0.2l-1.6-6l0.7-0.2l0.6,2.2l0.1,0c0-0.3,0.2-0.5,0.3-0.7
	c0.2-0.2,0.4-0.3,0.8-0.4c0.3-0.1,0.6-0.1,0.8,0c0.3,0.1,0.5,0.2,0.7,0.4c0.2,0.2,0.3,0.5,0.4,0.9l0.8,2.8l-0.7,0.2l-0.7-2.8
	c-0.1-0.4-0.3-0.6-0.5-0.7c-0.2-0.1-0.5-0.2-0.8-0.1c-0.2,0.1-0.4,0.2-0.6,0.3c-0.2,0.1-0.3,0.3-0.3,0.5
	C363.6,259,363.6,259.2,363.6,259.5z M369,262.7l-1.6-6.1l0.7-0.2l0.2,0.7l0.1,0c0-0.1,0.1-0.2,0.1-0.4c0.1-0.1,0.2-0.3,0.3-0.4
	c0.1-0.1,0.4-0.3,0.7-0.3c0.4-0.1,0.7-0.1,1.1,0c0.3,0.1,0.6,0.3,0.9,0.6c0.3,0.3,0.4,0.7,0.6,1.2c0.1,0.5,0.2,0.9,0.1,1.3
	c-0.1,0.4-0.2,0.7-0.5,1c-0.2,0.3-0.5,0.4-0.9,0.5c-0.3,0.1-0.5,0.1-0.7,0c-0.2-0.1-0.4-0.1-0.5-0.2c-0.1-0.1-0.2-0.2-0.3-0.3
	l-0.1,0l0.6,2.4L369,262.7z M368.6,258.6c0.1,0.3,0.2,0.6,0.4,0.9c0.2,0.2,0.4,0.4,0.6,0.5c0.2,0.1,0.5,0.1,0.8,0
	c0.3-0.1,0.5-0.2,0.7-0.4c0.2-0.2,0.2-0.4,0.3-0.7c0-0.3,0-0.6-0.1-0.9c-0.1-0.3-0.2-0.6-0.4-0.8c-0.2-0.2-0.4-0.4-0.6-0.5
	c-0.2-0.1-0.5-0.1-0.8,0c-0.3,0.1-0.5,0.2-0.6,0.4c-0.2,0.2-0.2,0.4-0.3,0.7C368.5,258,368.5,258.3,368.6,258.6z M374,259.6
	c-0.1,0-0.3,0-0.4-0.1c-0.1-0.1-0.2-0.2-0.3-0.3c0-0.1,0-0.3,0.1-0.4c0.1-0.1,0.2-0.2,0.3-0.3c0.1,0,0.3,0,0.4,0.1
	c0.1,0.1,0.2,0.2,0.3,0.3c0,0.1,0,0.2,0,0.3c0,0.1-0.1,0.2-0.1,0.2C374.2,259.5,374.1,259.6,374,259.6z M376.3,259
	c-0.1,0-0.3,0-0.4-0.1c-0.1-0.1-0.2-0.2-0.3-0.3c0-0.1,0-0.3,0.1-0.4c0.1-0.1,0.2-0.2,0.3-0.3c0.1,0,0.3,0,0.4,0.1
	c0.1,0.1,0.2,0.2,0.3,0.3c0,0.1,0,0.2,0,0.3c0,0.1-0.1,0.2-0.1,0.2C376.5,258.9,376.4,259,376.3,259z M378.5,258.4
	c-0.1,0-0.3,0-0.4-0.1c-0.1-0.1-0.2-0.2-0.3-0.3c0-0.1,0-0.3,0.1-0.4c0.1-0.1,0.2-0.2,0.3-0.3c0.1,0,0.3,0,0.4,0.1
	c0.1,0.1,0.2,0.2,0.3,0.3c0,0.1,0,0.2,0,0.3c0,0.1-0.1,0.2-0.1,0.2C378.7,258.3,378.6,258.4,378.5,258.4z M378,252.1l0.8-0.2
	l2.4,2.3l0.1,0l0.9-3.2l0.8-0.2l-1.2,4.1l0.7,2.5l-0.7,0.2l-0.7-2.5L378,252.1z M387.4,256.1c-0.4,0.1-0.8,0.1-1.1,0.1
	c-0.3-0.1-0.6-0.2-0.9-0.4c-0.2-0.2-0.4-0.5-0.5-0.8c-0.1-0.3-0.1-0.5,0-0.7c0-0.2,0.1-0.5,0.3-0.6c0.1-0.2,0.3-0.3,0.5-0.4l0,0
	c-0.3,0-0.6-0.1-0.8-0.3c-0.2-0.2-0.4-0.5-0.5-0.8c-0.1-0.3-0.1-0.6,0-0.9c0.1-0.3,0.3-0.5,0.5-0.7c0.2-0.2,0.5-0.4,0.9-0.5
	c0.3-0.1,0.7-0.1,1,0c0.3,0.1,0.6,0.2,0.8,0.4c0.2,0.2,0.4,0.4,0.5,0.7c0.1,0.3,0.1,0.6,0,0.9c-0.1,0.3-0.3,0.5-0.5,0.7l0,0
	c0.2,0,0.4,0,0.7,0.1c0.2,0.1,0.4,0.2,0.6,0.4c0.2,0.2,0.3,0.4,0.3,0.7c0.1,0.3,0.1,0.6,0,0.9c-0.1,0.3-0.3,0.6-0.6,0.8
	C388.1,255.8,387.8,256,387.4,256.1z M387.2,255.4c0.3-0.1,0.5-0.2,0.7-0.3c0.2-0.1,0.3-0.3,0.4-0.5c0.1-0.2,0.1-0.4,0-0.6
	c-0.1-0.2-0.2-0.4-0.3-0.5c-0.2-0.1-0.4-0.2-0.6-0.3c-0.2,0-0.5,0-0.7,0c-0.3,0.1-0.5,0.2-0.6,0.3c-0.2,0.2-0.3,0.3-0.4,0.5
	c-0.1,0.2-0.1,0.4,0,0.6c0.1,0.2,0.2,0.4,0.3,0.5c0.1,0.1,0.3,0.2,0.6,0.2C386.7,255.5,386.9,255.5,387.2,255.4z M386.4,252.6
	c0.2-0.1,0.4-0.2,0.5-0.3c0.1-0.1,0.2-0.3,0.3-0.5c0.1-0.2,0.1-0.4,0-0.6c-0.1-0.2-0.2-0.4-0.3-0.5c-0.1-0.1-0.3-0.2-0.5-0.2
	c-0.2,0-0.4,0-0.6,0c-0.2,0.1-0.4,0.2-0.6,0.3c-0.1,0.1-0.2,0.3-0.3,0.5c-0.1,0.2,0,0.4,0,0.6c0.1,0.2,0.1,0.4,0.3,0.5
	c0.1,0.1,0.3,0.2,0.5,0.3S386.2,252.7,386.4,252.6z M390.5,252.3l0.7,2.7l-0.7,0.2l-1.2-4.5l0.7-0.2l0.2,0.7l0.1,0
	c0-0.3,0.2-0.5,0.3-0.7c0.2-0.2,0.4-0.3,0.8-0.4c0.3-0.1,0.6-0.1,0.8,0c0.3,0.1,0.5,0.2,0.7,0.4c0.2,0.2,0.3,0.5,0.4,0.9l0.8,2.8
	l-0.7,0.2l-0.7-2.8c-0.1-0.4-0.3-0.6-0.5-0.7c-0.2-0.1-0.5-0.2-0.8-0.1c-0.2,0.1-0.4,0.2-0.5,0.3c-0.1,0.1-0.2,0.3-0.3,0.5
	S390.4,252,390.5,252.3z M396.1,248.9l0.2,0.6l-2.4,0.6l-0.2-0.6L396.1,248.9z M395.6,253.8l-1.4-5.1c-0.1-0.3-0.1-0.5,0-0.7
	c0.1-0.2,0.2-0.4,0.4-0.5c0.2-0.1,0.4-0.2,0.6-0.3c0.2,0,0.3-0.1,0.4-0.1c0.1,0,0.2,0,0.3,0l0,0.6c0,0-0.1,0-0.2,0
	c-0.1,0-0.1,0-0.2,0c-0.2,0.1-0.4,0.2-0.4,0.3c-0.1,0.1-0.1,0.3,0,0.5l1.3,4.9L395.6,253.8z M397,248.6l0.7-0.2l1.3,4.8
	c0.1,0.3,0.1,0.5,0,0.8c0,0.2-0.1,0.4-0.3,0.6c-0.2,0.2-0.4,0.3-0.7,0.4c0,0,0,0-0.1,0c0,0,0,0-0.1,0l-0.2-0.6c0,0,0,0,0.1,0
	c0,0,0,0,0.1,0c0.2-0.1,0.3-0.2,0.4-0.3c0.1-0.1,0.1-0.3,0-0.6L397,248.6z M397.2,247.8c-0.1,0-0.3,0-0.4,0
	c-0.1-0.1-0.2-0.2-0.2-0.3c0-0.1,0-0.2,0.1-0.4c0.1-0.1,0.2-0.2,0.3-0.2c0.1,0,0.3,0,0.4,0c0.1,0.1,0.2,0.2,0.2,0.3
	c0,0.1,0,0.3-0.1,0.4C397.4,247.7,397.3,247.7,397.2,247.8z M398.2,246.7l0.8-0.2l2.4,2.3l0.1,0l0.9-3.2l0.8-0.2l-1.2,4.1l0.7,2.5
	l-0.7,0.2l-0.7-2.5L398.2,246.7z M406.8,250.8l-3.2-5.5l0.7-0.2l2.5,4.5l0.1,0l0-5.2l0.8-0.2l2.6,4.5l0.1,0l-0.1-5.2l0.7-0.2l0,6.4
	l-0.7,0.2l-2.6-4.4l0,0l0,5.1L406.8,250.8z M416.5,250l-0.6-2.4l-0.1,0c0,0.1-0.1,0.2-0.1,0.4c-0.1,0.1-0.2,0.3-0.3,0.4
	c-0.1,0.1-0.4,0.3-0.7,0.3c-0.4,0.1-0.7,0.1-1.1,0c-0.3-0.1-0.6-0.3-0.9-0.6c-0.3-0.3-0.4-0.7-0.6-1.2c-0.1-0.5-0.2-0.9-0.1-1.3
	c0.1-0.4,0.2-0.7,0.5-1c0.2-0.3,0.5-0.4,0.9-0.5c0.3-0.1,0.5-0.1,0.7,0c0.2,0,0.4,0.1,0.5,0.2c0.1,0.1,0.2,0.2,0.3,0.2l0.1,0
	l-0.2-0.7l0.7-0.2l1.6,6.1L416.5,250z M414.6,248.1c0.3-0.1,0.5-0.2,0.6-0.4c0.2-0.2,0.2-0.4,0.3-0.7c0-0.3,0-0.6-0.1-0.9
	c-0.1-0.3-0.2-0.6-0.4-0.8c-0.2-0.2-0.4-0.4-0.6-0.5c-0.2-0.1-0.5-0.1-0.8,0c-0.3,0.1-0.5,0.2-0.7,0.4c-0.2,0.2-0.2,0.4-0.3,0.7
	c0,0.3,0,0.6,0.1,0.9c0.1,0.3,0.2,0.6,0.4,0.8c0.2,0.2,0.4,0.4,0.6,0.5C414.1,248.2,414.4,248.2,414.6,248.1z M419.9,247.4
	c-0.4,0.1-0.8,0.1-1.1,0.1c-0.3-0.1-0.6-0.2-0.9-0.4c-0.2-0.2-0.4-0.5-0.5-0.8c-0.1-0.3-0.1-0.5,0-0.7c0-0.2,0.1-0.5,0.3-0.6
	c0.1-0.2,0.3-0.3,0.5-0.4l0,0c-0.3,0-0.6-0.1-0.8-0.3c-0.2-0.2-0.4-0.5-0.5-0.8c-0.1-0.3-0.1-0.6,0-0.9s0.3-0.5,0.5-0.7
	c0.2-0.2,0.5-0.4,0.9-0.5c0.3-0.1,0.7-0.1,1,0c0.3,0.1,0.6,0.2,0.8,0.4c0.2,0.2,0.4,0.4,0.5,0.7c0.1,0.3,0.1,0.6,0,0.9
	c-0.1,0.3-0.3,0.5-0.5,0.7l0,0c0.2,0,0.4,0,0.7,0.1c0.2,0.1,0.4,0.2,0.6,0.4c0.2,0.2,0.3,0.4,0.3,0.7c0.1,0.3,0.1,0.6,0,0.9
	c-0.1,0.3-0.3,0.6-0.6,0.8C420.6,247.1,420.3,247.3,419.9,247.4z M419.7,246.7c0.3-0.1,0.5-0.2,0.7-0.3c0.2-0.1,0.3-0.3,0.4-0.5
	c0.1-0.2,0.1-0.4,0-0.6c-0.1-0.2-0.2-0.4-0.3-0.5c-0.2-0.1-0.4-0.2-0.6-0.3c-0.2,0-0.5,0-0.7,0c-0.3,0.1-0.5,0.2-0.6,0.3
	c-0.2,0.2-0.3,0.3-0.4,0.5c-0.1,0.2-0.1,0.4,0,0.6c0.1,0.2,0.2,0.4,0.3,0.5c0.1,0.1,0.3,0.2,0.6,0.2
	C419.2,246.8,419.5,246.8,419.7,246.7z M419,243.9c0.2-0.1,0.4-0.2,0.5-0.3c0.1-0.1,0.2-0.3,0.3-0.5c0.1-0.2,0.1-0.4,0-0.6
	c-0.1-0.2-0.2-0.4-0.3-0.5c-0.1-0.1-0.3-0.2-0.5-0.2c-0.2,0-0.4,0-0.6,0c-0.2,0.1-0.4,0.2-0.6,0.3c-0.1,0.1-0.2,0.3-0.3,0.5
	c-0.1,0.2,0,0.4,0,0.6c0.1,0.2,0.1,0.4,0.3,0.5c0.1,0.1,0.3,0.2,0.5,0.3C418.6,244,418.8,243.9,419,243.9z"/>
<path fill="#2391E7" d="M286.4,298.9l185-49.6c4.5-1.2,9.2,1.5,10.4,6l7.3,27.3c1.2,4.5-1.5,9.2-6,10.4l-185,49.6
	c-4.5,1.2-9.2-1.5-10.4-6l-7.3-27.3C279.2,304.8,281.9,300.1,286.4,298.9z"/>
<path fill="#0D7ED6" d="M449.6,255.2l21.9-5.9c4.5-1.2,9.2,1.5,10.4,6l7.3,27.3c1.2,4.5-1.5,9.2-6,10.4l-21.8,5.9L449.6,255.2z"/>
<g>
	<defs>

			<rect id="SVGID_00000114754588602617771770000006173729362199872658_" x="463.5" y="265.9" transform="matrix(0.9659 -0.2588 0.2588 0.9659 -54.6253 131.0835)" width="14.1" height="14.1"/>
	</defs>
	<clipPath id="SVGID_00000021106416623100642280000013641099564761409958_">
		<use xlink:href="#SVGID_00000114754588602617771770000006173729362199872658_"  overflow="visible"/>
	</clipPath>
	<g clip-path="url(#SVGID_00000021106416623100642280000013641099564761409958_)">
		<path fill="none" stroke="#FFFFFF" stroke-width="1.4138" stroke-linecap="round" stroke-linejoin="round" d="M463.9,273.1
			l6.1-1.6l-0.7-2.7c-0.1-0.3,0.1-0.3,0.3-0.2c1.7,0.6,5.9,2.1,6.6,2.3c0.4,0.1,0.5,0.7,0.3,1c-0.4,0.6-3.3,4-4.5,5.3
			c-0.2,0.2-0.3,0.2-0.4,0l-0.7-2.5l-6.1,1.6"/>
	</g>
</g>
<path fill="#FFFFFF" d="M294.8,315.8l1.5-7l0-0.1l-3.6,1l-0.2-0.7l4.5-1.2l0.2,0.8l-1.4,7L294.8,315.8z M302.2,313.9
	c-0.5,0.1-1,0.1-1.4-0.1c-0.4-0.2-0.8-0.5-1.2-1c-0.3-0.5-0.6-1.1-0.8-1.9c-0.2-0.8-0.3-1.4-0.2-2c0-0.6,0.2-1.1,0.5-1.4
	c0.3-0.4,0.7-0.6,1.2-0.8c0.5-0.1,1-0.1,1.4,0.1c0.4,0.2,0.8,0.5,1.2,1c0.3,0.5,0.6,1.1,0.8,1.8c0.2,0.8,0.3,1.4,0.2,2
	c0,0.6-0.2,1.1-0.5,1.4C303.1,313.5,302.7,313.8,302.2,313.9z M302,313.2c0.5-0.1,0.8-0.5,1-1c0.1-0.6,0.1-1.3-0.1-2.2
	c-0.2-0.6-0.4-1.1-0.6-1.5c-0.2-0.4-0.5-0.7-0.8-0.8c-0.3-0.2-0.6-0.2-0.9-0.1c-0.5,0.1-0.8,0.5-1,1.1c-0.2,0.6-0.1,1.3,0.1,2.2
	c0.2,0.6,0.4,1.1,0.6,1.5c0.2,0.4,0.5,0.7,0.8,0.8C301.4,313.2,301.7,313.2,302,313.2z M308.2,312.3c-0.5,0.1-1,0.1-1.4-0.1
	c-0.4-0.2-0.8-0.5-1.2-1c-0.3-0.5-0.6-1.1-0.8-1.9c-0.2-0.8-0.3-1.4-0.2-2c0-0.6,0.2-1.1,0.5-1.4c0.3-0.4,0.7-0.6,1.2-0.8
	c0.5-0.1,1-0.1,1.4,0.1c0.4,0.2,0.8,0.5,1.2,1c0.3,0.5,0.6,1.1,0.8,1.8c0.2,0.8,0.3,1.4,0.2,2c0,0.6-0.2,1.1-0.5,1.4
	C309.1,311.9,308.7,312.2,308.2,312.3z M308,311.5c0.5-0.1,0.8-0.5,1-1c0.1-0.6,0.1-1.3-0.1-2.2c-0.2-0.6-0.4-1.1-0.6-1.5
	c-0.2-0.4-0.5-0.7-0.8-0.8c-0.3-0.2-0.6-0.2-0.9-0.1c-0.5,0.1-0.8,0.5-1,1.1c-0.2,0.6-0.1,1.3,0.1,2.2c0.2,0.6,0.4,1.1,0.6,1.5
	c0.2,0.4,0.5,0.7,0.8,0.8C307.3,311.6,307.7,311.6,308,311.5z M312.2,311.2c-0.2,0-0.3,0-0.5-0.1c-0.2-0.1-0.2-0.2-0.3-0.4
	c0-0.2,0-0.3,0.1-0.5c0.1-0.2,0.2-0.3,0.4-0.3c0.2,0,0.3,0,0.5,0.1c0.2,0.1,0.2,0.2,0.3,0.4c0,0.1,0,0.2,0,0.3
	c0,0.1-0.1,0.2-0.2,0.3C312.4,311.1,312.4,311.1,312.2,311.2z M314.5,302.9c0.3-0.1,0.6-0.1,0.9-0.1s0.6,0.1,0.9,0.3
	c0.3,0.2,0.6,0.5,0.8,0.9c0.3,0.4,0.5,0.9,0.6,1.5c0.2,0.6,0.3,1.2,0.3,1.7c0,0.5,0,1-0.2,1.3c-0.1,0.4-0.3,0.7-0.6,1
	c-0.3,0.3-0.6,0.4-1,0.5c-0.4,0.1-0.8,0.1-1.1,0c-0.3-0.1-0.7-0.2-0.9-0.4c-0.3-0.2-0.5-0.5-0.6-0.9l0.8-0.2
	c0.2,0.3,0.4,0.5,0.7,0.7c0.3,0.1,0.6,0.2,1,0.1c0.5-0.1,0.9-0.5,1.1-1c0.2-0.6,0.2-1.3-0.1-2.1l-0.1,0c-0.1,0.2-0.2,0.4-0.3,0.6
	c-0.1,0.2-0.3,0.3-0.5,0.5c-0.2,0.1-0.4,0.2-0.6,0.3c-0.4,0.1-0.8,0.1-1.2,0c-0.4-0.1-0.7-0.3-1-0.6c-0.3-0.3-0.5-0.7-0.6-1.1
	c-0.1-0.4-0.1-0.8,0-1.2c0.1-0.4,0.3-0.8,0.6-1.1C313.7,303.3,314,303.1,314.5,302.9z M314.7,303.7c-0.3,0.1-0.5,0.2-0.7,0.4
	c-0.2,0.2-0.3,0.4-0.4,0.7c-0.1,0.3-0.1,0.6,0,0.8c0.1,0.3,0.2,0.5,0.4,0.7c0.2,0.2,0.4,0.3,0.7,0.4c0.3,0.1,0.5,0.1,0.8,0
	c0.2-0.1,0.4-0.2,0.6-0.3c0.2-0.1,0.3-0.3,0.4-0.5c0.1-0.2,0.2-0.4,0.2-0.6c0-0.2,0-0.4,0-0.6c-0.1-0.3-0.2-0.5-0.4-0.7
	c-0.2-0.2-0.4-0.3-0.7-0.4C315.3,303.6,315,303.6,314.7,303.7z M322.5,308.5c-0.5,0.1-1,0.1-1.4-0.1c-0.4-0.2-0.8-0.5-1.2-1
	c-0.3-0.5-0.6-1.1-0.8-1.9c-0.2-0.8-0.3-1.4-0.2-2c0-0.6,0.2-1.1,0.5-1.4c0.3-0.4,0.7-0.6,1.2-0.8c0.5-0.1,1-0.1,1.4,0.1
	c0.4,0.2,0.8,0.5,1.2,1c0.3,0.5,0.6,1.1,0.8,1.8c0.2,0.8,0.3,1.4,0.2,2c0,0.6-0.2,1.1-0.5,1.4C323.4,308.1,323,308.3,322.5,308.5z
	 M322.3,307.7c0.5-0.1,0.8-0.5,1-1c0.1-0.6,0.1-1.3-0.1-2.2c-0.2-0.6-0.4-1.1-0.6-1.5c-0.2-0.4-0.5-0.7-0.8-0.8
	c-0.3-0.2-0.6-0.2-0.9-0.1c-0.5,0.1-0.8,0.5-1,1.1c-0.1,0.6-0.1,1.3,0.1,2.2c0.2,0.6,0.4,1.1,0.6,1.5c0.2,0.4,0.5,0.7,0.8,0.8
	C321.6,307.8,321.9,307.8,322.3,307.7z M328.5,306.9c-0.4,0.1-0.9,0.1-1.3,0.1c-0.4-0.1-0.7-0.2-1-0.4c-0.3-0.2-0.5-0.5-0.6-0.9
	l0.9-0.2c0.1,0.2,0.2,0.4,0.4,0.5c0.2,0.1,0.4,0.2,0.6,0.2c0.2,0,0.5,0,0.8-0.1c0.3-0.1,0.5-0.2,0.8-0.4c0.2-0.2,0.3-0.4,0.4-0.6
	c0.1-0.2,0.1-0.5,0-0.7c-0.1-0.3-0.2-0.5-0.4-0.6c-0.2-0.2-0.4-0.3-0.7-0.3c-0.3,0-0.6,0-0.9,0.1l-0.6,0.1l-0.2-0.7l0.6-0.1
	c0.3-0.1,0.5-0.2,0.7-0.3c0.2-0.2,0.3-0.3,0.4-0.6c0.1-0.2,0.1-0.4,0-0.7c-0.1-0.2-0.2-0.4-0.3-0.6c-0.2-0.1-0.3-0.2-0.6-0.3
	c-0.2,0-0.4,0-0.7,0c-0.2,0.1-0.5,0.2-0.6,0.3c-0.2,0.1-0.3,0.3-0.4,0.5c-0.1,0.2-0.1,0.4-0.1,0.6l-0.8,0.2c-0.1-0.4-0.1-0.7,0.1-1
	c0.1-0.3,0.3-0.6,0.6-0.9c0.3-0.2,0.6-0.4,1-0.5c0.4-0.1,0.8-0.1,1.2,0c0.4,0.1,0.7,0.3,0.9,0.5c0.2,0.2,0.4,0.5,0.5,0.9
	c0.1,0.4,0.1,0.8,0,1.1c-0.1,0.3-0.4,0.6-0.7,0.8l0,0.1c0.5,0,0.9,0,1.2,0.3c0.3,0.2,0.5,0.6,0.7,1c0.1,0.4,0.1,0.7,0,1.1
	c-0.1,0.4-0.3,0.7-0.6,0.9S329,306.7,328.5,306.9z M332.2,305.8l-0.2-0.6l1.6-3.1c0.2-0.4,0.3-0.7,0.5-0.9c0.1-0.3,0.2-0.5,0.2-0.7
	c0-0.2,0-0.4,0-0.6c-0.1-0.2-0.2-0.4-0.3-0.6c-0.2-0.1-0.4-0.2-0.6-0.3c-0.2,0-0.5,0-0.7,0c-0.3,0.1-0.5,0.2-0.7,0.4
	c-0.2,0.2-0.3,0.4-0.3,0.6c-0.1,0.2,0,0.5,0,0.7l-0.8,0.2c-0.1-0.4-0.1-0.8,0-1.1c0.1-0.4,0.3-0.7,0.6-0.9c0.3-0.3,0.6-0.4,1-0.6
	c0.4-0.1,0.8-0.1,1.2,0c0.4,0.1,0.7,0.3,0.9,0.5c0.3,0.2,0.4,0.5,0.5,0.9c0.1,0.3,0.1,0.5,0.1,0.8c0,0.3-0.1,0.6-0.3,0.9
	c-0.1,0.4-0.4,0.8-0.6,1.3l-1.1,2.1l0,0.1l3.2-0.9l0.2,0.7L332.2,305.8z M340.4,303.7c-0.4,0.1-0.9,0.2-1.3,0.1
	c-0.4-0.1-0.7-0.2-1-0.4c-0.3-0.2-0.5-0.5-0.6-0.9l0.9-0.2c0.1,0.2,0.2,0.4,0.4,0.5c0.2,0.1,0.4,0.2,0.6,0.2c0.2,0,0.5,0,0.8-0.1
	c0.3-0.1,0.5-0.2,0.8-0.4c0.2-0.2,0.3-0.4,0.4-0.6c0.1-0.2,0.1-0.5,0-0.7c-0.1-0.3-0.2-0.5-0.4-0.6c-0.2-0.2-0.4-0.3-0.7-0.3
	c-0.3,0-0.6,0-0.9,0.1l-0.6,0.1l-0.2-0.7l0.6-0.1c0.3-0.1,0.5-0.2,0.7-0.3c0.2-0.2,0.3-0.3,0.4-0.6c0.1-0.2,0.1-0.4,0-0.7
	c-0.1-0.2-0.2-0.4-0.3-0.6c-0.1-0.1-0.3-0.2-0.5-0.3c-0.2,0-0.4,0-0.7,0c-0.2,0.1-0.5,0.2-0.6,0.3c-0.2,0.1-0.3,0.3-0.4,0.5
	c-0.1,0.2-0.1,0.4-0.1,0.6l-0.8,0.2c-0.1-0.4-0.1-0.7,0.1-1c0.1-0.3,0.3-0.6,0.6-0.9c0.3-0.2,0.6-0.4,1-0.5c0.4-0.1,0.8-0.1,1.2,0
	c0.4,0.1,0.7,0.3,0.9,0.5c0.2,0.2,0.4,0.5,0.5,0.9c0.1,0.4,0.1,0.8,0,1.1c-0.1,0.3-0.4,0.6-0.7,0.8l0,0.1c0.5,0,0.9,0,1.2,0.3
	c0.3,0.2,0.5,0.6,0.7,1c0.1,0.4,0.1,0.7,0,1.1c-0.1,0.4-0.3,0.7-0.6,0.9C341.2,303.4,340.8,303.5,340.4,303.7z M346.4,302.1
	c-0.5,0.1-1,0.1-1.4-0.1c-0.4-0.2-0.8-0.5-1.2-1c-0.3-0.5-0.6-1.1-0.8-1.9c-0.2-0.8-0.3-1.4-0.2-2c0-0.6,0.2-1.1,0.5-1.4
	c0.3-0.4,0.7-0.6,1.2-0.8c0.5-0.1,1-0.1,1.4,0.1c0.4,0.2,0.8,0.5,1.2,1c0.3,0.5,0.6,1.1,0.8,1.8c0.2,0.8,0.3,1.4,0.2,2
	c0,0.6-0.2,1.1-0.5,1.4C347.3,301.7,346.9,301.9,346.4,302.1z M346.2,301.3c0.5-0.1,0.8-0.5,1-1c0.1-0.6,0.1-1.3-0.1-2.2
	c-0.2-0.6-0.4-1.1-0.6-1.5c-0.2-0.4-0.5-0.7-0.8-0.8c-0.3-0.2-0.6-0.2-0.9-0.1c-0.5,0.1-0.8,0.5-1,1.1c-0.1,0.6-0.1,1.3,0.1,2.2
	c0.2,0.6,0.4,1.1,0.6,1.5c0.2,0.4,0.5,0.7,0.8,0.8C345.5,301.4,345.9,301.4,346.2,301.3z M353.2,300.1l-0.9,0.2l0.7-7.6l0.9-0.2
	l4.4,6.3l-0.9,0.2l-3.6-5.3l-0.1,0L353.2,300.1z M352.8,297.3l3.6-1l0.2,0.7l-3.6,1L352.8,297.3z M359.3,298.5l-1.9-7l2.3-0.6
	c0.5-0.1,1-0.2,1.4-0.1c0.4,0.1,0.7,0.3,1,0.5c0.3,0.3,0.4,0.6,0.5,1c0.1,0.4,0.1,0.8,0,1.2c-0.1,0.4-0.3,0.7-0.6,1
	c-0.3,0.3-0.7,0.5-1.3,0.6l-1.9,0.5l-0.2-0.8l1.9-0.5c0.4-0.1,0.7-0.2,0.9-0.4c0.2-0.2,0.3-0.4,0.4-0.6c0-0.2,0-0.5,0-0.8
	c-0.1-0.3-0.2-0.5-0.4-0.7c-0.2-0.2-0.4-0.3-0.6-0.3c-0.3-0.1-0.6,0-1,0.1l-1.5,0.4l1.7,6.2L359.3,298.5z M361.8,294.5l2.5,2.7
	l-1,0.3l-2.5-2.7L361.8,294.5z M365.5,296.8l-1.9-7l0.8-0.2l0.9,3.4l0.1,0l2.2-4.3l1.1-0.3l-2.1,3.9l3.9,3l-1,0.3l-3.3-2.6l-0.6,1.2
	l0.6,2.3L365.5,296.8z"/>
<path fill="#212225" d="M300.4,330.6c-0.3,0.1-0.7,0.1-1,0c-0.3-0.1-0.6-0.2-0.8-0.4c-0.2-0.2-0.4-0.4-0.5-0.7l0.7-0.2
	c0.1,0.3,0.3,0.5,0.5,0.6c0.3,0.1,0.6,0.1,0.9,0.1c0.2-0.1,0.4-0.2,0.6-0.3c0.2-0.2,0.3-0.4,0.3-0.6c0.1-0.2,0.1-0.5,0-0.7
	c-0.1-0.3-0.2-0.5-0.4-0.6c-0.2-0.2-0.4-0.3-0.6-0.4c-0.2-0.1-0.5-0.1-0.7,0c-0.2,0-0.4,0.1-0.5,0.2c-0.2,0.1-0.3,0.2-0.4,0.3
	l-0.7,0.1l-0.4-3l3.1-0.8l0.2,0.6l-2.5,0.7l0.3,1.8l0,0c0.1-0.1,0.2-0.3,0.4-0.4c0.2-0.1,0.4-0.2,0.6-0.2c0.4-0.1,0.7-0.1,1,0
	c0.3,0.1,0.6,0.3,0.9,0.5c0.2,0.3,0.4,0.6,0.5,1c0.1,0.4,0.1,0.7,0,1.1c-0.1,0.3-0.3,0.6-0.5,0.9
	C301.1,330.3,300.8,330.5,300.4,330.6z M304.1,328.6l0,0.3c0,0.2,0,0.5,0,0.8c0,0.3,0,0.5,0,0.8c0,0.2,0,0.4,0,0.6l-0.5,0.1
	c0-0.1,0-0.3,0-0.5c0-0.2,0-0.5-0.1-0.7c0-0.3-0.1-0.5-0.1-0.8l-0.1-0.3L304.1,328.6z M305.8,322.6c0.2-0.1,0.5-0.1,0.8-0.1
	c0.3,0,0.5,0.1,0.8,0.3c0.3,0.2,0.5,0.4,0.7,0.7c0.2,0.3,0.4,0.8,0.5,1.3c0.1,0.5,0.2,1,0.2,1.5c0,0.4,0,0.8-0.2,1.2
	c-0.1,0.3-0.3,0.6-0.5,0.8c-0.2,0.2-0.5,0.4-0.8,0.5c-0.3,0.1-0.6,0.1-0.9,0c-0.3-0.1-0.6-0.2-0.8-0.4c-0.2-0.2-0.4-0.4-0.5-0.7
	l0.7-0.2c0.1,0.3,0.3,0.4,0.6,0.6c0.2,0.1,0.5,0.1,0.8,0.1c0.5-0.1,0.8-0.4,0.9-0.9c0.2-0.5,0.1-1.1-0.1-1.8l0,0
	c-0.1,0.2-0.2,0.4-0.3,0.5c-0.1,0.2-0.3,0.3-0.4,0.4s-0.4,0.2-0.6,0.3c-0.3,0.1-0.7,0.1-1,0c-0.3-0.1-0.6-0.3-0.9-0.5
	c-0.2-0.3-0.4-0.6-0.5-1c-0.1-0.4-0.1-0.7,0-1.1c0.1-0.3,0.2-0.7,0.5-0.9C305.1,322.9,305.4,322.7,305.8,322.6z M306,323.2
	c-0.2,0.1-0.4,0.2-0.6,0.4c-0.2,0.2-0.3,0.4-0.3,0.6c-0.1,0.2-0.1,0.5,0,0.7c0.1,0.2,0.2,0.5,0.3,0.6c0.2,0.2,0.4,0.3,0.6,0.4
	c0.2,0.1,0.5,0.1,0.7,0c0.2-0.1,0.3-0.1,0.5-0.2c0.1-0.1,0.3-0.3,0.3-0.4c0.1-0.2,0.1-0.3,0.2-0.5c0-0.2,0-0.4,0-0.5
	c-0.1-0.2-0.2-0.4-0.3-0.6c-0.2-0.2-0.4-0.3-0.6-0.4C306.5,323.2,306.3,323.1,306,323.2z M312.6,327.3c-0.4,0.1-0.8,0.1-1.2-0.1
	c-0.4-0.2-0.7-0.4-1-0.9c-0.3-0.4-0.5-0.9-0.7-1.6c-0.2-0.6-0.2-1.2-0.2-1.7c0-0.5,0.2-0.9,0.4-1.2c0.2-0.3,0.6-0.5,1-0.7
	c0.4-0.1,0.8-0.1,1.2,0.1c0.4,0.2,0.7,0.4,1,0.9c0.3,0.4,0.5,0.9,0.7,1.6c0.2,0.6,0.2,1.2,0.2,1.7c0,0.5-0.2,0.9-0.4,1.2
	C313.4,327,313.1,327.2,312.6,327.3z M312.5,326.7c0.4-0.1,0.7-0.4,0.8-0.9c0.1-0.5,0.1-1.1-0.1-1.9c-0.1-0.5-0.3-0.9-0.5-1.3
	c-0.2-0.3-0.4-0.6-0.7-0.7c-0.3-0.1-0.5-0.2-0.8-0.1c-0.4,0.1-0.7,0.4-0.8,0.9c-0.1,0.5-0.1,1.1,0.1,1.9c0.1,0.5,0.3,0.9,0.5,1.3
	c0.2,0.3,0.4,0.6,0.7,0.7C311.9,326.7,312.2,326.8,312.5,326.7z M316.3,319.9l1.6,6l-0.7,0.2l-1.4-5.2l0,0l-1.2,1.4l-0.2-0.7
	l1.2-1.4L316.3,319.9z M319.8,325.4c-0.1,0-0.3,0-0.4-0.1c-0.1-0.1-0.2-0.2-0.3-0.3c0-0.1,0-0.3,0.1-0.4c0.1-0.1,0.2-0.2,0.3-0.3
	c0.1,0,0.3,0,0.4,0.1c0.1,0.1,0.2,0.2,0.3,0.3c0,0.1,0,0.2,0,0.3c0,0.1-0.1,0.2-0.1,0.2C320,325.3,319.9,325.3,319.8,325.4z
	 M321.7,318.3c0.2-0.1,0.5-0.1,0.8-0.1c0.3,0,0.5,0.1,0.8,0.3c0.3,0.2,0.5,0.4,0.7,0.7c0.2,0.3,0.4,0.8,0.5,1.3
	c0.1,0.5,0.2,1,0.2,1.5c0,0.4,0,0.8-0.2,1.2c-0.1,0.3-0.3,0.6-0.5,0.8c-0.2,0.2-0.5,0.4-0.8,0.5c-0.3,0.1-0.6,0.1-0.9,0
	c-0.3-0.1-0.6-0.2-0.8-0.4c-0.2-0.2-0.4-0.4-0.5-0.7l0.7-0.2c0.1,0.3,0.3,0.4,0.6,0.6c0.2,0.1,0.5,0.1,0.8,0.1
	c0.5-0.1,0.8-0.4,0.9-0.9c0.2-0.5,0.1-1.1-0.1-1.8l0,0c-0.1,0.2-0.2,0.4-0.3,0.5c-0.1,0.2-0.3,0.3-0.4,0.4s-0.4,0.2-0.6,0.3
	c-0.3,0.1-0.7,0.1-1,0c-0.3-0.1-0.6-0.3-0.9-0.5c-0.2-0.3-0.4-0.6-0.5-1c-0.1-0.4-0.1-0.7,0-1.1c0.1-0.3,0.2-0.7,0.5-0.9
	C321,318.6,321.3,318.4,321.7,318.3z M321.9,319c-0.2,0.1-0.4,0.2-0.6,0.4c-0.2,0.2-0.3,0.4-0.3,0.6c-0.1,0.2-0.1,0.5,0,0.7
	c0.1,0.2,0.2,0.5,0.3,0.6c0.2,0.2,0.4,0.3,0.6,0.4c0.2,0.1,0.5,0.1,0.7,0c0.2-0.1,0.3-0.1,0.5-0.2c0.1-0.1,0.3-0.3,0.3-0.4
	c0.1-0.2,0.1-0.3,0.2-0.5c0-0.2,0-0.4,0-0.5c-0.1-0.2-0.2-0.4-0.3-0.6c-0.2-0.2-0.4-0.3-0.6-0.4C322.4,318.9,322.2,318.9,321.9,319z
	 M328.5,323.1c-0.3,0.1-0.7,0.1-1,0c-0.3-0.1-0.6-0.2-0.8-0.4c-0.2-0.2-0.4-0.4-0.5-0.7l0.7-0.2c0.1,0.3,0.3,0.5,0.5,0.6
	c0.3,0.1,0.6,0.1,0.9,0.1c0.2-0.1,0.4-0.2,0.6-0.3c0.2-0.2,0.3-0.4,0.3-0.6c0.1-0.2,0.1-0.5,0-0.7c-0.1-0.3-0.2-0.5-0.4-0.6
	c-0.2-0.2-0.4-0.3-0.6-0.4c-0.2-0.1-0.5-0.1-0.7,0c-0.2,0-0.4,0.1-0.5,0.2c-0.2,0.1-0.3,0.2-0.4,0.3l-0.7,0.1l-0.4-3l3.1-0.8
	l0.2,0.6l-2.5,0.7l0.3,1.8l0,0c0.1-0.1,0.2-0.3,0.4-0.4c0.2-0.1,0.4-0.2,0.5-0.2c0.4-0.1,0.7-0.1,1,0c0.3,0.1,0.6,0.3,0.9,0.5
	c0.2,0.3,0.4,0.6,0.5,1c0.1,0.4,0.1,0.7,0,1.1c-0.1,0.3-0.3,0.6-0.5,0.9C329.1,322.8,328.8,323,328.5,323.1z M336.3,314.5l0.7-0.2
	l1.1,3.9c0.1,0.4,0.1,0.8,0,1.2c-0.1,0.4-0.3,0.7-0.6,1c-0.3,0.3-0.7,0.5-1.1,0.6c-0.5,0.1-0.9,0.1-1.3,0.1c-0.4-0.1-0.7-0.3-1-0.5
	c-0.3-0.3-0.5-0.6-0.6-1l-1.1-3.9l0.7-0.2l1,3.9c0.1,0.3,0.2,0.5,0.4,0.7c0.2,0.2,0.4,0.3,0.7,0.4c0.3,0.1,0.6,0.1,0.9,0
	s0.6-0.2,0.8-0.4c0.2-0.2,0.3-0.4,0.4-0.7c0.1-0.3,0.1-0.5,0-0.8L336.3,314.5z M342.1,314.5c-0.1-0.3-0.3-0.5-0.6-0.6
	c-0.3-0.1-0.6-0.1-1,0c-0.3,0.1-0.5,0.2-0.7,0.3c-0.2,0.1-0.3,0.3-0.4,0.5c-0.1,0.2-0.1,0.4,0,0.6c0,0.2,0.1,0.3,0.2,0.4
	c0.1,0.1,0.2,0.2,0.4,0.2c0.1,0,0.3,0.1,0.4,0.1c0.1,0,0.3,0,0.4,0l0.6,0c0.2,0,0.4,0,0.6,0c0.2,0,0.4,0.1,0.6,0.1
	c0.2,0.1,0.4,0.2,0.6,0.4c0.2,0.2,0.3,0.4,0.4,0.7c0.1,0.3,0.1,0.6,0,0.9c-0.1,0.3-0.3,0.6-0.6,0.8c-0.3,0.2-0.6,0.4-1.1,0.5
	c-0.4,0.1-0.8,0.1-1.2,0.1c-0.3-0.1-0.6-0.2-0.9-0.4c-0.2-0.2-0.4-0.5-0.5-0.8l0.7-0.2c0.1,0.2,0.2,0.4,0.4,0.5
	c0.2,0.1,0.4,0.2,0.6,0.2c0.2,0,0.5,0,0.7-0.1c0.3-0.1,0.5-0.2,0.7-0.3c0.2-0.1,0.3-0.3,0.4-0.5c0.1-0.2,0.1-0.4,0-0.6
	c-0.1-0.2-0.2-0.3-0.3-0.4c-0.1-0.1-0.3-0.2-0.5-0.2c-0.2,0-0.4,0-0.6,0l-0.8,0c-0.5,0-0.9-0.1-1.3-0.3c-0.3-0.2-0.6-0.5-0.7-0.9
	c-0.1-0.3-0.1-0.6,0-0.9c0.1-0.3,0.3-0.6,0.6-0.8c0.3-0.2,0.6-0.4,1-0.5c0.4-0.1,0.7-0.1,1.1-0.1c0.3,0.1,0.6,0.2,0.9,0.4
	c0.2,0.2,0.4,0.4,0.5,0.7L342.1,314.5z M347.1,318l-1.8,0.5l-1.6-6l1.9-0.5c0.6-0.2,1.1-0.2,1.6,0c0.5,0.1,0.9,0.4,1.2,0.8
	c0.3,0.4,0.6,0.9,0.8,1.5c0.2,0.6,0.2,1.2,0.1,1.7c-0.1,0.5-0.3,0.9-0.7,1.3C348.2,317.6,347.7,317.8,347.1,318z M345.8,317.7
	l1.1-0.3c0.5-0.1,0.9-0.3,1.1-0.6c0.3-0.3,0.4-0.6,0.5-1c0.1-0.4,0-0.8-0.1-1.3c-0.1-0.5-0.3-0.9-0.6-1.2c-0.3-0.3-0.6-0.5-0.9-0.6
	c-0.4-0.1-0.8-0.1-1.2,0l-1.2,0.3L345.8,317.7z"/>
</svg>
