<svg width="540" height="352" fill="none" xmlns="http://www.w3.org/2000/svg"><path d="M33 47c0-11.046 8.954-20 20-20h445c11.046 0 20 8.954 20 20v264c0 11.046-8.954 20-20 20H53c-11.046 0-20-8.954-20-20V47Z" fill="#F7FAFB"/><path d="M182.708 320.615 119.816 85.896c-2.725-10.167 3.309-20.618 13.476-23.342l34.978-9.372m31.296-8.386L326 10.918M177.935 50.592l9.204-2.466m218.417-15.117 16.904 63.084" stroke="#DBDEE5" stroke-width="2" stroke-linecap="round"/><path d="M122.012 48h-2v7h-7v2h7v7h2v-7h7v-2h-7v-7ZM100.012 48h-2v7h-7v2h7v7h2v-7h7v-2h-7v-7ZM76.262 106.885h2v-7h7v-2h-7v-7h-2v7h-7v2h7v7ZM98.262 84.885h2v-7h7v-2h-7v-7h-2v7h-7v2h7v7ZM98.262 106.885h2v-7h7v-2h-7v-7h-2v7h-7v2h7v7ZM98.262 128.885h2v-7h7v-2h-7v-7h-2v7h-7v2h7v7Z" fill="#DBDEE5"/><path d="m119.18 105.602 12.011 44.826m344.886 123.663-36.583-143.495" stroke="#235B95" stroke-width="2" stroke-linecap="round"/><path d="M92.777 212.037a11.44 11.44 0 0 1 11.462 0l22.038 12.756a11.494 11.494 0 0 1 5.731 9.95v25.51c0 4.105-2.185 7.898-5.731 9.951l-22.038 12.755a11.44 11.44 0 0 1-11.462 0L70.74 270.204a11.497 11.497 0 0 1-5.731-9.951v-25.51c0-4.105 2.184-7.898 5.73-9.95l22.04-12.756Z" fill="#E6EFF9"/><path d="m77.621 206.068 11.932-6.925a15.836 15.836 0 0 1 15.909 0l5.824 3.38m9.091 5.276 2.932 1.701m-49.051 79.481 15.295 8.876a15.836 15.836 0 0 0 15.909 0l30.591-17.753a16.008 16.008 0 0 0 7.955-13.85v-55.508c0-5.746 0-10.246-2.5-19.246-2-7.2-6.501-25-9.002-34.5m-4.998 54.937 3.5 2.031m27 41.032-6.886-26.5M69.008 138.709v7.581c0 2.829-1.478 5.444-3.878 6.858l-14.911 8.791a7.62 7.62 0 0 1-7.755 0l-7.456-4.396m-12-15.875v4.362a7.964 7.964 0 0 0 4.047 6.914l2.683 1.528" stroke="#DBDEE5" stroke-width="2" stroke-linecap="round"/><path d="M43.522 150.016a3.151 3.151 0 0 0 2.06.518l8.002-1.047c2.302-.277 3.185-.203 3.693-2.687.441-2.155 1.184-5.296 1.323-6.465m-15.078 9.681a3.156 3.156 0 0 1-1.264-1.708l-.753-2.808m2.017 4.516 1.984-7.87m-6.643-6.508-13.23 1.544a3.146 3.146 0 0 1-2.06-.517m15.29-1.027 1.788-7.808m-1.788 7.808 1.712 6.391m-17.002-5.364a3.151 3.151 0 0 1-1.264-1.708l-2.716-10.136c-.469-1.747-.516-2.753.18-3.958.695-1.205 1.587-3.368 2.002-3.932m1.798 19.734 2.06-7.867m31.807 4.672 9.203-1.075c2.32-.269 2.845-.842 3.15-2.236.245-1.114.611-5.322.764-7.287M33.97 99.152a2.217 2.217 0 0 0-.302 1.892l3.395 12.67-3.81.444m.717-15.007a2.216 2.216 0 0 1 1.664-.95l9.26-1.08a3.152 3.152 0 0 1 3.325 2.224l3.395 12.67 6.49-.757M33.97 99.151c-.215.528-2.58 2.982-2.96 4.102-.378 1.12-.208 1.754.216 3.338l2.028 7.567m35.324 10.25a2.213 2.213 0 0 0 1.664-.95 2.222 2.222 0 0 0 .302-1.893l-2.376-8.869a3.15 3.15 0 0 0-3.325-2.225l-3.341.39m-28.248 3.297-9.42 1.1a2.213 2.213 0 0 0-1.666.95 2.215 2.215 0 0 0-.302 1.893l2.377 8.87a3.153 3.153 0 0 0 3.325 2.225l4.431-.518m6.003-.701 2.795-.326 3.395 12.67a3.156 3.156 0 0 0 3.325 2.226l9.26-1.081a2.226 2.226 0 0 0 1.664-.951 2.21 2.21 0 0 0 .302-1.892l-3.395-12.67 10.154-1.186" stroke="#235B95" stroke-width="2" stroke-linecap="round" stroke-linejoin="round"/><path d="M97.008 179v17.5" stroke="#DBDEE5" stroke-width="2" stroke-linecap="round" stroke-linejoin="round"/><path d="M109.004 169.576a5.87 5.87 0 0 1-2.923 5.075l-6.14 3.559a5.852 5.852 0 0 1-5.875 0l-6.139-3.559a5.857 5.857 0 0 1-2.923-5.075v-7.152a5.87 5.87 0 0 1 2.923-5.075l6.14-3.559a5.862 5.862 0 0 1 5.875 0l6.139 3.559a5.857 5.857 0 0 1 2.923 5.075v7.152Z" fill="#F7FAFB" stroke="#DBDEE5" stroke-width="2" stroke-linecap="round" stroke-linejoin="round"/><path d="m81.496 153.5-12.5-7M84.5 160.491l-6-3.533m-5-2.944-5-2.944" stroke="#DBDEE5" stroke-width="2" stroke-linecap="round"/><path d="M51.003 238.504v-7.759a16.01 16.01 0 0 1 7.955-13.85l11.698-6.789M51.003 247.5v18.753a16.006 16.006 0 0 0 7.955 13.849l10.545 6.121" stroke="#235B95" stroke-width="2" stroke-linecap="round"/><path d="m79.234 235.615 16.224 9.367c5.246 1.746 3.452 1.892 3.512 5.32.06 3.428-.088 19.7-.088 19.7a6.92 6.92 0 0 1-3.228-.923l-13.05-7.535c-3.207-1.851-4.106-3.592-4.218-5.727-.111-2.134-.218-14.638-.074-16.972.145-2.335.922-3.23.922-3.23Z" fill="#8AC0F7"/><path d="m93.264 226.179 2.275-1.31a6.52 6.52 0 0 1 6.503 0l14.267 8.215a6.514 6.514 0 0 1 3.264 5.646v16.398a6.517 6.517 0 0 1-3.264 5.647l-14.267 8.215a6.522 6.522 0 0 1-6.503 0l-14.267-8.215a6.514 6.514 0 0 1-3.264-5.646v-16.397a6.517 6.517 0 0 1 3.264-5.647l7.963-4.585" stroke="#235B95" stroke-width="2" stroke-linecap="round"/><path d="M98.777 269.345v-2.8m0-3.69v-5.676m0-4.215v-2.956a4.889 4.889 0 0 1 2.449-4.235l17.315-10.043" stroke="#235B95" stroke-width="2" stroke-linecap="round"/><path d="M100.898 245.975a4.043 4.043 0 0 1-4.008 0l-5.61-3.207m-8.82-5.043 5.67 3.242" stroke="#235B95" stroke-width="2" stroke-linecap="round"/><path d="m485.498 337.5-56.817-217.532" stroke="#DBDEE5" stroke-width="2" stroke-linecap="round"/><path d="M493.258 189.885h2v-7h7v-2h-7v-7h-2v7h-7v2h7v7ZM493.258 146.885h2v-7h7v-2h-7v-7h-2v7h-7v2h7v7ZM493.258 211.885h2v-7h7v-2h-7v-7h-2v7h-7v2h7v7ZM515.258 189.885h2v-7h7v-2h-7v-7h-2v7h-7v2h7v7ZM515.258 167.885h2v-7h7v-2h-7v-7h-2v7h-7v2h7v7ZM515.258 146.885h2v-7h7v-2h-7v-7h-2v7h-7v2h7v7ZM471.258 189.885h2v-7h7v-2h-7v-7h-2v7h-7v2h7v7Z" fill="#DBDEE5"/><path d="M506.059 29.501s2.063 2.44 6.933 6.984a34.54 34.54 0 0 1 6.529 8.358c5.314 9.432 6.382 21.058 3.882 32.663m-87.407 36.726s5.273 4.842 8.933 7.582c12.82 9.594 31.876 9.196 48.996-1.86m27.597-35.63c-4.04 12.002-11.813 23.509-22.553 32.012m-27.58 1.881s2.994 2.855 7.862 7.696m1.556-12.038s3.647 3.508 8.515 8.35" stroke="#DBDEE5" stroke-width="2" stroke-linecap="round" stroke-linejoin="round"/><path d="M486.316 102.376c20.287-16.062 28.252-44.139 17.789-62.712-10.462-18.574-35.391-20.611-55.678-4.549m-17.789 62.712c9.343 16.586 30.221 19.985 49.028 9.086m-36.488-67.11a60.9 60.9 0 0 0-8.356 10.507m60.265-20.649c-6.921-3.241-15.173-3.84-23.588-1.703m-28.619 81.795c-3.341-2.519-5.982-5.852-8.014-9.51-10.463-18.573-2.499-46.65 17.788-62.712 3.761-2.977 7.682-5.333 11.64-7.076" stroke="#DBDEE5" stroke-width="2" stroke-linecap="round" stroke-linejoin="round"/><path d="m471.604 57.645-33.214 30.11 37.533-46.816 13.788 50.63-18.107-33.925Zm-17.342 21.13 5.665-5.205 15.072.874 2.986 5.843-23.723-1.512Zm9.82-8.923 5.779-5.255 2.984 5.728-8.763-.473Z" fill="#EEF3F5"/><path d="m486.077 78.223 3.634 13.345-18.107-33.923-8.15 7.388m21.488 9.025-2.481-9.11m-1.985-7.288-4.553-16.72-37.533 46.814 12.005-10.882m9.904-8.979-5.298 4.803m-.739 6.079 5.665-5.205 15.072.874 2.986 5.843-23.723-1.512Zm9.82-8.923 5.779-5.255 2.984 5.728-8.763-.473Z" stroke="#7E8A9C" stroke-width="2" stroke-linecap="round" stroke-linejoin="round"/><path d="M489.667 107.779c-23.416 18.538-52.188 16.187-64.264-5.25-1.676-2.974-2.942-6.158-3.817-9.488m73.31 10.146a70.172 70.172 0 0 0 10.887-13.61m5.986-12.355c5.285-14.48 5.17-29.86-1.57-41.825-12.076-21.438-40.848-23.788-64.264-5.25a68.889 68.889 0 0 0-7.819 7.247 70.29 70.29 0 0 0-7.329 9.421" stroke="#DBDEE5" stroke-width="2" stroke-linecap="round" stroke-linejoin="round"/><path d="m468.563 141.7.146-12.077" stroke="#DBDEE5" stroke-width="2" stroke-linecap="round"/><path d="M481.724 158.896a6.573 6.573 0 0 1-3.28 5.691l-6.889 3.99a6.57 6.57 0 0 1-6.593 0l-6.889-3.99a6.573 6.573 0 0 1-3.28-5.691v-8.019a6.576 6.576 0 0 1 3.28-5.691l6.889-3.99a6.58 6.58 0 0 1 6.593 0l6.889 3.99a6.575 6.575 0 0 1 3.28 5.691v8.019Z" fill="#F7FAFB" stroke="#DBDEE5" stroke-width="2" stroke-linecap="round" stroke-linejoin="round"/><path d="M466.541 146.441a2.815 2.815 0 0 1 2.813 0l5.408 3.117a2.808 2.808 0 0 1 1.406 2.432v6.235c0 1.003-.536 1.93-1.406 2.431l-5.408 3.118a2.82 2.82 0 0 1-2.813 0l-5.408-3.118a2.806 2.806 0 0 1-1.406-2.431v-6.235c0-1.003.536-1.93 1.406-2.432l5.408-3.117Z" fill="#E6EFF9"/><g filter="url(#b)" clip-path="url(#a)"><g clip-path="url(#c)"><rect x="124.699" y="70.642" width="271.152" height="898.777" rx="13.347" transform="rotate(-15 124.699 70.642)" fill="#fff"/><path d="m135.195 109.755 261.913-70.18 9.918 37.018-261.912 70.179-9.919-37.017Z" fill="#F7FAFB"/><g clip-path="url(#d)"><g clip-path="url(#e)" stroke="#8AC0F7" stroke-width="1.446" stroke-linecap="round" stroke-linejoin="round"><path d="m333.4 75.376-1.497-5.587M335.229 82.36l-.748-2.793M336.053 76.91a2.175 2.175 0 0 1-1.534 2.657 2.176 2.176 0 0 1-2.657-1.534c-.299-1.117.277-2.32 1.534-2.656 1.188-.319 2.339.346 2.657 1.533ZM325.973 75.92l2.227 8.312M327.518 73.194a2.175 2.175 0 0 0-2.657-1.534c-1.117.3-1.833 1.54-1.534 2.657a2.176 2.176 0 0 0 2.657 1.534 2.175 2.175 0 0 0 1.534-2.657Zm0 0c.019.07 0 0 0 0Z"/></g><path fill="#DBDEE5" d="m349.082 64.412.698-.187 3.743 13.968-.698.187z"/><path d="m366.479 67.233 12.223-3.275M370.972 59.484l3.275 12.223" stroke="#8AC0F7" stroke-width="1.446" stroke-linecap="round" stroke-linejoin="round"/></g><path d="m164.508 126.291-2.45-9.143 3.428-.919c.703-.188 1.327-.215 1.874-.081a2.715 2.715 0 0 1 1.374.79c.369.389.631.874.787 1.454.157.587.173 1.141.048 1.662a2.74 2.74 0 0 1-.806 1.369c-.412.388-.971.677-1.677.866l-2.272.609-.365-1.362 2.049-.549c.411-.11.728-.272.952-.485.223-.213.364-.461.422-.745a1.93 1.93 0 0 0-.039-.913 1.9 1.9 0 0 0-.421-.805 1.353 1.353 0 0 0-.74-.42c-.299-.069-.656-.049-1.069.062l-1.518.407 2.079 7.759-1.656.444Zm10.948-2.79c-.67.179-1.29.188-1.86.024a3.108 3.108 0 0 1-1.474-.93c-.41-.458-.71-1.041-.9-1.749-.189-.709-.222-1.365-.097-1.97a3.11 3.11 0 0 1 .811-1.547c.412-.426.953-.729 1.622-.909.67-.179 1.29-.187 1.86-.024.57.163 1.06.475 1.471.936.414.46.715 1.044.905 1.753.19.708.22 1.363.091 1.966a3.062 3.062 0 0 1-.807 1.541c-.412.427-.953.729-1.622.909Zm-.338-1.297c.363-.097.64-.279.83-.543.19-.268.299-.588.327-.959a3.445 3.445 0 0 0-.121-1.183 3.451 3.451 0 0 0-.488-1.089 1.856 1.856 0 0 0-.763-.671c-.299-.137-.629-.157-.992-.06-.372.1-.655.284-.848.553a1.908 1.908 0 0 0-.33.964c-.028.371.014.766.127 1.186.111.417.272.779.482 1.086a1.9 1.9 0 0 0 .767.666c.3.133.637.15 1.009.05Zm4.959-.085-1.837-6.857 1.567-.42.306 1.143.072-.019c.018-.43.151-.792.397-1.088.249-.299.569-.502.962-.607.089-.024.19-.046.303-.067.114-.024.211-.039.289-.044l.399 1.487a1.726 1.726 0 0 0-.343.025 3.006 3.006 0 0 0-.432.082 1.695 1.695 0 0 0-.744.405c-.198.187-.335.41-.409.669a1.53 1.53 0 0 0 .006.827l1.08 4.031-1.616.433Zm6.94-9.209.335 1.25-3.942 1.056-.335-1.25 3.942-1.056Zm-3.409-.848 1.616-.433 1.725 6.438c.058.217.136.375.232.474a.547.547 0 0 0 .33.16c.122.012.249 0 .383-.035.101-.028.192-.06.271-.097.082-.038.144-.069.186-.093l.61 1.191a3.742 3.742 0 0 1-.344.197 3.117 3.117 0 0 1-.563.218 2.72 2.72 0 0 1-1.143.11 1.759 1.759 0 0 1-.942-.427c-.265-.235-.453-.568-.564-.997l-1.797-6.706Zm8.234-.445.335 1.25-4.054 1.086-.335-1.25 4.054-1.086Zm-1.203 7.672-2.011-7.505c-.123-.461-.131-.87-.023-1.228a1.88 1.88 0 0 1 .593-.896 2.614 2.614 0 0 1 1.019-.517c.28-.075.534-.119.764-.133.229-.013.4-.016.514-.008l.014 1.336c-.074-.003-.166 0-.276.007-.111.004-.23.023-.358.057-.3.081-.494.211-.58.39-.083.176-.089.397-.018.665l1.983 7.398-1.621.434Zm7.075-1.752c-.67.179-1.289.187-1.859.024a3.11 3.11 0 0 1-1.475-.93c-.409-.458-.709-1.041-.899-1.75-.19-.708-.222-1.364-.097-1.969a3.1 3.1 0 0 1 .81-1.547c.412-.427.953-.729 1.623-.909.67-.179 1.289-.187 1.859-.024a3.062 3.062 0 0 1 1.471.936c.414.46.716 1.044.906 1.753.189.708.22 1.363.091 1.966a3.077 3.077 0 0 1-.807 1.541c-.412.426-.953.729-1.623.909Zm-.338-1.297c.363-.098.64-.279.831-.543.19-.268.299-.588.327-.959a3.445 3.445 0 0 0-.121-1.183 3.463 3.463 0 0 0-.488-1.089 1.859 1.859 0 0 0-.764-.671c-.298-.137-.629-.157-.992-.06-.372.1-.654.284-.847.552-.19.268-.3.59-.33.965-.028.371.014.766.126 1.186.112.417.273.779.483 1.086.213.307.468.528.766.665.301.134.637.15 1.009.051Zm4.126-9.661 2.45 9.143-1.616.433-2.45-9.143 1.616-.433Zm4.112 8.698-1.838-6.858 1.616-.433 1.838 6.857-1.616.434Zm-1.286-8.049a.975.975 0 0 1-.729-.077.85.85 0 0 1-.443-.547.84.84 0 0 1 .111-.694.963.963 0 0 1 .591-.436.953.953 0 0 1 .73.082c.23.12.378.302.443.546a.85.85 0 0 1-.11.695.965.965 0 0 1-.593.431Zm7.591 6.503c-.67.179-1.29.187-1.86.024a3.108 3.108 0 0 1-1.474-.93c-.41-.458-.71-1.041-.899-1.75-.19-.708-.223-1.365-.097-1.969a3.1 3.1 0 0 1 .81-1.547c.412-.427.953-.729 1.623-.909.669-.179 1.289-.188 1.859-.024.57.163 1.06.475 1.471.936.414.46.715 1.044.905 1.752.19.709.22 1.364.092 1.966a3.07 3.07 0 0 1-.808 1.542c-.412.426-.953.729-1.622.909Zm-.338-1.297c.363-.098.64-.279.83-.544a1.86 1.86 0 0 0 .327-.958 3.468 3.468 0 0 0-.12-1.183 3.465 3.465 0 0 0-.489-1.089 1.856 1.856 0 0 0-.763-.671c-.298-.137-.629-.157-.992-.06-.372.1-.655.284-.847.552-.19.268-.3.59-.331.964-.028.372.014.767.127 1.187.111.416.272.778.482 1.086.213.306.469.528.767.665.301.133.637.15 1.009.051ZM288.553 234.55c-.5.134-.968.167-1.402.1a2.308 2.308 0 0 1-1.109-.47 1.917 1.917 0 0 1-.641-.963l1.306-.35c.063.189.171.34.325.452.154.111.337.179.551.207.213.027.439.008.677-.055.255-.069.469-.173.642-.314.172-.143.293-.309.361-.499a.95.95 0 0 0 .015-.595.987.987 0 0 0-.319-.525 1.144 1.144 0 0 0-.596-.253 1.997 1.997 0 0 0-.808.067l-.629.169-.266-.993.629-.169c.247-.066.452-.167.615-.302.164-.136.279-.296.344-.48a.97.97 0 0 0 .01-.587.989.989 0 0 0-.276-.488.951.951 0 0 0-.479-.247 1.325 1.325 0 0 0-.614.03 1.6 1.6 0 0 0-.572.28 1.143 1.143 0 0 0-.358.457.886.886 0 0 0-.043.562l-1.239.332c-.098-.4-.077-.78.062-1.14.141-.363.374-.679.699-.947.325-.27.718-.467 1.178-.591.475-.127.911-.148 1.308-.064.399.082.735.246 1.007.494.272.247.456.551.553.912.11.4.082.767-.084 1.102a1.723 1.723 0 0 1-.789.78l.015.056c.519-.065.952.018 1.299.248.348.226.581.562.698 1.007.106.398.088.785-.054 1.161a2.326 2.326 0 0 1-.734.985c-.345.284-.773.494-1.282.631Zm4.81-2.436.057.395c.046.3.067.612.065.935 0 .325-.011.627-.033.906a27.16 27.16 0 0 1-.058.659l-.847.227-.023-.612a14.411 14.411 0 0 0-.053-.864 8.434 8.434 0 0 0-.139-.952l-.08-.396 1.111-.298Zm1.172-.686-.274-1.024 1.74-5.576.854-.229.391 1.458-.521.14-1.169 3.763.015.056 4.212-1.129.284 1.059-5.532 1.482Zm3.746.411-.437-1.632-.109-.462-1.345-5.021 1.215-.326 1.906 7.111-1.23.33Zm5.914-1.44c-.572.154-1.102.14-1.589-.039-.485-.183-.912-.519-1.279-1.009-.365-.492-.651-1.126-.859-1.902-.206-.776-.272-1.465-.201-2.067.074-.606.276-1.106.606-1.503.333-.396.784-.671 1.354-.824.569-.152 1.097-.14 1.584.037.487.178.912.51 1.276.998.366.488.653 1.118.86 1.891.209.778.277 1.472.204 2.082-.07.607-.272 1.11-.604 1.509-.33.398-.781.674-1.352.827Zm-.292-1.087c.445-.119.737-.431.877-.938.141-.509.097-1.191-.131-2.045-.152-.565-.338-1.024-.559-1.376-.221-.353-.465-.597-.733-.734a1.138 1.138 0 0 0-.843-.091c-.442.119-.732.432-.871.941-.14.506-.098 1.183.127 2.031.15.568.334 1.03.553 1.385.222.355.467.602.735.741.267.137.549.166.845.086Zm4.218-.11 1.421-6.797-.013-.048-3.511.94-.288-1.076 4.843-1.298.295 1.101-1.41 6.82-1.337.358Zm5.065-1.275a.771.771 0 0 1-.601-.077.749.749 0 0 1-.368-.482.742.742 0 0 1 .079-.595.772.772 0 0 1 .483-.367.754.754 0 0 1 .59.08.752.752 0 0 1 .368.887.824.824 0 0 1-.203.353.751.751 0 0 1-.348.201Zm2.46-8.467a3.014 3.014 0 0 1 1.041-.086c.355.029.698.141 1.028.335.329.192.629.488.9.887.27.399.493.922.666 1.57.166.611.248 1.175.245 1.691a3.746 3.746 0 0 1-.234 1.365 2.55 2.55 0 0 1-.675.993 2.615 2.615 0 0 1-1.087.57 2.7 2.7 0 0 1-1.265.056 2.312 2.312 0 0 1-1.03-.498 2.374 2.374 0 0 1-.674-.943l1.268-.34c.14.265.332.454.576.568.246.11.521.124.827.042.493-.132.815-.447.966-.947.152-.5.126-1.13-.078-1.892l-.049.013c-.059.234-.159.45-.3.646a2.072 2.072 0 0 1-.524.502 2.271 2.271 0 0 1-.691.311 2.222 2.222 0 0 1-1.205.003 2.251 2.251 0 0 1-1.007-.608 2.527 2.527 0 0 1-.611-1.113 2.533 2.533 0 0 1-.015-1.332c.116-.428.338-.8.665-1.116.327-.318.748-.544 1.263-.677Zm.282 1.041a1.32 1.32 0 0 0-.628.365 1.36 1.36 0 0 0-.34.62c-.058.236-.053.482.015.736.07.252.188.466.355.642a1.302 1.302 0 0 0 1.315.366 1.327 1.327 0 0 0 .839-.66c.088-.163.143-.335.166-.517a1.323 1.323 0 0 0-.038-.548 1.41 1.41 0 0 0-.355-.627 1.375 1.375 0 0 0-.601-.371 1.268 1.268 0 0 0-.728-.006Zm8.019 4.565a2.96 2.96 0 0 1-1.313.072 2.292 2.292 0 0 1-1.065-.488 1.978 1.978 0 0 1-.621-.958l1.25-.335c.101.286.291.49.57.614.278.122.578.139.9.053a1.36 1.36 0 0 0 .627-.354c.166-.169.278-.371.336-.607a1.465 1.465 0 0 0-.022-.75 1.477 1.477 0 0 0-.362-.67 1.317 1.317 0 0 0-.607-.362 1.38 1.38 0 0 0-.743.006 1.7 1.7 0 0 0-.596.286 1.325 1.325 0 0 0-.404.451l-1.215.121-.611-3.767 4.125-1.105.289 1.076-3.059.82.3 1.94.042-.011c.09-.19.242-.369.455-.535.213-.169.463-.292.75-.368a2.243 2.243 0 0 1 2.257.616c.289.302.495.681.617 1.137.126.47.13.918.011 1.344-.118.424-.34.792-.668 1.106-.326.31-.74.533-1.243.668Zm6.268-1.68c-.5.134-.968.168-1.403.101a2.318 2.318 0 0 1-1.108-.47 1.921 1.921 0 0 1-.641-.963l1.305-.35c.063.189.172.34.326.452.154.11.337.179.55.206.214.028.439.009.678-.055.255-.068.468-.172.642-.313.172-.143.293-.309.361-.499a.96.96 0 0 0 .015-.596.99.99 0 0 0-.319-.524 1.153 1.153 0 0 0-.596-.254 1.998 1.998 0 0 0-.808.068l-.629.168-.266-.993.628-.168c.248-.067.453-.167.615-.303.165-.135.28-.295.345-.479a.97.97 0 0 0 .01-.587.984.984 0 0 0-.276-.488.946.946 0 0 0-.48-.247 1.295 1.295 0 0 0-.613.03 1.576 1.576 0 0 0-.572.28 1.128 1.128 0 0 0-.358.457.886.886 0 0 0-.043.562l-1.24.332c-.097-.4-.076-.781.063-1.141a2.3 2.3 0 0 1 .699-.946 3.03 3.03 0 0 1 1.178-.591c.475-.127.91-.148 1.308-.064.399.082.734.246 1.006.493.273.247.457.552.554.913.109.4.081.767-.084 1.102a1.723 1.723 0 0 1-.789.78l.015.056c.519-.065.952.018 1.298.247.349.227.582.563.698 1.008a1.85 1.85 0 0 1-.053 1.161 2.34 2.34 0 0 1-.734.985c-.345.284-.773.494-1.282.63Zm3.791-1.12-.25-.93 1.821-3.082c.172-.302.312-.566.42-.794.107-.227.177-.438.21-.633.032-.194.022-.39-.031-.587a1.089 1.089 0 0 0-.307-.535 1.052 1.052 0 0 0-.521-.263 1.403 1.403 0 0 0-.643.031 1.294 1.294 0 0 0-.576.311 1.04 1.04 0 0 0-.3.516c-.048.201-.04.423.026.666l-1.226.329c-.121-.452-.123-.872-.007-1.26.117-.389.332-.723.644-1.002a2.829 2.829 0 0 1 1.176-.61c.477-.128.92-.151 1.329-.069.409.081.754.25 1.036.507.285.257.481.584.587.982.072.266.091.541.058.826-.033.284-.136.617-.31.998-.17.381-.427.855-.768 1.423l-.892 1.575.013.049 3.097-.83.289 1.076-4.875 1.306Zm8.651-2.214c-.5.134-.968.168-1.402.101a2.318 2.318 0 0 1-1.109-.47 1.917 1.917 0 0 1-.641-.963l1.306-.35c.063.189.171.34.325.452.154.111.337.179.551.206.213.028.439.009.677-.055a1.69 1.69 0 0 0 .642-.313c.172-.143.293-.309.361-.499a.95.95 0 0 0 .015-.595.987.987 0 0 0-.319-.525 1.153 1.153 0 0 0-.596-.254 1.999 1.999 0 0 0-.808.068l-.629.168-.266-.993.629-.168c.247-.066.452-.167.615-.302.164-.136.279-.296.344-.48a.97.97 0 0 0 .01-.587.989.989 0 0 0-.276-.488.943.943 0 0 0-.479-.247 1.312 1.312 0 0 0-.614.03 1.584 1.584 0 0 0-.572.28 1.137 1.137 0 0 0-.358.457.886.886 0 0 0-.043.562l-1.239.332c-.098-.4-.077-.781.062-1.14.141-.363.374-.679.699-.947.325-.27.718-.467 1.178-.591.475-.127.911-.148 1.308-.064a2.09 2.09 0 0 1 1.007.493c.272.248.456.552.553.913.11.4.082.767-.084 1.102a1.723 1.723 0 0 1-.789.78l.015.056c.519-.065.952.018 1.299.247.348.227.581.563.698 1.008.106.398.088.785-.054 1.161a2.332 2.332 0 0 1-.734.985c-.345.284-.773.494-1.282.63Zm6.456-1.688c-.572.153-1.102.14-1.589-.04-.485-.182-.912-.519-1.279-1.008-.365-.493-.651-1.127-.859-1.902-.206-.777-.272-1.466-.201-2.068.074-.605.276-1.106.606-1.502.333-.397.784-.672 1.354-.824.569-.153 1.097-.141 1.584.037.487.177.912.51 1.276.998.366.487.653 1.117.86 1.89.209.778.277 1.472.204 2.082-.07.607-.272 1.11-.604 1.509-.33.398-.781.674-1.352.828Zm-.292-1.087c.445-.119.737-.432.877-.938.141-.51.097-1.191-.131-2.046-.152-.565-.338-1.023-.559-1.376-.221-.353-.465-.597-.733-.734a1.133 1.133 0 0 0-.843-.09c-.442.118-.732.432-.872.94-.139.507-.097 1.184.128 2.032.15.567.334 1.029.553 1.385.222.355.467.602.735.741.267.136.549.165.845.086Zm3.667-1.377-.275-1.024 1.74-5.576.854-.229.391 1.458-.521.14-1.168 3.763.014.055 4.212-1.128.284 1.059-5.531 1.482Zm3.746.41-.438-1.632-.109-.462-1.345-5.021 1.215-.325 1.906 7.111-1.229.329Zm6.656-1.783-1.375.368.598-7.782 1.59-.426 4.413 6.439-1.375.369-3.414-5.144-.056.015-.381 6.161Zm-.702-2.801 3.75-1.004.278 1.034-3.751 1.005-.277-1.035Zm6.865 1.15-1.906-7.112 2.667-.714c.546-.147 1.03-.175 1.451-.084.424.09.776.281 1.058.572.283.289.486.661.607 1.114.123.456.131.878.027 1.266a1.99 1.99 0 0 1-.643 1.002c-.327.281-.763.495-1.31.641l-1.899.509-.287-1.069 1.726-.463c.319-.085.569-.199.749-.342a.97.97 0 0 0 .347-.513c.053-.2.045-.427-.022-.679a1.354 1.354 0 0 0-.323-.606.98.98 0 0 0-.564-.288c-.229-.04-.505-.017-.827.069l-1.18.316 1.617 6.035-1.288.346Zm2.81-4.207 2.624 2.75-1.438.386-2.592-2.759 1.406-.377Zm3.549 2.502-1.905-7.111 1.288-.345.875 3.267.087-.023 1.899-4.011 1.573-.421-1.895 3.928 3.825 3.177-1.549.415-2.938-2.481-.539 1.142.567 2.118-1.288.345Z" fill="#212225"/><path d="M333.298 239.763a2.546 2.546 0 0 1-1.126.062 1.971 1.971 0 0 1-.912-.419 1.695 1.695 0 0 1-.533-.821l1.071-.287c.087.245.25.42.489.526.239.104.496.12.772.046.216-.058.395-.159.537-.304.142-.144.238-.318.288-.52.05-.203.044-.417-.019-.643a1.264 1.264 0 0 0-.31-.574 1.132 1.132 0 0 0-.52-.31 1.179 1.179 0 0 0-.637.004 1.469 1.469 0 0 0-.512.246 1.14 1.14 0 0 0-.346.386l-1.041.104-.524-3.229 3.536-.947.248.923-2.623.702.258 1.663.036-.009c.077-.163.207-.316.39-.459.183-.145.397-.25.643-.316a1.917 1.917 0 0 1 1.934.528c.248.259.425.584.529.975.108.403.111.787.009 1.152-.1.363-.291.679-.572.948-.28.266-.635.457-1.065.573Zm4.011-2.058.049.338c.039.257.058.525.055.802.001.278-.009.537-.028.776-.019.239-.035.427-.049.565l-.726.195-.02-.525a12.288 12.288 0 0 0-.045-.74 7.218 7.218 0 0 0-.12-.817l-.068-.339.952-.255Zm1.789-6.208a2.6 2.6 0 0 1 .892-.074c.305.025.598.121.881.288.283.164.54.418.772.759.232.342.422.791.571 1.347.142.523.212 1.006.21 1.449a3.23 3.23 0 0 1-.2 1.17c-.133.34-.326.623-.58.851-.253.227-.564.39-.931.489a2.314 2.314 0 0 1-1.084.048 1.992 1.992 0 0 1-1.461-1.236l1.087-.291c.12.227.285.389.494.487.21.094.446.106.708.036.423-.113.699-.384.829-.812.13-.428.107-.969-.068-1.621l-.041.011c-.051.2-.136.385-.257.553-.121.167-.271.31-.45.43-.176.12-.373.209-.592.267a1.908 1.908 0 0 1-1.033.003 1.937 1.937 0 0 1-.863-.522 2.164 2.164 0 0 1-.524-.954 2.168 2.168 0 0 1-.012-1.141c.099-.367.289-.686.57-.957.279-.273.64-.466 1.082-.58Zm.242.892a1.13 1.13 0 0 0-.538.313c-.143.149-.24.326-.292.531-.05.203-.045.413.013.632.06.215.161.399.304.55.144.15.314.255.508.313.197.058.403.058.619 0a1.148 1.148 0 0 0 .719-.566 1.245 1.245 0 0 0 .11-.912 1.196 1.196 0 0 0-.304-.538 1.184 1.184 0 0 0-.516-.318 1.09 1.09 0 0 0-.623-.005Zm7.016 3.91c-.49.131-.944.12-1.362-.034-.416-.157-.781-.445-1.096-.864-.313-.423-.558-.966-.736-1.631-.177-.665-.234-1.256-.172-1.772.063-.519.236-.948.519-1.288.286-.34.672-.575 1.16-.706.488-.131.941-.12 1.358.032.417.152.782.437 1.094.855.314.418.56.958.737 1.621.179.666.237 1.261.175 1.784-.06.52-.233.951-.518 1.293-.282.342-.669.578-1.159.71Zm-.25-.932c.381-.102.632-.37.752-.804.121-.437.083-1.021-.113-1.753-.13-.484-.289-.877-.479-1.18-.189-.302-.398-.512-.628-.629a.968.968 0 0 0-.722-.077c-.379.101-.628.37-.748.806-.119.434-.083 1.014.11 1.741.128.487.286.882.474 1.187.19.304.4.516.63.635.229.118.47.142.724.074Zm4.402-6.838 1.633 6.095-1.104.296-1.345-5.021-.036.01-1.182 1.292-.271-1.012 1.254-1.379 1.051-.281Zm3.539 5.655a.666.666 0 0 1-.516-.066.64.64 0 0 1-.315-.414.634.634 0 0 1 .068-.509.666.666 0 0 1 .413-.315.648.648 0 0 1 .507.069.649.649 0 0 1 .315.76.705.705 0 0 1-.174.302.644.644 0 0 1-.298.173Zm2.108-7.258a2.6 2.6 0 0 1 .892-.073c.305.025.598.121.881.287.283.165.54.418.772.76.232.342.422.791.571 1.346.142.524.212 1.007.21 1.45-.001.44-.068.83-.2 1.17a2.194 2.194 0 0 1-.58.85 2.223 2.223 0 0 1-.931.489 2.314 2.314 0 0 1-1.084.048 1.981 1.981 0 0 1-.883-.427 2.034 2.034 0 0 1-.578-.808l1.087-.291c.12.227.285.389.494.486.21.095.446.107.708.037.423-.113.699-.384.829-.812.13-.429.107-.969-.068-1.622l-.041.011a1.63 1.63 0 0 1-.257.554c-.121.166-.271.31-.45.43a1.956 1.956 0 0 1-.592.267 1.904 1.904 0 0 1-1.032.002 1.923 1.923 0 0 1-.864-.521 2.175 2.175 0 0 1-.524-.954 2.172 2.172 0 0 1-.012-1.142c.099-.367.289-.686.57-.956.279-.273.64-.467 1.082-.581Zm.242.892a1.132 1.132 0 0 0-.538.314c-.143.149-.24.326-.292.531-.05.202-.045.413.013.631.06.216.161.399.304.55.145.151.314.255.508.314.197.058.403.058.619 0a1.135 1.135 0 0 0 .719-.566 1.245 1.245 0 0 0 .11-.913 1.198 1.198 0 0 0-.304-.537 1.175 1.175 0 0 0-.516-.318 1.098 1.098 0 0 0-.623-.006Zm6.873 3.913a2.528 2.528 0 0 1-1.125.063 1.975 1.975 0 0 1-.913-.419 1.693 1.693 0 0 1-.532-.821l1.071-.287c.087.245.25.42.489.526.238.104.495.119.771.046.216-.058.396-.16.538-.304.142-.144.238-.318.288-.521.05-.202.043-.416-.019-.642a1.256 1.256 0 0 0-.311-.574 1.118 1.118 0 0 0-.52-.31 1.175 1.175 0 0 0-.636.004 1.46 1.46 0 0 0-.512.246 1.14 1.14 0 0 0-.346.386l-1.041.104-.524-3.229 3.536-.947.247.923-2.622.702.257 1.663.036-.009c.078-.164.208-.316.391-.459.182-.145.396-.25.643-.316a1.917 1.917 0 0 1 1.934.528c.248.259.424.584.529.975.108.403.111.787.009 1.152a2.054 2.054 0 0 1-.572.948c-.28.266-.635.457-1.066.572Zm7.51-8.634 1.104-.296 1.067 3.982c.117.437.117.848 0 1.235a2.17 2.17 0 0 1-.655 1.008c-.322.284-.731.492-1.227.625-.498.134-.957.158-1.378.073a2.16 2.16 0 0 1-1.071-.546 2.224 2.224 0 0 1-.615-1.069l-1.067-3.983 1.104-.295 1.042 3.889c.068.254.185.466.349.634.166.169.367.282.601.34.234.056.491.047.771-.028s.507-.195.682-.361c.176-.168.293-.367.351-.595a1.412 1.412 0 0 0-.015-.723l-1.043-3.89Zm6.066.17a.843.843 0 0 0-.514-.513c-.243-.09-.528-.091-.856-.003-.23.061-.418.149-.564.263a.898.898 0 0 0-.302.384.705.705 0 0 0-.025.443c.034.127.092.23.175.308a.818.818 0 0 0 .305.173c.118.036.245.06.379.071.135.01.269.014.402.01l.61-.01a4.11 4.11 0 0 1 .721.039c.239.034.462.098.667.192.208.093.388.224.54.394.152.17.263.387.334.651.095.357.088.696-.021 1.017-.11.318-.318.6-.622.846-.303.242-.698.429-1.187.56-.474.127-.905.164-1.294.111a1.896 1.896 0 0 1-.987-.425c-.27-.229-.468-.544-.592-.945l1.086-.291a.957.957 0 0 0 .339.477c.153.11.331.175.534.195.205.02.423-.001.653-.063.24-.064.441-.156.602-.276.163-.123.279-.262.347-.419a.756.756 0 0 0 .035-.5.603.603 0 0 0-.245-.356 1.078 1.078 0 0 0-.454-.159 3.808 3.808 0 0 0-.623-.037l-.741.007c-.536.006-.986-.083-1.348-.267-.36-.186-.599-.498-.716-.934a1.63 1.63 0 0 1 .039-1.022 2 2 0 0 1 .633-.843 2.886 2.886 0 0 1 1.085-.533c.432-.116.832-.142 1.197-.078.368.061.68.199.938.415.257.214.435.492.533.834l-1.063.284Zm5.38 3.296-2.065.553-1.634-6.095 2.108-.565c.605-.162 1.157-.179 1.657-.051.502.125.93.383 1.286.775.356.391.619.904.788 1.537.171.634.199 1.212.085 1.731-.112.519-.356.96-.734 1.323-.375.362-.872.626-1.491.792Zm-1.217-.698.908-.243c.424-.114.758-.286 1-.517.242-.233.393-.523.453-.871.059-.35.026-.758-.099-1.224-.125-.466-.3-.834-.525-1.103a1.51 1.51 0 0 0-.82-.524c-.319-.08-.685-.065-1.098.045l-.94.252 1.121 4.185Z" fill="#A5ADB9"/><rect x="196.342" y="248.341" width="31.815" height="31.815" rx="8.677" transform="rotate(-15 196.342 248.341)" fill="#E6EFF9"/><path fill-rule="evenodd" clip-rule="evenodd" d="m215.251 257.337-6.047 11.079 4.777-15.82 11.985 11.328-10.715-6.587Zm-1.919 7.409.85-1.953 4.635-1.242 1.712 1.267-7.197 1.928Zm.948-2.838 1.386-2.917 2.632 1.841-4.018 1.076Z" fill="#235B95"/><rect x="420.895" y="220.361" width="23.138" height="30.369" rx="6.508" transform="rotate(165 420.895 220.361)" fill="#fff"/><g clip-path="url(#f)"><path d="m403.385 210.764 1.943-3.365c.051-.089.191-.126.279-.075l3.365 1.943" stroke="#637282" stroke-width="1.446" stroke-linecap="round" stroke-linejoin="round"/></g><rect x="420.895" y="220.361" width="23.138" height="30.369" rx="6.508" transform="rotate(165 420.895 220.361)" stroke="#E6EFF9" stroke-width="1.446" stroke-linejoin="round"/><rect x="208.235" y="290.645" width="223.763" height="105.902" rx="8.121" transform="rotate(-15 208.235 290.645)" fill="#F7FAFB" stroke="#DBDEE5" stroke-width="1.112" stroke-dasharray="2.22 2.22"/><path fill="#F7FAFB" d="m145.133 146.772 261.913-70.18 24.328 90.797-261.912 70.18z"/><path d="m171.375 154.448 1.454-.39 2.583 2.68.069-.019.897-3.612 1.455-.39-1.392 5.152.711 2.653-1.285.344-.711-2.653-3.781-3.765Zm10.582 4.898c-.521.14-1.003.146-1.447.019a2.42 2.42 0 0 1-1.146-.723c-.319-.357-.552-.81-.7-1.361-.147-.551-.173-1.062-.075-1.532.099-.471.309-.872.63-1.203.32-.332.741-.567 1.262-.707s1.003-.146 1.446-.019a2.38 2.38 0 0 1 1.144.728c.322.358.557.812.704 1.363.148.551.172 1.061.071 1.529a2.386 2.386 0 0 1-.627 1.199c-.321.332-.742.568-1.262.707Zm-.263-1.009c.282-.075.498-.216.646-.422.147-.208.232-.457.254-.746a2.684 2.684 0 0 0-.094-.92 2.674 2.674 0 0 0-.38-.847 1.449 1.449 0 0 0-.593-.522 1.107 1.107 0 0 0-.772-.046c-.289.077-.509.22-.659.429a1.481 1.481 0 0 0-.257.75c-.022.289.011.596.099.923.086.324.211.606.375.845.165.238.364.411.596.517.234.104.495.117.785.039Zm6.656-3.22-.828-3.09 1.257-.337 1.429 5.334-1.219.326-.254-.948-.056.015c-.04.331-.173.628-.397.892-.222.263-.534.448-.934.555-.35.094-.68.099-.99.016a1.673 1.673 0 0 1-.808-.516c-.231-.261-.404-.604-.518-1.03l-.91-3.396 1.257-.337.858 3.201c.09.338.255.582.494.732.238.149.508.183.809.103.185-.05.352-.143.502-.28.149-.137.256-.309.319-.517.065-.211.061-.452-.011-.723Zm3.15 1.56-1.429-5.333 1.219-.327.238.889.056-.015a1.37 1.37 0 0 1 .309-.846c.193-.232.442-.39.748-.472a3.297 3.297 0 0 1 .461-.086l.309 1.156a1.408 1.408 0 0 0-.266.02c-.118.014-.23.035-.336.064-.23.061-.422.166-.578.315a1.129 1.129 0 0 0-.319.52c-.057.202-.056.416.005.643l.84 3.135-1.257.337Zm6.358-1.703-1.905-7.112 2.722-.729c.514-.138.963-.171 1.346-.1.386.068.7.218.943.45.246.232.416.524.511.876.077.289.088.552.032.788a1.459 1.459 0 0 1-.315.616 1.952 1.952 0 0 1-.555.443l.019.069c.256-.053.518-.041.788.039.271.076.514.221.731.436.216.215.373.503.47.864.098.369.098.723-.002 1.065-.1.34-.307.642-.62.907-.314.265-.742.471-1.286.616l-2.879.772Zm1-1.422 1.385-.371c.468-.125.781-.305.939-.538a.91.91 0 0 0 .127-.778 1.108 1.108 0 0 0-.862-.812 1.532 1.532 0 0 0-.727.035l-1.42.381.558 2.083Zm-.807-3.01 1.274-.342a1.49 1.49 0 0 0 .569-.282 1.05 1.05 0 0 0 .326-.464.97.97 0 0 0 .011-.583.917.917 0 0 0-.474-.603c-.24-.126-.55-.139-.929-.037l-1.303.349.526 1.962Zm7.741 2.421a2.29 2.29 0 0 1-.961.064 1.543 1.543 0 0 1-.784-.37c-.219-.197-.375-.47-.469-.82-.081-.301-.092-.565-.034-.791.059-.227.168-.425.329-.594.16-.17.353-.317.577-.442.227-.127.466-.24.718-.337.304-.116.549-.213.737-.291.187-.079.317-.159.39-.238.075-.082.096-.183.064-.304l-.006-.021c-.07-.261-.202-.443-.395-.545-.194-.102-.436-.114-.728-.036-.308.083-.534.216-.679.398-.142.182-.22.373-.233.573l-1.219.147c.006-.348.086-.66.241-.935.154-.277.37-.511.649-.702.278-.194.604-.341.976-.441a3.49 3.49 0 0 1 .792-.115c.271-.008.53.029.778.112.247.08.466.221.657.423.192.201.336.479.431.833l.957 3.57-1.209.324-.196-.733-.042.011a1.572 1.572 0 0 1-.646.951 2.134 2.134 0 0 1-.695.309Zm.079-1.011c.253-.068.458-.176.617-.325.158-.152.264-.324.319-.517.057-.194.059-.39.007-.587l-.169-.628a.618.618 0 0 1-.177.144 2.898 2.898 0 0 1-.293.157c-.11.052-.22.101-.329.148l-.284.12a2.314 2.314 0 0 0-.47.26.859.859 0 0 0-.285.337.613.613 0 0 0-.023.43c.062.232.193.384.394.457.201.073.432.074.693.004Zm3.324-7.638 1.906 7.111-1.257.337-1.906-7.111 1.257-.337Zm4.762 6.461a2.313 2.313 0 0 1-.962.065 1.548 1.548 0 0 1-.784-.371c-.219-.197-.375-.47-.469-.82-.08-.301-.092-.564-.033-.791a1.34 1.34 0 0 1 .328-.594c.161-.169.353-.317.578-.441.226-.128.465-.24.717-.338.304-.116.55-.213.737-.29.187-.08.317-.16.39-.239.075-.082.096-.183.064-.303l-.005-.021c-.071-.262-.202-.443-.396-.545-.194-.102-.436-.114-.728-.036-.308.082-.534.215-.678.398a1.024 1.024 0 0 0-.234.572l-1.218.148c.005-.349.086-.661.24-.936.154-.277.371-.511.649-.702.278-.194.604-.34.977-.44.256-.069.52-.107.791-.115.271-.009.53.029.778.111.247.08.466.221.657.423.193.202.337.479.432.834l.956 3.569-1.208.324-.197-.733-.041.011a1.58 1.58 0 0 1-.646.951 2.143 2.143 0 0 1-.695.309Zm.079-1.011c.252-.067.457-.176.616-.325.158-.151.264-.324.319-.517.057-.194.06-.389.007-.586l-.169-.629a.606.606 0 0 1-.177.145 3.12 3.12 0 0 1-.293.156c-.11.052-.22.101-.329.148l-.284.121c-.18.075-.337.162-.47.26a.862.862 0 0 0-.285.337.613.613 0 0 0-.023.43c.062.231.194.384.394.456.201.073.432.074.694.004Zm4.392-3.651.837 3.125-1.257.337-1.429-5.334 1.201-.322.243.906.063-.016c.042-.332.174-.622.396-.869.223-.249.534-.427.932-.533.369-.099.71-.106 1.026-.022.317.084.591.255.822.513.233.258.405.6.517 1.026l.91 3.396-1.257.337-.858-3.201c-.096-.357-.263-.611-.502-.763-.237-.152-.518-.185-.842-.098-.22.059-.402.16-.547.303-.144.14-.24.314-.289.52-.046.206-.035.438.034.695Zm7.893 1.346c-.533.142-1.021.148-1.466.017a2.436 2.436 0 0 1-1.138-.734c-.315-.36-.544-.809-.689-1.349-.145-.541-.169-1.047-.071-1.517.096-.473.303-.876.621-1.209.319-.336.739-.574 1.26-.713a2.73 2.73 0 0 1 1.214-.069c.378.068.705.219.981.455.276.234.48.539.611.916l-1.202.322a1.182 1.182 0 0 0-.519-.549c-.227-.125-.493-.147-.796-.066a1.174 1.174 0 0 0-.621.39 1.378 1.378 0 0 0-.297.712c-.037.285-.008.607.088.966.097.364.234.662.411.895.176.231.379.391.609.481.232.086.478.095.74.025.185-.05.341-.129.468-.238.129-.111.226-.247.289-.408.064-.161.088-.343.074-.545l1.201-.322c.071.386.05.75-.064 1.093a2.047 2.047 0 0 1-.603.891c-.287.251-.654.436-1.101.556Zm5.678-1.522c-.535.144-1.026.156-1.475.038a2.334 2.334 0 0 1-1.147-.712c-.319-.356-.553-.813-.703-1.371-.147-.549-.171-1.058-.074-1.528.099-.474.306-.876.621-1.209.315-.335.727-.571 1.236-.707a2.8 2.8 0 0 1 .974-.09c.322.026.624.118.908.278.286.159.539.391.76.697.22.303.393.689.518 1.156l.103.386-4.372 1.171-.227-.847 3.167-.849a1.4 1.4 0 0 0-.328-.6 1.176 1.176 0 0 0-.547-.334 1.253 1.253 0 0 0-.676.006 1.27 1.27 0 0 0-.627.369c-.161.175-.27.378-.324.608-.054.228-.049.461.012.7l.198.74a1.8 1.8 0 0 0 .385.753c.172.19.376.316.611.38.235.061.489.055.762-.019.183-.049.341-.118.476-.209.134-.093.242-.205.323-.336a.993.993 0 0 0 .145-.444l1.209-.183c.009.33-.059.639-.206.926-.144.284-.36.533-.648.747-.288.211-.64.372-1.054.483Z" fill="#A5ADB9"/><path d="M181.677 179.18c-.572.153-1.106.191-1.603.114a2.643 2.643 0 0 1-1.267-.536 2.203 2.203 0 0 1-.733-1.101l1.492-.4c.073.216.197.388.373.517.175.126.385.204.629.235.243.032.502.011.774-.062.291-.078.535-.198.733-.359.198-.163.335-.353.413-.57.078-.216.084-.443.018-.681a1.133 1.133 0 0 0-.365-.599 1.321 1.321 0 0 0-.682-.29 2.277 2.277 0 0 0-.923.078l-.718.192-.304-1.135.718-.192c.283-.076.517-.191.703-.346.188-.155.319-.338.393-.548a1.11 1.11 0 0 0 .012-.671 1.116 1.116 0 0 0-.316-.557 1.075 1.075 0 0 0-.548-.283 1.498 1.498 0 0 0-.701.034 1.833 1.833 0 0 0-.654.32 1.298 1.298 0 0 0-.409.523 1.012 1.012 0 0 0-.049.642l-1.416.38a2.132 2.132 0 0 1 .071-1.304 2.63 2.63 0 0 1 .799-1.082c.371-.309.82-.534 1.346-.675.543-.145 1.041-.17 1.495-.073.456.093.839.281 1.15.564.311.282.522.63.633 1.042.125.457.093.877-.097 1.26a1.969 1.969 0 0 1-.9.892l.017.063c.592-.074 1.087.021 1.483.283.399.259.664.643.798 1.152.122.455.101.897-.061 1.326-.161.426-.441.802-.839 1.126-.395.325-.883.565-1.465.721Zm3.781-2.749-.313-1.171 1.988-6.372.976-.262.447 1.667-.595.159-1.336 4.301.017.064 4.814-1.29.324 1.21-6.322 1.694Zm4.281.469-.499-1.865-.125-.528-1.537-5.738 1.389-.372 2.177 8.127-1.405.376Zm4.888-2.5.066.45c.052.343.077.7.073 1.069.001.371-.012.716-.037 1.035-.025.319-.047.57-.066.754l-.968.259-.026-.699a16.375 16.375 0 0 0-.06-.988 9.709 9.709 0 0 0-.16-1.088l-.092-.452 1.27-.34Zm1.891.684-.285-1.064 2.081-3.522c.197-.345.357-.647.48-.907a2.78 2.78 0 0 0 .24-.723 1.573 1.573 0 0 0-.035-.671 1.237 1.237 0 0 0-.352-.612 1.2 1.2 0 0 0-.595-.3 1.605 1.605 0 0 0-.734.035c-.268.072-.487.19-.658.355a1.185 1.185 0 0 0-.344.59c-.055.23-.045.484.03.762l-1.401.375c-.138-.516-.141-.996-.007-1.44.133-.444.378-.826.735-1.145.359-.321.807-.553 1.344-.697.545-.146 1.051-.172 1.519-.079.467.093.862.286 1.184.58.326.293.549.667.671 1.122.082.304.104.619.066.943-.038.325-.156.706-.354 1.141-.195.436-.488.978-.878 1.627l-1.019 1.8.015.055 3.539-.948.33 1.23-5.572 1.493Zm9.796-2.506a3.375 3.375 0 0 1-1.5.083 2.62 2.62 0 0 1-1.217-.558 2.258 2.258 0 0 1-.71-1.095l1.428-.382c.116.326.333.56.652.701a1.52 1.52 0 0 0 1.028.061 1.55 1.55 0 0 0 .717-.405c.189-.193.317-.424.384-.694.066-.27.058-.556-.025-.857a1.686 1.686 0 0 0-.414-.765 1.498 1.498 0 0 0-.694-.414 1.567 1.567 0 0 0-.848.006 1.96 1.96 0 0 0-.683.328c-.21.155-.364.327-.461.515l-1.388.138-.698-4.305 4.714-1.263.33 1.23-3.497.937.344 2.217.047-.012c.104-.218.277-.422.521-.612a2.33 2.33 0 0 1 .857-.421 2.563 2.563 0 0 1 2.579.704c.331.345.566.779.706 1.3.144.537.148 1.049.012 1.536a2.741 2.741 0 0 1-.763 1.264c-.373.355-.847.609-1.421.763Zm7.163-1.919c-.571.153-1.105.191-1.602.114a2.635 2.635 0 0 1-1.267-.536 2.196 2.196 0 0 1-.733-1.101l1.492-.4c.072.216.196.388.372.517.176.126.386.204.629.236.244.031.502.01.775-.063.291-.078.535-.198.733-.358.197-.164.335-.354.413-.57a1.09 1.09 0 0 0 .017-.681 1.132 1.132 0 0 0-.365-.6 1.318 1.318 0 0 0-.681-.29 2.28 2.28 0 0 0-.924.078l-.718.192-.304-1.135.718-.192a1.81 1.81 0 0 0 .703-.346c.188-.155.319-.338.393-.548.074-.212.078-.436.012-.671a1.12 1.12 0 0 0-.315-.557 1.075 1.075 0 0 0-.548-.283 1.486 1.486 0 0 0-.701.035 1.799 1.799 0 0 0-.654.319 1.298 1.298 0 0 0-.409.523 1.006 1.006 0 0 0-.049.642l-1.417.38a2.14 2.14 0 0 1 .072-1.304c.161-.415.427-.775.799-1.082a3.472 3.472 0 0 1 1.346-.675c.542-.145 1.04-.17 1.494-.073.456.093.84.281 1.151.564.311.282.522.63.632 1.042.126.457.094.877-.096 1.26a1.971 1.971 0 0 1-.901.892l.017.063c.593-.074 1.087.021 1.484.283.398.259.664.643.797 1.152.122.455.102.897-.061 1.326a2.67 2.67 0 0 1-.838 1.127c-.395.324-.884.564-1.466.72Zm5.017-1.37a.88.88 0 0 1-.687-.088.847.847 0 0 1-.42-.551.838.838 0 0 1 .09-.679.878.878 0 0 1 .551-.42.868.868 0 0 1 .675.091c.22.123.363.303.43.54a.947.947 0 0 1-.241.877.858.858 0 0 1-.398.23Zm2.352-.724 1.624-7.768-.015-.055-4.012 1.075-.33-1.23 5.536-1.484.337 1.258-1.612 7.795-1.528.409Zm9.008-2.294a3.409 3.409 0 0 1-1.501.083 2.616 2.616 0 0 1-1.217-.559 2.26 2.26 0 0 1-.71-1.094l1.429-.383c.115.326.333.56.651.702.318.139.661.159 1.029.06.288-.077.527-.212.716-.405.19-.192.318-.423.384-.694.067-.27.058-.555-.025-.856a1.68 1.68 0 0 0-.414-.766 1.507 1.507 0 0 0-.693-.413 1.57 1.57 0 0 0-.849.006 1.953 1.953 0 0 0-.682.327 1.526 1.526 0 0 0-.462.515l-1.388.138-.698-4.304 4.714-1.263.33 1.23-3.496.937.343 2.217.048-.013c.103-.217.277-.421.521-.611.243-.193.528-.333.857-.421a2.591 2.591 0 0 1 1.411-.004c.448.127.837.362 1.168.708.33.345.565.778.705 1.299.144.537.148 1.05.012 1.537a2.725 2.725 0 0 1-.763 1.263c-.373.355-.846.61-1.42.764Zm10.013-11.513 1.472-.395 1.423 5.31c.156.582.155 1.131-.001 1.646a2.901 2.901 0 0 1-.874 1.345c-.429.378-.974.656-1.635.833-.664.178-1.276.21-1.837.097a2.888 2.888 0 0 1-1.428-.727c-.391-.369-.665-.845-.821-1.427l-1.422-5.309 1.472-.395 1.39 5.187c.09.338.245.62.464.845.222.224.489.375.802.453.312.075.655.063 1.028-.037s.676-.261.909-.482c.235-.224.391-.489.468-.793.077-.304.07-.626-.02-.964l-1.39-5.187Zm8.088.227a1.127 1.127 0 0 0-.685-.684c-.325-.12-.705-.121-1.142-.004a2.108 2.108 0 0 0-.752.35 1.207 1.207 0 0 0-.403.512.949.949 0 0 0 .2 1.001c.113.103.248.18.407.232.157.048.326.079.506.094.179.014.358.019.535.014l.813-.014c.326-.011.647.007.962.052.319.046.615.131.89.256a2.1 2.1 0 0 1 .719.526c.203.226.351.515.445.867a2.28 2.28 0 0 1-.028 1.356c-.147.425-.423.801-.829 1.128-.404.324-.931.573-1.582.747-.632.17-1.207.219-1.725.148a2.542 2.542 0 0 1-1.317-.566c-.36-.306-.623-.726-.789-1.26l1.448-.388c.098.277.248.489.452.636.203.146.441.233.712.26.273.026.563-.002.87-.085.32-.085.588-.208.803-.368.217-.163.372-.349.463-.558.091-.211.106-.434.047-.667a.81.81 0 0 0-.327-.474 1.41 1.41 0 0 0-.606-.212 5.103 5.103 0 0 0-.83-.05l-.988.01c-.715.007-1.314-.112-1.797-.357-.48-.248-.799-.663-.955-1.245a2.173 2.173 0 0 1 .052-1.363c.166-.43.447-.804.843-1.123.396-.321.879-.558 1.447-.711.577-.154 1.109-.189 1.597-.104.49.081.906.266 1.25.554.343.285.58.655.71 1.111l-1.416.379Zm7.173 4.394-2.754.738-2.178-8.127 2.81-.753c.807-.216 1.544-.239 2.21-.069.669.167 1.24.511 1.715 1.034.474.522.825 1.205 1.051 2.049.227.846.264 1.616.112 2.309a3.38 3.38 0 0 1-.977 1.763c-.501.483-1.163.835-1.989 1.056Zm-1.623-.93 1.21-.324c.567-.152 1.011-.382 1.334-.69.323-.31.524-.697.604-1.161.079-.466.035-1.01-.132-1.632-.166-.622-.4-1.112-.7-1.471a2.015 2.015 0 0 0-1.093-.698c-.426-.107-.914-.087-1.464.06l-1.254.336 1.495 5.58Z" fill="#212225"/><path d="m306.987 125.735-1.375.368.598-7.782 1.59-.426 4.413 6.439-1.375.369-3.414-5.144-.056.015-.381 6.161Zm-.702-2.801 3.75-1.005.277 1.035-3.75 1.005-.277-1.035Zm9.887-3.866-1.112.432a.966.966 0 0 0-.258-.281.88.88 0 0 0-.386-.161 1.216 1.216 0 0 0-.518.039c-.261.07-.466.185-.614.347-.145.16-.193.33-.142.51.039.156.13.267.271.333.145.066.36.094.648.083l.962-.049c.534-.026.955.046 1.263.216.311.17.519.445.624.827.088.336.069.659-.057.968a1.96 1.96 0 0 1-.642.812 3.165 3.165 0 0 1-1.123.532c-.653.174-1.215.179-1.686.012a1.706 1.706 0 0 1-1.02-.958l1.194-.447c.12.226.287.376.5.45.214.075.465.073.754-.004.299-.081.522-.206.67-.377.15-.172.201-.348.152-.528a.49.49 0 0 0-.278-.332c-.143-.068-.344-.096-.603-.084l-.961.053c-.54.031-.967-.047-1.28-.234-.313-.189-.521-.478-.623-.867a1.418 1.418 0 0 1 .038-.926c.118-.292.321-.548.61-.766.291-.222.649-.39 1.075-.504.625-.168 1.152-.166 1.582.004.433.169.753.469.96.9Zm5.366-1.438-1.112.432a.94.94 0 0 0-.643-.442 1.215 1.215 0 0 0-.518.039c-.262.07-.467.185-.614.347-.146.16-.193.33-.143.51.04.156.13.267.272.333.144.066.36.094.647.084l.962-.05c.534-.026.955.046 1.264.216.311.17.519.445.623.827.088.336.069.659-.057.968a1.952 1.952 0 0 1-.642.812 3.157 3.157 0 0 1-1.123.532c-.652.174-1.214.179-1.686.012a1.706 1.706 0 0 1-1.02-.958l1.195-.447a.89.89 0 0 0 .5.45c.213.075.465.073.754-.004.299-.08.522-.206.669-.377.15-.172.201-.348.153-.528a.488.488 0 0 0-.279-.331c-.142-.069-.343-.097-.603-.085l-.961.053c-.54.031-.966-.047-1.279-.234-.314-.189-.522-.478-.624-.867a1.418 1.418 0 0 1 .039-.926c.118-.292.321-.548.61-.766.29-.222.648-.39 1.074-.504.625-.168 1.153-.166 1.583.004.432.169.752.469.959.9Zm4.592 3.087c-.535.143-1.026.156-1.475.038a2.336 2.336 0 0 1-1.147-.713c-.319-.356-.553-.813-.703-1.371-.147-.548-.171-1.058-.074-1.528.099-.473.306-.876.621-1.209.315-.334.727-.57 1.236-.707.329-.088.654-.118.974-.089.322.025.624.118.908.277.286.16.539.392.76.698.22.303.393.688.518 1.156l.103.385-4.371 1.172-.227-.848 3.166-.848a1.41 1.41 0 0 0-.328-.601 1.182 1.182 0 0 0-.547-.333 1.234 1.234 0 0 0-.676.006 1.27 1.27 0 0 0-.627.369c-.161.175-.27.377-.324.608-.054.227-.049.461.012.7l.198.739c.084.311.212.562.385.754.172.189.376.316.611.379.235.061.489.055.762-.018.183-.049.341-.119.476-.209.134-.093.242-.205.323-.336a.997.997 0 0 0 .145-.445l1.209-.182c.009.33-.059.638-.206.926-.144.284-.36.533-.648.746-.288.212-.64.373-1.054.484Zm4.641-7.072.261.972-3.066.822-.261-.972 3.066-.822Zm-2.651-.659 1.257-.337 1.341 5.007c.046.169.106.292.181.369a.427.427 0 0 0 .257.124c.094.01.193.001.297-.027.079-.021.149-.046.211-.075.064-.03.112-.054.144-.072l.476.925a2.462 2.462 0 0 1-.707.324 2.12 2.12 0 0 1-.888.085 1.365 1.365 0 0 1-.733-.332c-.206-.183-.352-.442-.439-.776l-1.397-5.215Zm8.219.678-1.112.432a.965.965 0 0 0-.258-.281.887.887 0 0 0-.385-.161 1.215 1.215 0 0 0-.518.039 1.25 1.25 0 0 0-.615.347c-.145.16-.193.331-.142.511.039.155.13.266.272.332.144.066.36.094.647.084l.962-.05c.534-.026.955.046 1.264.216.311.17.518.446.623.827.088.336.069.659-.057.968a1.96 1.96 0 0 1-.642.812 3.14 3.14 0 0 1-1.123.532c-.653.175-1.215.179-1.686.012a1.703 1.703 0 0 1-1.02-.958l1.194-.447c.12.226.287.376.501.451.213.074.464.072.754-.005.298-.08.522-.206.669-.377.15-.172.201-.348.153-.528a.49.49 0 0 0-.279-.331c-.142-.069-.343-.097-.603-.084l-.961.052c-.54.031-.967-.047-1.28-.234-.313-.188-.521-.478-.623-.867a1.418 1.418 0 0 1 .039-.926c.117-.292.321-.547.609-.766.291-.222.649-.39 1.075-.504.625-.168 1.153-.166 1.583.004.432.169.752.469.959.9Z" fill="#A5ADB9"/><path d="m333.925 136.65-.314-1.171 1.989-6.372.976-.262.447 1.667-.596.159-1.335 4.301.017.064 4.813-1.29.324 1.21-6.321 1.694Zm4.281.469-.5-1.865-.124-.528-1.538-5.738 1.389-.372 2.178 8.127-1.405.376Z" fill="#637282"/><path fill="#DBDEE5" d="m345.773 104.985.698-.187 8.609 32.128-.698.187z"/><path d="m361.885 109.992-3.353-5.634 1.187-.318 2.299 4.185.056-.016-.027-4.793 1.08-.29 2.377 4.168.053-.015-.103-4.776 1.188-.318-.087 6.556-1.089.292-2.367-3.95-.047.013-.077 4.604-1.09.292Zm7.982-2.04c-.29.078-.564.096-.824.055a1.314 1.314 0 0 1-.672-.317c-.188-.169-.322-.403-.402-.703-.069-.258-.079-.484-.029-.678a1.14 1.14 0 0 1 .282-.509 2 2 0 0 1 .495-.378 4.69 4.69 0 0 1 .615-.29c.26-.099.471-.182.631-.249a.99.99 0 0 0 .335-.204c.064-.07.082-.157.054-.26l-.004-.018c-.06-.224-.173-.38-.339-.468-.166-.087-.374-.097-.624-.03-.264.07-.458.184-.582.341a.88.88 0 0 0-.2.49l-1.044.127a1.65 1.65 0 0 1 .206-.802 1.77 1.77 0 0 1 .556-.602c.239-.166.518-.291.837-.377.22-.059.446-.092.678-.099.233-.007.455.025.667.096.212.068.4.189.563.362.166.173.289.411.37.715l.82 3.059-1.036.278-.168-.628-.036.009a1.334 1.334 0 0 1-.181.432c-.088.14-.212.268-.372.384a1.852 1.852 0 0 1-.596.264Zm.068-.866c.216-.058.392-.151.528-.279a.985.985 0 0 0 .273-.443.915.915 0 0 0 .006-.503l-.144-.538a.525.525 0 0 1-.152.123c-.073.045-.157.09-.251.135-.095.044-.189.086-.282.126l-.243.104c-.155.065-.29.139-.403.222a.739.739 0 0 0-.245.289.524.524 0 0 0-.019.369c.053.199.165.329.337.391.172.063.37.064.595.004Zm2.849-6.547 1.633 6.095-1.078.289-1.633-6.095 1.078-.289Zm2.185-.586 1.633 6.096-1.077.289-1.634-6.096 1.078-.289Zm4.789 5.346c-.458.123-.88.134-1.264.032a2.003 2.003 0 0 1-.984-.61c-.273-.305-.474-.697-.602-1.175-.126-.471-.147-.907-.064-1.31.085-.406.263-.751.533-1.036.27-.287.623-.489 1.06-.606a2.38 2.38 0 0 1 .834-.077c.276.022.535.101.778.238.245.136.462.336.652.597.188.26.336.591.444.991l.088.331-3.747 1.004-.194-.726 2.714-.728a1.191 1.191 0 0 0-.282-.514.995.995 0 0 0-.469-.286 1.065 1.065 0 0 0-.579.005c-.22.059-.399.164-.537.316-.139.15-.231.324-.278.521-.046.196-.042.396.011.6l.169.634c.072.266.181.481.33.646.147.162.322.271.524.325.201.053.419.047.653-.015.157-.042.293-.102.408-.18a.972.972 0 0 0 .277-.288.854.854 0 0 0 .124-.381l1.037-.156c.007.283-.052.547-.177.793a1.83 1.83 0 0 1-.556.641 2.688 2.688 0 0 1-.903.414Zm3.978-6.062.223.834-2.628.704-.223-.833 2.628-.704Zm-2.273-.564 1.078-.29 1.15 4.293a.7.7 0 0 0 .155.315.358.358 0 0 0 .22.107c.08.009.166.001.255-.023a1.398 1.398 0 0 0 .304-.127l.407.794a2.103 2.103 0 0 1-.605.277c-.268.08-.522.105-.762.073a1.176 1.176 0 0 1-.628-.284c-.176-.157-.301-.379-.376-.665l-1.198-4.47Zm7.046.58-.954.371a.81.81 0 0 0-.551-.378 1.032 1.032 0 0 0-.444.032c-.224.06-.4.16-.527.298-.124.137-.165.283-.122.438a.413.413 0 0 0 .233.285c.124.056.309.08.555.071l.825-.042c.457-.023.818.039 1.083.185.266.146.444.382.534.709.075.288.059.564-.049.829a1.666 1.666 0 0 1-.55.696 2.694 2.694 0 0 1-.962.456c-.56.15-1.042.154-1.446.011a1.464 1.464 0 0 1-.874-.822l1.024-.382a.768.768 0 0 0 .428.386c.183.063.399.062.647-.005.256-.068.447-.176.574-.322.128-.148.172-.299.13-.453a.42.42 0 0 0-.238-.284c-.122-.059-.295-.083-.517-.072l-.824.045c-.463.026-.829-.04-1.097-.2-.269-.162-.447-.41-.534-.744a1.206 1.206 0 0 1 .033-.794c.101-.25.275-.469.523-.656a2.61 2.61 0 0 1 .921-.432c.535-.144.988-.143 1.356.003.371.145.645.403.823.772Z" fill="#A5ADB9"/><path d="m382.413 116.566 2.178 8.127-1.472.395-1.794-6.695-.048.013-1.575 1.724-.362-1.35 1.672-1.838 1.401-.376Zm7.188 6.904c-.571.153-1.106.191-1.602.115a2.645 2.645 0 0 1-1.267-.537 2.192 2.192 0 0 1-.733-1.101l1.492-.4c.072.216.196.389.372.517.176.126.385.205.629.236a2 2 0 0 0 .774-.063c.291-.078.536-.197.734-.358.197-.164.335-.354.413-.57a1.09 1.09 0 0 0 .017-.681 1.132 1.132 0 0 0-.365-.6 1.312 1.312 0 0 0-.681-.289c-.272-.041-.58-.015-.924.077l-.718.192-.304-1.135.718-.192a1.81 1.81 0 0 0 .703-.346c.188-.155.319-.338.393-.548.074-.212.078-.436.012-.67a1.122 1.122 0 0 0-.315-.558 1.086 1.086 0 0 0-.548-.283 1.499 1.499 0 0 0-.701.035 1.797 1.797 0 0 0-.655.32c-.187.146-.323.32-.408.522a1.007 1.007 0 0 0-.049.642l-1.417.38a2.14 2.14 0 0 1 .072-1.304c.161-.414.427-.775.799-1.081a3.46 3.46 0 0 1 1.346-.676c.542-.145 1.04-.169 1.494-.073.456.094.84.281 1.151.564.311.282.522.63.632 1.043.125.457.093.876-.096 1.259a1.966 1.966 0 0 1-.901.892l.017.063c.593-.073 1.087.021 1.484.283.398.26.664.643.797 1.152.122.455.102.897-.061 1.326a2.67 2.67 0 0 1-.838 1.127c-.395.324-.884.564-1.466.72Z" fill="#637282"/><path fill="#289548" d="m181.906 194.562 127.813-34.247 1.498 5.587-127.814 34.248z"/><path fill="#FC9F0F" d="m309.72 160.315 40.509-10.854 1.497 5.588-40.509 10.854z"/><path fill="#007DFF" d="m350.229 149.461 28.636-7.673 1.497 5.588-28.636 7.673z"/><path fill="#DE5846" d="m378.865 141.788 20.254-5.427 1.498 5.588-20.255 5.427z"/><path d="m265.962 189.744 1.577-.423 3.492 4.588.083-.023.731-5.718 1.576-.423 1.906 7.112-1.237.331-1.309-4.886-.066.018-.662 5.391-.923.248-3.272-4.349-.066.018 1.312 4.896-1.236.331-1.906-7.111Zm13.066 4.232c-.521.14-1.003.146-1.446.019a2.411 2.411 0 0 1-1.147-.723c-.319-.356-.552-.81-.699-1.361-.148-.551-.173-1.061-.076-1.532.1-.47.31-.872.63-1.203.321-.332.742-.567 1.263-.707.52-.139 1.002-.146 1.446-.019.443.127.825.37 1.144.728.322.358.556.813.704 1.364.148.55.171 1.06.071 1.529a2.392 2.392 0 0 1-.628 1.199c-.32.331-.741.567-1.262.706Zm-.263-1.008a1.12 1.12 0 0 0 .646-.423 1.45 1.45 0 0 0 .255-.745 2.706 2.706 0 0 0-.094-.92 2.702 2.702 0 0 0-.38-.848 1.458 1.458 0 0 0-.594-.522 1.112 1.112 0 0 0-.772-.046c-.289.078-.509.221-.658.43a1.466 1.466 0 0 0-.257.75 2.76 2.76 0 0 0 .098.922c.087.324.212.606.375.845.166.238.365.411.597.517.233.104.495.117.784.04Zm3.858-.066-1.429-5.334 1.218-.326.239.888.055-.014c.015-.334.118-.616.309-.846.194-.233.443-.391.749-.472.069-.019.147-.036.235-.052a1.63 1.63 0 0 1 .225-.035l.31 1.157a1.31 1.31 0 0 0-.266.019c-.118.014-.23.036-.337.064a1.308 1.308 0 0 0-.578.315 1.138 1.138 0 0 0-.313 1.163l.84 3.136-1.257.337Zm6.046-1.509c-.535.143-1.026.156-1.475.038a2.338 2.338 0 0 1-1.147-.712c-.319-.357-.553-.814-.702-1.371-.147-.549-.172-1.058-.075-1.529.099-.473.306-.876.622-1.208.314-.335.726-.571 1.235-.707.329-.088.654-.118.974-.09.322.025.624.118.908.278.286.159.539.391.76.697.22.303.393.688.518 1.156l.103.385-4.371 1.172-.227-.847 3.166-.849a1.39 1.39 0 0 0-.328-.6 1.176 1.176 0 0 0-.547-.334 1.253 1.253 0 0 0-.676.006 1.27 1.27 0 0 0-.627.369 1.347 1.347 0 0 0-.324.608c-.053.228-.049.461.012.7l.199.74a1.8 1.8 0 0 0 .384.753c.172.189.376.316.611.379.235.061.489.055.762-.018.183-.049.342-.119.476-.209.134-.093.242-.205.323-.336a.993.993 0 0 0 .145-.445l1.209-.182c.009.33-.059.639-.206.926-.144.284-.36.533-.648.747-.288.211-.64.372-1.054.483Zm8.298-2.335-2.41.646-1.905-7.112 2.458-.658c.706-.189 1.351-.21 1.934-.061a2.955 2.955 0 0 1 1.5.905c.415.457.722 1.054.92 1.793.198.74.231 1.414.098 2.02a2.95 2.95 0 0 1-.855 1.543c-.438.423-1.018.731-1.74.924Zm-1.42-.814 1.059-.284c.495-.133.884-.334 1.167-.603.282-.271.458-.61.528-1.016.069-.408.031-.884-.115-1.428-.146-.544-.35-.973-.613-1.287a1.761 1.761 0 0 0-.956-.611c-.373-.094-.8-.076-1.281.053l-1.097.294 1.308 4.882Zm8.429-.952c-.535.143-1.026.156-1.475.038a2.336 2.336 0 0 1-1.147-.713c-.319-.356-.553-.813-.703-1.371-.147-.549-.171-1.058-.074-1.528.099-.473.306-.876.621-1.209.315-.335.727-.57 1.236-.707.329-.088.654-.118.974-.089.322.025.624.118.908.277.286.159.539.392.76.697.22.304.393.689.518 1.157l.103.385-4.371 1.171-.228-.847 3.167-.848a1.403 1.403 0 0 0-.328-.601 1.174 1.174 0 0 0-.547-.333 1.234 1.234 0 0 0-.676.006 1.27 1.27 0 0 0-.627.369c-.161.174-.27.377-.324.608-.054.227-.049.461.012.7l.198.739a1.8 1.8 0 0 0 .385.753c.172.19.376.316.611.38.235.061.489.055.762-.018a1.57 1.57 0 0 0 .476-.21c.134-.093.242-.205.323-.336a.993.993 0 0 0 .145-.444l1.209-.183c.009.33-.059.639-.206.926-.144.285-.36.534-.648.747-.288.212-.64.373-1.054.484Zm4.641-7.072.261.972-3.066.822-.261-.972 3.066-.822Zm-2.651-.659 1.257-.337 1.341 5.007c.046.169.106.292.181.369a.427.427 0 0 0 .257.124c.094.01.193.001.297-.027.079-.021.149-.046.211-.075.064-.03.112-.054.144-.073l.476.926a2.462 2.462 0 0 1-.707.324 2.12 2.12 0 0 1-.888.085 1.365 1.365 0 0 1-.733-.332c-.206-.183-.352-.442-.439-.776l-1.397-5.215Zm6.695 5.407a2.29 2.29 0 0 1-.961.064 1.542 1.542 0 0 1-.785-.37c-.219-.197-.375-.47-.468-.82-.081-.301-.092-.564-.034-.791a1.34 1.34 0 0 1 .328-.594c.161-.17.354-.317.578-.441.226-.128.466-.241.717-.338.304-.116.55-.213.738-.29.187-.08.317-.16.39-.239.074-.082.096-.183.063-.304l-.005-.02c-.07-.262-.202-.444-.396-.546-.193-.102-.436-.114-.727-.035-.308.082-.535.215-.679.397-.142.182-.22.373-.234.573l-1.218.148c.006-.349.086-.661.241-.936.154-.277.37-.511.649-.702a3.06 3.06 0 0 1 .976-.44c.257-.069.521-.108.791-.116a2.22 2.22 0 0 1 .778.112c.248.08.467.221.657.423.193.201.337.479.432.833l.956 3.57-1.208.324-.196-.733-.042.011a1.586 1.586 0 0 1-.211.503 1.614 1.614 0 0 1-.435.448 2.134 2.134 0 0 1-.695.309Zm.079-1.011c.252-.068.458-.176.616-.325.158-.152.265-.324.319-.517.058-.194.06-.39.007-.586l-.168-.629a.618.618 0 0 1-.177.144 3.01 3.01 0 0 1-.293.157c-.111.052-.22.101-.329.148l-.284.12a2.288 2.288 0 0 0-.47.26.87.87 0 0 0-.286.337.616.616 0 0 0-.022.431c.062.231.193.383.394.456.2.073.431.074.693.004Zm3.972-.19-1.429-5.333 1.257-.337 1.429 5.334-1.257.336Zm-1-6.259a.759.759 0 0 1-.567-.061.66.66 0 0 1-.344-.425.653.653 0 0 1 .086-.54.748.748 0 0 1 .46-.339.742.742 0 0 1 .568.064.654.654 0 0 1 .344.425.66.66 0 0 1-.086.54.75.75 0 0 1-.461.336Zm2.901-1.872 1.906 7.111-1.257.337-1.906-7.111 1.257-.337Zm6.362 1.712-1.112.432a.94.94 0 0 0-.643-.442 1.213 1.213 0 0 0-.518.038c-.262.071-.467.186-.614.347-.146.161-.193.331-.143.511.04.156.13.267.272.333.144.066.36.093.647.083l.962-.049c.534-.026.955.046 1.264.216.311.17.519.445.623.827.088.336.069.658-.057.968-.123.306-.338.576-.642.812a3.139 3.139 0 0 1-1.123.531c-.652.175-1.214.179-1.686.013a1.705 1.705 0 0 1-1.02-.959l1.195-.446a.89.89 0 0 0 .5.45c.213.074.465.073.754-.005.299-.08.522-.205.669-.376.15-.172.201-.348.153-.529a.492.492 0 0 0-.279-.331c-.142-.068-.343-.096-.603-.084l-.961.053c-.54.031-.966-.047-1.279-.234-.314-.189-.522-.478-.624-.868a1.415 1.415 0 0 1 .039-.925c.118-.292.321-.548.61-.767.29-.221.648-.389 1.074-.503.625-.168 1.153-.167 1.583.003.432.17.752.47.959.901Z" fill="#235B95"/><path d="m145.133 146.772 261.912-70.18" stroke="#DBDEE5" stroke-width=".723"/><path fill="#fff" d="M124.715 70.642 386.48.502l10.353 38.637-261.766 70.14z"/><path fill="#DBDEE5" d="m134.881 108.581 261.766-70.14.187.698-261.766 70.14z"/><rect x="149.31" y="73.035" width="23.138" height="23.138" rx="2.892" transform="rotate(-15 149.31 73.035)" fill="#235B95"/><g clip-path="url(#g)"><path d="M165.209 88.983a12.396 12.396 0 0 1-1.34-.606 19.82 19.82 0 0 1-1.365-.77 21.152 21.152 0 0 1-1.645-1.126 20.476 20.476 0 0 1-3.572-3.444 19.295 19.295 0 0 1-3.028-5.249c-.078-.204-.139-.467.091-.674a17.119 17.119 0 0 1 2.098-1.5 19.975 19.975 0 0 1 2.113-1.14c.837-.39 1.705-.708 2.596-.95l.497-.134a16.232 16.232 0 0 1 2.724-.474 20.002 20.002 0 0 1 2.399-.07c.86.019 1.718.102 2.567.25.303.065.381.322.416.539.167 1.05.248 2.11.241 3.17a19.385 19.385 0 0 1-.239 2.89 20.465 20.465 0 0 1-1.372 4.768 21.048 21.048 0 0 1-.861 1.797c-.252.468-.521.922-.797 1.35-.263.415-.549.814-.857 1.195a.778.778 0 0 1-.666.178Zm-2.414-10.168c-.011.028-.868 1.622-1.494 2.786-.215.402-.405.754-.527.98a2.267 2.267 0 0 0-.271 1.453c.047.266.147.52.294.745.179.27.404.505.664.694a16.61 16.61 0 0 0 2.362 1.478 9.96 9.96 0 0 0 1.049.474.582.582 0 0 0 .515-.138c.241-.298.466-.61.672-.934.502-.78.94-1.604 1.307-2.462.13-.293.208-.61.228-.933a2 2 0 0 0-.119-.792 2.263 2.263 0 0 0-.961-1.123l-.816-.504-.098-.06c-1.137-.704-2.695-1.668-2.72-1.687a.052.052 0 0 0-.049-.013.05.05 0 0 0-.022.013.051.051 0 0 0-.014.022Zm-.756-3.064.035.031c.023.02.385.364.886.84 1.201 1.143 3.212 3.056 3.729 3.515.382.338.789.483 1.115.395.317-.085.717-.428.819-1.586a15.407 15.407 0 0 0-.133-3.776c-.028-.173-.09-.379-.332-.43a13.736 13.736 0 0 0-2.05-.2c-.64-.02-1.28-.001-1.917.056-.735.064-1.463.19-2.176.378l-.38.102c-.711.194-1.405.448-2.073.76-.58.27-1.144.573-1.688.91a13.78 13.78 0 0 0-1.676 1.198c-.183.166-.135.375-.072.539a15.358 15.358 0 0 0 1.773 3.337c.368.525.927 1.118 1.502.964.326-.088.606-.416.768-.9.218-.655 1.003-3.316 1.471-4.905l.001-.003c.196-.663.337-1.142.347-1.17a.63.63 0 0 0 .015-.045c.005-.017.008-.025.012-.026.005-.002.011.004.024.016Zm-.62 7.195.6-1.13 2.964-.794 1.085.678-4.649 1.246Zm1.05-1.944.619-1.147 1.109.684-1.728.463Z" fill="#fff"/></g><path d="m193.252 77.786 12.572-3.368M192.216 73.92l12.572-3.37M191.18 70.05l12.571-3.368" stroke="#637282" stroke-width="1.446" stroke-linecap="round" stroke-linejoin="round"/><g clip-path="url(#h)"><path d="M276.746 50.8c-1.062-2.239-3.612-3.271-5.821-2.357-2.209.915-3.317 3.46-2.529 5.814.787 2.353 3.198 3.703 5.506 3.081l5.463-1.464c1.123-.298 1.941-1.28 2.062-2.475a3.015 3.015 0 0 0-1.513-2.931 2.746 2.746 0 0 0-3.168.333Zm0 0c.2.483.28 1.06.225 1.973" stroke="#7E8A9C" stroke-width="1.446" stroke-linecap="round" stroke-linejoin="round"/><path d="M280.001 44.523a2.176 2.176 0 0 0-2.657-1.534c-1.118.299-1.833 1.539-1.534 2.656a2.175 2.175 0 0 0 2.657 1.534 2.176 2.176 0 0 0 1.534-2.657c.018.07 0 0 0 0Z" fill="#289548"/><path fill="#DBDEE5" d="m290.608 39.411.698-.187 3.743 13.968-.698.187z"/><g clip-path="url(#i)" stroke="#637282" stroke-width="1.446" stroke-linecap="round" stroke-linejoin="round"><path d="M311.681 47.09c.378.572 1.101.753 1.673.375.312-.233.586-.606.562-.974M309.99 36.314l-.337-1.258M309.991 36.314a4.35 4.35 0 0 1 5.313 3.068c1.048 3.911 2.073 4.385 2.073 4.385l-10.057 2.695s.557-1.272-.397-4.834a4.35 4.35 0 0 1 3.068-5.314Z"/></g><path fill="#DBDEE5" d="m327.625 29.492.698-.187 3.743 13.968-.698.187z"/></g><g clip-path="url(#j)"><g clip-path="url(#k)"><circle cx="358.114" cy="28.793" r="11.554" transform="rotate(-15 358.114 28.793)" fill="#007DFF"/><g clip-path="url(#l)"><g clip-path="url(#m)"><circle cx="358.114" cy="28.794" r="11.554" transform="rotate(-15 358.114 28.794)" fill="#3E9DFF"/><mask id="n" style="mask-type:alpha" maskUnits="userSpaceOnUse" x="346" y="17" width="24" height="24"><circle cx="358.114" cy="28.794" r="11.554" transform="rotate(-15 358.114 28.794)" fill="#000"/></mask><g mask="url(#n)"><circle cx="358.897" cy="18.525" r="11.816" transform="rotate(-15 358.897 18.525)" fill="#007DFF"/><ellipse cx="348.731" cy="31.308" rx="11.816" ry="11.554" transform="rotate(-15 348.731 31.308)" fill="#0B4DC7"/></g></g></g><path d="M358.744 28.228c.139.522.161.995.066 1.419a2.153 2.153 0 0 1-.567 1.064 2.272 2.272 0 0 1-1.058.6c-.424.114-.83.117-1.218.01a2.18 2.18 0 0 1-1.023-.64c-.294-.32-.51-.74-.65-1.26-.139-.523-.162-.994-.067-1.417.095-.424.284-.78.565-1.066a2.289 2.289 0 0 1 1.061-.6 2.272 2.272 0 0 1 1.216-.01c.388.107.729.32 1.023.64.295.319.512.738.652 1.26Zm-.882.236c-.099-.367-.239-.661-.422-.883a1.32 1.32 0 0 0-.626-.447 1.297 1.297 0 0 0-.75-.01c-.264.07-.479.199-.645.383a1.347 1.347 0 0 0-.322.702c-.045.283-.019.608.079.975.099.367.239.662.42.886.183.221.392.37.629.447.237.075.486.078.749.007.264-.07.479-.198.646-.38a1.34 1.34 0 0 0 .319-.702c.047-.285.021-.61-.077-.978Zm1.88-3.098 1.298 4.841-.856.23-1.298-4.842.856-.23Z" fill="#fff"/></g></g></g></g><rect x="259.746" y="251.722" width="219.85" height="104.623" rx="8.483" transform="rotate(-15 259.746 251.722)" fill="#E6EFF9"/><path d="m460.469 209.958 2.813 3.125 3.574-.592c.428-.041.674.332.474.678l-2.099 3.636 2.135 3.6c.16.323-.072.824-.536.729l-4.045-.892-3.007 2.708c-.168.192-.769.133-.76-.381l.031-4.254-3.668-1.944c-.278-.218-.456-.61.072-.824l3.391-1.275.874-4.113c.095-.464.454-.488.751-.201Z" fill="#FEB933"/><g clip-path="url(#o)"><g clip-path="url(#p)"><circle cx="297.859" cy="269.317" transform="rotate(-15 297.859 269.317)" fill="#599294" r="15.552"/><g clip-path="url(#q)"><mask id="r" style="mask-type:alpha" maskUnits="userSpaceOnUse" x="282" y="253" width="32" height="32"><circle cx="297.853" cy="269.317" transform="rotate(-15 297.853 269.317)" fill="#000" r="15.552"/></mask><g mask="url(#r)"><path fill="#2C7A7D" d="m280.926 274.211 36.72-9.84 9.84 36.721-36.72 9.84z"/><path fill="#7EB6B8" d="m292.277 271.171 36.72-9.84 9.84 36.721-36.72 9.84z"/></g></g></g></g><path d="m321.603 251.231 1.541-.413 3.414 4.485.081-.022.715-5.591 1.541-.413 1.863 6.952-1.209.324-1.28-4.776-.064.017-.647 5.271-.903.242-3.199-4.251-.064.017 1.282 4.786-1.208.324-1.863-6.952Zm11.76 6.396a2.582 2.582 0 0 1-.836.086l.029-1.034c.192.004.358-.014.498-.053a.61.61 0 0 0 .335-.232c.086-.113.14-.278.162-.495l.03-.31-3.317-4.816 1.303-.349 2.257 3.616.054-.015.15-4.261 1.307-.35-.521 6.405a2.439 2.439 0 0 1-.197.814 1.632 1.632 0 0 1-.469.613 2.035 2.035 0 0 1-.785.381Zm7.667-4.15-2.87-4.82 1.252-.335 1.899 3.42.048-.012-.046-3.918 1.239-.332 1.914 3.395.051-.013-.074-3.888 1.256-.337-.079 5.61-1.28.343-1.922-3.262-.071.019-.034 3.786-1.283.344Zm8.453-2.152c-.33.088-.644.109-.94.062a1.498 1.498 0 0 1-.766-.362c-.215-.192-.367-.459-.459-.801-.079-.294-.09-.552-.033-.774.058-.221.165-.415.321-.58.157-.166.346-.31.565-.432.221-.125.455-.235.701-.33.297-.113.538-.208.721-.284.183-.078.31-.156.381-.233.074-.08.094-.179.063-.297l-.006-.02c-.068-.256-.197-.434-.386-.533-.189-.1-.427-.112-.712-.035-.301.08-.522.21-.663.389a1.01 1.01 0 0 0-.229.559l-1.191.145c.006-.341.084-.646.235-.915.151-.27.363-.499.635-.686.272-.19.59-.333.954-.431.252-.067.51-.105.774-.113.265-.007.519.029.761.11.242.078.456.216.642.413.189.197.329.469.422.815l.935 3.49-1.181.316-.192-.716-.041.011a1.571 1.571 0 0 1-.206.492c-.101.16-.242.306-.425.438a2.135 2.135 0 0 1-.68.302Zm.077-.989a1.38 1.38 0 0 0 .603-.318c.154-.148.258-.316.312-.505.056-.19.058-.381.006-.573l-.164-.615a.604.604 0 0 1-.173.141 2.697 2.697 0 0 1-.287.153c-.108.051-.215.099-.321.145l-.278.118c-.177.074-.33.159-.46.254a.854.854 0 0 0-.279.329.605.605 0 0 0-.022.421c.061.226.189.375.386.446.196.071.422.073.677.004Zm3.25-7.467 1.863 6.952-1.229.33-1.863-6.953 1.229-.329Zm2.492-.668 1.863 6.953-1.229.329-1.863-6.953 1.229-.329Zm5.463 6.097c-.523.14-1.004.153-1.442.037a2.282 2.282 0 0 1-1.122-.696c-.311-.348-.54-.795-.687-1.341-.143-.536-.168-1.034-.072-1.494.096-.462.299-.856.607-1.181.308-.328.711-.558 1.208-.692.322-.086.639-.115.952-.087.315.025.611.115.888.271.279.156.527.383.743.682.215.296.384.673.506 1.13l.101.377-4.274 1.145-.222-.828 3.096-.83a1.368 1.368 0 0 0-.321-.587 1.15 1.15 0 0 0-.534-.326 1.218 1.218 0 0 0-.661.006 1.246 1.246 0 0 0-.613.361 1.302 1.302 0 0 0-.317.594 1.42 1.42 0 0 0 .012.685l.194.723c.081.303.206.548.375.736.169.185.368.309.598.371.23.06.478.054.745-.018.179-.048.334-.116.466-.204a1.12 1.12 0 0 0 .315-.329.978.978 0 0 0 .142-.434l1.182-.179c.009.323-.058.625-.201.905a2.085 2.085 0 0 1-.634.731 3.069 3.069 0 0 1-1.03.472Zm4.537-6.913.255.95-2.998.803-.254-.95 2.997-.803Zm-2.592-.645 1.229-.329 1.311 4.895a.826.826 0 0 0 .177.36.417.417 0 0 0 .251.122c.092.01.189.001.291-.027.077-.02.146-.045.206-.073.063-.029.11-.053.141-.071l.465.906a2.415 2.415 0 0 1-.691.315c-.305.092-.595.12-.869.084a1.336 1.336 0 0 1-.716-.325c-.201-.179-.344-.431-.429-.758l-1.366-5.099Zm10.009 4.246-.722-7.258.95-.255.723 7.258-.951.255Zm-3.614-.953-.095-.993 5.35-1.434.095.994-5.35 1.433Zm1.17 1.608-.722-7.258.95-.255.722 7.258-.95.255Zm-1.413-4.133-.099-.993 5.35-1.433.099.992-5.35 1.434Zm8.34-5.175 1.863 6.953-1.26.337-1.534-5.727-.041.011-1.348 1.475-.309-1.155 1.43-1.573 1.199-.321Z" fill="#212225"/><path d="m328.189 273.143-1.152.309.501-6.521 1.333-.357 3.698 5.396-1.153.309-2.861-4.311-.046.012-.32 5.163Zm-.588-2.346 3.143-.843.232.868-3.142.842-.233-.867Zm8.378-4.088a1.6 1.6 0 0 0-.314-.369 1.345 1.345 0 0 0-.389-.241 1.26 1.26 0 0 0-.455-.094 1.735 1.735 0 0 0-.514.063c-.32.086-.584.243-.791.471-.207.228-.34.517-.4.868-.059.348-.028.746.092 1.192.12.45.293.812.518 1.086.226.275.486.46.782.555.295.093.61.096.944.006a1.72 1.72 0 0 0 .738-.385c.192-.176.32-.387.383-.633a1.592 1.592 0 0 0-.022-.805l.254-.027-1.618.433-.226-.844 2.418-.647.192.715c.137.511.146.981.029 1.412-.118.43-.339.797-.666 1.101-.326.302-.736.519-1.229.651-.549.147-1.064.153-1.545.018a2.654 2.654 0 0 1-1.252-.797c-.353-.396-.614-.908-.783-1.537a3.915 3.915 0 0 1-.141-1.343c.036-.416.142-.788.318-1.118.175-.332.41-.611.705-.837a2.856 2.856 0 0 1 1.026-.5c.33-.088.65-.122.961-.102.311.019.6.087.869.204.27.117.51.277.718.481.209.204.375.447.498.728l-1.1.295Zm1.408-1.447-.243-.905 4.755-1.274.242.905-1.842.493 1.355 5.054-1.071.287-1.354-5.054-1.842.494Zm9.107 3.064a2.965 2.965 0 0 1-1.211.09 1.98 1.98 0 0 1-.945-.386 1.445 1.445 0 0 1-.511-.789 1.485 1.485 0 0 1-.022-.733c.055-.239.157-.454.308-.644.152-.193.339-.34.562-.441l-.011-.04a1.31 1.31 0 0 1-.871-.269 1.397 1.397 0 0 1-.507-.778 1.406 1.406 0 0 1 .036-.889c.108-.287.294-.54.558-.758a2.5 2.5 0 0 1 .974-.485 2.452 2.452 0 0 1 1.077-.064c.338.057.625.182.862.377.239.193.4.444.482.75.086.322.066.632-.06.93a1.304 1.304 0 0 1-.61.666l.011.04c.243-.023.476.011.701.102.225.09.421.224.588.404.169.18.286.394.354.645.086.322.068.635-.054.94a1.989 1.989 0 0 1-.626.807 2.922 2.922 0 0 1-1.085.525Zm-.223-.832c.223-.06.407-.15.552-.27a.908.908 0 0 0 .307-.949.939.939 0 0 0-.284-.464 1.008 1.008 0 0 0-.485-.241 1.288 1.288 0 0 0-.598.026c-.214.058-.393.15-.537.278a1.021 1.021 0 0 0-.303.453.91.91 0 0 0-.005.54.886.886 0 0 0 .263.448.959.959 0 0 0 .471.22c.188.033.394.019.619-.041Zm-.727-2.715a1.06 1.06 0 0 0 .453-.24.875.875 0 0 0 .255-.889.884.884 0 0 0-.243-.415.81.81 0 0 0-.412-.211 1.104 1.104 0 0 0-.517.023 1.147 1.147 0 0 0-.469.241.813.813 0 0 0-.245.868.879.879 0 0 0 .239.425.903.903 0 0 0 .417.219c.164.035.337.028.522-.021Zm6.456-.03-.694-2.59 1.053-.282 1.198 4.469-1.022.274-.212-.795-.047.013a1.395 1.395 0 0 1-.333.747c-.186.22-.447.376-.783.466a1.59 1.59 0 0 1-.829.013 1.406 1.406 0 0 1-.677-.433c-.194-.218-.339-.506-.434-.863l-.763-2.846 1.054-.282.718 2.683c.076.283.214.487.414.612a.82.82 0 0 0 .678.087c.155-.042.296-.12.421-.234a.955.955 0 0 0 .267-.434 1.076 1.076 0 0 0-.009-.605Zm6.729-4.021-1.088.292a1.394 1.394 0 0 0-.299-.429 1.313 1.313 0 0 0-.889-.376 1.723 1.723 0 0 0-.53.061 1.6 1.6 0 0 0-.796.475 1.663 1.663 0 0 0-.397.868c-.059.348-.028.746.092 1.194.122.456.296.821.521 1.096.227.272.486.454.777.546.292.091.599.092.921.006.179-.048.339-.116.482-.204.144-.09.266-.199.365-.325a1.332 1.332 0 0 0 .281-.942l1.09-.286a2.465 2.465 0 0 1-.402 1.667 2.502 2.502 0 0 1-.644.646 2.937 2.937 0 0 1-.927.417 2.81 2.81 0 0 1-1.5.012 2.627 2.627 0 0 1-1.253-.79c-.359-.394-.625-.912-.796-1.552-.172-.642-.2-1.223-.084-1.743.116-.521.347-.958.694-1.311a2.785 2.785 0 0 1 1.299-.738 3.06 3.06 0 0 1 .963-.108c.31.016.601.085.872.206.271.118.513.288.726.51.215.219.389.488.522.808Zm5.432 4.573-.638-2.38-.044.012a1.854 1.854 0 0 1-.142.409 1.352 1.352 0 0 1-.325.418c-.146.13-.347.23-.603.298-.351.094-.69.088-1.015-.018a1.902 1.902 0 0 1-.868-.609c-.253-.3-.446-.696-.577-1.187-.133-.496-.164-.937-.093-1.322.073-.388.226-.706.459-.956.232-.251.519-.423.863-.515.262-.07.489-.083.681-.039.193.042.355.112.487.21.132.095.239.19.323.284l.064-.017-.198-.739 1.035-.277 1.647 6.145-1.056.283Zm-1.69-2.186a.936.936 0 0 0 .522-.333c.125-.164.198-.366.222-.605a2.228 2.228 0 0 0-.082-.792 2.173 2.173 0 0 0-.324-.721 1.103 1.103 0 0 0-.488-.402.948.948 0 0 0-.621-.024.953.953 0 0 0-.538.34 1.149 1.149 0 0 0-.22.602c-.022.236.005.493.079.771.075.279.181.518.32.716.139.195.305.335.495.419a.957.957 0 0 0 .635.029Zm3.731-2.964.702 2.619-1.053.282-1.597-5.959 1.03-.276.602 2.249.053-.014a1.34 1.34 0 0 1 .326-.727c.182-.206.443-.356.785-.447.31-.083.598-.091.864-.023.265.069.495.211.688.427.195.216.341.505.437.865l.763 2.846-1.053.282-.719-2.682c-.081-.301-.221-.514-.421-.639-.198-.128-.436-.155-.714-.08-.186.05-.342.135-.467.256a.88.88 0 0 0-.251.438c-.041.173-.033.368.025.583Zm5.123 3.23-1.647-6.145 1.036-.278.198.74.061-.017c.025-.123.071-.259.137-.408a1.26 1.26 0 0 1 .317-.424c.145-.135.348-.237.61-.307a1.76 1.76 0 0 1 1.005.014c.326.1.616.3.871.599.257.298.452.694.585 1.191.131.491.162.929.093 1.316a1.908 1.908 0 0 1-.447.962 1.747 1.747 0 0 1-.87.523c-.256.069-.48.083-.672.043a1.34 1.34 0 0 1-.49-.2 2.042 2.042 0 0 1-.328-.283l-.044.012.638 2.38-1.053.282Zm-.015-4.187c.077.289.186.531.326.727.141.195.306.332.494.413a.95.95 0 0 0 .619.028.954.954 0 0 0 .535-.343c.123-.169.195-.372.216-.611a2.198 2.198 0 0 0-.078-.78 2.2 2.2 0 0 0-.317-.707 1.147 1.147 0 0 0-.491-.411.961.961 0 0 0-.637-.026.95.95 0 0 0-.525.331c-.126.16-.2.358-.225.593a2.23 2.23 0 0 0 .083.786Zm5.353 1.029a.644.644 0 0 1-.504-.064.628.628 0 0 1-.308-.404.62.62 0 0 1 .066-.498.647.647 0 0 1 .404-.308.631.631 0 0 1 .495.067.63.63 0 0 1 .309.744.695.695 0 0 1-.17.295.621.621 0 0 1-.292.168Zm2.376-.636a.647.647 0 0 1-.503-.065.622.622 0 0 1-.308-.404.616.616 0 0 1 .066-.498.644.644 0 0 1 .404-.308.635.635 0 0 1 .495.067.636.636 0 0 1 .308.744.695.695 0 0 1-.17.295.627.627 0 0 1-.292.169Zm2.377-.637a.645.645 0 0 1-.504-.065.625.625 0 0 1-.308-.404.623.623 0 0 1 .066-.498.65.65 0 0 1 .404-.308.643.643 0 0 1 .496.067.636.636 0 0 1 .308.744.69.69 0 0 1-.17.295.632.632 0 0 1-.292.169Zm-.711-6.265 1.219-.327 2.164 2.246.058-.016.752-3.027 1.219-.326-1.167 4.316.596 2.224-1.077.288-.595-2.223-3.169-3.155Zm9.855 3.833a2.983 2.983 0 0 1-1.211.091 1.99 1.99 0 0 1-.945-.386 1.45 1.45 0 0 1-.511-.79 1.484 1.484 0 0 1-.022-.733c.055-.239.157-.454.308-.644.152-.192.339-.339.562-.44l-.011-.041a1.301 1.301 0 0 1-.87-.269 1.393 1.393 0 0 1-.508-.778 1.406 1.406 0 0 1 .036-.889c.108-.286.294-.539.558-.757a2.5 2.5 0 0 1 .974-.486 2.467 2.467 0 0 1 1.077-.064c.338.057.625.183.862.377.239.194.4.444.482.751.086.322.066.631-.06.929a1.297 1.297 0 0 1-.61.666l.011.041c.243-.024.477.01.701.102.225.089.421.224.588.404.169.179.287.394.354.644.086.322.068.636-.054.941a1.98 1.98 0 0 1-.626.807 2.913 2.913 0 0 1-1.085.524Zm-.223-.832a1.44 1.44 0 0 0 .552-.269.945.945 0 0 0 .297-.429.92.92 0 0 0 .01-.521.936.936 0 0 0-.284-.463 1.008 1.008 0 0 0-.485-.241 1.275 1.275 0 0 0-.598.026c-.214.057-.392.15-.537.278a1.04 1.04 0 0 0-.303.452.914.914 0 0 0-.005.541.873.873 0 0 0 .734.667c.188.033.394.019.619-.041Zm-.727-2.715a1.06 1.06 0 0 0 .453-.24.864.864 0 0 0 .255-.888.886.886 0 0 0-.242-.415.819.819 0 0 0-.412-.211 1.108 1.108 0 0 0-.518.023c-.188.05-.345.131-.469.241a.809.809 0 0 0-.245.867.887.887 0 0 0 .239.426.908.908 0 0 0 .417.219c.164.035.338.028.522-.022Zm4.463-.288.701 2.619-1.053.282-1.198-4.469 1.007-.27.204.759.052-.014c.036-.277.146-.52.332-.728.187-.208.448-.357.782-.446.308-.083.594-.089.859-.019.266.071.495.214.689.43.195.216.339.503.433.86l.762 2.846-1.053.282-.719-2.682c-.08-.299-.22-.512-.421-.639-.198-.128-.433-.156-.705-.083-.184.05-.337.134-.459.254a.874.874 0 0 0-.241.436c-.039.173-.03.367.028.582Zm5.707-3.513.219.815-2.642.708-.219-.815 2.642-.708Zm-.784 5.001-1.31-4.892c-.081-.3-.086-.567-.015-.8.072-.234.201-.429.386-.584a1.69 1.69 0 0 1 .664-.337 2.622 2.622 0 0 1 .833-.092l.009.87c-.048-.001-.108 0-.18.005a1.1 1.1 0 0 0-.233.037c-.196.053-.322.138-.378.255-.054.114-.058.258-.011.433l1.292 4.822-1.057.283Zm1.609-5.222 1.054-.282 1.266 4.725c.086.322.096.605.03.847a1.168 1.168 0 0 1-.404.61c-.203.165-.47.291-.8.38l-.108.026-.108.026-.23-.859.079-.018a.695.695 0 0 0 .073-.017c.202-.054.333-.142.394-.264.061-.121.067-.275.016-.463l-1.262-4.711Zm.354-.775a.638.638 0 0 1-.478-.049.56.56 0 0 1-.286-.357.556.556 0 0 1 .069-.452c.09-.145.22-.24.389-.285a.618.618 0 0 1 .473.054.546.546 0 0 1 .288.356.555.555 0 0 1-.072.453.62.62 0 0 1-.383.28Zm1.023-1.19 1.219-.327 2.164 2.246.058-.016.752-3.027 1.219-.327-1.167 4.317.596 2.223-1.077.289-.595-2.223-3.169-3.155Zm9.027 3.968-3.278-5.509 1.161-.311 2.247 4.092.055-.015-.027-4.687 1.056-.283 2.324 4.074.052-.014-.1-4.669 1.161-.311-.085 6.409-1.065.286-2.314-3.862-.046.013-.076 4.501-1.065.286Zm9.925-.863-.638-2.38-.043.011c-.026.123-.073.26-.143.41a1.349 1.349 0 0 1-.325.417c-.146.131-.347.23-.603.299-.351.094-.69.088-1.015-.018a1.902 1.902 0 0 1-.868-.609c-.253-.301-.446-.696-.577-1.187-.133-.497-.164-.937-.093-1.322.073-.388.226-.706.459-.956.232-.251.519-.423.863-.515.262-.07.489-.083.682-.039.192.042.354.112.486.209.132.096.239.191.323.285l.064-.017-.198-.739 1.036-.278 1.646 6.146-1.056.283Zm-1.69-2.186a.946.946 0 0 0 .522-.333 1.16 1.16 0 0 0 .222-.605 2.228 2.228 0 0 0-.082-.792 2.154 2.154 0 0 0-.324-.721 1.105 1.105 0 0 0-.488-.403.948.948 0 0 0-.621-.024.963.963 0 0 0-.538.341 1.145 1.145 0 0 0-.22.602c-.022.236.005.493.079.771.075.279.181.518.32.715.139.196.305.336.496.42a.955.955 0 0 0 .634.029Zm5.508-.546a2.965 2.965 0 0 1-1.211.09 1.99 1.99 0 0 1-.945-.386 1.452 1.452 0 0 1-.511-.789 1.485 1.485 0 0 1-.022-.733 1.59 1.59 0 0 1 .308-.644c.152-.193.339-.34.562-.441l-.011-.041a1.305 1.305 0 0 1-.871-.268 1.4 1.4 0 0 1-.507-.778 1.406 1.406 0 0 1 .036-.889c.108-.287.294-.54.558-.758.263-.22.588-.382.974-.486a2.482 2.482 0 0 1 1.077-.064c.338.057.625.183.862.377.239.194.4.444.482.751.086.322.066.632-.06.93a1.298 1.298 0 0 1-.61.665l.011.041c.243-.023.476.011.701.102.225.09.421.224.588.404.169.179.286.394.354.644.086.322.068.636-.054.941a1.989 1.989 0 0 1-.626.807 2.937 2.937 0 0 1-1.085.525Zm-.223-.833c.223-.059.407-.149.552-.269a.908.908 0 0 0 .307-.949.939.939 0 0 0-.284-.464 1.008 1.008 0 0 0-.485-.241 1.288 1.288 0 0 0-.598.026c-.214.057-.393.15-.537.278a1.032 1.032 0 0 0-.303.452.914.914 0 0 0-.005.541.873.873 0 0 0 .264.447.944.944 0 0 0 .47.221c.188.032.394.019.619-.042Zm-.727-2.714a1.06 1.06 0 0 0 .453-.24.875.875 0 0 0 .255-.889.884.884 0 0 0-.243-.415.81.81 0 0 0-.412-.211 1.104 1.104 0 0 0-.517.023 1.147 1.147 0 0 0-.469.241.813.813 0 0 0-.245.867.882.882 0 0 0 .239.426.903.903 0 0 0 .417.219c.164.035.337.028.522-.021Z" fill="#A5ADB9"/><rect x="279.106" y="302.153" width="208.539" height="45.242" rx="8.483" transform="rotate(-15 279.106 302.153)" fill="#4381C0"/><path d="m450.503 256.229 21.85-5.855a8.484 8.484 0 0 1 10.39 5.999l7.318 27.313a8.483 8.483 0 0 1-5.998 10.389l-21.85 5.855-11.71-43.701Z" fill="#235B95"/><g clip-path="url(#s)"><path d="m464.846 274.13 6.145-1.646-.713-2.663c-.074-.273.063-.31.304-.228 1.709.64 5.9 2.078 6.556 2.342.396.113.543.659.274 1.024-.436.556-3.328 3.965-4.506 5.306-.237.209-.305.228-.378-.045l-.677-2.527-6.145 1.647" stroke="#fff" stroke-width="1.414" stroke-linecap="round" stroke-linejoin="round"/></g><path d="m295.671 316.845 1.388-6.645-.013-.048-3.432.92-.282-1.052 4.736-1.269.288 1.076-1.378 6.667-1.307.351Zm7.812-1.952c-.559.15-1.077.137-1.554-.038-.474-.179-.891-.507-1.25-.986-.357-.482-.637-1.102-.84-1.86-.201-.759-.266-1.432-.196-2.021.072-.592.269-1.081.593-1.469.325-.388.766-.656 1.323-.805.556-.15 1.073-.138 1.548.036.476.173.892.498 1.248.975.358.477.638 1.093.841 1.849.204.76.27 1.439.199 2.035-.069.593-.265 1.085-.59 1.475-.323.39-.763.66-1.322.809Zm-.285-1.062c.434-.117.72-.422.857-.917.138-.498.095-1.165-.129-2-.148-.552-.33-1.001-.546-1.345-.216-.345-.455-.584-.716-.718a1.103 1.103 0 0 0-.824-.088c-.432.115-.717.422-.853.919-.136.495-.095 1.157.125 1.986.146.555.327 1.007.541 1.354.217.347.456.589.718.725.262.133.537.161.827.084Zm6.661-.646c-.559.15-1.077.137-1.553-.039-.475-.178-.892-.507-1.251-.986-.357-.481-.637-1.101-.84-1.859-.201-.759-.266-1.433-.196-2.022.072-.591.27-1.081.593-1.468.325-.388.766-.657 1.323-.806.557-.149 1.073-.137 1.549.036.475.174.891.499 1.247.976.358.476.638 1.093.841 1.848.204.761.27 1.439.2 2.035-.069.594-.266 1.086-.591 1.476-.323.389-.763.659-1.322.809Zm-.285-1.063c.434-.116.72-.422.857-.917.138-.498.095-1.164-.129-1.999-.148-.553-.33-1.001-.546-1.346-.216-.345-.455-.584-.716-.718a1.108 1.108 0 0 0-.824-.088c-.432.116-.716.422-.852.92-.137.495-.096 1.157.124 1.986.146.555.327 1.006.541 1.354.217.347.456.588.718.724.262.134.537.162.827.084Zm4.575-.149a.75.75 0 0 1-.587-.075.731.731 0 0 1-.36-.471.72.72 0 0 1 .078-.581.753.753 0 0 1 .471-.36.742.742 0 0 1 .578.079.736.736 0 0 1 .359.867.803.803 0 0 1-.198.345.73.73 0 0 1-.341.196Zm2.405-8.277a2.955 2.955 0 0 1 1.018-.084c.347.028.682.137 1.005.327.322.188.615.477.88.867.264.39.482.902.651 1.536.163.596.242 1.148.24 1.653a3.694 3.694 0 0 1-.229 1.334 2.503 2.503 0 0 1-.66.971c-.29.259-.644.445-1.062.557a2.635 2.635 0 0 1-1.237.055 2.277 2.277 0 0 1-1.008-.487 2.328 2.328 0 0 1-.658-.922l1.239-.332c.137.259.325.444.564.555.24.108.509.121.808.041.482-.129.797-.438.945-.926.148-.488.122-1.105-.077-1.849l-.048.012c-.057.229-.155.44-.293.632-.138.19-.309.353-.512.49a2.245 2.245 0 0 1-.676.305c-.407.109-.8.11-1.178.002a2.205 2.205 0 0 1-.985-.594 2.47 2.47 0 0 1-.597-1.088 2.476 2.476 0 0 1-.014-1.303c.113-.418.33-.782.65-1.091.319-.311.73-.531 1.234-.661Zm.276 1.017a1.296 1.296 0 0 0-.613.357 1.32 1.32 0 0 0-.333.606c-.057.231-.052.471.015.72.068.246.184.455.346.628a1.273 1.273 0 0 0 1.286.358 1.3 1.3 0 0 0 .82-.646c.086-.159.14-.327.163-.506a1.295 1.295 0 0 0-.038-.535 1.37 1.37 0 0 0-.346-.613 1.353 1.353 0 0 0-.589-.363 1.245 1.245 0 0 0-.711-.006Zm8.003 4.46c-.559.149-1.077.136-1.553-.039-.475-.179-.892-.507-1.25-.986-.357-.481-.638-1.101-.841-1.86-.201-.758-.266-1.432-.196-2.021.072-.592.27-1.081.593-1.469.325-.388.766-.656 1.323-.805.557-.149 1.073-.137 1.549.036.475.173.891.498 1.247.976.358.476.639 1.092.841 1.848.204.761.27 1.439.2 2.035-.069.593-.266 1.085-.591 1.475-.322.39-.763.66-1.322.81Zm-.285-1.063c.435-.116.72-.422.857-.917.138-.498.095-1.165-.128-2-.148-.552-.33-1-.547-1.345-.216-.345-.454-.584-.716-.718a1.108 1.108 0 0 0-.824-.088c-.432.116-.716.422-.852.919-.137.495-.095 1.157.124 1.986.147.555.327 1.007.541 1.354.217.347.456.589.718.725.262.134.537.162.827.084Zm6.576-.663a3.328 3.328 0 0 1-1.371.098 2.252 2.252 0 0 1-1.083-.459c-.3-.24-.509-.554-.627-.942l1.276-.342a.875.875 0 0 0 .319.442c.15.108.329.175.538.202.208.026.429.008.662-.054a1.67 1.67 0 0 0 .627-.306c.169-.14.287-.303.354-.488a.948.948 0 0 0 .015-.583.977.977 0 0 0-.313-.513 1.126 1.126 0 0 0-.583-.247 1.945 1.945 0 0 0-.79.066l-.614.164-.26-.97.614-.165a1.54 1.54 0 0 0 .601-.296 1.07 1.07 0 0 0 .337-.468.943.943 0 0 0 .01-.574.96.96 0 0 0-.27-.477.924.924 0 0 0-.469-.242 1.274 1.274 0 0 0-.599.029 1.55 1.55 0 0 0-.56.274 1.12 1.12 0 0 0-.35.447.867.867 0 0 0-.042.549l-1.211.325a1.821 1.821 0 0 1 .061-1.115c.138-.355.366-.663.683-.925a2.959 2.959 0 0 1 1.152-.578c.464-.124.89-.145 1.278-.063.39.08.719.241.985.483.266.241.446.538.541.892.107.39.079.75-.083 1.077-.16.326-.417.581-.771.763l.015.054c.507-.063.93.018 1.269.242.341.222.568.55.683.985.104.39.086.768-.053 1.135a2.286 2.286 0 0 1-.717.964c-.338.277-.756.482-1.254.616Zm3.706-1.095-.243-.91 1.779-3.013c.169-.295.306-.553.411-.776.105-.222.174-.428.205-.619a1.33 1.33 0 0 0-.03-.574 1.065 1.065 0 0 0-.3-.523 1.034 1.034 0 0 0-.509-.257 1.383 1.383 0 0 0-.629.03 1.282 1.282 0 0 0-.563.304 1.018 1.018 0 0 0-.294.504c-.046.197-.038.415.026.652l-1.199.321c-.118-.441-.12-.852-.006-1.231a2.11 2.11 0 0 1 .629-.98 2.776 2.776 0 0 1 1.15-.596c.466-.125.899-.148 1.299-.068.4.08.738.245 1.014.496.278.251.469.571.573.96.07.26.089.529.057.807-.033.278-.134.603-.303.976-.167.373-.417.836-.751 1.391l-.872 1.54.013.048 3.028-.812.282 1.053-4.767 1.277Zm8.458-2.165a3.31 3.31 0 0 1-1.371.098 2.252 2.252 0 0 1-1.083-.459c-.3-.24-.509-.554-.627-.941l1.276-.342a.88.88 0 0 0 .319.442c.15.108.329.175.538.201.208.027.429.009.662-.053a1.67 1.67 0 0 0 .628-.307c.168-.14.286-.302.353-.487a.934.934 0 0 0 .015-.583.97.97 0 0 0-.312-.513 1.13 1.13 0 0 0-.583-.248 1.978 1.978 0 0 0-.79.066l-.615.165-.26-.971.614-.164c.243-.065.443-.164.602-.296.16-.133.273-.289.336-.469a.943.943 0 0 0 .01-.574.954.954 0 0 0-.27-.477.929.929 0 0 0-.468-.242 1.292 1.292 0 0 0-.6.03 1.543 1.543 0 0 0-.56.274c-.16.125-.277.274-.35.446a.863.863 0 0 0-.041.55l-1.212.325a1.82 1.82 0 0 1 .061-1.115c.138-.355.366-.664.684-.926a2.982 2.982 0 0 1 1.151-.578c.464-.124.89-.145 1.278-.062.391.08.719.241.985.482.266.242.446.539.541.892.107.391.079.75-.083 1.077a1.69 1.69 0 0 1-.77.764l.014.054c.507-.063.93.018 1.269.242.341.222.569.55.683.985.104.389.087.768-.053 1.135a2.273 2.273 0 0 1-.717.963c-.338.278-.756.483-1.254.616Zm6.312-1.651c-.559.15-1.077.137-1.553-.038-.475-.179-.892-.507-1.25-.986-.357-.482-.638-1.102-.841-1.86-.201-.759-.266-1.432-.196-2.021.072-.592.27-1.081.593-1.469.325-.388.766-.656 1.323-.806.557-.149 1.073-.137 1.549.037.476.173.891.498 1.247.975.358.477.639 1.093.841 1.849.204.76.27 1.439.2 2.035-.069.593-.266 1.085-.591 1.475-.322.39-.763.659-1.322.809Zm-.285-1.062c.435-.117.72-.422.857-.917.138-.498.095-1.165-.128-2-.148-.552-.33-1.001-.547-1.345-.216-.345-.454-.584-.716-.718a1.107 1.107 0 0 0-.824-.089c-.432.116-.716.423-.852.92-.137.495-.095 1.157.124 1.986.147.555.327 1.006.541 1.354.217.347.456.589.718.725.262.133.537.161.827.084Zm7.388-.983-1.345.36.585-7.608 1.555-.416 4.314 6.295-1.345.36-3.337-5.029-.055.015-.372 6.023Zm-.687-2.738 3.667-.982.271 1.012-3.667.982-.271-1.012Zm6.711 1.124-1.862-6.953 2.607-.698c.534-.143 1.007-.171 1.419-.082.414.088.758.275 1.034.56.277.282.475.645.593 1.089.12.446.129.858.026 1.237-.1.376-.31.703-.628.98-.32.275-.747.484-1.281.627l-1.857.497-.28-1.045 1.687-.452c.313-.084.557-.196.733-.335a.95.95 0 0 0 .339-.502 1.29 1.29 0 0 0-.022-.663 1.32 1.32 0 0 0-.315-.593.965.965 0 0 0-.552-.281c-.224-.04-.493-.017-.808.067l-1.154.309 1.581 5.9-1.26.338Zm2.748-4.113 2.565 2.689-1.405.377-2.535-2.697 1.375-.369Zm3.47 2.447-1.863-6.952 1.259-.338.856 3.194.085-.022 1.857-3.921 1.537-.413-1.852 3.841 3.739 3.105-1.514.406-2.873-2.425-.527 1.117.555 2.07-1.259.338Z" fill="#fff"/><path d="M301.478 331.602a2.477 2.477 0 0 1-1.101.06 1.915 1.915 0 0 1-.892-.409 1.66 1.66 0 0 1-.521-.802l1.048-.281a.852.852 0 0 0 .478.514c.233.102.484.117.754.045.211-.057.386-.156.525-.297s.233-.311.282-.509a1.224 1.224 0 0 0-.019-.628 1.222 1.222 0 0 0-.303-.561 1.103 1.103 0 0 0-.509-.304 1.154 1.154 0 0 0-.622.005 1.435 1.435 0 0 0-.5.24c-.155.114-.268.24-.339.378l-1.017.101-.512-3.156 3.456-.927.242.902-2.563.687.251 1.626.035-.009a1.28 1.28 0 0 1 .382-.449c.178-.141.388-.244.628-.308a1.896 1.896 0 0 1 1.035-.003c.329.093.614.266.856.519.243.253.415.571.518.953.105.394.108.769.008 1.126a2 2 0 0 1-.559.927c-.273.26-.62.447-1.041.56Zm3.921-2.012.048.33c.038.252.056.513.054.784 0 .273-.009.526-.027.759-.019.234-.035.418-.049.553l-.71.19-.018-.513a12.618 12.618 0 0 0-.045-.724 6.854 6.854 0 0 0-.117-.798l-.067-.331.931-.25Zm1.749-6.069c.286-.075.577-.099.873-.072.297.024.584.118.861.281.276.161.527.408.754.742.227.335.413.773.559 1.317.139.511.207.984.205 1.417-.001.43-.067.812-.196 1.144a2.132 2.132 0 0 1-.566.831 2.18 2.18 0 0 1-.911.478 2.251 2.251 0 0 1-1.06.047 1.95 1.95 0 0 1-1.428-1.208l1.062-.284c.118.222.279.38.483.475.206.093.437.105.693.036.413-.111.683-.375.81-.794.127-.419.105-.947-.066-1.585l-.041.011a1.582 1.582 0 0 1-.251.541 1.723 1.723 0 0 1-.439.42 1.892 1.892 0 0 1-.579.261 1.863 1.863 0 0 1-1.01.003 1.899 1.899 0 0 1-.844-.51 2.121 2.121 0 0 1-.512-.933 2.116 2.116 0 0 1-.012-1.116 2.01 2.01 0 0 1 .557-.935c.274-.267.626-.456 1.058-.567Zm.237.872c-.21.056-.385.158-.526.306-.14.146-.235.319-.285.519a1.22 1.22 0 0 0 .012.617c.059.211.158.391.297.538a1.091 1.091 0 0 0 1.102.307 1.123 1.123 0 0 0 .703-.553 1.215 1.215 0 0 0 .107-.893 1.162 1.162 0 0 0-.296-.525 1.16 1.16 0 0 0-.505-.311 1.068 1.068 0 0 0-.609-.005Zm6.859 3.822c-.479.129-.923.117-1.331-.033-.407-.153-.764-.435-1.072-.845-.306-.413-.546-.944-.72-1.594-.172-.65-.228-1.228-.168-1.733.062-.507.231-.926.508-1.258.279-.333.657-.563 1.134-.691.477-.128.92-.118 1.328.031.407.149.764.427 1.069.836.307.409.547.937.721 1.585.174.652.231 1.233.171 1.744-.059.509-.228.93-.507 1.265-.276.334-.654.565-1.133.693Zm-.244-.911c.372-.099.617-.361.734-.786.119-.427.082-.998-.11-1.714-.126-.473-.282-.857-.468-1.153-.185-.295-.39-.5-.614-.615a.946.946 0 0 0-.706-.076c-.371.099-.614.362-.731.788-.117.425-.081.992.107 1.703.126.475.28.862.464 1.16.186.298.391.505.615.621a.957.957 0 0 0 .709.072Zm4.303-6.685 1.597 5.959-1.079.289-1.316-4.909-.035.01-1.155 1.264-.265-.99 1.226-1.348 1.027-.275Zm3.46 5.529a.649.649 0 0 1-.504-.065.625.625 0 0 1-.308-.404.616.616 0 0 1 .066-.498.647.647 0 0 1 .404-.308.635.635 0 0 1 .495.067.63.63 0 0 1 .309.744.687.687 0 0 1-.171.295.628.628 0 0 1-.291.169Zm2.061-7.096c.286-.074.576-.098.873-.071a2 2 0 0 1 .861.28c.276.161.527.409.754.743.227.334.413.773.558 1.316.14.512.208.984.205 1.417a3.163 3.163 0 0 1-.195 1.144c-.13.332-.318.61-.566.832a2.191 2.191 0 0 1-.911.478c-.376.101-.73.116-1.06.047a1.944 1.944 0 0 1-1.428-1.208l1.062-.285c.118.222.279.381.483.476.206.092.437.104.693.036.413-.111.683-.376.81-.794.127-.419.105-.947-.066-1.586l-.041.011a1.578 1.578 0 0 1-.251.542 1.758 1.758 0 0 1-.439.42 1.903 1.903 0 0 1-.579.261 1.863 1.863 0 0 1-1.01.002 1.888 1.888 0 0 1-.844-.509 2.121 2.121 0 0 1-.512-.933 2.116 2.116 0 0 1-.012-1.116c.097-.359.283-.671.557-.935.273-.267.626-.456 1.058-.568Zm.237.872a1.124 1.124 0 0 0-.811.826 1.22 1.22 0 0 0 .012.617c.059.211.158.39.297.538.141.147.307.249.497.307.192.056.394.056.605 0a1.112 1.112 0 0 0 .703-.554c.074-.136.12-.28.14-.433.021-.153.01-.306-.033-.459a1.163 1.163 0 0 0-.297-.526 1.159 1.159 0 0 0-.504-.31 1.068 1.068 0 0 0-.609-.006Zm6.719 3.826a2.489 2.489 0 0 1-1.1.061 1.916 1.916 0 0 1-.892-.41 1.656 1.656 0 0 1-.521-.802l1.048-.281c.084.24.244.411.477.515.233.102.485.116.754.044.212-.057.387-.156.526-.297s.233-.311.282-.509a1.235 1.235 0 0 0-.019-.628 1.232 1.232 0 0 0-.303-.561 1.098 1.098 0 0 0-.509-.303 1.144 1.144 0 0 0-.622.004 1.435 1.435 0 0 0-.5.24c-.155.114-.268.24-.339.378l-1.018.101-.512-3.156 3.457-.926.242.902-2.564.687.252 1.626.035-.01c.076-.159.203-.309.382-.448.178-.142.388-.245.628-.309a1.875 1.875 0 0 1 1.891.516c.243.253.415.571.518.953.105.394.108.769.008 1.127a2.004 2.004 0 0 1-.559.926 2.367 2.367 0 0 1-1.042.56Zm7.342-8.442 1.08-.289 1.043 3.893c.114.427.114.829-.001 1.207a2.116 2.116 0 0 1-.64.986c-.314.278-.714.481-1.199.611-.487.131-.936.154-1.347.071a2.113 2.113 0 0 1-1.047-.533 2.173 2.173 0 0 1-.602-1.046l-1.043-3.893 1.079-.289 1.019 3.803c.067.248.181.455.341.619.163.165.359.275.588.333.229.055.48.045.754-.028.273-.073.495-.191.666-.353.172-.165.287-.358.343-.582a1.373 1.373 0 0 0-.015-.707l-1.019-3.803Zm5.931.167a.823.823 0 0 0-.503-.502c-.237-.088-.516-.089-.836-.003-.225.06-.409.146-.552.257a.894.894 0 0 0-.296.375.699.699 0 0 0 .147.735.802.802 0 0 0 .298.169c.116.036.24.059.371.069.132.011.263.014.393.01l.596-.01c.239-.008.474.005.706.039.233.033.45.095.652.187.203.091.379.22.527.386.149.166.257.378.327.636.093.349.086.68-.021.994-.108.312-.31.587-.608.827-.296.237-.683.42-1.16.548-.463.124-.885.16-1.265.108a1.859 1.859 0 0 1-.966-.415c-.264-.224-.456-.532-.578-.924l1.062-.284a.939.939 0 0 0 .331.466c.149.108.323.171.522.191.2.019.413-.002.638-.062.235-.063.431-.153.589-.27a1.05 1.05 0 0 0 .34-.409.746.746 0 0 0 .034-.49.594.594 0 0 0-.24-.347 1.042 1.042 0 0 0-.444-.156 3.764 3.764 0 0 0-.609-.036l-.724.007c-.525.005-.964-.082-1.318-.261-.352-.183-.585-.487-.7-.914a1.595 1.595 0 0 1 .038-.999c.122-.315.328-.589.618-.823a2.82 2.82 0 0 1 1.061-.522 2.72 2.72 0 0 1 1.171-.076c.359.059.665.195.917.406.251.209.425.481.521.815l-1.039.278Zm5.26 3.222-2.02.541-1.596-5.959 2.06-.552c.591-.159 1.131-.176 1.62-.051.49.122.909.375 1.257.758.348.383.605.884.771 1.503.166.62.194 1.185.083 1.693a2.49 2.49 0 0 1-.717 1.293c-.367.354-.853.612-1.458.774Zm-1.19-.682.887-.238c.415-.111.741-.28.978-.505.236-.228.384-.512.442-.852.058-.342.026-.741-.096-1.197-.122-.455-.293-.815-.513-1.078a1.48 1.48 0 0 0-.802-.512c-.312-.079-.67-.064-1.073.044l-.92.247 1.097 4.091Z" fill="#212225"/><defs><clipPath id="a"><path d="M42 0h436.919C484.487 0 489 4.513 489 10.08V320.92c0 5.568-4.513 10.081-10.081 10.081H42V0Z" fill="#fff"/></clipPath><clipPath id="c"><rect x="124.699" y="70.642" width="271.152" height="898.777" rx="13.347" transform="rotate(-15 124.699 70.642)" fill="#fff"/></clipPath><clipPath id="d"><path fill="#fff" transform="rotate(-15 433.631 -1183.72)" d="M0 0h58.569v14.461H0z"/></clipPath><clipPath id="e"><path fill="#fff" transform="rotate(-15 433.631 -1183.72)" d="M0 0h14.461v14.461H0z"/></clipPath><clipPath id="f"><path fill="#fff" transform="rotate(165 191.204 132.625)" d="M0 0h7.231v7.231H0z"/></clipPath><clipPath id="g"><path fill="#fff" transform="rotate(-15 362.438 -544.107)" d="M0 0h16.828v16.828H0z"/></clipPath><clipPath id="h"><path fill="#fff" transform="rotate(-15 307.998 -985.13)" d="M0 0h65.076v14.461H0z"/></clipPath><clipPath id="i"><path fill="#fff" transform="rotate(-15 288.836 -1130.675)" d="M0 0h14.461v14.461H0z"/></clipPath><clipPath id="j"><path fill="#fff" transform="rotate(-15 250.305 -1296.018)" d="M0 0h23.138v23.138H0z"/></clipPath><clipPath id="k"><path fill="#fff" transform="rotate(-15 250.305 -1296.018)" d="M0 0h23.108v23.138H0z"/></clipPath><clipPath id="l"><path fill="#fff" transform="rotate(-15 250.31 -1296.017)" d="M0 0h23.108v23.108H0z"/></clipPath><clipPath id="m"><path fill="#fff" transform="rotate(-15 250.31 -1296.017)" d="M0 0h23.108v23.108H0z"/></clipPath><clipPath id="o"><path fill="#fff" transform="rotate(-15 1120.477 -929.756)" d="M0 0h31.104v31.104H0z"/></clipPath><clipPath id="p"><path fill="#fff" transform="rotate(-15 1120.474 -929.737)" d="M0 0h31.104v31.104H0z"/></clipPath><clipPath id="q"><path fill="#fff" transform="rotate(-15 1120.474 -929.734)" d="M0 0h31.104v31.104H0z"/></clipPath><clipPath id="s"><path fill="#fff" transform="rotate(-15 1253.23 -1623.042)" d="M0 0h14.138v14.138H0z"/></clipPath><filter id="b" x="-115.55" y="-25.119" width="788.171" height="1396.58" filterUnits="userSpaceOnUse" color-interpolation-filters="sRGB"><feFlood flood-opacity="0" result="BackgroundImageFix"/><feColorMatrix in="SourceAlpha" values="0 0 0 0 0 0 0 0 0 0 0 0 0 0 0 0 0 0 127 0" result="hardAlpha"/><feOffset/><feColorMatrix values="0 0 0 0 0.0352941 0 0 0 0 0.176471 0 0 0 0 0.32549 0 0 0 0.1 0"/><feBlend in2="BackgroundImageFix" result="effect1_dropShadow_2307_42559"/><feColorMatrix in="SourceAlpha" values="0 0 0 0 0 0 0 0 0 0 0 0 0 0 0 0 0 0 127 0" result="hardAlpha"/><feOffset dx="-6.674" dy="18.909"/><feGaussianBlur stdDeviation="22.245"/><feColorMatrix values="0 0 0 0 0.0352941 0 0 0 0 0.176471 0 0 0 0 0.32549 0 0 0 0.1 0"/><feBlend in2="effect1_dropShadow_2307_42559" result="effect2_dropShadow_2307_42559"/><feColorMatrix in="SourceAlpha" values="0 0 0 0 0 0 0 0 0 0 0 0 0 0 0 0 0 0 127 0" result="hardAlpha"/><feOffset dx="-27.807" dy="75.634"/><feGaussianBlur stdDeviation="40.598"/><feColorMatrix values="0 0 0 0 0.0352941 0 0 0 0 0.176471 0 0 0 0 0.32549 0 0 0 0.09 0"/><feBlend in2="effect2_dropShadow_2307_42559" result="effect3_dropShadow_2307_42559"/><feColorMatrix in="SourceAlpha" values="0 0 0 0 0 0 0 0 0 0 0 0 0 0 0 0 0 0 127 0" result="hardAlpha"/><feOffset dx="-62.287" dy="170.177"/><feGaussianBlur stdDeviation="54.501"/><feColorMatrix values="0 0 0 0 0.0352941 0 0 0 0 0.176471 0 0 0 0 0.32549 0 0 0 0.05 0"/><feBlend in2="effect3_dropShadow_2307_42559" result="effect4_dropShadow_2307_42559"/><feColorMatrix in="SourceAlpha" values="0 0 0 0 0 0 0 0 0 0 0 0 0 0 0 0 0 0 127 0" result="hardAlpha"/><feOffset dx="-111.227" dy="303.648"/><feGaussianBlur stdDeviation="64.511"/><feColorMatrix values="0 0 0 0 0.0352941 0 0 0 0 0.176471 0 0 0 0 0.32549 0 0 0 0.01 0"/><feBlend in2="effect4_dropShadow_2307_42559" result="effect5_dropShadow_2307_42559"/><feBlend in="SourceGraphic" in2="effect5_dropShadow_2307_42559" result="shape"/></filter></defs></svg>