<svg viewBox="0 0 540 352" fill="none" xmlns="http://www.w3.org/2000/svg"><path d="M33 48c0-11.046 8.954-20 20-20h445c11.046 0 20 8.954 20 20v264c0 11.046-8.954 20-20 20H53c-11.046 0-20-8.954-20-20V48Z" fill="#283C64"/><path d="M182.708 321.615 119.816 86.896c-2.725-10.167 3.309-20.618 13.476-23.342l34.978-9.372m31.296-8.386L326 11.918M177.935 51.592l9.204-2.466m218.417-15.117 16.904 63.084" stroke="#355594" stroke-width="2" stroke-linecap="round"/><path d="M122.012 49h-2v7h-7v2h7v7h2v-7h7v-2h-7v-7ZM100.012 49h-2v7h-7v2h7v7h2v-7h7v-2h-7v-7ZM76.262 107.885h2v-7h7v-2h-7v-7h-2v7h-7v2h7v7ZM98.262 85.885h2v-7h7v-2h-7v-7h-2v7h-7v2h7v7ZM98.262 107.885h2v-7h7v-2h-7v-7h-2v7h-7v2h7v7ZM98.262 129.885h2v-7h7v-2h-7v-7h-2v7h-7v2h7v7Z" fill="#355594"/><path d="m119.18 106.602 12.011 44.826m344.886 123.663-36.583-143.496" stroke="#0D7ED6" stroke-width="2" stroke-linecap="round"/><path d="M92.777 213.037a11.44 11.44 0 0 1 11.462 0l22.038 12.756a11.494 11.494 0 0 1 5.731 9.95v25.51c0 4.105-2.185 7.898-5.731 9.951l-22.038 12.755a11.44 11.44 0 0 1-11.462 0L70.74 271.204a11.497 11.497 0 0 1-5.731-9.951v-25.51c0-4.105 2.184-7.898 5.73-9.95l22.04-12.756Z" fill="#355594"/><path d="m77.621 207.068 11.932-6.925a15.836 15.836 0 0 1 15.909 0l5.824 3.38m9.091 5.276 2.932 1.701m-49.051 79.481 15.295 8.876a15.836 15.836 0 0 0 15.909 0l30.591-17.753a16.008 16.008 0 0 0 7.955-13.85v-55.508c0-5.746 0-10.246-2.5-19.246-2-7.2-6.501-25-9.002-34.5m-4.998 54.937 3.5 2.031m27 41.032-6.886-26.5M69.008 139.709v7.581c0 2.829-1.478 5.444-3.878 6.858l-14.911 8.791a7.62 7.62 0 0 1-7.755 0l-7.456-4.396m-12-15.875v4.362a7.964 7.964 0 0 0 4.047 6.914l2.683 1.528" stroke="#355594" stroke-width="2" stroke-linecap="round"/><path d="M43.522 151.016a3.151 3.151 0 0 0 2.06.518l8.002-1.047c2.302-.277 3.185-.203 3.693-2.687.441-2.155 1.184-5.296 1.323-6.465m-15.078 9.681a3.156 3.156 0 0 1-1.264-1.708l-.753-2.808m2.017 4.516 1.984-7.87m-6.643-6.508-13.23 1.544a3.146 3.146 0 0 1-2.06-.517m15.29-1.027 1.788-7.808m-1.788 7.808 1.712 6.391m-17.002-5.364a3.151 3.151 0 0 1-1.264-1.708l-2.716-10.136c-.469-1.747-.516-2.753.18-3.958.695-1.205 1.587-3.368 2.002-3.932m1.798 19.734 2.06-7.867m31.807 4.672 9.203-1.075c2.32-.269 2.845-.842 3.15-2.236.245-1.114.611-5.322.764-7.287M33.97 100.151a2.222 2.222 0 0 0-.302 1.893l3.395 12.67-3.81.444m.717-15.007a2.218 2.218 0 0 1 1.664-.95l9.26-1.08a3.152 3.152 0 0 1 3.325 2.224l3.395 12.67 6.49-.757M33.97 100.151c-.215.528-2.58 2.982-2.96 4.102-.378 1.12-.208 1.754.216 3.338l2.028 7.567m35.324 10.25a2.213 2.213 0 0 0 1.664-.95 2.222 2.222 0 0 0 .302-1.893l-2.376-8.869a3.15 3.15 0 0 0-3.325-2.225l-3.341.39m-28.248 3.297-9.42 1.1a2.213 2.213 0 0 0-1.666.95 2.215 2.215 0 0 0-.302 1.893l2.377 8.87a3.153 3.153 0 0 0 3.325 2.225l4.431-.518m6.003-.701 2.795-.326 3.395 12.67a3.156 3.156 0 0 0 3.325 2.226l9.26-1.081a2.226 2.226 0 0 0 1.664-.951 2.21 2.21 0 0 0 .302-1.892l-3.395-12.67 10.154-1.186" stroke="#0D7ED6" stroke-width="2" stroke-linecap="round" stroke-linejoin="round"/><path d="M97.008 180v17.5" stroke="#355594" stroke-width="2" stroke-linecap="round" stroke-linejoin="round"/><path d="M109.004 170.576a5.87 5.87 0 0 1-2.923 5.075l-6.14 3.559a5.852 5.852 0 0 1-5.875 0l-6.139-3.559a5.857 5.857 0 0 1-2.923-5.075v-7.152a5.87 5.87 0 0 1 2.923-5.075l6.14-3.559a5.862 5.862 0 0 1 5.875 0l6.139 3.559a5.857 5.857 0 0 1 2.923 5.075v7.152Z" fill="#355594" stroke="#355594" stroke-width="2" stroke-linecap="round" stroke-linejoin="round"/><path d="m81.496 154.5-12.5-7M84.5 161.491l-6-3.533m-5-2.944-5-2.944" stroke="#355594" stroke-width="2" stroke-linecap="round"/><path d="M51.003 239.504v-7.759a16.01 16.01 0 0 1 7.955-13.85l11.698-6.789M51.003 248.5v18.753a16.006 16.006 0 0 0 7.955 13.849l10.545 6.121" stroke="#0D7ED6" stroke-width="2" stroke-linecap="round"/><path d="m93.264 227.179 2.275-1.31a6.52 6.52 0 0 1 6.503 0l14.267 8.215a6.514 6.514 0 0 1 3.264 5.646v16.398a6.517 6.517 0 0 1-3.264 5.647l-14.267 8.215a6.522 6.522 0 0 1-6.503 0l-14.267-8.215a6.514 6.514 0 0 1-3.264-5.646v-16.397a6.517 6.517 0 0 1 3.264-5.647l7.963-4.585" stroke="#72BFFB" stroke-width="2" stroke-linecap="round"/><path d="M98.777 270.345v-2.8m0-3.69v-5.676m0-4.215v-2.956a4.889 4.889 0 0 1 2.449-4.235l17.315-10.043" stroke="#72BFFB" stroke-width="2" stroke-linecap="round"/><path d="M100.898 246.975a4.043 4.043 0 0 1-4.008 0l-5.61-3.207m-8.82-5.043 5.67 3.242" stroke="#72BFFB" stroke-width="2" stroke-linecap="round"/><path d="m485.498 338.5-56.817-217.532" stroke="#355594" stroke-width="2" stroke-linecap="round"/><path d="M493.258 190.885h2v-7h7v-2h-7v-7h-2v7h-7v2h7v7ZM493.258 147.885h2v-7h7v-2h-7v-7h-2v7h-7v2h7v7ZM493.258 212.885h2v-7h7v-2h-7v-7h-2v7h-7v2h7v7ZM515.258 190.885h2v-7h7v-2h-7v-7h-2v7h-7v2h7v7ZM515.258 168.885h2v-7h7v-2h-7v-7h-2v7h-7v2h7v7ZM515.258 147.885h2v-7h7v-2h-7v-7h-2v7h-7v2h7v7ZM471.258 190.885h2v-7h7v-2h-7v-7h-2v7h-7v2h7v7Z" fill="#355594"/><path d="M506.06 30.501s2.063 2.44 6.933 6.984a34.538 34.538 0 0 1 6.529 8.358c5.314 9.432 6.382 21.058 3.882 32.663m-87.407 36.726s5.273 4.842 8.933 7.582c12.82 9.594 31.876 9.196 48.996-1.86m27.597-35.63c-4.04 12.002-11.813 23.509-22.553 32.012m-27.58 1.881s2.994 2.855 7.862 7.696m1.556-12.038s3.647 3.508 8.515 8.35" stroke="#355594" stroke-width="2" stroke-linecap="round" stroke-linejoin="round"/><path d="M486.317 103.376c20.287-16.062 28.252-44.139 17.789-62.712-10.462-18.574-35.391-20.611-55.678-4.55m-17.789 62.713c9.343 16.586 30.22 19.985 49.028 9.086m-36.488-67.11a60.9 60.9 0 0 0-8.356 10.507m60.265-20.649c-6.921-3.241-15.173-3.84-23.588-1.703m-28.619 81.795c-3.342-2.519-5.982-5.852-8.014-9.51-10.463-18.573-2.499-46.65 17.788-62.712 3.761-2.977 7.682-5.333 11.64-7.076" stroke="#355594" stroke-width="2" stroke-linecap="round" stroke-linejoin="round"/><path d="m471.605 58.644-33.214 30.11 37.533-46.815 13.788 50.63-18.107-33.925Zm-17.342 21.13 5.665-5.204 15.072.874 2.986 5.842-23.723-1.511Zm9.82-8.922 5.779-5.255 2.984 5.728-8.763-.473Z" fill="#171F34"/><path d="m486.078 79.223 3.634 13.345-18.107-33.924-8.15 7.389m21.488 9.025-2.481-9.11m-1.985-7.288-4.553-16.72-37.533 46.814 12.005-10.883m9.904-8.978-5.298 4.803m-.739 6.079 5.665-5.205 15.072.874 2.986 5.842-23.723-1.511Zm9.82-8.923 5.779-5.255 2.984 5.728-8.763-.473Z" stroke="#6A8CC6" stroke-width="2" stroke-linecap="round" stroke-linejoin="round"/><path d="M489.668 108.779c-23.416 18.538-52.188 16.187-64.264-5.251-1.676-2.973-2.942-6.157-3.817-9.487m73.31 10.146a70.167 70.167 0 0 0 10.887-13.61m5.986-12.355c5.285-14.48 5.17-29.86-1.57-41.825-12.076-21.438-40.848-23.788-64.264-5.25a68.88 68.88 0 0 0-7.819 7.247 70.283 70.283 0 0 0-7.329 9.42" stroke="#355594" stroke-width="2" stroke-linecap="round" stroke-linejoin="round"/><path d="m468.563 142.7.146-12.077" stroke="#355594" stroke-width="2" stroke-linecap="round"/><path d="M481.724 159.896a6.573 6.573 0 0 1-3.28 5.691l-6.889 3.99a6.57 6.57 0 0 1-6.593 0l-6.889-3.99a6.573 6.573 0 0 1-3.28-5.691v-8.019a6.576 6.576 0 0 1 3.28-5.691l6.889-3.99a6.58 6.58 0 0 1 6.593 0l6.889 3.99a6.575 6.575 0 0 1 3.28 5.691v8.019Z" fill="#171F34" stroke="#355594" stroke-width="2" stroke-linecap="round" stroke-linejoin="round"/><path d="M466.541 147.441a2.815 2.815 0 0 1 2.813 0l5.408 3.117a2.808 2.808 0 0 1 1.406 2.432v6.235c0 1.003-.536 1.93-1.406 2.431l-5.408 3.118a2.82 2.82 0 0 1-2.813 0l-5.408-3.118a2.806 2.806 0 0 1-1.406-2.431v-6.235c0-1.003.536-1.93 1.406-2.432l5.408-3.117Z" fill="#283C64"/><g clip-path="url(#a)"><g clip-path="url(#b)"><rect x="124" y="70.139" width="271" height="869.368" rx="12" transform="rotate(-15 124 70.14)" fill="#171F34"/><path d="m135.172 109.043 261.766-70.14 9.913 36.996-261.766 70.14-9.913-36.996Z" fill="#101627"/><path d="m163.811 125.763-2.449-9.138 3.427-.919c.702-.188 1.326-.215 1.872-.08a2.706 2.706 0 0 1 1.374.789c.369.389.631.873.786 1.453.157.586.173 1.14.048 1.661a2.737 2.737 0 0 1-.805 1.369c-.412.387-.971.676-1.676.865l-2.271.608-.365-1.361 2.048-.548c.411-.11.728-.272.951-.485.224-.213.364-.461.422-.744a1.942 1.942 0 0 0-.038-.913 1.907 1.907 0 0 0-.422-.805 1.35 1.35 0 0 0-.739-.419c-.299-.07-.655-.049-1.069.062l-1.517.406 2.078 7.755-1.655.444Zm10.942-2.789c-.67.18-1.289.188-1.859.025a3.105 3.105 0 0 1-1.473-.93c-.41-.458-.709-1.041-.899-1.749-.19-.708-.222-1.364-.097-1.968.128-.605.398-1.12.81-1.546.412-.426.952-.729 1.622-.908.669-.18 1.288-.188 1.858-.025.57.163 1.06.475 1.47.936.414.46.715 1.043.905 1.751.19.708.22 1.363.091 1.965a3.08 3.08 0 0 1-.806 1.541c-.412.426-.953.729-1.622.908Zm-.338-1.296c.363-.097.64-.278.83-.543.19-.268.299-.587.327-.958a3.437 3.437 0 0 0-.121-1.182 3.441 3.441 0 0 0-.488-1.089 1.863 1.863 0 0 0-.763-.671c-.298-.137-.628-.156-.991-.059-.372.099-.654.283-.847.552-.19.268-.3.589-.33.963-.028.371.014.767.126 1.186.112.417.273.778.482 1.086.213.306.469.528.767.665.3.133.636.149 1.008.05Zm4.957-.085-1.837-6.853 1.567-.42.306 1.142.071-.019c.019-.429.151-.791.397-1.087.249-.299.569-.501.962-.606.089-.024.19-.047.302-.067.115-.025.211-.039.29-.044l.398 1.486a1.708 1.708 0 0 0-.343.024 3.178 3.178 0 0 0-.432.083 1.695 1.695 0 0 0-.743.404c-.198.187-.335.41-.409.669-.074.259-.072.535.006.826l1.08 4.029-1.615.433Zm6.936-9.204.334 1.249-3.94 1.056-.334-1.249 3.94-1.056Zm-3.408-.847 1.616-.433 1.724 6.434c.058.218.135.375.232.474a.542.542 0 0 0 .33.16c.121.012.248 0 .382-.035.101-.028.192-.06.271-.097.082-.038.144-.069.185-.093l.611 1.19a3.121 3.121 0 0 1-.907.415 2.72 2.72 0 0 1-1.143.11 1.762 1.762 0 0 1-.941-.426c-.264-.236-.452-.568-.564-.997l-1.796-6.702Zm8.23-.445.335 1.249-4.052 1.086-.335-1.249 4.052-1.086Zm-1.202 7.668-2.01-7.501c-.124-.461-.131-.87-.023-1.228.111-.358.309-.656.592-.895a2.614 2.614 0 0 1 1.019-.517c.28-.074.534-.119.763-.132.229-.014.401-.017.514-.009l.014 1.335c-.074-.002-.166 0-.276.007-.11.004-.229.024-.357.058-.301.08-.494.21-.58.39-.084.175-.09.397-.018.664l1.981 7.394-1.619.434Zm7.071-1.752c-.67.18-1.289.188-1.859.025a3.105 3.105 0 0 1-1.473-.93c-.41-.458-.709-1.041-.899-1.748-.19-.708-.222-1.365-.097-1.969.128-.605.398-1.12.81-1.546.412-.426.952-.729 1.622-.908.669-.18 1.288-.188 1.858-.025.57.163 1.06.475 1.47.936.414.46.715 1.044.905 1.752.19.708.22 1.363.091 1.965a3.08 3.08 0 0 1-.806 1.54c-.412.426-.953.729-1.622.908Zm-.338-1.296c.363-.097.64-.278.83-.543a1.86 1.86 0 0 0 .327-.958 3.44 3.44 0 0 0-.121-1.182 3.461 3.461 0 0 0-.488-1.089 1.853 1.853 0 0 0-.763-.67c-.298-.137-.628-.157-.991-.06-.372.1-.654.284-.847.552-.19.268-.3.589-.33.964-.028.371.014.766.126 1.185.112.417.273.779.482 1.086.213.306.469.528.767.665.3.133.636.15 1.008.05Zm4.123-9.656 2.449 9.138-1.615.433-2.449-9.138 1.615-.433Zm4.11 8.693-1.836-6.853 1.615-.433 1.836 6.854-1.615.432Zm-1.285-8.043a.98.98 0 0 1-.729-.078.847.847 0 0 1-.442-.546.836.836 0 0 1 .11-.694.967.967 0 0 1 .591-.436.958.958 0 0 1 .73.082.84.84 0 0 1 .443.546.851.851 0 0 1-.111.694.964.964 0 0 1-.592.432Zm7.586 6.498c-.669.18-1.288.188-1.858.025a3.1 3.1 0 0 1-1.473-.93c-.41-.458-.71-1.041-.899-1.748-.19-.708-.222-1.365-.097-1.969.128-.605.398-1.12.81-1.546.411-.426.952-.729 1.621-.908.67-.18 1.289-.188 1.859-.025.57.163 1.06.475 1.47.936.413.46.715 1.044.905 1.752.189.708.22 1.363.091 1.965a3.074 3.074 0 0 1-.807 1.54c-.412.426-.952.729-1.622.908Zm-.337-1.296c.363-.097.639-.278.83-.543a1.87 1.87 0 0 0 .327-.958 3.464 3.464 0 0 0-.121-1.182 3.484 3.484 0 0 0-.488-1.089 1.86 1.86 0 0 0-.763-.67c-.298-.137-.629-.157-.992-.06-.371.1-.654.284-.846.552-.19.268-.3.589-.33.964-.029.371.014.766.126 1.185.112.417.272.779.482 1.086a1.9 1.9 0 0 0 .767.665c.3.133.636.15 1.008.05Z" fill="#E8EBF6"/><g clip-path="url(#c)"><g clip-path="url(#d)" stroke="#6A8CC6" stroke-width="1.445" stroke-linecap="round" stroke-linejoin="round"><path d="m332.601 75.22-1.497-5.585M334.472 82.2l-.748-2.792M335.256 76.753a2.174 2.174 0 0 1-1.533 2.655 2.174 2.174 0 0 1-2.655-1.533c-.299-1.117.276-2.319 1.533-2.655 1.187-.318 2.337.346 2.655 1.533ZM325.266 75.763l2.225 8.307M326.78 73.039a2.175 2.175 0 0 0-2.656-1.533c-1.116.3-1.832 1.538-1.533 2.655a2.175 2.175 0 0 0 2.656 1.533 2.174 2.174 0 0 0 1.533-2.655Zm0 0c.018.07 0 0 0 0Z"/></g><path fill="#283C64" d="m348.369 64.261.698-.187 3.741 13.96-.698.188z"/><path d="m365.771 67.08 12.216-3.273M370.242 59.336l3.273 12.216" stroke="#6A8CC6" stroke-width="1.445" stroke-linecap="round" stroke-linejoin="round"/></g><path d="M287.698 233.96c-.5.134-.967.168-1.402.1a2.307 2.307 0 0 1-1.108-.469 1.917 1.917 0 0 1-.641-.963l1.305-.349a.897.897 0 0 0 .326.452c.153.11.337.179.55.206.213.027.439.009.677-.055.254-.068.468-.173.641-.313.173-.143.293-.309.361-.499a.95.95 0 0 0 .016-.595 1 1 0 0 0-.319-.525 1.16 1.16 0 0 0-.596-.253 1.981 1.981 0 0 0-.808.068l-.628.168-.266-.993.628-.168c.248-.066.452-.167.615-.302.164-.136.279-.296.344-.479a.97.97 0 0 0 .01-.587.989.989 0 0 0-.276-.488.951.951 0 0 0-.479-.247 1.32 1.32 0 0 0-.613.03 1.593 1.593 0 0 0-.572.28 1.137 1.137 0 0 0-.358.457.886.886 0 0 0-.043.562l-1.239.332a1.87 1.87 0 0 1 .063-1.14c.141-.363.374-.678.699-.946a3.018 3.018 0 0 1 1.177-.591c.474-.127.91-.148 1.307-.064.399.082.734.246 1.006.493s.456.551.553.912c.11.4.082.767-.084 1.101a1.721 1.721 0 0 1-.788.78l.015.056c.518-.065.951.018 1.297.247.349.227.581.563.698 1.007a1.84 1.84 0 0 1-.054 1.16c-.14.373-.385.701-.733.985-.345.284-.772.494-1.281.63Zm4.807-2.434.057.394c.046.301.067.612.064.935.001.325-.01.627-.032.905-.022.279-.042.499-.058.659l-.847.227-.022-.611a15.238 15.238 0 0 0-.053-.864 8.471 8.471 0 0 0-.14-.952l-.08-.395 1.111-.298Zm1.172-.685-.275-1.024 1.739-5.573.854-.229.391 1.458-.521.139-1.168 3.761.015.056 4.209-1.128.284 1.058-5.528 1.482Zm3.744.41-.437-1.631-.109-.462-1.345-5.018 1.215-.326 1.904 7.108-1.228.329Zm5.91-1.439c-.572.153-1.101.14-1.588-.039-.485-.183-.911-.519-1.278-1.008-.365-.492-.652-1.126-.859-1.901-.206-.776-.272-1.465-.201-2.067.074-.604.276-1.105.606-1.501.333-.397.784-.671 1.353-.824.569-.152 1.097-.14 1.583.037.486.178.912.51 1.275.998.366.487.653 1.117.86 1.89.208.777.276 1.47.204 2.08-.07.606-.272 1.109-.604 1.508-.329.398-.78.674-1.351.827Zm-.292-1.086c.445-.119.737-.432.876-.938.142-.509.098-1.19-.131-2.044-.151-.564-.337-1.023-.558-1.375-.221-.353-.465-.597-.732-.734a1.133 1.133 0 0 0-.843-.09c-.442.118-.732.432-.871.94-.14.506-.097 1.183.127 2.03.15.568.334 1.029.553 1.384.222.355.467.602.734.741.268.137.549.165.845.086Zm4.216-.11 1.419-6.793-.013-.049-3.508.94-.288-1.075 4.841-1.298.295 1.1-1.41 6.817-1.336.358Zm5.062-1.275a.767.767 0 0 1-.601-.077.745.745 0 0 1-.367-.482.736.736 0 0 1 .079-.594.77.77 0 0 1 .482-.367.759.759 0 0 1 .59.08.755.755 0 0 1 .368.887.821.821 0 0 1-.203.352.744.744 0 0 1-.348.201Zm2.458-8.462a3.039 3.039 0 0 1 1.041-.086c.355.029.697.141 1.027.335.329.192.629.488.9.886.27.399.492.922.666 1.57.166.61.247 1.173.244 1.69a3.763 3.763 0 0 1-.233 1.364 2.546 2.546 0 0 1-.675.992 2.617 2.617 0 0 1-1.086.57c-.449.12-.871.139-1.265.056a2.312 2.312 0 0 1-1.03-.498 2.375 2.375 0 0 1-.673-.943l1.267-.339c.141.265.333.454.576.567.245.111.521.125.826.043.493-.132.815-.448.966-.947.152-.499.126-1.129-.078-1.891l-.049.013c-.059.234-.159.45-.299.646a2.085 2.085 0 0 1-.524.501c-.206.14-.436.243-.691.312a2.228 2.228 0 0 1-1.204.002 2.251 2.251 0 0 1-1.007-.608 2.527 2.527 0 0 1-.611-1.112 2.519 2.519 0 0 1-.014-1.331 2.4 2.4 0 0 1 .664-1.116c.327-.318.747-.543 1.262-.676Zm.283 1.04a1.328 1.328 0 0 0-.968.985c-.058.236-.053.481.015.736.07.251.188.465.354.641a1.302 1.302 0 0 0 1.315.366 1.327 1.327 0 0 0 .838-.66 1.46 1.46 0 0 0 .167-.517 1.335 1.335 0 0 0-.039-.547 1.398 1.398 0 0 0-.354-.627 1.388 1.388 0 0 0-.602-.371 1.279 1.279 0 0 0-.726-.006Zm8.014 4.563c-.463.124-.9.148-1.312.072a2.292 2.292 0 0 1-1.065-.488 1.994 1.994 0 0 1-.621-.957l1.25-.335c.101.285.291.49.57.614.278.121.577.139.899.053a1.36 1.36 0 0 0 .627-.354c.165-.169.277-.371.336-.607.058-.237.05-.486-.023-.749a1.47 1.47 0 0 0-.361-.67 1.322 1.322 0 0 0-.607-.362 1.376 1.376 0 0 0-.742.006c-.214.054-.413.15-.597.286a1.333 1.333 0 0 0-.404.45l-1.213.121-.611-3.764 4.123-1.105.288 1.076-3.057.819.3 1.939.042-.011c.09-.19.242-.368.455-.535.213-.168.463-.291.75-.368a2.238 2.238 0 0 1 2.255.616c.289.302.495.681.617 1.136.126.47.129.918.01 1.344a2.383 2.383 0 0 1-.667 1.105c-.326.311-.74.533-1.242.668Zm6.264-1.679c-.5.134-.967.168-1.401.1a2.299 2.299 0 0 1-1.108-.469 1.917 1.917 0 0 1-.641-.963l1.305-.349a.896.896 0 0 0 .325.452c.154.11.337.179.55.206.213.027.439.009.677-.055.255-.068.469-.173.642-.313.172-.143.293-.309.361-.499a.957.957 0 0 0 .015-.595.993.993 0 0 0-.319-.525 1.152 1.152 0 0 0-.596-.253 1.981 1.981 0 0 0-.808.068l-.628.168-.266-.993.628-.168c.248-.066.453-.167.615-.302.164-.136.279-.296.344-.479a.962.962 0 0 0 .01-.587.974.974 0 0 0-.276-.488.947.947 0 0 0-.479-.247 1.321 1.321 0 0 0-.613.03 1.6 1.6 0 0 0-.572.28 1.134 1.134 0 0 0-.357.457.879.879 0 0 0-.043.562l-1.239.332a1.855 1.855 0 0 1 .063-1.14c.14-.363.373-.678.698-.946a3.032 3.032 0 0 1 1.177-.591c.475-.127.91-.148 1.307-.064a2.09 2.09 0 0 1 1.007.493c.272.247.456.551.553.912.109.4.081.767-.085 1.101a1.719 1.719 0 0 1-.787.78l.014.056c.519-.065.951.018 1.298.247.348.227.581.563.697 1.007.107.398.089.785-.053 1.16a2.331 2.331 0 0 1-.733.985c-.346.284-.773.494-1.282.63Zm3.789-1.119-.249-.93 1.819-3.08c.172-.302.312-.566.42-.793.107-.228.177-.439.21-.633a1.39 1.39 0 0 0-.031-.587 1.089 1.089 0 0 0-.307-.535 1.05 1.05 0 0 0-.521-.262 1.398 1.398 0 0 0-.642.03 1.294 1.294 0 0 0-.576.311 1.04 1.04 0 0 0-.3.516c-.048.201-.039.423.026.666l-1.225.328c-.121-.451-.123-.871-.007-1.259a2.16 2.16 0 0 1 .643-1.002c.315-.28.706-.483 1.176-.609.477-.128.919-.151 1.328-.069.409.081.754.25 1.036.507.284.256.48.583.587.981.071.266.09.541.057.825-.033.284-.136.617-.309.998-.171.381-.427.855-.768 1.422l-.892 1.574.013.049 3.096-.83.288 1.076-4.872 1.306Zm8.646-2.213c-.499.134-.967.168-1.401.1a2.303 2.303 0 0 1-1.108-.469 1.917 1.917 0 0 1-.641-.963l1.305-.349a.892.892 0 0 0 .326.452c.153.11.336.179.549.206.214.027.439.009.678-.055.254-.068.468-.173.641-.313.172-.143.293-.309.361-.499a.957.957 0 0 0 .015-.595.987.987 0 0 0-.319-.525 1.152 1.152 0 0 0-.596-.253 1.977 1.977 0 0 0-.807.068l-.628.168-.266-.993.628-.168c.247-.066.452-.167.614-.302.165-.136.279-.296.344-.479a.954.954 0 0 0 .01-.587.955.955 0 0 0-.754-.735 1.32 1.32 0 0 0-.613.03 1.597 1.597 0 0 0-.573.28 1.134 1.134 0 0 0-.357.457.886.886 0 0 0-.043.562l-1.239.332a1.87 1.87 0 0 1 .063-1.14c.141-.363.374-.678.699-.946a3.018 3.018 0 0 1 1.177-.591c.474-.127.91-.148 1.307-.064.398.082.734.246 1.006.493s.456.551.553.912c.109.4.081.767-.084 1.101a1.721 1.721 0 0 1-.788.78l.015.056c.518-.065.95.018 1.297.247.348.227.581.563.698 1.007.106.398.088.785-.054 1.16a2.331 2.331 0 0 1-.733.985c-.345.284-.773.494-1.282.63Zm6.452-1.688c-.571.153-1.1.14-1.587-.039-.486-.183-.912-.519-1.278-1.008-.365-.492-.652-1.126-.859-1.901-.206-.776-.273-1.465-.201-2.067.074-.604.276-1.105.606-1.501.333-.397.784-.671 1.353-.824.569-.152 1.097-.14 1.583.037.486.178.911.51 1.275.998.366.487.653 1.117.86 1.89.208.777.276 1.47.204 2.08-.071.606-.272 1.109-.604 1.508-.33.398-.78.674-1.352.827Zm-.291-1.086c.445-.119.736-.432.876-.938.141-.509.098-1.19-.131-2.044-.151-.564-.337-1.023-.558-1.375-.221-.353-.465-.597-.732-.734a1.133 1.133 0 0 0-.843-.09c-.442.118-.732.432-.871.94-.14.506-.098 1.183.127 2.03.15.568.334 1.029.553 1.384.222.355.466.602.734.741.267.137.549.165.845.086Zm3.665-1.376-.275-1.024 1.739-5.573.854-.228.39 1.457-.52.14-1.168 3.761.015.055 4.209-1.128.284 1.059-5.528 1.481Zm3.743.41-.437-1.631-.108-.462-1.345-5.018 1.215-.325 1.904 7.107-1.229.329Zm6.653-1.782-1.374.368.598-7.778 1.589-.426 4.41 6.436-1.374.368-3.412-5.141-.056.015-.381 6.158Zm-.701-2.799 3.748-1.004.277 1.034-3.748 1.004-.277-1.034Zm6.86 1.148-1.904-7.107 2.665-.714c.546-.147 1.03-.174 1.451-.084.423.09.775.281 1.057.572.283.289.485.66.607 1.114.122.455.131.877.026 1.265a1.992 1.992 0 0 1-.643 1.001c-.326.281-.762.495-1.308.641l-1.899.509-.286-1.069 1.725-.462c.319-.086.569-.2.749-.342a.968.968 0 0 0 .346-.513 1.307 1.307 0 0 0-.022-.679 1.354 1.354 0 0 0-.322-.605.982.982 0 0 0-.565-.288c-.229-.04-.504-.018-.825.069l-1.18.316 1.616 6.031-1.288.345Zm2.809-4.204 2.622 2.749-1.436.385-2.592-2.757 1.406-.377Zm3.547 2.501-1.904-7.107 1.287-.345.875 3.266.087-.024 1.898-4.008 1.572-.422-1.894 3.926 3.823 3.175-1.548.415-2.937-2.479-.539 1.141.568 2.117-1.288.345Z" fill="#E8EBF6"/><path d="M332.417 239.171a2.537 2.537 0 0 1-1.124.062 1.965 1.965 0 0 1-.913-.419 1.697 1.697 0 0 1-.532-.82l1.071-.287c.087.245.249.42.488.526.239.104.496.119.771.045a1.105 1.105 0 0 0 .825-.823c.05-.203.044-.417-.019-.643a1.256 1.256 0 0 0-.31-.573 1.118 1.118 0 0 0-.52-.31 1.175 1.175 0 0 0-.636.004 1.464 1.464 0 0 0-.511.246 1.121 1.121 0 0 0-.346.386l-1.041.103-.523-3.226 3.534-.947.247.922-2.621.702.257 1.662.036-.009c.078-.163.208-.316.391-.459.182-.144.396-.249.642-.315a1.925 1.925 0 0 1 1.933.527c.248.259.424.584.529.975.108.402.111.786.009 1.151a2.046 2.046 0 0 1-.572.947c-.279.267-.634.457-1.065.573Zm4.009-2.057.049.338c.039.257.058.524.056.801 0 .279-.01.537-.028.776-.019.239-.036.427-.05.565l-.726.195-.019-.525a12.288 12.288 0 0 0-.045-.74 7.168 7.168 0 0 0-.12-.816l-.069-.338.952-.256Zm1.788-6.205a2.6 2.6 0 0 1 .892-.073c.304.025.598.121.881.287.282.165.539.418.771.76.231.341.422.79.57 1.345.143.523.213 1.006.21 1.449-.001.44-.068.83-.2 1.169-.132.34-.325.623-.579.85-.253.228-.564.39-.93.489a2.314 2.314 0 0 1-1.084.048 1.997 1.997 0 0 1-1.46-1.235l1.086-.291c.12.227.285.389.494.486.21.095.446.107.708.037.422-.113.698-.384.828-.812.13-.428.107-.968-.068-1.62l-.041.011c-.051.2-.136.385-.257.553-.121.166-.271.31-.449.43a1.967 1.967 0 0 1-.592.267 1.914 1.914 0 0 1-1.032.002 1.926 1.926 0 0 1-.863-.521 2.166 2.166 0 0 1-.524-.953 2.172 2.172 0 0 1-.012-1.142 2.06 2.06 0 0 1 .569-.956c.28-.272.641-.466 1.082-.58Zm.242.892a1.135 1.135 0 0 0-.538.313c-.143.149-.24.326-.291.531-.05.202-.046.413.013.631.06.216.161.399.303.55.145.15.314.255.508.313.197.058.403.058.619 0a1.136 1.136 0 0 0 .719-.565 1.25 1.25 0 0 0 .109-.913 1.206 1.206 0 0 0-.303-.537 1.205 1.205 0 0 0-.516-.318 1.099 1.099 0 0 0-.623-.005Zm7.012 3.908c-.49.131-.943.12-1.361-.034-.416-.157-.781-.444-1.095-.864-.313-.422-.558-.965-.736-1.63-.176-.664-.234-1.255-.172-1.771.063-.518.236-.947.519-1.287.285-.34.672-.575 1.16-.706.487-.13.94-.12 1.357.032.417.152.781.437 1.093.855.313.417.559.957.737 1.62.178.666.236 1.26.175 1.783-.061.52-.233.951-.518 1.293-.283.341-.669.577-1.159.709Zm-.249-.931c.381-.102.631-.37.75-.804.122-.436.084-1.02-.112-1.752-.13-.484-.289-.877-.478-1.179-.19-.302-.399-.512-.628-.629a.969.969 0 0 0-.722-.077c-.379.101-.628.37-.747.805-.12.434-.083 1.014.109 1.741.128.486.286.881.474 1.186.19.304.4.516.629.635.23.117.471.142.725.074Zm4.399-6.835 1.632 6.092-1.103.296-1.345-5.018-.036.009-1.18 1.292-.271-1.011 1.253-1.379 1.05-.281Zm3.537 5.652a.666.666 0 0 1-.516-.066.64.64 0 0 1-.314-.413.633.633 0 0 1 .067-.509.66.66 0 0 1 .413-.315.648.648 0 0 1 .507.069.647.647 0 0 1 .315.76.711.711 0 0 1-.174.302.643.643 0 0 1-.298.172Zm2.107-7.253c.292-.077.589-.101.892-.074.304.025.597.121.88.287.282.165.539.418.771.76.232.341.422.79.571 1.345.142.523.212 1.006.21 1.449-.001.44-.068.83-.2 1.169-.133.34-.325.623-.579.85a2.229 2.229 0 0 1-.931.489 2.314 2.314 0 0 1-1.084.048 1.988 1.988 0 0 1-1.459-1.235l1.085-.291c.121.227.285.389.494.486.21.095.446.107.708.037.423-.113.699-.384.828-.812.13-.428.108-.968-.067-1.62l-.042.011c-.05.2-.136.385-.256.553-.122.167-.271.31-.45.43a1.96 1.96 0 0 1-.591.267 1.917 1.917 0 0 1-1.033.002 1.926 1.926 0 0 1-.863-.521 2.164 2.164 0 0 1-.523-.953 2.169 2.169 0 0 1-.013-1.141c.1-.367.29-.686.57-.956.28-.273.64-.466 1.082-.58Zm.242.891a1.134 1.134 0 0 0-.538.313c-.143.149-.24.326-.292.531-.049.203-.045.413.013.631.06.216.161.399.304.55a1.119 1.119 0 0 0 1.126.313 1.126 1.126 0 0 0 .719-.565 1.245 1.245 0 0 0 .11-.913 1.198 1.198 0 0 0-.304-.537 1.196 1.196 0 0 0-.515-.318 1.099 1.099 0 0 0-.623-.005Zm6.869 3.911a2.541 2.541 0 0 1-1.125.062 1.975 1.975 0 0 1-.912-.418 1.693 1.693 0 0 1-.532-.821l1.071-.287c.086.245.249.42.488.526.238.104.495.119.771.046.216-.058.395-.159.537-.304.142-.144.238-.318.288-.52.05-.203.044-.417-.019-.642a1.264 1.264 0 0 0-.31-.574 1.127 1.127 0 0 0-.52-.31 1.175 1.175 0 0 0-.636.005 1.453 1.453 0 0 0-.511.245 1.144 1.144 0 0 0-.347.386l-1.04.103-.523-3.226 3.534-.947.247.922-2.621.702.257 1.663.036-.01c.077-.163.208-.316.39-.458.183-.145.397-.25.643-.316a1.919 1.919 0 0 1 1.933.528c.248.259.424.583.529.974.108.403.111.786.009 1.152a2.056 2.056 0 0 1-.572.947c-.28.266-.634.457-1.065.572Zm7.506-8.63 1.103-.296 1.067 3.981a2.21 2.21 0 0 1-.001 1.234 2.172 2.172 0 0 1-.655 1.007c-.321.284-.73.492-1.225.625-.498.133-.957.158-1.377.073a2.168 2.168 0 0 1-1.071-.546 2.224 2.224 0 0 1-.615-1.069l-1.066-3.98 1.103-.296 1.042 3.888c.068.254.184.465.348.634.166.168.367.281.601.339.234.057.491.047.771-.028.279-.074.506-.195.681-.361.176-.168.293-.366.351-.594a1.412 1.412 0 0 0-.015-.723l-1.042-3.888Zm6.062.171a.837.837 0 0 0-.513-.513c-.243-.09-.528-.091-.856-.004-.23.062-.418.15-.564.263a.918.918 0 0 0-.302.384.712.712 0 0 0 .15.75.82.82 0 0 0 .305.174c.118.036.245.06.379.07.135.011.269.014.402.011l.609-.011a4.11 4.11 0 0 1 .721.04c.239.034.461.097.667.191.208.093.388.225.539.394.152.17.263.387.334.651.096.357.089.695-.021 1.016-.11.319-.317.6-.622.846-.302.242-.697.429-1.185.56-.474.127-.905.163-1.294.11a1.899 1.899 0 0 1-.987-.424c-.27-.229-.467-.544-.591-.945l1.086-.291a.95.95 0 0 0 .338.477c.153.11.331.175.534.195.205.02.422-.001.652-.063.24-.064.441-.156.602-.276.163-.122.278-.262.347-.418a.76.76 0 0 0 .035-.501.605.605 0 0 0-.245-.355 1.078 1.078 0 0 0-.454-.159 3.917 3.917 0 0 0-.622-.037l-.741.007c-.536.006-.985-.083-1.347-.267-.36-.186-.599-.497-.715-.934a1.62 1.62 0 0 1 .038-1.021c.124-.322.335-.603.632-.842a2.894 2.894 0 0 1 1.085-.533c.432-.115.831-.142 1.197-.078.367.061.679.199.937.415.257.214.434.492.532.833l-1.062.285Zm5.377 3.293-2.064.553-1.632-6.092 2.106-.564c.605-.162 1.157-.179 1.657-.052.501.125.929.384 1.285.775.355.391.618.904.787 1.536.171.635.199 1.212.085 1.731a2.535 2.535 0 0 1-.733 1.322c-.375.362-.872.626-1.491.791Zm-1.216-.697.907-.243c.424-.114.758-.286 1-.517a1.54 1.54 0 0 0 .452-.87c.059-.35.027-.758-.098-1.224-.125-.466-.3-.833-.525-1.102a1.516 1.516 0 0 0-.82-.524c-.319-.08-.684-.065-1.097.046l-.94.252 1.121 4.182Z" fill="#355594"/><rect x="196.413" y="248.25" width="30.352" height="30.352" rx="7.949" transform="rotate(-15 196.413 248.25)" stroke="#283C64" stroke-width="1.445"/><path fill-rule="evenodd" clip-rule="evenodd" d="m214.429 256.73-6.043 11.073 4.774-15.81 11.979 11.321-10.71-6.584Zm-1.912 7.405.849-1.951 4.633-1.242 1.711 1.266-7.193 1.927Zm.944-2.836 1.386-2.915 2.63 1.839-4.016 1.076Z" fill="#0D7ED6"/><rect x="419.965" y="219.773" width="23.125" height="30.352" rx="6.504" transform="rotate(165 419.965 219.773)" fill="#171F34"/><rect x="419.965" y="219.773" width="23.125" height="30.352" rx="6.504" transform="rotate(165 419.965 219.773)" stroke="#355594" stroke-width="1.445" stroke-linejoin="round"/><g clip-path="url(#e)"><path d="m402.431 210.181 1.942-3.363c.051-.089.191-.126.279-.075l3.364 1.942" stroke="#E8EBF6" stroke-width="1.445" stroke-linecap="round" stroke-linejoin="round"/></g><rect x="207.432" y="290.015" width="223.763" height="105.902" rx="8.121" transform="rotate(-15 207.432 290.015)" fill="#283C64" stroke="#355594" stroke-width="1.112" stroke-dasharray="2.22 2.22"/><path fill="#101627" d="m144.388 146.226 261.766-70.14 24.315 90.746-261.766 70.14z"/><path d="m170.617 153.904 1.454-.39 2.581 2.678.069-.018.897-3.61 1.454-.39-1.392 5.149.711 2.651-1.284.344-.711-2.651-3.779-3.763Zm10.576 4.895c-.521.139-1.003.146-1.446.019a2.42 2.42 0 0 1-1.146-.723c-.318-.356-.551-.81-.699-1.36-.147-.551-.172-1.061-.075-1.531.099-.471.309-.872.63-1.203.32-.331.741-.567 1.261-.706.521-.14 1.002-.146 1.446-.019.443.127.824.369 1.143.727.322.358.556.812.704 1.363.147.551.171 1.06.071 1.528a2.392 2.392 0 0 1-.628 1.199c-.32.331-.741.566-1.261.706Zm-.263-1.008c.282-.076.498-.217.646-.423.147-.208.232-.456.254-.745a2.678 2.678 0 0 0-.094-.919 2.695 2.695 0 0 0-.379-.847 1.458 1.458 0 0 0-.594-.522 1.11 1.11 0 0 0-.771-.046c-.289.078-.509.221-.659.429a1.477 1.477 0 0 0-.256.75c-.022.288.01.596.098.922.087.324.212.605.375.844.165.239.364.411.596.518.234.103.495.116.784.039Zm6.652-3.218-.827-3.089 1.256-.337 1.428 5.331-1.218.326-.254-.947-.055.015a1.67 1.67 0 0 1-.397.891c-.223.263-.534.448-.934.555a1.88 1.88 0 0 1-.989.016 1.673 1.673 0 0 1-.808-.516c-.231-.261-.403-.604-.517-1.03l-.91-3.394 1.256-.336.858 3.199c.09.338.255.582.493.731.239.149.508.184.809.103.185-.049.352-.143.502-.279.149-.137.255-.309.319-.517.065-.211.061-.452-.012-.722Zm3.149 1.559-1.428-5.331 1.218-.326.238.888.055-.015c.015-.333.118-.615.31-.845.193-.233.442-.39.747-.472.07-.019.148-.036.236-.052.089-.019.164-.03.225-.034l.309 1.156a1.31 1.31 0 0 0-.266.019c-.118.014-.23.035-.336.064a1.308 1.308 0 0 0-.578.315 1.135 1.135 0 0 0-.313 1.162l.839 3.134-1.256.337Zm6.354-1.703-1.904-7.107 2.721-.729c.513-.138.962-.171 1.345-.101.386.068.7.218.943.451.246.232.416.523.51.875.077.289.088.552.032.787a1.44 1.44 0 0 1-.314.616 1.98 1.98 0 0 1-.555.443l.018.069c.256-.053.519-.041.788.039.271.076.515.221.731.436.216.215.373.503.469.864.099.368.098.722-.001 1.064-.1.339-.307.641-.62.906s-.742.47-1.286.616l-2.877.771Zm1-1.421 1.384-.371c.468-.125.78-.304.939-.538a.908.908 0 0 0 .126-.777 1.093 1.093 0 0 0-.861-.811 1.52 1.52 0 0 0-.727.035l-1.419.38.558 2.082Zm-.807-3.009 1.274-.341c.222-.059.411-.154.568-.282.156-.131.264-.286.326-.463a.97.97 0 0 0 .011-.583.917.917 0 0 0-.474-.603c-.24-.126-.549-.139-.929-.037l-1.301.349.525 1.96Zm7.737 2.42a2.307 2.307 0 0 1-.961.065 1.545 1.545 0 0 1-.783-.371c-.219-.196-.375-.47-.469-.819-.081-.301-.092-.564-.033-.791.058-.226.167-.424.328-.593.16-.17.353-.317.577-.442.226-.127.465-.239.717-.337.304-.116.549-.213.737-.29.187-.08.317-.159.39-.238a.306.306 0 0 0 .063-.304l-.005-.021c-.07-.261-.202-.443-.395-.545-.194-.102-.436-.114-.728-.035-.308.082-.534.214-.678.397-.142.182-.22.373-.234.572l-1.217.148c.005-.349.086-.66.24-.935.154-.277.37-.511.649-.702.278-.193.603-.34.976-.44.256-.069.52-.107.791-.115.27-.008.53.029.777.111.247.08.466.221.657.423.192.202.336.479.431.833l.956 3.568-1.208.323-.196-.732-.042.011a1.572 1.572 0 0 1-.645.951 2.154 2.154 0 0 1-.695.308Zm.079-1.01c.252-.068.458-.176.616-.325.158-.151.264-.324.319-.517.057-.194.06-.389.007-.586l-.168-.628a.61.61 0 0 1-.178.144 2.876 2.876 0 0 1-.292.157c-.11.052-.22.101-.329.147l-.284.121c-.18.076-.337.162-.47.26a.869.869 0 0 0-.285.337.613.613 0 0 0-.022.43c.062.231.193.383.393.456.201.073.432.074.693.004Zm3.322-7.634 1.905 7.108-1.257.336-1.904-7.107 1.256-.337Zm4.759 6.458a2.29 2.29 0 0 1-.961.064 1.55 1.55 0 0 1-.784-.37c-.218-.197-.375-.47-.468-.819-.081-.301-.092-.565-.034-.791.059-.226.168-.424.329-.594.16-.169.352-.316.577-.441.226-.128.465-.24.717-.337.303-.116.549-.213.736-.29.187-.08.317-.16.39-.239.075-.082.096-.183.064-.303l-.005-.021c-.071-.262-.202-.443-.396-.545-.193-.102-.436-.114-.727-.036-.308.083-.534.215-.678.398a1.03 1.03 0 0 0-.234.572l-1.218.147c.006-.348.086-.66.241-.934.154-.277.37-.511.649-.702.278-.194.603-.341.975-.44.257-.069.521-.108.791-.116.271-.008.53.03.778.112.247.08.466.221.656.423.193.201.337.479.432.833l.956 3.567-1.208.324-.196-.732-.042.011a1.582 1.582 0 0 1-.645.95 2.143 2.143 0 0 1-.695.309Zm.079-1.01c.252-.068.457-.176.616-.325.158-.152.264-.324.319-.517a1.07 1.07 0 0 0 .007-.586l-.169-.628a.59.59 0 0 1-.177.144 2.903 2.903 0 0 1-.293.156c-.11.052-.219.101-.328.148l-.284.121a2.266 2.266 0 0 0-.47.259.867.867 0 0 0-.285.337.613.613 0 0 0-.023.43c.062.232.194.384.394.457.201.072.432.074.693.004Zm4.389-3.65.837 3.123-1.256.337-1.428-5.331 1.2-.321.243.905.063-.016c.042-.332.174-.621.395-.869.224-.248.535-.426.933-.532a1.954 1.954 0 0 1 1.024-.022c.318.084.592.254.822.513.233.257.405.599.517 1.025l.909 3.394-1.256.337-.858-3.2c-.095-.356-.262-.61-.501-.762-.237-.152-.517-.185-.841-.098a1.21 1.21 0 0 0-.548.303c-.143.14-.239.313-.288.52-.047.206-.035.437.033.694Zm7.889 1.345c-.532.143-1.02.148-1.465.017a2.418 2.418 0 0 1-1.137-.733c-.315-.359-.544-.809-.688-1.348-.146-.541-.169-1.047-.072-1.517.096-.472.303-.875.621-1.208.319-.336.739-.573 1.259-.713a2.71 2.71 0 0 1 1.213-.068c.378.067.705.219.981.455.276.233.48.538.61.915l-1.201.322a1.182 1.182 0 0 0-.519-.549c-.227-.125-.492-.147-.795-.066a1.18 1.18 0 0 0-.621.389 1.389 1.389 0 0 0-.296.712c-.038.285-.009.607.088.966.097.363.234.661.41.894.176.231.379.391.609.481.231.086.478.095.739.025.185-.05.342-.129.469-.237a1.03 1.03 0 0 0 .288-.409c.064-.161.088-.342.074-.544l1.201-.322c.071.386.049.75-.065 1.093a2.04 2.04 0 0 1-.602.89c-.287.251-.654.436-1.101.555Zm5.675-1.52c-.534.143-1.026.156-1.474.038a2.338 2.338 0 0 1-1.146-.712c-.319-.356-.553-.813-.702-1.371-.147-.548-.172-1.057-.075-1.527.099-.473.306-.876.621-1.208.315-.335.726-.57 1.235-.707.329-.088.653-.118.973-.089.322.025.624.118.908.277.285.159.539.392.759.697.22.303.393.688.518 1.156l.103.385-4.369 1.17-.227-.846 3.165-.848a1.399 1.399 0 0 0-.328-.601 1.182 1.182 0 0 0-.547-.333 1.25 1.25 0 0 0-.675.006 1.27 1.27 0 0 0-.627.369 1.342 1.342 0 0 0-.324.608 1.44 1.44 0 0 0 .013.699l.198.74c.083.31.211.56.384.752.172.19.376.316.611.379.234.062.488.056.761-.018.183-.049.342-.118.476-.209.134-.093.242-.205.323-.336.081-.131.13-.279.145-.444l1.208-.182c.009.329-.059.638-.205.925a2.155 2.155 0 0 1-.648.747c-.289.211-.64.372-1.054.483Z" fill="#355594"/><path d="M180.907 178.622c-.571.153-1.105.191-1.601.115a2.646 2.646 0 0 1-1.266-.537 2.19 2.19 0 0 1-.733-1.1l1.491-.4c.072.216.196.389.373.517.175.126.384.204.628.235.244.032.501.011.774-.062.291-.078.535-.198.733-.358.197-.164.335-.354.413-.57.078-.216.083-.443.017-.681a1.133 1.133 0 0 0-.365-.599 1.32 1.32 0 0 0-.681-.289c-.271-.041-.579-.015-.923.077l-.718.192-.304-1.134.718-.192c.283-.076.517-.191.703-.346.188-.155.319-.338.393-.547.073-.213.077-.436.011-.671a1.12 1.12 0 0 0-.315-.557 1.08 1.08 0 0 0-.547-.283 1.499 1.499 0 0 0-.701.035 1.8 1.8 0 0 0-.654.32 1.29 1.29 0 0 0-.408.521 1.01 1.01 0 0 0-.049.643l-1.416.379a2.129 2.129 0 0 1 .071-1.303c.161-.414.428-.775.799-1.081a3.474 3.474 0 0 1 1.345-.675c.542-.145 1.04-.17 1.494-.073.456.093.839.281 1.15.563.311.283.521.63.632 1.042.125.457.093.877-.097 1.259-.186.382-.486.679-.9.892l.017.063c.593-.074 1.087.021 1.483.283.398.259.664.642.797 1.151.122.455.102.897-.061 1.326-.161.425-.44.8-.838 1.125-.395.324-.883.564-1.465.72Zm3.78-2.747-.314-1.17 1.988-6.369.975-.261.447 1.665-.595.16-1.335 4.298.017.063 4.811-1.289.324 1.21-6.318 1.693Zm4.278.469-.499-1.864-.124-.528-1.537-5.735 1.388-.372 2.177 8.123-1.405.376Zm4.886-2.499.065.45c.052.343.077.699.074 1.068 0 .371-.012.716-.038 1.035-.025.318-.047.569-.066.753l-.967.259-.026-.699a16.394 16.394 0 0 0-.06-.987 9.743 9.743 0 0 0-.16-1.088l-.091-.451 1.269-.34Zm1.89.683-.285-1.062 2.079-3.52c.197-.345.357-.647.48-.907a2.78 2.78 0 0 0 .24-.723 1.574 1.574 0 0 0-.036-.671 1.235 1.235 0 0 0-.35-.611 1.205 1.205 0 0 0-.595-.3 1.61 1.61 0 0 0-.735.035 1.48 1.48 0 0 0-.657.355 1.189 1.189 0 0 0-.344.589c-.054.23-.044.484.03.762l-1.4.375c-.138-.516-.141-.996-.007-1.439.133-.444.378-.826.735-1.145.359-.32.807-.552 1.343-.696.545-.146 1.051-.172 1.518-.079.467.093.862.286 1.184.579.325.293.548.667.67 1.121.082.305.104.619.066.944-.038.324-.156.704-.353 1.14-.196.435-.488.977-.878 1.625l-1.019 1.799.015.056 3.538-.948.329 1.229-5.568 1.492Zm9.79-2.504a3.386 3.386 0 0 1-1.499.083 2.62 2.62 0 0 1-1.217-.558 2.263 2.263 0 0 1-.71-1.094l1.428-.382c.116.326.333.559.651.701.318.139.661.159 1.028.06a1.473 1.473 0 0 0 1.1-1.098c.067-.27.058-.555-.025-.856a1.69 1.69 0 0 0-.413-.765 1.509 1.509 0 0 0-.693-.414 1.58 1.58 0 0 0-.849.007 1.944 1.944 0 0 0-.682.327c-.21.155-.364.327-.461.515l-1.387.137-.698-4.301 4.712-1.263.329 1.23-3.494.936.343 2.216.048-.013c.103-.217.276-.421.52-.611a2.33 2.33 0 0 1 .857-.421 2.588 2.588 0 0 1 1.41-.004c.448.127.837.363 1.167.708.331.345.566.778.705 1.299a2.86 2.86 0 0 1 .012 1.535 2.73 2.73 0 0 1-.762 1.263c-.373.355-.846.609-1.42.763Zm7.159-1.918c-.571.153-1.105.191-1.602.114a2.635 2.635 0 0 1-1.266-.536 2.187 2.187 0 0 1-.732-1.1l1.491-.4c.072.216.196.388.372.517.176.126.385.204.629.235.243.031.501.01.774-.063.29-.077.535-.197.733-.357.197-.164.334-.354.412-.57.078-.217.084-.443.018-.681a1.14 1.14 0 0 0-.365-.599 1.312 1.312 0 0 0-.681-.289c-.272-.041-.579-.015-.923.077l-.718.192-.304-1.134.718-.193a1.79 1.79 0 0 0 .702-.345c.188-.155.319-.338.393-.547.074-.213.078-.436.012-.671a1.115 1.115 0 0 0-.315-.557 1.075 1.075 0 0 0-.548-.283 1.495 1.495 0 0 0-.7.035 1.799 1.799 0 0 0-.654.319 1.302 1.302 0 0 0-.409.522 1.016 1.016 0 0 0-.049.643l-1.416.379a2.136 2.136 0 0 1 .072-1.303c.161-.414.427-.775.799-1.081.37-.309.819-.534 1.345-.675.542-.145 1.04-.17 1.494-.073.455.093.839.281 1.15.563.31.282.521.63.632 1.042.125.457.093.877-.097 1.259a1.967 1.967 0 0 1-.9.891l.017.064c.592-.074 1.087.021 1.483.283.398.259.664.642.797 1.151.122.454.101.896-.061 1.325-.161.426-.44.801-.838 1.126-.395.324-.883.564-1.465.72Zm5.014-1.369a.883.883 0 0 1-.687-.088.854.854 0 0 1-.42-.551.842.842 0 0 1 .091-.679.878.878 0 0 1 .55-.419.864.864 0 0 1 .675.091.863.863 0 0 1 .421 1.014.949.949 0 0 1-.233.402.85.85 0 0 1-.397.23Zm2.351-.724 1.623-7.763-.015-.055-4.01 1.074-.33-1.229 5.533-1.483.337 1.257-1.611 7.79-1.527.409Zm9.002-2.293a3.37 3.37 0 0 1-1.499.083 2.625 2.625 0 0 1-1.217-.558 2.254 2.254 0 0 1-.709-1.094l1.427-.382c.116.326.333.56.652.701.317.139.66.159 1.028.06a1.478 1.478 0 0 0 1.1-1.098c.066-.27.058-.555-.026-.856a1.68 1.68 0 0 0-.413-.765 1.507 1.507 0 0 0-.693-.413 1.57 1.57 0 0 0-.849.006 1.944 1.944 0 0 0-.682.327c-.21.156-.364.327-.461.515l-1.387.138-.698-4.302 4.712-1.263.329 1.23-3.494.936.343 2.216.048-.012c.103-.218.277-.422.52-.612.243-.192.529-.333.857-.421a2.588 2.588 0 0 1 1.41-.003c.448.126.837.362 1.167.707.331.345.566.778.705 1.299.144.537.148 1.049.012 1.536a2.733 2.733 0 0 1-.762 1.262c-.373.355-.846.61-1.42.763Zm10.008-11.506 1.471-.394 1.422 5.306c.156.582.156 1.131-.001 1.646a2.886 2.886 0 0 1-.873 1.343c-.428.379-.973.656-1.634.833-.664.178-1.276.21-1.836.097a2.885 2.885 0 0 1-1.428-.727c-.39-.369-.664-.844-.82-1.425l-1.421-5.307 1.471-.394 1.389 5.183c.091.339.245.62.464.845.222.224.489.375.802.453.312.075.654.062 1.027-.037.373-.1.676-.261.908-.482.235-.224.391-.488.468-.793a1.879 1.879 0 0 0-.02-.963l-1.389-5.184Zm8.083.227a1.12 1.12 0 0 0-.685-.683c-.324-.121-.704-.122-1.14-.005a2.1 2.1 0 0 0-.752.35 1.207 1.207 0 0 0-.403.512.946.946 0 0 0 .2 1c.113.103.248.181.407.232.157.048.326.08.505.094.18.014.358.019.535.014l.813-.014c.326-.011.646.007.962.053.318.045.614.13.888.254.277.125.517.3.719.526.203.227.351.516.445.867a2.27 2.27 0 0 1-.028 1.355c-.147.425-.423.801-.828 1.128-.404.323-.931.572-1.581.746-.632.17-1.207.219-1.725.148a2.54 2.54 0 0 1-1.316-.565c-.36-.307-.623-.726-.788-1.26l1.447-.388c.097.277.248.489.451.636.204.146.441.233.712.26.273.026.563-.002.87-.085.32-.085.587-.208.802-.368.217-.163.372-.349.463-.557.091-.212.106-.434.047-.667a.81.81 0 0 0-.327-.474 1.424 1.424 0 0 0-.605-.212 5.103 5.103 0 0 0-.83-.05l-.988.01c-.715.007-1.313-.111-1.795-.356-.481-.248-.799-.663-.955-1.245a2.17 2.17 0 0 1 .052-1.362c.166-.429.447-.804.843-1.122.396-.322.878-.559 1.446-.711.577-.154 1.108-.189 1.596-.104.489.081.906.266 1.249.553.343.285.58.656.71 1.111l-1.416.379Zm7.17 4.392-2.753.737-2.176-8.122 2.808-.753c.806-.216 1.543-.239 2.209-.069a3.376 3.376 0 0 1 1.713 1.033c.475.522.825 1.205 1.051 2.048.226.846.264 1.616.112 2.308a3.376 3.376 0 0 1-.977 1.762c-.5.483-1.162.835-1.987 1.056Zm-1.622-.93 1.209-.324c.566-.152 1.01-.381 1.333-.689a2.05 2.05 0 0 0 .603-1.161c.079-.466.036-1.009-.131-1.631-.166-.621-.4-1.111-.7-1.47a2.016 2.016 0 0 0-1.092-.698c-.426-.107-.913-.087-1.463.061l-1.254.335 1.495 5.577Z" fill="#E8EBF6"/><path d="m306.152 125.205-1.374.368.598-7.778 1.589-.426 4.41 6.436-1.374.368-3.412-5.141-.056.015-.381 6.158Zm-.701-2.799 3.748-1.005.277 1.035-3.748 1.004-.277-1.034Zm9.881-3.864-1.112.432a.95.95 0 0 0-.257-.281.876.876 0 0 0-.385-.161 1.197 1.197 0 0 0-.518.038c-.262.07-.466.186-.614.347-.146.161-.193.331-.142.511a.475.475 0 0 0 .271.332c.144.066.36.094.647.083l.962-.049c.533-.026.954.046 1.263.216.31.17.518.445.623.826a1.51 1.51 0 0 1-.057.968 1.957 1.957 0 0 1-.642.811 3.126 3.126 0 0 1-1.122.532c-.653.174-1.214.179-1.686.012a1.704 1.704 0 0 1-1.019-.958l1.194-.446a.89.89 0 0 0 .5.45c.213.074.464.073.753-.005.299-.08.522-.205.67-.376.149-.172.2-.348.152-.528a.491.491 0 0 0-.278-.331c-.143-.069-.344-.097-.603-.084l-.961.053c-.539.03-.966-.048-1.279-.234-.313-.189-.521-.478-.622-.867a1.412 1.412 0 0 1 .038-.926 1.82 1.82 0 0 1 .609-.766 3.072 3.072 0 0 1 1.074-.503c.625-.167 1.152-.166 1.582.004.432.169.752.469.959.9Zm5.364-1.437-1.112.431a.95.95 0 0 0-.258-.28.864.864 0 0 0-.385-.161 1.198 1.198 0 0 0-.518.038c-.261.07-.466.186-.614.347-.145.16-.192.331-.142.51.039.156.13.267.272.333.144.066.359.093.647.083l.961-.049c.534-.026.955.046 1.263.216.311.17.519.445.623.826.088.336.069.659-.057.967a1.965 1.965 0 0 1-.641.812 3.148 3.148 0 0 1-1.123.532c-.652.174-1.214.179-1.685.012a1.705 1.705 0 0 1-1.019-.958l1.193-.446c.12.226.287.376.5.45.213.074.465.073.754-.005.298-.08.521-.205.669-.376.15-.172.201-.348.152-.528a.489.489 0 0 0-.278-.331c-.142-.069-.343-.097-.603-.084l-.96.052c-.54.031-.966-.047-1.279-.233-.314-.189-.521-.478-.623-.867a1.418 1.418 0 0 1 .038-.926c.118-.292.321-.547.61-.766.29-.221.648-.389 1.074-.503.624-.168 1.152-.166 1.582.004.432.169.752.469.959.9Zm4.589 3.085c-.535.143-1.026.155-1.474.037a2.332 2.332 0 0 1-1.147-.711c-.319-.356-.553-.813-.702-1.371-.147-.548-.172-1.057-.075-1.527.099-.473.306-.876.622-1.208.314-.335.726-.57 1.235-.707a2.77 2.77 0 0 1 .973-.089c.321.025.624.118.907.277.286.159.539.392.76.697.22.303.392.688.518 1.156l.103.385-4.369 1.17-.227-.846 3.165-.848a1.41 1.41 0 0 0-.328-.601 1.182 1.182 0 0 0-.547-.333 1.253 1.253 0 0 0-.676.006 1.271 1.271 0 0 0-.626.369c-.162.175-.27.377-.325.608-.053.227-.048.46.013.699l.198.739a1.8 1.8 0 0 0 .384.753c.172.19.376.316.611.379.235.061.489.055.762-.018a1.58 1.58 0 0 0 .476-.209c.133-.093.241-.205.322-.336a.993.993 0 0 0 .145-.444l1.209-.182c.009.329-.06.638-.206.925a2.155 2.155 0 0 1-.648.747 3.14 3.14 0 0 1-1.053.483Zm4.638-7.068.261.972-3.065.821-.26-.972 3.064-.821Zm-2.65-.659 1.257-.336 1.34 5.004c.046.169.106.291.181.368a.428.428 0 0 0 .256.125c.095.009.194 0 .298-.028.079-.021.149-.046.211-.075.064-.029.112-.054.144-.072l.475.925a2.453 2.453 0 0 1-.706.323 2.121 2.121 0 0 1-.888.086 1.376 1.376 0 0 1-.733-.332c-.205-.183-.351-.442-.438-.775l-1.397-5.213Zm8.215.678-1.112.432a.95.95 0 0 0-.257-.281.876.876 0 0 0-.385-.161 1.199 1.199 0 0 0-.518.039c-.262.07-.466.185-.614.346-.146.161-.193.331-.142.511a.475.475 0 0 0 .271.332c.144.066.36.094.647.084l.962-.05c.533-.026.954.046 1.263.216.31.17.518.445.623.826a1.51 1.51 0 0 1-.057.968 1.966 1.966 0 0 1-.642.812 3.142 3.142 0 0 1-1.122.531c-.653.175-1.214.179-1.686.013a1.706 1.706 0 0 1-1.019-.959l1.194-.446a.89.89 0 0 0 .5.45c.213.075.464.073.753-.005.299-.08.522-.205.669-.376.15-.172.201-.348.153-.528a.49.49 0 0 0-.279-.331c-.142-.068-.343-.096-.602-.084l-.961.053c-.539.03-.966-.048-1.279-.234-.313-.189-.521-.478-.622-.867a1.409 1.409 0 0 1 .038-.925c.118-.292.321-.548.609-.766.291-.222.649-.39 1.074-.504.625-.167 1.152-.166 1.582.004.432.169.752.469.959.9Z" fill="#355594"/><path d="m333.075 136.114-.314-1.17 1.988-6.369.976-.261.446 1.666-.595.159-1.335 4.298.017.064 4.811-1.289.324 1.209-6.318 1.693Zm4.279.469-.5-1.864-.124-.528-1.537-5.735 1.388-.372 2.177 8.123-1.404.376Z" fill="#A5ADB9"/><path fill="#283C64" d="m344.926 104.462.698-.187 8.604 32.11-.698.187z"/><path d="m361.005 109.471-3.351-5.631 1.186-.318 2.298 4.183.056-.015-.027-4.791 1.079-.29 2.376 4.165.053-.014-.102-4.774 1.186-.318-.087 6.553-1.088.292-2.365-3.948-.048.013-.077 4.602-1.089.291Zm7.978-2.038c-.29.077-.565.096-.824.055a1.331 1.331 0 0 1-.672-.318c-.187-.168-.321-.402-.402-.702-.069-.258-.078-.484-.028-.678.05-.194.144-.363.281-.509.138-.145.303-.271.495-.378.194-.109.399-.205.614-.289.261-.099.471-.182.632-.249.16-.068.272-.136.334-.204.064-.07.082-.157.055-.26l-.005-.018c-.06-.224-.173-.38-.339-.467-.166-.087-.373-.098-.623-.031-.264.071-.458.185-.582.341a.887.887 0 0 0-.2.49l-1.044.127c.005-.299.074-.566.207-.801a1.77 1.77 0 0 1 .556-.602c.238-.166.517-.291.836-.377.22-.059.446-.092.678-.099a1.91 1.91 0 0 1 .667.096c.211.068.399.189.562.362.165.173.289.411.37.714l.819 3.058-1.035.277-.168-.627-.036.009a1.362 1.362 0 0 1-.553.815 1.847 1.847 0 0 1-.595.265Zm.067-.866c.216-.058.392-.151.528-.279a.982.982 0 0 0 .274-.443.911.911 0 0 0 .005-.502l-.144-.539a.524.524 0 0 1-.152.124c-.073.045-.156.09-.251.134a7.648 7.648 0 0 1-.281.127l-.244.103a1.908 1.908 0 0 0-.402.223.732.732 0 0 0-.245.289.526.526 0 0 0-.019.368c.053.198.165.329.337.391a.98.98 0 0 0 .594.004Zm2.848-6.544 1.632 6.092-1.077.289-1.632-6.092 1.077-.289Zm2.184-.585 1.632 6.092-1.077.289-1.632-6.092 1.077-.289Zm4.786 5.343c-.458.123-.879.133-1.263.032a1.995 1.995 0 0 1-.983-.61c-.273-.305-.474-.697-.602-1.175-.126-.47-.147-.906-.064-1.309.085-.405.262-.75.533-1.035.269-.287.622-.489 1.058-.606.282-.075.56-.1.834-.077.276.022.535.101.778.238.245.137.462.336.651.597.189.26.337.59.444.991l.088.33-3.745 1.004-.194-.726 2.713-.727a1.195 1.195 0 0 0-.282-.515 1.003 1.003 0 0 0-.468-.285 1.065 1.065 0 0 0-.579.005c-.22.059-.399.164-.537.316a1.15 1.15 0 0 0-.278.521c-.046.195-.042.395.011.6l.169.633c.072.266.181.481.33.645.147.163.322.271.523.325.201.053.419.048.653-.015a1.36 1.36 0 0 0 .408-.179.985.985 0 0 0 .277-.288.867.867 0 0 0 .124-.381l1.036-.156c.007.282-.051.547-.177.793a1.842 1.842 0 0 1-.555.64 2.688 2.688 0 0 1-.903.414Zm3.976-6.058.223.833-2.626.703-.224-.832 2.627-.704Zm-2.272-.565 1.077-.288 1.15 4.289a.71.71 0 0 0 .154.316.365.365 0 0 0 .22.106.685.685 0 0 0 .255-.023c.068-.018.128-.04.181-.065a2.11 2.11 0 0 0 .124-.061l.407.793a2.549 2.549 0 0 1-.23.131 2.115 2.115 0 0 1-.375.146 1.83 1.83 0 0 1-.762.073 1.17 1.17 0 0 1-.628-.285c-.176-.156-.301-.378-.375-.664l-1.198-4.468Zm7.042.581-.953.37a.81.81 0 0 0-.551-.378 1.033 1.033 0 0 0-.444.033 1.07 1.07 0 0 0-.526.297c-.125.137-.165.283-.122.437a.41.41 0 0 0 .233.285c.123.057.308.08.554.072l.824-.042c.458-.023.819.039 1.083.185.266.145.444.381.534.708.075.288.059.564-.049.829a1.679 1.679 0 0 1-.55.696c-.26.201-.581.353-.962.455-.559.15-1.041.154-1.444.011a1.46 1.46 0 0 1-.874-.821l1.023-.383a.767.767 0 0 0 .429.386c.182.064.398.062.646-.004.255-.069.447-.176.573-.323.129-.147.172-.298.131-.452a.42.42 0 0 0-.239-.284c-.122-.059-.294-.083-.516-.072l-.824.045c-.462.026-.828-.04-1.096-.2-.269-.162-.447-.41-.534-.743a1.218 1.218 0 0 1 .033-.794c.101-.25.275-.469.522-.656.249-.19.556-.334.921-.432.535-.143.987-.142 1.356.004.37.145.644.402.822.771Z" fill="#355594"/><path d="m381.522 116.043 2.177 8.122-1.472.395-1.792-6.691-.048.012-1.575 1.723-.361-1.348 1.671-1.838 1.4-.375Zm7.184 6.9c-.571.153-1.105.191-1.602.114a2.635 2.635 0 0 1-1.266-.536 2.192 2.192 0 0 1-.732-1.1l1.491-.4c.072.216.196.388.372.517.176.125.385.204.629.235.243.031.501.01.774-.063.29-.078.535-.197.733-.358.197-.163.334-.353.412-.569.078-.217.084-.444.018-.681a1.13 1.13 0 0 0-.365-.599 1.321 1.321 0 0 0-.681-.29 2.291 2.291 0 0 0-.923.077l-.718.193-.304-1.134.718-.193c.283-.076.517-.191.702-.345.188-.156.319-.338.394-.548a1.1 1.1 0 0 0 .011-.67 1.122 1.122 0 0 0-.315-.558 1.081 1.081 0 0 0-.548-.282 1.494 1.494 0 0 0-.7.034 1.817 1.817 0 0 0-.654.32 1.302 1.302 0 0 0-.409.522 1.014 1.014 0 0 0-.049.642l-1.416.38a2.136 2.136 0 0 1 .072-1.303c.161-.415.427-.775.799-1.082.37-.309.819-.534 1.345-.675.542-.145 1.04-.169 1.494-.072.455.093.839.281 1.15.563.31.282.521.629.632 1.042.125.457.093.876-.097 1.259-.186.381-.487.678-.9.891l.017.064c.592-.074 1.087.02 1.483.282.398.259.664.643.797 1.151.122.455.101.897-.061 1.326-.161.426-.44.801-.838 1.126-.395.324-.883.564-1.465.72Z" fill="#A5ADB9"/><path fill="#289548" d="m181.127 193.99 127.742-34.228 1.496 5.584-127.742 34.228z"/><path fill="#FC9F0F" d="m308.869 159.762 40.487-10.848 1.496 5.584-40.487 10.848z"/><path fill="#2079EE" d="m349.355 148.913 28.62-7.669 1.496 5.584-28.62 7.669z"/><path fill="#DE5846" d="m377.975 141.245 20.243-5.424 1.496 5.584-20.243 5.424z"/><path d="m265.131 189.179 1.575-.422 3.49 4.585.084-.023.73-5.715 1.575-.422 1.905 7.107-1.236.331-1.308-4.883-.066.018-.662 5.388-.923.248-3.269-4.346-.066.017 1.311 4.893-1.236.331-1.904-7.107Zm13.058 4.23c-.52.14-1.002.146-1.445.019a2.406 2.406 0 0 1-1.146-.723c-.319-.356-.552-.809-.699-1.36-.148-.55-.173-1.061-.076-1.531.1-.47.31-.871.63-1.202.32-.332.741-.567 1.261-.707.521-.139 1.003-.146 1.446-.019.443.127.824.37 1.143.728.322.358.556.812.704 1.362.148.551.171 1.06.071 1.529a2.395 2.395 0 0 1-.627 1.198c-.321.331-.741.567-1.262.706Zm-.262-1.008a1.12 1.12 0 0 0 .645-.422 1.45 1.45 0 0 0 .254-.745 2.66 2.66 0 0 0-.094-.92 2.683 2.683 0 0 0-.379-.847 1.448 1.448 0 0 0-.594-.521c-.231-.107-.488-.122-.771-.047-.289.078-.508.221-.658.43a1.474 1.474 0 0 0-.257.749c-.022.289.011.596.098.922.087.324.212.606.375.845.166.238.365.41.596.517.234.104.495.117.785.039Zm3.855-.066-1.428-5.33 1.218-.327.238.889.055-.015c.015-.334.118-.616.309-.846.193-.232.443-.39.748-.471.069-.019.148-.036.235-.052a1.63 1.63 0 0 1 .225-.035l.31 1.156a1.387 1.387 0 0 0-.266.019c-.118.015-.23.036-.336.064-.23.062-.422.167-.578.315a1.122 1.122 0 0 0-.318.521c-.058.201-.056.415.004.642l.84 3.134-1.256.336Zm6.043-1.507c-.535.143-1.026.155-1.474.037a2.327 2.327 0 0 1-1.147-.712c-.318-.356-.552-.812-.702-1.37-.147-.548-.172-1.057-.074-1.527.099-.473.306-.876.621-1.208.314-.335.726-.57 1.235-.707.329-.088.653-.118.973-.089.322.025.624.118.907.277.286.159.539.391.76.697.22.303.393.688.518 1.155l.103.386-4.369 1.17-.227-.846 3.165-.848a1.403 1.403 0 0 0-.328-.601 1.182 1.182 0 0 0-.547-.333 1.25 1.25 0 0 0-.675.006 1.27 1.27 0 0 0-.627.369c-.161.175-.27.377-.324.608-.053.227-.049.46.012.699l.198.739a1.8 1.8 0 0 0 .384.753c.173.189.376.316.611.379.235.061.489.055.762-.018.183-.049.341-.119.476-.209a1.16 1.16 0 0 0 .323-.336c.081-.131.129-.279.145-.444l1.208-.183c.009.33-.06.639-.206.926-.144.284-.36.533-.648.746a3.12 3.12 0 0 1-1.053.484Zm8.293-2.334-2.408.645-1.905-7.107 2.457-.659c.706-.189 1.35-.209 1.933-.06a2.95 2.95 0 0 1 1.499.904c.415.456.722 1.054.919 1.792.199.74.232 1.413.099 2.019a2.957 2.957 0 0 1-.855 1.542c-.438.423-1.017.73-1.739.924Zm-1.419-.814 1.058-.283c.495-.133.884-.334 1.166-.603.282-.272.458-.61.528-1.016.069-.407.031-.883-.115-1.427-.145-.544-.349-.972-.612-1.286a1.761 1.761 0 0 0-.956-.611c-.372-.094-.799-.076-1.28.053l-1.097.294 1.308 4.879Zm8.424-.952c-.534.144-1.026.156-1.474.038a2.338 2.338 0 0 1-1.147-.712c-.318-.356-.552-.812-.702-1.37-.146-.548-.171-1.058-.074-1.527.099-.473.306-.876.621-1.208.315-.335.726-.571 1.235-.707.329-.088.653-.118.973-.09.322.026.624.118.908.278.285.159.538.391.759.697.22.303.393.688.518 1.155l.103.385-4.369 1.171-.227-.847 3.165-.848a1.4 1.4 0 0 0-.328-.6 1.182 1.182 0 0 0-.547-.333 1.24 1.24 0 0 0-.675.006 1.27 1.27 0 0 0-.627.369 1.339 1.339 0 0 0-.324.607c-.053.228-.049.461.013.7l.198.739a1.8 1.8 0 0 0 .384.753c.172.189.376.316.611.379.234.061.488.055.761-.018.183-.049.342-.119.476-.209.134-.093.241-.205.323-.336.081-.131.13-.279.145-.444l1.208-.183c.009.33-.059.639-.206.926-.144.284-.36.533-.648.746a3.14 3.14 0 0 1-1.053.483Zm4.639-7.067.26.971-3.064.821-.261-.971 3.065-.821Zm-2.65-.659 1.256-.337 1.341 5.005c.045.168.105.291.18.368a.43.43 0 0 0 .257.124c.094.01.193.001.298-.027.078-.021.148-.046.21-.075.064-.03.112-.054.144-.072l.475.925a2.515 2.515 0 0 1-.705.323 2.127 2.127 0 0 1-.889.086 1.37 1.37 0 0 1-.732-.332c-.206-.183-.352-.442-.439-.776l-1.396-5.212Zm6.691 5.404a2.29 2.29 0 0 1-.961.064 1.535 1.535 0 0 1-.783-.37c-.219-.197-.375-.47-.469-.819-.081-.301-.092-.565-.033-.791.058-.226.167-.424.328-.594.16-.169.353-.316.577-.441.226-.127.465-.24.717-.337.304-.116.549-.213.737-.29.187-.08.317-.16.39-.239.074-.082.096-.183.063-.303l-.005-.021c-.07-.261-.202-.443-.395-.545-.194-.102-.436-.114-.728-.036-.308.083-.534.215-.678.398-.142.182-.22.372-.234.572l-1.217.148c.005-.349.086-.661.24-.935.154-.277.37-.511.649-.702.278-.194.603-.34.976-.44.256-.069.52-.107.791-.115.27-.009.53.029.777.111.247.08.466.221.657.423.192.201.336.479.431.833l.956 3.567-1.208.324-.196-.732-.041.011a1.592 1.592 0 0 1-.646.95 2.134 2.134 0 0 1-.695.309Zm.079-1.01c.252-.068.458-.176.616-.325.158-.152.264-.324.319-.517.057-.194.06-.389.007-.586l-.168-.628a.61.61 0 0 1-.178.144 2.876 2.876 0 0 1-.292.157c-.11.051-.22.101-.329.147l-.284.121c-.18.076-.337.162-.47.26a.866.866 0 0 0-.285.336.614.614 0 0 0-.022.43c.062.232.193.384.393.457.201.072.432.074.693.004Zm3.97-.19-1.428-5.331 1.256-.336 1.429 5.33-1.257.337Zm-.999-6.256a.763.763 0 0 1-.567-.06.662.662 0 0 1-.344-.425.652.652 0 0 1 .086-.54.746.746 0 0 1 .459-.339.741.741 0 0 1 .568.064.649.649 0 0 1 .344.424.655.655 0 0 1-.086.54.748.748 0 0 1-.46.336Zm2.899-1.871 1.905 7.108-1.257.336-1.904-7.107 1.256-.337Zm6.359 1.711-1.112.432a.95.95 0 0 0-.257-.281.88.88 0 0 0-.386-.161 1.216 1.216 0 0 0-.518.039c-.261.07-.466.185-.613.346-.146.161-.193.331-.143.511a.48.48 0 0 0 .272.333c.144.065.36.093.647.083l.961-.049c.534-.027.955.045 1.263.215.311.17.519.445.623.827.088.336.069.658-.057.967a1.955 1.955 0 0 1-.641.812 3.139 3.139 0 0 1-1.123.531c-.652.175-1.214.179-1.685.013a1.705 1.705 0 0 1-1.019-.958l1.193-.447c.12.226.287.376.5.45.214.075.465.073.754-.004.299-.08.522-.206.669-.377.15-.171.201-.348.153-.528a.49.49 0 0 0-.279-.331c-.142-.068-.343-.096-.603-.084l-.96.053c-.54.031-.966-.047-1.279-.234-.313-.189-.521-.478-.623-.867a1.415 1.415 0 0 1 .039-.925c.117-.292.32-.548.609-.766.29-.222.648-.39 1.074-.504.625-.167 1.152-.166 1.582.004.432.17.752.47.959.9Z" fill="#0D7ED6"/><path d="m144.388 146.226 261.766-70.14" stroke="#283C64" stroke-width=".723"/><path fill="#171F34" d="M124 70.139 385.766-.001l10.353 38.637-261.766 70.14z"/><path fill="#283C64" d="m134.166 108.078 261.766-70.14.187.698-261.766 70.14z"/><rect x="148.582" y="72.531" width="23.125" height="23.125" rx="2.891" transform="rotate(-15 148.582 72.53)" fill="#235B95"/><g clip-path="url(#f)"><path d="M164.472 88.47a12.486 12.486 0 0 1-1.339-.606 19.855 19.855 0 0 1-1.365-.77 21.11 21.11 0 0 1-1.643-1.125 20.463 20.463 0 0 1-3.571-3.441 19.271 19.271 0 0 1-3.025-5.246c-.079-.205-.139-.467.09-.675a17.122 17.122 0 0 1 2.097-1.499 19.955 19.955 0 0 1 2.112-1.138c.836-.39 1.704-.709 2.594-.951l.497-.133a16.246 16.246 0 0 1 2.722-.474 20.013 20.013 0 0 1 2.398-.07c.86.019 1.717.102 2.566.25.302.065.381.322.415.538a19.228 19.228 0 0 1 .003 6.057 20.493 20.493 0 0 1-1.371 4.766 20.372 20.372 0 0 1-1.658 3.145c-.262.415-.548.814-.857 1.194a.774.774 0 0 1-.665.178Zm-2.413-10.163c-.011.029-.867 1.622-1.493 2.785l-.526.98c-.25.436-.345.948-.271 1.452.046.265.146.52.293.745.179.27.404.504.664.693a16.594 16.594 0 0 0 2.361 1.477c.341.179.691.337 1.049.474a.582.582 0 0 0 .514-.138 10 10 0 0 0 .671-.934c.503-.78.94-1.603 1.306-2.46.131-.293.208-.61.229-.933a1.997 1.997 0 0 0-.119-.791 2.263 2.263 0 0 0-.961-1.122l-.815-.505-.098-.06a564.515 564.515 0 0 1-2.741-1.698.05.05 0 0 0-.026 0 .048.048 0 0 0-.023.013.062.062 0 0 0-.014.022Zm-.755-3.062a136.95 136.95 0 0 1 .92.871c1.201 1.143 3.21 3.054 3.727 3.513.382.338.788.482 1.115.395.317-.085.716-.429.818-1.585a15.342 15.342 0 0 0-.133-3.774c-.027-.173-.09-.379-.332-.43a13.736 13.736 0 0 0-2.049-.2 15.933 15.933 0 0 0-1.915.056c-.735.064-1.462.19-2.175.378l-.38.102c-.711.194-1.404.448-2.072.76a15.93 15.93 0 0 0-1.687.91c-.587.355-1.147.755-1.675 1.196-.183.166-.135.375-.072.539a15.343 15.343 0 0 0 1.772 3.335c.368.525.927 1.117 1.501.963.327-.087.606-.415.768-.9.218-.654 1.002-3.313 1.471-4.902v-.002c.196-.663.337-1.142.347-1.17a.598.598 0 0 0 .015-.045c.005-.016.007-.025.012-.026.004-.001.011.004.024.016Zm-.62 7.191.6-1.129 2.963-.794 1.083.678-4.646 1.245Zm1.05-1.943.618-1.146 1.109.683-1.727.463Z" fill="#fff"/></g><path d="m192.499 77.28 12.565-3.367M191.463 73.414l12.565-3.366M190.427 69.548l12.565-3.367" stroke="#6A8CC6" stroke-width="1.445" stroke-linecap="round" stroke-linejoin="round"/><g clip-path="url(#g)"><path d="M276.095 50.28c-1.062-2.238-3.61-3.27-5.818-2.355-2.208.914-3.315 3.458-2.528 5.81.787 2.352 3.197 3.7 5.503 3.08l5.46-1.463c1.122-.299 1.94-1.28 2.061-2.474a3.01 3.01 0 0 0-1.513-2.93 2.742 2.742 0 0 0-3.165.333Zm0 0c.2.482.28 1.06.225 1.972" stroke="#6A8CC6" stroke-width="1.445" stroke-linecap="round" stroke-linejoin="round"/><path d="M279.348 44.006a2.174 2.174 0 0 0-2.655-1.533c-1.117.299-1.833 1.538-1.533 2.655a2.174 2.174 0 0 0 2.655 1.533 2.174 2.174 0 0 0 1.533-2.655c.019.07 0 0 0 0Z" fill="#289548"/><path fill="#283C64" d="m289.95 38.897.698-.187 3.741 13.96-.698.188z"/><g clip-path="url(#h)" stroke="#6A8CC6" stroke-width="1.445" stroke-linecap="round" stroke-linejoin="round"><path d="M311.01 46.572c.378.572 1.099.752 1.671.375.312-.233.586-.606.563-.974M309.319 35.802l-.337-1.257M309.32 35.802a4.348 4.348 0 0 1 5.31 3.066c1.048 3.91 2.072 4.383 2.072 4.383l-10.051 2.693s.557-1.272-.397-4.832a4.349 4.349 0 0 1 3.066-5.31Z"/></g><path fill="#283C64" d="m326.946 28.984.698-.187 3.741 13.96-.698.188z"/></g><g clip-path="url(#i)"><g clip-path="url(#j)"><circle cx="357.418" cy="28.285" r="11.547" transform="rotate(-15 357.418 28.285)" fill="#2079EE"/><g clip-path="url(#k)"><g clip-path="url(#l)"><circle cx="357.418" cy="28.286" r="11.547" transform="rotate(-15 357.418 28.286)" fill="#3898F9"/><mask id="m" style="mask-type:alpha" maskUnits="userSpaceOnUse" x="345" y="16" width="24" height="24"><circle cx="357.418" cy="28.286" r="11.547" transform="rotate(-15 357.418 28.286)" fill="#000"/></mask><g mask="url(#m)"><circle cx="358.201" cy="18.023" r="11.81" transform="rotate(-15 358.201 18.023)" fill="#2079EE"/><ellipse cx="348.04" cy="30.799" rx="11.81" ry="11.547" transform="rotate(-15 348.04 30.799)" fill="#0B4DC7"/></g></g></g><path d="M358.049 27.726c.139.521.161.994.066 1.418a2.157 2.157 0 0 1-.566 1.063 2.273 2.273 0 0 1-1.058.6 2.286 2.286 0 0 1-1.218.01 2.183 2.183 0 0 1-1.022-.64c-.293-.32-.51-.74-.649-1.26-.14-.521-.162-.993-.068-1.415.096-.424.284-.78.566-1.066a2.284 2.284 0 0 1 1.059-.6 2.273 2.273 0 0 1 1.216-.01c.388.108.729.321 1.022.641.295.318.512.738.652 1.259Zm-.882.236c-.098-.367-.238-.661-.421-.882a1.321 1.321 0 0 0-.626-.448 1.3 1.3 0 0 0-.75-.01c-.263.071-.478.199-.644.384a1.338 1.338 0 0 0-.321.701c-.046.282-.02.607.078.974.099.367.238.662.42.886.182.22.392.37.629.447.236.075.485.077.749.006.263-.07.478-.197.645-.38.166-.185.272-.418.318-.7.047-.285.022-.611-.077-.978Zm1.88-3.097 1.296 4.84-.855.228-1.297-4.839.856-.229Z" fill="#fff"/></g></g></g></g><rect x="259.746" y="252.722" width="219.85" height="104.623" rx="8.483" transform="rotate(-15 259.746 252.722)" fill="#566270"/><path d="m460.468 210.958 2.813 3.125 3.574-.592c.428-.041.675.332.475.678l-2.1 3.636 2.136 3.6c.159.323-.072.824-.537.729l-4.045-.892-3.006 2.708c-.169.192-.77.133-.761-.382l.031-4.253-3.668-1.944c-.278-.218-.456-.61.072-.824l3.391-1.275.874-4.113c.095-.465.455-.488.751-.201Z" fill="#FEB933"/><g clip-path="url(#n)"><g clip-path="url(#o)"><circle cx="297.859" cy="270.317" transform="rotate(-15 297.859 270.317)" fill="#599294" r="15.552"/><g clip-path="url(#p)"><mask id="q" style="mask-type:alpha" maskUnits="userSpaceOnUse" x="282" y="254" width="32" height="32"><circle cx="297.853" cy="270.317" transform="rotate(-15 297.853 270.317)" fill="#000" r="15.552"/></mask><g mask="url(#q)"><path fill="#2C7A7D" d="m280.926 275.212 36.72-9.84 9.84 36.721-36.72 9.84z"/><path fill="#7EB6B8" d="m292.277 272.171 36.72-9.84 9.84 36.721-36.72 9.84z"/></g></g></g></g><path d="m321.759 252.189 1.004-.269 3.91 5.138.081-.022.816-6.404 1.005-.269 1.863 6.952-.787.211-1.416-5.282-.068.018-.757 5.864-.76.204-3.588-4.7-.068.018 1.415 5.282-.788.212-1.862-6.953Zm11.298 6.52a1.831 1.831 0 0 1-.609.061l.015-.76c.208-.003.384-.031.53-.084a.644.644 0 0 0 .344-.307c.086-.149.142-.369.168-.66l.041-.448-3.333-4.724.869-.233 2.553 3.769.054-.014.326-4.541.869-.233-.612 6.568a2.35 2.35 0 0 1-.191.768 1.438 1.438 0 0 1-.406.534c-.17.138-.375.239-.618.304Zm8.152-4.28-2.986-4.789.842-.225 2.196 3.69.055-.014.044-4.291.855-.229 2.166 3.684.054-.015.061-4.281.842-.225-.191 5.64-.788.211-2.214-3.7-.081.022-.068 4.311-.787.211Zm8.153-2.054a2.194 2.194 0 0 1-.95.055 1.605 1.605 0 0 1-.788-.375c-.223-.197-.38-.466-.471-.805-.08-.299-.086-.557-.018-.774.068-.219.186-.409.354-.568.168-.159.364-.296.588-.412.225-.119.455-.226.689-.323.305-.125.554-.225.746-.298.193-.076.328-.152.404-.228.079-.077.101-.18.067-.309l-.008-.027c-.09-.335-.251-.571-.484-.707-.231-.138-.531-.157-.899-.058-.383.103-.66.267-.833.492a1.54 1.54 0 0 0-.314.66l-.833-.068c.05-.353.165-.649.344-.886.181-.24.397-.431.647-.573.252-.146.51-.253.772-.324a3.24 3.24 0 0 1 .594-.093c.23-.021.463.003.699.071.239.067.459.205.661.416.202.21.358.522.469.936l.921 3.436-.801.215-.19-.707-.04.011a1.44 1.44 0 0 1-.175.436 1.621 1.621 0 0 1-.417.465 2.011 2.011 0 0 1-.734.342Zm-.071-.752c.317-.085.567-.219.751-.401.186-.184.308-.389.367-.615.06-.227.061-.45.003-.667l-.197-.733c-.023.05-.087.107-.194.172a3.82 3.82 0 0 1-.371.19c-.141.062-.279.121-.414.177-.134.053-.243.096-.326.131a3.151 3.151 0 0 0-.548.289 1.036 1.036 0 0 0-.363.384c-.077.147-.088.322-.033.526.074.278.233.461.478.549.245.084.528.084.847-.002Zm2.828-7.569 1.863 6.952-.801.215-1.863-6.952.801-.215Zm2.269-.608 1.863 6.953-.801.214-1.863-6.952.801-.215Zm5.545 6.082c-.502.135-.965.14-1.389.016a2.315 2.315 0 0 1-1.089-.712c-.303-.351-.526-.793-.669-1.328-.143-.534-.172-1.03-.086-1.49.087-.462.275-.855.565-1.177.291-.326.672-.552 1.142-.678a2.57 2.57 0 0 1 .841-.08c.289.02.57.103.842.248.271.143.516.364.734.662.218.298.392.69.523 1.177l.091.339-4.02 1.077-.185-.692 3.204-.859a1.775 1.775 0 0 0-.387-.74 1.385 1.385 0 0 0-.642-.414 1.44 1.44 0 0 0-.808.002 1.486 1.486 0 0 0-.764.459 1.63 1.63 0 0 0-.37.754 1.86 1.86 0 0 0 .03.858l.124.462c.105.394.263.709.472.947.211.234.457.39.74.467.282.075.585.069.909-.017.21-.057.392-.137.546-.242.156-.107.28-.237.372-.39.092-.156.147-.333.167-.532l.832.009a1.775 1.775 0 0 1-.225.803c-.14.248-.336.466-.589.653a2.74 2.74 0 0 1-.911.418Zm4.22-6.835.181.679-2.702.724-.182-.679 2.703-.724Zm-2.25-.737.801-.214 1.332 4.97c.061.226.139.387.235.482a.525.525 0 0 0 .318.155c.116.008.233-.004.351-.035.088-.024.159-.048.213-.072l.129-.064.355.676a1.558 1.558 0 0 1-.211.122 1.698 1.698 0 0 1-.361.133 1.663 1.663 0 0 1-.704.033c-.241-.04-.46-.14-.656-.301-.193-.162-.331-.394-.412-.698l-1.39-5.187Zm10.134 4.213-.722-7.258.679-.182.722 7.258-.679.182Zm-3.681-1.081-.073-.708 5.187-1.39.074.708-5.188 1.39Zm1.237 1.736-.722-7.258.679-.182.722 7.258-.679.182Zm-1.477-4.262-.073-.708 5.187-1.39.073.708-5.187 1.39Zm7.926-4.918 1.863 6.952-.842.226-1.626-6.07-.041.011-1.396 1.582-.229-.856 1.429-1.619.842-.226Z" fill="#E8EBF6"/><path d="m327.802 274.247-.756.203.591-6.546.745-.199 3.785 5.373-.757.202-3.125-4.539-.046.012-.437 5.494Zm-.344-2.403 3.049-.817.172.64-3.05.818-.171-.641Zm8.333-4.129a2.211 2.211 0 0 0-.394-.458 1.667 1.667 0 0 0-1.028-.427 1.979 1.979 0 0 0-.617.072c-.353.095-.65.272-.89.532-.24.259-.398.59-.474.99-.075.401-.044.86.094 1.376.138.516.341.928.609 1.237.268.308.574.514.917.618.344.103.7.105 1.069.007.341-.092.622-.245.843-.46.223-.218.371-.48.445-.787a2.022 2.022 0 0 0-.034-1.011l.233-.012-1.792.48-.172-.64 2.27-.608.172.64c.131.491.141.946.028 1.364-.11.419-.322.777-.635 1.075-.311.296-.704.507-1.177.634-.528.141-1.025.141-1.491 0a2.603 2.603 0 0 1-1.215-.81c-.344-.398-.6-.912-.768-1.54a4.151 4.151 0 0 1-.152-1.323c.027-.412.121-.783.283-1.111.161-.328.382-.605.662-.832.28-.227.612-.392.994-.494.314-.084.62-.115.917-.093a2.46 2.46 0 0 1 1.54.673c.207.198.376.434.508.709l-.745.199Zm1.114-1.608-.171-.64 4.469-1.198.172.64-1.874.502 1.425 5.32-.722.193-1.425-5.319-1.874.502Zm8.834 3.421a2.58 2.58 0 0 1-1.116.071 1.792 1.792 0 0 1-.871-.399 1.544 1.544 0 0 1-.484-.794 1.641 1.641 0 0 1 .231-1.387 1.3 1.3 0 0 1 .516-.434l-.009-.035a1.197 1.197 0 0 1-.81-.298 1.508 1.508 0 0 1-.477-.78 1.49 1.49 0 0 1 .012-.873c.092-.28.255-.526.489-.736.237-.211.53-.363.879-.457.345-.093.672-.106.981-.041.308.065.572.196.791.393.221.196.373.445.456.747a1.53 1.53 0 0 1-.032.917 1.195 1.195 0 0 1-.543.66l.009.035c.226-.019.444.021.656.12a1.68 1.68 0 0 1 .902 1.084c.084.323.074.633-.031.932a1.804 1.804 0 0 1-.555.781 2.53 2.53 0 0 1-.994.494Zm-.171-.64c.27-.072.491-.178.663-.318.173-.14.291-.304.355-.491.064-.188.069-.389.013-.603a1.106 1.106 0 0 0-.334-.549 1.227 1.227 0 0 0-.578-.282 1.511 1.511 0 0 0-.712.032 1.576 1.576 0 0 0-.641.33 1.23 1.23 0 0 0-.359.533 1.092 1.092 0 0 0-.006.641c.055.214.156.387.304.518.149.13.334.212.556.247.221.034.467.015.739-.058Zm-.758-2.828c.213-.058.391-.151.533-.28.144-.13.243-.285.297-.464.054-.178.055-.371.001-.577a1.026 1.026 0 0 0-.283-.488.953.953 0 0 0-.481-.246 1.32 1.32 0 0 0-.61.029c-.223.06-.406.154-.551.282a.927.927 0 0 0-.293.453 1.01 1.01 0 0 0 .007.563c.053.206.147.373.281.501.136.128.299.212.489.253.189.041.393.032.61-.026Zm6.387-.04-.708-2.642.686-.184 1.198 4.469-.687.184-.202-.756-.047.012a1.513 1.513 0 0 1-.334.71c-.179.217-.437.37-.775.461-.279.074-.544.08-.794.016a1.327 1.327 0 0 1-.661-.422c-.192-.217-.338-.515-.44-.895l-.761-2.84.687-.184.748 2.793c.088.326.248.561.483.707a.965.965 0 0 0 .782.102c.171-.046.332-.136.486-.271.155-.135.268-.309.34-.521.074-.213.073-.46-.001-.739Zm6.224-4.1-.721.193a1.557 1.557 0 0 0-.861-.78 1.669 1.669 0 0 0-.563-.111 2.073 2.073 0 0 0-.592.071 1.89 1.89 0 0 0-.908.537c-.242.26-.401.591-.479.992-.076.401-.044.859.094 1.375s.34.929.606 1.238c.268.309.572.515.912.62.341.103.693.107 1.053.01.198-.053.381-.131.549-.234a1.72 1.72 0 0 0 .433-.375 1.595 1.595 0 0 0 .355-1.108l.721-.194c.027.319.002.618-.078.897a2.317 2.317 0 0 1-.37.758 2.45 2.45 0 0 1-.617.574 2.75 2.75 0 0 1-.812.357 2.57 2.57 0 0 1-1.455-.009 2.637 2.637 0 0 1-1.218-.809c-.35-.397-.609-.909-.777-1.538-.169-.628-.201-1.202-.097-1.721.105-.518.322-.955.651-1.309s.748-.6 1.256-.736c.301-.08.594-.112.882-.096a2.376 2.376 0 0 1 1.52.659c.208.201.38.447.516.739Zm5.67 4.668-.633-2.363-.059.016a4.592 4.592 0 0 1-.132.366 1.34 1.34 0 0 1-.311.436c-.147.141-.364.25-.651.327-.373.1-.727.094-1.062-.018a1.982 1.982 0 0 1-.885-.624c-.254-.304-.444-.693-.571-1.166-.126-.469-.155-.898-.086-1.287.068-.388.221-.715.458-.98.236-.265.543-.448.919-.549.291-.078.534-.091.729-.039.196.049.355.123.477.221.123.096.221.176.292.24l.081-.022-.19-.71.664-.178 1.646 6.146-.686.184Zm-1.858-1.86c.275-.074.489-.208.64-.402.151-.197.242-.436.272-.719.03-.284 0-.595-.091-.933a2.49 2.49 0 0 0-.38-.837 1.316 1.316 0 0 0-.588-.472 1.183 1.183 0 0 0-.761-.024c-.291.078-.513.218-.667.419a1.385 1.385 0 0 0-.273.719 2.47 2.47 0 0 0 .086.887c.085.319.211.595.377.829.168.231.369.398.602.499.235.1.495.111.783.034Zm3.319-3.21.72 2.689-.687.184-1.597-5.959.687-.184.586 2.188.059-.016c.043-.259.151-.484.324-.676.174-.194.437-.338.788-.433.305-.081.588-.092.849-.031.262.059.489.197.682.413.194.214.343.513.446.898l.761 2.839-.687.184-.748-2.793c-.095-.355-.261-.605-.497-.749-.235-.147-.514-.177-.838-.091a1.318 1.318 0 0 0-.567.305 1.081 1.081 0 0 0-.308.528c-.052.21-.043.444.027.704Zm5.323 3.252-1.646-6.146.663-.177.19.71.082-.022c.03-.091.073-.209.13-.353a1.26 1.26 0 0 1 .302-.43c.145-.143.363-.254.654-.331a1.838 1.838 0 0 1 1.071.015c.337.111.633.318.886.62.254.302.444.688.569 1.158.127.473.157.905.089 1.295a1.98 1.98 0 0 1-.454.983 1.82 1.82 0 0 1-.911.546c-.287.077-.53.091-.728.042a1.3 1.3 0 0 1-.487-.222 4.825 4.825 0 0 1-.298-.25l-.058.015.633 2.363-.687.184Zm-.372-4.092c.09.338.219.622.387.854.168.229.366.391.595.486.229.093.481.102.756.028.287-.077.507-.217.658-.419.153-.206.244-.45.271-.734.03-.287.002-.589-.084-.907a2.424 2.424 0 0 0-.373-.811 1.364 1.364 0 0 0-.595-.486c-.232-.098-.493-.108-.784-.03a1.19 1.19 0 0 0-.647.401 1.324 1.324 0 0 0-.274.703c-.03.277 0 .582.09.915Zm5.429.99a.519.519 0 0 1-.41-.055.52.52 0 0 1-.254-.328.52.52 0 0 1 .056-.411.519.519 0 0 1 .328-.253.522.522 0 0 1 .411.055c.13.075.214.185.253.328a.557.557 0 0 1-.14.524.513.513 0 0 1-.244.14Zm2.257-.604a.525.525 0 0 1-.411-.055.523.523 0 0 1-.253-.329.519.519 0 0 1 .055-.41.523.523 0 0 1 .328-.254.525.525 0 0 1 .411.055.52.52 0 0 1 .253.329.558.558 0 0 1-.14.524.519.519 0 0 1-.243.14Zm2.256-.605a.519.519 0 0 1-.41-.055.523.523 0 0 1-.254-.328.52.52 0 0 1 .056-.411.519.519 0 0 1 .328-.253.522.522 0 0 1 .411.055c.13.075.214.185.253.328a.566.566 0 0 1-.14.524.522.522 0 0 1-.244.14Zm-.552-6.289.827-.221 2.398 2.339.07-.019.907-3.225.826-.221-1.214 4.08.658 2.456-.722.193-.658-2.455-3.092-2.927Zm9.384 3.96a2.58 2.58 0 0 1-1.116.071 1.792 1.792 0 0 1-.871-.399 1.538 1.538 0 0 1-.484-.794 1.656 1.656 0 0 1-.039-.738c.044-.242.133-.458.269-.649a1.31 1.31 0 0 1 .517-.434l-.009-.035a1.197 1.197 0 0 1-.81-.298 1.508 1.508 0 0 1-.477-.78 1.49 1.49 0 0 1 .012-.873c.092-.28.254-.526.489-.736.237-.211.53-.363.879-.457.345-.093.672-.106.98-.041.309.065.573.196.792.393.221.196.373.445.456.747a1.53 1.53 0 0 1-.032.917 1.193 1.193 0 0 1-.544.66l.01.035c.225-.019.444.021.656.12.211.098.397.24.557.428.16.186.275.404.344.656.085.323.074.633-.031.932a1.787 1.787 0 0 1-.554.781 2.53 2.53 0 0 1-.994.494Zm-.171-.64c.269-.072.49-.178.663-.318.173-.14.291-.304.355-.491.064-.188.068-.389.013-.603a1.113 1.113 0 0 0-.334-.549 1.231 1.231 0 0 0-.578-.282 1.51 1.51 0 0 0-.712.032 1.57 1.57 0 0 0-.641.33 1.23 1.23 0 0 0-.359.533 1.076 1.076 0 0 0-.006.641c.055.214.156.387.304.518.149.13.334.212.555.247a1.8 1.8 0 0 0 .74-.058Zm-.758-2.828c.213-.058.391-.151.533-.28.144-.13.243-.285.297-.464.054-.178.054-.371.001-.577a1.02 1.02 0 0 0-.284-.488.953.953 0 0 0-.48-.246 1.319 1.319 0 0 0-.61.029c-.223.06-.407.154-.551.282a.936.936 0 0 0-.294.453 1.01 1.01 0 0 0 .008.563c.053.206.147.373.281.501.136.128.299.212.488.253.19.041.394.032.611-.026Zm4.026-.331.72 2.689-.687.184-1.197-4.469.663-.178.187.698.059-.015c.044-.255.154-.48.33-.675.176-.197.433-.341.77-.431.303-.081.584-.09.845-.027.259.062.486.201.679.417.193.214.34.512.442.892l.761 2.84-.687.184-.748-2.793c-.095-.351-.259-.601-.494-.748-.235-.149-.512-.181-.83-.095a1.228 1.228 0 0 0-.55.3 1.056 1.056 0 0 0-.293.524c-.05.209-.04.444.03.703Zm5.619-3.414.156.582-2.409.646-.156-.582 2.409-.646Zm-.49 4.922-1.363-5.087a1.13 1.13 0 0 1 .009-.688c.075-.203.197-.373.366-.51.169-.137.36-.234.574-.291.168-.045.31-.068.424-.07.114-.001.2.003.259.012l-.039.647a2.796 2.796 0 0 0-.157-.005.911.911 0 0 0-.246.038c-.227.061-.376.162-.446.303-.068.141-.073.322-.013.543l1.319 4.924-.687.184Zm1.453-5.18.686-.184 1.285 4.795c.074.276.09.527.049.754a1.061 1.061 0 0 1-.299.583c-.158.161-.381.28-.668.357a6.991 6.991 0 0 0-.07.018l-.07.019-.171-.64.064-.017.064-.017c.209-.057.346-.16.409-.31.065-.148.066-.336.006-.563l-1.285-4.795Zm.138-.835a.506.506 0 0 1-.383-.044.454.454 0 0 1-.231-.291.459.459 0 0 1 .054-.367.507.507 0 0 1 .31-.229.497.497 0 0 1 .38.044.457.457 0 0 1 .176.658.494.494 0 0 1-.306.229Zm.988-1.063.826-.222 2.398 2.339.07-.019.908-3.224.826-.222-1.215 4.081.658 2.456-.721.193-.658-2.456-3.092-2.926Zm8.64 4.071-3.226-5.522.733-.197 2.546 4.52.059-.015-.032-5.194.814-.218 2.57 4.513.058-.015-.055-5.187.733-.197-.033 6.396-.745.2-2.587-4.397-.047.013-.043 5.101-.745.199Zm9.685-.798-.633-2.363-.058.016a4.663 4.663 0 0 1-.133.366c-.06.147-.164.292-.31.435-.148.142-.365.251-.652.328-.372.1-.726.094-1.062-.018a1.974 1.974 0 0 1-.884-.624c-.254-.304-.445-.693-.572-1.166-.125-.469-.154-.898-.086-1.287.069-.388.222-.715.458-.98.237-.265.543-.448.92-.549.291-.078.534-.091.728-.039.197.049.356.123.478.221.123.096.22.176.292.24l.081-.022-.19-.71.663-.178 1.647 6.146-.687.184Zm-1.858-1.86c.275-.074.489-.208.641-.402.151-.197.242-.436.272-.719a2.58 2.58 0 0 0-.091-.933 2.509 2.509 0 0 0-.38-.837 1.32 1.32 0 0 0-.588-.472 1.183 1.183 0 0 0-.761-.024c-.291.078-.514.218-.668.419a1.393 1.393 0 0 0-.272.718c-.028.278.001.574.085.888.085.318.211.594.378.828.168.232.368.399.602.5.234.1.495.111.782.034Zm5.272-.764c-.4.107-.772.131-1.116.071a1.788 1.788 0 0 1-.871-.399 1.531 1.531 0 0 1-.484-.794 1.627 1.627 0 0 1 .23-1.387c.137-.193.31-.337.516-.434l-.009-.035a1.193 1.193 0 0 1-.809-.298 1.503 1.503 0 0 1-.478-.78 1.49 1.49 0 0 1 .013-.873 1.67 1.67 0 0 1 .489-.736 2.12 2.12 0 0 1 .878-.457c.346-.093.673-.106.981-.041.308.065.572.196.791.393.221.196.373.445.457.747a1.53 1.53 0 0 1-.033.917 1.187 1.187 0 0 1-.543.66l.009.035a1.27 1.27 0 0 1 .656.12 1.677 1.677 0 0 1 .902 1.084c.084.323.074.633-.031.932a1.798 1.798 0 0 1-.555.781 2.526 2.526 0 0 1-.993.494Zm-.172-.64c.27-.072.491-.178.663-.318.173-.14.291-.304.355-.491a1.114 1.114 0 0 0-.321-1.152 1.223 1.223 0 0 0-.577-.282 1.51 1.51 0 0 0-.712.032 1.57 1.57 0 0 0-.641.33c-.172.152-.292.33-.36.533a1.092 1.092 0 0 0-.006.641c.055.214.157.387.304.518.149.13.335.212.556.247.221.034.468.015.739-.058Zm-.758-2.828a1.27 1.27 0 0 0 .533-.28 1.009 1.009 0 0 0 .299-1.041 1.028 1.028 0 0 0-.284-.488.96.96 0 0 0-.481-.246 1.315 1.315 0 0 0-.609.029c-.223.06-.407.154-.552.282a.934.934 0 0 0-.293.453 1.01 1.01 0 0 0 .007.563c.053.206.147.373.281.501.136.128.299.212.489.253.19.041.393.032.61-.026Z" fill="#C4C8CF"/><rect x="279.105" y="303.153" width="208.539" height="45.242" rx="8.483" transform="rotate(-15 279.105 303.153)" fill="#2391E7"/><path d="m450.503 257.229 21.85-5.855a8.484 8.484 0 0 1 10.39 5.999l7.318 27.313a8.483 8.483 0 0 1-5.998 10.389l-21.85 5.855-11.71-43.701Z" fill="#0D7ED6"/><g clip-path="url(#r)"><path d="m464.845 275.131 6.146-1.647-.714-2.663c-.073-.273.064-.31.305-.228 1.709.64 5.9 2.078 6.556 2.342.396.113.542.659.274 1.024-.436.556-3.328 3.966-4.506 5.306-.237.209-.305.228-.378-.045l-.677-2.527-6.146 1.647" stroke="#fff" stroke-width="1.414" stroke-linecap="round" stroke-linejoin="round"/></g><path d="m295.735 317.827 1.461-6.984-.014-.054-3.585.96-.2-.747 4.454-1.193.211.787-1.444 6.995-.883.236Zm7.388-1.877c-.512.137-.985.114-1.419-.068-.435-.184-.819-.516-1.151-.997-.334-.484-.602-1.103-.804-1.859-.201-.751-.278-1.418-.231-2.001.05-.586.217-1.067.501-1.444.286-.38.683-.638 1.19-.774.507-.136.978-.11 1.414.076.437.184.822.517 1.156 1 .335.481.603 1.096.804 1.848.203.756.28 1.426.233 2.011-.047.583-.213 1.063-.498 1.44-.285.375-.684.631-1.195.768Zm-.2-.747c.507-.136.835-.486.985-1.05.149-.564.103-1.299-.14-2.204-.161-.602-.363-1.097-.605-1.486-.24-.389-.51-.663-.809-.82a1.262 1.262 0 0 0-.948-.103c-.503.135-.829.488-.979 1.059-.151.57-.105 1.306.137 2.209.161.602.361 1.096.601 1.483.239.387.507.659.804.814.299.156.617.188.954.098Zm6.175-.854c-.512.137-.985.114-1.419-.068-.435-.184-.819-.516-1.152-.997-.333-.483-.601-1.103-.803-1.859-.202-.751-.279-1.418-.231-2.001.049-.586.216-1.067.501-1.444.286-.38.683-.638 1.19-.774.507-.136.978-.11 1.414.076.437.184.822.517 1.155 1 .335.481.603 1.096.805 1.848.202.756.28 1.426.233 2.011-.048.583-.214 1.063-.498 1.44-.286.375-.684.631-1.195.768Zm-.201-.747c.507-.136.836-.486.985-1.05.15-.564.104-1.299-.139-2.204-.161-.602-.363-1.097-.606-1.486-.24-.389-.509-.662-.809-.82a1.26 1.26 0 0 0-.948-.103c-.502.135-.828.488-.979 1.06-.15.569-.105 1.305.137 2.208.162.602.362 1.096.602 1.483.239.387.507.659.804.815.298.155.616.187.953.097Zm4.251-.382a.611.611 0 0 1-.479-.065.608.608 0 0 1-.295-.383.607.607 0 0 1 .064-.479.607.607 0 0 1 .383-.295.607.607 0 0 1 .479.064.61.61 0 0 1 .296.383.658.658 0 0 1-.164.611.603.603 0 0 1-.284.164Zm2.281-8.223c.285-.074.585-.096.899-.066.313.03.621.136.923.32.3.181.579.465.835.85.256.385.469.896.64 1.534.166.618.254 1.183.265 1.694.012.509-.047.956-.179 1.343a2.295 2.295 0 0 1-.594.96 2.236 2.236 0 0 1-.984.537 2.37 2.37 0 0 1-1.104.048 2.122 2.122 0 0 1-.921-.448 2.346 2.346 0 0 1-.629-.869l.828-.222c.161.3.379.523.657.672.279.146.602.17.969.072.536-.144.897-.492 1.081-1.043.187-.552.166-1.256-.064-2.112l-.054.015a2.22 2.22 0 0 1-.319.613 2.089 2.089 0 0 1-1.144.769 2.184 2.184 0 0 1-1.176-.002 2.313 2.313 0 0 1-1.014-.605 2.475 2.475 0 0 1-.615-1.116 2.514 2.514 0 0 1-.028-1.244c.097-.407.291-.762.581-1.065.292-.304.674-.516 1.147-.635Zm.2.747a1.47 1.47 0 0 0-.713.42 1.586 1.586 0 0 0-.387.715c-.068.273-.063.554.015.844a1.7 1.7 0 0 0 .402.74c.192.201.417.342.677.422.261.078.534.079.819.003.215-.058.404-.153.567-.287.163-.136.293-.295.392-.48.1-.186.165-.384.194-.594.028-.211.015-.42-.041-.625a1.605 1.605 0 0 0-.401-.712 1.621 1.621 0 0 0-.691-.433 1.438 1.438 0 0 0-.833-.013Zm7.733 4.783c-.511.137-.984.114-1.419-.068-.435-.184-.819-.517-1.151-.998-.333-.483-.601-1.102-.804-1.858-.201-.751-.278-1.419-.23-2.001.049-.586.216-1.067.501-1.444.286-.38.682-.638 1.189-.774s.979-.11 1.414.076c.438.184.823.517 1.156 1 .335.48.603 1.096.804 1.848.203.756.281 1.426.234 2.011-.048.583-.214 1.063-.499 1.44-.285.375-.683.63-1.195.768Zm-.2-.747c.507-.136.835-.486.985-1.05.15-.564.103-1.299-.139-2.204-.162-.602-.364-1.097-.606-1.486-.24-.389-.51-.663-.809-.82a1.26 1.26 0 0 0-.948-.103c-.503.135-.829.488-.979 1.059-.151.57-.105 1.306.137 2.209.161.602.362 1.096.601 1.483.24.387.508.658.804.814.299.156.617.188.954.098Zm6.256-.876c-.448.12-.868.15-1.26.09-.39-.06-.724-.2-1.003-.419a1.785 1.785 0 0 1-.591-.871l.856-.23c.078.22.207.393.386.519.179.124.39.201.633.231.244.029.499.008.766-.063.298-.08.549-.203.752-.369.203-.166.345-.36.427-.581.081-.22.09-.453.024-.697a1.257 1.257 0 0 0-.371-.625 1.3 1.3 0 0 0-.681-.312c-.274-.046-.587-.021-.94.073l-.557.15-.2-.747.557-.149c.276-.074.504-.189.686-.344.184-.156.31-.341.379-.553.072-.213.075-.442.009-.687a1.22 1.22 0 0 0-.32-.572 1.1 1.1 0 0 0-.551-.289 1.47 1.47 0 0 0-.704.032c-.24.064-.455.169-.644.314a1.315 1.315 0 0 0-.415.515c-.09.199-.109.415-.059.649l-.815.218a1.717 1.717 0 0 1 .073-1.045c.132-.331.344-.619.635-.862a2.708 2.708 0 0 1 1.042-.526c.43-.115.822-.127 1.176-.035.354.089.652.253.893.492s.405.522.493.85c.105.392.092.753-.04 1.084-.13.331-.356.597-.678.797l.014.054c.459-.045.852.05 1.179.285.327.233.549.569.667 1.011.102.378.09.745-.036 1.101a2.172 2.172 0 0 1-.646.93 2.82 2.82 0 0 1-1.136.581Zm3.713-1.097-.164-.611 1.622-3.127c.19-.366.343-.681.459-.945.116-.267.19-.507.222-.722a1.542 1.542 0 0 0-.035-.645 1.16 1.16 0 0 0-.933-.875 1.604 1.604 0 0 0-.718.036c-.267.072-.485.19-.655.354a1.19 1.19 0 0 0-.335.581 1.48 1.48 0 0 0 .026.735l-.801.215a2.093 2.093 0 0 1-.006-1.148c.105-.358.297-.667.574-.926.28-.259.623-.443 1.028-.551.407-.11.791-.12 1.152-.033.36.088.669.254.926.498s.434.545.53.903c.068.255.089.518.061.787-.025.266-.111.579-.257.939-.145.356-.359.802-.643 1.336l-1.114 2.089.015.054 3.231-.866.2.747-4.385 1.175Zm8.162-2.085c-.448.12-.868.15-1.26.09a2.12 2.12 0 0 1-1.004-.419 1.79 1.79 0 0 1-.59-.871l.856-.229c.078.219.207.392.386.518.179.125.39.201.633.231.243.029.498.008.765-.063.299-.08.55-.203.753-.369.203-.166.345-.36.427-.58.081-.221.089-.454.024-.698a1.257 1.257 0 0 0-.371-.625 1.303 1.303 0 0 0-.681-.312c-.274-.046-.588-.021-.941.074l-.556.149-.2-.747.556-.149c.276-.074.505-.189.687-.344.184-.156.31-.341.379-.553.072-.213.075-.442.009-.687a1.213 1.213 0 0 0-.321-.572 1.094 1.094 0 0 0-.55-.289 1.487 1.487 0 0 0-.705.032c-.24.064-.454.169-.643.314a1.306 1.306 0 0 0-.415.515c-.09.199-.11.415-.059.649l-.815.219a1.713 1.713 0 0 1 .073-1.046 2.15 2.15 0 0 1 .635-.861c.294-.244.641-.42 1.041-.527.43-.115.823-.127 1.177-.035.354.09.652.254.893.492.241.239.405.522.493.85.105.392.091.753-.041 1.085-.129.33-.355.596-.678.796l.015.055c.458-.046.851.049 1.179.284.326.233.549.57.667 1.011.101.378.089.745-.036 1.101a2.18 2.18 0 0 1-.646.93c-.307.267-.685.46-1.136.581Zm6.005-1.609c-.511.137-.984.114-1.418-.068-.435-.184-.819-.516-1.152-.997-.333-.483-.601-1.103-.804-1.859-.201-.751-.278-1.418-.23-2.001.049-.586.216-1.067.501-1.444.286-.38.683-.638 1.19-.774.507-.136.978-.11 1.413.076.438.184.823.517 1.156 1 .335.481.603 1.097.805 1.848.202.756.28 1.426.233 2.011-.048.583-.214 1.063-.499 1.44-.285.375-.683.631-1.195.768Zm-.2-.747c.507-.136.836-.486.985-1.05.15-.564.103-1.298-.139-2.204-.162-.602-.363-1.097-.606-1.486-.24-.389-.51-.662-.809-.82a1.256 1.256 0 0 0-.948-.102c-.502.134-.829.487-.979 1.059-.15.569-.105 1.305.137 2.208.161.602.362 1.096.601 1.483.24.387.508.659.804.815.299.155.617.187.954.097Zm6.978-1.171-.883.236.69-7.636.869-.233 4.416 6.268-.883.237-3.645-5.296-.055.015-.509 6.409Zm-.402-2.803 3.558-.953.2.746-3.558.954-.2-.747Zm6.577 1.148-1.863-6.952 2.349-.63c.543-.145 1.014-.172 1.412-.08.398.09.724.274.977.55.254.277.435.62.545 1.029.11.41.124.796.041 1.157-.083.362-.273.68-.571.954-.298.271-.716.479-1.255.623l-1.901.51-.204-.761 1.874-.502c.371-.099.655-.233.853-.403.199-.17.323-.368.372-.594.05-.23.037-.483-.037-.762a1.68 1.68 0 0 0-.352-.688 1.104 1.104 0 0 0-.628-.348c-.26-.054-.577-.031-.953.07l-1.48.396 1.663 6.206-.842.225Zm2.436-4 2.547 2.665-.977.262-2.521-2.672.951-.255Zm3.679 2.362-1.863-6.953.842-.225.924 3.449.081-.022 2.199-4.286 1.1-.294-2.079 3.919 3.942 3.033-1.018.273-3.283-2.584-.607 1.21.604 2.254-.842.226Z" fill="#fff"/><path d="M301.356 332.634a2.119 2.119 0 0 1-.977.044 1.78 1.78 0 0 1-.808-.383 1.579 1.579 0 0 1-.487-.736l.698-.187c.1.262.282.452.546.571.266.116.552.133.856.051a1.257 1.257 0 0 0 .931-.938c.056-.232.05-.474-.018-.729a1.436 1.436 0 0 0-.358-.649 1.292 1.292 0 0 0-.596-.361 1.355 1.355 0 0 0-.726.001 1.926 1.926 0 0 0-.539.235 1.646 1.646 0 0 0-.416.345l-.697.1-.425-3.03 3.096-.83.172.64-2.491.668.262 1.814.034-.01a1.819 1.819 0 0 1 .946-.615 1.893 1.893 0 0 1 1.045.001c.333.095.622.272.865.529.246.256.42.578.524.964.101.38.107.742.016 1.087a1.938 1.938 0 0 1-.509.891c-.251.25-.566.426-.944.527Zm3.694-1.95.038.327c.026.23.039.48.039.75a18.567 18.567 0 0 1-.051 1.348l-.523.141-.033-.519a19.523 19.523 0 0 0-.162-1.512l-.053-.336.745-.199Zm1.702-6.057a2.19 2.19 0 0 1 .77-.057c.269.026.533.117.791.275.258.155.497.398.716.728.22.33.403.768.549 1.315.142.53.218 1.014.227 1.452.011.436-.04.82-.153 1.151a1.986 1.986 0 0 1-.509.823c-.227.217-.508.37-.844.46a2.028 2.028 0 0 1-.946.041 1.81 1.81 0 0 1-.789-.384 2 2 0 0 1-.54-.744l.71-.19c.138.256.325.448.563.575.24.125.516.146.831.062.459-.124.768-.421.926-.894.161-.474.142-1.077-.054-1.81l-.047.012a1.881 1.881 0 0 1-.274.526 1.765 1.765 0 0 1-.98.659 1.885 1.885 0 0 1-1.008-.001 1.996 1.996 0 0 1-.869-.519 2.13 2.13 0 0 1-.527-.957 2.144 2.144 0 0 1-.024-1.066 1.95 1.95 0 0 1 .498-.913c.25-.261.578-.442.983-.544Zm.171.64a1.259 1.259 0 0 0-.611.36 1.37 1.37 0 0 0-.332.613c-.058.234-.053.475.013.723.067.248.182.46.345.635.164.172.358.292.58.362.224.067.458.067.702.002a1.296 1.296 0 0 0 .822-.657c.086-.16.142-.33.166-.509a1.371 1.371 0 0 0-.378-1.146 1.392 1.392 0 0 0-.593-.372 1.229 1.229 0 0 0-.714-.011Zm6.629 4.099c-.438.118-.844.099-1.216-.057-.373-.158-.702-.443-.987-.856-.286-.414-.515-.945-.689-1.593-.173-.644-.238-1.215-.198-1.715.043-.502.186-.915.43-1.238.245-.325.585-.546 1.02-.663.434-.116.838-.095 1.211.065.375.158.705.443.991.858.287.411.517.939.689 1.583.174.648.241 1.223.2 1.724-.04.5-.183.911-.427 1.234-.244.322-.586.541-1.024.658Zm-.172-.64c.435-.116.716-.416.845-.9.128-.483.088-1.113-.12-1.889-.138-.516-.311-.94-.519-1.273-.206-.334-.437-.568-.693-.703a1.076 1.076 0 0 0-.813-.088c-.431.115-.71.418-.839.907-.129.488-.09 1.119.117 1.893.139.516.31.94.516 1.272.205.332.435.564.689.698.256.133.528.161.817.083Zm3.826-6.813 1.597 5.959-.722.193-1.394-5.202-.035.009-1.196 1.356-.196-.733 1.224-1.389.722-.193Zm3.483 5.504a.52.52 0 0 1-.411-.056.519.519 0 0 1-.253-.328.522.522 0 0 1 .055-.411.525.525 0 0 1 .328-.253.525.525 0 0 1 .411.055.52.52 0 0 1 .253.328.558.558 0 0 1-.14.525.519.519 0 0 1-.243.14Zm1.954-7.048c.245-.064.502-.083.771-.057.269.025.533.117.791.274.258.156.497.399.716.729.219.33.402.768.549 1.315.142.53.217 1.014.227 1.452.01.436-.041.819-.153 1.151a1.977 1.977 0 0 1-.51.823c-.226.216-.508.37-.843.46a2.032 2.032 0 0 1-.947.041 1.82 1.82 0 0 1-.789-.384 2.016 2.016 0 0 1-.539-.744l.71-.191c.137.257.325.449.563.576.239.125.516.146.83.062.46-.124.769-.422.927-.894.16-.474.142-1.077-.054-1.81l-.047.012a1.881 1.881 0 0 1-.274.526 1.783 1.783 0 0 1-.98.659 1.875 1.875 0 0 1-1.008-.002 1.979 1.979 0 0 1-.869-.518 2.123 2.123 0 0 1-.528-.957 2.155 2.155 0 0 1-.023-1.066c.083-.349.249-.653.497-.913.251-.261.578-.442.983-.544Zm.172.64a1.259 1.259 0 0 0-.611.36 1.36 1.36 0 0 0-.332.613 1.42 1.42 0 0 0 .013.723c.066.248.181.46.344.634.165.172.359.293.581.363.224.066.458.067.702.002a1.3 1.3 0 0 0 .822-.657c.086-.161.141-.33.166-.509a1.383 1.383 0 0 0-.379-1.146 1.389 1.389 0 0 0-.592-.372 1.23 1.23 0 0 0-.714-.011Zm6.547 4.121a2.117 2.117 0 0 1-.977.043 1.77 1.77 0 0 1-.807-.382 1.571 1.571 0 0 1-.487-.736l.698-.188a.986.986 0 0 0 .546.571c.266.116.551.133.856.052.244-.066.446-.181.605-.346.162-.166.27-.364.325-.593a1.443 1.443 0 0 0-.017-.728 1.446 1.446 0 0 0-.358-.649 1.308 1.308 0 0 0-1.322-.36 1.914 1.914 0 0 0-.539.235 1.588 1.588 0 0 0-.416.345l-.697.099-.425-3.029 3.096-.83.171.64-2.49.668.261 1.813.035-.009a1.805 1.805 0 0 1 .945-.615 1.893 1.893 0 0 1 1.911.53c.245.256.42.577.523.963.102.381.107.743.017 1.087a1.939 1.939 0 0 1-.51.892c-.251.25-.566.426-.944.527Zm7.824-8.571.722-.193 1.057 3.945c.109.408.111.797.005 1.169a2.093 2.093 0 0 1-.604.969c-.299.276-.682.476-1.149.601-.468.126-.9.144-1.296.054a2.111 2.111 0 0 1-1.011-.537 2.173 2.173 0 0 1-.577-1.014l-1.057-3.946.721-.193 1.042 3.887c.078.291.211.533.4.726.189.19.418.319.69.385.273.065.575.052.907-.037.332-.089.6-.229.804-.421.204-.194.338-.42.404-.679a1.609 1.609 0 0 0-.016-.828l-1.042-3.888Zm5.821.037a.949.949 0 0 0-.609-.573c-.292-.096-.618-.096-.979.001a1.79 1.79 0 0 0-.658.313 1.143 1.143 0 0 0-.365.476.868.868 0 0 0-.027.552c.043.16.117.286.224.38.107.092.231.16.372.203.14.042.282.069.427.082.145.011.276.017.394.016l.649.001a5.4 5.4 0 0 1 .564.03c.211.02.42.069.628.146.21.075.397.193.563.355.166.161.286.381.361.661.086.322.08.635-.019.941a1.787 1.787 0 0 1-.567.816c-.279.239-.648.42-1.106.542-.426.115-.814.145-1.163.091a1.825 1.825 0 0 1-.888-.38 1.7 1.7 0 0 1-.53-.778l.745-.2c.08.22.205.386.377.498.173.11.37.173.593.191.225.014.455-.01.692-.073.275-.074.511-.185.706-.333a1.31 1.31 0 0 0 .419-.518.926.926 0 0 0 .04-.622.72.72 0 0 0-.296-.438 1.244 1.244 0 0 0-.517-.186 4.775 4.775 0 0 0-.64-.047l-.789-.013c-.501-.009-.921-.101-1.259-.277-.338-.175-.561-.464-.669-.866a1.497 1.497 0 0 1 .037-.945c.115-.299.308-.559.577-.778.271-.223.597-.385.977-.487a2.517 2.517 0 0 1 1.08-.068c.335.056.621.179.859.369.24.189.405.433.496.731l-.699.187Zm5.003 3.45-1.839.493-1.597-5.959 1.921-.515c.578-.155 1.104-.168 1.58-.04.474.127.881.383 1.219.768.338.384.589.884.754 1.501.167.621.199 1.185.098 1.692a2.441 2.441 0 0 1-.69 1.289c-.359.352-.841.609-1.446.771Zm-1.289-.341 1.071-.287c.493-.132.876-.336 1.149-.613a1.82 1.82 0 0 0 .507-1.006c.065-.394.032-.833-.098-1.318-.129-.481-.318-.874-.568-1.179a1.808 1.808 0 0 0-.92-.615c-.363-.104-.777-.094-1.242.031l-1.153.308 1.254 4.679Z" fill="#171F34"/><defs><clipPath id="a"><path fill="#fff" transform="translate(124)" d="M0 0h487v332H0z"/></clipPath><clipPath id="b"><rect x="124" y="70.139" width="271" height="869.368" rx="12" transform="rotate(-15 124 70.14)" fill="#fff"/></clipPath><clipPath id="c"><path fill="#fff" transform="rotate(-15 432.694 -1181.147)" d="M0 0h58.536v14.453H0z"/></clipPath><clipPath id="d"><path fill="#fff" transform="rotate(-15 432.694 -1181.147)" d="M0 0h14.453v14.453H0z"/></clipPath><clipPath id="e"><path fill="#fff" transform="rotate(165 190.78 132.273)" d="M0 0h7.227v7.227H0z"/></clipPath><clipPath id="f"><path fill="#fff" transform="rotate(-15 360.153 -541.583)" d="M0 0h16.818v16.818H0z"/></clipPath><clipPath id="g"><path fill="#fff" transform="rotate(-15 305.71 -982.939)" d="M0 0h65.04v14.453H0z"/></clipPath><clipPath id="h"><path fill="#fff" transform="rotate(-15 286.559 -1128.401)" d="M0 0h14.453v14.453H0z"/></clipPath><clipPath id="i"><path fill="#fff" transform="rotate(-15 248.05 -1293.656)" d="M0 0h23.125v23.125H0z"/></clipPath><clipPath id="j"><path fill="#fff" transform="rotate(-15 248.05 -1293.656)" d="M0 0h23.095v23.125H0z"/></clipPath><clipPath id="k"><path fill="#fff" transform="rotate(-15 248.055 -1293.656)" d="M0 0h23.095v23.095H0z"/></clipPath><clipPath id="l"><path fill="#fff" transform="rotate(-15 248.055 -1293.656)" d="M0 0h23.095v23.095H0z"/></clipPath><clipPath id="n"><path fill="#fff" transform="rotate(-15 1124.274 -929.253)" d="M0 0h31.104v31.104H0z"/></clipPath><clipPath id="o"><path fill="#fff" transform="rotate(-15 1124.271 -929.234)" d="M0 0h31.104v31.104H0z"/></clipPath><clipPath id="p"><path fill="#fff" transform="rotate(-15 1124.271 -929.234)" d="M0 0h31.104v31.104H0z"/></clipPath><clipPath id="r"><path fill="#fff" transform="rotate(-15 1257.027 -1622.538)" d="M0 0h14.138v14.138H0z"/></clipPath></defs></svg>