<?xml version="1.0" encoding="utf-8"?>
<!-- Generator: Adobe Illustrator 25.2.3, SVG Export Plug-In . SVG Version: 6.00 Build 0)  -->
<svg version="1.1" id="Слой_1" xmlns="http://www.w3.org/2000/svg" xmlns:xlink="http://www.w3.org/1999/xlink" x="0px" y="0px"
	 viewBox="0 0 20 20" style="enable-background:new 0 0 20 20;" xml:space="preserve">
<style type="text/css">
	.st0{fill:none;stroke:currentColor;stroke-width:2;stroke-linecap:round;}
</style>
<g id="Blockchain_Registration" transform="translate(702.48 211)">
	<path id="Фигура_612_копия" class="st0" d="M-697.7-207.2c0,0,4.3-2.5,4.7-2.7c0.4-0.2,0.8-0.2,1.2,0
		c0.3,0.2,6.7,3.7,7.1,4c0.3,0.2,0.4,0.5,0.4,0.9v7.8c-0.1,0.4-0.3,0.7-0.6,1c0,0-6.8,4-7,4.1c-0.3,0.1-0.6,0.2-1,0.1
		c-0.2-0.1-6.3-3.7-7.4-4.3c-0.2-0.3-0.4-0.6-0.4-1v-7.4c0-0.3,0.3-0.5,0.5-0.5c0.1,0,0.1,0,0.2,0c1.5,0.8,6.1,3.4,7.2,4.1
		c0.2,0.1,0.2,0.3,0.2,0.6v4.4"/>
</g>
</svg>
