<?xml version="1.0" encoding="utf-8"?>
<!-- Generator: Adobe Illustrator 25.2.3, SVG Export Plug-In . SVG Version: 6.00 Build 0)  -->
<svg version="1.1" id="Слой_1" xmlns="http://www.w3.org/2000/svg" xmlns:xlink="http://www.w3.org/1999/xlink" x="0px" y="0px"
	 viewBox="0 0 20 20" style="enable-background:new 0 0 20 20;" xml:space="preserve">
<style type="text/css">
	.st0{fill:none;stroke:currentColor;stroke-width:2;stroke-linecap:round;}
	.st1{fill:none;stroke:currentColor;stroke-width:2;}
	.st2{fill:none;stroke:currentColor;stroke-width:2;stroke-linecap:round;stroke-miterlimit:4.0006;}
</style>
<g id="Business_Registration" transform="translate(297 72.957)">
	<path id="Фигура_1006_копия" class="st0" d="M-283-69.8c0,0,2.1,1.2,3.3,2c1.3,0.8,0.9,2.3-0.5,2.3h-5.7l-2.3,0
		c0,0-3.9,0-5.5,0c-1.5,0-1.9-1.5-0.7-2.3c1.2-0.8,3.2-2,3.2-2"/>
	<g id="Forma_1_копия" transform="translate(-15.074 -0.957)">
		<path class="st1" d="M-273.8-68.4v0.5c0,0.2,0.1,0.3,0.3,0.4l1.5,0.6c0.1,0,0.2,0,0.3,0l1.5-0.6c0.2-0.1,0.3-0.2,0.3-0.4v-2.7
			c0-0.2-0.2-0.4-0.4-0.4h-2.9c-0.1,0-0.3,0.1-0.4,0.2c-0.1,0.1-0.1,0.2-0.1,0.3V-68.4z"/>
	</g>
	<path id="Прямоугольник_скругл._углы_780" class="st0" d="M-293.7-56.8h-0.4c-0.8-0.1-1.5,0.5-1.6,1.3
		s0.5,1.5,1.3,1.6c0.1,0,0.2,0,0.3,0h14.3c0.8,0,1.5-0.6,1.5-1.4c0-0.8-0.6-1.5-1.4-1.5c0,0-0.1,0-0.1,0c0,0-7.1,0-11.3,0
		c-0.9,0-1-1-0.4-1.2"/>
	<line id="Фигура_1008" class="st0" x1="-293.5" y1="-65" x2="-293.5" y2="-60.9"/>
	<line id="Фигура_1008_копия_2" class="st0" x1="-288.6" y1="-65" x2="-288.6" y2="-62.5"/>
	<line id="Фигура_1008_копия_3" class="st0" x1="-282.9" y1="-65" x2="-282.9" y2="-64.1"/>
	<path id="Фигура_1006" class="st0" d="M-280.4-61.8c0,0-4.8,2.7-5.3,2.9c-0.5,0.3-0.9,0.3-1.2-0.1c-0.3-0.5-0.2-0.3-0.4-0.6
		c-0.2-0.3-0.7-0.4-1-0.2l-3.1,1.7"/>
	<path id="Фигура_1007" class="st2" d="M-281.9-62.4c0.5-0.1,1.3-0.1,1.6-0.1c0.3,0,0.4-0.1,0.3,0.4c-0.2,0.5-0.5,1-0.7,1.5"
		/>
</g>
</svg>
