<svg xmlns="http://www.w3.org/2000/svg" viewBox="0 0 20 20"><g fill="none" stroke="currentColor" stroke-width="2"><path stroke-linecap="round" d="M14 3.157s2.1 1.2 3.3 2c1.3.8.9 2.3-.5 2.3H3.3c-1.5 0-1.9-1.5-.7-2.3 1.2-.8 3.2-2 3.2-2"/><path d="M8.126 3.6v.5c0 .2.1.3.3.4l1.5.6h.3l1.5-.6c.2-.1.3-.2.3-.4V1.4c0-.2-.2-.4-.4-.4h-2.9c-.1 0-.3.1-.4.2-.1.1-.1.2-.1.3v2.1z"/><path stroke-linecap="round" d="M3.3 16.157h-.4c-.8-.1-1.5.5-1.6 1.3s.5 1.5 1.3 1.6h14.6c.8 0 1.5-.6 1.5-1.4 0-.8-.6-1.5-1.4-1.5H5.9c-.9 0-1-1-.4-1.2m-2-7v4.1m4.9-4.1v2.5m5.7-2.5v.9m2.5 2.3s-4.8 2.7-5.3 2.9c-.5.3-.9.3-1.2-.1-.3-.5-.2-.3-.4-.6s-.7-.4-1-.2l-3.1 1.7"/><path stroke-linecap="round" stroke-miterlimit="4.001" d="M15.1 10.557c.5-.1 1.3-.1 1.6-.1.3 0 .4-.1.3.4-.2.5-.5 1-.7 1.5"/></g></svg>