<?xml version="1.0" encoding="utf-8"?>
<!-- Generator: Adobe Illustrator 25.2.3, SVG Export Plug-In . SVG Version: 6.00 Build 0)  -->
<svg version="1.1" id="Слой_1" xmlns="http://www.w3.org/2000/svg" xmlns:xlink="http://www.w3.org/1999/xlink" x="0px" y="0px"
	 viewBox="0 0 20 20" style="enable-background:new 0 0 20 20;" xml:space="preserve">
<style type="text/css">
	.st0{fill:none;stroke:currentColor;stroke-width:2;stroke-linecap:round;stroke-linejoin:round;}
</style>
<g id="Delegate_Name" transform="translate(284.646 -2292.75)">
	<g id="Group_354" transform="translate(418.75 2614.75)">
		<g id="Regular_354" transform="translate(3 3)">
			<path id="Shape_1416" class="st0" d="M-688.8-312.3l-5.8,5.8l-2.9,0.5l0.5-2.9l5.8-5.8c0.6-0.6,1.6-0.6,2.3,0l0,0l0,0
				C-688.1-313.9-688.1-312.9-688.8-312.3L-688.8-312.3L-688.8-312.3z"/>
			<path id="Oval_511-4" class="st0" d="M-699-317.4c1.8,0,3.3-1.5,3.3-3.3s-1.5-3.3-3.3-3.3s-3.3,1.4-3.3,3.2l0,0
				C-702.2-318.9-700.8-317.4-699-317.4z"/>
			<path id="Shape_1393-3" class="st0" d="M-696.5-313.8c-0.7-0.4-1.5-0.5-2.5-0.5c-3,0-5.5,2.5-5.5,5.5"/>
		</g>
	</g>
</g>
</svg>
