<?xml version="1.0" encoding="utf-8"?>
<!-- Generator: Adobe Illustrator 25.2.3, SVG Export Plug-In . SVG Version: 6.00 Build 0)  -->
<svg version="1.1" id="Слой_1" xmlns="http://www.w3.org/2000/svg" xmlns:xlink="http://www.w3.org/1999/xlink" x="0px" y="0px"
	 viewBox="0 0 20 20" style="enable-background:new 0 0 20 20;" xml:space="preserve">
<style type="text/css">
	.st0{fill:none;stroke:currentColor;stroke-width:2;stroke-linecap:round;}
	.st1{fill:none;stroke:currentColor;stroke-width:2;stroke-linecap:round;stroke-linejoin:round;}
</style>
<g id="Delegate_Registration" transform="translate(497.061 104)">
	<g id="Сгруппировать_779">
		<line id="Фигура_525" class="st0" x1="-480.2" y1="-103" x2="-490.5" y2="-85"/>
		<path id="Oval_511" class="st1" d="M-490.2-97.1c1.4,0,2.7-1.1,2.7-2.7c0-1.5-1.2-2.7-2.7-2.7s-2.7,1.2-2.7,2.7l0,0
			C-492.9-98.3-491.8-97.1-490.2-97.1z"/>
		<path id="Shape_1393" class="st1" d="M-488.3-94.2c-0.6-0.3-1.2-0.5-1.9-0.5c-2.5,0-4.4,2-4.4,4.4"/>
	</g>
</g>
<path id="Oval_511_1_" class="st1" d="M15.1,18.4c1.4,0,2.7-1.1,2.7-2.7c0-1.5-1.2-2.7-2.7-2.7s-2.7,1.2-2.7,2.7l0,0
	C12.4,17.2,13.5,18.4,15.1,18.4z"/>
</svg>
