<svg version="1.1" id="Layer_1" xmlns="http://www.w3.org/2000/svg" x="0" y="0" viewBox="0 0 22.5 24.2" xml:space="preserve"><style>.delegate-name-st1{fill:none;stroke:currentColor;stroke-width:1.5;stroke-linecap:round;stroke-linejoin:round}</style><g id="Delegate_Name" transform="translate(-422.287 -2617)"><g id="Group_354" transform="translate(423.037 2617.75)"><g id="Regular_354"><path id="Shape_1416" d="M20.4 14.3l-7.6 7.6-3.8.8.8-3.8 7.6-7.6c.8-.8 2.2-.8 3 0 0 0 0 0 0 0h0c.8.8.8 2.2 0 3 0 0 0 0 0 0h0z" fill="none" stroke="#212225" stroke-width="1.5" stroke-linecap="round" stroke-linejoin="round"/><path id="Oval_511" class="delegate-name-st1" d="M7.1 8.7c2.4 0 4.3-1.9 4.3-4.3C11.4 1.9 9.5 0 7.1 0S2.8 1.9 2.8 4.3s1.9 4.4 4.3 4.4z"/><path id="Shape_1393" class="delegate-name-st1" d="M10.2 12.3c-1-.5-2.1-.7-3.2-.7-3.9 0-7.1 3.2-7.1 7.1"/></g></g></g></svg>