<svg version="1.1" id="Layer_1" xmlns="http://www.w3.org/2000/svg" x="0" y="0" viewBox="0 0 20.4 24.5" xml:space="preserve"><style>.delegate-registration-st0{fill:none;stroke:currentColor;stroke-width:2;stroke-linecap:round;stroke-linejoin:round}</style><g id="Delegate_Registration" transform="translate(.189 1.025)"><path id="Фигура_525" fill="none" stroke="currentColor" stroke-width="2" stroke-linecap="round" d="M18.6 0l-13 22.5"/><path id="Oval_511" class="delegate-registration-st0" d="M6 7.4c1.8 0 3.3-1.5 3.3-3.3S7.9.7 6 .7C4.2.7 2.7 2.2 2.7 4c0 1.9 1.5 3.4 3.3 3.4z"/><path id="Shape_1393" class="delegate-registration-st0" d="M8.5 11c-.8-.4-1.6-.6-2.4-.6-3 0-5.5 2.4-5.5 5.5"/><path id="Oval_511-2" class="delegate-registration-st0" d="M16.1 21.2c1.8 0 3.3-1.5 3.3-3.3s-1.5-3.3-3.3-3.3c-1.8 0-3.3 1.5-3.3 3.3 0 1.8 1.5 3.3 3.3 3.3z"/></g></svg>