<svg viewBox="0 0 20 20" fill="none" xmlns="http://www.w3.org/2000/svg"><path fill-rule="evenodd" clip-rule="evenodd" d="M10.085 8.343a.1.1 0 0 0-.145 0L1.174 17.54c-.083.087-.221-.02-.158-.122l8.911-14.37a.1.1 0 0 1 .17 0l8.845 14.367c.063.102-.075.209-.158.121l-8.699-9.193zm-3.98 7.196a.1.1 0 0 1-.078-.162l1.288-1.62a.1.1 0 0 1 .078-.037h5.142a.1.1 0 0 1 .079.038l1.287 1.619a.1.1 0 0 1-.078.162H6.105zm1.806-2.726a.1.1 0 0 1-.076-.165l2.069-2.429a.1.1 0 0 1 .152 0l2.041 2.43a.1.1 0 0 1-.076.164H7.91z" fill="var(--migration-icon-color-border, #5452CE)"/></svg>