<svg viewBox="0 0 44 44" fill="none" xmlns="http://www.w3.org/2000/svg">
<path d="M20.0055 1.52634C21.2397 0.824552 22.7603 0.824552 23.9945 1.52634L39.0055 10.062C40.2397 10.7638 41 12.0608 41 13.4643V30.5357C41 31.9392 40.2397 33.2362 39.0055 33.938L23.9945 42.4737C22.7603 43.1754 21.2397 43.1754 20.0055 42.4737L4.99448 33.938C3.76029 33.2362 3 31.9392 3 30.5357V13.4643C3 12.0608 3.76029 10.7638 4.99448 10.062L20.0055 1.52634Z" fill="#F5F5FF" stroke="#5452CE" stroke-width="2"/>
<path fill-rule="evenodd" clip-rule="evenodd" d="M22.2755 18.4989C22.1771 18.3918 22.0082 18.3915 21.9093 18.4982L12.4894 28.6739C12.2858 28.8938 11.9386 28.6329 12.0932 28.3761L21.8786 12.1265C21.9756 11.9654 22.2093 11.9658 22.3058 12.1272L32.0146 28.3678C32.1684 28.6252 31.8202 28.8849 31.6174 28.6642L22.2755 18.4989ZM17.5524 26.7162C17.35 26.7162 17.2321 26.4876 17.3495 26.3226L18.7674 24.3299C18.8142 24.2643 18.8898 24.2253 18.9704 24.2253H25.132C25.2126 24.2253 25.2883 24.2643 25.335 24.3299L26.753 26.3226C26.8703 26.4876 26.7524 26.7162 26.55 26.7162H17.5524ZM20.166 22.9798C19.9436 22.9798 19.8327 22.7107 19.9904 22.554L21.8932 20.6645C21.9908 20.5675 22.1485 20.5681 22.2455 20.6657L24.1218 22.5552C24.2778 22.7124 24.1665 22.9798 23.945 22.9798H20.166Z" fill="#5452CE"/>
</svg>
