<svg viewBox="0 0 44 44" fill="none" xmlns="http://www.w3.org/2000/svg"><path d="M20.006 1.526a4.042 4.042 0 013.988 0l15.011 8.536A3.918 3.918 0 0141 13.464v17.072c0 1.403-.76 2.7-1.995 3.402l-15.01 8.536a4.043 4.043 0 01-3.99 0l-15.01-8.536A3.918 3.918 0 013 30.536V13.464c0-1.403.76-2.7 1.994-3.402l15.012-8.536z" fill="var(--migration-icon-color-fill, #F5F5FF)" stroke="var(--migration-icon-color-border, #5452CE)" stroke-width="2"/><path fill-rule="evenodd" clip-rule="evenodd" d="M22.276 18.499a.25.25 0 00-.367 0l-9.42 10.175c-.203.22-.55-.041-.396-.298l9.786-16.25a.25.25 0 01.427.001l9.709 16.24c.153.258-.195.518-.398.297L22.276 18.5zm-4.724 8.217a.25.25 0 01-.203-.393l1.418-1.993a.25.25 0 01.203-.105h6.162a.25.25 0 01.203.105l1.418 1.993a.25.25 0 01-.203.393h-8.998zm2.614-3.736a.25.25 0 01-.176-.426l1.903-1.89a.25.25 0 01.352.002l1.877 1.89a.25.25 0 01-.177.424h-3.779z" fill="var(--migration-icon-color-border, #5452CE)"/></svg>