<svg xmlns="http://www.w3.org/2000/svg" viewBox="0 0 20 20"><g fill="none" stroke="currentColor" stroke-width="1.5" stroke-linecap="round" stroke-linejoin="round"><path d="M13.3 6.996l-2.4-2.4c.3-.1.5-.2.7-.4.6-.7.6-1.7-.1-2.3-.6-.6-1.6-.6-2.3 0-.2.2-.3.5-.4.7l-1.3-1.3c-.3-.3-.8-.3-1.2 0 0 0 0 0 0 0l-1.2 1.2c-.1.1-.1.2-.1.3 0 .1.1.2.2.3.8.5 1 1.5.5 2.2-.5.8-1.5 1-2.2.5l-.3-.3c-.1-.1-.1-.2-.2-.3-.1-.1-.2-.2-.3-.2-.1 0-.2 0-.3.1l-1.2 1.2c-.3.3-.3.8 0 1.2l5.7 5.8"/><path d="M16.2 11.796c-.6.7-1.8.8-2.5.1-.7-.6-.8-1.8-.1-2.5 0-.1.1-.1.1-.1.2-.2.4-.3.6-.4l.3-.3c0-.1 0-.3-.1-.4l-1.4-1.4c-.3-.3-.9-.3-1.3 0 0 0 0 0 0 0l-1.4 1.4c-.1-.3-.2-.6-.5-.8-.7-.7-1.8-.7-2.5 0s-.7 1.8 0 2.5c.2.2.5.4.8.5l-1.4 1.4c-.4.3-.4.9 0 1.3 0 0 0 0 0 0l1.3 1.3c.1.1.2.1.4.1.1 0 .3-.1.3-.2.5-.8 1.6-1.1 2.4-.5.8.5 1.1 1.6.5 2.4-.1.1-.2.2-.2.3-.1.1-.2.2-.3.2-.1.1-.2.2-.2.3 0 .1 0 .3.1.4l1.3 1.3c.4.3.9.3 1.3 0l5.1-5.1c.3-.3.4-.9 0-1.3l-1.4-1.4c-.1-.1-.3-.1-.4-.1-.1 0-.3.1-.3.3-.1.3-.3.5-.5.7z"/></g></svg>