<?xml version="1.0" encoding="utf-8"?>
<!-- Generator: Adobe Illustrator 25.2.3, SVG Export Plug-In . SVG Version: 6.00 Build 0)  -->
<svg version="1.1" id="Слой_1" xmlns="http://www.w3.org/2000/svg" xmlns:xlink="http://www.w3.org/1999/xlink" x="0px" y="0px"
	 viewBox="0 0 20 20" style="enable-background:new 0 0 20 20;" xml:space="preserve">
<style type="text/css">
	.st0{fill:none;stroke:currentColor;stroke-width:1.5;stroke-linecap:round;stroke-linejoin:round;}
</style>
<g id="Module_Registration" transform="translate(413 -64.404)">
	<path id="Shape_153" class="st0" d="M-399.7,71.4l-2.4-2.4c0.3-0.1,0.5-0.2,0.7-0.4c0.6-0.7,0.6-1.7-0.1-2.3
		c-0.6-0.6-1.6-0.6-2.3,0c-0.2,0.2-0.3,0.5-0.4,0.7l-1.3-1.3c-0.3-0.3-0.8-0.3-1.2,0c0,0,0,0,0,0l-1.2,1.2c-0.1,0.1-0.1,0.2-0.1,0.3
		c0,0.1,0.1,0.2,0.2,0.3c0.8,0.5,1,1.5,0.5,2.2c-0.5,0.8-1.5,1-2.2,0.5c-0.1-0.1-0.2-0.2-0.3-0.3c-0.1-0.1-0.1-0.2-0.2-0.3
		c-0.1-0.1-0.2-0.2-0.3-0.2c-0.1,0-0.2,0-0.3,0.1l-1.2,1.2c-0.3,0.3-0.3,0.8,0,1.2l5.7,5.8"/>
	<path id="Shape_153-2" class="st0" d="M-396.8,76.2c-0.6,0.7-1.8,0.8-2.5,0.1c-0.7-0.6-0.8-1.8-0.1-2.5c0-0.1,0.1-0.1,0.1-0.1
		c0.2-0.2,0.4-0.3,0.6-0.4c0.1-0.1,0.2-0.2,0.3-0.3c0-0.1,0-0.3-0.1-0.4l-1.4-1.4c-0.3-0.3-0.9-0.3-1.3,0c0,0,0,0,0,0l-1.4,1.4
		c-0.1-0.3-0.2-0.6-0.5-0.8c-0.7-0.7-1.8-0.7-2.5,0s-0.7,1.8,0,2.5c0.2,0.2,0.5,0.4,0.8,0.5l-1.4,1.4c-0.4,0.3-0.4,0.9,0,1.3
		c0,0,0,0,0,0l1.3,1.3c0.1,0.1,0.2,0.1,0.4,0.1c0.1,0,0.3-0.1,0.3-0.2c0.5-0.8,1.6-1.1,2.4-0.5c0.8,0.5,1.1,1.6,0.5,2.4
		c-0.1,0.1-0.2,0.2-0.2,0.3c-0.1,0.1-0.2,0.2-0.3,0.2c-0.1,0.1-0.2,0.2-0.2,0.3c0,0.1,0,0.3,0.1,0.4l1.3,1.3c0.4,0.3,0.9,0.3,1.3,0
		l5.1-5.1c0.3-0.3,0.4-0.9,0-1.3l-1.4-1.4c-0.1-0.1-0.3-0.1-0.4-0.1c-0.1,0-0.3,0.1-0.3,0.3C-396.4,75.8-396.6,76-396.8,76.2z"/>
</g>
</svg>
