<?xml version="1.0" encoding="utf-8"?>
<!-- Generator: Adobe Illustrator 25.2.3, SVG Export Plug-In . SVG Version: 6.00 Build 0)  -->
<svg version="1.1" id="Слой_1" xmlns="http://www.w3.org/2000/svg" xmlns:xlink="http://www.w3.org/1999/xlink" x="0px" y="0px"
	 viewBox="0 0 20 20" style="enable-background:new 0 0 20 20;" xml:space="preserve">
<style type="text/css">
	.st0{fill:none;stroke:currentColor;stroke-width:2;stroke-linecap:round;stroke-linejoin:round;}
	.st1{fill:none;stroke:currentColor;stroke-width:2;stroke-linejoin:round;}
	.st2{fill:none;stroke:currentColor;stroke-width:2;stroke-linecap:round;}
	.st3{fill:none;stroke:currentColor;stroke-width:2;}
	.st4{fill:none;stroke:currentColor;stroke-width:2;stroke-linecap:round;stroke-miterlimit:4.0005;}
	.st5{fill:none;stroke:currentColor;stroke-width:2.0003;stroke-miterlimit:4.0012;}
	.st6{fill:none;stroke:currentColor;stroke-width:2.0003;stroke-linecap:round;stroke-miterlimit:4.0012;}
	.st7{fill:none;stroke:currentColor;stroke-miterlimit:10;}
</style>
<g id="Multisig_Registration" transform="translate(29.25 -3392.75)">
	<g id="Сгруппировать_778">
		<path id="Shape_2059" class="st0" d="M-22.8,3406c-0.8-1.8-2.9-2.6-4.7-1.9c-0.2,0.1-0.5,0.2-0.7,0.4"/>
		<path id="Shape_2060" class="st0" d="M-15.7,3406c0.8-1.8,2.9-2.6,4.7-1.9c0.2,0.1,0.5,0.2,0.7,0.4"/>
		<path id="Shape_2061" class="st0" d="M-14.5,3408.5c-0.3-2.6-2.8-4.5-5.4-4.1c-2.2,0.3-3.8,2-4.1,4.1"/>
	</g>
	<g id="Сгруппировать_777">
		<path id="Oval_734" class="st0" d="M-26.1,3402.4c1.1,0,2.1-1,2.1-2.1c0-1.1-1-2.1-2.1-2.1c-1.1,0-2.1,1-2.1,2.1
			C-28.2,3401.4-27.3,3402.4-26.1,3402.4L-26.1,3402.4z"/>
		<path id="Oval_735" class="st0" d="M-12.4,3402.4c1.1,0,2.1-1,2.1-2.1c0-1.1-1-2.1-2.1-2.1s-2.1,1-2.1,2.1
			C-14.5,3401.4-13.5,3402.4-12.4,3402.4L-12.4,3402.4z"/>
		<path id="Oval_736" class="st0" d="M-19.2,3402.4c1.5,0,2.7-1.2,2.7-2.7s-1.2-2.7-2.7-2.7s-2.7,1.2-2.7,2.7l0,0
			C-22,3401.2-20.8,3402.4-19.2,3402.4z"/>
	</g>
</g>
</svg>
