<?xml version="1.0" encoding="utf-8"?>
<!-- Generator: Adobe Illustrator 25.2.3, SVG Export Plug-In . SVG Version: 6.00 Build 0)  -->
<svg version="1.1" id="Слой_1" xmlns="http://www.w3.org/2000/svg" xmlns:xlink="http://www.w3.org/1999/xlink" x="0px" y="0px"
	 viewBox="0 0 20 20" style="enable-background:new 0 0 20 20;" xml:space="preserve">
<style type="text/css">
	.st0{fill:none;stroke:currentColor;stroke-width:2;stroke-linecap:round;}
</style>
<g id="Plugin_Registration" transform="translate(339 -63)">
	<path id="Прямоугольник_скругл._углы_973" class="st0" d="M-326.9,70h5.9c0.6,0,1,0.4,1,1v9
		c0,0.6-0.4,1-1,1h-16c-0.6,0-1-0.4-1-1v-9c0-0.6,0.4-1,1-1h1.9"/>
	<path id="Прямоугольник_скругл._углы_971_копия" class="st0" d="M-327,70v-4.3c0-0.4,0.2-0.7,0.4-0.7
		h3.7c0.2,0,0.4,0.3,0.4,0.7v3.9"/>
	<path id="Прямоугольник_скругл._углы_971_копия_2" class="st0" d="M-335.1,69.9v-4.3
		c0-0.3,0.2-0.6,0.5-0.6h4.1c0.3,0,0.5,0.3,0.5,0.6V74"/>
	<path id="Контур_326" class="st0" d="M-332.6,74h7.8"/>
</g>
</svg>
