<?xml version="1.0" encoding="utf-8"?>
<!-- Generator: Adobe Illustrator 25.2.3, SVG Export Plug-In . SVG Version: 6.00 Build 0)  -->
<svg version="1.1" id="Слой_1" xmlns="http://www.w3.org/2000/svg" xmlns:xlink="http://www.w3.org/1999/xlink" x="0px" y="0px"
	 viewBox="0 0 20 20" style="enable-background:new 0 0 20 20;" xml:space="preserve">
<style type="text/css">
	.st0{fill:none;stroke:currentColor;stroke-width:2;stroke-linecap:round;stroke-linejoin:round;}
</style>
<g id="Interface-Essential_Time_time-clock-hand-1" transform="translate(-548.99 -2354.845)">
	<g id="Group_218">
		<g id="time-clock-hand-1">
			<path id="Shape_950" class="st0" d="M566.4,2364.1c0.3-2.2-0.5-4.3-2-5.9c-2.8-3-7.5-3.1-10.5-0.3c-3,2.8-3.1,7.5-0.3,10.5
				c1,1,2.2,1.8,3.6,2.1"/>
			<path id="Shape_951" class="st0" d="M558.3,2360v3.9l1.4,1"/>
			<path id="Rectangle-path_39" class="st0" d="M560.4,2369.8c0-0.6,0.5-1,1-1h4.1c0.6,0,1,0.5,1,1v3c0,0.6-0.5,1-1,1h-4.1
				c-0.6,0-1-0.5-1-1V2369.8z"/>
			<path id="Shape_568" class="st0" d="M563.4,2365.7L563.4,2365.7c-1.1,0-2,0.9-2,2l0,0v1h4.1v-1
				C565.4,2366.7,564.5,2365.7,563.4,2365.7L563.4,2365.7z"/>
		</g>
	</g>
</g>
</svg>
