<svg version="1.1" id="Layer_1" xmlns="http://www.w3.org/2000/svg" x="0" y="0" viewBox="0 0 21 23.1" xml:space="preserve"><style>.unknown-st0{stroke-linejoin:round}.unknown-st0,.unknown-st1{fill:none;stroke:currentColor;stroke-width:1.5;stroke-linecap:round}</style><g id="Unknown_transaction" transform="translate(-1.5)"><path id="Path_316" class="unknown-st0" d="M6 6.8c0-3.3 2.7-6 6-6s6 2.7 6 6"/><path id="Path_317" class="unknown-st0" d="M2.2 6.8h19.5s-1.5 3.8-9.8 3.8-9.7-3.8-9.7-3.8z"/><path id="Path_318" class="unknown-st1" d="M5.7 12l-2.2 4.9"/><path id="Path_324" class="unknown-st1" d="M18.3 12l2 4.6"/><path id="Path_323" class="unknown-st1" d="M10 16.2c0-.4.1-.7.3-1 .2-.3.4-.5.7-.6.3-.1.7-.2 1-.2.4 0 .7.1 1 .2.3.1.5.3.7.6.2.3.3.6.3.9 0 .2 0 .4-.1.6-.1.2-.2.4-.3.5-.1.2-.3.3-.5.4-.2.1-.3.2-.4.3-.1.1-.2.2-.2.4-.1.2-.1.4-.1.6V20"/></g></svg>