<?xml version="1.0" encoding="utf-8"?>
<!-- Generator: Adobe Illustrator 25.2.3, SVG Export Plug-In . SVG Version: 6.00 Build 0)  -->
<svg version="1.1" id="Слой_1" xmlns="http://www.w3.org/2000/svg" xmlns:xlink="http://www.w3.org/1999/xlink" x="0px" y="0px"
	 viewBox="0 0 20 20" style="enable-background:new 0 0 20 20;" xml:space="preserve">
<style type="text/css">
	.st0{fill:none;stroke:currentColor;stroke-width:2;stroke-linecap:round;stroke-linejoin:round;}
	.st1{fill:none;stroke:currentColor;stroke-width:2;stroke-linecap:round;}
</style>
<g id="Unknown_transaction_" transform="translate(477.25 322.25)">
	<path id="Shape_895" class="st0" d="M-467-303.6c0.1,0,0.2,0.1,0.2,0.2s-0.1,0.2-0.2,0.2s-0.2-0.1-0.2-0.2l0,0
		C-467.2-303.5-467.1-303.6-467-303.6"/>
	<path id="Shape_896" class="st0" d="M-468.6-308.8c0-0.9,0.7-1.6,1.6-1.6s1.6,0.7,1.6,1.6c0,0.7-0.4,1.3-1.1,1.5
		c-0.3,0.1-0.5,0.4-0.5,0.7v0.3"/>
	<g id="Сгруппировать_774" transform="translate(0 -0.469)">
		<path id="Контур_318" class="st1" d="M-472.4-311.2l-1.8,3.2"/>
		<path id="Контур_324" class="st1" d="M-462-311.2l1.7,3.1"/>
	</g>
	<g id="Сгруппировать_773">
		<path id="Контур_316" class="st0" d="M-472.1-316.3c0-2.7,2.2-5,5-5s5,2.2,5,5"/>
		<path id="Контур_317" class="st0" d="M-475.3-316.3h16c0,0-1.2,3.1-8.1,3.1C-474.2-313.2-475.3-316.3-475.3-316.3z"/>
	</g>
</g>
</svg>
