<svg xmlns="http://www.w3.org/2000/svg" viewBox="0 0 20 20"><g fill="none" stroke="currentColor" stroke-width="2" stroke-linecap="round"><path stroke-linejoin="round" d="M10.25 18.65c.1 0 .2.1.2.2s-.1.2-.2.2-.2-.1-.2-.2h0c0-.1.1-.2.2-.2m-1.6-5.2c0-.9.7-1.6 1.6-1.6s1.6.7 1.6 1.6c0 .7-.4 1.3-1.1 1.5-.3.1-.5.4-.5.7v.3"/><path d="M4.85 10.581l-1.8 3.2m12.2-3.2l1.7 3.1"/><path d="M5.15 5.95c0-2.7 2.2-5 5-5s5 2.2 5 5m-13.2 0h16s-1.2 3.1-8.1 3.1c-6.8 0-7.9-3.1-7.9-3.1z" stroke-linejoin="round"/></g></svg>