<?xml version="1.0" encoding="utf-8"?>
<!-- Generator: Adobe Illustrator 25.2.3, SVG Export Plug-In . SVG Version: 6.00 Build 0)  -->
<svg version="1.1" id="Слой_1" xmlns="http://www.w3.org/2000/svg" xmlns:xlink="http://www.w3.org/1999/xlink" x="0px" y="0px"
	 viewBox="0 0 20 20" style="enable-background:new 0 0 20 20;" xml:space="preserve">
<style type="text/css">
	.st0{fill:none;stroke:currentColor;stroke-width:2;stroke-linecap:round;stroke-linejoin:round;}
</style>
<g id="Vote_Unvote" transform="translate(29.2 -993.1)">
	<g id="Interface-Essential_Form-Validation_close-2" transform="translate(191.25 -3210.2)">
		<g id="Group_395-2" transform="translate(207.755 4383.75)">
			<g id="close-2">
				<path id="Shape_1765-2" class="st0" d="M-422.5-166.2l8.7-8.7"/>
				<g id="Interface-Essential_Form-Validation_close-3" transform="translate(8 8.019)">
					<g id="Group_395-3">
						<g id="close-3">
							<path id="Shape_1765-3" class="st0" d="M-424-173.6l2.6-2.7"/>
							<path id="Shape_1766-2" class="st0" d="M-421.3-173.6l-2.6-2.7"/>
						</g>
					</g>
				</g>
				<path id="Shape_1754-2" class="st0" d="M-423-173.3l0.7,1.1c0.1,0.2,0.2,0.2,0.4,0.1l0,0l0.1-0.1l2.4-3.1"/>
			</g>
		</g>
	</g>
</g>
<path id="Shape_1764" class="st0" d="M19,12.4v4.1c0,1.4-1.1,2.6-2.5,2.6h-0.1H3.6C2.2,19,1,18,1,16.5v-0.1V3.5C1,2.1,2.1,1,3.5,1
	h0.1h6.7"/>
</svg>
