<svg width="208" height="105" fill="none" xmlns="http://www.w3.org/2000/svg"><path d="M147.009 52.059c0 23.748-19.252 43-43 43-4.902 0-9.612-.82-14-2.33m55.831-50.67a42.794 42.794 0 0 0-1.906-6m-4.241-8c-7.724-11.462-20.824-19-35.684-19-23.749 0-43 19.251-43 43 0 8.46 2.443 16.348 6.662 23m13.338 13.338a43.206 43.206 0 0 1-8.285-6.838" stroke="#3D444D" stroke-width="2" stroke-linecap="round"/><circle cx="103.509" cy="52.559" r="31.5" stroke="#DE5846" stroke-width="2"/><circle cx="103.495" cy="52.5" r="27.5" fill="#391919"/><path d="m103.495 59.325 6.45 6.463a4.112 4.112 0 0 0 2.92 1.212 4.116 4.116 0 0 0 2.921-1.212 4.145 4.145 0 0 0 0-5.852l-6.451-6.462 6.399-6.412a4.141 4.141 0 0 0 0-5.85 4.125 4.125 0 0 0-5.841 0l-.786.788m-5.612 5.623-6.4-6.411a4.123 4.123 0 0 0-5.839 0 4.142 4.142 0 0 0 0 5.85l6.399 6.412-6.45 6.462a4.144 4.144 0 0 0 0 5.852 4.123 4.123 0 0 0 5.839 0L97.83 65m9.036-20.755-1.686 1.689M101.324 61.5l-1.6 1.603" stroke="#DE5846" stroke-width="2" stroke-linecap="round"/><path d="M30.56 16.005h2v-7h7v-2h-7v-7h-2v7h-7v2h7v7ZM73.56 104.005h2v-7h7l.001-2h-7v-7h-2v7h-7v2h7v7ZM7.56 104.003h2v-7h7v-2h-7v-7h-2v7h-7v2h7v7ZM29.56 104.003h2v-7h7v-2h-7v-7h-2v7h-7v2h7v7ZM29.56 82.003h2v-7h7v-2h-7v-7h-2v7h-7v2h7v7ZM52.06 82.003h2v-7h7v-2h-7v-7h-2v7h-7v2h7v7ZM52.06 16.003h2v-7h7v-2h-7v-7h-2v7h-7v2h7v7ZM52.06 38.003h2v-7h7v-2h-7v-7h-2v7h-7v2h7v7ZM73.56 16.003h2v-7h7v-2h-7v-7h-2v7h-7v2h7v7ZM177.442 16h-2V9h-7V7h7V0h2v7h7v2h-7v7ZM134.441 104h-2v-7h-7v-2h7v-7h2v7h7v2h-7v7ZM200.44 104h-2v-7h-7v-2h7v-7h2v7h7v2h-7v7ZM178.44 104h-2v-7h-7v-2h7v-7h2v7h7v2h-7v7ZM178.44 82h-2v-7h-7v-2h7v-7h2v7h7v2h-7v7ZM155.94 82h-2v-7h-7v-2h7v-7h2v7h7v2h-7v7ZM155.94 16h-2V9h-7V7h7V0h2v7h7v2h-7v7ZM155.94 38h-2v-7h-7v-2h7v-7h2v7h7v2h-7v7ZM134.44 16h-2V9h-7V7h7V0h2v7h7v2h-7v7Z" fill="#3D444D"/></svg>