<svg width="208" height="105" viewBox="0 0 208 105" fill="none" xmlns="http://www.w3.org/2000/svg">
<path d="M147.015 52.0586C147.015 75.8068 127.763 95.0586 104.015 95.0586C99.1132 95.0586 94.4033 94.2385 90.0146 92.7281M145.846 42.0586C145.355 39.9971 144.715 37.9931 143.939 36.0586M139.699 28.0586C131.975 16.5971 118.875 9.05859 104.015 9.05859C80.2664 9.05859 61.0146 28.3104 61.0146 52.0586C61.0146 60.5181 63.4575 68.4071 67.6763 75.0586M81.0146 88.3969C77.9729 86.4676 75.1899 84.1669 72.7295 81.5586" stroke="#DBDEE5" stroke-width="2" stroke-linecap="round"/>
<circle cx="103.515" cy="52.5586" r="31.5" stroke="#DE5846" stroke-width="2"/>
<circle cx="103.501" cy="52.5" r="27.5" fill="#FFE0DA"/>
<path d="M103.5 59.3249L109.951 65.788C110.757 66.5959 111.814 67 112.871 67C113.928 67 114.985 66.5959 115.791 65.788C117.404 64.1721 117.404 61.5519 115.791 59.936L109.341 53.4736L115.74 47.0622C117.352 45.4463 117.352 42.8278 115.74 41.2119C114.127 39.596 111.512 39.596 109.899 41.2119C109.899 41.2119 109.546 41.5661 109.112 42M103.5 47.6227L97.1014 41.2119C95.4886 39.596 92.875 39.596 91.2622 41.2119C89.6494 42.8278 89.6494 45.4463 91.2622 47.0622L97.6608 53.4736L91.2105 59.936C89.5978 61.5519 89.5978 64.1721 91.2105 65.788C92.8233 67.4039 95.4384 67.4039 97.0497 65.788L97.8362 65M106.872 44.245L105.186 45.9339M101.33 61.5L99.7296 63.103" stroke="#DE5846" stroke-width="2" stroke-linecap="round"/>
<path d="M30.5609 16.0058H32.5609V9.00578L39.5609 9.00578V7.00578L32.5609 7.00578V0.00577562L30.5609 0.00577545V7.00578L23.5609 7.00577V9.00577L30.5609 9.00578L30.5609 16.0058Z" fill="#DBDEE5"/>
<path d="M73.5609 104.006H75.5609V97.0058H82.5609L82.561 95.0058H75.5609V88.0058H73.5609V95.0058H66.5609V97.0058H73.5609V104.006Z" fill="#DBDEE5"/>
<path d="M7.55958 104.004H9.55958L9.55958 97.004H16.5596V95.004H9.55958L9.55958 88.004H7.55958L7.55958 95.004H0.559571L0.55957 97.004H7.55958L7.55958 104.004Z" fill="#DBDEE5"/>
<path d="M29.5596 104.004L31.5596 104.004L31.5596 97.004H38.5596V95.004H31.5596L31.5596 88.004L29.5596 88.004L29.5596 95.004H22.5596V97.004H29.5596L29.5596 104.004Z" fill="#DBDEE5"/>
<path d="M29.5596 82.0041L31.5596 82.0041L31.5596 75.0041H38.5596V73.0041H31.5596L31.5596 66.0041L29.5596 66.0041L29.5596 73.0041H22.5596V75.0041H29.5596L29.5596 82.0041Z" fill="#DBDEE5"/>
<path d="M52.0596 82.0041H54.0596V75.0041H61.0597V73.0041H54.0596V66.0041H52.0596V73.0041H45.0596V75.0041H52.0596V82.0041Z" fill="#DBDEE5"/>
<path d="M52.0593 16.0039H54.0593V9.00391H61.0593V7.00391L54.0593 7.00391V0.00390642L52.0593 0.00390625V7.00391L45.0593 7.00391V9.00391H52.0593V16.0039Z" fill="#DBDEE5"/>
<path d="M52.0595 38.0039H54.0595V31.0039L61.0595 31.0039V29.0039H54.0595V22.0039H52.0595V29.0039L45.0595 29.0039V31.0039L52.0595 31.0039V38.0039Z" fill="#DBDEE5"/>
<path d="M73.5595 16.0039H75.5595L75.5595 9.00393L82.5595 9.00393V7.00393L75.5595 7.00393V0.00393498L73.5595 0.00393463V7.00393L66.5595 7.00393V9.00393L73.5595 9.00393V16.0039Z" fill="#DBDEE5"/>
<path d="M177.443 16.0001H175.443V9.00013L168.443 9.00013V7.00013L175.443 7.00013V0.00013123L177.443 0.000131405V7.00013L184.443 7.00013V9.00013L177.443 9.00013V16.0001Z" fill="#DBDEE5"/>
<path d="M134.442 104H132.442L132.442 97.0001H125.442L125.442 95.0001H132.442L132.442 88.0001H134.442L134.442 95.0001H141.442V97.0001H134.442L134.442 104Z" fill="#DBDEE5"/>
<path d="M200.44 104H198.44V97.0001H191.44V95.0001H198.44V88.0001H200.44V95.0001H207.44V97.0001H200.44V104Z" fill="#DBDEE5"/>
<path d="M178.44 104H176.44V97.0001H169.44V95.0001H176.44V88.0001H178.44V95.0001H185.44V97.0001H178.44V104Z" fill="#DBDEE5"/>
<path d="M178.44 82.0002H176.44V75.0002H169.44V73.0002H176.44V66.0002H178.44V73.0002H185.44V75.0002H178.44V82.0002Z" fill="#DBDEE5"/>
<path d="M155.94 82.0002H153.94V75.0002H146.94V73.0002H153.94V66.0002H155.94V73.0002H162.94V75.0002H155.94V82.0002Z" fill="#DBDEE5"/>
<path d="M155.941 16H153.941V9L146.941 9V7L153.941 7V0L155.941 1.78814e-07V7L162.941 7V9L155.941 9V16Z" fill="#DBDEE5"/>
<path d="M155.94 38H153.94V31H146.94V29L153.94 29V22H155.94V29H162.94V31H155.94V38Z" fill="#DBDEE5"/>
<path d="M134.44 16H132.44V9.00002L125.44 9.00002V7.00002L132.44 7.00002V2.47955e-05H134.44V7.00002H141.44V9.00002H134.44V16Z" fill="#DBDEE5"/>
</svg>
