<svg width="208" height="105" fill="none" xmlns="http://www.w3.org/2000/svg"><path d="M147.015 52.059c0 23.748-19.252 43-43 43-4.902 0-9.612-.82-14-2.33m55.831-50.67a42.667 42.667 0 0 0-1.907-6m-4.24-8c-7.724-11.462-20.824-19-35.684-19-23.749 0-43 19.251-43 43 0 8.46 2.443 16.348 6.661 23m13.339 13.338a43.212 43.212 0 0 1-8.285-6.838" stroke="#3D444D" stroke-width="2" stroke-linecap="round"/><circle cx="103.515" cy="52.559" r="31.5" stroke="#3D444D" stroke-width="2"/><circle cx="103.5" cy="52.5" r="27.5" fill="#3D444D"/><path d="M108.738 60.952v6.025a1 1 0 0 1-1.005 1l-8.4-.03a1 1 0 0 1-.998-1v-6.012a1 1 0 0 1 .285-.698l4.074-4.173a1 1 0 0 1 1.411-.02l4.328 4.19a.999.999 0 0 1 .305.718Zm-5.77-12.66-2.857-2.766c-.646-.625-.204-1.718.695-1.718h5.558c.885 0 1.334 1.065.716 1.699l-2.701 2.765a1 1 0 0 1-1.411.02Z" fill="#23272D"/><path d="M113.5 68v-8.309a.999.999 0 0 0-.29-.704l-6.118-6.172a.999.999 0 0 1 0-1.408L108.486 50m5.014 18-4.762-.018M113.5 68h4m-4-32v8.53a.999.999 0 0 1-.29.705l-1.254 1.265M113.5 36h-20m20 0h4m-24 31.926v-8.288a1 1 0 0 1 .29-.705L96 56.71m-2.5 11.216 4.835.018m-4.835-.018H89M93.5 36v8.51a1 1 0 0 0 .29.704l6.116 6.155a1 1 0 0 1 0 1.41l-1.603 1.613M93.5 36H89m19.738 31.982v-7.029c0-.27-.11-.53-.304-.718l-4.329-4.19a.999.999 0 0 0-1.41.02l-4.075 4.173a1 1 0 0 0-.285.699v7.007m10.403.038-10.403-.038m2.375-23.963h5.556c.899 0 1.341 1.094.695 1.72l-2.856 2.762a1 1 0 0 1-1.41-.02l-2.7-2.763c-.619-.633-.17-1.699.715-1.699Z" stroke="#E3E8EA" stroke-width="2" stroke-linecap="round"/><path d="M30.56 16.004h2v-7h7v-2h-7v-7h-2v7h-7v2h7v7Zm43 88h2v-7h7l.001-2h-7v-7h-2v7h-7v2h7v7Zm-66-.002h2v-7h7v-2h-7v-7h-2v7h-7v2h7v7Zm22 0h2v-7h7v-2h-7v-7h-2v7h-7v2h7v7Zm0-22h2v-7h7v-2h-7v-7h-2v7h-7v2h7v7Zm22.5 0h2v-7h7v-2h-7v-7h-2v7h-7v2h7v7Zm0-66h2v-7h7v-2h-7v-7h-2v7h-7v2h7v7Zm0 22h2v-7h7v-2h-7v-7h-2v7h-7v2h7v7Zm21.5-22h2v-7h7v-2h-7v-7h-2v7h-7v2h7v7ZM177.443 16h-2V9h-7V7h7V0h2v7h7v2h-7v7Zm-43.001 88h-2v-7h-7v-2h7v-7h2v7h7v2h-7v7Zm65.998 0h-2v-7h-7v-2h7v-7h2v7h7v2h-7v7Zm-22 0h-2v-7h-7v-2h7v-7h2v7h7v2h-7v7Zm0-22h-2v-7h-7v-2h7v-7h2v7h7v2h-7v7Zm-22.5 0h-2v-7h-7v-2h7v-7h2v7h7v2h-7v7Zm.001-66h-2V9h-7V7h7V0h2v7h7v2h-7v7Zm-.001 22h-2v-7h-7v-2h7v-7h2v7h7v2h-7v7Zm-21.5-22h-2V9h-7V7h7V0h2v7h7v2h-7v7Z" fill="#3D444D"/></svg>