<svg width="208" height="105" fill="none" xmlns="http://www.w3.org/2000/svg"><path d="M147.009 52.059c0 23.748-19.252 43-43 43-4.902 0-9.612-.82-14-2.33m55.831-50.67a42.794 42.794 0 0 0-1.906-6m-4.241-8c-7.724-11.462-20.824-19-35.684-19-23.749 0-43 19.251-43 43 0 8.46 2.443 16.348 6.662 23m13.338 13.338a43.206 43.206 0 0 1-8.285-6.838" stroke="#3D444D" stroke-width="2" stroke-linecap="round"/><circle cx="103.509" cy="52.559" r="31.5" stroke="#289548" stroke-width="2"/><circle cx="103.493" cy="52.5" r="27.5" fill="#26372B"/><path d="m112.009 45.668 3.687-3.61 5.313 5.205-16.5 16.147-4.75 4.649-2.043-2m9.484-15.684-7.442 7.285-7.436-7.285-5.313 5.202 5.089 4.982m3.41 3.34-1.367-1.34" stroke="#289548" stroke-width="2" stroke-linecap="round" stroke-linejoin="round"/><path d="M30.56 16.005h2v-7h7v-2h-7v-7h-2v7h-7v2h7v7Zm43 88h2v-7h7l.001-2h-7v-7h-2v7h-7v2h7v7Zm-66-.002h2v-7h7v-2h-7v-7h-2v7h-7v2h7v7Zm22 0h2v-7h7v-2h-7v-7h-2v7h-7v2h7v7Zm0-22h2v-7h7v-2h-7v-7h-2v7h-7v2h7v7Zm22.5 0h2v-7h7v-2h-7v-7h-2v7h-7v2h7v7Zm0-66h2v-7h7v-2h-7v-7h-2v7h-7v2h7v7Zm0 22h2v-7h7v-2h-7v-7h-2v7h-7v2h7v7Zm21.5-22h2v-7h7v-2h-7v-7h-2v7h-7v2h7v7ZM177.442 16h-2V9h-7V7h7V0h2v7h7v2h-7v7Zm-43.001 88h-2v-7h-7v-2h7v-7h2v7h7v2h-7v7Zm65.999 0h-2v-7h-7v-2h7v-7h2v7h7v2h-7v7Zm-22 0h-2v-7h-7v-2h7v-7h2v7h7v2h-7v7Zm0-22h-2v-7h-7v-2h7v-7h2v7h7v2h-7v7Zm-22.5 0h-2v-7h-7v-2h7v-7h2v7h7v2h-7v7Zm0-66h-2V9h-7V7h7V0h2v7h7v2h-7v7Zm0 22h-2v-7h-7v-2h7v-7h2v7h7v2h-7v7Zm-21.5-22h-2V9h-7V7h7V0h2v7h7v2h-7v7Z" fill="#3D444D"/></svg>