<svg width="208" height="105" fill="none" xmlns="http://www.w3.org/2000/svg"><path d="M132.711 68.186 144.298 56.6a6.048 6.048 0 0 0 0-8.553l-35.282-35.282a6.048 6.048 0 0 0-8.553 0L65.181 48.047a6.048 6.048 0 0 0 0 8.553l35.282 35.282a6.048 6.048 0 0 0 8.553 0l12.355-12.356m6.804-6.804-2.683 2.684" stroke="#FC9F0F" stroke-width="2" stroke-linecap="round" stroke-linejoin="round"/><path d="m90.753 16.06 7.571-7.57a9.072 9.072 0 0 1 12.83 0l37.42 37.42a9.072 9.072 0 0 1 0 12.83l-37.42 37.42a9.072 9.072 0 0 1-12.83 0l-37.42-37.42a9.072 9.072 0 0 1 0-12.83L74.5 32.313m13.23-13.23-9.828 9.828" stroke="#FC9F0F" stroke-width="2" stroke-linecap="round" stroke-linejoin="round"/><path d="M101.739 39.693a3.619 3.619 0 0 1 7.237 0v13.855a3.618 3.618 0 1 1-7.237 0V39.693Zm0 25.402a3.619 3.619 0 1 1 7.237 0 3.619 3.619 0 0 1-7.237 0Z" fill="#3D444D" stroke="#E3E8EA" stroke-width="2"/><path d="M30.56 16.005h2v-7h7v-2h-7v-7h-2v7h-7v2h7v7ZM73.56 104.005h2v-7h7l.001-2h-7v-7h-2v7h-7v2h7v7ZM7.56 104.003h2v-7h7v-2h-7v-7h-2v7h-7v2h7v7ZM29.56 104.003h2v-7h7v-2h-7v-7h-2v7h-7v2h7v7ZM29.56 82.003h2v-7h7v-2h-7v-7h-2v7h-7v2h7v7ZM52.06 82.003h2v-7h7v-2h-7v-7h-2v7h-7v2h7v7ZM52.06 16.003h2v-7h7v-2h-7v-7h-2v7h-7v2h7v7ZM52.06 38.003h2v-7h7v-2h-7v-7h-2v7h-7v2h7v7ZM73.56 16.003h2v-7h7v-2h-7v-7h-2v7h-7v2h7v7ZM177.442 16h-2V9h-7V7h7V0h2v7h7v2h-7v7ZM134.441 104h-2v-7h-7v-2h7v-7h2v7h7v2h-7v7ZM200.44 104h-2v-7h-7v-2h7v-7h2v7h7v2h-7v7ZM178.44 104h-2v-7h-7v-2h7v-7h2v7h7v2h-7v7ZM178.44 82h-2v-7h-7v-2h7v-7h2v7h7v2h-7v7ZM155.94 82h-2v-7h-7v-2h7v-7h2v7h7v2h-7v7ZM155.94 16h-2V9h-7V7h7V0h2v7h7v2h-7v7ZM155.94 38h-2v-7h-7v-2h7v-7h2v7h7v2h-7v7ZM134.44 16h-2V9h-7V7h7V0h2v7h7v2h-7v7Z" fill="#3D444D"/></svg>