<svg width="208" height="105" fill="none" xmlns="http://www.w3.org/2000/svg"><path d="m133.032 68.12 11.586-11.586a6.048 6.048 0 0 0 0-8.554l-35.282-35.282a6.048 6.048 0 0 0-8.553 0L65.501 47.98a6.048 6.048 0 0 0 0 8.554l35.282 35.282a6.048 6.048 0 0 0 8.553 0l12.356-12.356m6.804-6.804-2.684 2.683" stroke="#FC9F0F" stroke-width="2" stroke-linecap="round" stroke-linejoin="round"/><path d="m91.073 15.994 7.572-7.571a9.071 9.071 0 0 1 12.829 0l37.421 37.42a9.072 9.072 0 0 1 0 12.83l-37.421 37.42a9.071 9.071 0 0 1-12.83 0l-37.42-37.42a9.072 9.072 0 0 1 0-12.83L74.82 32.248m13.23-13.23-9.828 9.828" stroke="#FC9F0F" stroke-width="2" stroke-linecap="round" stroke-linejoin="round"/><path d="M102.06 39.626a3.618 3.618 0 1 1 7.237 0v13.856a3.619 3.619 0 0 1-7.237 0V39.626Zm0 25.402a3.618 3.618 0 1 1 7.237 0 3.618 3.618 0 0 1-7.237 0Z" fill="#F7FAFB" stroke="#212225" stroke-width="2"/><path d="M30.56 16.006h2v-7h7v-2h-7v-7h-2v7h-7v2h7v7Zm43 88h2v-7h7l.001-2h-7v-7h-2v7h-7v2h7v7Zm-66-.002h2v-7h7v-2h-7v-7h-2v7h-7v2h7v7Zm22 0h2v-7h7v-2h-7v-7h-2v7h-7v2h7v7Zm0-22h2v-7h7v-2h-7v-7h-2v7h-7v2h7v7Zm22.5 0h2v-7h7v-2h-7v-7h-2v7h-7v2h7v7Zm0-66h2v-7h7v-2h-7v-7h-2v7h-7v2h7v7Zm0 22h2v-7h7v-2h-7v-7h-2v7h-7v2h7v7Zm21.5-22h2v-7h7v-2h-7v-7h-2v7h-7v2h7v7Z" fill="#DBDEE5"/><path d="M30.56 16.006h2v-7h7v-2h-7v-7h-2v7h-7v2h7v7Zm43 88h2v-7h7l.001-2h-7v-7h-2v7h-7v2h7v7Zm-66-.002h2v-7h7v-2h-7v-7h-2v7h-7v2h7v7Zm22 0h2v-7h7v-2h-7v-7h-2v7h-7v2h7v7Zm0-22h2v-7h7v-2h-7v-7h-2v7h-7v2h7v7Zm22.5 0h2v-7h7v-2h-7v-7h-2v7h-7v2h7v7Zm0-66h2v-7h7v-2h-7v-7h-2v7h-7v2h7v7Zm0 22h2v-7h7v-2h-7v-7h-2v7h-7v2h7v7Zm21.5-22h2v-7h7v-2h-7v-7h-2v7h-7v2h7v7ZM177.442 16h-2V9h-7V7h7V0h2v7h7v2h-7v7Zm-43.001 88h-2v-7h-7v-2h7v-7h2v7h7v2h-7v7Zm65.998 0h-2v-7h-7v-2h7v-7h2v7h7v2h-7v7Zm-22 0h-2v-7h-7v-2h7v-7h2v7h7v2h-7v7Zm0-22h-2v-7h-7v-2h7v-7h2v7h7v2h-7v7Zm-22.5 0h-2v-7h-7v-2h7v-7h2v7h7v2h-7v7Zm.001-66h-2V9h-7V7h7V0h2v7h7v2h-7v7Zm0 22h-2.001v-7h-7v-2h7v-7h2.001v7h7v2h-7v7Zm-21.501-22h-2V9h-7V7h7V0h2v7h7v2h-7v7Z" fill="#DBDEE5"/></svg>