<svg width="301" height="116" viewBox="0 0 301 116" fill="none" xmlns="http://www.w3.org/2000/svg">
<path d="M165.5 61V37C165.5 32.5817 161.918 29 157.5 29H135H112H75.5L45.5 69H157.5C161.918 69 165.5 65.4183 165.5 61Z" fill="#101627"/>
<path d="M75.5 29H112M45.5 69H157.5C161.918 69 165.5 65.4183 165.5 61V37C165.5 32.5817 161.918 29 157.5 29H135" stroke="#283C64" stroke-width="2" stroke-linecap="round"/>
<path d="M82.5 17H245.5C252.127 17 257.5 22.3726 257.5 29V69C257.5 75.6274 252.127 81 245.5 81H104.5M65.5 81H76.5" stroke="#283C64" stroke-width="2" stroke-linecap="round"/>
<path d="M146.147 42.0907L148.315 46.3087L152.412 46.7066C152.893 46.7862 153.054 47.2637 152.733 47.5821L149.359 50.9247L150.645 55.461C150.725 55.859 150.323 56.3365 149.841 56.0977L145.665 53.9489L141.569 56.0181C141.328 56.1773 140.685 55.9385 140.846 55.3814L142.131 50.7655L138.677 47.5821C138.436 47.2637 138.356 46.7862 138.998 46.7066L143.095 46.3087L145.263 42.0907C145.504 41.6132 145.906 41.6928 146.147 42.0907Z" stroke="#283C64" stroke-width="2"/>
<rect x="178.5" y="30" width="38" height="38" rx="7" stroke="#2079EE" stroke-width="2"/>
<path d="M210.89 50.7266C210.889 50.098 210.723 49.4806 210.409 48.9365C210.094 48.3923 209.642 47.9406 209.097 47.6266C208.552 47.3125 207.935 47.1473 207.306 47.1475C206.678 47.1476 206.386 47.3141 205.841 47.6284L205.516 43.4571C205.516 42.982 205.327 42.5264 204.991 42.1904C204.655 41.8545 204.199 41.6657 203.724 41.6657L200.054 41.271C200.37 40.7265 200.542 40.503 200.543 39.8735C200.544 39.244 200.379 38.6253 200.065 38.0797C199.75 37.5342 199.298 37.0811 198.753 36.7661C198.208 36.451 197.59 36.2852 196.96 36.2852C196.33 36.2852 195.712 36.451 195.167 36.7661C194.622 37.0811 194.17 37.5342 193.855 38.0797C193.541 38.6253 193.376 39.244 193.377 39.8735C193.378 40.503 193.539 40.7265 193.855 41.271L189.393 41.6657C188.918 41.6657 188.462 41.8545 188.126 42.1904C187.79 42.5264 187.602 42.982 187.602 43.4571L187.657 45.5007C187.682 46.4006 188.565 47.0395 189.44 47.2513C190.074 47.4047 190.666 47.7248 191.135 48.1932C191.806 48.8651 192.184 49.7764 192.184 50.7266C192.184 51.6769 191.806 52.5882 191.135 53.2601C190.666 53.7284 190.074 54.0486 189.44 54.202C188.564 54.4138 187.681 55.052 187.655 55.9525L187.602 57.7884C187.602 58.2636 187.79 58.7192 188.126 59.0552C190.738 60.7815 202.731 60.6064 204.991 59.0552C205.327 58.7192 205.516 58.2636 205.516 57.7884L205.841 53.8267C206.386 54.141 206.678 54.3055 207.306 54.3057C207.935 54.3059 208.552 54.1408 209.097 53.8267C209.642 53.5127 210.094 53.0609 210.409 52.5168C210.723 51.9726 210.889 51.3552 210.89 50.7266Z" fill="#1C468C" stroke="#2079EE" stroke-width="2" stroke-linecap="round" stroke-linejoin="round"/>
<g clip-path="url(#clip0_10090_53079)">
<circle cx="238" cy="43.0312" r="2" transform="rotate(90 238 43.0312)" fill="#283C64"/>
<circle cx="238" cy="49.0312" r="2" transform="rotate(90 238 49.0312)" fill="#283C64"/>
<circle cx="238" cy="55.0312" r="2" transform="rotate(90 238 55.0312)" fill="#283C64"/>
</g>
<path d="M254.815 97.5712C255.554 97.5416 256.255 97.2351 256.779 96.7125C257.303 96.19 257.612 95.4896 257.644 94.7502C257.869 92.9202 259.402 81.9392 259.53 80.9082C259.658 79.8772 259.862 78.8882 258.116 78.0882C256.37 77.2882 205.878 57.9882 204.305 57.7442C202.732 57.5002 202.63 57.9672 201.947 60.0942C201.264 62.2212 199.18 68.7872 198.713 70.2412C198.246 71.6952 197.794 74.5362 198.713 75.8822C199.632 77.2282 214.087 108.309 215.413 111.059C216.739 113.809 220.734 114.659 223.163 111.059C225.592 107.459 230.378 100.784 230.906 99.9222C231.434 99.0602 232.845 99.0452 234.678 98.9822C236.511 98.9192 253.478 97.6002 254.815 97.5712Z" fill="#171F34"/>
<path opacity="0.4" d="M217.559 109.469L219.989 96.1008L221.61 96.9118H222.825L220.398 110.279C220.019 110.483 219.608 110.618 219.183 110.679H219.144C218.542 110.686 217.559 109.469 217.559 109.469ZM232.546 83.9488L256.04 81.9238C256.04 81.9238 254.64 90.7488 254.42 92.0508C254.2 93.3528 254.087 94.8278 251.584 94.8858C249.081 94.9438 230.926 96.1008 230.926 96.1008L232.546 83.9488Z" fill="#253355"/>
<path d="M232.545 83.9492L230.925 96.1012L229.305 97.3162L220.797 109.873V109.063L222.822 96.1012C222.822 96.1012 230.922 85.3562 231.328 84.7592C231.638 84.3681 232.064 84.0847 232.545 83.9492Z" fill="#101627"/>
<path d="M222.53 96.7399C222.248 96.8916 221.932 96.971 221.611 96.971C221.29 96.971 220.974 96.8916 220.692 96.7399C220.409 96.5882 220.168 96.369 219.991 96.1016C219.51 95.0746 204.622 63.5166 204.191 62.4816C203.998 62.0191 203.997 61.5663 204.191 61.2789M222.53 96.7399C222.813 96.5882 223.054 96.369 223.231 96.1016C224.004 94.8166 230.517 85.8096 231.331 84.7596C232.145 83.7096 233.874 83.6386 235.382 83.5446C236.89 83.4506 253.197 82.3406 254.823 82.3296C255.132 82.3551 255.439 82.2635 255.684 82.073C255.929 81.8824 256.093 81.6069 256.144 81.301C256.195 80.9951 256.129 80.6813 255.959 80.4217C255.79 80.1621 255.529 79.9758 255.228 79.8996C253.859 79.3676 207.334 62.0726 205.811 61.2666C204.969 60.8208 204.431 60.9232 204.191 61.2789M222.53 96.7399L220.692 109.635M256.039 81.5196C256.039 81.5196 254.279 92.4096 254.014 93.2666C253.749 94.1236 253.484 94.7906 252.394 94.8866C251.304 94.9826 233.244 95.9866 232.141 96.1016C231.608 96.0859 231.079 96.1864 230.589 96.3963C230.099 96.6061 229.661 96.9202 229.305 97.3166C228.513 98.2886 222.576 107.337 221.205 109.064C221.038 109.274 220.866 109.466 220.692 109.635M204.191 61.2789L201.357 71.3926C200.985 72.5795 200.985 73.8517 201.357 75.0386C201.707 76.0116 215.306 105.256 216.749 108.254C218.016 110.886 219.436 110.852 220.692 109.635" stroke="#476DB0" stroke-width="2"/>
<path d="M219.989 96.1006L218.813 102.372M218.187 105.713L217.559 109.063" stroke="#476DB0" stroke-width="2" stroke-linecap="round"/>
<path d="M232.546 83.9492C232.546 83.9492 232.046 87.6782 231.605 91.0052M231.275 93.4802L230.926 96.1012" stroke="#476DB0" stroke-width="2" stroke-linecap="round"/>
<path d="M53.5007 2H51.5007V9H44.5007V11H51.5007V18L53.5007 18V11H60.5007V9H53.5007V2Z" fill="#283C64"/>
<path d="M31.5004 2H29.5004V9H22.5004V11H29.5004V18H31.5004V11H38.5004V9H31.5004V2Z" fill="#283C64"/>
<path d="M7.75 60.885H9.75V53.885H16.75V51.885H9.75V44.885H7.75V51.885H0.75V53.885H7.75V60.885Z" fill="#283C64"/>
<path d="M269.75 82.885H271.75V75.885H278.75V73.885H271.75V66.885H269.75V73.885H262.75V75.885H269.75V82.885Z" fill="#283C64"/>
<path d="M269.751 60.885H271.751V53.885H278.751V51.885H271.751V44.885H269.751V51.885H262.751V53.885H269.751V60.885Z" fill="#283C64"/>
<path d="M269.75 104.885H271.75V97.885H278.75V95.885H271.75V88.885H269.75V95.885H262.75V97.885H269.75V104.885Z" fill="#283C64"/>
<path d="M29.75 38.885H31.75V31.885H38.75V29.885H31.75V22.885H29.75V29.885H22.75V31.885H29.75V38.885Z" fill="#283C64"/>
<path d="M291.75 82.885H293.75V75.885H300.75V73.885H293.75V66.885H291.75V73.885H284.75V75.885H291.75V82.885Z" fill="#283C64"/>
<path d="M291.751 60.885H293.751V53.885H300.751V51.885H293.751V44.885H291.751V51.885H284.751V53.885H291.751V60.885Z" fill="#283C64"/>
<path d="M291.751 39.885H293.751V32.885H300.751V30.885H293.751V23.885H291.751V30.885H284.751V32.885H291.751V39.885Z" fill="#283C64"/>
<path d="M29.75 60.885H31.75V53.885H38.75V51.885H31.75V44.885H29.75V51.885H22.75V53.885H29.75V60.885Z" fill="#283C64"/>
<path d="M29.75 82.885H31.75V75.885H38.75V73.885H31.75V66.885H29.75V73.885H22.75V75.885H29.75V82.885Z" fill="#283C64"/>
<path d="M75.5007 2H73.5007V9H66.5007V11H73.5007V18L75.5007 18V11H82.5007V9H75.5007V2Z" fill="#283C64"/>
<path d="M51.7501 38.885H53.7501V31.885H60.7501V29.885H53.7501V22.885H51.7501V29.885H44.7501V31.885H51.7501V38.885Z" fill="#283C64"/>
<defs>
<clipPath id="clip0_10090_53079">
<rect x="245.5" y="57" width="16" height="16" rx="8" transform="rotate(-180 245.5 57)" fill="white"/>
</clipPath>
</defs>
</svg>
