<svg width="301" height="116" viewBox="0 0 301 116" fill="none" xmlns="http://www.w3.org/2000/svg">
<path d="M165 61.5V37.5C165 33.0817 161.418 29.5 157 29.5H134.5H111.5H75L45 69.5H157C161.418 69.5 165 65.9183 165 61.5Z" fill="#F7FAFB"/>
<path d="M75 29.5H111.5M45 69.5H157C161.418 69.5 165 65.9183 165 61.5V37.5C165 33.0817 161.418 29.5 157 29.5H134.5" stroke="#DBDEE5" stroke-width="2" stroke-linecap="round"/>
<path d="M82 17.5H245C251.627 17.5 257 22.8726 257 29.5V69.5C257 76.1274 251.627 81.5 245 81.5H104M65 81.5H76" stroke="#DBDEE5" stroke-width="2" stroke-linecap="round"/>
<path d="M145.647 42.5907L147.815 46.8087L151.912 47.2066C152.393 47.2862 152.554 47.7637 152.233 48.0821L148.859 51.4247L150.145 55.961C150.225 56.359 149.823 56.8365 149.341 56.5977L145.165 54.4489L141.069 56.5181C140.828 56.6773 140.185 56.4385 140.346 55.8814L141.631 51.2655L138.177 48.0821C137.936 47.7637 137.856 47.2862 138.498 47.2066L142.595 46.8087L144.763 42.5907C145.004 42.1132 145.406 42.1928 145.647 42.5907Z" stroke="#DBDEE5" stroke-width="2"/>
<rect x="178" y="30.5" width="38" height="38" rx="7" fill="#E5F0F8" stroke="#007DFF" stroke-width="2"/>
<path d="M210.39 51.2266C210.389 50.598 210.223 49.9806 209.909 49.4365C209.594 48.8923 209.142 48.4406 208.597 48.1266C208.052 47.8125 207.435 47.6473 206.806 47.6475C206.178 47.6476 205.886 47.8141 205.341 48.1284L205.016 43.9571C205.016 43.482 204.827 43.0264 204.491 42.6904C204.155 42.3545 203.699 42.1657 203.224 42.1657L199.554 41.771C199.87 41.2265 200.042 41.003 200.043 40.3735C200.044 39.744 199.879 39.1253 199.565 38.5797C199.25 38.0342 198.798 37.5811 198.253 37.2661C197.708 36.951 197.09 36.7852 196.46 36.7852C195.83 36.7852 195.212 36.951 194.667 37.2661C194.122 37.5811 193.67 38.0342 193.355 38.5797C193.041 39.1253 192.876 39.744 192.877 40.3735C192.878 41.003 193.039 41.2265 193.355 41.771L188.893 42.1657C188.418 42.1657 187.962 42.3545 187.626 42.6904C187.29 43.0264 187.102 43.482 187.102 43.9571L187.157 46.0007C187.182 46.9006 188.065 47.5395 188.94 47.7513C189.574 47.9047 190.166 48.2248 190.635 48.6932C191.306 49.3651 191.684 50.2764 191.684 51.2266C191.684 52.1769 191.306 53.0882 190.635 53.7601C190.166 54.2284 189.574 54.5486 188.94 54.702C188.064 54.9138 187.181 55.552 187.155 56.4525L187.102 58.2884C187.102 58.7636 187.29 59.2192 187.626 59.5552C190.238 61.2815 202.231 61.1064 204.491 59.5552C204.827 59.2192 205.016 58.7636 205.016 58.2884L205.341 54.3267C205.886 54.641 206.178 54.8055 206.806 54.8057C207.435 54.8059 208.052 54.6408 208.597 54.3267C209.142 54.0127 209.594 53.5609 209.909 53.0168C210.223 52.4726 210.389 51.8552 210.39 51.2266Z" fill="#BAD6F0" stroke="#007DFF" stroke-width="2" stroke-linecap="round" stroke-linejoin="round"/>
<g clip-path="url(#clip0_10108_5077)">
<circle cx="237.5" cy="43.5312" r="2" transform="rotate(90 237.5 43.5312)" fill="#212225"/>
<circle cx="237.5" cy="49.5312" r="2" transform="rotate(90 237.5 49.5312)" fill="#212225"/>
<circle cx="237.5" cy="55.5312" r="2" transform="rotate(90 237.5 55.5312)" fill="#212225"/>
</g>
<path d="M254.315 98.0712C255.054 98.0416 255.755 97.7351 256.279 97.2125C256.803 96.69 257.112 95.9896 257.144 95.2502C257.369 93.4202 258.902 82.4392 259.03 81.4082C259.158 80.3772 259.362 79.3882 257.616 78.5882C255.87 77.7882 205.378 58.4882 203.805 58.2442C202.232 58.0002 202.13 58.4672 201.447 60.5942C200.764 62.7212 198.68 69.2872 198.213 70.7412C197.746 72.1952 197.294 75.0362 198.213 76.3822C199.132 77.7282 213.587 108.809 214.913 111.559C216.239 114.309 220.234 115.159 222.663 111.559C225.092 107.959 229.878 101.284 230.406 100.422C230.934 99.5602 232.345 99.5452 234.178 99.4822C236.011 99.4192 252.978 98.1002 254.315 98.0712Z" fill="white"/>
<path opacity="0.4" d="M217.059 109.969L219.489 96.6008L221.11 97.4118H222.325L219.898 110.779C219.519 110.983 219.108 111.118 218.683 111.179H218.644C218.042 111.186 217.059 109.969 217.059 109.969ZM232.046 84.4488L255.54 82.4238C255.54 82.4238 254.14 91.2488 253.92 92.5508C253.7 93.8528 253.587 95.3278 251.084 95.3858C248.581 95.4438 230.426 96.6008 230.426 96.6008L232.046 84.4488Z" fill="#EEF3F5"/>
<path d="M232.045 84.4492L230.425 96.6012L228.805 97.8162L220.297 110.373V109.563L222.322 96.6012C222.322 96.6012 230.422 85.8562 230.828 85.2592C231.138 84.8681 231.564 84.5847 232.045 84.4492Z" fill="#DBDEE5"/>
<path d="M222.03 97.2399C221.748 97.3916 221.432 97.471 221.111 97.471C220.79 97.471 220.474 97.3916 220.192 97.2399C219.909 97.0882 219.668 96.869 219.491 96.6016C219.01 95.5746 204.122 64.0166 203.691 62.9816C203.498 62.5191 203.497 62.0663 203.691 61.7789M222.03 97.2399C222.313 97.0882 222.554 96.869 222.731 96.6016C223.504 95.3166 230.017 86.3096 230.831 85.2596C231.645 84.2096 233.374 84.1386 234.882 84.0446C236.39 83.9506 252.697 82.8406 254.323 82.8296C254.632 82.8551 254.939 82.7635 255.184 82.573C255.429 82.3824 255.593 82.1069 255.644 81.801C255.695 81.4951 255.629 81.1813 255.459 80.9217C255.29 80.6621 255.029 80.4758 254.728 80.3996C253.359 79.8676 206.834 62.5726 205.311 61.7666C204.469 61.3208 203.931 61.4232 203.691 61.7789M222.03 97.2399L220.192 110.135M255.539 82.0196C255.539 82.0196 253.779 92.9096 253.514 93.7666C253.249 94.6236 252.984 95.2906 251.894 95.3866C250.804 95.4826 232.744 96.4866 231.641 96.6016C231.108 96.5859 230.579 96.6864 230.089 96.8963C229.599 97.1061 229.161 97.4202 228.805 97.8166C228.013 98.7886 222.076 107.837 220.705 109.564C220.538 109.774 220.366 109.966 220.192 110.135M203.691 61.7789L200.857 71.8926C200.485 73.0795 200.485 74.3517 200.857 75.5386C201.207 76.5116 214.806 105.756 216.249 108.754C217.516 111.386 218.936 111.352 220.192 110.135" stroke="#A5ADB9" stroke-width="2"/>
<path d="M219.489 96.6006L218.313 102.872M217.687 106.213L217.059 109.563" stroke="#A5ADB9" stroke-width="2" stroke-linecap="round"/>
<path d="M232.046 84.4492C232.046 84.4492 231.546 88.1782 231.105 91.5052M230.775 93.9802L230.426 96.6012" stroke="#A5ADB9" stroke-width="2" stroke-linecap="round"/>
<path d="M53.0007 2.5H51.0007V9.5H44.0007V11.5H51.0007V18.5L53.0007 18.5V11.5H60.0007V9.5H53.0007V2.5Z" fill="#DBDEE5"/>
<path d="M31.0004 2.5H29.0004V9.5H22.0004V11.5H29.0004V18.5H31.0004V11.5H38.0004V9.5H31.0004V2.5Z" fill="#DBDEE5"/>
<path d="M7.25 61.385H9.25V54.385H16.25V52.385H9.25V45.385H7.25V52.385H0.25V54.385H7.25V61.385Z" fill="#DBDEE5"/>
<path d="M269.25 83.385H271.25V76.385H278.25V74.385H271.25V67.385H269.25V74.385H262.25V76.385H269.25V83.385Z" fill="#DBDEE5"/>
<path d="M269.251 61.385H271.251V54.385H278.251V52.385H271.251V45.385H269.251V52.385H262.251V54.385H269.251V61.385Z" fill="#DBDEE5"/>
<path d="M269.25 105.385H271.25V98.385H278.25V96.385H271.25V89.385H269.25V96.385H262.25V98.385H269.25V105.385Z" fill="#DBDEE5"/>
<path d="M29.25 39.385H31.25V32.385H38.25V30.385H31.25V23.385H29.25V30.385H22.25V32.385H29.25V39.385Z" fill="#DBDEE5"/>
<path d="M291.25 83.385H293.25V76.385H300.25V74.385H293.25V67.385H291.25V74.385H284.25V76.385H291.25V83.385Z" fill="#DBDEE5"/>
<path d="M291.251 61.385H293.251V54.385H300.251V52.385H293.251V45.385H291.251V52.385H284.251V54.385H291.251V61.385Z" fill="#DBDEE5"/>
<path d="M291.251 40.385H293.251V33.385H300.251V31.385H293.251V24.385H291.251V31.385H284.251V33.385H291.251V40.385Z" fill="#DBDEE5"/>
<path d="M29.25 61.385H31.25V54.385H38.25V52.385H31.25V45.385H29.25V52.385H22.25V54.385H29.25V61.385Z" fill="#DBDEE5"/>
<path d="M29.25 83.385H31.25V76.385H38.25V74.385H31.25V67.385H29.25V74.385H22.25V76.385H29.25V83.385Z" fill="#DBDEE5"/>
<path d="M75.0007 2.5H73.0007V9.5H66.0007V11.5H73.0007V18.5L75.0007 18.5V11.5H82.0007V9.5H75.0007V2.5Z" fill="#DBDEE5"/>
<path d="M51.2501 39.385H53.2501V32.385H60.2501V30.385H53.2501V23.385H51.2501V30.385H44.2501V32.385H51.2501V39.385Z" fill="#DBDEE5"/>
<defs>
<clipPath id="clip0_10108_5077">
<rect x="245" y="57.5" width="16" height="16" rx="8" transform="rotate(-180 245 57.5)" fill="white"/>
</clipPath>
</defs>
</svg>
