<svg width="208" height="104" viewBox="0 0 208 104" fill="none" xmlns="http://www.w3.org/2000/svg">
<path d="M133.032 68.1185L144.619 56.5321C146.98 54.1702 146.98 50.3408 144.619 47.9789L109.337 12.697C106.975 10.3351 103.145 10.3351 100.783 12.697L65.5015 47.9789C63.1396 50.3408 63.1396 54.1702 65.5015 56.5321L100.783 91.814C103.145 94.1759 106.975 94.1759 109.337 91.814L121.692 79.4586M128.496 72.6545L125.813 75.3378" stroke="#FC9F0F" stroke-width="2" stroke-linecap="round" stroke-linejoin="round"/>
<path d="M91.074 15.9914L98.6452 8.42026C102.188 4.87742 107.932 4.87742 111.475 8.42026L148.895 45.8405C152.438 49.3833 152.438 55.1274 148.895 58.6703L111.475 96.0905C107.932 99.6333 102.188 99.6333 98.6452 96.0905L61.225 58.6703C57.6821 55.1274 57.6821 49.3833 61.225 45.8405L74.82 32.2455M88.05 19.0154L78.222 28.8435" stroke="#FC9F0F" stroke-width="2" stroke-linecap="round" stroke-linejoin="round"/>
<path d="M102.06 39.6239C102.06 37.6254 103.68 36.0054 105.679 36.0054C107.677 36.0054 109.297 37.6254 109.297 39.6239V53.4794C109.297 55.4779 107.677 57.098 105.679 57.098C103.68 57.098 102.06 55.4779 102.06 53.4795V39.6239ZM102.06 65.0258C102.06 63.0273 103.68 61.4072 105.679 61.4072C107.677 61.4072 109.297 63.0273 109.297 65.0258C109.297 67.0242 107.677 68.6443 105.679 68.6443C103.68 68.6443 102.06 67.0242 102.06 65.0258Z" fill="#F7FAFB" stroke="#212225" stroke-width="2"/>
<path d="M30.5614 16.0024H32.5614V9.00236L39.5614 9.00236V7.00236L32.5614 7.00236V0.00235765L30.5614 0.00235748V7.00236L23.5614 7.00236V9.00236L30.5614 9.00236L30.5614 16.0024Z" fill="#DBDEE5"/>
<path d="M73.5614 104.002H75.5614V97.0024H82.5614L82.5614 95.0024H75.5614V88.0024H73.5614V95.0024H66.5614V97.0024H73.5614V104.002Z" fill="#DBDEE5"/>
<path d="M7.56006 104.001H9.56007L9.56007 97.0006H16.5601V95.0006H9.56007L9.56007 88.0006H7.56007L7.56007 95.0006H0.560059L0.560059 97.0006H7.56007L7.56006 104.001Z" fill="#DBDEE5"/>
<path d="M29.5601 104.001L31.5601 104.001L31.5601 97.0006H38.5601V95.0006H31.5601L31.5601 88.0006L29.5601 88.0006L29.5601 95.0006H22.5601V97.0006H29.5601L29.5601 104.001Z" fill="#DBDEE5"/>
<path d="M29.5601 82.0006L31.5601 82.0007L31.5601 75.0007H38.5601V73.0007H31.5601L31.5601 66.0007L29.5601 66.0006L29.5601 73.0006H22.5601V75.0006H29.5601L29.5601 82.0006Z" fill="#DBDEE5"/>
<path d="M52.0601 82.0007H54.0601V75.0007H61.0601V73.0007H54.0601V66.0007H52.0601V73.0007H45.0601V75.0007H52.0601V82.0007Z" fill="#DBDEE5"/>
<path d="M52.0598 16.0005H54.0598V9.00049H61.0598V7.00049L54.0598 7.00049V0.000488452L52.0598 0.000488281V7.00049L45.0598 7.00049V9.00049H52.0598V16.0005Z" fill="#DBDEE5"/>
<path d="M52.06 38.0005H54.06V31.0005L61.06 31.0005V29.0005H54.06V22.0005H52.06V29.0005L45.06 29.0005V31.0005L52.06 31.0005V38.0005Z" fill="#DBDEE5"/>
<path d="M73.56 16.0005H75.56L75.56 9.00052L82.56 9.00052V7.00052L75.56 7.00052V0.000517007L73.56 0.000516657V7.00052L66.56 7.00052V9.00051L73.56 9.00052V16.0005Z" fill="#DBDEE5"/>
<path d="M30.5614 16.0014H32.5614V9.00138L39.5614 9.00138V7.00138L32.5614 7.00138V0.00138109L30.5614 0.00138092V7.00138L23.5614 7.00138V9.00138L30.5614 9.00138L30.5614 16.0014Z" fill="#DBDEE5"/>
<path d="M73.5614 104.001H75.5614V97.0014H82.5614L82.5614 95.0014H75.5614V88.0014H73.5614V95.0014H66.5614V97.0014H73.5614V104.001Z" fill="#DBDEE5"/>
<path d="M7.56006 104H9.56007L9.56007 96.9996H16.5601V94.9996H9.56007L9.56007 87.9996H7.56007L7.56007 94.9996H0.560059L0.560059 96.9996H7.56007L7.56006 104Z" fill="#DBDEE5"/>
<path d="M29.5601 104L31.5601 104L31.5601 96.9996H38.5601V94.9996H31.5601L31.5601 87.9996L29.5601 87.9996L29.5601 94.9996H22.5601V96.9996H29.5601L29.5601 104Z" fill="#DBDEE5"/>
<path d="M29.5601 81.9997L31.5601 81.9997L31.5601 74.9997H38.5601V72.9997H31.5601L31.5601 65.9997L29.5601 65.9997L29.5601 72.9997H22.5601V74.9997H29.5601L29.5601 81.9997Z" fill="#DBDEE5"/>
<path d="M52.0601 81.9997H54.0601V74.9997H61.0601V72.9997H54.0601V65.9997H52.0601V72.9997H45.0601V74.9997H52.0601V81.9997Z" fill="#DBDEE5"/>
<path d="M52.0598 15.9995H54.0598V8.99951H61.0598V6.99951L54.0598 6.99951V-0.00048811L52.0598 -0.000488281V6.99951L45.0598 6.99951V8.99951H52.0598V15.9995Z" fill="#DBDEE5"/>
<path d="M52.06 37.9995H54.06V30.9995L61.06 30.9995V28.9995H54.06V21.9995H52.06V28.9995L45.06 28.9995V30.9995L52.06 30.9995V37.9995Z" fill="#DBDEE5"/>
<path d="M73.56 15.9995H75.56L75.56 8.99954L82.56 8.99954V6.99954L75.56 6.99954V-0.000459556L73.56 -0.000459905V6.99954L66.56 6.99954V8.99954L73.56 8.99954V15.9995Z" fill="#DBDEE5"/>
<path d="M177.443 15.9977H175.443V8.99769L168.443 8.99769V6.99769L175.443 6.99769V-0.00231018L177.443 -0.00231V6.99769L184.443 6.99769V8.99769L177.443 8.99769V15.9977Z" fill="#DBDEE5"/>
<path d="M134.442 103.998H132.442L132.442 96.9977H125.442L125.442 94.9977H132.442L132.442 87.9977H134.442L134.442 94.9977H141.442V96.9977H134.442L134.442 103.998Z" fill="#DBDEE5"/>
<path d="M200.44 103.998H198.44V96.9977H191.44V94.9977H198.44V87.9977H200.44V94.9977H207.44V96.9977H200.44V103.998Z" fill="#DBDEE5"/>
<path d="M178.44 103.998H176.44V96.9977H169.44V94.9977H176.44V87.9977H178.44V94.9977H185.44V96.9977H178.44V103.998Z" fill="#DBDEE5"/>
<path d="M178.44 81.9977H176.44V74.9977H169.44V72.9977H176.44V65.9977H178.44V72.9977H185.44V74.9977H178.44V81.9977Z" fill="#DBDEE5"/>
<path d="M155.94 81.9977H153.94V74.9977H146.94V72.9977H153.94V65.9977H155.94V72.9977H162.94V74.9977H155.94V81.9977Z" fill="#DBDEE5"/>
<path d="M155.941 15.9976H153.941V8.99756L146.941 8.99756V6.99756L153.941 6.99756V-0.00244141L155.941 -0.00244123V6.99756L162.941 6.99756V8.99756L155.941 8.99756V15.9976Z" fill="#DBDEE5"/>
<path d="M155.94 37.9976H153.94V30.9976H146.94V28.9976L153.94 28.9976V21.9976H155.94V28.9976H162.94V30.9976H155.94V37.9976Z" fill="#DBDEE5"/>
<path d="M134.44 15.9976H132.44V8.99758L125.44 8.99758V6.99758L132.44 6.99758V-0.00241661H134.44V6.99758H141.44V8.99758H134.44V15.9976Z" fill="#DBDEE5"/>
</svg>
