<svg width="127" height="58" viewBox="0 0 127 58" fill="none" xmlns="http://www.w3.org/2000/svg">
<path d="M61.6116 7.40615L82.5008 28.4541L69.1814 42.1066M61.8888 49.5815L65.0172 46.3749M98.8369 49.4168L119.449 28.2894L102.861 11.5757M100.306 9.0008L98.5597 7.24146" stroke="#3E9DFF" stroke-width="2" stroke-linecap="round" stroke-linejoin="round"/>
<path d="M61.6118 7.40601L82.501 28.4539L69.1816 42.1064M61.889 49.5813L65.0174 46.3747" stroke="#77B9FE" stroke-width="2" stroke-linecap="round" stroke-linejoin="round"/>
<path d="M25.7873 31.4004L28.4976 28.69L25.4132 25.657M12.703 44.4847L1 56.1876H25.2896L52.3289 28.69L25.2896 1.65064L1 1.65063L13.6179 14.0582M17.2754 17.6548L23.0397 23.323M25.5794 7.56925L46.4686 28.6172L25.8566 49.7446M50.567 13.894L65.4467 28.5257L37.9491 56.0234H49.5923" stroke="#99C7EE" stroke-width="2" stroke-linecap="round" stroke-linejoin="round"/>
<path d="M99.1061 30.8777L101.817 28.1673L98.7321 25.1343M86.0219 43.9619L74.3189 55.6649H98.6085L125.648 28.1673L98.6085 1.12793L74.3189 1.12793L86.9368 13.5355M90.5943 17.1321L96.3586 22.8003M69.1159 8.36502L62.2383 1.48738L37.9487 1.48738L45.9085 9.31448M78.1743 17.4234L73.8129 13.0619M81.281 20.5301L89.2777 28.5267L62.2383 56.0244H56.4084" stroke="#007DFF" stroke-width="2" stroke-linecap="round" stroke-linejoin="round"/>
<path d="M69.1159 8.36494L62.2383 1.48731L37.9487 1.4873L45.9085 9.31441M78.1743 17.4233L73.8129 13.0619M81.281 20.53L89.2777 28.5266L62.2383 56.0243H56.4084" stroke="#77B9FE" stroke-width="2" stroke-linecap="round" stroke-linejoin="round"/>
</svg>
