<svg width="127" height="58" fill="none" xmlns="http://www.w3.org/2000/svg"><path d="M61.612 7.406 82.5 28.454 69.18 42.107m-7.29 7.473 3.128-3.206m33.82 3.042 20.612-21.128-16.588-16.713M100.306 9 98.56 7.24" stroke="#3E9DFF" stroke-width="2" stroke-linecap="round" stroke-linejoin="round"/><path d="M61.612 7.406 82.5 28.454 69.18 42.106m-7.292 7.475 3.128-3.206" stroke="#77B9FE" stroke-width="2" stroke-linecap="round" stroke-linejoin="round"/><path d="m25.787 31.4 2.71-2.71-3.084-3.033m-12.71 18.828L1 56.188h24.29L52.329 28.69 25.289 1.65H1l12.618 12.408m3.657 3.597 5.765 5.668m2.54-15.754 20.889 21.048-20.612 21.128m24.71-35.851 14.88 14.632-27.498 27.497h11.643" stroke="#99C7EE" stroke-width="2" stroke-linecap="round" stroke-linejoin="round"/><path d="m99.106 30.878 2.711-2.71-3.085-3.034m-12.71 18.828L74.319 55.665h24.29l27.039-27.498-27.04-27.04h-24.29l12.619 12.409m3.657 3.596L96.36 22.8M69.116 8.365l-6.878-6.878h-24.29l7.96 7.827m32.266 8.11-4.361-4.362m7.468 7.468 7.997 7.997-27.04 27.497h-5.83" stroke="#007DFF" stroke-width="2" stroke-linecap="round" stroke-linejoin="round"/><path d="m69.116 8.365-6.878-6.878h-24.29l7.96 7.827m32.266 8.11-4.361-4.362m7.468 7.468 7.997 7.997-27.04 27.497h-5.83" stroke="#77B9FE" stroke-width="2" stroke-linecap="round" stroke-linejoin="round"/></svg>