<svg width="1200" height="265" fill="none" xmlns="http://www.w3.org/2000/svg"><mask id="a" style="mask-type:alpha" maskUnits="userSpaceOnUse" x="0" y="0" width="1200" height="265"><path d="M0 12.25c0-6.627 5.373-12 12-12h1176c6.63 0 12 5.373 12 12v240c0 6.627-5.37 12-12 12H12c-6.627 0-12-5.373-12-12v-240Z" fill="#D9D9D9"/></mask><g mask="url(#a)"><path d="m883.566 212.012-52.497-52.562 52.497-52.563 52.496 52.563-52.496 52.562Z" fill="url(#b)"/><path d="m988.97 106.75 52.5-52.563 52.49 52.563-52.49 52.563-52.5-52.563Z" fill="url(#c)"/><path d="m936.062 264.85-52.496-52.562-52.497 52.562h104.993Z" fill="url(#d)"/><path d="m936.198 159.313 52.497-52.563-52.497-52.563v105.126Z" fill="url(#e)"/><path d="m1146.73 54.187-52.49 52.563 52.49 52.563V54.187Z" fill="url(#f)"/><path d="m1041.47 264.712 52.49-52.562-52.49-52.563v105.125Z" fill="url(#g)"/><path d="m1041.33 264.85-52.497-52.562-52.497 52.562h104.994Z" fill="url(#h)"/><path d="M1041.33 54.05 988.833 1.488 936.336 54.05h104.994Z" fill="url(#i)"/><path d="m1251.86 159.45-52.49-52.562-52.5 52.562h104.99Z" fill="url(#j)"/><path d="m1251.86-51.35-52.49-52.562-52.5 52.562h104.99Z" fill="url(#k)"/><path d="m1146.6 370.25-52.5-52.563-52.5 52.563h105Z" fill="url(#l)"/><path d="m1041.47-156.612-52.5 52.562 52.5 52.563v-105.125Z" fill="url(#m)"/><path d="M1252-51.212 1199.5 1.35l52.5 52.563V-51.213Z" fill="url(#n)"/><path d="m936.336 159.45 52.497 52.562 52.497-52.562H936.336Z" fill="url(#o)"/><path d="m936.336-51.35 52.497 52.562 52.497-52.562H936.336Z" fill="url(#p)"/><path d="m1146.87 54.05 52.5 52.562 52.49-52.562h-104.99Z" fill="url(#q)"/><path d="m1146.87-156.75 52.5 52.563 52.49-52.563h-104.99Z" fill="url(#r)"/><path d="m1041.6 264.85 52.5 52.562 52.5-52.562h-105Z" fill="url(#s)"/><path d="m936.199-51.487 52.496-52.563-52.496-52.562v105.125Z" fill="url(#t)"/><path d="m1146.73 53.913 52.5-52.563-52.5-52.563V53.914Z" fill="url(#u)"/><path d="m830.932 370.112 52.496-52.562-52.496-52.563v105.125Z" fill="url(#v)"/><path d="m1041.47 264.987-52.5 52.563 52.5 52.562V264.987Z" fill="url(#w)"/><path d="m1252 159.587-52.5 52.563 52.5 52.562V159.587Z" fill="url(#x)"/><path d="m936.199 370.112-52.496-52.562 52.496-52.563 52.497 52.563-52.497 52.562Z" fill="url(#y)"/><path d="m1199.37 370.112-52.5-52.562 52.5-52.563 52.49 52.563-52.49 52.562Z" fill="url(#z)"/><path d="m1146.73 264.712-52.49-52.562 52.49-52.563 52.5 52.563-52.5 52.562Z" fill="url(#A)"/><path d="M883.566 53.912 831.069 1.35l52.497-52.563L936.062 1.35l-52.496 52.562Z" fill="url(#B)"/><path d="M1094.1 53.912 1041.6 1.35l52.5-52.563 52.5 52.563-52.5 52.562Z" fill="url(#C)"/><path d="m883.566-51.487-52.497-52.563 52.497-52.563 52.496 52.563-52.496 52.563Z" fill="url(#D)"/><path d="m1094.1-51.487-52.5-52.563 52.5-52.563 52.5 52.563-52.5 52.563Z" fill="url(#E)"/><path d="m831.069 54.05 52.497 52.562 52.496-52.562H831.069Z" fill="url(#F)"/><path d="m778.161 1.489 52.496 52.562-52.496 52.563-52.497-52.563L778.161 1.49Z" fill="url(#G)"/><path d="m672.757 106.751-52.497 52.562-52.496-52.562 52.496-52.563 52.497 52.563Z" fill="url(#H)"/><path d="m725.664-51.35 52.497 52.563 52.496-52.562H725.664Z" fill="url(#I)"/><path d="m725.528 54.188-52.496 52.563 52.496 52.562V54.188Z" fill="url(#J)"/><path d="m514.993 159.313 52.497-52.562-52.497-52.563v105.125Z" fill="url(#K)"/><path d="M620.26-51.212 567.764 1.351l52.496 52.563V-51.213Z" fill="url(#L)"/><path d="m620.397-51.35 52.497 52.563 52.496-52.562H620.397Z" fill="url(#M)"/><path d="m620.397 159.451 52.497 52.562 52.496-52.562H620.397Z" fill="url(#N)"/><path d="m515.13-156.749 52.497 52.562 52.496-52.562H515.13Z" fill="url(#O)"/><path d="m620.26 370.113 52.496-52.562-52.496-52.563v105.125Z" fill="url(#P)"/><path d="M725.39 54.051 672.894 1.49l-52.497 52.56H725.39Z" fill="url(#Q)"/><path d="m725.39 264.851-52.496-52.563-52.497 52.563H725.39Z" fill="url(#R)"/><path d="m620.123-51.349-52.496-52.562-52.497 52.562h104.993Z" fill="url(#S)"/><path d="m725.527 264.988-52.496 52.563 52.496 52.562V264.988Z" fill="url(#T)"/><path d="m830.794-156.611-52.496 52.562 52.496 52.563v-105.125Z" fill="url(#U)"/><path d="m620.261-51.486 52.496-52.563-52.496-52.563v105.126Z" fill="url(#V)"/><path d="m725.527-156.611 52.496 52.562-52.496 52.563-52.496-52.563 52.496-52.562Z" fill="url(#W)"/><path d="m778.161 159.588 52.496 52.563-52.496 52.563-52.497-52.563 52.497-52.563Z" fill="url(#X)"/><path d="m567.627 159.588 52.496 52.563-52.496 52.563-52.497-52.563 52.497-52.563Z" fill="url(#Y)"/><path d="m778.161 264.988 52.496 52.563-52.496 52.562-52.497-52.562 52.497-52.563Z" fill="url(#Z)"/><path d="m567.627 264.988 52.496 52.563-52.496 52.562-52.497-52.562 52.497-52.563Z" fill="url(#aa)"/><path d="m830.657 159.451-52.496-52.562-52.497 52.562h104.993Z" fill="url(#ab)"/><path d="M148.573 212.012 96.076 159.45l52.497-52.563 52.496 52.563-52.496 52.562Z" fill="url(#ac)"/><path d="m253.976 106.75 52.497-52.563 52.496 52.563-52.496 52.563-52.497-52.563Z" fill="url(#ad)"/><path d="m201.069 264.85-52.496-52.562-52.497 52.562H201.07Z" fill="url(#ae)"/><path d="m201.205 159.313 52.497-52.563-52.497-52.563v105.126Z" fill="url(#af)"/><path d="m411.74 54.187-52.496 52.563 52.496 52.563V54.187Z" fill="url(#ag)"/><path d="m306.473 264.712 52.496-52.562-52.496-52.563v105.125Z" fill="url(#ah)"/><path d="m306.336 264.85-52.496-52.562-52.497 52.562h104.993Z" fill="url(#ai)"/><path d="M306.336 54.05 253.84 1.488 201.343 54.05h104.993Z" fill="url(#aj)"/><path d="m516.87 159.45-52.496-52.562-52.497 52.562H516.87Z" fill="url(#ak)"/><path d="m516.87-51.35-52.496-52.562-52.497 52.562H516.87Z" fill="url(#al)"/><path d="m411.603 370.25-52.496-52.563-52.497 52.563h104.993Z" fill="url(#am)"/><path d="m306.473-156.612-52.496 52.562 52.496 52.563v-105.125Z" fill="url(#an)"/><path d="M517.007-51.212 464.511 1.35l52.496 52.563V-51.213Z" fill="url(#ao)"/><path d="m201.343 159.45 52.497 52.562 52.496-52.562H201.343Z" fill="url(#ap)"/><path d="M201.343-51.35 253.84 1.212l52.496-52.562H201.343Z" fill="url(#aq)"/><path d="m411.877 54.05 52.497 52.562L516.87 54.05H411.877Z" fill="url(#ar)"/><path d="m411.877-156.75 52.497 52.563 52.496-52.563H411.877Z" fill="url(#as)"/><path d="m306.61 264.85 52.497 52.562 52.496-52.562H306.61Z" fill="url(#at)"/><path d="m201.206-51.487 52.496-52.563-52.496-52.562v105.125Z" fill="url(#au)"/><path d="M411.739 53.913 464.236 1.35l-52.497-52.563V53.914Z" fill="url(#av)"/><path d="m95.939 370.112 52.496-52.562-52.496-52.563v105.125Z" fill="url(#aw)"/><path d="m306.473 264.987-52.497 52.563 52.497 52.562V264.987Z" fill="url(#ax)"/><path d="m517.007 159.587-52.496 52.563 52.496 52.562V159.587Z" fill="url(#ay)"/><path d="M201.206 370.112 148.71 317.55l52.496-52.563 52.496 52.563-52.496 52.562Z" fill="url(#az)"/><path d="m464.374 370.112-52.497-52.562 52.497-52.563 52.496 52.563-52.496 52.562Z" fill="url(#aA)"/><path d="m411.74 264.712-52.496-52.562 52.496-52.563 52.496 52.563-52.496 52.562Z" fill="url(#aB)"/><path d="M148.573 53.912 96.076 1.35l52.497-52.563L201.069 1.35l-52.496 52.562Z" fill="url(#aC)"/><path d="M359.107 53.912 306.61 1.35l52.497-52.563L411.603 1.35l-52.496 52.562Z" fill="url(#aD)"/><path d="M148.573-51.487 96.076-104.05l52.497-52.563 52.496 52.563-52.496 52.563Z" fill="url(#aE)"/><path d="M359.107-51.487 306.61-104.05l52.497-52.563 52.496 52.563-52.496 52.563Z" fill="url(#aF)"/><path d="m96.076 54.05 52.497 52.562 52.496-52.562H96.076Z" fill="url(#aG)"/><path d="M43.168 1.489 95.664 54.05l-52.496 52.563L-9.33 54.051 43.168 1.49Z" fill="url(#aH)"/><path d="m-62.236 106.751-52.497 52.562-52.496-52.562 52.496-52.563 52.497 52.563Z" fill="url(#aI)"/><path d="M-9.329-51.35 43.168 1.214l52.496-52.562H-9.33Z" fill="url(#aJ)"/><path d="m-9.465 54.188-52.496 52.563 52.496 52.562V54.188Z" fill="url(#aK)"/><path d="m-220 159.313 52.497-52.562L-220 54.188v105.125Z" fill="url(#aL)"/><path d="m-114.733-51.212-52.496 52.563 52.496 52.563V-51.213Z" fill="url(#aM)"/><path d="m-114.596-51.35 52.497 52.563 52.496-52.562h-104.993Z" fill="url(#aN)"/><path d="m-114.596 159.451 52.497 52.562 52.496-52.562h-104.993Z" fill="url(#aO)"/><path d="m-219.863-156.749 52.497 52.562 52.496-52.562h-104.993Z" fill="url(#aP)"/><path d="m-114.733 370.113 52.496-52.562-52.496-52.563v105.125Z" fill="url(#aQ)"/><path d="M-9.603 54.051-62.1 1.49l-52.497 52.562H-9.603Z" fill="url(#aR)"/><path d="M-9.603 264.851-62.1 212.288l-52.497 52.563H-9.603Z" fill="url(#aS)"/><path d="m-114.87-51.349-52.496-52.562-52.497 52.562h104.993Z" fill="url(#aT)"/><path d="m-9.466 264.988-52.496 52.563 52.496 52.562V264.988Z" fill="url(#aU)"/><path d="m95.801-156.611-52.496 52.562 52.496 52.563v-105.125Z" fill="url(#aV)"/><path d="m-114.733-51.486 52.497-52.563-52.497-52.563v105.126Z" fill="url(#aW)"/><path d="m-9.466-156.611 52.496 52.562-52.496 52.563-52.496-52.563 52.496-52.562Z" fill="url(#aX)"/><path d="m43.168 159.588 52.496 52.563-52.496 52.563-52.497-52.563 52.497-52.563Z" fill="url(#aY)"/><path d="m-167.366 159.588 52.496 52.563-52.497 52.563-52.496-52.563 52.497-52.563Z" fill="url(#aZ)"/><path d="m43.168 264.988 52.496 52.563-52.496 52.562-52.497-52.562 52.497-52.563Z" fill="url(#ba)"/><path d="m-167.367 264.988 52.497 52.563-52.497 52.562-52.496-52.562 52.496-52.563Z" fill="url(#bb)"/><path d="m95.664 159.451-52.496-52.562-52.497 52.562H95.664Z" fill="url(#bc)"/></g><defs><linearGradient id="b" x1="12" y1="106.357" x2="1193" y2="106.357" gradientUnits="userSpaceOnUse"><stop stop-color="#363B43"/><stop offset="1" stop-color="#373C44"/></linearGradient><linearGradient id="c" x1="12" y1="106.357" x2="1193" y2="106.357" gradientUnits="userSpaceOnUse"><stop stop-color="#363B43"/><stop offset="1" stop-color="#373C44"/></linearGradient><linearGradient id="d" x1="12" y1="106.357" x2="1193" y2="106.357" gradientUnits="userSpaceOnUse"><stop stop-color="#363B43"/><stop offset="1" stop-color="#373C44"/></linearGradient><linearGradient id="e" x1="12" y1="106.357" x2="1193" y2="106.357" gradientUnits="userSpaceOnUse"><stop stop-color="#363B43"/><stop offset="1" stop-color="#373C44"/></linearGradient><linearGradient id="f" x1="12" y1="106.357" x2="1193" y2="106.357" gradientUnits="userSpaceOnUse"><stop stop-color="#363B43"/><stop offset="1" stop-color="#373C44"/></linearGradient><linearGradient id="g" x1="12" y1="106.357" x2="1193" y2="106.357" gradientUnits="userSpaceOnUse"><stop stop-color="#363B43"/><stop offset="1" stop-color="#373C44"/></linearGradient><linearGradient id="h" x1="12" y1="106.357" x2="1193" y2="106.357" gradientUnits="userSpaceOnUse"><stop stop-color="#363B43"/><stop offset="1" stop-color="#373C44"/></linearGradient><linearGradient id="i" x1="12" y1="106.357" x2="1193" y2="106.357" gradientUnits="userSpaceOnUse"><stop stop-color="#363B43"/><stop offset="1" stop-color="#373C44"/></linearGradient><linearGradient id="j" x1="12" y1="106.357" x2="1193" y2="106.357" gradientUnits="userSpaceOnUse"><stop stop-color="#363B43"/><stop offset="1" stop-color="#373C44"/></linearGradient><linearGradient id="k" x1="12" y1="106.357" x2="1193" y2="106.357" gradientUnits="userSpaceOnUse"><stop stop-color="#363B43"/><stop offset="1" stop-color="#373C44"/></linearGradient><linearGradient id="l" x1="12" y1="106.357" x2="1193" y2="106.357" gradientUnits="userSpaceOnUse"><stop stop-color="#363B43"/><stop offset="1" stop-color="#373C44"/></linearGradient><linearGradient id="m" x1="12" y1="106.357" x2="1193" y2="106.357" gradientUnits="userSpaceOnUse"><stop stop-color="#363B43"/><stop offset="1" stop-color="#373C44"/></linearGradient><linearGradient id="n" x1="12" y1="106.357" x2="1193" y2="106.357" gradientUnits="userSpaceOnUse"><stop stop-color="#363B43"/><stop offset="1" stop-color="#373C44"/></linearGradient><linearGradient id="o" x1="12" y1="106.357" x2="1193" y2="106.357" gradientUnits="userSpaceOnUse"><stop stop-color="#363B43"/><stop offset="1" stop-color="#373C44"/></linearGradient><linearGradient id="p" x1="12" y1="106.357" x2="1193" y2="106.357" gradientUnits="userSpaceOnUse"><stop stop-color="#363B43"/><stop offset="1" stop-color="#373C44"/></linearGradient><linearGradient id="q" x1="12" y1="106.357" x2="1193" y2="106.357" gradientUnits="userSpaceOnUse"><stop stop-color="#363B43"/><stop offset="1" stop-color="#373C44"/></linearGradient><linearGradient id="r" x1="12" y1="106.357" x2="1193" y2="106.357" gradientUnits="userSpaceOnUse"><stop stop-color="#363B43"/><stop offset="1" stop-color="#373C44"/></linearGradient><linearGradient id="s" x1="12" y1="106.357" x2="1193" y2="106.357" gradientUnits="userSpaceOnUse"><stop stop-color="#363B43"/><stop offset="1" stop-color="#373C44"/></linearGradient><linearGradient id="t" x1="12" y1="106.357" x2="1193" y2="106.357" gradientUnits="userSpaceOnUse"><stop stop-color="#363B43"/><stop offset="1" stop-color="#373C44"/></linearGradient><linearGradient id="u" x1="12" y1="106.357" x2="1193" y2="106.357" gradientUnits="userSpaceOnUse"><stop stop-color="#363B43"/><stop offset="1" stop-color="#373C44"/></linearGradient><linearGradient id="v" x1="12" y1="106.357" x2="1193" y2="106.357" gradientUnits="userSpaceOnUse"><stop stop-color="#363B43"/><stop offset="1" stop-color="#373C44"/></linearGradient><linearGradient id="w" x1="12" y1="106.357" x2="1193" y2="106.357" gradientUnits="userSpaceOnUse"><stop stop-color="#363B43"/><stop offset="1" stop-color="#373C44"/></linearGradient><linearGradient id="x" x1="12" y1="106.357" x2="1193" y2="106.357" gradientUnits="userSpaceOnUse"><stop stop-color="#363B43"/><stop offset="1" stop-color="#373C44"/></linearGradient><linearGradient id="y" x1="12" y1="106.357" x2="1193" y2="106.357" gradientUnits="userSpaceOnUse"><stop stop-color="#363B43"/><stop offset="1" stop-color="#373C44"/></linearGradient><linearGradient id="z" x1="12" y1="106.357" x2="1193" y2="106.357" gradientUnits="userSpaceOnUse"><stop stop-color="#363B43"/><stop offset="1" stop-color="#373C44"/></linearGradient><linearGradient id="A" x1="12" y1="106.357" x2="1193" y2="106.357" gradientUnits="userSpaceOnUse"><stop stop-color="#363B43"/><stop offset="1" stop-color="#373C44"/></linearGradient><linearGradient id="B" x1="12" y1="106.357" x2="1193" y2="106.357" gradientUnits="userSpaceOnUse"><stop stop-color="#363B43"/><stop offset="1" stop-color="#373C44"/></linearGradient><linearGradient id="C" x1="12" y1="106.357" x2="1193" y2="106.357" gradientUnits="userSpaceOnUse"><stop stop-color="#363B43"/><stop offset="1" stop-color="#373C44"/></linearGradient><linearGradient id="D" x1="12" y1="106.357" x2="1193" y2="106.357" gradientUnits="userSpaceOnUse"><stop stop-color="#363B43"/><stop offset="1" stop-color="#373C44"/></linearGradient><linearGradient id="E" x1="12" y1="106.357" x2="1193" y2="106.357" gradientUnits="userSpaceOnUse"><stop stop-color="#363B43"/><stop offset="1" stop-color="#373C44"/></linearGradient><linearGradient id="F" x1="12" y1="106.357" x2="1193" y2="106.357" gradientUnits="userSpaceOnUse"><stop stop-color="#363B43"/><stop offset="1" stop-color="#373C44"/></linearGradient><linearGradient id="G" x1="12" y1="106.357" x2="1193" y2="106.357" gradientUnits="userSpaceOnUse"><stop stop-color="#363B43"/><stop offset="1" stop-color="#373C44"/></linearGradient><linearGradient id="H" x1="12" y1="106.357" x2="1193" y2="106.357" gradientUnits="userSpaceOnUse"><stop stop-color="#363B43"/><stop offset="1" stop-color="#373C44"/></linearGradient><linearGradient id="I" x1="12" y1="106.357" x2="1193" y2="106.357" gradientUnits="userSpaceOnUse"><stop stop-color="#363B43"/><stop offset="1" stop-color="#373C44"/></linearGradient><linearGradient id="J" x1="12" y1="106.357" x2="1193" y2="106.357" gradientUnits="userSpaceOnUse"><stop stop-color="#363B43"/><stop offset="1" stop-color="#373C44"/></linearGradient><linearGradient id="K" x1="12" y1="106.357" x2="1193" y2="106.357" gradientUnits="userSpaceOnUse"><stop stop-color="#363B43"/><stop offset="1" stop-color="#373C44"/></linearGradient><linearGradient id="L" x1="12" y1="106.357" x2="1193" y2="106.357" gradientUnits="userSpaceOnUse"><stop stop-color="#363B43"/><stop offset="1" stop-color="#373C44"/></linearGradient><linearGradient id="M" x1="12" y1="106.357" x2="1193" y2="106.357" gradientUnits="userSpaceOnUse"><stop stop-color="#363B43"/><stop offset="1" stop-color="#373C44"/></linearGradient><linearGradient id="N" x1="12" y1="106.357" x2="1193" y2="106.357" gradientUnits="userSpaceOnUse"><stop stop-color="#363B43"/><stop offset="1" stop-color="#373C44"/></linearGradient><linearGradient id="O" x1="12" y1="106.357" x2="1193" y2="106.357" gradientUnits="userSpaceOnUse"><stop stop-color="#363B43"/><stop offset="1" stop-color="#373C44"/></linearGradient><linearGradient id="P" x1="12" y1="106.357" x2="1193" y2="106.357" gradientUnits="userSpaceOnUse"><stop stop-color="#363B43"/><stop offset="1" stop-color="#373C44"/></linearGradient><linearGradient id="Q" x1="12" y1="106.357" x2="1193" y2="106.357" gradientUnits="userSpaceOnUse"><stop stop-color="#363B43"/><stop offset="1" stop-color="#373C44"/></linearGradient><linearGradient id="R" x1="12" y1="106.357" x2="1193" y2="106.357" gradientUnits="userSpaceOnUse"><stop stop-color="#363B43"/><stop offset="1" stop-color="#373C44"/></linearGradient><linearGradient id="S" x1="12" y1="106.357" x2="1193" y2="106.357" gradientUnits="userSpaceOnUse"><stop stop-color="#363B43"/><stop offset="1" stop-color="#373C44"/></linearGradient><linearGradient id="T" x1="12" y1="106.357" x2="1193" y2="106.357" gradientUnits="userSpaceOnUse"><stop stop-color="#363B43"/><stop offset="1" stop-color="#373C44"/></linearGradient><linearGradient id="U" x1="12" y1="106.357" x2="1193" y2="106.357" gradientUnits="userSpaceOnUse"><stop stop-color="#363B43"/><stop offset="1" stop-color="#373C44"/></linearGradient><linearGradient id="V" x1="12" y1="106.357" x2="1193" y2="106.357" gradientUnits="userSpaceOnUse"><stop stop-color="#363B43"/><stop offset="1" stop-color="#373C44"/></linearGradient><linearGradient id="W" x1="12" y1="106.357" x2="1193" y2="106.357" gradientUnits="userSpaceOnUse"><stop stop-color="#363B43"/><stop offset="1" stop-color="#373C44"/></linearGradient><linearGradient id="X" x1="12" y1="106.357" x2="1193" y2="106.357" gradientUnits="userSpaceOnUse"><stop stop-color="#363B43"/><stop offset="1" stop-color="#373C44"/></linearGradient><linearGradient id="Y" x1="12" y1="106.357" x2="1193" y2="106.357" gradientUnits="userSpaceOnUse"><stop stop-color="#363B43"/><stop offset="1" stop-color="#373C44"/></linearGradient><linearGradient id="Z" x1="12" y1="106.357" x2="1193" y2="106.357" gradientUnits="userSpaceOnUse"><stop stop-color="#363B43"/><stop offset="1" stop-color="#373C44"/></linearGradient><linearGradient id="aa" x1="12" y1="106.357" x2="1193" y2="106.357" gradientUnits="userSpaceOnUse"><stop stop-color="#363B43"/><stop offset="1" stop-color="#373C44"/></linearGradient><linearGradient id="ab" x1="12" y1="106.357" x2="1193" y2="106.357" gradientUnits="userSpaceOnUse"><stop stop-color="#363B43"/><stop offset="1" stop-color="#373C44"/></linearGradient><linearGradient id="ac" x1="12" y1="106.357" x2="1193" y2="106.357" gradientUnits="userSpaceOnUse"><stop stop-color="#363B43"/><stop offset="1" stop-color="#373C44"/></linearGradient><linearGradient id="ad" x1="12" y1="106.357" x2="1193" y2="106.357" gradientUnits="userSpaceOnUse"><stop stop-color="#363B43"/><stop offset="1" stop-color="#373C44"/></linearGradient><linearGradient id="ae" x1="12" y1="106.357" x2="1193" y2="106.357" gradientUnits="userSpaceOnUse"><stop stop-color="#363B43"/><stop offset="1" stop-color="#373C44"/></linearGradient><linearGradient id="af" x1="12" y1="106.357" x2="1193" y2="106.357" gradientUnits="userSpaceOnUse"><stop stop-color="#363B43"/><stop offset="1" stop-color="#373C44"/></linearGradient><linearGradient id="ag" x1="12" y1="106.357" x2="1193" y2="106.357" gradientUnits="userSpaceOnUse"><stop stop-color="#363B43"/><stop offset="1" stop-color="#373C44"/></linearGradient><linearGradient id="ah" x1="12" y1="106.357" x2="1193" y2="106.357" gradientUnits="userSpaceOnUse"><stop stop-color="#363B43"/><stop offset="1" stop-color="#373C44"/></linearGradient><linearGradient id="ai" x1="12" y1="106.357" x2="1193" y2="106.357" gradientUnits="userSpaceOnUse"><stop stop-color="#363B43"/><stop offset="1" stop-color="#373C44"/></linearGradient><linearGradient id="aj" x1="12" y1="106.357" x2="1193" y2="106.357" gradientUnits="userSpaceOnUse"><stop stop-color="#363B43"/><stop offset="1" stop-color="#373C44"/></linearGradient><linearGradient id="ak" x1="12" y1="106.357" x2="1193" y2="106.357" gradientUnits="userSpaceOnUse"><stop stop-color="#363B43"/><stop offset="1" stop-color="#373C44"/></linearGradient><linearGradient id="al" x1="12" y1="106.357" x2="1193" y2="106.357" gradientUnits="userSpaceOnUse"><stop stop-color="#363B43"/><stop offset="1" stop-color="#373C44"/></linearGradient><linearGradient id="am" x1="12" y1="106.357" x2="1193" y2="106.357" gradientUnits="userSpaceOnUse"><stop stop-color="#363B43"/><stop offset="1" stop-color="#373C44"/></linearGradient><linearGradient id="an" x1="12" y1="106.357" x2="1193" y2="106.357" gradientUnits="userSpaceOnUse"><stop stop-color="#363B43"/><stop offset="1" stop-color="#373C44"/></linearGradient><linearGradient id="ao" x1="12" y1="106.357" x2="1193" y2="106.357" gradientUnits="userSpaceOnUse"><stop stop-color="#363B43"/><stop offset="1" stop-color="#373C44"/></linearGradient><linearGradient id="ap" x1="12" y1="106.357" x2="1193" y2="106.357" gradientUnits="userSpaceOnUse"><stop stop-color="#363B43"/><stop offset="1" stop-color="#373C44"/></linearGradient><linearGradient id="aq" x1="12" y1="106.357" x2="1193" y2="106.357" gradientUnits="userSpaceOnUse"><stop stop-color="#363B43"/><stop offset="1" stop-color="#373C44"/></linearGradient><linearGradient id="ar" x1="12" y1="106.357" x2="1193" y2="106.357" gradientUnits="userSpaceOnUse"><stop stop-color="#363B43"/><stop offset="1" stop-color="#373C44"/></linearGradient><linearGradient id="as" x1="12" y1="106.357" x2="1193" y2="106.357" gradientUnits="userSpaceOnUse"><stop stop-color="#363B43"/><stop offset="1" stop-color="#373C44"/></linearGradient><linearGradient id="at" x1="12" y1="106.357" x2="1193" y2="106.357" gradientUnits="userSpaceOnUse"><stop stop-color="#363B43"/><stop offset="1" stop-color="#373C44"/></linearGradient><linearGradient id="au" x1="12" y1="106.357" x2="1193" y2="106.357" gradientUnits="userSpaceOnUse"><stop stop-color="#363B43"/><stop offset="1" stop-color="#373C44"/></linearGradient><linearGradient id="av" x1="12" y1="106.357" x2="1193" y2="106.357" gradientUnits="userSpaceOnUse"><stop stop-color="#363B43"/><stop offset="1" stop-color="#373C44"/></linearGradient><linearGradient id="aw" x1="12" y1="106.357" x2="1193" y2="106.357" gradientUnits="userSpaceOnUse"><stop stop-color="#363B43"/><stop offset="1" stop-color="#373C44"/></linearGradient><linearGradient id="ax" x1="12" y1="106.357" x2="1193" y2="106.357" gradientUnits="userSpaceOnUse"><stop stop-color="#363B43"/><stop offset="1" stop-color="#373C44"/></linearGradient><linearGradient id="ay" x1="12" y1="106.357" x2="1193" y2="106.357" gradientUnits="userSpaceOnUse"><stop stop-color="#363B43"/><stop offset="1" stop-color="#373C44"/></linearGradient><linearGradient id="az" x1="12" y1="106.357" x2="1193" y2="106.357" gradientUnits="userSpaceOnUse"><stop stop-color="#363B43"/><stop offset="1" stop-color="#373C44"/></linearGradient><linearGradient id="aA" x1="12" y1="106.357" x2="1193" y2="106.357" gradientUnits="userSpaceOnUse"><stop stop-color="#363B43"/><stop offset="1" stop-color="#373C44"/></linearGradient><linearGradient id="aB" x1="12" y1="106.357" x2="1193" y2="106.357" gradientUnits="userSpaceOnUse"><stop stop-color="#363B43"/><stop offset="1" stop-color="#373C44"/></linearGradient><linearGradient id="aC" x1="12" y1="106.357" x2="1193" y2="106.357" gradientUnits="userSpaceOnUse"><stop stop-color="#363B43"/><stop offset="1" stop-color="#373C44"/></linearGradient><linearGradient id="aD" x1="12" y1="106.357" x2="1193" y2="106.357" gradientUnits="userSpaceOnUse"><stop stop-color="#363B43"/><stop offset="1" stop-color="#373C44"/></linearGradient><linearGradient id="aE" x1="12" y1="106.357" x2="1193" y2="106.357" gradientUnits="userSpaceOnUse"><stop stop-color="#363B43"/><stop offset="1" stop-color="#373C44"/></linearGradient><linearGradient id="aF" x1="12" y1="106.357" x2="1193" y2="106.357" gradientUnits="userSpaceOnUse"><stop stop-color="#363B43"/><stop offset="1" stop-color="#373C44"/></linearGradient><linearGradient id="aG" x1="12" y1="106.357" x2="1193" y2="106.357" gradientUnits="userSpaceOnUse"><stop stop-color="#363B43"/><stop offset="1" stop-color="#373C44"/></linearGradient><linearGradient id="aH" x1="12" y1="106.357" x2="1193" y2="106.357" gradientUnits="userSpaceOnUse"><stop stop-color="#363B43"/><stop offset="1" stop-color="#373C44"/></linearGradient><linearGradient id="aI" x1="12" y1="106.357" x2="1193" y2="106.357" gradientUnits="userSpaceOnUse"><stop stop-color="#363B43"/><stop offset="1" stop-color="#373C44"/></linearGradient><linearGradient id="aJ" x1="12" y1="106.357" x2="1193" y2="106.357" gradientUnits="userSpaceOnUse"><stop stop-color="#363B43"/><stop offset="1" stop-color="#373C44"/></linearGradient><linearGradient id="aK" x1="12" y1="106.357" x2="1193" y2="106.357" gradientUnits="userSpaceOnUse"><stop stop-color="#363B43"/><stop offset="1" stop-color="#373C44"/></linearGradient><linearGradient id="aL" x1="12" y1="106.357" x2="1193" y2="106.357" gradientUnits="userSpaceOnUse"><stop stop-color="#363B43"/><stop offset="1" stop-color="#373C44"/></linearGradient><linearGradient id="aM" x1="12" y1="106.357" x2="1193" y2="106.357" gradientUnits="userSpaceOnUse"><stop stop-color="#363B43"/><stop offset="1" stop-color="#373C44"/></linearGradient><linearGradient id="aN" x1="12" y1="106.357" x2="1193" y2="106.357" gradientUnits="userSpaceOnUse"><stop stop-color="#363B43"/><stop offset="1" stop-color="#373C44"/></linearGradient><linearGradient id="aO" x1="12" y1="106.357" x2="1193" y2="106.357" gradientUnits="userSpaceOnUse"><stop stop-color="#363B43"/><stop offset="1" stop-color="#373C44"/></linearGradient><linearGradient id="aP" x1="12" y1="106.357" x2="1193" y2="106.357" gradientUnits="userSpaceOnUse"><stop stop-color="#363B43"/><stop offset="1" stop-color="#373C44"/></linearGradient><linearGradient id="aQ" x1="12" y1="106.357" x2="1193" y2="106.357" gradientUnits="userSpaceOnUse"><stop stop-color="#363B43"/><stop offset="1" stop-color="#373C44"/></linearGradient><linearGradient id="aR" x1="12" y1="106.357" x2="1193" y2="106.357" gradientUnits="userSpaceOnUse"><stop stop-color="#363B43"/><stop offset="1" stop-color="#373C44"/></linearGradient><linearGradient id="aS" x1="12" y1="106.357" x2="1193" y2="106.357" gradientUnits="userSpaceOnUse"><stop stop-color="#363B43"/><stop offset="1" stop-color="#373C44"/></linearGradient><linearGradient id="aT" x1="12" y1="106.357" x2="1193" y2="106.357" gradientUnits="userSpaceOnUse"><stop stop-color="#363B43"/><stop offset="1" stop-color="#373C44"/></linearGradient><linearGradient id="aU" x1="12" y1="106.357" x2="1193" y2="106.357" gradientUnits="userSpaceOnUse"><stop stop-color="#363B43"/><stop offset="1" stop-color="#373C44"/></linearGradient><linearGradient id="aV" x1="12" y1="106.357" x2="1193" y2="106.357" gradientUnits="userSpaceOnUse"><stop stop-color="#363B43"/><stop offset="1" stop-color="#373C44"/></linearGradient><linearGradient id="aW" x1="12" y1="106.357" x2="1193" y2="106.357" gradientUnits="userSpaceOnUse"><stop stop-color="#363B43"/><stop offset="1" stop-color="#373C44"/></linearGradient><linearGradient id="aX" x1="12" y1="106.357" x2="1193" y2="106.357" gradientUnits="userSpaceOnUse"><stop stop-color="#363B43"/><stop offset="1" stop-color="#373C44"/></linearGradient><linearGradient id="aY" x1="12" y1="106.357" x2="1193" y2="106.357" gradientUnits="userSpaceOnUse"><stop stop-color="#363B43"/><stop offset="1" stop-color="#373C44"/></linearGradient><linearGradient id="aZ" x1="12" y1="106.357" x2="1193" y2="106.357" gradientUnits="userSpaceOnUse"><stop stop-color="#363B43"/><stop offset="1" stop-color="#373C44"/></linearGradient><linearGradient id="ba" x1="12" y1="106.357" x2="1193" y2="106.357" gradientUnits="userSpaceOnUse"><stop stop-color="#363B43"/><stop offset="1" stop-color="#373C44"/></linearGradient><linearGradient id="bb" x1="12" y1="106.357" x2="1193" y2="106.357" gradientUnits="userSpaceOnUse"><stop stop-color="#363B43"/><stop offset="1" stop-color="#373C44"/></linearGradient><linearGradient id="bc" x1="12" y1="106.357" x2="1193" y2="106.357" gradientUnits="userSpaceOnUse"><stop stop-color="#363B43"/><stop offset="1" stop-color="#373C44"/></linearGradient></defs></svg>