<svg width="576" height="265" fill="none" xmlns="http://www.w3.org/2000/svg"><g clip-path="url(#a)"><path d="M180.708 284.614 117.816 49.003c-2.725-10.206 3.309-20.696 13.476-23.431l34.978-9.408m31.296-8.418L324-26.26M175.935 13.565l9.204-2.476M403.556-4.085l16.904 63.323m30.096-37.224 16.904 63.323" stroke="#99C7EE" stroke-width="2" stroke-linecap="round"/><path d="M84.777 151.532a11.4 11.4 0 0 1 11.462 0l22.038 12.804a11.547 11.547 0 0 1 5.731 9.988v25.608c0 4.12-2.185 7.928-5.731 9.988l-22.038 12.804a11.4 11.4 0 0 1-11.462 0L62.74 209.92a11.547 11.547 0 0 1-5.731-9.988v-25.608c0-4.12 2.184-7.928 5.73-9.988l22.04-12.804Z" fill="#F5FAFF"/><path d="m69.621 144.989 11.932-6.925a15.841 15.841 0 0 1 15.91 0l5.823 3.38m9.091 5.276 2.932 1.702m-49.051 79.48 15.295 8.877a15.836 15.836 0 0 0 15.91 0l30.59-17.754a16.005 16.005 0 0 0 7.955-13.849v-55.508c0-5.746 0-10.246-2.5-19.246a626.489 626.489 0 0 1-2.235-8.377m-11.765 28.814 3.5 2.031m27 41.032-6.886-26.5" stroke="#99C7EE" stroke-width="2" stroke-linecap="round"/><path d="m117.18 68.783 12.011 44.997m344.886 124.133L437.494 93.872" stroke="#235B95" stroke-width="2" stroke-linecap="round"/><path d="M89 119.25v16m12.004-26.341c0 1.032-.27 2.046-.783 2.94a5.867 5.867 0 0 1-2.14 2.155l-6.14 3.572a5.835 5.835 0 0 1-5.875 0l-6.139-3.572a5.866 5.866 0 0 1-2.14-2.155 5.907 5.907 0 0 1-.783-2.94v-7.178c0-1.032.27-2.046.783-2.94a5.873 5.873 0 0 1 2.14-2.155l6.14-3.572a5.84 5.84 0 0 1 5.875 0l6.139 3.572a5.874 5.874 0 0 1 2.14 2.154 5.91 5.91 0 0 1 .783 2.941v7.178Z" stroke="#99C7EE" stroke-width="2" stroke-linecap="round" stroke-linejoin="round"/><path d="M87.632 96.604a2.825 2.825 0 0 1 2.736 0l5.264 2.93A2.624 2.624 0 0 1 97 101.82v5.86c0 .943-.522 1.815-1.368 2.286l-5.264 2.93a2.822 2.822 0 0 1-2.736 0l-5.264-2.93A2.623 2.623 0 0 1 81 107.68v-5.86c0-.943.522-1.815 1.368-2.286l5.264-2.93Z" fill="#F5FAFF"/><path d="M55 79.394v7.582c0 2.829-1.478 5.443-3.877 6.858l-14.912 8.79a7.614 7.614 0 0 1-7.755 0L21 98.229M9 82.353v4.363c0 2.852 1.543 5.488 4.048 6.914l2.683 1.528" stroke="#99C7EE" stroke-width="2" stroke-linecap="round"/><path d="M29.52 91.045a3.144 3.144 0 0 0 2.06.52l8.002-1.05c2.302-.28 3.185-.205 3.694-2.698.44-2.163 1.183-5.317 1.323-6.49M29.52 91.045a3.164 3.164 0 0 1-1.264-1.714l-.752-2.82m2.016 4.534 1.984-7.9m-6.643-6.533-13.229 1.55a3.143 3.143 0 0 1-2.06-.519m15.29-1.03 1.788-7.838m-1.789 7.837 1.713 6.416M9.57 77.642a3.163 3.163 0 0 1-1.264-1.714L5.591 65.754c-.468-1.754-.515-2.764.18-3.973.696-1.21 1.587-3.38 2.002-3.946m1.798 19.808 2.061-7.896m31.806 4.689 9.204-1.079c2.319-.27 2.844-.845 3.15-2.244.244-1.119.61-5.343.763-7.315M19.968 39.987a2.23 2.23 0 0 0-.302 1.9l3.395 12.718-3.809.446m.716-15.064a2.22 2.22 0 0 1 1.665-.954l9.26-1.085a3.143 3.143 0 0 1 2.06.52 3.163 3.163 0 0 1 1.264 1.714L37.612 52.9l6.49-.76M19.968 39.986c-.214.53-2.58 2.993-2.959 4.117-.379 1.125-.21 1.76.215 3.35l2.028 7.597m35.324 10.29a2.212 2.212 0 0 0 1.664-.954 2.232 2.232 0 0 0 .303-1.9l-2.377-8.903a3.165 3.165 0 0 0-1.264-1.714 3.144 3.144 0 0 0-2.06-.52l-3.342.392m-28.248 3.31-9.42 1.104a2.21 2.21 0 0 0-1.665.953 2.23 2.23 0 0 0-.303 1.9l2.377 8.904a3.163 3.163 0 0 0 1.264 1.714c.607.407 1.335.59 2.061.52l4.432-.52M24 68.923l2.795-.328 3.395 12.718a3.165 3.165 0 0 0 1.264 1.715 3.145 3.145 0 0 0 2.06.52l9.261-1.086a2.21 2.21 0 0 0 1.665-.954 2.232 2.232 0 0 0 .302-1.9L41.347 66.89 51.5 65.7" stroke="#235B95" stroke-width="2" stroke-linecap="round" stroke-linejoin="round"/><path d="M67.5 94.542 55 87.516m15.5 13.66-6-3.532m-5-2.944-5-2.944m22 7.657-6-3.533" stroke="#99C7EE" stroke-width="2" stroke-linecap="round"/><path d="M43.003 177.426v-7.759a16.008 16.008 0 0 1 7.955-13.85l11.698-6.789m-19.653 37.394v18.753a16.006 16.006 0 0 0 7.955 13.849l10.545 6.121" stroke="#235B95" stroke-width="2" stroke-linecap="round"/><path d="m71.234 175.199 16.224 9.403c5.246 1.752 3.452 1.899 3.512 5.34.06 3.441-.088 19.775-.088 19.775a6.902 6.902 0 0 1-3.228-.927l-13.05-7.563c-3.207-1.858-4.106-3.606-4.218-5.749-.111-2.143-.218-14.694-.074-17.037.145-2.344.922-3.242.922-3.242Z" fill="#8AC0F7"/><path d="m85.264 165.728 2.275-1.315a6.494 6.494 0 0 1 6.503 0l14.267 8.245a6.533 6.533 0 0 1 2.389 2.395 6.56 6.56 0 0 1 .875 3.273v16.46a6.55 6.55 0 0 1-3.264 5.669l-14.267 8.246a6.503 6.503 0 0 1-6.503 0l-14.267-8.246a6.524 6.524 0 0 1-2.39-2.394 6.561 6.561 0 0 1-.874-3.274v-16.459c0-1.15.302-2.279.875-3.274a6.534 6.534 0 0 1 2.39-2.395l7.962-4.602" stroke="#235B95" stroke-width="2" stroke-linecap="round"/><path d="M90.777 209.057v-2.81m0-3.704v-5.698m0-4.23v-2.968a4.919 4.919 0 0 1 2.449-4.251l17.315-10.081" stroke="#235B95" stroke-width="2" stroke-linecap="round"/><path d="M92.898 185.598a4.028 4.028 0 0 1-4.008 0l-5.61-3.219m-8.82-5.063 5.67 3.255" stroke="#235B95" stroke-width="2" stroke-linecap="round"/><path d="m426.681 83.204 19.01 73.059" stroke="#99C7EE" stroke-width="2" stroke-linecap="round"/><path d="M551.059 18.492s2.063 2.448 6.933 7.01a34.652 34.652 0 0 1 6.529 8.39c5.314 9.468 6.382 21.138 3.882 32.788m-87.407 36.865s5.273 4.86 8.933 7.611c12.82 9.63 31.876 9.231 48.996-1.867m27.597-35.765c-4.04 12.047-11.813 23.598-22.553 32.133m-27.58 1.888s2.994 2.866 7.862 7.726m1.556-12.084s3.647 3.522 8.515 8.381" stroke="#99C7EE" stroke-width="2" stroke-linecap="round" stroke-linejoin="round"/><path d="M531.316 91.644c20.287-16.123 28.252-44.307 17.789-62.95-10.462-18.645-35.391-20.69-55.678-4.567m-17.789 62.95c9.343 16.649 30.221 20.062 49.028 9.121m-36.488-67.364a61.093 61.093 0 0 0-8.356 10.546m60.265-20.727c-6.921-3.254-15.173-3.856-23.588-1.71M487.88 99.05c-3.341-2.528-5.982-5.875-8.014-9.546-10.463-18.644-2.499-46.828 17.788-62.95 3.761-2.99 7.682-5.354 11.64-7.104" stroke="#99C7EE" stroke-width="2" stroke-linecap="round" stroke-linejoin="round"/><path d="M516.614 46.742 483.373 76.97l37.568-46.994 13.77 50.797-18.097-34.032Zm-17.359 21.21 5.67-5.224 15.077.87 2.984 5.86-23.731-1.505Zm9.828-8.957 5.784-5.276 2.981 5.746-8.765-.47Z" fill="#BAD6F0"/><path d="m531.082 67.384 3.629 13.39-18.097-34.032-8.157 7.417m21.492 9.046-2.478-9.14m-1.982-7.312-4.548-16.776-37.568 46.994 12.014-10.926m9.912-9.014-5.302 4.822m-.742 6.1 5.67-5.226 15.077.87 2.984 5.861-23.731-1.505Zm9.828-8.958 5.784-5.276 2.981 5.746-8.765-.47Z" stroke="#77B9FE" stroke-width="2" stroke-linecap="round" stroke-linejoin="round"/><path d="M534.667 97.067c-23.416 18.608-52.188 16.249-64.264-5.27-1.676-2.985-2.942-6.182-3.817-9.524m73.31 10.185a70.405 70.405 0 0 0 10.887-13.662m5.986-12.402c5.285-14.535 5.17-29.974-1.57-41.984-12.076-21.52-40.848-23.88-64.264-5.27a68.977 68.977 0 0 0-7.819 7.274 70.518 70.518 0 0 0-7.329 9.457" stroke="#99C7EE" stroke-width="2" stroke-linecap="round" stroke-linejoin="round"/><path d="m513.563 131.117.146-12.123" stroke="#99C7EE" stroke-width="2" stroke-linecap="round"/><path d="M526.724 150.379a6.614 6.614 0 0 1-3.28 5.712l-6.889 4.006a6.564 6.564 0 0 1-6.593 0l-6.889-4.006a6.614 6.614 0 0 1-3.28-5.712v-8.049a6.615 6.615 0 0 1 3.28-5.713l6.889-4.006a6.563 6.563 0 0 1 6.593 0l6.889 4.006a6.615 6.615 0 0 1 3.28 5.713v8.049Z" stroke="#99C7EE" stroke-width="2" stroke-linecap="round" stroke-linejoin="round"/><path d="M511.541 137.876a2.81 2.81 0 0 1 2.813 0l5.408 3.129a2.82 2.82 0 0 1 1.406 2.441v6.259a2.82 2.82 0 0 1-1.406 2.441l-5.408 3.129a2.806 2.806 0 0 1-2.813 0l-5.408-3.129a2.82 2.82 0 0 1-1.406-2.441v-6.259a2.82 2.82 0 0 1 1.406-2.441l5.408-3.129Z" fill="#F5FAFF"/><g filter="url(#b)" clip-path="url(#c)"><g clip-path="url(#d)"><rect x="120.167" y="35.002" width="315.31" height="1045.15" rx="15.521" transform="rotate(-15 120.167 35.002)" fill="#fff"/><path d="M132.373 80.484 436.939-1.124l11.534 43.046-304.566 81.608-11.534-43.046Z" fill="#F7FAFB"/><g clip-path="url(#e)"><g clip-path="url(#f)" stroke="#8AC0F7" stroke-width="1.682" stroke-linecap="round" stroke-linejoin="round"><path d="m362.855 40.507-1.74-6.497m3.868 14.619-.87-3.25m1.828-3.088c.37 1.38-.484 2.741-1.784 3.09-1.38.37-2.741-.485-3.089-1.784-.348-1.3.322-2.698 1.784-3.09 1.38-.37 2.719.403 3.089 1.784Zm-11.722-1.151 2.59 9.664m-.793-12.834c-.37-1.381-1.79-2.132-3.09-1.784-1.299.348-2.132 1.79-1.783 3.09.37 1.38 1.79 2.131 3.089 1.783 1.299-.348 2.154-1.709 1.784-3.09Zm0 0c.021.08 0 0 0 0Z"/></g><path fill="#DBDEE5" d="m381.092 27.757.812-.218 4.353 16.244-.812.218z"/><path d="m401.323 31.038 14.213-3.809m-8.99-5.202 3.809 14.213" stroke="#8AC0F7" stroke-width="1.682" stroke-linecap="round" stroke-linejoin="round"/></g><path d="m166.47 99.758-2.848-10.632 3.987-1.069c.816-.219 1.543-.25 2.178-.094a3.152 3.152 0 0 1 1.598.918c.429.453.734 1.017.915 1.692.183.681.201 1.326.056 1.932a3.186 3.186 0 0 1-.937 1.592c-.48.451-1.13.787-1.95 1.007l-2.642.708-.425-1.584 2.383-.638c.478-.128.847-.316 1.107-.564.26-.247.423-.536.491-.866.071-.33.056-.684-.045-1.062a2.21 2.21 0 0 0-.491-.936 1.567 1.567 0 0 0-.859-.488c-.348-.081-.763-.057-1.244.072l-1.765.473 2.418 9.023-1.927.516Zm12.731-3.245c-.778.209-1.499.218-2.162.029a3.611 3.611 0 0 1-1.714-1.082c-.477-.533-.825-1.21-1.046-2.035-.221-.823-.258-1.587-.113-2.29a3.607 3.607 0 0 1 .942-1.799c.48-.496 1.109-.848 1.887-1.056.779-.21 1.5-.219 2.163-.029.663.19 1.233.552 1.71 1.089.481.535.832 1.214 1.053 2.038.22.823.256 1.586.106 2.286a3.57 3.57 0 0 1-.939 1.793c-.479.496-1.108.848-1.887 1.056Zm-.393-1.508c.423-.113.745-.324.966-.632a2.16 2.16 0 0 0 .38-1.114 3.987 3.987 0 0 0-.14-1.376 4.027 4.027 0 0 0-.568-1.267 2.171 2.171 0 0 0-.887-.78c-.347-.16-.732-.182-1.154-.07-.433.117-.761.33-.985.643a2.202 2.202 0 0 0-.384 1.121c-.033.432.016.892.147 1.38.13.484.317.905.561 1.263.247.356.545.614.891.773.35.155.741.175 1.173.059Zm5.768-.099-2.137-7.974 1.822-.488.356 1.329.083-.022c.022-.5.177-.921.463-1.265a2.129 2.129 0 0 1 1.118-.706c.104-.028.221-.053.352-.077.134-.029.246-.046.337-.052l.463 1.73a2.045 2.045 0 0 0-.398.028 3.6 3.6 0 0 0-.503.096 1.962 1.962 0 0 0-.864.47 1.69 1.69 0 0 0-.476.78c-.086.3-.084.62.007.96l1.256 4.688-1.879.503Zm8.07-10.709.389 1.454-4.584 1.228-.39-1.453 4.585-1.229Zm-3.965-.985 1.88-.504 2.005 7.487c.068.252.158.436.27.55a.64.64 0 0 0 .384.187c.141.014.29 0 .445-.041a1.95 1.95 0 0 0 .315-.113c.096-.044.168-.08.216-.108l.711 1.385a4.348 4.348 0 0 1-.401.23c-.172.09-.39.175-.655.253-.467.14-.91.183-1.329.128a2.05 2.05 0 0 1-1.096-.497c-.307-.273-.525-.66-.655-1.16l-2.09-7.797Zm9.575-.518.39 1.454-4.714 1.263-.39-1.454 4.714-1.263Zm-1.399 8.921-2.338-8.726c-.144-.537-.153-1.013-.027-1.429.13-.417.36-.764.69-1.041.33-.278.725-.478 1.185-.602a4.48 4.48 0 0 1 .888-.154c.266-.016.466-.02.598-.01l.016 1.553c-.086-.002-.193 0-.321.008a1.892 1.892 0 0 0-.416.067c-.349.094-.574.245-.674.454-.098.204-.104.462-.021.773l2.305 8.603-1.885.504Zm8.228-2.037c-.779.209-1.5.218-2.163.028a3.617 3.617 0 0 1-1.714-1.081c-.476-.533-.825-1.211-1.046-2.035-.221-.824-.258-1.587-.113-2.29a3.602 3.602 0 0 1 .943-1.8c.479-.495 1.108-.847 1.887-1.056.778-.209 1.499-.218 2.162-.028.663.19 1.233.552 1.711 1.088.48.535.831 1.215 1.052 2.038.221.824.256 1.586.106 2.287a3.576 3.576 0 0 1-.938 1.792c-.479.496-1.108.848-1.887 1.057Zm-.393-1.508c.422-.114.744-.324.966-.632a2.18 2.18 0 0 0 .38-1.115 4.013 4.013 0 0 0-.141-1.375 4.03 4.03 0 0 0-.567-1.267 2.168 2.168 0 0 0-.888-.78c-.347-.16-.732-.183-1.154-.07-.432.116-.761.33-.985.643a2.202 2.202 0 0 0-.384 1.12c-.033.433.016.892.147 1.38a4.1 4.1 0 0 0 .561 1.263c.248.357.545.615.892.774.349.155.74.175 1.173.059Zm4.798-11.235 2.848 10.632-1.879.504-2.849-10.632 1.88-.504Zm4.781 10.115-2.137-7.975 1.88-.503 2.136 7.974-1.879.504Zm-1.495-9.36c-.298.08-.58.05-.848-.09a.988.988 0 0 1-.515-.635.976.976 0 0 1 .129-.808c.16-.258.39-.427.687-.507.301-.08.584-.049.849.096.268.14.439.351.515.635.076.28.033.55-.128.808a1.122 1.122 0 0 1-.689.502Zm8.827 7.562c-.779.209-1.5.218-2.163.028a3.616 3.616 0 0 1-1.714-1.082c-.477-.532-.825-1.21-1.046-2.034-.221-.824-.258-1.587-.113-2.29a3.601 3.601 0 0 1 .943-1.8c.479-.495 1.108-.847 1.887-1.056.778-.209 1.499-.218 2.162-.028.663.19 1.233.552 1.711 1.088.48.535.831 1.215 1.052 2.038.221.824.256 1.586.106 2.287a3.576 3.576 0 0 1-.938 1.792c-.48.496-1.108.848-1.887 1.057Zm-.393-1.508c.422-.114.744-.324.966-.632a2.18 2.18 0 0 0 .38-1.115 4.013 4.013 0 0 0-.141-1.375 4.03 4.03 0 0 0-.567-1.267 2.168 2.168 0 0 0-.888-.78c-.347-.16-.732-.183-1.154-.07-.432.116-.761.33-.985.643a2.202 2.202 0 0 0-.384 1.12c-.033.432.016.892.147 1.38a4.1 4.1 0 0 0 .561 1.263c.248.357.545.615.892.774.349.155.74.175 1.173.059Zm89.633 142.474c-.581.156-1.125.195-1.63.117a2.68 2.68 0 0 1-1.289-.547 2.224 2.224 0 0 1-.746-1.12l1.518-.407c.073.22.2.396.379.526.179.129.392.209.64.24.248.032.51.011.788-.064.296-.079.544-.201.746-.364.201-.166.341-.36.42-.58a1.12 1.12 0 0 0 .018-.693 1.155 1.155 0 0 0-.371-.61 1.35 1.35 0 0 0-.694-.295 2.325 2.325 0 0 0-.94.079l-.73.196-.31-1.155.731-.196c.288-.077.526-.194.715-.352.191-.158.325-.344.4-.557.075-.216.079-.444.012-.683a1.135 1.135 0 0 0-.321-.567 1.098 1.098 0 0 0-.557-.288 1.523 1.523 0 0 0-.713.035 1.85 1.85 0 0 0-.666.326c-.191.149-.33.326-.416.531-.087.202-.104.42-.05.654l-1.441.386a2.164 2.164 0 0 1 .073-1.326c.163-.422.434-.789.812-1.101a3.525 3.525 0 0 1 1.37-.687c.552-.148 1.059-.173 1.521-.074.464.095.854.286 1.17.573.317.287.531.641.644 1.061.127.465.095.892-.098 1.281-.19.389-.496.691-.917.908l.018.065c.603-.075 1.106.021 1.509.288.405.263.676.654.812 1.171.124.463.103.913-.063 1.35-.163.433-.448.815-.852 1.146-.403.33-.9.574-1.492.733Zm5.593-2.832.067.458c.053.35.078.712.075 1.088 0 .378-.012.729-.038 1.053-.026.325-.048.58-.067.767l-.985.264-.027-.711a16.994 16.994 0 0 0-.061-1.005 9.835 9.835 0 0 0-.163-1.108l-.093-.46 1.292-.346Zm1.364-.798-.319-1.191 2.023-6.484.993-.266.455 1.696-.606.162-1.359 4.376.017.064 4.898-1.312.33 1.232-6.432 1.723Zm4.356.477-.508-1.897-.127-.538-1.565-5.838 1.414-.379 2.215 8.269-1.429.383Zm6.876-1.673c-.665.178-1.28.163-1.847-.046-.565-.212-1.06-.603-1.487-1.173-.425-.573-.758-1.31-1-2.212-.238-.902-.316-1.704-.233-2.404.086-.704.321-1.286.705-1.747.387-.461.912-.781 1.574-.958.662-.178 1.276-.163 1.842.043.566.206 1.061.593 1.484 1.16.426.567.759 1.3 1 2.199.242.904.322 1.711.238 2.42-.083.706-.317 1.291-.703 1.755-.384.464-.908.785-1.573.963Zm-.338-1.264c.516-.139.856-.502 1.019-1.091.164-.592.113-1.385-.153-2.378-.176-.657-.392-1.191-.65-1.601-.257-.41-.541-.694-.851-.853a1.322 1.322 0 0 0-.981-.106c-.514.138-.852.503-1.014 1.094-.162.589-.113 1.377.149 2.363.174.66.388 1.197.643 1.61.258.413.543.7.854.862.311.159.639.192.984.1Zm4.904-.128 1.652-7.904-.015-.057-4.082 1.094-.336-1.251 5.633-1.51.343 1.28-1.64 7.931-1.555.417Zm5.89-1.483a.9.9 0 0 1-.699-.09.863.863 0 0 1-.427-.561.858.858 0 0 1 .091-.691.899.899 0 0 1 .561-.427.885.885 0 0 1 .687.093.878.878 0 0 1 .428 1.032.966.966 0 0 1-.236.41.878.878 0 0 1-.405.234Zm2.86-9.846c.396-.104.8-.137 1.211-.1.413.034.811.164 1.195.39.383.223.732.567 1.047 1.031.314.463.573 1.072.775 1.826.193.71.288 1.365.284 1.966-.001.598-.092 1.127-.271 1.588a2.98 2.98 0 0 1-.786 1.154 3.046 3.046 0 0 1-1.263.663c-.523.14-1.013.162-1.472.065a2.704 2.704 0 0 1-1.198-.579 2.764 2.764 0 0 1-.783-1.097l1.474-.395c.163.308.387.528.67.66.286.128.606.145.961.05.574-.154.948-.521 1.125-1.102.176-.581.145-1.314-.092-2.2l-.057.015a2.182 2.182 0 0 1-.348.751 2.425 2.425 0 0 1-.61.584 2.628 2.628 0 0 1-.803.362c-.484.13-.952.131-1.401.003a2.62 2.62 0 0 1-1.172-.707c-.332-.344-.568-.775-.71-1.294a2.933 2.933 0 0 1-.017-1.549c.135-.498.392-.931.773-1.298.38-.37.869-.633 1.468-.787Zm.329 1.21a1.53 1.53 0 0 0-.73.425 1.576 1.576 0 0 0-.396.72c-.068.275-.062.561.018.857.081.293.218.541.412.746.196.205.426.346.689.426.267.079.546.079.84 0 .218-.058.41-.155.576-.289.166-.134.299-.293.4-.479.102-.189.166-.389.193-.601a1.53 1.53 0 0 0-.045-.637 1.632 1.632 0 0 0-.412-.73 1.609 1.609 0 0 0-.7-.431 1.488 1.488 0 0 0-.845-.007Zm9.325 5.309a3.453 3.453 0 0 1-1.527.084 2.679 2.679 0 0 1-1.239-.568 2.3 2.3 0 0 1-.722-1.114l1.453-.389c.118.332.339.57.663.714a1.55 1.55 0 0 0 1.047.061c.293-.078.536-.216.729-.412.193-.195.323-.431.391-.706a1.692 1.692 0 0 0-.026-.871 1.708 1.708 0 0 0-.421-.779 1.524 1.524 0 0 0-.705-.421 1.596 1.596 0 0 0-.864.006c-.249.064-.48.175-.694.333a1.549 1.549 0 0 0-.47.524l-1.412.141-.711-4.38 4.797-1.285.336 1.251-3.558.953.35 2.257.048-.013c.105-.222.282-.429.53-.623a2.38 2.38 0 0 1 .872-.428 2.604 2.604 0 0 1 2.624.716c.336.352.576.793.718 1.323.146.546.15 1.067.012 1.563a2.777 2.777 0 0 1-.776 1.286c-.38.361-.861.62-1.445.777Zm7.288-1.953c-.582.155-1.125.194-1.631.116a2.673 2.673 0 0 1-1.289-.546 2.234 2.234 0 0 1-.746-1.12l1.519-.407c.073.22.199.395.379.526.178.128.391.208.639.24s.511.01.788-.064a1.99 1.99 0 0 0 .747-.364c.2-.167.34-.36.42-.58.079-.221.085-.452.017-.693a1.156 1.156 0 0 0-.371-.611 1.342 1.342 0 0 0-.693-.294 2.324 2.324 0 0 0-.94.079l-.731.195-.309-1.154.731-.196a1.85 1.85 0 0 0 .715-.352c.191-.158.324-.344.4-.557.075-.217.079-.444.012-.683a1.135 1.135 0 0 0-.321-.567 1.101 1.101 0 0 0-.558-.288 1.523 1.523 0 0 0-.713.035 1.834 1.834 0 0 0-.666.326c-.19.149-.329.326-.416.531-.087.202-.103.42-.049.654l-1.442.386a2.172 2.172 0 0 1 .073-1.326c.164-.422.435-.789.813-1.101a3.518 3.518 0 0 1 1.37-.687c.551-.148 1.058-.173 1.52-.075a2.42 2.42 0 0 1 1.171.574c.317.287.531.641.644 1.061.127.465.094.892-.099 1.281-.19.389-.495.691-.916.908l.017.065c.603-.076 1.106.02 1.51.287.405.264.676.655.811 1.172.124.463.104.913-.062 1.35-.164.433-.448.815-.853 1.146-.402.33-.899.574-1.491.733Zm4.408-1.303-.29-1.082 2.117-3.583c.2-.351.363-.659.488-.923.126-.265.207-.51.244-.737a1.592 1.592 0 0 0-.035-.682 1.26 1.26 0 0 0-.358-.623 1.22 1.22 0 0 0-.605-.305 1.625 1.625 0 0 0-.748.036 1.502 1.502 0 0 0-.669.361 1.205 1.205 0 0 0-.35.6c-.055.234-.045.492.03.775l-1.425.382c-.141-.525-.143-1.013-.007-1.465a2.51 2.51 0 0 1 .748-1.166c.365-.325.821-.562 1.368-.708.554-.149 1.069-.176 1.545-.081.475.095.877.292 1.205.59.331.298.558.679.683 1.142.082.309.105.629.066.96-.038.33-.158.717-.359 1.161-.199.443-.497.994-.894 1.655l-1.037 1.831.015.057 3.602-.965.335 1.251-5.669 1.519Zm10.06-2.574c-.581.156-1.125.195-1.63.117a2.68 2.68 0 0 1-1.289-.547 2.224 2.224 0 0 1-.746-1.12l1.518-.407c.073.22.2.396.379.526.179.129.392.208.64.24s.51.01.788-.064c.296-.079.545-.201.746-.364a1.34 1.34 0 0 0 .42-.58c.08-.221.086-.452.018-.693a1.15 1.15 0 0 0-.371-.61 1.346 1.346 0 0 0-.694-.295 2.32 2.32 0 0 0-.939.079l-.731.196-.31-1.155.731-.196c.288-.077.526-.194.715-.352.191-.158.325-.344.4-.557.075-.216.079-.444.012-.683a1.135 1.135 0 0 0-.321-.567 1.094 1.094 0 0 0-.557-.288 1.523 1.523 0 0 0-.713.035 1.85 1.85 0 0 0-.666.326c-.191.149-.33.326-.416.531-.087.202-.104.42-.05.654l-1.441.386a2.164 2.164 0 0 1 .073-1.326c.164-.422.435-.789.813-1.101a3.514 3.514 0 0 1 1.369-.687c.552-.148 1.059-.173 1.521-.074.464.094.854.286 1.171.573.316.287.53.641.643 1.061.127.465.095.892-.098 1.281-.19.389-.496.691-.917.908l.018.065c.603-.075 1.106.021 1.509.288.406.263.676.654.812 1.171.124.463.103.913-.063 1.35-.163.433-.448.815-.852 1.146-.402.33-.9.574-1.492.733Zm7.507-1.964c-.665.178-1.28.163-1.847-.046-.565-.212-1.06-.603-1.487-1.173-.425-.572-.758-1.31-.999-2.212-.239-.902-.317-1.703-.234-2.404.086-.704.321-1.286.705-1.747.387-.461.912-.781 1.574-.958.662-.177 1.276-.163 1.842.043.566.206 1.061.593 1.484 1.16.426.567.759 1.3 1 2.199.243.905.322 1.711.238 2.421-.082.705-.317 1.29-.703 1.755-.384.463-.908.784-1.573.962Zm-.338-1.264c.517-.138.856-.502 1.019-1.091.164-.592.113-1.385-.153-2.378-.176-.657-.392-1.19-.649-1.601-.257-.41-.541-.694-.852-.853a1.317 1.317 0 0 0-.981-.105c-.514.137-.852.502-1.013 1.094-.163.588-.114 1.376.148 2.362.174.66.388 1.197.643 1.61.258.413.543.7.854.862.311.159.639.192.984.1Zm4.263-1.601-.319-1.191 2.023-6.484.993-.266.455 1.695-.606.163-1.359 4.376.017.064 4.898-1.312.33 1.231-6.432 1.724Zm4.356.477-.508-1.897-.127-.538-1.565-5.838 1.414-.379 2.215 8.269-1.429.383Zm7.741-2.074-1.599.429.695-9.05 1.849-.495 5.131 7.488-1.599.428-3.97-5.981-.064.017-.443 7.164Zm-.817-3.256 4.361-1.169.322 1.204-4.36 1.168-.323-1.203Zm7.983 1.336-2.216-8.269 3.101-.831c.635-.17 1.198-.203 1.688-.098a2.35 2.35 0 0 1 1.23.666c.329.336.564.768.706 1.295.142.531.152 1.021.031 1.472-.12.448-.369.836-.748 1.166-.38.327-.888.575-1.523.745l-2.209.592-.333-1.244 2.007-.537c.371-.1.662-.232.871-.398a1.13 1.13 0 0 0 .403-.597c.062-.233.053-.496-.025-.79a1.578 1.578 0 0 0-.375-.704 1.142 1.142 0 0 0-.657-.335c-.266-.047-.587-.02-.961.08l-1.373.368 1.881 7.018-1.498.401Zm3.268-4.892 3.051 3.199-1.672.448-3.015-3.208 1.636-.439Zm4.127 2.911-2.216-8.27 1.498-.401 1.018 3.799.101-.027 2.208-4.664 1.829-.49-2.203 4.568 4.447 3.694-1.8.483-3.417-2.885-.627 1.328.66 2.463-1.498.402Z" fill="#212225"/><path d="M362.875 232.18a2.943 2.943 0 0 1-1.309.072 2.289 2.289 0 0 1-1.062-.487 1.977 1.977 0 0 1-.619-.954l1.246-.334c.101.285.291.489.568.612.278.121.577.139.897.053.252-.068.46-.185.625-.353.166-.168.277-.37.335-.606a1.454 1.454 0 0 0-.022-.747 1.458 1.458 0 0 0-.36-.667 1.314 1.314 0 0 0-.605-.361 1.372 1.372 0 0 0-.741.005c-.213.055-.411.15-.595.286a1.323 1.323 0 0 0-.402.449l-1.211.12-.609-3.754 4.112-1.101.287 1.072-3.049.817.3 1.934.041-.011c.09-.19.242-.367.454-.533.213-.168.462-.291.748-.367a2.234 2.234 0 0 1 2.249.614c.288.301.494.679.615 1.133.126.469.129.915.011 1.34a2.38 2.38 0 0 1-.666 1.102c-.325.31-.738.532-1.238.666Zm4.664-2.392.057.392c.046.3.067.61.064.933.001.324-.01.624-.032.902s-.041.497-.058.658l-.844.226-.023-.61a14.166 14.166 0 0 0-.052-.861 8.404 8.404 0 0 0-.14-.95l-.079-.394 1.107-.296Zm2.08-7.22c.34-.089.686-.117 1.038-.085.354.029.696.14 1.024.334.329.191.628.486.898.883.269.398.491.92.664 1.566a6.33 6.33 0 0 1 .244 1.685c-.002.512-.079.966-.233 1.361a2.55 2.55 0 0 1-.673.989 2.59 2.59 0 0 1-1.083.568c-.448.12-.868.139-1.261.056a2.308 2.308 0 0 1-1.027-.496 2.377 2.377 0 0 1-.672-.94l1.264-.339c.14.264.331.453.574.566.245.11.519.124.824.042.491-.131.813-.446.964-.944.151-.498.124-1.127-.079-1.886l-.048.013a1.895 1.895 0 0 1-.299.644 2.06 2.06 0 0 1-.523.5 2.254 2.254 0 0 1-.688.311 2.217 2.217 0 0 1-1.201.002 2.255 2.255 0 0 1-1.005-.606 2.517 2.517 0 0 1-.608-1.109 2.518 2.518 0 0 1-.015-1.328c.116-.427.337-.797.663-1.112.325-.317.745-.542 1.258-.675Zm.282 1.037a1.322 1.322 0 0 0-.626.365 1.353 1.353 0 0 0-.339.617c-.058.236-.053.481.015.734.07.251.187.465.353.64.168.175.365.297.591.365.229.067.468.067.72 0a1.336 1.336 0 0 0 .836-.658 1.453 1.453 0 0 0 .128-1.062 1.404 1.404 0 0 0-.353-.625 1.389 1.389 0 0 0-.6-.37 1.275 1.275 0 0 0-.725-.006Zm8.158 4.547c-.569.153-1.097.139-1.583-.04-.484-.181-.909-.516-1.274-1.005-.364-.491-.65-1.123-.857-1.895-.205-.774-.272-1.461-.2-2.061.073-.604.275-1.103.604-1.498.332-.395.782-.669 1.349-.821.568-.152 1.094-.14 1.579.037.485.177.909.508 1.272.994.365.486.651 1.114.857 1.885.208.775.276 1.467.204 2.075-.071.605-.271 1.106-.602 1.504-.329.397-.779.672-1.349.825Zm-.29-1.083c.443-.119.734-.431.874-.935.141-.508.097-1.188-.131-2.039-.151-.563-.337-1.02-.557-1.372-.22-.351-.464-.595-.73-.731a1.13 1.13 0 0 0-.84-.091c-.441.118-.731.431-.869.938-.14.505-.097 1.18.127 2.025.149.566.333 1.026.551 1.38.221.354.465.6.732.739.267.136.548.165.843.086Zm5.119-7.952 1.899 7.088-1.284.344-1.565-5.839-.041.011-1.374 1.503-.315-1.176 1.458-1.604 1.222-.327Zm4.114 6.576a.772.772 0 0 1-.599-.077.747.747 0 0 1-.366-.481.731.731 0 0 1 .079-.592c.11-.188.27-.31.48-.366a.755.755 0 0 1 .589.079.754.754 0 0 1 .367.885.818.818 0 0 1-.203.351.748.748 0 0 1-.347.201Zm2.452-8.44c.34-.088.686-.117 1.038-.085.354.029.695.14 1.024.334.329.191.628.486.897.883.27.398.492.92.665 1.566.165.608.246 1.17.244 1.685-.002.513-.079.966-.233 1.361a2.533 2.533 0 0 1-.674.989 2.606 2.606 0 0 1-1.082.569c-.448.12-.868.138-1.262.056a2.326 2.326 0 0 1-1.027-.497 2.377 2.377 0 0 1-.671-.94l1.264-.339c.14.264.331.453.574.566.245.11.519.124.824.043.491-.132.813-.447.963-.945.151-.498.125-1.126-.078-1.885l-.049.013a1.87 1.87 0 0 1-.298.643 2.044 2.044 0 0 1-.523.5 2.254 2.254 0 0 1-.688.311 2.227 2.227 0 0 1-1.201.003 2.248 2.248 0 0 1-1.005-.607 2.523 2.523 0 0 1-.609-1.109 2.528 2.528 0 0 1-.014-1.328c.116-.426.336-.797.663-1.112.325-.317.745-.542 1.258-.675Zm.282 1.038a1.312 1.312 0 0 0-.626.364 1.353 1.353 0 0 0-.339.617c-.058.236-.053.481.015.735.07.251.187.464.353.639a1.295 1.295 0 0 0 1.311.365 1.321 1.321 0 0 0 .836-.658c.088-.162.143-.334.166-.516a1.298 1.298 0 0 0-.039-.546 1.393 1.393 0 0 0-.352-.625 1.389 1.389 0 0 0-.6-.369 1.275 1.275 0 0 0-.725-.006Zm7.992 4.55a2.952 2.952 0 0 1-1.308.072 2.28 2.28 0 0 1-1.062-.487 1.974 1.974 0 0 1-.619-.954l1.246-.334c.101.285.29.488.568.612.277.121.576.138.897.053a1.287 1.287 0 0 0 .96-.959 1.454 1.454 0 0 0-.022-.747 1.46 1.46 0 0 0-.361-.667 1.309 1.309 0 0 0-.605-.361 1.359 1.359 0 0 0-.74.005c-.213.055-.411.15-.595.286a1.318 1.318 0 0 0-.403.449l-1.21.12-.609-3.754 4.112-1.102.287 1.073-3.049.817.299 1.934.042-.011c.09-.19.241-.367.454-.533.212-.168.461-.291.748-.367a2.264 2.264 0 0 1 1.23-.004c.391.111.73.317 1.019.618.288.301.493.679.615 1.133.126.468.129.915.011 1.34a2.38 2.38 0 0 1-.666 1.102c-.325.31-.738.532-1.239.666Zm8.733-10.041 1.284-.344 1.241 4.631c.136.507.136.986-.001 1.436a2.512 2.512 0 0 1-.762 1.172c-.374.33-.849.572-1.426.727-.579.155-1.113.183-1.602.084a2.512 2.512 0 0 1-1.246-.634c-.341-.322-.579-.736-.715-1.244l-1.241-4.631 1.284-.344 1.212 4.524c.079.295.214.541.406.737.193.195.426.327.699.395a1.8 1.8 0 0 0 .896-.033c.326-.087.59-.227.793-.42.205-.196.341-.426.408-.691a1.649 1.649 0 0 0-.018-.841l-1.212-4.524Zm7.054.198a.977.977 0 0 0-.597-.596c-.283-.105-.615-.106-.996-.004a1.824 1.824 0 0 0-.656.305c-.17.132-.287.281-.351.447a.826.826 0 0 0 .174.873c.098.09.217.157.355.202.137.042.284.07.441.082.157.012.312.016.467.012l.709-.012c.284-.009.564.006.839.046.278.039.536.114.776.222.242.109.451.262.627.459.177.198.306.45.388.757.112.415.104.809-.024 1.182-.128.371-.369.699-.723.984-.352.282-.812.5-1.38.652-.551.148-1.053.19-1.505.129a2.222 2.222 0 0 1-1.148-.494c-.314-.267-.543-.633-.688-1.099l1.263-.339c.085.242.216.427.394.555.177.128.384.204.621.227a2.13 2.13 0 0 0 .759-.074c.279-.074.513-.181.7-.321.19-.142.324-.304.404-.486a.885.885 0 0 0 .041-.582.707.707 0 0 0-.285-.414 1.24 1.24 0 0 0-.528-.185 4.439 4.439 0 0 0-.724-.043l-.862.008c-.624.007-1.147-.097-1.567-.311-.42-.216-.697-.578-.833-1.086a1.891 1.891 0 0 1 .045-1.188c.144-.375.39-.702.735-.98a3.36 3.36 0 0 1 1.262-.62c.503-.135.968-.165 1.393-.091.427.071.79.232 1.09.483.299.249.506.572.62.969l-1.236.331Zm6.256 3.833-2.402.643-1.899-7.088 2.451-.656c.703-.189 1.346-.209 1.927-.061a2.943 2.943 0 0 1 1.495.902c.414.455.72 1.051.917 1.787.198.738.231 1.409.098 2.014a2.947 2.947 0 0 1-.853 1.538c-.436.421-1.014.728-1.734.921Zm-1.415-.812 1.055-.283c.494-.132.882-.332 1.164-.601.281-.27.456-.608.526-1.012.069-.407.031-.882-.115-1.424-.145-.542-.348-.97-.61-1.283a1.768 1.768 0 0 0-.954-.609c-.371-.093-.797-.076-1.276.053l-1.094.293 1.304 4.866Z" fill="#A5ADB9"/><rect x="203.477" y="241.639" width="36.996" height="36.996" rx="10.09" transform="rotate(-15 203.477 241.639)" fill="#E6EFF9"/><path fill-rule="evenodd" clip-rule="evenodd" d="m225.466 252.1-7.032 12.883 5.555-18.395 13.937 13.172-12.46-7.66Zm-2.231 8.616.988-2.271 5.39-1.444 1.99 1.473-8.368 2.242Zm1.101-3.3 1.612-3.392 3.061 2.14-4.673 1.252Z" fill="#235B95"/><rect x="464.6" y="209.103" width="26.907" height="35.315" rx="7.567" transform="rotate(165 464.6 209.103)" fill="#fff"/><g clip-path="url(#g)"><path d="m444.238 197.943 2.259-3.914a.257.257 0 0 1 .325-.087l3.913 2.26" stroke="#637282" stroke-width="1.682" stroke-linecap="round" stroke-linejoin="round"/></g><rect x="464.6" y="209.103" width="26.907" height="35.315" rx="7.567" transform="rotate(165 464.6 209.103)" stroke="#E6EFF9" stroke-width="1.682" stroke-linejoin="round"/><rect x="217.307" y="290.832" width="260.204" height="123.149" rx="9.443" transform="rotate(-15 217.307 290.832)" fill="#F7FAFB" stroke="#DBDEE5" stroke-width="1.293" stroke-dasharray="2.59 2.59"/><path fill="#F7FAFB" d="m143.928 123.529 304.566-81.608 28.291 105.583-304.566 81.608z"/><path d="m174.281 131.848 1.692-.453 3.003 3.116.081-.022 1.043-4.2 1.692-.453-1.619 5.99.826 3.085-1.494.401-.826-3.085-4.398-4.379Zm12.306 5.696c-.606.162-1.167.17-1.682.022a2.812 2.812 0 0 1-1.334-.841c-.37-.415-.641-.942-.813-1.583-.172-.64-.201-1.234-.088-1.781.116-.547.36-1.014.733-1.399.373-.386.862-.66 1.468-.822.605-.162 1.166-.17 1.682-.022.515.147.959.43 1.33.846.374.417.647.945.819 1.586.171.64.199 1.233.082 1.778a2.779 2.779 0 0 1-.73 1.394c-.372.386-.862.66-1.467.822Zm-.306-1.173c.328-.088.579-.252.751-.491.172-.243.27-.532.296-.867a3.122 3.122 0 0 0-.109-1.07 3.122 3.122 0 0 0-.442-.985 1.678 1.678 0 0 0-.69-.607c-.27-.124-.569-.142-.898-.054-.336.09-.592.256-.766.499a1.722 1.722 0 0 0-.299.872c-.025.336.013.694.115 1.073.101.377.246.705.436.983.193.277.424.477.694.601.271.121.575.136.912.046Zm7.74-3.744-.963-3.594 1.461-.392 1.662 6.202-1.417.38-.295-1.102-.065.017c-.047.385-.201.73-.462 1.037-.259.306-.621.521-1.086.646-.407.109-.79.115-1.151.018-.359-.1-.672-.3-.94-.6-.269-.303-.469-.703-.602-1.198l-1.058-3.949 1.461-.392.998 3.723c.105.393.297.677.574.85.277.174.591.214.941.121.215-.058.41-.167.584-.326.173-.159.297-.359.371-.601.075-.245.071-.526-.013-.84Zm3.663 1.814-1.661-6.203 1.417-.379.277 1.033.064-.017c.018-.388.137-.716.36-.983.225-.271.515-.454.87-.549.081-.022.172-.042.274-.061a1.94 1.94 0 0 1 .262-.04l.36 1.345a1.571 1.571 0 0 0-.31.022 2.911 2.911 0 0 0-.391.075 1.517 1.517 0 0 0-.672.366c-.18.169-.303.371-.37.606-.067.234-.066.483.005.747l.977 3.646-1.462.392Zm7.394-1.981-2.216-8.27 3.165-.848c.598-.16 1.12-.199 1.566-.117.448.079.814.254 1.097.524.286.27.483.609.593 1.019.09.336.103.641.038.916a1.7 1.7 0 0 1-.366.717 2.285 2.285 0 0 1-.646.514l.022.081c.298-.062.603-.048.916.045.315.088.599.257.85.507.252.25.434.585.547 1.005.114.428.114.841-.002 1.238-.116.395-.357.747-.721 1.055-.365.308-.863.547-1.496.717l-3.347.897Zm1.162-1.654 1.611-.431c.544-.146.908-.355 1.092-.626.186-.275.235-.577.147-.905a1.279 1.279 0 0 0-1.001-.943 1.775 1.775 0 0 0-.846.04l-1.652.443.649 2.422Zm-.938-3.5 1.482-.397c.259-.07.479-.179.661-.329.181-.152.308-.332.379-.539.074-.21.078-.436.013-.678a1.065 1.065 0 0 0-.551-.701c-.279-.147-.639-.162-1.081-.043l-1.514.405.611 2.282Zm9.002 2.815a2.66 2.66 0 0 1-1.118.075 1.801 1.801 0 0 1-.912-.431c-.254-.229-.436-.546-.545-.953-.094-.35-.107-.657-.039-.92s.195-.494.382-.691c.187-.197.411-.368.672-.513.263-.149.541-.279.834-.392.353-.135.639-.248.857-.338.217-.093.369-.186.454-.278.087-.095.111-.213.074-.353l-.007-.024c-.081-.304-.234-.515-.46-.634-.225-.119-.507-.132-.846-.042-.358.096-.621.25-.789.463a1.201 1.201 0 0 0-.272.666l-1.417.171c.007-.405.1-.768.28-1.087.179-.322.431-.595.755-.817a3.608 3.608 0 0 1 1.135-.512c.299-.08.606-.125.921-.134a2.6 2.6 0 0 1 .904.13c.288.093.543.257.764.492.224.234.392.557.502.969l1.112 4.151-1.405.376-.228-.852-.049.013a1.833 1.833 0 0 1-.751 1.106 2.49 2.49 0 0 1-.808.359Zm.092-1.175c.293-.079.532-.205.717-.378a1.34 1.34 0 0 0 .371-.602 1.24 1.24 0 0 0 .008-.681l-.196-.731a.711.711 0 0 1-.206.167 3.415 3.415 0 0 1-.341.183c-.128.06-.256.117-.382.171l-.331.141c-.21.088-.392.189-.546.302a1.003 1.003 0 0 0-.332.392.71.71 0 0 0-.026.5c.072.269.225.446.458.531.233.085.502.086.806.005Zm3.865-8.882 2.216 8.269-1.462.392-2.216-8.269 1.462-.392Zm5.537 7.514c-.393.105-.766.13-1.118.074a1.79 1.79 0 0 1-.912-.431c-.254-.229-.436-.546-.545-.953-.094-.35-.107-.656-.039-.92.068-.263.195-.494.382-.691.187-.197.41-.368.672-.513.263-.148.541-.279.834-.392.353-.135.639-.248.857-.338.217-.093.369-.185.454-.277.086-.096.111-.214.074-.354l-.007-.024c-.081-.304-.235-.515-.46-.634-.225-.119-.507-.132-.846-.041-.358.095-.621.25-.789.462a1.204 1.204 0 0 0-.272.666l-1.417.172c.007-.406.1-.769.28-1.088.179-.322.431-.594.755-.817a3.597 3.597 0 0 1 1.135-.512c.299-.08.606-.125.921-.134a2.6 2.6 0 0 1 .904.13c.288.093.542.257.764.492.224.234.392.557.502.969l1.112 4.151-1.405.376-.228-.852-.049.013a1.828 1.828 0 0 1-.245.586c-.119.19-.288.364-.506.52a2.513 2.513 0 0 1-.808.36Zm.092-1.176c.293-.079.532-.205.717-.378.183-.176.307-.377.371-.602.066-.225.069-.453.007-.681l-.195-.731a.728.728 0 0 1-.206.168 3.64 3.64 0 0 1-.341.182c-.128.06-.256.117-.383.171-.126.055-.236.101-.33.141-.21.088-.392.189-.546.302a1.002 1.002 0 0 0-.332.392.71.71 0 0 0-.026.5c.072.27.224.446.458.531.233.085.502.086.806.005Zm5.107-4.247.974 3.634-1.462.392-1.662-6.202 1.397-.374.283 1.054.072-.02a1.84 1.84 0 0 1 .461-1.011c.26-.288.622-.495 1.085-.619.428-.115.825-.123 1.192-.025.369.097.688.296.956.596.27.3.471.698.601 1.194l1.058 3.949-1.462.391-.997-3.723c-.111-.414-.306-.71-.584-.886-.275-.177-.602-.215-.978-.114a1.404 1.404 0 0 0-.637.352 1.22 1.22 0 0 0-.336.605 1.68 1.68 0 0 0 .039.807Zm9.179 1.566c-.619.166-1.188.172-1.705.019a2.815 2.815 0 0 1-1.323-.853c-.366-.418-.633-.941-.801-1.568-.169-.63-.197-1.218-.083-1.765a2.805 2.805 0 0 1 .722-1.405c.372-.391.86-.668 1.466-.83.503-.135.973-.161 1.411-.08.439.079.82.255 1.141.53.321.272.558.627.71 1.065l-1.397.374a1.388 1.388 0 0 0-.604-.639c-.264-.145-.573-.171-.925-.076-.299.08-.54.231-.723.453a1.612 1.612 0 0 0-.345.828c-.043.332-.009.707.102 1.124.114.422.273.769.478 1.04.205.269.441.455.708.559.27.101.556.111.861.029.215-.057.397-.149.545-.275a1.2 1.2 0 0 0 .335-.476c.074-.187.103-.398.086-.633l1.397-.374c.083.448.058.872-.075 1.271a2.386 2.386 0 0 1-.7 1.036c-.335.291-.762.507-1.281.646Zm6.603-1.769c-.622.166-1.194.181-1.715.044a2.719 2.719 0 0 1-1.335-.829c-.37-.414-.642-.945-.816-1.594-.171-.638-.2-1.231-.087-1.777.115-.55.356-1.019.723-1.406.366-.389.845-.663 1.437-.822a3.248 3.248 0 0 1 1.132-.104c.374.029.726.137 1.056.323.332.185.627.455.883.81.256.353.457.801.603 1.345l.12.448-5.084 1.362-.264-.985 3.683-.987a1.628 1.628 0 0 0-.382-.698 1.371 1.371 0 0 0-.636-.388 1.449 1.449 0 0 0-.786.007c-.299.08-.542.223-.729.429a1.55 1.55 0 0 0-.377.707c-.062.265-.057.536.014.814l.231.86c.097.361.245.653.447.876.2.221.437.368.711.441.273.072.568.065.886-.021a1.84 1.84 0 0 0 .553-.243c.156-.108.281-.238.376-.391.095-.152.151-.324.169-.517l1.406-.212c.01.384-.07.743-.24 1.077-.168.331-.419.62-.754.868a3.665 3.665 0 0 1-1.225.563Z" fill="#A5ADB9"/><path d="M186.478 161.416c-.665.178-1.286.223-1.864.133-.574-.09-1.065-.298-1.473-.624a2.551 2.551 0 0 1-.852-1.28l1.735-.465c.084.251.228.452.433.601.204.147.448.238.731.274.284.037.584.012.901-.073a2.26 2.26 0 0 0 .853-.416c.229-.19.389-.411.48-.663.091-.252.097-.516.02-.792a1.322 1.322 0 0 0-.424-.697 1.536 1.536 0 0 0-.793-.337c-.316-.047-.674-.017-1.074.09l-.835.224-.354-1.32.836-.224c.329-.088.601-.222.817-.402.219-.18.371-.393.457-.637.086-.247.09-.507.014-.78a1.31 1.31 0 0 0-.367-.649 1.258 1.258 0 0 0-.637-.328 1.734 1.734 0 0 0-.815.04 2.121 2.121 0 0 0-.761.372 1.51 1.51 0 0 0-.475.607c-.1.231-.119.48-.057.747l-1.648.442a2.486 2.486 0 0 1 .084-1.516c.187-.482.497-.902.929-1.258.431-.36.953-.621 1.565-.785.631-.169 1.21-.198 1.738-.085.53.108.976.327 1.338.655.362.329.607.733.735 1.213.146.531.109 1.019-.112 1.464-.217.444-.566.79-1.047 1.037l.019.074c.69-.085 1.265.024 1.726.329.463.302.772.748.927 1.339.142.53.118 1.044-.071 1.543-.187.495-.512.932-.975 1.31-.459.377-1.027.656-1.704.837Zm4.397-3.196-.365-1.361 2.313-7.411 1.135-.304.519 1.938-.692.186-1.553 5.001.02.074 5.597-1.5.377 1.407-7.351 1.97Zm4.979.545-.582-2.168-.144-.615-1.788-6.672 1.615-.433 2.532 9.451-1.633.437Zm5.684-2.907.076.523c.06.399.089.814.085 1.243.001.432-.014.833-.043 1.204-.029.371-.055.663-.077.876l-1.126.302-.03-.813a18.958 18.958 0 0 0-.07-1.148 11.042 11.042 0 0 0-.186-1.266l-.106-.526 1.477-.395Zm2.199.795-.332-1.237 2.419-4.095c.229-.401.415-.753.559-1.055a3.22 3.22 0 0 0 .279-.841 1.846 1.846 0 0 0-.041-.781 1.44 1.44 0 0 0-.409-.711 1.4 1.4 0 0 0-.692-.349 1.865 1.865 0 0 0-.854.041 1.715 1.715 0 0 0-.765.413c-.2.189-.333.417-.4.686-.063.267-.052.563.035.886l-1.629.436c-.161-.6-.164-1.158-.009-1.674.155-.517.44-.961.855-1.332.418-.373.939-.643 1.564-.81.634-.17 1.222-.201 1.765-.092a2.818 2.818 0 0 1 1.378.674c.378.341.638.775.78 1.305.095.353.12.719.076 1.097-.043.378-.181.82-.411 1.327-.227.506-.567 1.136-1.021 1.891l-1.185 2.093.017.065 4.116-1.103.384 1.43-6.479 1.736Zm11.391-2.914c-.615.165-1.197.197-1.745.097a3.042 3.042 0 0 1-1.415-.65 2.623 2.623 0 0 1-.826-1.272l1.661-.445c.135.379.387.651.758.816.37.161.768.185 1.196.07.335-.09.613-.247.833-.471.221-.223.369-.493.447-.807a1.946 1.946 0 0 0-.03-.996 1.952 1.952 0 0 0-.481-.89 1.743 1.743 0 0 0-.806-.481 1.83 1.83 0 0 0-.987.007c-.284.073-.549.2-.794.381a1.768 1.768 0 0 0-.536.599l-1.614.16-.812-5.005 5.482-1.469.383 1.43-4.065 1.09.399 2.578.055-.014c.12-.253.322-.491.606-.712.283-.224.615-.387.996-.489a2.979 2.979 0 0 1 2.999.818c.385.402.658.906.821 1.512.167.624.172 1.22.014 1.786a3.178 3.178 0 0 1-.888 1.47c-.433.413-.984.709-1.651.887Zm8.329-2.231c-.664.178-1.285.222-1.863.133-.575-.09-1.066-.298-1.473-.624a2.547 2.547 0 0 1-.853-1.28l1.735-.465c.084.251.229.451.433.601.205.146.448.238.732.274.283.036.583.012.9-.073.338-.091.623-.23.853-.417.229-.19.389-.411.48-.663.091-.252.098-.515.02-.792a1.32 1.32 0 0 0-.424-.697 1.537 1.537 0 0 0-.792-.337c-.316-.047-.674-.017-1.074.09l-.836.224-.353-1.32.835-.223c.329-.089.602-.223.817-.402.219-.181.371-.393.458-.637.085-.248.09-.508.013-.781a1.305 1.305 0 0 0-.366-.648 1.255 1.255 0 0 0-.638-.329 1.747 1.747 0 0 0-.815.04 2.121 2.121 0 0 0-.761.372 1.514 1.514 0 0 0-.475.608c-.1.231-.119.48-.057.747l-1.647.441a2.479 2.479 0 0 1 .083-1.516c.187-.482.497-.901.929-1.258a4.044 4.044 0 0 1 1.565-.785c.631-.169 1.21-.197 1.738-.085.531.109.977.327 1.338.656.362.328.607.732.736 1.212.145.531.108 1.02-.112 1.464-.218.444-.567.79-1.048 1.038l.02.074c.689-.086 1.264.024 1.725.329.463.301.773.747.928 1.339a2.454 2.454 0 0 1-.072 1.542c-.187.496-.512.932-.974 1.31-.46.377-1.028.656-1.705.838Zm5.834-1.593c-.28.075-.547.041-.799-.103a.987.987 0 0 1-.488-.64.977.977 0 0 1 .104-.79c.148-.251.361-.413.641-.488.271-.073.533-.038.785.106a1 1 0 0 1 .49 1.179 1.104 1.104 0 0 1-.271.468.997.997 0 0 1-.462.268Zm2.736-.842 1.887-9.033-.017-.064-4.665 1.25-.384-1.431 6.438-1.725.392 1.463-1.875 9.064-1.776.476Zm10.474-2.668c-.616.165-1.197.197-1.745.096a3.049 3.049 0 0 1-1.416-.649 2.628 2.628 0 0 1-.825-1.272l1.661-.446c.135.38.387.652.758.816.369.162.768.185 1.196.07a1.722 1.722 0 0 0 1.28-1.277 1.946 1.946 0 0 0-.03-.996 1.947 1.947 0 0 0-.481-.89 1.758 1.758 0 0 0-.806-.482 1.83 1.83 0 0 0-.987.008 2.264 2.264 0 0 0-.794.38 1.772 1.772 0 0 0-.537.599l-1.614.161-.811-5.006 5.482-1.469.383 1.431-4.065 1.089.399 2.579.055-.015c.12-.253.322-.49.606-.711.283-.224.615-.388.996-.49a3.01 3.01 0 0 1 1.641-.004c.521.147.974.421 1.358.823.385.401.658.905.821 1.511.167.625.172 1.22.013 1.787a3.165 3.165 0 0 1-.887 1.469c-.433.413-.984.709-1.651.888Zm11.643-13.388 1.713-.459 1.654 6.175c.181.677.181 1.315-.001 1.914a3.36 3.36 0 0 1-1.016 1.563c-.499.44-1.132.764-1.902.97-.772.207-1.484.244-2.136.112a3.357 3.357 0 0 1-1.661-.846c-.454-.429-.772-.981-.954-1.658l-1.654-6.175 1.712-.458 1.616 6.031c.106.394.286.721.54.983.258.261.569.436.933.527.363.087.761.073 1.195-.044.434-.116.786-.303 1.057-.56.273-.261.454-.568.544-.922.09-.354.082-.728-.023-1.122l-1.617-6.031Zm9.406.265a1.305 1.305 0 0 0-.797-.796c-.377-.14-.82-.141-1.327-.005a2.426 2.426 0 0 0-.875.407 1.405 1.405 0 0 0-.469.596c-.086.22-.098.45-.038.687a.994.994 0 0 0 .271.477c.131.12.289.209.473.269.183.056.379.093.588.109.209.017.416.022.623.017l.945-.016a6.21 6.21 0 0 1 1.119.061c.37.052.715.151 1.034.296.323.145.601.349.837.612.235.263.408.6.517 1.009.149.554.138 1.079-.032 1.576-.171.495-.492.932-.964 1.312-.47.377-1.083.666-1.84.869-.735.197-1.404.254-2.006.172-.6-.084-1.11-.303-1.532-.658-.418-.356-.724-.845-.917-1.466l1.684-.451c.113.322.288.569.525.74.237.17.513.271.828.302a2.85 2.85 0 0 0 1.012-.098c.373-.1.684-.243.934-.428.253-.19.432-.406.539-.649.105-.246.123-.505.054-.776a.934.934 0 0 0-.38-.551 1.648 1.648 0 0 0-.704-.247 6.025 6.025 0 0 0-.966-.058l-1.149.011c-.832.009-1.528-.129-2.089-.414-.559-.289-.929-.772-1.111-1.448-.149-.557-.129-1.085.061-1.584.192-.5.519-.936.98-1.307.46-.374 1.021-.649 1.683-.827.67-.179 1.289-.22 1.856-.121.57.095 1.054.309 1.454.644.399.332.674.762.826 1.292l-1.647.442Zm8.341 5.109-3.202.858-2.533-9.45 3.268-.876c.938-.251 1.795-.278 2.57-.08a3.92 3.92 0 0 1 1.993 1.202c.552.607.96 1.401 1.223 2.383.263.984.307 1.879.131 2.685a3.929 3.929 0 0 1-1.138 2.05c-.581.562-1.352.971-2.312 1.228Zm-1.887-1.082 1.407-.377c.659-.176 1.176-.443 1.551-.801.375-.361.609-.811.702-1.35.092-.543.041-1.176-.153-1.898-.193-.723-.465-1.294-.814-1.711a2.346 2.346 0 0 0-1.271-.812c-.495-.125-1.063-.101-1.702.07l-1.459.391 1.739 6.488Z" fill="#212225"/><path d="m331.979 98.459-1.599.428.695-9.05 1.849-.495 5.131 7.489-1.599.428-3.97-5.982-.064.018-.443 7.164Zm-.817-3.256 4.361-1.169.322 1.203-4.36 1.169-.323-1.203Zm11.497-4.496-1.293.502a1.113 1.113 0 0 0-.3-.326 1.012 1.012 0 0 0-.448-.188 1.402 1.402 0 0 0-.603.045c-.304.082-.542.216-.714.404-.169.186-.224.384-.165.593.045.181.151.31.316.388.167.076.418.108.753.096l1.118-.057c.621-.03 1.111.053 1.47.251.361.197.603.518.725.961.101.391.079.767-.067 1.126-.144.356-.393.67-.746.945-.354.273-.789.48-1.306.618-.759.203-1.413.208-1.961.014a1.984 1.984 0 0 1-1.186-1.114l1.389-.52c.139.263.333.438.581.524.249.087.541.085.877-.006.348-.093.607-.239.779-.438.174-.2.233-.404.177-.614a.567.567 0 0 0-.324-.385c-.165-.08-.399-.112-.701-.098l-1.117.062c-.628.035-1.124-.055-1.488-.272-.365-.22-.607-.556-.725-1.01-.105-.38-.09-.74.045-1.076a2.1 2.1 0 0 1 .709-.89c.337-.259.754-.454 1.249-.587.727-.195 1.34-.193 1.841.005a2.02 2.02 0 0 1 1.115 1.047Zm6.241-1.672-1.294.502a1.096 1.096 0 0 0-.299-.327 1.023 1.023 0 0 0-.449-.187 1.4 1.4 0 0 0-.602.045c-.304.082-.542.216-.714.403-.17.187-.225.385-.166.594.046.181.151.31.316.387.168.077.419.109.753.097l1.119-.057c.62-.03 1.11.053 1.469.251.362.197.603.518.725.961.102.391.08.767-.066 1.126-.144.356-.393.67-.747.944-.354.274-.789.48-1.306.618-.759.204-1.412.209-1.961.015a1.982 1.982 0 0 1-1.185-1.114l1.388-.52c.14.263.334.438.582.524.248.086.54.085.877-.006.347-.093.607-.239.778-.438.175-.2.234-.404.178-.614a.572.572 0 0 0-.324-.385c-.166-.08-.4-.112-.702-.098l-1.117.062c-.628.035-1.124-.055-1.488-.272-.365-.22-.606-.556-.725-1.01-.105-.38-.09-.74.045-1.076.137-.34.373-.637.709-.891.338-.258.754-.453 1.25-.586.726-.195 1.34-.193 1.84.005.503.197.875.546 1.116 1.047Zm5.339 3.59c-.622.166-1.193.18-1.715.043a2.72 2.72 0 0 1-1.334-.828c-.371-.414-.643-.946-.817-1.595-.171-.638-.2-1.23-.086-1.777.115-.55.356-1.018.722-1.405.366-.39.845-.664 1.437-.822.383-.103.76-.137 1.132-.105.375.03.727.138 1.056.323.333.185.627.456.884.811.256.353.457.8.603 1.345l.12.448-5.084 1.362-.264-.985 3.683-.987a1.63 1.63 0 0 0-.382-.698 1.37 1.37 0 0 0-.637-.388 1.443 1.443 0 0 0-.785.007c-.299.08-.542.223-.729.429a1.557 1.557 0 0 0-.378.707 1.69 1.69 0 0 0 .015.814l.23.86c.097.36.246.653.447.876.201.22.438.367.711.441.273.071.569.064.886-.02.213-.058.397-.14.554-.244a1.34 1.34 0 0 0 .376-.391 1.17 1.17 0 0 0 .168-.517l1.406-.212c.011.383-.069.742-.239 1.076-.168.331-.42.62-.754.869a3.66 3.66 0 0 1-1.226.562Zm5.397-8.224.303 1.13-3.565.956-.303-1.13 3.565-.956Zm-3.083-.767 1.462-.391 1.56 5.822c.052.197.122.34.21.429a.496.496 0 0 0 .298.145 1 1 0 0 0 .347-.032 2.042 2.042 0 0 0 .412-.171l.553 1.076a3.48 3.48 0 0 1-.311.179c-.134.07-.304.136-.51.197a2.468 2.468 0 0 1-1.034.1 1.596 1.596 0 0 1-.852-.387c-.239-.213-.409-.513-.51-.902l-1.625-6.065Zm9.558.789-1.294.502a1.096 1.096 0 0 0-.299-.326 1.019 1.019 0 0 0-.448-.187 1.405 1.405 0 0 0-.603.044c-.304.082-.542.216-.714.404-.169.186-.225.384-.166.594.046.18.151.31.316.387.168.076.419.108.753.097l1.119-.058c.62-.03 1.11.053 1.469.251.362.198.603.518.725.962.102.39.08.766-.066 1.125-.144.356-.393.671-.747.945-.353.273-.789.48-1.306.618-.759.203-1.412.208-1.96.015a1.983 1.983 0 0 1-1.186-1.115l1.388-.52c.14.263.334.438.582.524.248.087.541.085.877-.005.347-.094.607-.24.779-.438.174-.2.233-.405.177-.615a.572.572 0 0 0-.324-.385c-.166-.08-.399-.112-.701-.098l-1.118.062c-.628.035-1.124-.055-1.488-.272-.365-.22-.606-.556-.725-1.01-.105-.38-.09-.74.045-1.076a2.1 2.1 0 0 1 .709-.89c.338-.259.754-.454 1.25-.587.727-.194 1.34-.193 1.84.005.503.197.875.546 1.116 1.047Z" fill="#A5ADB9"/><path d="m363.52 111.961-.365-1.362 2.313-7.41 1.135-.304.519 1.938-.692.185-1.553 5.001.02.074 5.597-1.5.377 1.408-7.351 1.97Zm4.979.545-.582-2.169-.144-.614-1.788-6.673 1.615-.432 2.532 9.45-1.633.438Z" fill="#637282"/><path fill="#DBDEE5" d="m377.244 74.938.812-.218 10.011 37.36-.812.218z"/><path d="m396.118 81.276-3.899-6.552 1.381-.37 2.672 4.867.066-.018-.032-5.574 1.256-.337 2.764 4.846.062-.016-.119-5.555 1.381-.37-.101 7.624-1.267.34-2.752-4.593-.055.014-.09 5.355-1.267.34Zm9.282-2.372c-.337.09-.656.112-.958.064a1.538 1.538 0 0 1-.782-.369c-.218-.196-.374-.469-.467-.817-.081-.3-.092-.563-.034-.788a1.34 1.34 0 0 1 .328-.593 2.38 2.38 0 0 1 .575-.44c.226-.127.464-.239.715-.336.303-.116.548-.212.735-.29.186-.08.316-.158.389-.237.074-.082.096-.183.064-.303l-.006-.02c-.07-.261-.201-.443-.394-.544-.193-.102-.435-.114-.726-.036-.307.083-.532.215-.676.397-.142.181-.22.371-.233.57l-1.214.148a1.93 1.93 0 0 1 .239-.933c.154-.276.37-.51.648-.7.277-.193.601-.339.973-.439a3.43 3.43 0 0 1 .789-.114c.269-.008.528.029.775.11.246.08.465.221.655.422.192.201.335.478.43.831l.953 3.558-1.204.323-.196-.73-.041.01a1.59 1.59 0 0 1-.211.502 1.609 1.609 0 0 1-.433.446 2.152 2.152 0 0 1-.693.308Zm.079-1.007c.251-.068.456-.176.614-.325.157-.15.263-.322.318-.515.057-.193.059-.388.007-.584l-.168-.627a.623.623 0 0 1-.177.144 2.941 2.941 0 0 1-.292.156 15.99 15.99 0 0 1-.611.267c-.18.076-.336.163-.468.26a.87.87 0 0 0-.285.336.616.616 0 0 0-.022.429c.062.23.193.382.393.455.2.072.43.073.691.004Zm3.313-7.613 1.899 7.088-1.253.335-1.899-7.088 1.253-.335Zm2.541-.681 1.899 7.088-1.253.336-1.899-7.088 1.253-.336Zm5.569 6.216c-.533.143-1.023.155-1.47.038a2.326 2.326 0 0 1-1.144-.71c-.318-.355-.551-.811-.7-1.367-.146-.547-.171-1.055-.074-1.523.098-.472.305-.873.619-1.205.314-.334.725-.569 1.232-.705.328-.087.651-.117.97-.089.321.025.623.118.905.277.285.159.538.39.758.695.219.302.391.686.516 1.152l.103.384-4.357 1.168-.226-.845 3.156-.845a1.405 1.405 0 0 0-.327-.599 1.17 1.17 0 0 0-.546-.332 1.237 1.237 0 0 0-.673.006 1.267 1.267 0 0 0-.625.367 1.326 1.326 0 0 0-.323.606c-.053.227-.049.46.012.698l.198.737c.083.31.21.56.383.751.171.189.375.315.609.378.234.061.487.055.759-.018.183-.049.341-.118.475-.209a1.14 1.14 0 0 0 .322-.334c.081-.13.129-.279.145-.443l1.205-.182c.009.329-.06.636-.206.923a2.126 2.126 0 0 1-.646.744c-.287.21-.637.371-1.05.482Zm4.626-7.049.259.97-3.056.818-.259-.969 3.056-.819Zm-2.643-.657 1.253-.335 1.337 4.99c.045.169.105.291.18.368a.427.427 0 0 0 .256.124.81.81 0 0 0 .297-.028c.078-.02.148-.046.21-.075a2.06 2.06 0 0 0 .144-.071l.473.922a2.834 2.834 0 0 1-.267.154c-.115.06-.26.116-.437.169a2.115 2.115 0 0 1-.886.085 1.365 1.365 0 0 1-.73-.331c-.205-.183-.35-.44-.437-.773l-1.393-5.199Zm8.193.676-1.109.43a.948.948 0 0 0-.257-.279.875.875 0 0 0-.384-.16 1.202 1.202 0 0 0-.517.038 1.25 1.25 0 0 0-.612.346c-.145.16-.192.33-.142.509.039.155.13.266.271.331.144.066.359.094.645.084l.959-.05c.532-.026.952.046 1.26.216.31.169.517.443.621.823.087.336.069.657-.057.965a1.943 1.943 0 0 1-.64.81 3.129 3.129 0 0 1-1.119.53c-.651.174-1.211.178-1.681.012a1.7 1.7 0 0 1-1.016-.955l1.19-.445c.12.225.286.375.499.449.212.074.463.072.751-.005.298-.08.521-.205.668-.376.149-.17.2-.346.152-.526a.49.49 0 0 0-.278-.33c-.142-.069-.342-.096-.601-.084l-.958.053c-.538.03-.963-.048-1.275-.233-.313-.189-.52-.477-.621-.865a1.403 1.403 0 0 1 .038-.923c.117-.291.32-.546.608-.764a3.035 3.035 0 0 1 1.071-.502c.623-.167 1.148-.166 1.577.004.431.169.75.468.957.897Z" fill="#A5ADB9"/><path d="m419.905 88.607 2.532 9.45-1.712.46-2.086-7.786-.055.015-1.832 2.004-.42-1.569 1.944-2.138 1.629-.436Zm8.358 8.028c-.664.178-1.285.222-1.863.133-.575-.09-1.066-.298-1.473-.624a2.559 2.559 0 0 1-.853-1.28l1.736-.465c.083.251.228.451.433.601.204.147.448.238.731.274.283.036.583.012.9-.073.339-.09.623-.23.853-.417.229-.19.39-.41.48-.662.091-.252.098-.516.021-.792a1.318 1.318 0 0 0-.425-.698 1.531 1.531 0 0 0-.792-.336c-.316-.048-.674-.018-1.074.09l-.835.223-.354-1.32.835-.223a2.1 2.1 0 0 0 .817-.402 1.44 1.44 0 0 0 .458-.637 1.28 1.28 0 0 0 .013-.78 1.296 1.296 0 0 0-.366-.649 1.26 1.26 0 0 0-.637-.329 1.748 1.748 0 0 0-.816.04 2.1 2.1 0 0 0-.76.373c-.219.17-.377.373-.476.607-.099.231-.118.48-.057.747l-1.647.442a2.479 2.479 0 0 1 .083-1.516 3.05 3.05 0 0 1 .929-1.258 4.04 4.04 0 0 1 1.566-.786c.63-.169 1.21-.197 1.738-.085.53.109.976.327 1.337.656.362.328.607.732.736 1.212.146.532.108 1.02-.112 1.465-.218.444-.567.79-1.048 1.037l.02.074c.689-.086 1.264.024 1.725.329.464.301.773.748.928 1.34a2.452 2.452 0 0 1-.071 1.541c-.188.496-.512.932-.975 1.31-.46.377-1.028.656-1.705.838Z" fill="#637282"/><path fill="#289548" d="m186.691 179.104 148.629-39.825 1.741 6.498-148.629 39.825z"/><path fill="#FC9F0F" d="m335.319 139.279 47.106-12.622 1.741 6.498-47.106 12.622z"/><path fill="#007DFF" d="m382.426 126.657 33.3-8.923 1.74 6.498-33.299 8.923z"/><path fill="#DE5846" d="m415.725 117.734 23.553-6.311 1.741 6.498-23.553 6.31z"/><path d="m284.273 172.893 1.833-.491 4.061 5.334.096-.026.85-6.65 1.833-.491 2.216 8.27-1.438.385-1.522-5.682-.077.021-.769 6.269-1.074.288-3.805-5.057-.076.021 1.525 5.693-1.437.385-2.216-8.269Zm15.193 4.922c-.605.162-1.166.17-1.682.022a2.81 2.81 0 0 1-1.333-.841c-.371-.415-.642-.942-.813-1.583-.172-.64-.201-1.234-.088-1.781.116-.547.36-1.014.733-1.399.372-.386.862-.66 1.467-.822.606-.162 1.167-.17 1.682-.022.516.147.959.429 1.331.846.374.417.647.945.818 1.586.172.64.199 1.233.083 1.778a2.779 2.779 0 0 1-.73 1.394c-.373.386-.862.66-1.468.822Zm-.305-1.173c.328-.088.578-.252.751-.491.171-.243.27-.532.295-.867a3.097 3.097 0 0 0-.109-1.07 3.137 3.137 0 0 0-.441-.986 1.685 1.685 0 0 0-.691-.606c-.27-.124-.569-.142-.897-.054-.337.09-.592.256-.766.499a1.71 1.71 0 0 0-.299.872c-.026.336.013.694.114 1.073.101.377.247.705.437.983.192.277.423.477.693.601.272.121.576.136.913.046Zm4.485-.077-1.662-6.202 1.418-.38.277 1.034.064-.017c.017-.389.137-.717.36-.984a1.65 1.65 0 0 1 .87-.549c.081-.022.172-.042.274-.06.103-.022.191-.036.262-.04l.36 1.344a1.59 1.59 0 0 0-.31.023 2.763 2.763 0 0 0-.391.074 1.528 1.528 0 0 0-.672.367c-.18.169-.303.371-.371.605-.067.234-.065.484.006.747l.977 3.646-1.462.392Zm7.031-1.754c-.622.167-1.193.181-1.715.044a2.726 2.726 0 0 1-1.334-.828c-.371-.414-.643-.946-.817-1.595-.171-.638-.199-1.23-.086-1.777.115-.55.356-1.018.722-1.405.366-.39.845-.664 1.438-.822a3.222 3.222 0 0 1 1.131-.105c.375.03.727.138 1.056.323.333.185.627.456.884.811.256.352.457.801.603 1.344l.12.449-5.084 1.362-.264-.985 3.683-.987a1.628 1.628 0 0 0-.382-.698 1.368 1.368 0 0 0-.636-.388 1.44 1.44 0 0 0-.786.007c-.299.08-.542.223-.729.429a1.557 1.557 0 0 0-.378.707c-.061.265-.056.536.015.814l.231.86c.096.361.245.653.446.876.201.22.438.367.711.441.273.071.569.064.886-.021.213-.057.397-.138.554-.244.156-.108.281-.238.376-.39a1.17 1.17 0 0 0 .168-.517l1.406-.212c.011.383-.069.742-.239 1.076-.168.331-.42.621-.754.869a3.64 3.64 0 0 1-1.226.562Zm9.649-2.715-2.802.751-2.216-8.27 2.859-.766c.821-.22 1.571-.243 2.249-.07.68.17 1.262.52 1.745 1.051.482.532.839 1.227 1.069 2.085.231.862.269 1.645.114 2.35a3.436 3.436 0 0 1-.994 1.794c-.509.491-1.184.85-2.024 1.075Zm-1.651-.947 1.231-.33c.576-.154 1.029-.388 1.358-.701a2.09 2.09 0 0 0 .613-1.182c.081-.474.037-1.028-.133-1.66-.169-.633-.407-1.132-.713-1.497a2.055 2.055 0 0 0-1.112-.711c-.433-.109-.929-.088-1.489.062l-1.276.342 1.521 5.677Zm9.802-1.107c-.622.166-1.194.181-1.715.044a2.716 2.716 0 0 1-1.334-.829c-.371-.414-.643-.945-.817-1.594-.171-.638-.2-1.23-.087-1.777.115-.55.356-1.019.723-1.406.366-.389.845-.663 1.437-.822a3.25 3.25 0 0 1 1.132-.104c.374.029.726.137 1.056.323.332.185.627.455.884.81.256.353.457.801.602 1.345l.12.448-5.083 1.362-.264-.985 3.682-.987a1.618 1.618 0 0 0-.382-.698 1.366 1.366 0 0 0-.636-.388 1.445 1.445 0 0 0-.785.007 1.48 1.48 0 0 0-.729.429 1.562 1.562 0 0 0-.378.707c-.062.265-.057.536.015.814l.23.861c.097.36.246.652.447.875.2.221.437.368.711.442.273.071.568.064.886-.021.213-.057.397-.139.554-.244.155-.108.28-.238.375-.391.095-.152.151-.324.169-.517l1.406-.212a2.2 2.2 0 0 1-.24 1.077c-.168.331-.419.62-.754.868a3.656 3.656 0 0 1-1.225.563Zm5.397-8.224.303 1.131-3.565.955-.303-1.13 3.565-.956Zm-3.083-.766 1.461-.392 1.561 5.823c.052.196.122.339.21.428a.492.492 0 0 0 .298.145.97.97 0 0 0 .346-.032c.092-.025.173-.054.245-.087.075-.035.131-.063.168-.084l.553 1.076a3.279 3.279 0 0 1-.312.179 2.827 2.827 0 0 1-.509.197 2.477 2.477 0 0 1-1.034.1 1.59 1.59 0 0 1-.852-.386c-.239-.213-.409-.514-.51-.902l-1.625-6.065Zm7.786 6.288a2.68 2.68 0 0 1-1.119.074 1.786 1.786 0 0 1-.911-.431c-.255-.228-.437-.546-.546-.953-.094-.35-.106-.656-.039-.92.068-.263.196-.493.382-.691.187-.197.411-.368.672-.513.263-.148.541-.279.834-.392.353-.135.639-.248.857-.338.218-.093.369-.185.454-.277.087-.096.112-.213.074-.353l-.006-.025c-.082-.304-.235-.515-.46-.634-.225-.118-.507-.132-.847-.041-.358.096-.621.25-.789.462a1.211 1.211 0 0 0-.272.666l-1.416.172c.006-.406.1-.768.28-1.088.179-.322.43-.594.754-.817a3.625 3.625 0 0 1 1.136-.512 4.03 4.03 0 0 1 .92-.134c.315-.009.616.034.905.13a1.8 1.8 0 0 1 .763.492c.225.234.392.557.502.969l1.113 4.151-1.406.377-.228-.852-.048.013a1.859 1.859 0 0 1-.246.585c-.119.19-.288.364-.505.52a2.522 2.522 0 0 1-.808.36Zm.091-1.176a1.65 1.65 0 0 0 .717-.378c.184-.176.307-.377.371-.602.067-.225.069-.452.008-.681l-.196-.731a.713.713 0 0 1-.206.168 3.42 3.42 0 0 1-.341.182c-.128.06-.255.117-.382.172l-.33.14c-.21.088-.393.189-.547.302a1.01 1.01 0 0 0-.332.392.713.713 0 0 0-.026.501c.072.269.225.446.458.53.233.085.502.086.806.005Zm4.619-.221-1.661-6.202 1.461-.391 1.662 6.202-1.462.391Zm-1.162-7.279a.883.883 0 0 1-.66-.07.767.767 0 0 1-.4-.494.755.755 0 0 1 .1-.628.874.874 0 0 1 .534-.395.866.866 0 0 1 .661.074.76.76 0 0 1 .4.494.767.767 0 0 1-.099.629.879.879 0 0 1-.536.39Zm3.373-2.176 2.216 8.269-1.462.392-2.216-8.27 1.462-.391Zm7.398 1.99-1.293.503a1.106 1.106 0 0 0-.3-.327 1.018 1.018 0 0 0-.448-.187 1.394 1.394 0 0 0-.603.045c-.304.081-.542.216-.714.403-.169.187-.224.385-.165.594.045.181.151.31.315.387.168.076.419.109.753.097l1.119-.057c.621-.031 1.111.053 1.469.251.362.197.604.517.725.961.102.391.08.766-.066 1.126-.144.356-.393.67-.746.944-.354.274-.789.48-1.306.618-.759.204-1.413.209-1.961.015a1.983 1.983 0 0 1-1.186-1.115l1.389-.519c.139.263.333.437.581.524.249.086.541.084.877-.006.348-.093.607-.239.779-.438.174-.2.233-.404.177-.614a.57.57 0 0 0-.324-.385c-.165-.08-.399-.113-.701-.098l-1.118.061c-.628.036-1.124-.055-1.488-.272-.364-.219-.606-.556-.724-1.009a1.644 1.644 0 0 1 .044-1.076 2.11 2.11 0 0 1 .709-.891c.338-.258.755-.453 1.25-.586.727-.195 1.34-.193 1.84.004.503.197.875.546 1.116 1.047Z" fill="#235B95"/><path d="m143.928 123.529 304.567-81.608" stroke="#DBDEE5" stroke-width=".841"/><path fill="#fff" d="m120.186 35.002 304.267-81.528 12.164 45.399L132.35 80.4z"/><path fill="#DBDEE5" d="M132.133 79.588 436.4-1.94l.217.812L132.351 80.4z"/><rect x="148.787" y="37.784" width="26.907" height="26.907" rx="3.363" transform="rotate(-15 148.787 37.784)" fill="#235B95"/><g clip-path="url(#h)"><path d="M167.274 56.33a14.46 14.46 0 0 1-1.558-.705 23.074 23.074 0 0 1-1.588-.896 24.62 24.62 0 0 1-1.912-1.309 23.823 23.823 0 0 1-4.154-4.005 22.6 22.6 0 0 1-1.92-2.77 22.491 22.491 0 0 1-1.601-3.333c-.091-.238-.161-.543.105-.785a19.985 19.985 0 0 1 2.44-1.744 23.33 23.33 0 0 1 2.457-1.325 18.902 18.902 0 0 1 3.019-1.106l.578-.155a18.896 18.896 0 0 1 3.167-.551c.927-.083 1.859-.11 2.791-.081a20.02 20.02 0 0 1 2.985.29c.352.076.443.375.483.627a22.33 22.33 0 0 1 .003 7.046 23.872 23.872 0 0 1-1.595 5.545 24.776 24.776 0 0 1-1.002 2.09 23.161 23.161 0 0 1-.927 1.57c-.305.483-.638.947-.997 1.39a.896.896 0 0 1-.774.207Zm-2.807-11.825c-.013.033-1.009 1.887-1.737 3.24l-.613 1.14a2.634 2.634 0 0 0-.315 1.69c.054.309.17.604.341.866.209.314.47.588.773.807.868.65 1.787 1.226 2.747 1.72.396.206.804.39 1.22.55a.673.673 0 0 0 .598-.16c.281-.347.542-.71.781-1.087a19.306 19.306 0 0 0 1.52-2.863c.152-.34.242-.709.265-1.084a2.315 2.315 0 0 0-.138-.922 2.623 2.623 0 0 0-1.118-1.305l-.948-.587-.114-.07a720.088 720.088 0 0 1-3.19-1.976.059.059 0 0 0-.056.015.065.065 0 0 0-.016.026Zm-.879-3.562.041.036c.027.023.447.423 1.03.977 1.397 1.33 3.735 3.553 4.336 4.086.444.394.917.562 1.297.46.369-.099.834-.498.952-1.844.13-1.462.077-2.937-.155-4.39-.032-.202-.105-.441-.386-.502a15.959 15.959 0 0 0-2.384-.231 18.568 18.568 0 0 0-2.229.064 15.17 15.17 0 0 0-2.53.44l-.442.119c-.827.225-1.633.52-2.411.884-.674.313-1.329.666-1.962 1.058-.683.414-1.334.88-1.949 1.393-.213.193-.157.436-.084.627a17.92 17.92 0 0 0 2.061 3.88c.428.61 1.079 1.3 1.747 1.12.38-.101.705-.482.893-1.046.254-.762 1.167-3.855 1.712-5.704v-.003c.228-.77.392-1.328.404-1.36a.543.543 0 0 0 .017-.053c.006-.02.009-.03.014-.03.005-.002.013.005.028.019Zm-.721 8.367.698-1.314 3.447-.924 1.261.789-5.406 1.449Zm1.221-2.262.72-1.333 1.29.795-2.01.538Z" fill="#fff"/></g><path d="m199.885 43.31 14.619-3.918m-15.824-.58 14.619-3.917m-15.825-.582 14.62-3.917" stroke="#637282" stroke-width="1.682" stroke-linecap="round" stroke-linejoin="round"/><g clip-path="url(#i)"><path d="M297.039 12.682c-1.235-2.605-4.2-3.805-6.769-2.742-2.569 1.064-3.857 4.024-2.941 6.76.915 2.737 3.72 4.306 6.403 3.584l6.353-1.702c1.305-.348 2.256-1.49 2.397-2.879.141-1.388-.557-2.74-1.76-3.408a3.191 3.191 0 0 0-3.683.387Zm0 0c.233.56.326 1.231.262 2.293" stroke="#7E8A9C" stroke-width="1.682" stroke-linecap="round" stroke-linejoin="round"/><path d="M300.824 5.38c-.37-1.38-1.79-2.132-3.09-1.783-1.299.348-2.132 1.79-1.784 3.089.37 1.38 1.79 2.132 3.09 1.784 1.299-.348 2.153-1.709 1.784-3.09.021.082 0 0 0 0Z" fill="#289548"/><path fill="#DBDEE5" d="m313.16-.563.811-.218 4.353 16.244-.812.218z"/><g clip-path="url(#j)" stroke="#637282" stroke-width="1.682" stroke-linecap="round" stroke-linejoin="round"><path d="M337.664 8.366c.439.665 1.279.876 1.945.436.362-.271.681-.705.654-1.133m-4.565-11.834c2.68-.718 5.46.887 6.178 3.567 1.219 4.548 2.411 5.1 2.411 5.1l-11.695 3.133s.648-1.48-.462-5.621a5.06 5.06 0 0 1 3.568-6.179Z"/></g><path fill="#DBDEE5" d="m356.204-12.097.812-.218L361.37 3.93l-.812.218z"/></g><g clip-path="url(#k)"><g clip-path="url(#l)"><circle cx="391.658" cy="-12.911" r="13.435" transform="rotate(-15 391.658 -12.91)" fill="#007DFF"/><g clip-path="url(#m)"><g clip-path="url(#n)"><circle cx="391.658" cy="-12.909" r="13.435" transform="rotate(-15 391.658 -12.91)" fill="#3E9DFF"/><mask id="o" style="mask-type:alpha" maskUnits="userSpaceOnUse" x="378" y="-27" width="28" height="28"><circle cx="391.658" cy="-12.909" r="13.435" transform="rotate(-15 391.658 -12.91)" fill="#000"/></mask><g mask="url(#o)"><ellipse cx="380.747" cy="-9.986" rx="13.741" ry="13.435" transform="rotate(-15 380.747 -9.986)" fill="#0B4DC7"/></g></g></g></g></g></g></g><g filter="url(#p)"><rect x="252.504" y="249.559" width="276.832" height="131.74" rx="10.682" transform="rotate(-15 252.504 249.559)" fill="#E6EFF9"/><path d="m505.251 197.718 3.543 3.949 4.5-.747c.539-.053.849.419.597.856l-2.643 4.597 2.689 4.549c.201.409-.091 1.042-.676.922l-5.093-1.128-3.786 3.424c-.212.242-.969.168-.958-.483l.04-5.376-4.619-2.458c-.35-.275-.574-.77.09-1.041l4.27-1.611 1.101-5.199c.119-.587.572-.617.945-.254Z" fill="#FEB933"/><g clip-path="url(#q)"><g clip-path="url(#r)"><ellipse cx="19.583" cy="20.083" rx="19.583" ry="20.083" transform="matrix(.96422 -.26516 .25262 .96759 276.511 258.154)" fill="#599294"/><g clip-path="url(#s)"><mask id="t" style="mask-type:alpha" maskUnits="userSpaceOnUse" x="280" y="252" width="41" height="41"><ellipse cx="19.583" cy="20.083" rx="19.583" ry="20.083" transform="matrix(.96422 -.26516 .25262 .96759 276.504 258.154)" fill="#000"/></mask><g mask="url(#t)"><path fill="#7EB6B8" d="m293.451 274.786 46.156-12.693 12.402 47.5-46.157 12.694z"/></g></g></g></g><path d="m330.273 248.435 1.941-.521 4.292 5.646.102-.028.905-7.044 1.94-.521 2.337 8.756-1.521.409-1.606-6.016-.081.022-.82 6.641-1.136.306-4.022-5.353-.081.022 1.609 6.029-1.521.409-2.338-8.757Zm14.795 8.046a3.216 3.216 0 0 1-.6.106 2.207 2.207 0 0 1-.452.003l.037-1.302c.242.005.452-.018.627-.068a.773.773 0 0 0 .422-.292c.108-.142.177-.35.204-.623l.038-.391-4.17-6.064 1.641-.441 2.837 4.553.068-.019.193-5.367 1.646-.443-.663 8.069c-.03.381-.113.723-.249 1.025a2.057 2.057 0 0 1-.59.773c-.255.212-.585.373-.989.481Zm9.654-5.236-3.608-6.068 1.577-.424 2.387 4.307.059-.016-.053-4.935 1.56-.419 2.405 4.274.065-.017-.09-4.897 1.582-.426-.106 7.068-1.611.433-2.416-4.107-.09.024-.046 4.769-1.615.434Zm10.641-2.719c-.416.112-.81.138-1.183.08a1.895 1.895 0 0 1-.964-.456c-.27-.242-.462-.579-.577-1.009-.099-.37-.112-.695-.04-.974.072-.279.207-.523.405-.732.197-.209.434-.391.711-.545a6.75 6.75 0 0 1 .883-.416c.374-.143.676-.263.907-.358.23-.099.39-.197.48-.294a.377.377 0 0 0 .079-.374l-.007-.026c-.086-.322-.248-.546-.486-.671-.238-.126-.536-.14-.895-.044-.379.102-.658.266-.836.491a1.278 1.278 0 0 0-.288.705l-1.499.183c.007-.429.106-.813.297-1.152.19-.341.456-.63.799-.865.343-.239.743-.42 1.202-.544.316-.085.641-.132.974-.142.333-.011.652.035.957.136.304.099.574.272.808.521.237.248.414.59.53 1.026l1.174 4.395-1.488.4-.24-.902-.052.014a1.97 1.97 0 0 1-.26.62 1.973 1.973 0 0 1-.535.551c-.229.163-.514.29-.856.382Zm.098-1.246c.311-.083.564-.217.759-.401.194-.186.325-.399.393-.637.071-.239.074-.48.009-.722l-.207-.774a.743.743 0 0 1-.218.178 3.688 3.688 0 0 1-.36.193c-.136.064-.271.125-.405.182-.135.058-.251.108-.35.149a2.84 2.84 0 0 0-.578.321c-.164.12-.281.259-.352.415a.76.76 0 0 0-.028.53c.076.285.237.473.484.562.247.089.531.091.853.004Zm4.098-9.41 2.337 8.757-1.547.416-2.337-8.757 1.547-.416Zm3.137-.844 2.338 8.757-1.547.416-2.338-8.757 1.547-.416Zm6.869 7.676c-.658.177-1.263.193-1.815.048a2.879 2.879 0 0 1-1.411-.876c-.392-.439-.679-1.001-.863-1.688-.18-.676-.21-1.303-.09-1.882.122-.583.378-1.08.766-1.489.388-.413.895-.704 1.522-.873a3.455 3.455 0 0 1 1.197-.111c.396.031.769.145 1.117.341.352.196.663.482.935.858.27.373.483.848.636 1.424l.127.474-5.38 1.447-.279-1.043 3.898-1.048a1.728 1.728 0 0 0-.404-.74 1.45 1.45 0 0 0-.673-.41 1.535 1.535 0 0 0-.831.008 1.573 1.573 0 0 0-.772.455 1.66 1.66 0 0 0-.4.75c-.066.28-.061.567.015.862l.243.91c.102.382.259.691.472.927.212.234.463.389.752.467.289.075.601.068.938-.023.225-.06.42-.146.586-.258a1.42 1.42 0 0 0 .397-.414c.101-.162.16-.344.179-.548l1.488-.226c.011.407-.074.787-.254 1.141-.178.35-.444.657-.799.92-.355.261-.787.46-1.297.597Zm5.718-8.714.319 1.197-3.773 1.015-.32-1.197 3.774-1.015Zm-3.262-.809 1.547-.416 1.646 6.165c.055.208.129.359.222.454.094.09.199.141.316.153.116.011.238 0 .366-.034.097-.027.183-.057.259-.093a2.62 2.62 0 0 0 .178-.089l.584 1.14c-.075.05-.185.114-.33.189a2.966 2.966 0 0 1-.539.209 2.62 2.62 0 0 1-1.094.107 1.685 1.685 0 0 1-.902-.409c-.252-.225-.432-.543-.539-.954l-1.714-6.422Zm12.593 5.338-.902-9.142 1.197-.322.902 9.142-1.197.322Zm-4.547-1.197-.119-1.251 6.735-1.811.119 1.251-6.735 1.811Zm1.47 2.025-.902-9.143 1.197-.322.902 9.143-1.197.322Zm-1.774-5.206-.123-1.25 6.735-1.811.123 1.25-6.735 1.811Zm10.502-6.527 2.337 8.757-1.585.426-1.926-7.213-.051.014-1.698 1.859-.388-1.454 1.802-1.983 1.509-.406Z" fill="#212225"/><path d="m338.933 277.5-1.45.39.637-8.216 1.678-.451 4.648 6.794-1.451.39-3.596-5.427-.059.016-.407 6.504Zm-.738-2.956 3.956-1.064.292 1.092-3.956 1.064-.292-1.092Zm10.548-5.158a2.015 2.015 0 0 0-.394-.464 1.701 1.701 0 0 0-.49-.304 1.583 1.583 0 0 0-.573-.117 2.178 2.178 0 0 0-.646.08 2.014 2.014 0 0 0-.996.594c-.261.287-.429.652-.505 1.094-.074.439-.036.939.114 1.501.152.567.369 1.023.652 1.368.284.346.611.578.984.698.371.118.767.12 1.187.007.381-.103.691-.265.93-.486.242-.222.403-.488.482-.797.079-.312.07-.65-.027-1.014l.321-.035-2.037.547-.284-1.063 3.044-.818.241.901c.171.643.183 1.236.035 1.778a2.91 2.91 0 0 1-.839 1.388c-.411.381-.927.654-1.547.821-.692.186-1.34.194-1.945.024a3.317 3.317 0 0 1-1.575-1.002c-.445-.498-.773-1.143-.984-1.935-.162-.606-.221-1.17-.177-1.692a3.65 3.65 0 0 1 .401-1.409c.221-.418.517-.77.889-1.055.37-.289.801-.499 1.292-.631a3.74 3.74 0 0 1 1.21-.129c.391.023.755.109 1.093.256.34.147.641.349.903.606.263.256.471.562.626.916l-1.385.372Zm1.774-1.824-.305-1.14 5.986-1.61.304 1.14-2.319.624 1.7 6.365-1.348.363-1.7-6.366-2.318.624Zm11.459 3.851c-.545.146-1.053.185-1.524.115-.469-.07-.865-.232-1.189-.485a1.825 1.825 0 0 1-.643-.994 1.872 1.872 0 0 1-.026-.924c.068-.301.198-.572.388-.811.191-.243.427-.428.707-.556l-.014-.051a1.645 1.645 0 0 1-1.095-.338 1.76 1.76 0 0 1-.638-.979 1.77 1.77 0 0 1 .046-1.12c.137-.362.371-.68.703-.955a3.163 3.163 0 0 1 1.227-.613 3.107 3.107 0 0 1 1.356-.082c.424.072.786.23 1.084.474.301.244.503.559.606.945a1.76 1.76 0 0 1-.076 1.171 1.646 1.646 0 0 1-.769.84l.013.051c.306-.03.6.013.883.128.283.112.53.282.74.508.212.226.36.496.444.811.108.406.086.801-.068 1.185-.155.382-.418.721-.789 1.018-.368.295-.824.516-1.366.662Zm-.28-1.048c.281-.076.513-.189.695-.34.181-.154.306-.334.374-.541.067-.207.072-.425.013-.656a1.173 1.173 0 0 0-.356-.583 1.257 1.257 0 0 0-.611-.303 1.604 1.604 0 0 0-.753.033 1.639 1.639 0 0 0-.676.351 1.29 1.29 0 0 0-.381.57 1.152 1.152 0 0 0-.007.681c.059.23.169.418.331.563.161.143.358.235.592.277.236.041.496.024.779-.052Zm-.913-3.42c.23-.061.42-.162.571-.302.154-.141.26-.309.318-.502.058-.194.059-.4.004-.618a1.11 1.11 0 0 0-.305-.523 1.022 1.022 0 0 0-.518-.265 1.376 1.376 0 0 0-.652.03 1.426 1.426 0 0 0-.59.304c-.155.136-.26.299-.317.49-.054.187-.052.388.008.602.056.218.156.397.3.536.146.136.321.228.525.276.206.044.424.035.656-.028Zm8.126-.044-.871-3.262 1.326-.357 1.503 5.63-1.286.345-.267-1-.058.016a1.756 1.756 0 0 1-.42.941c-.235.278-.563.474-.986.588a1.984 1.984 0 0 1-1.044.017 1.763 1.763 0 0 1-.852-.545c-.243-.275-.425-.637-.545-1.086l-.957-3.585 1.326-.356.902 3.379c.096.357.269.614.52.771.252.158.536.194.854.109.195-.053.372-.152.529-.296.158-.145.27-.327.337-.546.069-.223.065-.477-.011-.763Zm8.474-5.072-1.37.369a1.754 1.754 0 0 0-.376-.54 1.664 1.664 0 0 0-1.119-.472 2.134 2.134 0 0 0-.667.077 2.015 2.015 0 0 0-1.002.599c-.261.288-.428.652-.501 1.093-.074.439-.035.941.115 1.505.154.574.372 1.034.655 1.38.285.342.611.571.977.687a2.05 2.05 0 0 0 1.16.007c.224-.061.426-.147.606-.258.182-.114.335-.251.46-.41a1.7 1.7 0 0 0 .354-1.187l1.372-.361c.044.37.022.735-.065 1.093a3.066 3.066 0 0 1-.442 1.007c-.21.31-.481.582-.811.815-.331.23-.72.406-1.167.526-.659.177-1.289.183-1.888.017a3.305 3.305 0 0 1-1.576-.994c-.452-.497-.786-1.148-1.001-1.954-.216-.809-.25-1.541-.103-2.196.146-.657.437-1.208.874-1.653.436-.444.981-.755 1.636-.931a3.856 3.856 0 0 1 1.211-.137c.391.021.757.107 1.098.258.341.15.645.364.913.643.27.275.489.614.657 1.017Zm6.832 5.756-.801-2.998-.055.014a2.349 2.349 0 0 1-.18.516 1.689 1.689 0 0 1-.409.527c-.184.164-.437.29-.759.377a2.203 2.203 0 0 1-1.278-.022c-.41-.133-.774-.389-1.092-.767-.318-.378-.56-.876-.725-1.494-.167-.625-.205-1.181-.115-1.666.092-.488.285-.889.578-1.204a2.237 2.237 0 0 1 1.087-.65c.329-.088.615-.105.858-.05.242.053.446.141.612.264.166.12.301.24.406.358l.08-.022-.248-.93 1.304-.351 2.066 7.74-1.329.358Zm-2.125-2.752c.281-.076.5-.216.657-.42.157-.208.25-.462.28-.763a2.834 2.834 0 0 0-.102-.998 2.75 2.75 0 0 0-.407-.908 1.397 1.397 0 0 0-.614-.506 1.192 1.192 0 0 0-.782-.03c-.295.08-.521.223-.678.43-.157.207-.249.46-.276.758a2.77 2.77 0 0 0 .098.971c.094.352.228.653.402.902.175.246.383.422.623.527.242.103.509.115.799.037Zm4.699-3.738.88 3.298-1.326.357-2.003-7.506 1.296-.349.757 2.833.065-.018c.048-.353.185-.658.412-.915.228-.261.558-.449.988-.565.39-.105.753-.114 1.087-.029.334.086.623.265.866.537.245.272.428.635.55 1.09l.957 3.584-1.326.356-.902-3.379c-.102-.378-.278-.646-.529-.804-.25-.161-.549-.194-.899-.1-.234.063-.43.171-.589.323-.156.15-.261.334-.315.553-.052.218-.042.462.031.734Zm6.444 4.064-2.067-7.74 1.304-.351.249.931.077-.02c.032-.156.089-.327.173-.514.083-.19.216-.369.399-.536.182-.169.438-.298.768-.387a2.22 2.22 0 0 1 1.265.017c.41.126.776.377 1.096.754.323.374.567.874.734 1.5.165.618.204 1.17.117 1.657-.087.487-.275.891-.564 1.212a2.193 2.193 0 0 1-1.096.66c-.322.087-.604.105-.845.055a1.666 1.666 0 0 1-.616-.251 2.544 2.544 0 0 1-.414-.356l-.055.015.801 2.998-1.326.356Zm-.015-5.275c.097.364.234.669.409.915a1.5 1.5 0 0 0 .622.52c.238.099.498.11.779.034a1.19 1.19 0 0 0 .673-.432c.156-.212.247-.468.274-.769a2.803 2.803 0 0 0-.097-.983 2.8 2.8 0 0 0-.399-.891 1.448 1.448 0 0 0-.617-.517c-.239-.101-.506-.112-.802-.032a1.205 1.205 0 0 0-.662.418 1.425 1.425 0 0 0-.283.747c-.028.296.006.626.103.99Zm6.736 1.291a.814.814 0 0 1-.634-.08.79.79 0 0 1-.387-.509.781.781 0 0 1 .084-.628.816.816 0 0 1 .509-.388.796.796 0 0 1 .623.084.795.795 0 0 1 .387.937.87.87 0 0 1-.214.372.783.783 0 0 1-.368.212Zm2.992-.804a.81.81 0 0 1-.634-.081.788.788 0 0 1-.387-.509.778.778 0 0 1 .084-.627.81.81 0 0 1 .509-.388.797.797 0 0 1 .623.084.795.795 0 0 1 .387.936.862.862 0 0 1-.215.372.79.79 0 0 1-.367.213Zm2.992-.805a.81.81 0 0 1-.634-.081.78.78 0 0 1-.387-.508.78.78 0 0 1 .084-.628.815.815 0 0 1 .508-.388.799.799 0 0 1 .624.084.802.802 0 0 1 .396.498.817.817 0 0 1-.009.439.884.884 0 0 1-.215.372.784.784 0 0 1-.367.212Zm-.889-7.891 1.535-.413 2.722 2.827.073-.02.949-3.814 1.534-.413-1.472 5.44.747 2.8-1.355.364-.748-2.8-3.985-3.971Zm12.4 4.819c-.544.147-1.052.185-1.524.115-.469-.07-.865-.232-1.189-.485a1.82 1.82 0 0 1-.642-.994 1.86 1.86 0 0 1-.027-.924c.069-.301.198-.571.388-.811a1.89 1.89 0 0 1 .707-.556l-.013-.051a1.64 1.64 0 0 1-1.096-.338 1.762 1.762 0 0 1-.638-.979 1.77 1.77 0 0 1 .047-1.12c.136-.361.37-.68.703-.955.331-.278.74-.482 1.226-.613a3.122 3.122 0 0 1 1.356-.082c.425.072.786.23 1.085.475.3.244.502.558.605.945a1.76 1.76 0 0 1-.076 1.171 1.64 1.64 0 0 1-.769.839l.014.051c.306-.03.6.013.882.128.284.113.53.282.74.508.212.226.36.497.444.812.109.405.086.8-.068 1.185-.155.382-.417.721-.788 1.017-.369.296-.825.516-1.367.662Zm-.279-1.048c.28-.076.512-.189.694-.34.181-.154.306-.334.374-.541.068-.206.072-.425.013-.655a1.172 1.172 0 0 0-.356-.584 1.275 1.275 0 0 0-.611-.303 1.614 1.614 0 0 0-.752.033c-.269.073-.494.19-.676.351a1.312 1.312 0 0 0-.382.57 1.155 1.155 0 0 0-.007.682c.059.23.17.418.331.563.161.142.359.234.592.276.237.042.496.024.78-.052Zm-.913-3.419c.229-.062.42-.163.571-.303a1.102 1.102 0 0 0 .321-1.12 1.107 1.107 0 0 0-.305-.523 1.026 1.026 0 0 0-.518-.265 1.398 1.398 0 0 0-.651.03 1.442 1.442 0 0 0-.591.304c-.154.136-.26.299-.316.49-.055.187-.052.388.007.603.056.218.156.397.301.536.146.136.321.228.524.275.206.044.425.035.657-.027Zm5.617-.368.88 3.298-1.326.357-1.502-5.629 1.267-.341.255.957.066-.018c.046-.35.185-.656.419-.918.236-.262.564-.45.984-.563a2.065 2.065 0 0 1 1.081-.024c.335.088.624.268.867.541.245.272.427.633.544 1.083l.957 3.584-1.326.357-.902-3.379c-.1-.377-.277-.645-.529-.805-.25-.16-.545-.195-.887-.103a1.275 1.275 0 0 0-.578.321 1.105 1.105 0 0 0-.305.549c-.049.218-.038.462.035.733Zm7.187-4.431.274 1.026-3.326.895-.274-1.026 3.326-.895Zm-.992 6.3-1.644-6.161c-.101-.378-.107-.714-.018-1.008.091-.294.253-.54.486-.736a2.14 2.14 0 0 1 .837-.425c.229-.062.438-.098.626-.11.188-.011.329-.013.422-.007l.011 1.097c-.061-.002-.137 0-.227.006-.09.003-.188.019-.293.047-.247.067-.405.173-.476.321-.069.144-.074.326-.015.546l1.621 6.072-1.33.358Zm2.031-6.579 1.326-.357 1.588 5.952c.109.405.121.761.038 1.066a1.472 1.472 0 0 1-.509.769c-.256.208-.592.368-1.007.479a2.938 2.938 0 0 1-.137.033 3.455 3.455 0 0 1-.136.033l-.289-1.081c.037-.008.071-.015.1-.023l.093-.021c.254-.069.419-.18.496-.334.077-.152.084-.346.021-.583l-1.584-5.933Zm.446-.976a.804.804 0 0 1-.602-.063.695.695 0 0 1-.359-.449.692.692 0 0 1 .087-.569.8.8 0 0 1 .489-.36.779.779 0 0 1 .595.068c.189.099.31.248.363.448a.697.697 0 0 1-.091.571.792.792 0 0 1-.482.354Zm1.288-1.502 1.535-.413 2.721 2.827.074-.019.948-3.814 1.535-.413-1.473 5.439.748 2.8-1.355.365-.748-2.8-3.985-3.972Zm11.358 4.99-4.121-6.936 1.462-.393 2.824 5.152.069-.019-.029-5.903 1.33-.358 2.92 5.13.066-.018-.122-5.882 1.462-.393-.114 8.074-1.34.361-2.908-4.862-.059.015-.099 5.671-1.341.361Zm12.492-1.097-.8-2.998-.055.015a2.385 2.385 0 0 1-.18.516 1.69 1.69 0 0 1-.41.526c-.183.165-.436.291-.759.377a2.2 2.2 0 0 1-1.277-.021c-.41-.134-.774-.389-1.092-.767-.319-.378-.56-.876-.725-1.494-.167-.626-.206-1.181-.115-1.666.092-.489.284-.89.577-1.204a2.238 2.238 0 0 1 1.087-.65c.33-.089.616-.106.858-.05.242.053.446.14.613.263.165.121.3.24.405.359l.081-.022-.249-.931 1.304-.351 2.067 7.74-1.33.358Zm-2.124-2.752c.281-.075.5-.215.657-.42.157-.207.25-.461.279-.763a2.803 2.803 0 0 0-.101-.997 2.75 2.75 0 0 0-.407-.908 1.396 1.396 0 0 0-.615-.507 1.196 1.196 0 0 0-.781-.029c-.295.079-.522.223-.678.43a1.448 1.448 0 0 0-.277.758c-.028.298.005.621.098.971.094.352.228.652.402.901.176.246.384.422.624.528.242.102.508.114.799.036Zm6.932-.694c-.544.147-1.052.185-1.524.116-.469-.071-.865-.232-1.189-.486a1.81 1.81 0 0 1-.642-.994 1.856 1.856 0 0 1-.027-.923c.069-.302.198-.572.388-.812a1.88 1.88 0 0 1 .707-.555l-.013-.052a1.64 1.64 0 0 1-1.096-.337 1.765 1.765 0 0 1-.638-.98 1.778 1.778 0 0 1 .046-1.12c.137-.361.371-.679.703-.955a3.162 3.162 0 0 1 1.227-.612c.481-.13.933-.157 1.356-.082.425.071.786.23 1.084.474.301.244.503.559.606.945a1.76 1.76 0 0 1-.076 1.171 1.64 1.64 0 0 1-.769.839l.014.052c.306-.03.6.012.882.128.284.112.53.281.74.508.212.226.36.496.444.811a1.83 1.83 0 0 1-.068 1.185c-.155.382-.417.721-.789 1.017-.368.296-.824.517-1.366.662Zm-.28-1.048c.281-.075.513-.189.695-.34.181-.153.306-.333.374-.54a1.15 1.15 0 0 0 .013-.656 1.176 1.176 0 0 0-.356-.584 1.275 1.275 0 0 0-.611-.303 1.601 1.601 0 0 0-.752.034 1.643 1.643 0 0 0-.676.35 1.3 1.3 0 0 0-.382.571 1.152 1.152 0 0 0-.007.681c.059.23.17.418.331.563.161.143.359.235.592.277.236.041.496.023.779-.053Zm-.912-3.419c.229-.062.419-.163.57-.303a1.096 1.096 0 0 0 .322-1.119 1.098 1.098 0 0 0-.305-.523 1.018 1.018 0 0 0-.518-.265 1.388 1.388 0 0 0-.652.029 1.446 1.446 0 0 0-.59.305c-.154.135-.26.299-.317.489-.054.188-.052.389.008.603.056.218.156.397.3.536.147.136.322.228.525.275.206.044.425.035.657-.027Z" fill="#A5ADB9"/><rect x="276.882" y="313.061" width="262.589" height="56.969" rx="10.682" transform="rotate(-15 276.882 313.061)" fill="#4381C0"/><path d="m492.703 255.233 27.514-7.372c5.698-1.527 11.555 1.855 13.082 7.553l9.215 34.392c1.527 5.699-1.855 11.556-7.553 13.083l-27.514 7.372-14.744-55.028Z" fill="#235B95"/></g></g><defs><clipPath id="a"><path fill="#fff" transform="translate(0 .25)" d="M0 0h576v264H0z"/></clipPath><clipPath id="c"><path d="M24-47.435h508.073c6.475 0 11.723 5.248 11.723 11.722v367.274c0 6.474-5.248 11.723-11.723 11.723H24v-390.72Z" fill="#fff"/></clipPath><clipPath id="d"><rect x="120.167" y="35.002" width="315.31" height="1045.15" rx="15.521" transform="rotate(-15 120.167 35.002)" fill="#fff"/></clipPath><clipPath id="e"><path fill="#fff" transform="rotate(-15 312.78 -1305.724)" d="M0 0h68.107v16.817H0z"/></clipPath><clipPath id="f"><path fill="#fff" transform="rotate(-15 312.78 -1305.724)" d="M0 0h16.817v16.817H0z"/></clipPath><clipPath id="g"><path fill="#fff" transform="rotate(165 213.025 129.016)" d="M0 0h8.408v8.408H0z"/></clipPath><clipPath id="h"><path fill="#fff" transform="rotate(-15 229.992 -561.95)" d="M0 0h19.568v19.568H0z"/></clipPath><clipPath id="i"><path fill="#fff" transform="rotate(-15 169.574 -1074.658)" d="M0 0h75.674v16.817H0z"/></clipPath><clipPath id="j"><path fill="#fff" transform="rotate(-15 147.292 -1243.908)" d="M0 0h16.817v16.817H0z"/></clipPath><clipPath id="k"><path fill="#fff" transform="rotate(-15 102.487 -1436.18)" d="M0 0h26.907v26.907H0z"/></clipPath><clipPath id="l"><path fill="#fff" transform="rotate(-15 102.487 -1436.18)" d="M0 0h26.871v26.907H0z"/></clipPath><clipPath id="m"><path fill="#fff" transform="rotate(-15 102.492 -1436.18)" d="M0 0h26.871v26.871H0z"/></clipPath><clipPath id="n"><path fill="#fff" transform="rotate(-15 102.492 -1436.18)" d="M0 0h26.871v26.871H0z"/></clipPath><clipPath id="q"><path fill="#fff" transform="matrix(.96422 -.26516 .25262 .96759 276.519 258.154)" d="M0 0h39.311v39.836H0z"/></clipPath><clipPath id="r"><path fill="#fff" transform="matrix(.96422 -.26516 .25262 .96759 276.513 258.154)" d="M0 0h39.166v40.166H0z"/></clipPath><clipPath id="s"><path fill="#fff" transform="matrix(.96422 -.26516 .25262 .96759 276.511 258.154)" d="M0 0h39.166v40.166H0z"/></clipPath><filter id="b" x="-159.208" y="-76.355" width="916.529" height="1624.03" filterUnits="userSpaceOnUse" color-interpolation-filters="sRGB"><feFlood flood-opacity="0" result="BackgroundImageFix"/><feColorMatrix in="SourceAlpha" values="0 0 0 0 0 0 0 0 0 0 0 0 0 0 0 0 0 0 127 0" result="hardAlpha"/><feOffset/><feColorMatrix values="0 0 0 0 0.0352941 0 0 0 0 0.176471 0 0 0 0 0.32549 0 0 0 0.1 0"/><feBlend in2="BackgroundImageFix" result="effect1_dropShadow_5479_56418"/><feColorMatrix in="SourceAlpha" values="0 0 0 0 0 0 0 0 0 0 0 0 0 0 0 0 0 0 127 0" result="hardAlpha"/><feOffset dx="-7.76" dy="21.988"/><feGaussianBlur stdDeviation="25.868"/><feColorMatrix values="0 0 0 0 0.0352941 0 0 0 0 0.176471 0 0 0 0 0.32549 0 0 0 0.1 0"/><feBlend in2="effect1_dropShadow_5479_56418" result="effect2_dropShadow_5479_56418"/><feColorMatrix in="SourceAlpha" values="0 0 0 0 0 0 0 0 0 0 0 0 0 0 0 0 0 0 127 0" result="hardAlpha"/><feOffset dx="-32.335" dy="87.951"/><feGaussianBlur stdDeviation="47.209"/><feColorMatrix values="0 0 0 0 0.0352941 0 0 0 0 0.176471 0 0 0 0 0.32549 0 0 0 0.09 0"/><feBlend in2="effect2_dropShadow_5479_56418" result="effect3_dropShadow_5479_56418"/><feColorMatrix in="SourceAlpha" values="0 0 0 0 0 0 0 0 0 0 0 0 0 0 0 0 0 0 127 0" result="hardAlpha"/><feOffset dx="-72.43" dy="197.891"/><feGaussianBlur stdDeviation="63.377"/><feColorMatrix values="0 0 0 0 0.0352941 0 0 0 0 0.176471 0 0 0 0 0.32549 0 0 0 0.05 0"/><feBlend in2="effect3_dropShadow_5479_56418" result="effect4_dropShadow_5479_56418"/><feColorMatrix in="SourceAlpha" values="0 0 0 0 0 0 0 0 0 0 0 0 0 0 0 0 0 0 127 0" result="hardAlpha"/><feOffset dx="-129.34" dy="353.099"/><feGaussianBlur stdDeviation="75.017"/><feColorMatrix values="0 0 0 0 0.0352941 0 0 0 0 0.176471 0 0 0 0 0.32549 0 0 0 0.01 0"/><feBlend in2="effect4_dropShadow_5479_56418" result="effect5_dropShadow_5479_56418"/><feBlend in="SourceGraphic" in2="effect5_dropShadow_5479_56418" result="shape"/></filter><filter id="p" x="230.482" y="166.353" width="469.965" height="438.304" filterUnits="userSpaceOnUse" color-interpolation-filters="sRGB"><feFlood flood-opacity="0" result="BackgroundImageFix"/><feColorMatrix in="SourceAlpha" values="0 0 0 0 0 0 0 0 0 0 0 0 0 0 0 0 0 0 127 0" result="hardAlpha"/><feOffset/><feColorMatrix values="0 0 0 0 0.0941176 0 0 0 0 0.243137 0 0 0 0 0.521569 0 0 0 0.1 0"/><feBlend in2="BackgroundImageFix" result="effect1_dropShadow_5479_56418"/><feColorMatrix in="SourceAlpha" values="0 0 0 0 0 0 0 0 0 0 0 0 0 0 0 0 0 0 127 0" result="hardAlpha"/><feOffset dx="4.651" dy="10.466"/><feGaussianBlur stdDeviation="12.21"/><feColorMatrix values="0 0 0 0 0.0941176 0 0 0 0 0.243137 0 0 0 0 0.521569 0 0 0 0.1 0"/><feBlend in2="effect1_dropShadow_5479_56418" result="effect2_dropShadow_5479_56418"/><feColorMatrix in="SourceAlpha" values="0 0 0 0 0 0 0 0 0 0 0 0 0 0 0 0 0 0 127 0" result="hardAlpha"/><feOffset dx="19.768" dy="39.537"/><feGaussianBlur stdDeviation="22.094"/><feColorMatrix values="0 0 0 0 0.0941176 0 0 0 0 0.243137 0 0 0 0 0.521569 0 0 0 0.09 0"/><feBlend in2="effect2_dropShadow_5479_56418" result="effect3_dropShadow_5479_56418"/><feColorMatrix in="SourceAlpha" values="0 0 0 0 0 0 0 0 0 0 0 0 0 0 0 0 0 0 127 0" result="hardAlpha"/><feOffset dx="43.026" dy="89.54"/><feGaussianBlur stdDeviation="29.653"/><feColorMatrix values="0 0 0 0 0.0941176 0 0 0 0 0.243137 0 0 0 0 0.521569 0 0 0 0.05 0"/><feBlend in2="effect3_dropShadow_5479_56418" result="effect4_dropShadow_5479_56418"/><feColorMatrix in="SourceAlpha" values="0 0 0 0 0 0 0 0 0 0 0 0 0 0 0 0 0 0 127 0" result="hardAlpha"/><feOffset dx="77.911" dy="159.311"/><feGaussianBlur stdDeviation="35.467"/><feColorMatrix values="0 0 0 0 0.0941176 0 0 0 0 0.243137 0 0 0 0 0.521569 0 0 0 0.01 0"/><feBlend in2="effect4_dropShadow_5479_56418" result="effect5_dropShadow_5479_56418"/><feBlend in="SourceGraphic" in2="effect5_dropShadow_5479_56418" result="shape"/></filter></defs></svg>