<svg width="1200" height="265" viewBox="0 0 1200 265" fill="none" xmlns="http://www.w3.org/2000/svg">
<mask id="mask0_5479_56415" style="mask-type:alpha" maskUnits="userSpaceOnUse" x="0" y="0" width="1200" height="265">
<mask id="path-1-inside-1_5479_56415" fill="white">
<path d="M0 12.25C0 5.62259 5.37258 0.25 12 0.25H1188C1194.63 0.25 1200 5.62258 1200 12.25V252.25C1200 258.877 1194.63 264.25 1188 264.25H12C5.37257 264.25 0 258.877 0 252.25V12.25Z"/>
</mask>
<path d="M0 12.25C0 5.62259 5.37258 0.25 12 0.25H1188C1194.63 0.25 1200 5.62258 1200 12.25V252.25C1200 258.877 1194.63 264.25 1188 264.25H12C5.37257 264.25 0 258.877 0 252.25V12.25Z" fill="#F7FAFB"/>
<path d="M-1 12.25C-1 5.0703 4.8203 -0.75 12 -0.75H1188C1195.18 -0.75 1201 5.0703 1201 12.25H1199C1199 6.17487 1194.08 1.25 1188 1.25H12C5.92487 1.25 1 6.17487 1 12.25H-1ZM1200 264.25H0H1200ZM12 264.25C4.8203 264.25 -1 258.43 -1 251.25V12.25C-1 5.0703 4.8203 -0.75 12 -0.75V1.25C5.92487 1.25 1 6.17487 1 12.25V252.25C1 258.877 5.92487 264.25 12 264.25ZM1188 -0.75C1195.18 -0.75 1201 5.0703 1201 12.25V251.25C1201 258.43 1195.18 264.25 1188 264.25C1194.08 264.25 1199 258.877 1199 252.25V12.25C1199 6.17487 1194.08 1.25 1188 1.25V-0.75Z" fill="#DBDEE5" mask="url(#path-1-inside-1_5479_56415)"/>
</mask>
<g mask="url(#mask0_5479_56415)">
<path d="M883.566 212.012L831.069 159.45L883.566 106.887L936.062 159.45L883.566 212.012Z" fill="url(#paint0_linear_5479_56415)"/>
<path d="M988.97 106.75L1041.47 54.1874L1093.96 106.75L1041.47 159.313L988.97 106.75Z" fill="url(#paint1_linear_5479_56415)"/>
<path d="M936.062 264.85L883.566 212.288L831.069 264.85H936.062Z" fill="url(#paint2_linear_5479_56415)"/>
<path d="M936.198 159.313L988.695 106.75L936.198 54.1874V159.313Z" fill="url(#paint3_linear_5479_56415)"/>
<path d="M1146.73 54.1874L1094.24 106.75L1146.73 159.313V54.1874Z" fill="url(#paint4_linear_5479_56415)"/>
<path d="M1041.47 264.712L1093.96 212.15L1041.47 159.587V264.712Z" fill="url(#paint5_linear_5479_56415)"/>
<path d="M1041.33 264.85L988.833 212.288L936.336 264.85H1041.33Z" fill="url(#paint6_linear_5479_56415)"/>
<path d="M1041.33 54.0502L988.833 1.48766L936.336 54.0502L1041.33 54.0502Z" fill="url(#paint7_linear_5479_56415)"/>
<path d="M1251.86 159.45L1199.37 106.888L1146.87 159.45H1251.86Z" fill="url(#paint8_linear_5479_56415)"/>
<path d="M1251.86 -51.3497L1199.37 -103.912L1146.87 -51.3497L1251.86 -51.3497Z" fill="url(#paint9_linear_5479_56415)"/>
<path d="M1146.6 370.25L1094.1 317.687L1041.6 370.25H1146.6Z" fill="url(#paint10_linear_5479_56415)"/>
<path d="M1041.47 -156.612L988.97 -104.05L1041.47 -51.4873V-156.612Z" fill="url(#paint11_linear_5479_56415)"/>
<path d="M1252 -51.2125L1199.5 1.3501L1252 53.9126V-51.2125Z" fill="url(#paint12_linear_5479_56415)"/>
<path d="M936.336 159.45L988.833 212.012L1041.33 159.45L936.336 159.45Z" fill="url(#paint13_linear_5479_56415)"/>
<path d="M936.336 -51.3501L988.833 1.21243L1041.33 -51.3501L936.336 -51.3501Z" fill="url(#paint14_linear_5479_56415)"/>
<path d="M1146.87 54.0498L1199.37 106.612L1251.86 54.0498L1146.87 54.0498Z" fill="url(#paint15_linear_5479_56415)"/>
<path d="M1146.87 -156.75L1199.37 -104.187L1251.86 -156.75L1146.87 -156.75Z" fill="url(#paint16_linear_5479_56415)"/>
<path d="M1041.6 264.85L1094.1 317.412L1146.6 264.85H1041.6Z" fill="url(#paint17_linear_5479_56415)"/>
<path d="M936.199 -51.4873L988.695 -104.05L936.199 -156.612V-51.4873Z" fill="url(#paint18_linear_5479_56415)"/>
<path d="M1146.73 53.9126L1199.23 1.3501L1146.73 -51.2125V53.9126Z" fill="url(#paint19_linear_5479_56415)"/>
<path d="M830.932 370.112L883.428 317.55L830.932 264.987V370.112Z" fill="url(#paint20_linear_5479_56415)"/>
<path d="M1041.47 264.987L988.97 317.55L1041.47 370.112V264.987Z" fill="url(#paint21_linear_5479_56415)"/>
<path d="M1252 159.587L1199.5 212.15L1252 264.712V159.587Z" fill="url(#paint22_linear_5479_56415)"/>
<path d="M936.199 370.112L883.703 317.55L936.199 264.987L988.696 317.55L936.199 370.112Z" fill="url(#paint23_linear_5479_56415)"/>
<path d="M1199.37 370.112L1146.87 317.55L1199.37 264.987L1251.86 317.55L1199.37 370.112Z" fill="url(#paint24_linear_5479_56415)"/>
<path d="M1146.73 264.712L1094.24 212.15L1146.73 159.587L1199.23 212.15L1146.73 264.712Z" fill="url(#paint25_linear_5479_56415)"/>
<path d="M883.566 53.9124L831.069 1.34985L883.566 -51.2127L936.062 1.34985L883.566 53.9124Z" fill="url(#paint26_linear_5479_56415)"/>
<path d="M1094.1 53.9124L1041.6 1.34987L1094.1 -51.2127L1146.6 1.34987L1094.1 53.9124Z" fill="url(#paint27_linear_5479_56415)"/>
<path d="M883.566 -51.4875L831.069 -104.05L883.566 -156.613L936.062 -104.05L883.566 -51.4875Z" fill="url(#paint28_linear_5479_56415)"/>
<path d="M1094.1 -51.4875L1041.6 -104.05L1094.1 -156.613L1146.6 -104.05L1094.1 -51.4875Z" fill="url(#paint29_linear_5479_56415)"/>
<path d="M831.069 54.0498L883.566 106.612L936.062 54.0498H831.069Z" fill="url(#paint30_linear_5479_56415)"/>
<path d="M778.161 1.4886L830.657 54.0511L778.161 106.614L725.664 54.0511L778.161 1.4886Z" fill="url(#paint31_linear_5479_56415)"/>
<path d="M672.757 106.751L620.26 159.313L567.764 106.751L620.26 54.1883L672.757 106.751Z" fill="url(#paint32_linear_5479_56415)"/>
<path d="M725.664 -51.3492L778.161 1.21341L830.657 -51.3492L725.664 -51.3492Z" fill="url(#paint33_linear_5479_56415)"/>
<path d="M725.528 54.1884L673.032 106.751L725.528 159.313V54.1884Z" fill="url(#paint34_linear_5479_56415)"/>
<path d="M514.993 159.313L567.49 106.751L514.993 54.1883L514.993 159.313Z" fill="url(#paint35_linear_5479_56415)"/>
<path d="M620.26 -51.2116L567.764 1.35094L620.26 53.9135V-51.2116Z" fill="url(#paint36_linear_5479_56415)"/>
<path d="M620.397 -51.3492L672.894 1.21335L725.39 -51.3492L620.397 -51.3492Z" fill="url(#paint37_linear_5479_56415)"/>
<path d="M620.397 159.451L672.894 212.013L725.39 159.451H620.397Z" fill="url(#paint38_linear_5479_56415)"/>
<path d="M515.13 -156.749L567.627 -104.187L620.123 -156.749L515.13 -156.749Z" fill="url(#paint39_linear_5479_56415)"/>
<path d="M620.26 370.113L672.756 317.551L620.26 264.988V370.113Z" fill="url(#paint40_linear_5479_56415)"/>
<path d="M725.39 54.0511L672.894 1.48854L620.397 54.0511L725.39 54.0511Z" fill="url(#paint41_linear_5479_56415)"/>
<path d="M725.39 264.851L672.894 212.288L620.397 264.851L725.39 264.851Z" fill="url(#paint42_linear_5479_56415)"/>
<path d="M620.123 -51.3488L567.627 -103.911L515.13 -51.3488L620.123 -51.3488Z" fill="url(#paint43_linear_5479_56415)"/>
<path d="M725.527 264.988L673.031 317.551L725.527 370.113V264.988Z" fill="url(#paint44_linear_5479_56415)"/>
<path d="M830.794 -156.611L778.298 -104.049L830.794 -51.4864V-156.611Z" fill="url(#paint45_linear_5479_56415)"/>
<path d="M620.261 -51.4864L672.757 -104.049L620.261 -156.612V-51.4864Z" fill="url(#paint46_linear_5479_56415)"/>
<path d="M725.527 -156.611L778.023 -104.049L725.527 -51.4862L673.031 -104.049L725.527 -156.611Z" fill="url(#paint47_linear_5479_56415)"/>
<path d="M778.161 159.588L830.657 212.151L778.161 264.714L725.664 212.151L778.161 159.588Z" fill="url(#paint48_linear_5479_56415)"/>
<path d="M567.627 159.588L620.123 212.151L567.627 264.714L515.13 212.151L567.627 159.588Z" fill="url(#paint49_linear_5479_56415)"/>
<path d="M778.161 264.988L830.657 317.551L778.161 370.113L725.664 317.551L778.161 264.988Z" fill="url(#paint50_linear_5479_56415)"/>
<path d="M567.627 264.988L620.123 317.551L567.627 370.113L515.13 317.551L567.627 264.988Z" fill="url(#paint51_linear_5479_56415)"/>
<path d="M830.657 159.451L778.161 106.889L725.664 159.451L830.657 159.451Z" fill="url(#paint52_linear_5479_56415)"/>
<path d="M148.573 212.012L96.0763 159.45L148.573 106.887L201.069 159.45L148.573 212.012Z" fill="url(#paint53_linear_5479_56415)"/>
<path d="M253.976 106.75L306.473 54.1874L358.969 106.75L306.473 159.313L253.976 106.75Z" fill="url(#paint54_linear_5479_56415)"/>
<path d="M201.069 264.85L148.573 212.288L96.0763 264.85H201.069Z" fill="url(#paint55_linear_5479_56415)"/>
<path d="M201.205 159.313L253.702 106.75L201.205 54.1874V159.313Z" fill="url(#paint56_linear_5479_56415)"/>
<path d="M411.74 54.1874L359.244 106.75L411.74 159.313L411.74 54.1874Z" fill="url(#paint57_linear_5479_56415)"/>
<path d="M306.473 264.712L358.969 212.15L306.473 159.587V264.712Z" fill="url(#paint58_linear_5479_56415)"/>
<path d="M306.336 264.85L253.84 212.288L201.343 264.85H306.336Z" fill="url(#paint59_linear_5479_56415)"/>
<path d="M306.336 54.0502L253.84 1.48766L201.343 54.0502L306.336 54.0502Z" fill="url(#paint60_linear_5479_56415)"/>
<path d="M516.87 159.45L464.374 106.888L411.877 159.45H516.87Z" fill="url(#paint61_linear_5479_56415)"/>
<path d="M516.87 -51.3497L464.374 -103.912L411.877 -51.3497L516.87 -51.3497Z" fill="url(#paint62_linear_5479_56415)"/>
<path d="M411.603 370.25L359.107 317.687L306.61 370.25H411.603Z" fill="url(#paint63_linear_5479_56415)"/>
<path d="M306.473 -156.612L253.977 -104.05L306.473 -51.4873V-156.612Z" fill="url(#paint64_linear_5479_56415)"/>
<path d="M517.007 -51.2125L464.511 1.3501L517.007 53.9126V-51.2125Z" fill="url(#paint65_linear_5479_56415)"/>
<path d="M201.343 159.45L253.84 212.012L306.336 159.45L201.343 159.45Z" fill="url(#paint66_linear_5479_56415)"/>
<path d="M201.343 -51.3501L253.84 1.21243L306.336 -51.3501L201.343 -51.3501Z" fill="url(#paint67_linear_5479_56415)"/>
<path d="M411.877 54.0498L464.374 106.612L516.87 54.0498L411.877 54.0498Z" fill="url(#paint68_linear_5479_56415)"/>
<path d="M411.877 -156.75L464.374 -104.187L516.87 -156.75L411.877 -156.75Z" fill="url(#paint69_linear_5479_56415)"/>
<path d="M306.61 264.85L359.107 317.412L411.603 264.85H306.61Z" fill="url(#paint70_linear_5479_56415)"/>
<path d="M201.206 -51.4873L253.702 -104.05L201.206 -156.612V-51.4873Z" fill="url(#paint71_linear_5479_56415)"/>
<path d="M411.739 53.9126L464.236 1.3501L411.739 -51.2125V53.9126Z" fill="url(#paint72_linear_5479_56415)"/>
<path d="M95.9388 370.112L148.435 317.55L95.9388 264.987V370.112Z" fill="url(#paint73_linear_5479_56415)"/>
<path d="M306.473 264.987L253.976 317.55L306.473 370.112L306.473 264.987Z" fill="url(#paint74_linear_5479_56415)"/>
<path d="M517.007 159.587L464.511 212.15L517.007 264.712V159.587Z" fill="url(#paint75_linear_5479_56415)"/>
<path d="M201.206 370.112L148.71 317.55L201.206 264.987L253.702 317.55L201.206 370.112Z" fill="url(#paint76_linear_5479_56415)"/>
<path d="M464.374 370.112L411.877 317.55L464.374 264.987L516.87 317.55L464.374 370.112Z" fill="url(#paint77_linear_5479_56415)"/>
<path d="M411.74 264.712L359.244 212.15L411.74 159.587L464.236 212.15L411.74 264.712Z" fill="url(#paint78_linear_5479_56415)"/>
<path d="M148.573 53.9124L96.0763 1.34985L148.573 -51.2127L201.069 1.34985L148.573 53.9124Z" fill="url(#paint79_linear_5479_56415)"/>
<path d="M359.107 53.9124L306.61 1.34987L359.107 -51.2127L411.603 1.34987L359.107 53.9124Z" fill="url(#paint80_linear_5479_56415)"/>
<path d="M148.573 -51.4875L96.0763 -104.05L148.573 -156.613L201.069 -104.05L148.573 -51.4875Z" fill="url(#paint81_linear_5479_56415)"/>
<path d="M359.107 -51.4875L306.61 -104.05L359.107 -156.613L411.603 -104.05L359.107 -51.4875Z" fill="url(#paint82_linear_5479_56415)"/>
<path d="M96.0763 54.0498L148.573 106.612L201.069 54.0498H96.0763Z" fill="url(#paint83_linear_5479_56415)"/>
<path d="M43.1676 1.4886L95.6639 54.0511L43.1676 106.614L-9.32869 54.0511L43.1676 1.4886Z" fill="url(#paint84_linear_5479_56415)"/>
<path d="M-62.2363 106.751L-114.733 159.313L-167.229 106.751L-114.733 54.1883L-62.2363 106.751Z" fill="url(#paint85_linear_5479_56415)"/>
<path d="M-9.32867 -51.3492L43.1676 1.21341L95.6639 -51.3492L-9.32867 -51.3492Z" fill="url(#paint86_linear_5479_56415)"/>
<path d="M-9.46521 54.1884L-61.9614 106.751L-9.46523 159.313L-9.46521 54.1884Z" fill="url(#paint87_linear_5479_56415)"/>
<path d="M-220 159.313L-167.503 106.751L-220 54.1883L-220 159.313Z" fill="url(#paint88_linear_5479_56415)"/>
<path d="M-114.733 -51.2116L-167.229 1.35094L-114.733 53.9135L-114.733 -51.2116Z" fill="url(#paint89_linear_5479_56415)"/>
<path d="M-114.596 -51.3492L-62.0994 1.21335L-9.60315 -51.3492L-114.596 -51.3492Z" fill="url(#paint90_linear_5479_56415)"/>
<path d="M-114.596 159.451L-62.0994 212.013L-9.60321 159.451H-114.596Z" fill="url(#paint91_linear_5479_56415)"/>
<path d="M-219.863 -156.749L-167.366 -104.187L-114.87 -156.749L-219.863 -156.749Z" fill="url(#paint92_linear_5479_56415)"/>
<path d="M-114.733 370.113L-62.2369 317.551L-114.733 264.988L-114.733 370.113Z" fill="url(#paint93_linear_5479_56415)"/>
<path d="M-9.6032 54.0511L-62.0994 1.48854L-114.596 54.0511L-9.6032 54.0511Z" fill="url(#paint94_linear_5479_56415)"/>
<path d="M-9.60321 264.851L-62.0994 212.288L-114.596 264.851L-9.60321 264.851Z" fill="url(#paint95_linear_5479_56415)"/>
<path d="M-114.87 -51.3488L-167.366 -103.911L-219.863 -51.3488L-114.87 -51.3488Z" fill="url(#paint96_linear_5479_56415)"/>
<path d="M-9.46579 264.988L-61.962 317.551L-9.46581 370.113L-9.46579 264.988Z" fill="url(#paint97_linear_5479_56415)"/>
<path d="M95.8013 -156.611L43.305 -104.049L95.8013 -51.4864V-156.611Z" fill="url(#paint98_linear_5479_56415)"/>
<path d="M-114.733 -51.4864L-62.2363 -104.049L-114.733 -156.612L-114.733 -51.4864Z" fill="url(#paint99_linear_5479_56415)"/>
<path d="M-9.46588 -156.611L43.0304 -104.049L-9.4659 -51.4862L-61.9622 -104.049L-9.46588 -156.611Z" fill="url(#paint100_linear_5479_56415)"/>
<path d="M43.1676 159.588L95.6638 212.151L43.1676 264.714L-9.3287 212.151L43.1676 159.588Z" fill="url(#paint101_linear_5479_56415)"/>
<path d="M-167.366 159.588L-114.87 212.151L-167.367 264.714L-219.863 212.151L-167.366 159.588Z" fill="url(#paint102_linear_5479_56415)"/>
<path d="M43.1676 264.988L95.6638 317.551L43.1676 370.113L-9.3287 317.551L43.1676 264.988Z" fill="url(#paint103_linear_5479_56415)"/>
<path d="M-167.367 264.988L-114.87 317.551L-167.367 370.113L-219.863 317.551L-167.367 264.988Z" fill="url(#paint104_linear_5479_56415)"/>
<path d="M95.6638 159.451L43.1676 106.889L-9.32869 159.451L95.6638 159.451Z" fill="url(#paint105_linear_5479_56415)"/>
</g>
<defs>
<linearGradient id="paint0_linear_5479_56415" x1="-15.5" y1="107.172" x2="1224.81" y2="106.522" gradientUnits="userSpaceOnUse">
<stop stop-color="#E5F0F8"/>
<stop offset="1" stop-color="#AACBE9"/>
</linearGradient>
<linearGradient id="paint1_linear_5479_56415" x1="-15.5" y1="107.172" x2="1224.81" y2="106.522" gradientUnits="userSpaceOnUse">
<stop stop-color="#E5F0F8"/>
<stop offset="1" stop-color="#AACBE9"/>
</linearGradient>
<linearGradient id="paint2_linear_5479_56415" x1="-15.5" y1="107.172" x2="1224.81" y2="106.522" gradientUnits="userSpaceOnUse">
<stop stop-color="#E5F0F8"/>
<stop offset="1" stop-color="#AACBE9"/>
</linearGradient>
<linearGradient id="paint3_linear_5479_56415" x1="-15.5" y1="107.172" x2="1224.81" y2="106.522" gradientUnits="userSpaceOnUse">
<stop stop-color="#E5F0F8"/>
<stop offset="1" stop-color="#AACBE9"/>
</linearGradient>
<linearGradient id="paint4_linear_5479_56415" x1="-15.5" y1="107.172" x2="1224.81" y2="106.522" gradientUnits="userSpaceOnUse">
<stop stop-color="#E5F0F8"/>
<stop offset="1" stop-color="#AACBE9"/>
</linearGradient>
<linearGradient id="paint5_linear_5479_56415" x1="-15.5" y1="107.172" x2="1224.81" y2="106.522" gradientUnits="userSpaceOnUse">
<stop stop-color="#E5F0F8"/>
<stop offset="1" stop-color="#AACBE9"/>
</linearGradient>
<linearGradient id="paint6_linear_5479_56415" x1="-15.5" y1="107.172" x2="1224.81" y2="106.522" gradientUnits="userSpaceOnUse">
<stop stop-color="#E5F0F8"/>
<stop offset="1" stop-color="#AACBE9"/>
</linearGradient>
<linearGradient id="paint7_linear_5479_56415" x1="-15.5" y1="107.172" x2="1224.81" y2="106.522" gradientUnits="userSpaceOnUse">
<stop stop-color="#E5F0F8"/>
<stop offset="1" stop-color="#AACBE9"/>
</linearGradient>
<linearGradient id="paint8_linear_5479_56415" x1="-15.5" y1="107.172" x2="1224.81" y2="106.522" gradientUnits="userSpaceOnUse">
<stop stop-color="#E5F0F8"/>
<stop offset="1" stop-color="#AACBE9"/>
</linearGradient>
<linearGradient id="paint9_linear_5479_56415" x1="-15.5" y1="107.172" x2="1224.81" y2="106.522" gradientUnits="userSpaceOnUse">
<stop stop-color="#E5F0F8"/>
<stop offset="1" stop-color="#AACBE9"/>
</linearGradient>
<linearGradient id="paint10_linear_5479_56415" x1="-15.5" y1="107.172" x2="1224.81" y2="106.522" gradientUnits="userSpaceOnUse">
<stop stop-color="#E5F0F8"/>
<stop offset="1" stop-color="#AACBE9"/>
</linearGradient>
<linearGradient id="paint11_linear_5479_56415" x1="-15.5" y1="107.172" x2="1224.81" y2="106.522" gradientUnits="userSpaceOnUse">
<stop stop-color="#E5F0F8"/>
<stop offset="1" stop-color="#AACBE9"/>
</linearGradient>
<linearGradient id="paint12_linear_5479_56415" x1="-15.5" y1="107.172" x2="1224.81" y2="106.522" gradientUnits="userSpaceOnUse">
<stop stop-color="#E5F0F8"/>
<stop offset="1" stop-color="#AACBE9"/>
</linearGradient>
<linearGradient id="paint13_linear_5479_56415" x1="-15.5" y1="107.172" x2="1224.81" y2="106.522" gradientUnits="userSpaceOnUse">
<stop stop-color="#E5F0F8"/>
<stop offset="1" stop-color="#AACBE9"/>
</linearGradient>
<linearGradient id="paint14_linear_5479_56415" x1="-15.5" y1="107.172" x2="1224.81" y2="106.522" gradientUnits="userSpaceOnUse">
<stop stop-color="#E5F0F8"/>
<stop offset="1" stop-color="#AACBE9"/>
</linearGradient>
<linearGradient id="paint15_linear_5479_56415" x1="-15.5" y1="107.172" x2="1224.81" y2="106.522" gradientUnits="userSpaceOnUse">
<stop stop-color="#E5F0F8"/>
<stop offset="1" stop-color="#AACBE9"/>
</linearGradient>
<linearGradient id="paint16_linear_5479_56415" x1="-15.5" y1="107.172" x2="1224.81" y2="106.522" gradientUnits="userSpaceOnUse">
<stop stop-color="#E5F0F8"/>
<stop offset="1" stop-color="#AACBE9"/>
</linearGradient>
<linearGradient id="paint17_linear_5479_56415" x1="-15.5" y1="107.172" x2="1224.81" y2="106.522" gradientUnits="userSpaceOnUse">
<stop stop-color="#E5F0F8"/>
<stop offset="1" stop-color="#AACBE9"/>
</linearGradient>
<linearGradient id="paint18_linear_5479_56415" x1="-15.5" y1="107.172" x2="1224.81" y2="106.522" gradientUnits="userSpaceOnUse">
<stop stop-color="#E5F0F8"/>
<stop offset="1" stop-color="#AACBE9"/>
</linearGradient>
<linearGradient id="paint19_linear_5479_56415" x1="-15.5" y1="107.172" x2="1224.81" y2="106.522" gradientUnits="userSpaceOnUse">
<stop stop-color="#E5F0F8"/>
<stop offset="1" stop-color="#AACBE9"/>
</linearGradient>
<linearGradient id="paint20_linear_5479_56415" x1="-15.5" y1="107.172" x2="1224.81" y2="106.522" gradientUnits="userSpaceOnUse">
<stop stop-color="#E5F0F8"/>
<stop offset="1" stop-color="#AACBE9"/>
</linearGradient>
<linearGradient id="paint21_linear_5479_56415" x1="-15.5" y1="107.172" x2="1224.81" y2="106.522" gradientUnits="userSpaceOnUse">
<stop stop-color="#E5F0F8"/>
<stop offset="1" stop-color="#AACBE9"/>
</linearGradient>
<linearGradient id="paint22_linear_5479_56415" x1="-15.5" y1="107.172" x2="1224.81" y2="106.522" gradientUnits="userSpaceOnUse">
<stop stop-color="#E5F0F8"/>
<stop offset="1" stop-color="#AACBE9"/>
</linearGradient>
<linearGradient id="paint23_linear_5479_56415" x1="-15.5" y1="107.172" x2="1224.81" y2="106.522" gradientUnits="userSpaceOnUse">
<stop stop-color="#E5F0F8"/>
<stop offset="1" stop-color="#AACBE9"/>
</linearGradient>
<linearGradient id="paint24_linear_5479_56415" x1="-15.5" y1="107.172" x2="1224.81" y2="106.522" gradientUnits="userSpaceOnUse">
<stop stop-color="#E5F0F8"/>
<stop offset="1" stop-color="#AACBE9"/>
</linearGradient>
<linearGradient id="paint25_linear_5479_56415" x1="-15.5" y1="107.172" x2="1224.81" y2="106.522" gradientUnits="userSpaceOnUse">
<stop stop-color="#E5F0F8"/>
<stop offset="1" stop-color="#AACBE9"/>
</linearGradient>
<linearGradient id="paint26_linear_5479_56415" x1="-15.5" y1="107.172" x2="1224.81" y2="106.522" gradientUnits="userSpaceOnUse">
<stop stop-color="#E5F0F8"/>
<stop offset="1" stop-color="#AACBE9"/>
</linearGradient>
<linearGradient id="paint27_linear_5479_56415" x1="-15.5" y1="107.172" x2="1224.81" y2="106.522" gradientUnits="userSpaceOnUse">
<stop stop-color="#E5F0F8"/>
<stop offset="1" stop-color="#AACBE9"/>
</linearGradient>
<linearGradient id="paint28_linear_5479_56415" x1="-15.5" y1="107.172" x2="1224.81" y2="106.522" gradientUnits="userSpaceOnUse">
<stop stop-color="#E5F0F8"/>
<stop offset="1" stop-color="#AACBE9"/>
</linearGradient>
<linearGradient id="paint29_linear_5479_56415" x1="-15.5" y1="107.172" x2="1224.81" y2="106.522" gradientUnits="userSpaceOnUse">
<stop stop-color="#E5F0F8"/>
<stop offset="1" stop-color="#AACBE9"/>
</linearGradient>
<linearGradient id="paint30_linear_5479_56415" x1="-15.5" y1="107.172" x2="1224.81" y2="106.522" gradientUnits="userSpaceOnUse">
<stop stop-color="#E5F0F8"/>
<stop offset="1" stop-color="#AACBE9"/>
</linearGradient>
<linearGradient id="paint31_linear_5479_56415" x1="-15.5" y1="107.172" x2="1224.81" y2="106.522" gradientUnits="userSpaceOnUse">
<stop stop-color="#E5F0F8"/>
<stop offset="1" stop-color="#AACBE9"/>
</linearGradient>
<linearGradient id="paint32_linear_5479_56415" x1="-15.5" y1="107.172" x2="1224.81" y2="106.522" gradientUnits="userSpaceOnUse">
<stop stop-color="#E5F0F8"/>
<stop offset="1" stop-color="#AACBE9"/>
</linearGradient>
<linearGradient id="paint33_linear_5479_56415" x1="-15.5" y1="107.172" x2="1224.81" y2="106.522" gradientUnits="userSpaceOnUse">
<stop stop-color="#E5F0F8"/>
<stop offset="1" stop-color="#AACBE9"/>
</linearGradient>
<linearGradient id="paint34_linear_5479_56415" x1="-15.5" y1="107.172" x2="1224.81" y2="106.522" gradientUnits="userSpaceOnUse">
<stop stop-color="#E5F0F8"/>
<stop offset="1" stop-color="#AACBE9"/>
</linearGradient>
<linearGradient id="paint35_linear_5479_56415" x1="-15.5" y1="107.172" x2="1224.81" y2="106.522" gradientUnits="userSpaceOnUse">
<stop stop-color="#E5F0F8"/>
<stop offset="1" stop-color="#AACBE9"/>
</linearGradient>
<linearGradient id="paint36_linear_5479_56415" x1="-15.5" y1="107.172" x2="1224.81" y2="106.522" gradientUnits="userSpaceOnUse">
<stop stop-color="#E5F0F8"/>
<stop offset="1" stop-color="#AACBE9"/>
</linearGradient>
<linearGradient id="paint37_linear_5479_56415" x1="-15.5" y1="107.172" x2="1224.81" y2="106.522" gradientUnits="userSpaceOnUse">
<stop stop-color="#E5F0F8"/>
<stop offset="1" stop-color="#AACBE9"/>
</linearGradient>
<linearGradient id="paint38_linear_5479_56415" x1="-15.5" y1="107.172" x2="1224.81" y2="106.522" gradientUnits="userSpaceOnUse">
<stop stop-color="#E5F0F8"/>
<stop offset="1" stop-color="#AACBE9"/>
</linearGradient>
<linearGradient id="paint39_linear_5479_56415" x1="-15.5" y1="107.172" x2="1224.81" y2="106.522" gradientUnits="userSpaceOnUse">
<stop stop-color="#E5F0F8"/>
<stop offset="1" stop-color="#AACBE9"/>
</linearGradient>
<linearGradient id="paint40_linear_5479_56415" x1="-15.5" y1="107.172" x2="1224.81" y2="106.522" gradientUnits="userSpaceOnUse">
<stop stop-color="#E5F0F8"/>
<stop offset="1" stop-color="#AACBE9"/>
</linearGradient>
<linearGradient id="paint41_linear_5479_56415" x1="-15.5" y1="107.172" x2="1224.81" y2="106.522" gradientUnits="userSpaceOnUse">
<stop stop-color="#E5F0F8"/>
<stop offset="1" stop-color="#AACBE9"/>
</linearGradient>
<linearGradient id="paint42_linear_5479_56415" x1="-15.5" y1="107.172" x2="1224.81" y2="106.522" gradientUnits="userSpaceOnUse">
<stop stop-color="#E5F0F8"/>
<stop offset="1" stop-color="#AACBE9"/>
</linearGradient>
<linearGradient id="paint43_linear_5479_56415" x1="-15.5" y1="107.172" x2="1224.81" y2="106.522" gradientUnits="userSpaceOnUse">
<stop stop-color="#E5F0F8"/>
<stop offset="1" stop-color="#AACBE9"/>
</linearGradient>
<linearGradient id="paint44_linear_5479_56415" x1="-15.5" y1="107.172" x2="1224.81" y2="106.522" gradientUnits="userSpaceOnUse">
<stop stop-color="#E5F0F8"/>
<stop offset="1" stop-color="#AACBE9"/>
</linearGradient>
<linearGradient id="paint45_linear_5479_56415" x1="-15.5" y1="107.172" x2="1224.81" y2="106.522" gradientUnits="userSpaceOnUse">
<stop stop-color="#E5F0F8"/>
<stop offset="1" stop-color="#AACBE9"/>
</linearGradient>
<linearGradient id="paint46_linear_5479_56415" x1="-15.5" y1="107.172" x2="1224.81" y2="106.522" gradientUnits="userSpaceOnUse">
<stop stop-color="#E5F0F8"/>
<stop offset="1" stop-color="#AACBE9"/>
</linearGradient>
<linearGradient id="paint47_linear_5479_56415" x1="-15.5" y1="107.172" x2="1224.81" y2="106.522" gradientUnits="userSpaceOnUse">
<stop stop-color="#E5F0F8"/>
<stop offset="1" stop-color="#AACBE9"/>
</linearGradient>
<linearGradient id="paint48_linear_5479_56415" x1="-15.5" y1="107.172" x2="1224.81" y2="106.522" gradientUnits="userSpaceOnUse">
<stop stop-color="#E5F0F8"/>
<stop offset="1" stop-color="#AACBE9"/>
</linearGradient>
<linearGradient id="paint49_linear_5479_56415" x1="-15.5" y1="107.172" x2="1224.81" y2="106.522" gradientUnits="userSpaceOnUse">
<stop stop-color="#E5F0F8"/>
<stop offset="1" stop-color="#AACBE9"/>
</linearGradient>
<linearGradient id="paint50_linear_5479_56415" x1="-15.5" y1="107.172" x2="1224.81" y2="106.522" gradientUnits="userSpaceOnUse">
<stop stop-color="#E5F0F8"/>
<stop offset="1" stop-color="#AACBE9"/>
</linearGradient>
<linearGradient id="paint51_linear_5479_56415" x1="-15.5" y1="107.172" x2="1224.81" y2="106.522" gradientUnits="userSpaceOnUse">
<stop stop-color="#E5F0F8"/>
<stop offset="1" stop-color="#AACBE9"/>
</linearGradient>
<linearGradient id="paint52_linear_5479_56415" x1="-15.5" y1="107.172" x2="1224.81" y2="106.522" gradientUnits="userSpaceOnUse">
<stop stop-color="#E5F0F8"/>
<stop offset="1" stop-color="#AACBE9"/>
</linearGradient>
<linearGradient id="paint53_linear_5479_56415" x1="-15.5" y1="107.172" x2="1224.81" y2="106.522" gradientUnits="userSpaceOnUse">
<stop stop-color="#E5F0F8"/>
<stop offset="1" stop-color="#AACBE9"/>
</linearGradient>
<linearGradient id="paint54_linear_5479_56415" x1="-15.5" y1="107.172" x2="1224.81" y2="106.522" gradientUnits="userSpaceOnUse">
<stop stop-color="#E5F0F8"/>
<stop offset="1" stop-color="#AACBE9"/>
</linearGradient>
<linearGradient id="paint55_linear_5479_56415" x1="-15.5" y1="107.172" x2="1224.81" y2="106.522" gradientUnits="userSpaceOnUse">
<stop stop-color="#E5F0F8"/>
<stop offset="1" stop-color="#AACBE9"/>
</linearGradient>
<linearGradient id="paint56_linear_5479_56415" x1="-15.5" y1="107.172" x2="1224.81" y2="106.522" gradientUnits="userSpaceOnUse">
<stop stop-color="#E5F0F8"/>
<stop offset="1" stop-color="#AACBE9"/>
</linearGradient>
<linearGradient id="paint57_linear_5479_56415" x1="-15.5" y1="107.172" x2="1224.81" y2="106.522" gradientUnits="userSpaceOnUse">
<stop stop-color="#E5F0F8"/>
<stop offset="1" stop-color="#AACBE9"/>
</linearGradient>
<linearGradient id="paint58_linear_5479_56415" x1="-15.5" y1="107.172" x2="1224.81" y2="106.522" gradientUnits="userSpaceOnUse">
<stop stop-color="#E5F0F8"/>
<stop offset="1" stop-color="#AACBE9"/>
</linearGradient>
<linearGradient id="paint59_linear_5479_56415" x1="-15.5" y1="107.172" x2="1224.81" y2="106.522" gradientUnits="userSpaceOnUse">
<stop stop-color="#E5F0F8"/>
<stop offset="1" stop-color="#AACBE9"/>
</linearGradient>
<linearGradient id="paint60_linear_5479_56415" x1="-15.5" y1="107.172" x2="1224.81" y2="106.522" gradientUnits="userSpaceOnUse">
<stop stop-color="#E5F0F8"/>
<stop offset="1" stop-color="#AACBE9"/>
</linearGradient>
<linearGradient id="paint61_linear_5479_56415" x1="-15.5" y1="107.172" x2="1224.81" y2="106.522" gradientUnits="userSpaceOnUse">
<stop stop-color="#E5F0F8"/>
<stop offset="1" stop-color="#AACBE9"/>
</linearGradient>
<linearGradient id="paint62_linear_5479_56415" x1="-15.5" y1="107.172" x2="1224.81" y2="106.522" gradientUnits="userSpaceOnUse">
<stop stop-color="#E5F0F8"/>
<stop offset="1" stop-color="#AACBE9"/>
</linearGradient>
<linearGradient id="paint63_linear_5479_56415" x1="-15.5" y1="107.172" x2="1224.81" y2="106.522" gradientUnits="userSpaceOnUse">
<stop stop-color="#E5F0F8"/>
<stop offset="1" stop-color="#AACBE9"/>
</linearGradient>
<linearGradient id="paint64_linear_5479_56415" x1="-15.5" y1="107.172" x2="1224.81" y2="106.522" gradientUnits="userSpaceOnUse">
<stop stop-color="#E5F0F8"/>
<stop offset="1" stop-color="#AACBE9"/>
</linearGradient>
<linearGradient id="paint65_linear_5479_56415" x1="-15.5" y1="107.172" x2="1224.81" y2="106.522" gradientUnits="userSpaceOnUse">
<stop stop-color="#E5F0F8"/>
<stop offset="1" stop-color="#AACBE9"/>
</linearGradient>
<linearGradient id="paint66_linear_5479_56415" x1="-15.5" y1="107.172" x2="1224.81" y2="106.522" gradientUnits="userSpaceOnUse">
<stop stop-color="#E5F0F8"/>
<stop offset="1" stop-color="#AACBE9"/>
</linearGradient>
<linearGradient id="paint67_linear_5479_56415" x1="-15.5" y1="107.172" x2="1224.81" y2="106.522" gradientUnits="userSpaceOnUse">
<stop stop-color="#E5F0F8"/>
<stop offset="1" stop-color="#AACBE9"/>
</linearGradient>
<linearGradient id="paint68_linear_5479_56415" x1="-15.5" y1="107.172" x2="1224.81" y2="106.522" gradientUnits="userSpaceOnUse">
<stop stop-color="#E5F0F8"/>
<stop offset="1" stop-color="#AACBE9"/>
</linearGradient>
<linearGradient id="paint69_linear_5479_56415" x1="-15.5" y1="107.172" x2="1224.81" y2="106.522" gradientUnits="userSpaceOnUse">
<stop stop-color="#E5F0F8"/>
<stop offset="1" stop-color="#AACBE9"/>
</linearGradient>
<linearGradient id="paint70_linear_5479_56415" x1="-15.5" y1="107.172" x2="1224.81" y2="106.522" gradientUnits="userSpaceOnUse">
<stop stop-color="#E5F0F8"/>
<stop offset="1" stop-color="#AACBE9"/>
</linearGradient>
<linearGradient id="paint71_linear_5479_56415" x1="-15.5" y1="107.172" x2="1224.81" y2="106.522" gradientUnits="userSpaceOnUse">
<stop stop-color="#E5F0F8"/>
<stop offset="1" stop-color="#AACBE9"/>
</linearGradient>
<linearGradient id="paint72_linear_5479_56415" x1="-15.5" y1="107.172" x2="1224.81" y2="106.522" gradientUnits="userSpaceOnUse">
<stop stop-color="#E5F0F8"/>
<stop offset="1" stop-color="#AACBE9"/>
</linearGradient>
<linearGradient id="paint73_linear_5479_56415" x1="-15.5" y1="107.172" x2="1224.81" y2="106.522" gradientUnits="userSpaceOnUse">
<stop stop-color="#E5F0F8"/>
<stop offset="1" stop-color="#AACBE9"/>
</linearGradient>
<linearGradient id="paint74_linear_5479_56415" x1="-15.5" y1="107.172" x2="1224.81" y2="106.522" gradientUnits="userSpaceOnUse">
<stop stop-color="#E5F0F8"/>
<stop offset="1" stop-color="#AACBE9"/>
</linearGradient>
<linearGradient id="paint75_linear_5479_56415" x1="-15.5" y1="107.172" x2="1224.81" y2="106.522" gradientUnits="userSpaceOnUse">
<stop stop-color="#E5F0F8"/>
<stop offset="1" stop-color="#AACBE9"/>
</linearGradient>
<linearGradient id="paint76_linear_5479_56415" x1="-15.5" y1="107.172" x2="1224.81" y2="106.522" gradientUnits="userSpaceOnUse">
<stop stop-color="#E5F0F8"/>
<stop offset="1" stop-color="#AACBE9"/>
</linearGradient>
<linearGradient id="paint77_linear_5479_56415" x1="-15.5" y1="107.172" x2="1224.81" y2="106.522" gradientUnits="userSpaceOnUse">
<stop stop-color="#E5F0F8"/>
<stop offset="1" stop-color="#AACBE9"/>
</linearGradient>
<linearGradient id="paint78_linear_5479_56415" x1="-15.5" y1="107.172" x2="1224.81" y2="106.522" gradientUnits="userSpaceOnUse">
<stop stop-color="#E5F0F8"/>
<stop offset="1" stop-color="#AACBE9"/>
</linearGradient>
<linearGradient id="paint79_linear_5479_56415" x1="-15.5" y1="107.172" x2="1224.81" y2="106.522" gradientUnits="userSpaceOnUse">
<stop stop-color="#E5F0F8"/>
<stop offset="1" stop-color="#AACBE9"/>
</linearGradient>
<linearGradient id="paint80_linear_5479_56415" x1="-15.5" y1="107.172" x2="1224.81" y2="106.522" gradientUnits="userSpaceOnUse">
<stop stop-color="#E5F0F8"/>
<stop offset="1" stop-color="#AACBE9"/>
</linearGradient>
<linearGradient id="paint81_linear_5479_56415" x1="-15.5" y1="107.172" x2="1224.81" y2="106.522" gradientUnits="userSpaceOnUse">
<stop stop-color="#E5F0F8"/>
<stop offset="1" stop-color="#AACBE9"/>
</linearGradient>
<linearGradient id="paint82_linear_5479_56415" x1="-15.5" y1="107.172" x2="1224.81" y2="106.522" gradientUnits="userSpaceOnUse">
<stop stop-color="#E5F0F8"/>
<stop offset="1" stop-color="#AACBE9"/>
</linearGradient>
<linearGradient id="paint83_linear_5479_56415" x1="-15.5" y1="107.172" x2="1224.81" y2="106.522" gradientUnits="userSpaceOnUse">
<stop stop-color="#E5F0F8"/>
<stop offset="1" stop-color="#AACBE9"/>
</linearGradient>
<linearGradient id="paint84_linear_5479_56415" x1="-15.5" y1="107.172" x2="1224.81" y2="106.522" gradientUnits="userSpaceOnUse">
<stop stop-color="#E5F0F8"/>
<stop offset="1" stop-color="#AACBE9"/>
</linearGradient>
<linearGradient id="paint85_linear_5479_56415" x1="-15.5" y1="107.172" x2="1224.81" y2="106.522" gradientUnits="userSpaceOnUse">
<stop stop-color="#E5F0F8"/>
<stop offset="1" stop-color="#AACBE9"/>
</linearGradient>
<linearGradient id="paint86_linear_5479_56415" x1="-15.5" y1="107.172" x2="1224.81" y2="106.522" gradientUnits="userSpaceOnUse">
<stop stop-color="#E5F0F8"/>
<stop offset="1" stop-color="#AACBE9"/>
</linearGradient>
<linearGradient id="paint87_linear_5479_56415" x1="-15.5" y1="107.172" x2="1224.81" y2="106.522" gradientUnits="userSpaceOnUse">
<stop stop-color="#E5F0F8"/>
<stop offset="1" stop-color="#AACBE9"/>
</linearGradient>
<linearGradient id="paint88_linear_5479_56415" x1="-15.5" y1="107.172" x2="1224.81" y2="106.522" gradientUnits="userSpaceOnUse">
<stop stop-color="#E5F0F8"/>
<stop offset="1" stop-color="#AACBE9"/>
</linearGradient>
<linearGradient id="paint89_linear_5479_56415" x1="-15.5" y1="107.172" x2="1224.81" y2="106.522" gradientUnits="userSpaceOnUse">
<stop stop-color="#E5F0F8"/>
<stop offset="1" stop-color="#AACBE9"/>
</linearGradient>
<linearGradient id="paint90_linear_5479_56415" x1="-15.5" y1="107.172" x2="1224.81" y2="106.522" gradientUnits="userSpaceOnUse">
<stop stop-color="#E5F0F8"/>
<stop offset="1" stop-color="#AACBE9"/>
</linearGradient>
<linearGradient id="paint91_linear_5479_56415" x1="-15.5" y1="107.172" x2="1224.81" y2="106.522" gradientUnits="userSpaceOnUse">
<stop stop-color="#E5F0F8"/>
<stop offset="1" stop-color="#AACBE9"/>
</linearGradient>
<linearGradient id="paint92_linear_5479_56415" x1="-15.5" y1="107.172" x2="1224.81" y2="106.522" gradientUnits="userSpaceOnUse">
<stop stop-color="#E5F0F8"/>
<stop offset="1" stop-color="#AACBE9"/>
</linearGradient>
<linearGradient id="paint93_linear_5479_56415" x1="-15.5" y1="107.172" x2="1224.81" y2="106.522" gradientUnits="userSpaceOnUse">
<stop stop-color="#E5F0F8"/>
<stop offset="1" stop-color="#AACBE9"/>
</linearGradient>
<linearGradient id="paint94_linear_5479_56415" x1="-15.5" y1="107.172" x2="1224.81" y2="106.522" gradientUnits="userSpaceOnUse">
<stop stop-color="#E5F0F8"/>
<stop offset="1" stop-color="#AACBE9"/>
</linearGradient>
<linearGradient id="paint95_linear_5479_56415" x1="-15.5" y1="107.172" x2="1224.81" y2="106.522" gradientUnits="userSpaceOnUse">
<stop stop-color="#E5F0F8"/>
<stop offset="1" stop-color="#AACBE9"/>
</linearGradient>
<linearGradient id="paint96_linear_5479_56415" x1="-15.5" y1="107.172" x2="1224.81" y2="106.522" gradientUnits="userSpaceOnUse">
<stop stop-color="#E5F0F8"/>
<stop offset="1" stop-color="#AACBE9"/>
</linearGradient>
<linearGradient id="paint97_linear_5479_56415" x1="-15.5" y1="107.172" x2="1224.81" y2="106.522" gradientUnits="userSpaceOnUse">
<stop stop-color="#E5F0F8"/>
<stop offset="1" stop-color="#AACBE9"/>
</linearGradient>
<linearGradient id="paint98_linear_5479_56415" x1="-15.5" y1="107.172" x2="1224.81" y2="106.522" gradientUnits="userSpaceOnUse">
<stop stop-color="#E5F0F8"/>
<stop offset="1" stop-color="#AACBE9"/>
</linearGradient>
<linearGradient id="paint99_linear_5479_56415" x1="-15.5" y1="107.172" x2="1224.81" y2="106.522" gradientUnits="userSpaceOnUse">
<stop stop-color="#E5F0F8"/>
<stop offset="1" stop-color="#AACBE9"/>
</linearGradient>
<linearGradient id="paint100_linear_5479_56415" x1="-15.5" y1="107.172" x2="1224.81" y2="106.522" gradientUnits="userSpaceOnUse">
<stop stop-color="#E5F0F8"/>
<stop offset="1" stop-color="#AACBE9"/>
</linearGradient>
<linearGradient id="paint101_linear_5479_56415" x1="-15.5" y1="107.172" x2="1224.81" y2="106.522" gradientUnits="userSpaceOnUse">
<stop stop-color="#E5F0F8"/>
<stop offset="1" stop-color="#AACBE9"/>
</linearGradient>
<linearGradient id="paint102_linear_5479_56415" x1="-15.5" y1="107.172" x2="1224.81" y2="106.522" gradientUnits="userSpaceOnUse">
<stop stop-color="#E5F0F8"/>
<stop offset="1" stop-color="#AACBE9"/>
</linearGradient>
<linearGradient id="paint103_linear_5479_56415" x1="-15.5" y1="107.172" x2="1224.81" y2="106.522" gradientUnits="userSpaceOnUse">
<stop stop-color="#E5F0F8"/>
<stop offset="1" stop-color="#AACBE9"/>
</linearGradient>
<linearGradient id="paint104_linear_5479_56415" x1="-15.5" y1="107.172" x2="1224.81" y2="106.522" gradientUnits="userSpaceOnUse">
<stop stop-color="#E5F0F8"/>
<stop offset="1" stop-color="#AACBE9"/>
</linearGradient>
<linearGradient id="paint105_linear_5479_56415" x1="-15.5" y1="107.172" x2="1224.81" y2="106.522" gradientUnits="userSpaceOnUse">
<stop stop-color="#E5F0F8"/>
<stop offset="1" stop-color="#AACBE9"/>
</linearGradient>
</defs>
</svg>
