<svg viewBox="0 0 214 214" fill="none" xmlns="http://www.w3.org/2000/svg"><rect width="214" height="214" rx="8" fill="#E1EDFF"/><path d="M103.651 117.334a8.944 8.944 0 0 1-3.302 3.452 8.945 8.945 0 0 1-7.022.989 8.987 8.987 0 0 1-3.232-1.641 9.1 9.1 0 0 1-2.335-2.79 10.352 10.352 0 0 1-1.2-4.983 10.194 10.194 0 0 1 1.198-4.949 9.271 9.271 0 0 1 2.37-2.734 9.139 9.139 0 0 1 10.224-.684 9.008 9.008 0 0 1 3.306 3.427 10.01 10.01 0 0 1 1.221 4.94 10.15 10.15 0 0 1-1.225 4.972l-.003.001Zm1.373-20.724a16.1 16.1 0 0 0-15.476-.806 16.074 16.074 0 0 0-3.338 2.205V84.414a4.412 4.412 0 0 0-1.2-3.18A4.447 4.447 0 0 0 81.95 80a4.446 4.446 0 0 0-3.067 1.22 4.342 4.342 0 0 0-1.242 3.194v28.151a18.943 18.943 0 0 0 2.352 9.363 17.642 17.642 0 0 0 6.385 6.636 17.15 17.15 0 0 0 8.984 2.426 17.493 17.493 0 0 0 9.037-2.422 17.3 17.3 0 0 0 6.422-6.645 19.16 19.16 0 0 0 2.319-9.359 20.236 20.236 0 0 0-2.153-9.326 16.727 16.727 0 0 0-5.957-6.626M54.27 94.104a18.183 18.183 0 0 0-12.919 5.403A18.535 18.535 0 0 0 36 112.549c0 4.891 1.925 9.583 5.351 13.042a18.183 18.183 0 0 0 12.92 5.402 4.77 4.77 0 0 0 3.386-1.416 4.86 4.86 0 0 0 1.403-3.419 4.86 4.86 0 0 0-1.403-3.419 4.765 4.765 0 0 0-3.387-1.416 8.636 8.636 0 0 1-4.877-1.396 8.76 8.76 0 0 1-3.278-3.905 8.856 8.856 0 0 1-.564-5.086 8.808 8.808 0 0 1 2.342-4.54 8.67 8.67 0 0 1 4.451-2.45 8.623 8.623 0 0 1 5.048.472 8.715 8.715 0 0 1 3.93 3.234 8.84 8.84 0 0 1 1.476 4.897v13.609a4.747 4.747 0 0 0 1.342 3.41 4.673 4.673 0 0 0 5.169 1.052 4.694 4.694 0 0 0 1.534-1.052 4.748 4.748 0 0 0 1.342-3.41v-13.609a18.38 18.38 0 0 0-5.18-12.962 18.033 18.033 0 0 0-12.736-5.483M160.884 94.104a18.182 18.182 0 0 0-12.919 5.403 18.533 18.533 0 0 0-5.352 13.042c0 4.891 1.925 9.583 5.352 13.042a18.182 18.182 0 0 0 12.919 5.402c1.27 0 2.488-.51 3.386-1.416a4.86 4.86 0 0 0 1.403-3.419 4.86 4.86 0 0 0-1.403-3.419 4.764 4.764 0 0 0-3.386-1.416 8.635 8.635 0 0 1-4.878-1.396 8.754 8.754 0 0 1-3.278-3.904 8.849 8.849 0 0 1 1.777-9.627 8.684 8.684 0 0 1 4.451-2.45 8.625 8.625 0 0 1 5.049.472 8.717 8.717 0 0 1 3.93 3.234 8.843 8.843 0 0 1 1.475 4.897v13.609c-.012.63.101 1.256.331 1.842a4.738 4.738 0 0 0 1.012 1.569 4.685 4.685 0 0 0 3.352 1.421 4.66 4.66 0 0 0 3.352-1.421 4.774 4.774 0 0 0 1.342-3.411v-13.609a18.383 18.383 0 0 0-5.18-12.962 18.035 18.035 0 0 0-12.735-5.483ZM141.077 95.22a11.53 11.53 0 0 0-5.593-1.142 14.472 14.472 0 0 0-9.104 3.167c-.498-1.79-1.915-2.793-4.054-2.793a4.131 4.131 0 0 0-1.673.265 4.167 4.167 0 0 0-1.431.916 4.403 4.403 0 0 0-1.147 3.198v27.782a4.41 4.41 0 0 0 .25 1.745c.2.558.51 1.069.913 1.502a4.231 4.231 0 0 0 3.093 1.133 4.123 4.123 0 0 0 3.154-1.199 4.497 4.497 0 0 0 1.1-3.181v-18.149a5.386 5.386 0 0 1 .524-2.529 5.312 5.312 0 0 1 1.638-1.984 10.014 10.014 0 0 1 6.26-1.796 21.98 21.98 0 0 1 3.68.409c.378.088.765.138 1.153.15a3.517 3.517 0 0 0 2.314-.769 3.58 3.58 0 0 0 1.275-2.096c.092-.33.133-.673.122-1.016 0-1.029-.428-2.49-2.465-3.61" fill="#1C3459"/></svg>