<svg viewBox="0 0 44 45" fill="none" xmlns="http://www.w3.org/2000/svg"><path fill-rule="evenodd" clip-rule="evenodd" d="M0 22.627C0 10.482 9.852.631 22 .631s22 9.85 22 21.996c0 3.806-.963 7.388-2.676 10.511-1.209 2.217-4.187 2.273-5.911.437L22.033 19.37 8.566 33.563c-1.735 1.825-4.702 1.758-5.912-.447A21.964 21.964 0 0 1 0 22.627Zm40.205 0c0-10.052-8.151-18.201-18.205-18.201-10.054 0-18.205 8.15-18.205 18.201 0 2.026.325 3.515.94 5.004.516 1.253 2.218 1.298 2.957.168L22.034 5.557l14.263 22.275c.728 1.142 2.44 1.097 2.956-.157.616-1.5.952-3.01.952-5.048Z" fill="currentColor"/><path fill-rule="evenodd" clip-rule="evenodd" d="m17.724 29.829 4.31-4.422 4.255 4.422h-8.565Z" fill="currentColor"/><path d="M8.285 39.84c3.762 3 8.531 4.791 13.715 4.791 5.184 0 9.953-1.79 13.715-4.79l-6.348-6.74H14.633l-6.348 6.74Z" fill="currentColor"/></svg>