<svg viewBox="0 0 44 45" fill="none" xmlns="http://www.w3.org/2000/svg"><g clip-path="url(#a)"><path d="M21.056 43.283a33.915 33.915 0 0 1-3.115-2.496 53.713 53.713 0 0 1-3.066-2.938 57.146 57.146 0 0 1-3.553-4.05A54.622 54.622 0 0 1 4.31 22.42a51.16 51.16 0 0 1-2.68-7.305A50.65 50.65 0 0 1 .021 6.75C-.04 6.166-.014 5.445.74 5.067a47.776 47.776 0 0 1 6.614-2.424 55.87 55.87 0 0 1 6.4-1.482c2.491-.43 5.014-.65 7.542-.661h1.41c2.528.01 5.051.232 7.543.661 2.16.368 4.297.863 6.4 1.482a47.814 47.814 0 0 1 6.614 2.424c.754.379.779 1.098.717 1.682a50.65 50.65 0 0 1-1.61 8.366 51.176 51.176 0 0 1-2.68 7.305 54.624 54.624 0 0 1-7.01 11.38 57.105 57.105 0 0 1-3.553 4.049 53.747 53.747 0 0 1-3.067 2.938 34.006 34.006 0 0 1-3.115 2.496 2.164 2.164 0 0 1-1.887 0Zm.823-27.966c-.05.067-3.448 3.594-5.928 6.17-.855.89-1.608 1.67-2.09 2.17a5.998 5.998 0 0 0-1.746 3.568 5.22 5.22 0 0 0 .247 2.131 7.209 7.209 0 0 0 1.266 2.254 44.888 44.888 0 0 0 5.203 5.46 27.14 27.14 0 0 0 2.44 1.95 1.624 1.624 0 0 0 1.46 0 27.154 27.154 0 0 0 2.439-1.95 44.866 44.866 0 0 0 5.203-5.46 7.207 7.207 0 0 0 1.265-2.254 5.224 5.224 0 0 0 .248-2.13 5.998 5.998 0 0 0-1.748-3.569l-1.8-1.87-.216-.225c-2.511-2.607-5.95-6.178-6.001-6.245a.144.144 0 0 0-.19-.05.144.144 0 0 0-.052.05Zm.171-8.445c.017.026.039.061.07.105.048.066.761 1.207 1.749 2.786 2.369 3.788 6.333 10.127 7.375 11.67.771 1.14 1.745 1.796 2.671 1.796.9 0 2.201-.612 3.291-3.533a40.394 40.394 0 0 0 2.325-9.857c.05-.467.03-1.041-.573-1.344a38.2 38.2 0 0 0-5.283-1.936 44.629 44.629 0 0 0-5.112-1.184 36.357 36.357 0 0 0-6.024-.528H21.46a36.334 36.334 0 0 0-6.025.528 44.63 44.63 0 0 0-5.11 1.184A38.219 38.219 0 0 0 5.04 8.495c-.602.302-.622.877-.573 1.344a40.39 40.39 0 0 0 2.325 9.857c.601 1.612 1.661 3.533 3.29 3.533.927 0 1.9-.654 2.672-1.796 1.041-1.542 5.004-7.877 7.37-11.663l.005-.006c.987-1.58 1.7-2.72 1.748-2.786a1.56 1.56 0 0 0 .07-.106c.026-.04.038-.06.05-.06.014 0 .027.02.052.06Zm-6.74 18.175 2.388-2.506h8.406l2.389 2.506H15.31Zm4.156-4.3 2.45-2.537 2.451 2.537h-4.9Z" fill="#235B95"/></g><defs><clipPath id="a"><path fill="#fff" transform="translate(0 .5)" d="M0 0h44v44H0z"/></clipPath></defs></svg>