<svg viewBox="0 0 214 214" fill="none" xmlns="http://www.w3.org/2000/svg"><rect width="214" height="214" rx="8" fill="#E5F0F8"/><path fill-rule="evenodd" clip-rule="evenodd" d="m46.867 167.319 37.67-101.51c4.78-11.851 13.693-18.56 25.54-18.754v-.004h.53v.004c11.847.194 20.759 6.903 25.539 18.754l37.671 101.51-23.327-7.98-32.181-86.713c-1.958-4.796-4.22-6.523-7.967-6.599-3.748.076-6.009 1.803-7.968 6.599l-32.18 86.713-23.327 7.98Zm79.866-38.653c0 8.867-7.239 16.055-16.17 16.055-8.93 0-16.17-7.188-16.17-16.055s7.24-16.055 16.17-16.055c8.931 0 16.17 7.188 16.17 16.055Z" fill="#3692FE"/></svg>