<svg viewBox="0 0 214 214" fill="none" xmlns="http://www.w3.org/2000/svg"><rect width="214" height="214" rx="8" fill="#E6EFF9"/><path d="M96.954 33.835a20 20 0 0 1 20.092 0l48 27.883A20 20 0 0 1 175 79.012v55.976a19.999 19.999 0 0 1-9.954 17.294l-48 27.883a20 20 0 0 1-20.092 0l-48-27.883A19.999 19.999 0 0 1 39 134.988V79.012a20 20 0 0 1 9.954-17.294l48-27.883Z" fill="#154A82"/><path d="M143.172 101.139a6 6 0 0 0-7.238-.005l-8.297 6.266a5.996 5.996 0 0 0-2.384 4.788v9.312c0 1.786-.796 3.48-2.171 4.62l-6.95 5.76a6.001 6.001 0 0 0-2.17 4.62v1.096a6 6 0 0 0 1.852 4.336l5.441 5.204a5.998 5.998 0 0 0 4.147 1.664h3.494c1.962 0 3.8-.959 4.922-2.569l20.505-29.419a6 6 0 0 0-1.301-8.214l-9.85-7.459Zm-64.923-.161a5.948 5.948 0 0 0-6.968-.142l-10.312 7.102a6 6 0 0 0-1.519 8.372l20.353 29.201a6 6 0 0 0 4.922 2.569h3.494a6 6 0 0 0 4.147-1.664l5.44-5.204a6 6 0 0 0 1.853-4.336v-.952a6 6 0 0 0-2.354-4.765l-6.583-5.038a6 6 0 0 1-2.354-4.765V109.2c0-.483-6.105-5.184-10.119-8.222Zm21.615-6.898c-4.849 0-7.695 5.453-4.923 9.431l.805 1.154a6 6 0 0 1 .827 5.148l-1.383 4.63c-1.15 3.848 1.733 7.717 5.749 7.717h11.743c4.016 0 6.899-3.869 5.749-7.717l-1.383-4.63a6.001 6.001 0 0 1 .827-5.148l.805-1.154c2.772-3.978-.074-9.431-4.923-9.431H99.864ZM76.999 82.115c-1.093 3.832 1.785 7.645 5.77 7.645h48.836c3.985 0 6.863-3.813 5.77-7.645l-3.353-11.76a6 6 0 0 0-5.77-4.355h-42.13a6 6 0 0 0-5.77 4.355l-3.353 11.76Z" fill="#E6EFF9"/></svg>