<svg viewBox="0 0 211 212" fill="none" xmlns="http://www.w3.org/2000/svg"><rect y=".63" width="211" height="211" rx="8" fill="#E5E5FF"/><path d="m134.297 107.88 40.413 40.35h-14.313c-2.526 0-4.63-.841-6.314-2.522l-37.467-37.828 37.467-37.408c1.684-1.681 4.209-2.522 6.314-2.522h14.313l-40.413 39.93Zm-73.67-37.408c-1.683-1.681-4.21-2.522-6.314-2.522H40l40.413 39.93L40 148.23h14.313c2.526 0 4.63-.841 6.314-2.522L98.094 108.3c0-.42-37.466-37.828-37.466-37.828Zm46.728 46.655-37.466 37.407c-1.684 1.682-2.526 4.203-2.526 6.305v14.291l40.413-40.35 40.413 40.35v-14.291c0-2.522-.842-4.623-2.526-6.305l-38.308-37.407Zm0-18.494 37.466-37.408c1.684-1.681 2.526-4.203 2.526-6.305V40.63l-39.992 40.35-40.413-40.35v14.29c0 2.522.842 4.624 2.526 6.305l37.887 37.408Z" fill="url(#keep_exodus)"/><defs><linearGradient id="keep_exodus" x1="39.959" y1="107.88" x2="174.77" y2="107.88" gradientUnits="userSpaceOnUse"><stop stop-color="#00BFFF"/><stop offset="1" stop-color="#6619FF"/></linearGradient></defs></svg>