<svg viewBox="0 0 214 214" fill="none" xmlns="http://www.w3.org/2000/svg"><rect width="214" height="214" rx="8" fill="#3C4249"/><path d="M166.712 131.474v3.525H191v-15.9h-3.539v12.375h-20.749Zm0-52.474v3.526h20.749V94.9H191V79h-24.288Zm-12.525 27.274v-8.192h5.552c2.707 0 3.678.898 3.678 3.353v1.452c0 2.523-.937 3.387-3.678 3.387h-5.552Zm8.813 1.452c2.532-.657 4.302-3.008 4.302-5.807 0-1.763-.694-3.353-2.012-4.633-1.666-1.59-3.887-2.385-6.766-2.385h-7.807v24.197h3.47v-9.644h5.205c2.671 0 3.747 1.106 3.747 3.872v5.773h3.539v-5.22c0-3.802-.902-5.254-3.678-5.669v-.484Zm-29.214.795h10.687v-3.18h-10.687v-7.26h11.727v-3.18h-15.266v24.197h15.787v-3.18h-12.248v-7.397Zm-11.624 1.279v1.659c0 3.491-1.284 4.632-4.51 4.632h-.764c-3.227 0-4.788-1.037-4.788-5.842v-6.499c0-4.839 1.631-5.842 4.857-5.842h.694c3.158 0 4.164 1.175 4.198 4.425h3.817c-.347-4.77-3.539-7.778-8.327-7.778-2.325 0-4.268.727-5.725 2.109-2.186 2.04-3.4 5.497-3.4 10.336 0 4.666 1.041 8.123 3.192 10.266 1.457 1.417 3.469 2.178 5.447 2.178 2.082 0 3.991-.83 4.962-2.627h.485v2.281h3.192V106.62h-9.403v3.18h6.073ZM91.56 98.081h3.783c3.574 0 5.517.899 5.517 5.739v6.36c0 4.839-1.943 5.738-5.517 5.738H91.56V98.081Zm4.094 21.018c6.628 0 9.091-5.012 9.091-12.099 0-7.19-2.637-12.098-9.16-12.098H88.09v24.197h7.564Zm-24.321-10.578h10.686v-3.18H71.333v-7.26H83.06v-3.18H67.793v24.197H83.58v-3.18H71.334v-7.397Zm-20.471-13.62h-3.54v24.197h15.961v-3.18H50.862V94.901ZM23 119.099V135h24.288v-3.526h-20.75v-12.375H23ZM23 79v15.901h3.539V82.526h20.748V79H23Z" fill="#fff"/></svg>