<svg width="594" height="77" fill="none" xmlns="http://www.w3.org/2000/svg"><mask id="b" style="mask-type:alpha" maskUnits="userSpaceOnUse" x="0" y="0" width="594" height="77"><mask id="a" fill="#fff"><path d="M0 12C0 5.373 5.373 0 12 0h570c6.627 0 12 5.373 12 12v53c0 6.627-5.373 12-12 12H12C5.373 77 0 71.627 0 65V12Z"/></mask><path d="M0 12C0 5.373 5.373 0 12 0h570c6.627 0 12 5.373 12 12v53c0 6.627-5.373 12-12 12H12C5.373 77 0 71.627 0 65V12Z" fill="#F7FAFB"/><path d="M-1 12C-1 4.82 4.82-1 12-1h570c7.18 0 13 5.82 13 13h-2c0-6.075-4.925-11-11-11H12C5.925 1 1 5.925 1 12h-2Zm595 65H0h594ZM12 77C4.82 77-1 71.18-1 64V12C-1 4.82 4.82-1 12-1v2C5.925 1 1 5.925 1 12v53c0 6.627 4.925 12 11 12ZM582-1c7.18 0 13 5.82 13 13v52c0 7.18-5.82 13-13 13 6.075 0 11-5.373 11-12V12c0-6.075-4.925-11-11-11v-2Z" fill="#DBDEE5" mask="url(#a)"/></mask><g mask="url(#b)"><path d="m558.94 75.05-37.482-38.1 37.482-38.1 37.482 38.1-37.482 38.1Z" fill="url(#c)"/><path d="m634.198-1.25 37.482-38.1 37.482 38.1-37.482 38.1-37.482-38.1Z" fill="url(#d)"/><path d="m596.422 113.35-37.482-38.1-37.482 38.1h74.964Z" fill="url(#e)"/><path d="m596.519 36.85 37.483-38.1-37.483-38.1v76.2Z" fill="url(#f)"/><path d="m746.84-39.35-37.482 38.1 37.482 38.1v-76.2Z" fill="url(#g)"/><path d="m671.68 113.25 37.482-38.1-37.482-38.1v76.2Z" fill="url(#h)"/><path d="M671.582 113.35 634.1 75.25l-37.482 38.1h74.964Z" fill="url(#i)"/><path d="M671.582-39.45 634.1-77.55l-37.482 38.1h74.964Z" fill="url(#j)"/><path d="M821.902 36.95 784.42-1.15l-37.482 38.1h74.964Z" fill="url(#k)"/><path d="m821.902-115.85-37.482-38.1-37.482 38.1h74.964Z" fill="url(#l)"/><path d="m746.742 189.75-37.482-38.1-37.482 38.1h74.964Z" fill="url(#m)"/><path d="m671.68-192.15-37.482 38.1 37.482 38.1v-76.2Z" fill="url(#n)"/><path d="m822-115.75-37.482 38.1L822-39.55v-76.2Z" fill="url(#o)"/><path d="m596.618 36.95 37.482 38.1 37.482-38.1h-74.964Z" fill="url(#p)"/><path d="m596.618-115.85 37.482 38.1 37.482-38.1h-74.964Z" fill="url(#q)"/><path d="m746.938-39.45 37.482 38.1 37.482-38.1h-74.964Z" fill="url(#r)"/><path d="m746.938-192.25 37.482 38.1 37.482-38.1h-74.964Z" fill="url(#s)"/><path d="m671.778 113.35 37.482 38.1 37.482-38.1h-74.964Z" fill="url(#t)"/><path d="m596.52-115.95 37.482-38.1-37.482-38.1v76.2Z" fill="url(#u)"/><path d="m746.84-39.55 37.482-38.1-37.482-38.1v76.2Z" fill="url(#v)"/><path d="m521.36 189.65 37.482-38.1-37.482-38.101v76.201Z" fill="url(#w)"/><path d="m671.68 113.449-37.482 38.101 37.482 38.1v-76.201Z" fill="url(#x)"/><path d="m822 37.05-37.482 38.1L822 113.25v-76.2Z" fill="url(#y)"/><path d="m596.52 189.65-37.482-38.1 37.482-38.101 37.482 38.101-37.482 38.1Z" fill="url(#z)"/><path d="m784.42 189.65-37.482-38.1 37.482-38.101 37.482 38.101-37.482 38.1Z" fill="url(#A)"/><path d="m746.84 113.25-37.482-38.1 37.482-38.1 37.482 38.1-37.482 38.1Z" fill="url(#B)"/><path d="m558.94-39.55-37.482-38.1 37.482-38.1 37.482 38.1-37.482 38.1Z" fill="url(#C)"/><path d="m709.26-39.55-37.482-38.1 37.482-38.1 37.482 38.1-37.482 38.1Z" fill="url(#D)"/><path d="m558.94-115.95-37.482-38.1 37.482-38.1 37.482 38.1-37.482 38.1Z" fill="url(#E)"/><path d="m709.26-115.95-37.482-38.1 37.482-38.1 37.482 38.1-37.482 38.1Z" fill="url(#F)"/><path d="m521.458-39.45 37.482 38.1 37.482-38.1h-74.964Z" fill="url(#G)"/><path d="m483.681-77.55 37.482 38.1-37.482 38.101-37.482-38.1 37.482-38.1Z" fill="url(#H)"/><path d="m408.423-1.25-37.482 38.101-37.482-38.1 37.482-38.1 37.482 38.1Z" fill="url(#I)"/><path d="m446.199-115.849 37.482 38.1 37.482-38.1h-74.964Z" fill="url(#J)"/><path d="M446.102-39.35 408.62-1.25l37.482 38.101v-76.2Z" fill="url(#K)"/><path d="m295.781 36.851 37.482-38.1-37.482-38.1v76.2Z" fill="url(#L)"/><path d="m370.941-115.75-37.482 38.1 37.482 38.101v-76.201Z" fill="url(#M)"/><path d="m371.039-115.849 37.482 38.1 37.482-38.1h-74.964Z" fill="url(#N)"/><path d="m371.039 36.95 37.482 38.1 37.482-38.1h-74.964Z" fill="url(#O)"/><path d="m295.879-192.249 37.482 38.1 37.482-38.1h-74.964Z" fill="url(#P)"/><path d="m370.941 189.651 37.482-38.1-37.482-38.101v76.201Z" fill="url(#Q)"/><path d="m446.003-39.45-37.482-38.1-37.482 38.1h74.964Z" fill="url(#R)"/><path d="m446.003 113.351-37.482-38.1-37.482 38.1h74.964Z" fill="url(#S)"/><path d="m370.843-115.849-37.482-38.101-37.482 38.101h74.964Z" fill="url(#T)"/><path d="m446.101 113.45-37.482 38.101 37.482 38.1V113.45Z" fill="url(#U)"/><path d="m521.262-192.15-37.483 38.101 37.483 38.1v-76.201Z" fill="url(#V)"/><path d="m370.941-115.949 37.483-38.1-37.483-38.101v76.201Z" fill="url(#W)"/><path d="m446.101-192.149 37.482 38.1-37.482 38.1-37.482-38.1 37.482-38.1Z" fill="url(#X)"/><path d="m483.681 37.05 37.482 38.1-37.482 38.101-37.482-38.1 37.482-38.1Z" fill="url(#Y)"/><path d="m333.361 37.05 37.482 38.1-37.482 38.101-37.482-38.1 37.482-38.1Z" fill="url(#Z)"/><path d="m483.681 113.45 37.482 38.101-37.482 38.1-37.482-38.1 37.482-38.101Z" fill="url(#aa)"/><path d="m333.361 113.45 37.482 38.101-37.482 38.1-37.482-38.1 37.482-38.101Z" fill="url(#ab)"/><path d="m521.163 36.95-37.482-38.1-37.482 38.1h74.964Z" fill="url(#ac)"/><path d="m34.159 75.05-37.482-38.1 37.482-38.1 37.482 38.1-37.482 38.1Z" fill="url(#ad)"/><path d="m109.417-1.25 37.482-38.1 37.482 38.1-37.482 38.1-37.482-38.1Z" fill="url(#ae)"/><path d="m71.64 113.35-37.48-38.1-37.482 38.1H71.64Z" fill="url(#af)"/><path d="m71.738 36.85 37.482-38.1-37.482-38.1v76.2Z" fill="url(#ag)"/><path d="m222.059-39.35-37.482 38.1 37.482 38.1v-76.2Z" fill="url(#ah)"/><path d="m146.899 113.25 37.482-38.1-37.482-38.1v76.2Z" fill="url(#ai)"/><path d="m146.801 113.35-37.482-38.1-37.482 38.1H146.8Z" fill="url(#aj)"/><path d="m146.801-39.45-37.482-38.1-37.482 38.1H146.8Z" fill="url(#ak)"/><path d="m297.121 36.95-37.482-38.1-37.482 38.1h74.964Z" fill="url(#al)"/><path d="m297.121-115.85-37.482-38.1-37.482 38.1h74.964Z" fill="url(#am)"/><path d="m221.961 189.75-37.482-38.1-37.482 38.1h74.964Z" fill="url(#an)"/><path d="m146.899-192.15-37.482 38.1 37.482 38.1v-76.2Z" fill="url(#ao)"/><path d="m297.219-115.75-37.482 38.1 37.482 38.1v-76.2Z" fill="url(#ap)"/><path d="m71.837 36.95 37.482 38.1 37.482-38.1H71.837Z" fill="url(#aq)"/><path d="m71.837-115.85 37.482 38.1 37.482-38.1H71.837Z" fill="url(#ar)"/><path d="m222.157-39.45 37.482 38.1 37.482-38.1h-74.964Z" fill="url(#as)"/><path d="m222.157-192.25 37.482 38.1 37.482-38.1h-74.964Z" fill="url(#at)"/><path d="m146.997 113.35 37.482 38.1 37.482-38.1h-74.964Z" fill="url(#au)"/><path d="m71.739-115.95 37.482-38.1-37.482-38.1v76.2Z" fill="url(#av)"/><path d="m222.059-39.55 37.482-38.1-37.482-38.1v76.2Z" fill="url(#aw)"/><path d="m-3.421 189.65 37.482-38.1-37.482-38.101v76.201Z" fill="url(#ax)"/><path d="m146.899 113.449-37.482 38.101 37.482 38.1v-76.201Z" fill="url(#ay)"/><path d="m297.219 37.05-37.482 38.1 37.482 38.1v-76.2Z" fill="url(#az)"/><path d="m71.739 189.65-37.482-38.1 37.482-38.101 37.482 38.101-37.482 38.1Z" fill="url(#aA)"/><path d="m259.639 189.65-37.482-38.1 37.482-38.101 37.482 38.101-37.482 38.1Z" fill="url(#aB)"/><path d="m222.059 113.25-37.482-38.1 37.482-38.1 37.482 38.1-37.482 38.1Z" fill="url(#aC)"/><path d="m34.159-39.55-37.482-38.1 37.482-38.1 37.482 38.1-37.482 38.1Z" fill="url(#aD)"/><path d="m184.479-39.55-37.482-38.1 37.482-38.1 37.482 38.1-37.482 38.1Z" fill="url(#aE)"/><path d="m34.159-115.95-37.482-38.1 37.482-38.1 37.482 38.1-37.482 38.1Z" fill="url(#aF)"/><path d="m184.479-115.95-37.482-38.1 37.482-38.1 37.482 38.1-37.482 38.1Z" fill="url(#aG)"/><path d="m-3.323-39.45 37.482 38.1 37.482-38.1H-3.323Z" fill="url(#aH)"/><path d="m-41.1-77.55 37.482 38.1L-41.1-1.348l-37.482-38.1 37.482-38.1Z" fill="url(#aI)"/><path d="m-116.358-1.25-37.482 38.101-37.482-38.1 37.482-38.1 37.482 38.1Z" fill="url(#aJ)"/><path d="m-78.582-115.849 37.482 38.1 37.482-38.1h-74.964Z" fill="url(#aK)"/><path d="m-78.68-39.35-37.481 38.1 37.482 38.101v-76.2Z" fill="url(#aL)"/><path d="m-229 36.851 37.482-38.1L-229-39.35v76.2Z" fill="url(#aM)"/><path d="m-153.84-115.75-37.482 38.1 37.482 38.101v-76.201Z" fill="url(#aN)"/><path d="m-153.742-115.849 37.482 38.1 37.482-38.1h-74.964Z" fill="url(#aO)"/><path d="m-153.742 36.95 37.482 38.1 37.482-38.1h-74.964Z" fill="url(#aP)"/><path d="m-228.902-192.249 37.482 38.1 37.482-38.1h-74.964Z" fill="url(#aQ)"/><path d="m-153.84 189.651 37.482-38.1-37.482-38.101v76.201Z" fill="url(#aR)"/><path d="m-78.778-39.45-37.482-38.1-37.482 38.1h74.964Z" fill="url(#aS)"/><path d="m-78.778 113.351-37.482-38.1-37.482 38.1h74.964Z" fill="url(#aT)"/><path d="m-153.938-115.849-37.482-38.101-37.482 38.101h74.964Z" fill="url(#aU)"/><path d="m-78.68 113.45-37.482 38.101 37.482 38.1V113.45Z" fill="url(#aV)"/><path d="m-3.52-192.15-37.482 38.101 37.482 38.1v-76.201Z" fill="url(#aW)"/><path d="m-153.84-115.949 37.482-38.1-37.482-38.101v76.201Z" fill="url(#aX)"/><path d="m-78.68-192.149 37.482 38.1-37.482 38.1-37.482-38.1 37.482-38.1Z" fill="url(#aY)"/><path d="m-41.1 37.05 37.482 38.1-37.482 38.101-37.482-38.1 37.482-38.1Z" fill="url(#aZ)"/><path d="m-191.42 37.05 37.482 38.1-37.482 38.101-37.482-38.1 37.482-38.1Z" fill="url(#ba)"/><path d="m-41.1 113.45 37.482 38.101-37.482 38.1-37.482-38.1L-41.1 113.45Z" fill="url(#bb)"/><path d="m-191.42 113.45 37.482 38.101-37.482 38.1-37.482-38.1 37.482-38.101Z" fill="url(#bc)"/><path d="M-3.618 36.95-41.1-1.15l-37.482 38.1h74.964Z" fill="url(#bd)"/></g><defs><linearGradient id="c" x1="-63.353" y1="-1.535" x2="779.874" y2="-1.535" gradientUnits="userSpaceOnUse"><stop stop-color="#283C64"/><stop offset="1" stop-color="#283C64"/></linearGradient><linearGradient id="d" x1="-63.353" y1="-1.535" x2="779.874" y2="-1.535" gradientUnits="userSpaceOnUse"><stop stop-color="#283C64"/><stop offset="1" stop-color="#283C64"/></linearGradient><linearGradient id="e" x1="-63.353" y1="-1.535" x2="779.874" y2="-1.535" gradientUnits="userSpaceOnUse"><stop stop-color="#283C64"/><stop offset="1" stop-color="#283C64"/></linearGradient><linearGradient id="f" x1="-63.353" y1="-1.535" x2="779.874" y2="-1.535" gradientUnits="userSpaceOnUse"><stop stop-color="#283C64"/><stop offset="1" stop-color="#283C64"/></linearGradient><linearGradient id="g" x1="-63.353" y1="-1.535" x2="779.874" y2="-1.535" gradientUnits="userSpaceOnUse"><stop stop-color="#283C64"/><stop offset="1" stop-color="#283C64"/></linearGradient><linearGradient id="h" x1="-63.353" y1="-1.535" x2="779.874" y2="-1.535" gradientUnits="userSpaceOnUse"><stop stop-color="#283C64"/><stop offset="1" stop-color="#283C64"/></linearGradient><linearGradient id="i" x1="-63.353" y1="-1.535" x2="779.874" y2="-1.535" gradientUnits="userSpaceOnUse"><stop stop-color="#283C64"/><stop offset="1" stop-color="#283C64"/></linearGradient><linearGradient id="j" x1="-63.353" y1="-1.535" x2="779.874" y2="-1.535" gradientUnits="userSpaceOnUse"><stop stop-color="#283C64"/><stop offset="1" stop-color="#283C64"/></linearGradient><linearGradient id="k" x1="-63.353" y1="-1.535" x2="779.874" y2="-1.535" gradientUnits="userSpaceOnUse"><stop stop-color="#283C64"/><stop offset="1" stop-color="#283C64"/></linearGradient><linearGradient id="l" x1="-63.353" y1="-1.535" x2="779.874" y2="-1.535" gradientUnits="userSpaceOnUse"><stop stop-color="#283C64"/><stop offset="1" stop-color="#283C64"/></linearGradient><linearGradient id="m" x1="-63.353" y1="-1.535" x2="779.874" y2="-1.535" gradientUnits="userSpaceOnUse"><stop stop-color="#283C64"/><stop offset="1" stop-color="#283C64"/></linearGradient><linearGradient id="n" x1="-63.353" y1="-1.535" x2="779.874" y2="-1.535" gradientUnits="userSpaceOnUse"><stop stop-color="#283C64"/><stop offset="1" stop-color="#283C64"/></linearGradient><linearGradient id="o" x1="-63.353" y1="-1.535" x2="779.874" y2="-1.535" gradientUnits="userSpaceOnUse"><stop stop-color="#283C64"/><stop offset="1" stop-color="#283C64"/></linearGradient><linearGradient id="p" x1="-63.353" y1="-1.535" x2="779.874" y2="-1.535" gradientUnits="userSpaceOnUse"><stop stop-color="#283C64"/><stop offset="1" stop-color="#283C64"/></linearGradient><linearGradient id="q" x1="-63.353" y1="-1.535" x2="779.874" y2="-1.535" gradientUnits="userSpaceOnUse"><stop stop-color="#283C64"/><stop offset="1" stop-color="#283C64"/></linearGradient><linearGradient id="r" x1="-63.353" y1="-1.535" x2="779.874" y2="-1.535" gradientUnits="userSpaceOnUse"><stop stop-color="#283C64"/><stop offset="1" stop-color="#283C64"/></linearGradient><linearGradient id="s" x1="-63.353" y1="-1.535" x2="779.874" y2="-1.535" gradientUnits="userSpaceOnUse"><stop stop-color="#283C64"/><stop offset="1" stop-color="#283C64"/></linearGradient><linearGradient id="t" x1="-63.353" y1="-1.535" x2="779.874" y2="-1.535" gradientUnits="userSpaceOnUse"><stop stop-color="#283C64"/><stop offset="1" stop-color="#283C64"/></linearGradient><linearGradient id="u" x1="-63.353" y1="-1.535" x2="779.874" y2="-1.535" gradientUnits="userSpaceOnUse"><stop stop-color="#283C64"/><stop offset="1" stop-color="#283C64"/></linearGradient><linearGradient id="v" x1="-63.353" y1="-1.535" x2="779.874" y2="-1.535" gradientUnits="userSpaceOnUse"><stop stop-color="#283C64"/><stop offset="1" stop-color="#283C64"/></linearGradient><linearGradient id="w" x1="-63.353" y1="-1.535" x2="779.874" y2="-1.535" gradientUnits="userSpaceOnUse"><stop stop-color="#283C64"/><stop offset="1" stop-color="#283C64"/></linearGradient><linearGradient id="x" x1="-63.353" y1="-1.535" x2="779.874" y2="-1.535" gradientUnits="userSpaceOnUse"><stop stop-color="#283C64"/><stop offset="1" stop-color="#283C64"/></linearGradient><linearGradient id="y" x1="-63.353" y1="-1.535" x2="779.874" y2="-1.535" gradientUnits="userSpaceOnUse"><stop stop-color="#283C64"/><stop offset="1" stop-color="#283C64"/></linearGradient><linearGradient id="z" x1="-63.353" y1="-1.535" x2="779.874" y2="-1.535" gradientUnits="userSpaceOnUse"><stop stop-color="#283C64"/><stop offset="1" stop-color="#283C64"/></linearGradient><linearGradient id="A" x1="-63.353" y1="-1.535" x2="779.874" y2="-1.535" gradientUnits="userSpaceOnUse"><stop stop-color="#283C64"/><stop offset="1" stop-color="#283C64"/></linearGradient><linearGradient id="B" x1="-63.353" y1="-1.535" x2="779.874" y2="-1.535" gradientUnits="userSpaceOnUse"><stop stop-color="#283C64"/><stop offset="1" stop-color="#283C64"/></linearGradient><linearGradient id="C" x1="-63.353" y1="-1.535" x2="779.874" y2="-1.535" gradientUnits="userSpaceOnUse"><stop stop-color="#283C64"/><stop offset="1" stop-color="#283C64"/></linearGradient><linearGradient id="D" x1="-63.353" y1="-1.535" x2="779.874" y2="-1.535" gradientUnits="userSpaceOnUse"><stop stop-color="#283C64"/><stop offset="1" stop-color="#283C64"/></linearGradient><linearGradient id="E" x1="-63.353" y1="-1.535" x2="779.874" y2="-1.535" gradientUnits="userSpaceOnUse"><stop stop-color="#283C64"/><stop offset="1" stop-color="#283C64"/></linearGradient><linearGradient id="F" x1="-63.353" y1="-1.535" x2="779.874" y2="-1.535" gradientUnits="userSpaceOnUse"><stop stop-color="#283C64"/><stop offset="1" stop-color="#283C64"/></linearGradient><linearGradient id="G" x1="-63.353" y1="-1.535" x2="779.874" y2="-1.535" gradientUnits="userSpaceOnUse"><stop stop-color="#283C64"/><stop offset="1" stop-color="#283C64"/></linearGradient><linearGradient id="H" x1="-63.353" y1="-1.535" x2="779.874" y2="-1.535" gradientUnits="userSpaceOnUse"><stop stop-color="#283C64"/><stop offset="1" stop-color="#283C64"/></linearGradient><linearGradient id="I" x1="-63.353" y1="-1.535" x2="779.874" y2="-1.535" gradientUnits="userSpaceOnUse"><stop stop-color="#283C64"/><stop offset="1" stop-color="#283C64"/></linearGradient><linearGradient id="J" x1="-63.353" y1="-1.535" x2="779.874" y2="-1.535" gradientUnits="userSpaceOnUse"><stop stop-color="#283C64"/><stop offset="1" stop-color="#283C64"/></linearGradient><linearGradient id="K" x1="-63.353" y1="-1.535" x2="779.874" y2="-1.535" gradientUnits="userSpaceOnUse"><stop stop-color="#283C64"/><stop offset="1" stop-color="#283C64"/></linearGradient><linearGradient id="L" x1="-63.353" y1="-1.535" x2="779.874" y2="-1.535" gradientUnits="userSpaceOnUse"><stop stop-color="#283C64"/><stop offset="1" stop-color="#283C64"/></linearGradient><linearGradient id="M" x1="-63.353" y1="-1.535" x2="779.874" y2="-1.535" gradientUnits="userSpaceOnUse"><stop stop-color="#283C64"/><stop offset="1" stop-color="#283C64"/></linearGradient><linearGradient id="N" x1="-63.353" y1="-1.535" x2="779.874" y2="-1.535" gradientUnits="userSpaceOnUse"><stop stop-color="#283C64"/><stop offset="1" stop-color="#283C64"/></linearGradient><linearGradient id="O" x1="-63.353" y1="-1.535" x2="779.874" y2="-1.535" gradientUnits="userSpaceOnUse"><stop stop-color="#283C64"/><stop offset="1" stop-color="#283C64"/></linearGradient><linearGradient id="P" x1="-63.353" y1="-1.535" x2="779.874" y2="-1.535" gradientUnits="userSpaceOnUse"><stop stop-color="#283C64"/><stop offset="1" stop-color="#283C64"/></linearGradient><linearGradient id="Q" x1="-63.353" y1="-1.535" x2="779.874" y2="-1.535" gradientUnits="userSpaceOnUse"><stop stop-color="#283C64"/><stop offset="1" stop-color="#283C64"/></linearGradient><linearGradient id="R" x1="-63.353" y1="-1.535" x2="779.874" y2="-1.535" gradientUnits="userSpaceOnUse"><stop stop-color="#283C64"/><stop offset="1" stop-color="#283C64"/></linearGradient><linearGradient id="S" x1="-63.353" y1="-1.535" x2="779.874" y2="-1.535" gradientUnits="userSpaceOnUse"><stop stop-color="#283C64"/><stop offset="1" stop-color="#283C64"/></linearGradient><linearGradient id="T" x1="-63.353" y1="-1.535" x2="779.874" y2="-1.535" gradientUnits="userSpaceOnUse"><stop stop-color="#283C64"/><stop offset="1" stop-color="#283C64"/></linearGradient><linearGradient id="U" x1="-63.353" y1="-1.535" x2="779.874" y2="-1.535" gradientUnits="userSpaceOnUse"><stop stop-color="#283C64"/><stop offset="1" stop-color="#283C64"/></linearGradient><linearGradient id="V" x1="-63.353" y1="-1.535" x2="779.874" y2="-1.535" gradientUnits="userSpaceOnUse"><stop stop-color="#283C64"/><stop offset="1" stop-color="#283C64"/></linearGradient><linearGradient id="W" x1="-63.353" y1="-1.535" x2="779.874" y2="-1.535" gradientUnits="userSpaceOnUse"><stop stop-color="#283C64"/><stop offset="1" stop-color="#283C64"/></linearGradient><linearGradient id="X" x1="-63.353" y1="-1.535" x2="779.874" y2="-1.535" gradientUnits="userSpaceOnUse"><stop stop-color="#283C64"/><stop offset="1" stop-color="#283C64"/></linearGradient><linearGradient id="Y" x1="-63.353" y1="-1.535" x2="779.874" y2="-1.535" gradientUnits="userSpaceOnUse"><stop stop-color="#283C64"/><stop offset="1" stop-color="#283C64"/></linearGradient><linearGradient id="Z" x1="-63.353" y1="-1.535" x2="779.874" y2="-1.535" gradientUnits="userSpaceOnUse"><stop stop-color="#283C64"/><stop offset="1" stop-color="#283C64"/></linearGradient><linearGradient id="aa" x1="-63.353" y1="-1.535" x2="779.874" y2="-1.535" gradientUnits="userSpaceOnUse"><stop stop-color="#283C64"/><stop offset="1" stop-color="#283C64"/></linearGradient><linearGradient id="ab" x1="-63.353" y1="-1.535" x2="779.874" y2="-1.535" gradientUnits="userSpaceOnUse"><stop stop-color="#283C64"/><stop offset="1" stop-color="#283C64"/></linearGradient><linearGradient id="ac" x1="-63.353" y1="-1.535" x2="779.874" y2="-1.535" gradientUnits="userSpaceOnUse"><stop stop-color="#283C64"/><stop offset="1" stop-color="#283C64"/></linearGradient><linearGradient id="ad" x1="-63.353" y1="-1.535" x2="779.874" y2="-1.535" gradientUnits="userSpaceOnUse"><stop stop-color="#283C64"/><stop offset="1" stop-color="#283C64"/></linearGradient><linearGradient id="ae" x1="-63.353" y1="-1.535" x2="779.874" y2="-1.535" gradientUnits="userSpaceOnUse"><stop stop-color="#283C64"/><stop offset="1" stop-color="#283C64"/></linearGradient><linearGradient id="af" x1="-63.353" y1="-1.535" x2="779.874" y2="-1.535" gradientUnits="userSpaceOnUse"><stop stop-color="#283C64"/><stop offset="1" stop-color="#283C64"/></linearGradient><linearGradient id="ag" x1="-63.353" y1="-1.535" x2="779.874" y2="-1.535" gradientUnits="userSpaceOnUse"><stop stop-color="#283C64"/><stop offset="1" stop-color="#283C64"/></linearGradient><linearGradient id="ah" x1="-63.353" y1="-1.535" x2="779.874" y2="-1.535" gradientUnits="userSpaceOnUse"><stop stop-color="#283C64"/><stop offset="1" stop-color="#283C64"/></linearGradient><linearGradient id="ai" x1="-63.353" y1="-1.535" x2="779.874" y2="-1.535" gradientUnits="userSpaceOnUse"><stop stop-color="#283C64"/><stop offset="1" stop-color="#283C64"/></linearGradient><linearGradient id="aj" x1="-63.353" y1="-1.535" x2="779.874" y2="-1.535" gradientUnits="userSpaceOnUse"><stop stop-color="#283C64"/><stop offset="1" stop-color="#283C64"/></linearGradient><linearGradient id="ak" x1="-63.353" y1="-1.535" x2="779.874" y2="-1.535" gradientUnits="userSpaceOnUse"><stop stop-color="#283C64"/><stop offset="1" stop-color="#283C64"/></linearGradient><linearGradient id="al" x1="-63.353" y1="-1.535" x2="779.874" y2="-1.535" gradientUnits="userSpaceOnUse"><stop stop-color="#283C64"/><stop offset="1" stop-color="#283C64"/></linearGradient><linearGradient id="am" x1="-63.353" y1="-1.535" x2="779.874" y2="-1.535" gradientUnits="userSpaceOnUse"><stop stop-color="#283C64"/><stop offset="1" stop-color="#283C64"/></linearGradient><linearGradient id="an" x1="-63.353" y1="-1.535" x2="779.874" y2="-1.535" gradientUnits="userSpaceOnUse"><stop stop-color="#283C64"/><stop offset="1" stop-color="#283C64"/></linearGradient><linearGradient id="ao" x1="-63.353" y1="-1.535" x2="779.874" y2="-1.535" gradientUnits="userSpaceOnUse"><stop stop-color="#283C64"/><stop offset="1" stop-color="#283C64"/></linearGradient><linearGradient id="ap" x1="-63.353" y1="-1.535" x2="779.874" y2="-1.535" gradientUnits="userSpaceOnUse"><stop stop-color="#283C64"/><stop offset="1" stop-color="#283C64"/></linearGradient><linearGradient id="aq" x1="-63.353" y1="-1.535" x2="779.874" y2="-1.535" gradientUnits="userSpaceOnUse"><stop stop-color="#283C64"/><stop offset="1" stop-color="#283C64"/></linearGradient><linearGradient id="ar" x1="-63.353" y1="-1.535" x2="779.874" y2="-1.535" gradientUnits="userSpaceOnUse"><stop stop-color="#283C64"/><stop offset="1" stop-color="#283C64"/></linearGradient><linearGradient id="as" x1="-63.353" y1="-1.535" x2="779.874" y2="-1.535" gradientUnits="userSpaceOnUse"><stop stop-color="#283C64"/><stop offset="1" stop-color="#283C64"/></linearGradient><linearGradient id="at" x1="-63.353" y1="-1.535" x2="779.874" y2="-1.535" gradientUnits="userSpaceOnUse"><stop stop-color="#283C64"/><stop offset="1" stop-color="#283C64"/></linearGradient><linearGradient id="au" x1="-63.353" y1="-1.535" x2="779.874" y2="-1.535" gradientUnits="userSpaceOnUse"><stop stop-color="#283C64"/><stop offset="1" stop-color="#283C64"/></linearGradient><linearGradient id="av" x1="-63.353" y1="-1.535" x2="779.874" y2="-1.535" gradientUnits="userSpaceOnUse"><stop stop-color="#283C64"/><stop offset="1" stop-color="#283C64"/></linearGradient><linearGradient id="aw" x1="-63.353" y1="-1.535" x2="779.874" y2="-1.535" gradientUnits="userSpaceOnUse"><stop stop-color="#283C64"/><stop offset="1" stop-color="#283C64"/></linearGradient><linearGradient id="ax" x1="-63.353" y1="-1.535" x2="779.874" y2="-1.535" gradientUnits="userSpaceOnUse"><stop stop-color="#283C64"/><stop offset="1" stop-color="#283C64"/></linearGradient><linearGradient id="ay" x1="-63.353" y1="-1.535" x2="779.874" y2="-1.535" gradientUnits="userSpaceOnUse"><stop stop-color="#283C64"/><stop offset="1" stop-color="#283C64"/></linearGradient><linearGradient id="az" x1="-63.353" y1="-1.535" x2="779.874" y2="-1.535" gradientUnits="userSpaceOnUse"><stop stop-color="#283C64"/><stop offset="1" stop-color="#283C64"/></linearGradient><linearGradient id="aA" x1="-63.353" y1="-1.535" x2="779.874" y2="-1.535" gradientUnits="userSpaceOnUse"><stop stop-color="#283C64"/><stop offset="1" stop-color="#283C64"/></linearGradient><linearGradient id="aB" x1="-63.353" y1="-1.535" x2="779.874" y2="-1.535" gradientUnits="userSpaceOnUse"><stop stop-color="#283C64"/><stop offset="1" stop-color="#283C64"/></linearGradient><linearGradient id="aC" x1="-63.353" y1="-1.535" x2="779.874" y2="-1.535" gradientUnits="userSpaceOnUse"><stop stop-color="#283C64"/><stop offset="1" stop-color="#283C64"/></linearGradient><linearGradient id="aD" x1="-63.353" y1="-1.535" x2="779.874" y2="-1.535" gradientUnits="userSpaceOnUse"><stop stop-color="#283C64"/><stop offset="1" stop-color="#283C64"/></linearGradient><linearGradient id="aE" x1="-63.353" y1="-1.535" x2="779.874" y2="-1.535" gradientUnits="userSpaceOnUse"><stop stop-color="#283C64"/><stop offset="1" stop-color="#283C64"/></linearGradient><linearGradient id="aF" x1="-63.353" y1="-1.535" x2="779.874" y2="-1.535" gradientUnits="userSpaceOnUse"><stop stop-color="#283C64"/><stop offset="1" stop-color="#283C64"/></linearGradient><linearGradient id="aG" x1="-63.353" y1="-1.535" x2="779.874" y2="-1.535" gradientUnits="userSpaceOnUse"><stop stop-color="#283C64"/><stop offset="1" stop-color="#283C64"/></linearGradient><linearGradient id="aH" x1="-63.353" y1="-1.535" x2="779.874" y2="-1.535" gradientUnits="userSpaceOnUse"><stop stop-color="#283C64"/><stop offset="1" stop-color="#283C64"/></linearGradient><linearGradient id="aI" x1="-63.353" y1="-1.535" x2="779.874" y2="-1.535" gradientUnits="userSpaceOnUse"><stop stop-color="#283C64"/><stop offset="1" stop-color="#283C64"/></linearGradient><linearGradient id="aJ" x1="-63.353" y1="-1.535" x2="779.874" y2="-1.535" gradientUnits="userSpaceOnUse"><stop stop-color="#283C64"/><stop offset="1" stop-color="#283C64"/></linearGradient><linearGradient id="aK" x1="-63.353" y1="-1.535" x2="779.874" y2="-1.535" gradientUnits="userSpaceOnUse"><stop stop-color="#283C64"/><stop offset="1" stop-color="#283C64"/></linearGradient><linearGradient id="aL" x1="-63.353" y1="-1.535" x2="779.874" y2="-1.535" gradientUnits="userSpaceOnUse"><stop stop-color="#283C64"/><stop offset="1" stop-color="#283C64"/></linearGradient><linearGradient id="aM" x1="-63.353" y1="-1.535" x2="779.874" y2="-1.535" gradientUnits="userSpaceOnUse"><stop stop-color="#283C64"/><stop offset="1" stop-color="#283C64"/></linearGradient><linearGradient id="aN" x1="-63.353" y1="-1.535" x2="779.874" y2="-1.535" gradientUnits="userSpaceOnUse"><stop stop-color="#283C64"/><stop offset="1" stop-color="#283C64"/></linearGradient><linearGradient id="aO" x1="-63.353" y1="-1.535" x2="779.874" y2="-1.535" gradientUnits="userSpaceOnUse"><stop stop-color="#283C64"/><stop offset="1" stop-color="#283C64"/></linearGradient><linearGradient id="aP" x1="-63.353" y1="-1.535" x2="779.874" y2="-1.535" gradientUnits="userSpaceOnUse"><stop stop-color="#283C64"/><stop offset="1" stop-color="#283C64"/></linearGradient><linearGradient id="aQ" x1="-63.353" y1="-1.535" x2="779.874" y2="-1.535" gradientUnits="userSpaceOnUse"><stop stop-color="#283C64"/><stop offset="1" stop-color="#283C64"/></linearGradient><linearGradient id="aR" x1="-63.353" y1="-1.535" x2="779.874" y2="-1.535" gradientUnits="userSpaceOnUse"><stop stop-color="#283C64"/><stop offset="1" stop-color="#283C64"/></linearGradient><linearGradient id="aS" x1="-63.353" y1="-1.535" x2="779.874" y2="-1.535" gradientUnits="userSpaceOnUse"><stop stop-color="#283C64"/><stop offset="1" stop-color="#283C64"/></linearGradient><linearGradient id="aT" x1="-63.353" y1="-1.535" x2="779.874" y2="-1.535" gradientUnits="userSpaceOnUse"><stop stop-color="#283C64"/><stop offset="1" stop-color="#283C64"/></linearGradient><linearGradient id="aU" x1="-63.353" y1="-1.535" x2="779.874" y2="-1.535" gradientUnits="userSpaceOnUse"><stop stop-color="#283C64"/><stop offset="1" stop-color="#283C64"/></linearGradient><linearGradient id="aV" x1="-63.353" y1="-1.535" x2="779.874" y2="-1.535" gradientUnits="userSpaceOnUse"><stop stop-color="#283C64"/><stop offset="1" stop-color="#283C64"/></linearGradient><linearGradient id="aW" x1="-63.353" y1="-1.535" x2="779.874" y2="-1.535" gradientUnits="userSpaceOnUse"><stop stop-color="#283C64"/><stop offset="1" stop-color="#283C64"/></linearGradient><linearGradient id="aX" x1="-63.353" y1="-1.535" x2="779.874" y2="-1.535" gradientUnits="userSpaceOnUse"><stop stop-color="#283C64"/><stop offset="1" stop-color="#283C64"/></linearGradient><linearGradient id="aY" x1="-63.353" y1="-1.535" x2="779.874" y2="-1.535" gradientUnits="userSpaceOnUse"><stop stop-color="#283C64"/><stop offset="1" stop-color="#283C64"/></linearGradient><linearGradient id="aZ" x1="-63.353" y1="-1.535" x2="779.874" y2="-1.535" gradientUnits="userSpaceOnUse"><stop stop-color="#283C64"/><stop offset="1" stop-color="#283C64"/></linearGradient><linearGradient id="ba" x1="-63.353" y1="-1.535" x2="779.874" y2="-1.535" gradientUnits="userSpaceOnUse"><stop stop-color="#283C64"/><stop offset="1" stop-color="#283C64"/></linearGradient><linearGradient id="bb" x1="-63.353" y1="-1.535" x2="779.874" y2="-1.535" gradientUnits="userSpaceOnUse"><stop stop-color="#283C64"/><stop offset="1" stop-color="#283C64"/></linearGradient><linearGradient id="bc" x1="-63.353" y1="-1.535" x2="779.874" y2="-1.535" gradientUnits="userSpaceOnUse"><stop stop-color="#283C64"/><stop offset="1" stop-color="#283C64"/></linearGradient><linearGradient id="bd" x1="-63.353" y1="-1.535" x2="779.874" y2="-1.535" gradientUnits="userSpaceOnUse"><stop stop-color="#283C64"/><stop offset="1" stop-color="#283C64"/></linearGradient></defs></svg>