<svg width="822" height="189" fill="none" xmlns="http://www.w3.org/2000/svg">
<path d="M558.94 75.0502L521.458 36.9498L558.94 -1.15056L596.422 36.9498L558.94 75.0502Z" fill="url(#paint0_linear_6107_56969)"/>
<path d="M634.198 -1.25002L671.68 -39.3504L709.162 -1.25L671.68 36.8504L634.198 -1.25002Z" fill="url(#paint1_linear_6107_56969)"/>
<path d="M596.422 113.35L558.94 75.2497L521.458 113.35H596.422Z" fill="url(#paint2_linear_6107_56969)"/>
<path d="M596.519 36.8504L634.002 -1.25002L596.519 -39.3504V36.8504Z" fill="url(#paint3_linear_6107_56969)"/>
<path d="M746.84 -39.3504L709.358 -1.25002L746.84 36.8504V-39.3504Z" fill="url(#paint4_linear_6107_56969)"/>
<path d="M671.68 113.25L709.162 75.15L671.68 37.0496V113.25Z" fill="url(#paint5_linear_6107_56969)"/>
<path d="M671.582 113.35L634.1 75.2497L596.618 113.35H671.582Z" fill="url(#paint6_linear_6107_56969)"/>
<path d="M671.582 -39.4499L634.1 -77.5502L596.618 -39.4498L671.582 -39.4499Z" fill="url(#paint7_linear_6107_56969)"/>
<path d="M821.902 36.9501L784.42 -1.15025L746.938 36.9501H821.902Z" fill="url(#paint8_linear_6107_56969)"/>
<path d="M821.902 -115.85L784.42 -153.95L746.938 -115.85L821.902 -115.85Z" fill="url(#paint9_linear_6107_56969)"/>
<path d="M746.742 189.75L709.26 151.65L671.778 189.75H746.742Z" fill="url(#paint10_linear_6107_56969)"/>
<path d="M671.68 -192.15L634.198 -154.05L671.68 -115.95V-192.15Z" fill="url(#paint11_linear_6107_56969)"/>
<path d="M822 -115.75L784.518 -77.6499L822 -39.5496V-115.75Z" fill="url(#paint12_linear_6107_56969)"/>
<path d="M596.618 36.9498L634.1 75.0502L671.582 36.9498L596.618 36.9498Z" fill="url(#paint13_linear_6107_56969)"/>
<path d="M596.618 -115.85L634.1 -77.7497L671.582 -115.85H596.618Z" fill="url(#paint14_linear_6107_56969)"/>
<path d="M746.938 -39.4501L784.42 -1.34975L821.902 -39.4501L746.938 -39.4501Z" fill="url(#paint15_linear_6107_56969)"/>
<path d="M746.938 -192.25L784.42 -154.15L821.902 -192.25L746.938 -192.25Z" fill="url(#paint16_linear_6107_56969)"/>
<path d="M671.778 113.35L709.26 151.45L746.742 113.35H671.778Z" fill="url(#paint17_linear_6107_56969)"/>
<path d="M596.52 -115.95L634.002 -154.05L596.52 -192.15V-115.95Z" fill="url(#paint18_linear_6107_56969)"/>
<path d="M746.84 -39.5496L784.322 -77.6499L746.84 -115.75V-39.5496Z" fill="url(#paint19_linear_6107_56969)"/>
<path d="M521.36 189.65L558.842 151.55L521.36 113.449V189.65Z" fill="url(#paint20_linear_6107_56969)"/>
<path d="M671.68 113.449L634.198 151.55L671.68 189.65V113.449Z" fill="url(#paint21_linear_6107_56969)"/>
<path d="M822 37.0496L784.518 75.15L822 113.25V37.0496Z" fill="url(#paint22_linear_6107_56969)"/>
<path d="M596.52 189.65L559.038 151.55L596.52 113.449L634.002 151.55L596.52 189.65Z" fill="url(#paint23_linear_6107_56969)"/>
<path d="M784.42 189.65L746.938 151.55L784.42 113.449L821.902 151.55L784.42 189.65Z" fill="url(#paint24_linear_6107_56969)"/>
<path d="M746.84 113.25L709.358 75.1498L746.84 37.0494L784.322 75.1498L746.84 113.25Z" fill="url(#paint25_linear_6107_56969)"/>
<path d="M558.94 -39.5497L521.458 -77.6501L558.94 -115.75L596.422 -77.6501L558.94 -39.5497Z" fill="url(#paint26_linear_6107_56969)"/>
<path d="M709.26 -39.5497L671.778 -77.6501L709.26 -115.75L746.742 -77.6501L709.26 -39.5497Z" fill="url(#paint27_linear_6107_56969)"/>
<path d="M558.94 -115.95L521.458 -154.05L558.94 -192.15L596.422 -154.05L558.94 -115.95Z" fill="url(#paint28_linear_6107_56969)"/>
<path d="M709.26 -115.95L671.778 -154.05L709.26 -192.15L746.742 -154.05L709.26 -115.95Z" fill="url(#paint29_linear_6107_56969)"/>
<path d="M521.458 -39.4501L558.94 -1.34976L596.422 -39.4501H521.458Z" fill="url(#paint30_linear_6107_56969)"/>
<path d="M483.681 -77.5495L521.163 -39.4492L483.681 -1.3488L446.199 -39.4492L483.681 -77.5495Z" fill="url(#paint31_linear_6107_56969)"/>
<path d="M408.423 -1.24934L370.941 36.851L333.459 -1.24937L370.941 -39.3497L408.423 -1.24934Z" fill="url(#paint32_linear_6107_56969)"/>
<path d="M446.199 -115.849L483.681 -77.749L521.163 -115.849L446.199 -115.849Z" fill="url(#paint33_linear_6107_56969)"/>
<path d="M446.102 -39.3497L408.62 -1.24934L446.102 36.851V-39.3497Z" fill="url(#paint34_linear_6107_56969)"/>
<path d="M295.781 36.851L333.263 -1.24937L295.781 -39.3497L295.781 36.851Z" fill="url(#paint35_linear_6107_56969)"/>
<path d="M370.941 -115.75L333.459 -77.6493L370.941 -39.5489V-115.75Z" fill="url(#paint36_linear_6107_56969)"/>
<path d="M371.039 -115.849L408.521 -77.7491L446.003 -115.849H371.039Z" fill="url(#paint37_linear_6107_56969)"/>
<path d="M371.039 36.9505L408.521 75.0508L446.003 36.9505H371.039Z" fill="url(#paint38_linear_6107_56969)"/>
<path d="M295.879 -192.249L333.361 -154.149L370.843 -192.249L295.879 -192.249Z" fill="url(#paint39_linear_6107_56969)"/>
<path d="M370.941 189.651L408.423 151.551L370.941 113.45V189.651Z" fill="url(#paint40_linear_6107_56969)"/>
<path d="M446.003 -39.4492L408.521 -77.5496L371.039 -39.4492L446.003 -39.4492Z" fill="url(#paint41_linear_6107_56969)"/>
<path d="M446.003 113.351L408.521 75.2503L371.039 113.351L446.003 113.351Z" fill="url(#paint42_linear_6107_56969)"/>
<path d="M370.843 -115.849L333.361 -153.95L295.879 -115.849L370.843 -115.849Z" fill="url(#paint43_linear_6107_56969)"/>
<path d="M446.101 113.45L408.619 151.551L446.101 189.651V113.45Z" fill="url(#paint44_linear_6107_56969)"/>
<path d="M521.262 -192.15L483.779 -154.049L521.262 -115.949V-192.15Z" fill="url(#paint45_linear_6107_56969)"/>
<path d="M370.941 -115.949L408.424 -154.049L370.941 -192.15V-115.949Z" fill="url(#paint46_linear_6107_56969)"/>
<path d="M446.101 -192.149L483.583 -154.049L446.101 -115.949L408.619 -154.049L446.101 -192.149Z" fill="url(#paint47_linear_6107_56969)"/>
<path d="M483.681 37.0504L521.163 75.1508L483.681 113.251L446.199 75.1507L483.681 37.0504Z" fill="url(#paint48_linear_6107_56969)"/>
<path d="M333.361 37.0503L370.843 75.1507L333.361 113.251L295.879 75.1507L333.361 37.0503Z" fill="url(#paint49_linear_6107_56969)"/>
<path d="M483.681 113.45L521.163 151.551L483.681 189.651L446.199 151.551L483.681 113.45Z" fill="url(#paint50_linear_6107_56969)"/>
<path d="M333.361 113.45L370.843 151.551L333.361 189.651L295.879 151.551L333.361 113.45Z" fill="url(#paint51_linear_6107_56969)"/>
<path d="M521.163 36.9508L483.681 -1.1496L446.199 36.9508L521.163 36.9508Z" fill="url(#paint52_linear_6107_56969)"/>
<path d="M34.1588 75.0502L-3.32324 36.9498L34.1588 -1.15056L71.6409 36.9498L34.1588 75.0502Z" fill="url(#paint53_linear_6107_56969)"/>
<path d="M109.417 -1.25002L146.899 -39.3504L184.381 -1.25L146.899 36.8504L109.417 -1.25002Z" fill="url(#paint54_linear_6107_56969)"/>
<path d="M71.6409 113.35L34.1588 75.2497L-3.32324 113.35H71.6409Z" fill="url(#paint55_linear_6107_56969)"/>
<path d="M71.7383 36.8504L109.22 -1.25002L71.7383 -39.3504V36.8504Z" fill="url(#paint56_linear_6107_56969)"/>
<path d="M222.059 -39.3504L184.577 -1.25002L222.059 36.8504L222.059 -39.3504Z" fill="url(#paint57_linear_6107_56969)"/>
<path d="M146.899 113.25L184.381 75.15L146.899 37.0496V113.25Z" fill="url(#paint58_linear_6107_56969)"/>
<path d="M146.801 113.35L109.319 75.2497L71.8369 113.35H146.801Z" fill="url(#paint59_linear_6107_56969)"/>
<path d="M146.801 -39.4499L109.319 -77.5502L71.8369 -39.4498L146.801 -39.4499Z" fill="url(#paint60_linear_6107_56969)"/>
<path d="M297.121 36.9501L259.639 -1.15025L222.157 36.9501H297.121Z" fill="url(#paint61_linear_6107_56969)"/>
<path d="M297.121 -115.85L259.639 -153.95L222.157 -115.85L297.121 -115.85Z" fill="url(#paint62_linear_6107_56969)"/>
<path d="M221.961 189.75L184.479 151.65L146.997 189.75H221.961Z" fill="url(#paint63_linear_6107_56969)"/>
<path d="M146.899 -192.15L109.417 -154.05L146.899 -115.95V-192.15Z" fill="url(#paint64_linear_6107_56969)"/>
<path d="M297.219 -115.75L259.737 -77.6499L297.219 -39.5496V-115.75Z" fill="url(#paint65_linear_6107_56969)"/>
<path d="M71.8369 36.9498L109.319 75.0502L146.801 36.9498L71.8369 36.9498Z" fill="url(#paint66_linear_6107_56969)"/>
<path d="M71.8369 -115.85L109.319 -77.7497L146.801 -115.85H71.8369Z" fill="url(#paint67_linear_6107_56969)"/>
<path d="M222.157 -39.4501L259.639 -1.34975L297.121 -39.4501L222.157 -39.4501Z" fill="url(#paint68_linear_6107_56969)"/>
<path d="M222.157 -192.25L259.639 -154.15L297.121 -192.25L222.157 -192.25Z" fill="url(#paint69_linear_6107_56969)"/>
<path d="M146.997 113.35L184.479 151.45L221.961 113.35H146.997Z" fill="url(#paint70_linear_6107_56969)"/>
<path d="M71.7387 -115.95L109.221 -154.05L71.7387 -192.15V-115.95Z" fill="url(#paint71_linear_6107_56969)"/>
<path d="M222.059 -39.5496L259.541 -77.6499L222.059 -115.75V-39.5496Z" fill="url(#paint72_linear_6107_56969)"/>
<path d="M-3.42139 189.65L34.0607 151.55L-3.42139 113.449V189.65Z" fill="url(#paint73_linear_6107_56969)"/>
<path d="M146.899 113.449L109.417 151.55L146.899 189.65L146.899 113.449Z" fill="url(#paint74_linear_6107_56969)"/>
<path d="M297.219 37.0496L259.737 75.15L297.219 113.25V37.0496Z" fill="url(#paint75_linear_6107_56969)"/>
<path d="M71.7389 189.65L34.2568 151.55L71.7389 113.449L109.221 151.55L71.7389 189.65Z" fill="url(#paint76_linear_6107_56969)"/>
<path d="M259.639 189.65L222.157 151.55L259.639 113.449L297.121 151.55L259.639 189.65Z" fill="url(#paint77_linear_6107_56969)"/>
<path d="M222.059 113.25L184.577 75.1498L222.059 37.0494L259.541 75.1498L222.059 113.25Z" fill="url(#paint78_linear_6107_56969)"/>
<path d="M34.1588 -39.5497L-3.32324 -77.6501L34.1588 -115.75L71.6409 -77.6501L34.1588 -39.5497Z" fill="url(#paint79_linear_6107_56969)"/>
<path d="M184.479 -39.5497L146.997 -77.6501L184.479 -115.75L221.961 -77.6501L184.479 -39.5497Z" fill="url(#paint80_linear_6107_56969)"/>
<path d="M34.1588 -115.95L-3.32323 -154.05L34.1588 -192.15L71.6409 -154.05L34.1588 -115.95Z" fill="url(#paint81_linear_6107_56969)"/>
<path d="M184.479 -115.95L146.997 -154.05L184.479 -192.15L221.961 -154.05L184.479 -115.95Z" fill="url(#paint82_linear_6107_56969)"/>
<path d="M-3.32324 -39.4501L34.1588 -1.34976L71.6409 -39.4501H-3.32324Z" fill="url(#paint83_linear_6107_56969)"/>
<path d="M-41.0998 -77.5495L-3.61771 -39.4492L-41.0998 -1.3488L-78.5818 -39.4492L-41.0998 -77.5495Z" fill="url(#paint84_linear_6107_56969)"/>
<path d="M-116.358 -1.24934L-153.84 36.851L-191.322 -1.24937L-153.84 -39.3497L-116.358 -1.24934Z" fill="url(#paint85_linear_6107_56969)"/>
<path d="M-78.5818 -115.849L-41.0998 -77.749L-3.61769 -115.849L-78.5818 -115.849Z" fill="url(#paint86_linear_6107_56969)"/>
<path d="M-78.6793 -39.3497L-116.161 -1.24934L-78.6793 36.851L-78.6793 -39.3497Z" fill="url(#paint87_linear_6107_56969)"/>
<path d="M-229 36.851L-191.518 -1.24937L-229 -39.3497L-229 36.851Z" fill="url(#paint88_linear_6107_56969)"/>
<path d="M-153.84 -115.75L-191.322 -77.6493L-153.84 -39.5489L-153.84 -115.75Z" fill="url(#paint89_linear_6107_56969)"/>
<path d="M-153.742 -115.849L-116.26 -77.7491L-78.7778 -115.849H-153.742Z" fill="url(#paint90_linear_6107_56969)"/>
<path d="M-153.742 36.9505L-116.26 75.0508L-78.7778 36.9505H-153.742Z" fill="url(#paint91_linear_6107_56969)"/>
<path d="M-228.902 -192.249L-191.42 -154.149L-153.938 -192.249L-228.902 -192.249Z" fill="url(#paint92_linear_6107_56969)"/>
<path d="M-153.84 189.651L-116.358 151.551L-153.84 113.45L-153.84 189.651Z" fill="url(#paint93_linear_6107_56969)"/>
<path d="M-78.7778 -39.4492L-116.26 -77.5496L-153.742 -39.4492L-78.7778 -39.4492Z" fill="url(#paint94_linear_6107_56969)"/>
<path d="M-78.7778 113.351L-116.26 75.2503L-153.742 113.351L-78.7778 113.351Z" fill="url(#paint95_linear_6107_56969)"/>
<path d="M-153.938 -115.849L-191.42 -153.95L-228.902 -115.849L-153.938 -115.849Z" fill="url(#paint96_linear_6107_56969)"/>
<path d="M-78.6797 113.45L-116.162 151.551L-78.6797 189.651L-78.6797 113.45Z" fill="url(#paint97_linear_6107_56969)"/>
<path d="M-3.51955 -192.15L-41.0016 -154.049L-3.51955 -115.949V-192.15Z" fill="url(#paint98_linear_6107_56969)"/>
<path d="M-153.84 -115.949L-116.358 -154.049L-153.84 -192.15L-153.84 -115.949Z" fill="url(#paint99_linear_6107_56969)"/>
<path d="M-78.6798 -192.149L-41.1977 -154.049L-78.6798 -115.949L-116.162 -154.049L-78.6798 -192.149Z" fill="url(#paint100_linear_6107_56969)"/>
<path d="M-41.0998 37.0504L-3.61772 75.1508L-41.0998 113.251L-78.5818 75.1507L-41.0998 37.0504Z" fill="url(#paint101_linear_6107_56969)"/>
<path d="M-191.42 37.0503L-153.938 75.1507L-191.42 113.251L-228.902 75.1507L-191.42 37.0503Z" fill="url(#paint102_linear_6107_56969)"/>
<path d="M-41.0998 113.45L-3.61772 151.551L-41.0998 189.651L-78.5818 151.551L-41.0998 113.45Z" fill="url(#paint103_linear_6107_56969)"/>
<path d="M-191.42 113.45L-153.938 151.551L-191.42 189.651L-228.902 151.551L-191.42 113.45Z" fill="url(#paint104_linear_6107_56969)"/>
<path d="M-3.61772 36.9508L-41.0998 -1.1496L-78.5818 36.9508L-3.61772 36.9508Z" fill="url(#paint105_linear_6107_56969)"/>
<defs>
<linearGradient id="paint0_linear_6107_56969" x1="-63.3532" y1="-1.53513" x2="779.874" y2="-1.53513" gradientUnits="userSpaceOnUse">
<stop stop-color="#283C64"/>
<stop offset="1" stop-color="#283C64"/>
</linearGradient>
<linearGradient id="paint1_linear_6107_56969" x1="-63.3532" y1="-1.53513" x2="779.874" y2="-1.53513" gradientUnits="userSpaceOnUse">
<stop stop-color="#283C64"/>
<stop offset="1" stop-color="#283C64"/>
</linearGradient>
<linearGradient id="paint2_linear_6107_56969" x1="-63.3532" y1="-1.53513" x2="779.874" y2="-1.53513" gradientUnits="userSpaceOnUse">
<stop stop-color="#283C64"/>
<stop offset="1" stop-color="#283C64"/>
</linearGradient>
<linearGradient id="paint3_linear_6107_56969" x1="-63.3532" y1="-1.53513" x2="779.874" y2="-1.53513" gradientUnits="userSpaceOnUse">
<stop stop-color="#283C64"/>
<stop offset="1" stop-color="#283C64"/>
</linearGradient>
<linearGradient id="paint4_linear_6107_56969" x1="-63.3532" y1="-1.53513" x2="779.874" y2="-1.53513" gradientUnits="userSpaceOnUse">
<stop stop-color="#283C64"/>
<stop offset="1" stop-color="#283C64"/>
</linearGradient>
<linearGradient id="paint5_linear_6107_56969" x1="-63.3532" y1="-1.53513" x2="779.874" y2="-1.53513" gradientUnits="userSpaceOnUse">
<stop stop-color="#283C64"/>
<stop offset="1" stop-color="#283C64"/>
</linearGradient>
<linearGradient id="paint6_linear_6107_56969" x1="-63.3532" y1="-1.53513" x2="779.874" y2="-1.53513" gradientUnits="userSpaceOnUse">
<stop stop-color="#283C64"/>
<stop offset="1" stop-color="#283C64"/>
</linearGradient>
<linearGradient id="paint7_linear_6107_56969" x1="-63.3532" y1="-1.53513" x2="779.874" y2="-1.53513" gradientUnits="userSpaceOnUse">
<stop stop-color="#283C64"/>
<stop offset="1" stop-color="#283C64"/>
</linearGradient>
<linearGradient id="paint8_linear_6107_56969" x1="-63.3532" y1="-1.53513" x2="779.874" y2="-1.53513" gradientUnits="userSpaceOnUse">
<stop stop-color="#283C64"/>
<stop offset="1" stop-color="#283C64"/>
</linearGradient>
<linearGradient id="paint9_linear_6107_56969" x1="-63.3532" y1="-1.53513" x2="779.874" y2="-1.53513" gradientUnits="userSpaceOnUse">
<stop stop-color="#283C64"/>
<stop offset="1" stop-color="#283C64"/>
</linearGradient>
<linearGradient id="paint10_linear_6107_56969" x1="-63.3532" y1="-1.53513" x2="779.874" y2="-1.53513" gradientUnits="userSpaceOnUse">
<stop stop-color="#283C64"/>
<stop offset="1" stop-color="#283C64"/>
</linearGradient>
<linearGradient id="paint11_linear_6107_56969" x1="-63.3532" y1="-1.53513" x2="779.874" y2="-1.53513" gradientUnits="userSpaceOnUse">
<stop stop-color="#283C64"/>
<stop offset="1" stop-color="#283C64"/>
</linearGradient>
<linearGradient id="paint12_linear_6107_56969" x1="-63.3532" y1="-1.53513" x2="779.874" y2="-1.53513" gradientUnits="userSpaceOnUse">
<stop stop-color="#283C64"/>
<stop offset="1" stop-color="#283C64"/>
</linearGradient>
<linearGradient id="paint13_linear_6107_56969" x1="-63.3532" y1="-1.53513" x2="779.874" y2="-1.53513" gradientUnits="userSpaceOnUse">
<stop stop-color="#283C64"/>
<stop offset="1" stop-color="#283C64"/>
</linearGradient>
<linearGradient id="paint14_linear_6107_56969" x1="-63.3532" y1="-1.53513" x2="779.874" y2="-1.53513" gradientUnits="userSpaceOnUse">
<stop stop-color="#283C64"/>
<stop offset="1" stop-color="#283C64"/>
</linearGradient>
<linearGradient id="paint15_linear_6107_56969" x1="-63.3532" y1="-1.53513" x2="779.874" y2="-1.53513" gradientUnits="userSpaceOnUse">
<stop stop-color="#283C64"/>
<stop offset="1" stop-color="#283C64"/>
</linearGradient>
<linearGradient id="paint16_linear_6107_56969" x1="-63.3532" y1="-1.53513" x2="779.874" y2="-1.53513" gradientUnits="userSpaceOnUse">
<stop stop-color="#283C64"/>
<stop offset="1" stop-color="#283C64"/>
</linearGradient>
<linearGradient id="paint17_linear_6107_56969" x1="-63.3532" y1="-1.53513" x2="779.874" y2="-1.53513" gradientUnits="userSpaceOnUse">
<stop stop-color="#283C64"/>
<stop offset="1" stop-color="#283C64"/>
</linearGradient>
<linearGradient id="paint18_linear_6107_56969" x1="-63.3532" y1="-1.53513" x2="779.874" y2="-1.53513" gradientUnits="userSpaceOnUse">
<stop stop-color="#283C64"/>
<stop offset="1" stop-color="#283C64"/>
</linearGradient>
<linearGradient id="paint19_linear_6107_56969" x1="-63.3532" y1="-1.53513" x2="779.874" y2="-1.53513" gradientUnits="userSpaceOnUse">
<stop stop-color="#283C64"/>
<stop offset="1" stop-color="#283C64"/>
</linearGradient>
<linearGradient id="paint20_linear_6107_56969" x1="-63.3532" y1="-1.53513" x2="779.874" y2="-1.53513" gradientUnits="userSpaceOnUse">
<stop stop-color="#283C64"/>
<stop offset="1" stop-color="#283C64"/>
</linearGradient>
<linearGradient id="paint21_linear_6107_56969" x1="-63.3532" y1="-1.53513" x2="779.874" y2="-1.53513" gradientUnits="userSpaceOnUse">
<stop stop-color="#283C64"/>
<stop offset="1" stop-color="#283C64"/>
</linearGradient>
<linearGradient id="paint22_linear_6107_56969" x1="-63.3532" y1="-1.53513" x2="779.874" y2="-1.53513" gradientUnits="userSpaceOnUse">
<stop stop-color="#283C64"/>
<stop offset="1" stop-color="#283C64"/>
</linearGradient>
<linearGradient id="paint23_linear_6107_56969" x1="-63.3532" y1="-1.53513" x2="779.874" y2="-1.53513" gradientUnits="userSpaceOnUse">
<stop stop-color="#283C64"/>
<stop offset="1" stop-color="#283C64"/>
</linearGradient>
<linearGradient id="paint24_linear_6107_56969" x1="-63.3532" y1="-1.53513" x2="779.874" y2="-1.53513" gradientUnits="userSpaceOnUse">
<stop stop-color="#283C64"/>
<stop offset="1" stop-color="#283C64"/>
</linearGradient>
<linearGradient id="paint25_linear_6107_56969" x1="-63.3532" y1="-1.53513" x2="779.874" y2="-1.53513" gradientUnits="userSpaceOnUse">
<stop stop-color="#283C64"/>
<stop offset="1" stop-color="#283C64"/>
</linearGradient>
<linearGradient id="paint26_linear_6107_56969" x1="-63.3532" y1="-1.53513" x2="779.874" y2="-1.53513" gradientUnits="userSpaceOnUse">
<stop stop-color="#283C64"/>
<stop offset="1" stop-color="#283C64"/>
</linearGradient>
<linearGradient id="paint27_linear_6107_56969" x1="-63.3532" y1="-1.53513" x2="779.874" y2="-1.53513" gradientUnits="userSpaceOnUse">
<stop stop-color="#283C64"/>
<stop offset="1" stop-color="#283C64"/>
</linearGradient>
<linearGradient id="paint28_linear_6107_56969" x1="-63.3532" y1="-1.53513" x2="779.874" y2="-1.53513" gradientUnits="userSpaceOnUse">
<stop stop-color="#283C64"/>
<stop offset="1" stop-color="#283C64"/>
</linearGradient>
<linearGradient id="paint29_linear_6107_56969" x1="-63.3532" y1="-1.53513" x2="779.874" y2="-1.53513" gradientUnits="userSpaceOnUse">
<stop stop-color="#283C64"/>
<stop offset="1" stop-color="#283C64"/>
</linearGradient>
<linearGradient id="paint30_linear_6107_56969" x1="-63.3532" y1="-1.53513" x2="779.874" y2="-1.53513" gradientUnits="userSpaceOnUse">
<stop stop-color="#283C64"/>
<stop offset="1" stop-color="#283C64"/>
</linearGradient>
<linearGradient id="paint31_linear_6107_56969" x1="-63.3532" y1="-1.53513" x2="779.874" y2="-1.53513" gradientUnits="userSpaceOnUse">
<stop stop-color="#283C64"/>
<stop offset="1" stop-color="#283C64"/>
</linearGradient>
<linearGradient id="paint32_linear_6107_56969" x1="-63.3532" y1="-1.53513" x2="779.874" y2="-1.53513" gradientUnits="userSpaceOnUse">
<stop stop-color="#283C64"/>
<stop offset="1" stop-color="#283C64"/>
</linearGradient>
<linearGradient id="paint33_linear_6107_56969" x1="-63.3532" y1="-1.53513" x2="779.874" y2="-1.53513" gradientUnits="userSpaceOnUse">
<stop stop-color="#283C64"/>
<stop offset="1" stop-color="#283C64"/>
</linearGradient>
<linearGradient id="paint34_linear_6107_56969" x1="-63.3532" y1="-1.53513" x2="779.874" y2="-1.53513" gradientUnits="userSpaceOnUse">
<stop stop-color="#283C64"/>
<stop offset="1" stop-color="#283C64"/>
</linearGradient>
<linearGradient id="paint35_linear_6107_56969" x1="-63.3532" y1="-1.53513" x2="779.874" y2="-1.53513" gradientUnits="userSpaceOnUse">
<stop stop-color="#283C64"/>
<stop offset="1" stop-color="#283C64"/>
</linearGradient>
<linearGradient id="paint36_linear_6107_56969" x1="-63.3532" y1="-1.53513" x2="779.874" y2="-1.53513" gradientUnits="userSpaceOnUse">
<stop stop-color="#283C64"/>
<stop offset="1" stop-color="#283C64"/>
</linearGradient>
<linearGradient id="paint37_linear_6107_56969" x1="-63.3532" y1="-1.53513" x2="779.874" y2="-1.53513" gradientUnits="userSpaceOnUse">
<stop stop-color="#283C64"/>
<stop offset="1" stop-color="#283C64"/>
</linearGradient>
<linearGradient id="paint38_linear_6107_56969" x1="-63.3532" y1="-1.53513" x2="779.874" y2="-1.53513" gradientUnits="userSpaceOnUse">
<stop stop-color="#283C64"/>
<stop offset="1" stop-color="#283C64"/>
</linearGradient>
<linearGradient id="paint39_linear_6107_56969" x1="-63.3532" y1="-1.53513" x2="779.874" y2="-1.53513" gradientUnits="userSpaceOnUse">
<stop stop-color="#283C64"/>
<stop offset="1" stop-color="#283C64"/>
</linearGradient>
<linearGradient id="paint40_linear_6107_56969" x1="-63.3532" y1="-1.53513" x2="779.874" y2="-1.53513" gradientUnits="userSpaceOnUse">
<stop stop-color="#283C64"/>
<stop offset="1" stop-color="#283C64"/>
</linearGradient>
<linearGradient id="paint41_linear_6107_56969" x1="-63.3532" y1="-1.53513" x2="779.874" y2="-1.53513" gradientUnits="userSpaceOnUse">
<stop stop-color="#283C64"/>
<stop offset="1" stop-color="#283C64"/>
</linearGradient>
<linearGradient id="paint42_linear_6107_56969" x1="-63.3532" y1="-1.53513" x2="779.874" y2="-1.53513" gradientUnits="userSpaceOnUse">
<stop stop-color="#283C64"/>
<stop offset="1" stop-color="#283C64"/>
</linearGradient>
<linearGradient id="paint43_linear_6107_56969" x1="-63.3532" y1="-1.53513" x2="779.874" y2="-1.53513" gradientUnits="userSpaceOnUse">
<stop stop-color="#283C64"/>
<stop offset="1" stop-color="#283C64"/>
</linearGradient>
<linearGradient id="paint44_linear_6107_56969" x1="-63.3532" y1="-1.53513" x2="779.874" y2="-1.53513" gradientUnits="userSpaceOnUse">
<stop stop-color="#283C64"/>
<stop offset="1" stop-color="#283C64"/>
</linearGradient>
<linearGradient id="paint45_linear_6107_56969" x1="-63.3532" y1="-1.53513" x2="779.874" y2="-1.53513" gradientUnits="userSpaceOnUse">
<stop stop-color="#283C64"/>
<stop offset="1" stop-color="#283C64"/>
</linearGradient>
<linearGradient id="paint46_linear_6107_56969" x1="-63.3532" y1="-1.53513" x2="779.874" y2="-1.53513" gradientUnits="userSpaceOnUse">
<stop stop-color="#283C64"/>
<stop offset="1" stop-color="#283C64"/>
</linearGradient>
<linearGradient id="paint47_linear_6107_56969" x1="-63.3532" y1="-1.53513" x2="779.874" y2="-1.53513" gradientUnits="userSpaceOnUse">
<stop stop-color="#283C64"/>
<stop offset="1" stop-color="#283C64"/>
</linearGradient>
<linearGradient id="paint48_linear_6107_56969" x1="-63.3532" y1="-1.53513" x2="779.874" y2="-1.53513" gradientUnits="userSpaceOnUse">
<stop stop-color="#283C64"/>
<stop offset="1" stop-color="#283C64"/>
</linearGradient>
<linearGradient id="paint49_linear_6107_56969" x1="-63.3532" y1="-1.53513" x2="779.874" y2="-1.53513" gradientUnits="userSpaceOnUse">
<stop stop-color="#283C64"/>
<stop offset="1" stop-color="#283C64"/>
</linearGradient>
<linearGradient id="paint50_linear_6107_56969" x1="-63.3532" y1="-1.53513" x2="779.874" y2="-1.53513" gradientUnits="userSpaceOnUse">
<stop stop-color="#283C64"/>
<stop offset="1" stop-color="#283C64"/>
</linearGradient>
<linearGradient id="paint51_linear_6107_56969" x1="-63.3532" y1="-1.53513" x2="779.874" y2="-1.53513" gradientUnits="userSpaceOnUse">
<stop stop-color="#283C64"/>
<stop offset="1" stop-color="#283C64"/>
</linearGradient>
<linearGradient id="paint52_linear_6107_56969" x1="-63.3532" y1="-1.53513" x2="779.874" y2="-1.53513" gradientUnits="userSpaceOnUse">
<stop stop-color="#283C64"/>
<stop offset="1" stop-color="#283C64"/>
</linearGradient>
<linearGradient id="paint53_linear_6107_56969" x1="-63.3532" y1="-1.53513" x2="779.874" y2="-1.53513" gradientUnits="userSpaceOnUse">
<stop stop-color="#283C64"/>
<stop offset="1" stop-color="#283C64"/>
</linearGradient>
<linearGradient id="paint54_linear_6107_56969" x1="-63.3532" y1="-1.53513" x2="779.874" y2="-1.53513" gradientUnits="userSpaceOnUse">
<stop stop-color="#283C64"/>
<stop offset="1" stop-color="#283C64"/>
</linearGradient>
<linearGradient id="paint55_linear_6107_56969" x1="-63.3532" y1="-1.53513" x2="779.874" y2="-1.53513" gradientUnits="userSpaceOnUse">
<stop stop-color="#283C64"/>
<stop offset="1" stop-color="#283C64"/>
</linearGradient>
<linearGradient id="paint56_linear_6107_56969" x1="-63.3532" y1="-1.53513" x2="779.874" y2="-1.53513" gradientUnits="userSpaceOnUse">
<stop stop-color="#283C64"/>
<stop offset="1" stop-color="#283C64"/>
</linearGradient>
<linearGradient id="paint57_linear_6107_56969" x1="-63.3532" y1="-1.53513" x2="779.874" y2="-1.53513" gradientUnits="userSpaceOnUse">
<stop stop-color="#283C64"/>
<stop offset="1" stop-color="#283C64"/>
</linearGradient>
<linearGradient id="paint58_linear_6107_56969" x1="-63.3532" y1="-1.53513" x2="779.874" y2="-1.53513" gradientUnits="userSpaceOnUse">
<stop stop-color="#283C64"/>
<stop offset="1" stop-color="#283C64"/>
</linearGradient>
<linearGradient id="paint59_linear_6107_56969" x1="-63.3532" y1="-1.53513" x2="779.874" y2="-1.53513" gradientUnits="userSpaceOnUse">
<stop stop-color="#283C64"/>
<stop offset="1" stop-color="#283C64"/>
</linearGradient>
<linearGradient id="paint60_linear_6107_56969" x1="-63.3532" y1="-1.53513" x2="779.874" y2="-1.53513" gradientUnits="userSpaceOnUse">
<stop stop-color="#283C64"/>
<stop offset="1" stop-color="#283C64"/>
</linearGradient>
<linearGradient id="paint61_linear_6107_56969" x1="-63.3532" y1="-1.53513" x2="779.874" y2="-1.53513" gradientUnits="userSpaceOnUse">
<stop stop-color="#283C64"/>
<stop offset="1" stop-color="#283C64"/>
</linearGradient>
<linearGradient id="paint62_linear_6107_56969" x1="-63.3532" y1="-1.53513" x2="779.874" y2="-1.53513" gradientUnits="userSpaceOnUse">
<stop stop-color="#283C64"/>
<stop offset="1" stop-color="#283C64"/>
</linearGradient>
<linearGradient id="paint63_linear_6107_56969" x1="-63.3532" y1="-1.53513" x2="779.874" y2="-1.53513" gradientUnits="userSpaceOnUse">
<stop stop-color="#283C64"/>
<stop offset="1" stop-color="#283C64"/>
</linearGradient>
<linearGradient id="paint64_linear_6107_56969" x1="-63.3532" y1="-1.53513" x2="779.874" y2="-1.53513" gradientUnits="userSpaceOnUse">
<stop stop-color="#283C64"/>
<stop offset="1" stop-color="#283C64"/>
</linearGradient>
<linearGradient id="paint65_linear_6107_56969" x1="-63.3532" y1="-1.53513" x2="779.874" y2="-1.53513" gradientUnits="userSpaceOnUse">
<stop stop-color="#283C64"/>
<stop offset="1" stop-color="#283C64"/>
</linearGradient>
<linearGradient id="paint66_linear_6107_56969" x1="-63.3532" y1="-1.53513" x2="779.874" y2="-1.53513" gradientUnits="userSpaceOnUse">
<stop stop-color="#283C64"/>
<stop offset="1" stop-color="#283C64"/>
</linearGradient>
<linearGradient id="paint67_linear_6107_56969" x1="-63.3532" y1="-1.53513" x2="779.874" y2="-1.53513" gradientUnits="userSpaceOnUse">
<stop stop-color="#283C64"/>
<stop offset="1" stop-color="#283C64"/>
</linearGradient>
<linearGradient id="paint68_linear_6107_56969" x1="-63.3532" y1="-1.53513" x2="779.874" y2="-1.53513" gradientUnits="userSpaceOnUse">
<stop stop-color="#283C64"/>
<stop offset="1" stop-color="#283C64"/>
</linearGradient>
<linearGradient id="paint69_linear_6107_56969" x1="-63.3532" y1="-1.53513" x2="779.874" y2="-1.53513" gradientUnits="userSpaceOnUse">
<stop stop-color="#283C64"/>
<stop offset="1" stop-color="#283C64"/>
</linearGradient>
<linearGradient id="paint70_linear_6107_56969" x1="-63.3532" y1="-1.53513" x2="779.874" y2="-1.53513" gradientUnits="userSpaceOnUse">
<stop stop-color="#283C64"/>
<stop offset="1" stop-color="#283C64"/>
</linearGradient>
<linearGradient id="paint71_linear_6107_56969" x1="-63.3532" y1="-1.53513" x2="779.874" y2="-1.53513" gradientUnits="userSpaceOnUse">
<stop stop-color="#283C64"/>
<stop offset="1" stop-color="#283C64"/>
</linearGradient>
<linearGradient id="paint72_linear_6107_56969" x1="-63.3532" y1="-1.53513" x2="779.874" y2="-1.53513" gradientUnits="userSpaceOnUse">
<stop stop-color="#283C64"/>
<stop offset="1" stop-color="#283C64"/>
</linearGradient>
<linearGradient id="paint73_linear_6107_56969" x1="-63.3532" y1="-1.53513" x2="779.874" y2="-1.53513" gradientUnits="userSpaceOnUse">
<stop stop-color="#283C64"/>
<stop offset="1" stop-color="#283C64"/>
</linearGradient>
<linearGradient id="paint74_linear_6107_56969" x1="-63.3532" y1="-1.53513" x2="779.874" y2="-1.53513" gradientUnits="userSpaceOnUse">
<stop stop-color="#283C64"/>
<stop offset="1" stop-color="#283C64"/>
</linearGradient>
<linearGradient id="paint75_linear_6107_56969" x1="-63.3532" y1="-1.53513" x2="779.874" y2="-1.53513" gradientUnits="userSpaceOnUse">
<stop stop-color="#283C64"/>
<stop offset="1" stop-color="#283C64"/>
</linearGradient>
<linearGradient id="paint76_linear_6107_56969" x1="-63.3532" y1="-1.53513" x2="779.874" y2="-1.53513" gradientUnits="userSpaceOnUse">
<stop stop-color="#283C64"/>
<stop offset="1" stop-color="#283C64"/>
</linearGradient>
<linearGradient id="paint77_linear_6107_56969" x1="-63.3532" y1="-1.53513" x2="779.874" y2="-1.53513" gradientUnits="userSpaceOnUse">
<stop stop-color="#283C64"/>
<stop offset="1" stop-color="#283C64"/>
</linearGradient>
<linearGradient id="paint78_linear_6107_56969" x1="-63.3532" y1="-1.53513" x2="779.874" y2="-1.53513" gradientUnits="userSpaceOnUse">
<stop stop-color="#283C64"/>
<stop offset="1" stop-color="#283C64"/>
</linearGradient>
<linearGradient id="paint79_linear_6107_56969" x1="-63.3532" y1="-1.53513" x2="779.874" y2="-1.53513" gradientUnits="userSpaceOnUse">
<stop stop-color="#283C64"/>
<stop offset="1" stop-color="#283C64"/>
</linearGradient>
<linearGradient id="paint80_linear_6107_56969" x1="-63.3532" y1="-1.53513" x2="779.874" y2="-1.53513" gradientUnits="userSpaceOnUse">
<stop stop-color="#283C64"/>
<stop offset="1" stop-color="#283C64"/>
</linearGradient>
<linearGradient id="paint81_linear_6107_56969" x1="-63.3532" y1="-1.53513" x2="779.874" y2="-1.53513" gradientUnits="userSpaceOnUse">
<stop stop-color="#283C64"/>
<stop offset="1" stop-color="#283C64"/>
</linearGradient>
<linearGradient id="paint82_linear_6107_56969" x1="-63.3532" y1="-1.53513" x2="779.874" y2="-1.53513" gradientUnits="userSpaceOnUse">
<stop stop-color="#283C64"/>
<stop offset="1" stop-color="#283C64"/>
</linearGradient>
<linearGradient id="paint83_linear_6107_56969" x1="-63.3532" y1="-1.53513" x2="779.874" y2="-1.53513" gradientUnits="userSpaceOnUse">
<stop stop-color="#283C64"/>
<stop offset="1" stop-color="#283C64"/>
</linearGradient>
<linearGradient id="paint84_linear_6107_56969" x1="-63.3532" y1="-1.53513" x2="779.874" y2="-1.53513" gradientUnits="userSpaceOnUse">
<stop stop-color="#283C64"/>
<stop offset="1" stop-color="#283C64"/>
</linearGradient>
<linearGradient id="paint85_linear_6107_56969" x1="-63.3532" y1="-1.53513" x2="779.874" y2="-1.53513" gradientUnits="userSpaceOnUse">
<stop stop-color="#283C64"/>
<stop offset="1" stop-color="#283C64"/>
</linearGradient>
<linearGradient id="paint86_linear_6107_56969" x1="-63.3532" y1="-1.53513" x2="779.874" y2="-1.53513" gradientUnits="userSpaceOnUse">
<stop stop-color="#283C64"/>
<stop offset="1" stop-color="#283C64"/>
</linearGradient>
<linearGradient id="paint87_linear_6107_56969" x1="-63.3532" y1="-1.53513" x2="779.874" y2="-1.53513" gradientUnits="userSpaceOnUse">
<stop stop-color="#283C64"/>
<stop offset="1" stop-color="#283C64"/>
</linearGradient>
<linearGradient id="paint88_linear_6107_56969" x1="-63.3532" y1="-1.53513" x2="779.874" y2="-1.53513" gradientUnits="userSpaceOnUse">
<stop stop-color="#283C64"/>
<stop offset="1" stop-color="#283C64"/>
</linearGradient>
<linearGradient id="paint89_linear_6107_56969" x1="-63.3532" y1="-1.53513" x2="779.874" y2="-1.53513" gradientUnits="userSpaceOnUse">
<stop stop-color="#283C64"/>
<stop offset="1" stop-color="#283C64"/>
</linearGradient>
<linearGradient id="paint90_linear_6107_56969" x1="-63.3532" y1="-1.53513" x2="779.874" y2="-1.53513" gradientUnits="userSpaceOnUse">
<stop stop-color="#283C64"/>
<stop offset="1" stop-color="#283C64"/>
</linearGradient>
<linearGradient id="paint91_linear_6107_56969" x1="-63.3532" y1="-1.53513" x2="779.874" y2="-1.53513" gradientUnits="userSpaceOnUse">
<stop stop-color="#283C64"/>
<stop offset="1" stop-color="#283C64"/>
</linearGradient>
<linearGradient id="paint92_linear_6107_56969" x1="-63.3532" y1="-1.53513" x2="779.874" y2="-1.53513" gradientUnits="userSpaceOnUse">
<stop stop-color="#283C64"/>
<stop offset="1" stop-color="#283C64"/>
</linearGradient>
<linearGradient id="paint93_linear_6107_56969" x1="-63.3532" y1="-1.53513" x2="779.874" y2="-1.53513" gradientUnits="userSpaceOnUse">
<stop stop-color="#283C64"/>
<stop offset="1" stop-color="#283C64"/>
</linearGradient>
<linearGradient id="paint94_linear_6107_56969" x1="-63.3532" y1="-1.53513" x2="779.874" y2="-1.53513" gradientUnits="userSpaceOnUse">
<stop stop-color="#283C64"/>
<stop offset="1" stop-color="#283C64"/>
</linearGradient>
<linearGradient id="paint95_linear_6107_56969" x1="-63.3532" y1="-1.53513" x2="779.874" y2="-1.53513" gradientUnits="userSpaceOnUse">
<stop stop-color="#283C64"/>
<stop offset="1" stop-color="#283C64"/>
</linearGradient>
<linearGradient id="paint96_linear_6107_56969" x1="-63.3532" y1="-1.53513" x2="779.874" y2="-1.53513" gradientUnits="userSpaceOnUse">
<stop stop-color="#283C64"/>
<stop offset="1" stop-color="#283C64"/>
</linearGradient>
<linearGradient id="paint97_linear_6107_56969" x1="-63.3532" y1="-1.53513" x2="779.874" y2="-1.53513" gradientUnits="userSpaceOnUse">
<stop stop-color="#283C64"/>
<stop offset="1" stop-color="#283C64"/>
</linearGradient>
<linearGradient id="paint98_linear_6107_56969" x1="-63.3532" y1="-1.53513" x2="779.874" y2="-1.53513" gradientUnits="userSpaceOnUse">
<stop stop-color="#283C64"/>
<stop offset="1" stop-color="#283C64"/>
</linearGradient>
<linearGradient id="paint99_linear_6107_56969" x1="-63.3532" y1="-1.53513" x2="779.874" y2="-1.53513" gradientUnits="userSpaceOnUse">
<stop stop-color="#283C64"/>
<stop offset="1" stop-color="#283C64"/>
</linearGradient>
<linearGradient id="paint100_linear_6107_56969" x1="-63.3532" y1="-1.53513" x2="779.874" y2="-1.53513" gradientUnits="userSpaceOnUse">
<stop stop-color="#283C64"/>
<stop offset="1" stop-color="#283C64"/>
</linearGradient>
<linearGradient id="paint101_linear_6107_56969" x1="-63.3532" y1="-1.53513" x2="779.874" y2="-1.53513" gradientUnits="userSpaceOnUse">
<stop stop-color="#283C64"/>
<stop offset="1" stop-color="#283C64"/>
</linearGradient>
<linearGradient id="paint102_linear_6107_56969" x1="-63.3532" y1="-1.53513" x2="779.874" y2="-1.53513" gradientUnits="userSpaceOnUse">
<stop stop-color="#283C64"/>
<stop offset="1" stop-color="#283C64"/>
</linearGradient>
<linearGradient id="paint103_linear_6107_56969" x1="-63.3532" y1="-1.53513" x2="779.874" y2="-1.53513" gradientUnits="userSpaceOnUse">
<stop stop-color="#283C64"/>
<stop offset="1" stop-color="#283C64"/>
</linearGradient>
<linearGradient id="paint104_linear_6107_56969" x1="-63.3532" y1="-1.53513" x2="779.874" y2="-1.53513" gradientUnits="userSpaceOnUse">
<stop stop-color="#283C64"/>
<stop offset="1" stop-color="#283C64"/>
</linearGradient>
<linearGradient id="paint105_linear_6107_56969" x1="-63.3532" y1="-1.53513" x2="779.874" y2="-1.53513" gradientUnits="userSpaceOnUse">
<stop stop-color="#283C64"/>
<stop offset="1" stop-color="#283C64"/>
</linearGradient>
</defs>
</svg>
