<svg width="594" height="77" fill="none" xmlns="http://www.w3.org/2000/svg"><path d="M16.5 0 55 38.5 16.5 77-22 38.5 16.5 0Z" fill="url(#a)"/><path d="M555.5 0 594 38.5 555.5 77 517 38.5 555.5 0Z" fill="url(#b)"/><path d="M55 38.5 93.5 0H55v38.5Z" fill="url(#c)"/><path d="M286 38.5 324.5 0H286v38.5Z" fill="url(#d)"/><path d="M170.5 0 209 38.5V0h-38.5Z" fill="url(#e)"/><path d="M401.5 0 440 38.5V0h-38.5Z" fill="url(#f)"/><path d="M170.5 77 132 38.5V77h38.5Z" fill="url(#g)"/><path d="M286 38.5 247.5 77H286V38.5Z" fill="url(#h)"/><path d="M93.5 77 132 38.5H55L93.5 77Z" fill="url(#i)"/><path d="M132 38.5 170.5 0h-77L132 38.5Z" fill="url(#j)"/><path d="M363 38.5 401.5 0h-77L363 38.5Z" fill="url(#k)"/><path d="M209 38.5 170.5 77h77L209 38.5Z" fill="url(#l)"/><path d="M324.5 38.5 286 77h77l-38.5-38.5Z" fill="url(#m)"/><path d="M401.5 77 440 38.5h-77L401.5 77Z" fill="url(#n)"/><path d="M247.5 0 209 38.5h77L247.5 0Z" fill="url(#o)"/><path d="M478.5 0 440 38.5h77L478.5 0Z" fill="url(#p)"/><path d="M478.5 38.5 440 77h77l-38.5-38.5Z" fill="url(#q)"/><defs><linearGradient id="a" x1="75.087" y1="38.443" x2="569.31" y2="38.443" gradientUnits="userSpaceOnUse"><stop stop-color="#363B43"/><stop offset="1" stop-color="#373C44"/></linearGradient><linearGradient id="b" x1="75.087" y1="38.443" x2="569.31" y2="38.443" gradientUnits="userSpaceOnUse"><stop stop-color="#363B43"/><stop offset="1" stop-color="#373C44"/></linearGradient><linearGradient id="c" x1="75.087" y1="38.443" x2="569.31" y2="38.443" gradientUnits="userSpaceOnUse"><stop stop-color="#363B43"/><stop offset="1" stop-color="#373C44"/></linearGradient><linearGradient id="d" x1="75.087" y1="38.443" x2="569.31" y2="38.443" gradientUnits="userSpaceOnUse"><stop stop-color="#363B43"/><stop offset="1" stop-color="#373C44"/></linearGradient><linearGradient id="e" x1="75.087" y1="38.443" x2="569.31" y2="38.443" gradientUnits="userSpaceOnUse"><stop stop-color="#363B43"/><stop offset="1" stop-color="#373C44"/></linearGradient><linearGradient id="f" x1="75.087" y1="38.443" x2="569.31" y2="38.443" gradientUnits="userSpaceOnUse"><stop stop-color="#363B43"/><stop offset="1" stop-color="#373C44"/></linearGradient><linearGradient id="g" x1="75.087" y1="38.443" x2="569.31" y2="38.443" gradientUnits="userSpaceOnUse"><stop stop-color="#363B43"/><stop offset="1" stop-color="#373C44"/></linearGradient><linearGradient id="h" x1="75.087" y1="38.443" x2="569.31" y2="38.443" gradientUnits="userSpaceOnUse"><stop stop-color="#363B43"/><stop offset="1" stop-color="#373C44"/></linearGradient><linearGradient id="i" x1="75.087" y1="38.443" x2="569.31" y2="38.443" gradientUnits="userSpaceOnUse"><stop stop-color="#363B43"/><stop offset="1" stop-color="#373C44"/></linearGradient><linearGradient id="j" x1="75.087" y1="38.443" x2="569.31" y2="38.443" gradientUnits="userSpaceOnUse"><stop stop-color="#363B43"/><stop offset="1" stop-color="#373C44"/></linearGradient><linearGradient id="k" x1="75.087" y1="38.443" x2="569.31" y2="38.443" gradientUnits="userSpaceOnUse"><stop stop-color="#363B43"/><stop offset="1" stop-color="#373C44"/></linearGradient><linearGradient id="l" x1="75.087" y1="38.443" x2="569.31" y2="38.443" gradientUnits="userSpaceOnUse"><stop stop-color="#363B43"/><stop offset="1" stop-color="#373C44"/></linearGradient><linearGradient id="m" x1="75.087" y1="38.443" x2="569.31" y2="38.443" gradientUnits="userSpaceOnUse"><stop stop-color="#363B43"/><stop offset="1" stop-color="#373C44"/></linearGradient><linearGradient id="n" x1="75.087" y1="38.443" x2="569.31" y2="38.443" gradientUnits="userSpaceOnUse"><stop stop-color="#363B43"/><stop offset="1" stop-color="#373C44"/></linearGradient><linearGradient id="o" x1="75.087" y1="38.443" x2="569.31" y2="38.443" gradientUnits="userSpaceOnUse"><stop stop-color="#363B43"/><stop offset="1" stop-color="#373C44"/></linearGradient><linearGradient id="p" x1="75.087" y1="38.443" x2="569.31" y2="38.443" gradientUnits="userSpaceOnUse"><stop stop-color="#363B43"/><stop offset="1" stop-color="#373C44"/></linearGradient><linearGradient id="q" x1="75.087" y1="38.443" x2="569.31" y2="38.443" gradientUnits="userSpaceOnUse"><stop stop-color="#363B43"/><stop offset="1" stop-color="#373C44"/></linearGradient></defs></svg>