<svg width="127" height="58" viewBox="0 0 127 58" fill="none" xmlns="http://www.w3.org/2000/svg">
<path d="M61.6116 8.07705L82.5008 29.125L69.1814 42.7775M61.8888 50.2524L65.0172 47.0458M98.837 50.0877L119.449 28.9603L102.861 12.2466M100.306 9.6717L98.5598 7.91235" stroke="#476DB0" stroke-width="2" stroke-linecap="round" stroke-linejoin="round"/>
<path d="M61.6118 8.0769L82.501 29.1248L69.1816 42.7773M61.889 50.2522L65.0174 47.0456" stroke="#476DB0" stroke-width="2" stroke-linecap="round" stroke-linejoin="round"/>
<path d="M25.7873 32.0713L28.4976 29.3609L25.4132 26.3279M12.703 45.1556L1 56.8585H25.2896L52.3289 29.3609L25.2896 2.32153L1 2.32153L13.6179 14.7291M17.2754 18.3257L23.0397 23.9939M25.5794 8.24015L46.4686 29.2881L25.8566 50.4155M50.567 14.5649L65.4467 29.1966L37.9491 56.6943H49.5923" stroke="#476DB0" stroke-width="2" stroke-linecap="round" stroke-linejoin="round"/>
<path d="M99.106 31.5486L101.816 28.8382L98.732 25.8052M86.0217 44.6328L74.3188 56.3358H98.6083L125.648 28.8382L98.6083 1.79883L74.3188 1.79883L86.9367 14.2064M90.5941 17.803L96.3585 23.4712M69.1158 9.03591L62.2382 2.15828L37.9486 2.15828L45.9084 9.98538M78.1742 18.0943L73.8127 13.7328M81.2809 21.201L89.2775 29.1976L62.2382 56.6953H56.4083" stroke="#6A8CC6" stroke-width="2" stroke-linecap="round" stroke-linejoin="round"/>
<path d="M69.1159 9.03584L62.2383 2.1582L37.9487 2.1582L45.9085 9.98531M78.1743 18.0942L73.8129 13.7328M81.281 21.2009L89.2777 29.1975L62.2383 56.6952H56.4084" stroke="#6A8CC6" stroke-width="2" stroke-linecap="round" stroke-linejoin="round"/>
</svg>
