<svg xmlns="http://www.w3.org/2000/svg" width="1200" height="265" fill="none"><mask id="b" width="1200" height="265" x="0" y="0" maskUnits="userSpaceOnUse" style="mask-type:alpha"><mask id="a" fill="#fff"><path d="M0 12.25c0-6.627 5.373-12 12-12h1176c6.63 0 12 5.373 12 12v240c0 6.627-5.37 12-12 12H12c-6.627 0-12-5.373-12-12z"/></mask><path fill="#f7fafb" d="M0 12.25c0-6.627 5.373-12 12-12h1176c6.63 0 12 5.373 12 12v240c0 6.627-5.37 12-12 12H12c-6.627 0-12-5.373-12-12z"/><path fill="#dbdee5" d="M-1 12.25c0-7.18 5.82-13 13-13h1176c7.18 0 13 5.82 13 13h-2c0-6.075-4.92-11-11-11H12c-6.075 0-11 4.925-11 11zm1201 252H0zm-1188 0c-7.18 0-13-5.82-13-13v-239c0-7.18 5.82-13 13-13v2c-6.075 0-11 4.925-11 11v240c0 6.627 4.925 12 11 12m1176-265c7.18 0 13 5.82 13 13v239c0 7.18-5.82 13-13 13 6.08 0 11-5.373 11-12v-240c0-6.075-4.92-11-11-11z" mask="url(#a)"/></mask><g mask="url(#b)"><path fill="url(#c)" d="m883.566 212.012-52.497-52.562 52.497-52.563 52.496 52.563z"/><path fill="url(#d)" d="m988.97 106.75 52.5-52.563 52.49 52.563-52.49 52.563z"/><path fill="url(#e)" d="m936.062 264.85-52.496-52.562-52.497 52.562z"/><path fill="url(#f)" d="m936.198 159.313 52.497-52.563-52.497-52.563z"/><path fill="url(#g)" d="m1146.73 54.187-52.49 52.563 52.49 52.563z"/><path fill="url(#h)" d="m1041.47 264.712 52.49-52.562-52.49-52.563z"/><path fill="url(#i)" d="m1041.33 264.85-52.497-52.562-52.497 52.562z"/><path fill="url(#j)" d="M1041.33 54.05 988.833 1.488 936.336 54.05z"/><path fill="url(#k)" d="m1251.86 159.45-52.49-52.562-52.5 52.562z"/><path fill="url(#l)" d="m1251.86-51.35-52.49-52.562-52.5 52.562z"/><path fill="url(#m)" d="m1146.6 370.25-52.5-52.563-52.5 52.563z"/><path fill="url(#n)" d="m1041.47-156.612-52.5 52.562 52.5 52.563z"/><path fill="url(#o)" d="M1252-51.212 1199.5 1.35l52.5 52.563z"/><path fill="url(#p)" d="m936.336 159.45 52.497 52.562 52.497-52.562z"/><path fill="url(#q)" d="m936.336-51.35 52.497 52.562 52.497-52.562z"/><path fill="url(#r)" d="m1146.87 54.05 52.5 52.562 52.49-52.562z"/><path fill="url(#s)" d="m1146.87-156.75 52.5 52.563 52.49-52.563z"/><path fill="url(#t)" d="m1041.6 264.85 52.5 52.562 52.5-52.562z"/><path fill="url(#u)" d="m936.199-51.487 52.496-52.563-52.496-52.562z"/><path fill="url(#v)" d="m1146.73 53.913 52.5-52.563-52.5-52.563V53.914Z"/><path fill="url(#w)" d="m830.932 370.112 52.496-52.562-52.496-52.563z"/><path fill="url(#x)" d="m1041.47 264.987-52.5 52.563 52.5 52.562z"/><path fill="url(#y)" d="m1252 159.587-52.5 52.563 52.5 52.562z"/><path fill="url(#z)" d="m936.199 370.112-52.496-52.562 52.496-52.563 52.497 52.563z"/><path fill="url(#A)" d="m1199.37 370.112-52.5-52.562 52.5-52.563 52.49 52.563z"/><path fill="url(#B)" d="m1146.73 264.712-52.49-52.562 52.49-52.563 52.5 52.563z"/><path fill="url(#C)" d="M883.566 53.912 831.069 1.35l52.497-52.563L936.062 1.35z"/><path fill="url(#D)" d="M1094.1 53.912 1041.6 1.35l52.5-52.563 52.5 52.563z"/><path fill="url(#E)" d="m883.566-51.487-52.497-52.563 52.497-52.563 52.496 52.563z"/><path fill="url(#F)" d="m1094.1-51.487-52.5-52.563 52.5-52.563 52.5 52.563z"/><path fill="url(#G)" d="m831.069 54.05 52.497 52.562 52.496-52.562z"/><path fill="url(#H)" d="m778.161 1.489 52.496 52.562-52.496 52.563-52.497-52.563L778.161 1.49Z"/><path fill="url(#I)" d="m672.757 106.751-52.497 52.562-52.496-52.562 52.496-52.563z"/><path fill="url(#J)" d="m725.664-51.35 52.497 52.563 52.496-52.562H725.664Z"/><path fill="url(#K)" d="m725.528 54.188-52.496 52.563 52.496 52.562z"/><path fill="url(#L)" d="m514.993 159.313 52.497-52.562-52.497-52.563z"/><path fill="url(#M)" d="M620.26-51.212 567.764 1.351l52.496 52.563V-51.213Z"/><path fill="url(#N)" d="m620.397-51.35 52.497 52.563 52.496-52.562H620.397Z"/><path fill="url(#O)" d="m620.397 159.451 52.497 52.562 52.496-52.562z"/><path fill="url(#P)" d="m515.13-156.749 52.497 52.562 52.496-52.562z"/><path fill="url(#Q)" d="m620.26 370.113 52.496-52.562-52.496-52.563z"/><path fill="url(#R)" d="M725.39 54.051 672.894 1.49l-52.497 52.56z"/><path fill="url(#S)" d="m725.39 264.851-52.496-52.563-52.497 52.563z"/><path fill="url(#T)" d="m620.123-51.349-52.496-52.562-52.497 52.562z"/><path fill="url(#U)" d="m725.527 264.988-52.496 52.563 52.496 52.562z"/><path fill="url(#V)" d="m830.794-156.611-52.496 52.562 52.496 52.563z"/><path fill="url(#W)" d="m620.261-51.486 52.496-52.563-52.496-52.563z"/><path fill="url(#X)" d="m725.527-156.611 52.496 52.562-52.496 52.563-52.496-52.563z"/><path fill="url(#Y)" d="m778.161 159.588 52.496 52.563-52.496 52.563-52.497-52.563z"/><path fill="url(#Z)" d="m567.627 159.588 52.496 52.563-52.496 52.563-52.497-52.563z"/><path fill="url(#aa)" d="m778.161 264.988 52.496 52.563-52.496 52.562-52.497-52.562z"/><path fill="url(#ab)" d="m567.627 264.988 52.496 52.563-52.496 52.562-52.497-52.562z"/><path fill="url(#ac)" d="m830.657 159.451-52.496-52.562-52.497 52.562z"/><path fill="url(#ad)" d="M148.573 212.012 96.076 159.45l52.497-52.563 52.496 52.563z"/><path fill="url(#ae)" d="m253.976 106.75 52.497-52.563 52.496 52.563-52.496 52.563z"/><path fill="url(#af)" d="m201.069 264.85-52.496-52.562-52.497 52.562H201.07Z"/><path fill="url(#ag)" d="m201.205 159.313 52.497-52.563-52.497-52.563z"/><path fill="url(#ah)" d="m411.74 54.187-52.496 52.563 52.496 52.563z"/><path fill="url(#ai)" d="m306.473 264.712 52.496-52.562-52.496-52.563z"/><path fill="url(#aj)" d="m306.336 264.85-52.496-52.562-52.497 52.562z"/><path fill="url(#ak)" d="M306.336 54.05 253.84 1.488 201.343 54.05z"/><path fill="url(#al)" d="m516.87 159.45-52.496-52.562-52.497 52.562z"/><path fill="url(#am)" d="m516.87-51.35-52.496-52.562-52.497 52.562z"/><path fill="url(#an)" d="m411.603 370.25-52.496-52.563-52.497 52.563z"/><path fill="url(#ao)" d="m306.473-156.612-52.496 52.562 52.496 52.563z"/><path fill="url(#ap)" d="M517.007-51.212 464.511 1.35l52.496 52.563z"/><path fill="url(#aq)" d="m201.343 159.45 52.497 52.562 52.496-52.562z"/><path fill="url(#ar)" d="M201.343-51.35 253.84 1.212l52.496-52.562z"/><path fill="url(#as)" d="m411.877 54.05 52.497 52.562L516.87 54.05z"/><path fill="url(#at)" d="m411.877-156.75 52.497 52.563 52.496-52.563z"/><path fill="url(#au)" d="m306.61 264.85 52.497 52.562 52.496-52.562z"/><path fill="url(#av)" d="m201.206-51.487 52.496-52.563-52.496-52.562z"/><path fill="url(#aw)" d="M411.739 53.913 464.236 1.35l-52.497-52.563V53.914Z"/><path fill="url(#ax)" d="m95.939 370.112 52.496-52.562-52.496-52.563z"/><path fill="url(#ay)" d="m306.473 264.987-52.497 52.563 52.497 52.562z"/><path fill="url(#az)" d="m517.007 159.587-52.496 52.563 52.496 52.562z"/><path fill="url(#aA)" d="M201.206 370.112 148.71 317.55l52.496-52.563 52.496 52.563z"/><path fill="url(#aB)" d="m464.374 370.112-52.497-52.562 52.497-52.563 52.496 52.563z"/><path fill="url(#aC)" d="m411.74 264.712-52.496-52.562 52.496-52.563 52.496 52.563z"/><path fill="url(#aD)" d="M148.573 53.912 96.076 1.35l52.497-52.563L201.069 1.35z"/><path fill="url(#aE)" d="M359.107 53.912 306.61 1.35l52.497-52.563L411.603 1.35z"/><path fill="url(#aF)" d="M148.573-51.487 96.076-104.05l52.497-52.563 52.496 52.563z"/><path fill="url(#aG)" d="M359.107-51.487 306.61-104.05l52.497-52.563 52.496 52.563z"/><path fill="url(#aH)" d="m96.076 54.05 52.497 52.562 52.496-52.562z"/><path fill="url(#aI)" d="M43.168 1.489 95.664 54.05l-52.496 52.563L-9.33 54.051 43.168 1.49Z"/><path fill="url(#aJ)" d="m-62.236 106.751-52.497 52.562-52.496-52.562 52.496-52.563z"/><path fill="url(#aK)" d="M-9.329-51.35 43.168 1.214l52.496-52.562H-9.33Z"/><path fill="url(#aL)" d="m-9.465 54.188-52.496 52.563 52.496 52.562z"/><path fill="url(#aM)" d="m-220 159.313 52.497-52.562L-220 54.188z"/><path fill="url(#aN)" d="m-114.733-51.212-52.496 52.563 52.496 52.563V-51.213Z"/><path fill="url(#aO)" d="m-114.596-51.35 52.497 52.563 52.496-52.562h-104.993Z"/><path fill="url(#aP)" d="m-114.596 159.451 52.497 52.562 52.496-52.562z"/><path fill="url(#aQ)" d="m-219.863-156.749 52.497 52.562 52.496-52.562z"/><path fill="url(#aR)" d="m-114.733 370.113 52.496-52.562-52.496-52.563z"/><path fill="url(#aS)" d="M-9.603 54.051-62.1 1.49l-52.497 52.562z"/><path fill="url(#aT)" d="M-9.603 264.851-62.1 212.288l-52.497 52.563z"/><path fill="url(#aU)" d="m-114.87-51.349-52.496-52.562-52.497 52.562z"/><path fill="url(#aV)" d="m-9.466 264.988-52.496 52.563 52.496 52.562z"/><path fill="url(#aW)" d="m95.801-156.611-52.496 52.562 52.496 52.563z"/><path fill="url(#aX)" d="m-114.733-51.486 52.497-52.563-52.497-52.563z"/><path fill="url(#aY)" d="m-9.466-156.611 52.496 52.562-52.496 52.563-52.496-52.563z"/><path fill="url(#aZ)" d="m43.168 159.588 52.496 52.563-52.496 52.563-52.497-52.563z"/><path fill="url(#ba)" d="m-167.366 159.588 52.496 52.563-52.497 52.563-52.496-52.563z"/><path fill="url(#bb)" d="m43.168 264.988 52.496 52.563-52.496 52.562-52.497-52.562z"/><path fill="url(#bc)" d="m-167.367 264.988 52.497 52.563-52.497 52.562-52.496-52.562z"/><path fill="url(#bd)" d="m95.664 159.451-52.496-52.562-52.497 52.562z"/></g><defs><linearGradient id="c" x1="-15.5" x2="1224.81" y1="107.172" y2="106.522" gradientUnits="userSpaceOnUse"><stop stop-color="#e5f0f8"/><stop offset="1" stop-color="#aacbe9"/></linearGradient><linearGradient id="d" x1="-15.5" x2="1224.81" y1="107.172" y2="106.522" gradientUnits="userSpaceOnUse"><stop stop-color="#e5f0f8"/><stop offset="1" stop-color="#aacbe9"/></linearGradient><linearGradient id="e" x1="-15.5" x2="1224.81" y1="107.172" y2="106.522" gradientUnits="userSpaceOnUse"><stop stop-color="#e5f0f8"/><stop offset="1" stop-color="#aacbe9"/></linearGradient><linearGradient id="f" x1="-15.5" x2="1224.81" y1="107.172" y2="106.522" gradientUnits="userSpaceOnUse"><stop stop-color="#e5f0f8"/><stop offset="1" stop-color="#aacbe9"/></linearGradient><linearGradient id="g" x1="-15.5" x2="1224.81" y1="107.172" y2="106.522" gradientUnits="userSpaceOnUse"><stop stop-color="#e5f0f8"/><stop offset="1" stop-color="#aacbe9"/></linearGradient><linearGradient id="h" x1="-15.5" x2="1224.81" y1="107.172" y2="106.522" gradientUnits="userSpaceOnUse"><stop stop-color="#e5f0f8"/><stop offset="1" stop-color="#aacbe9"/></linearGradient><linearGradient id="i" x1="-15.5" x2="1224.81" y1="107.172" y2="106.522" gradientUnits="userSpaceOnUse"><stop stop-color="#e5f0f8"/><stop offset="1" stop-color="#aacbe9"/></linearGradient><linearGradient id="j" x1="-15.5" x2="1224.81" y1="107.172" y2="106.522" gradientUnits="userSpaceOnUse"><stop stop-color="#e5f0f8"/><stop offset="1" stop-color="#aacbe9"/></linearGradient><linearGradient id="k" x1="-15.5" x2="1224.81" y1="107.172" y2="106.522" gradientUnits="userSpaceOnUse"><stop stop-color="#e5f0f8"/><stop offset="1" stop-color="#aacbe9"/></linearGradient><linearGradient id="l" x1="-15.5" x2="1224.81" y1="107.172" y2="106.522" gradientUnits="userSpaceOnUse"><stop stop-color="#e5f0f8"/><stop offset="1" stop-color="#aacbe9"/></linearGradient><linearGradient id="m" x1="-15.5" x2="1224.81" y1="107.172" y2="106.522" gradientUnits="userSpaceOnUse"><stop stop-color="#e5f0f8"/><stop offset="1" stop-color="#aacbe9"/></linearGradient><linearGradient id="n" x1="-15.5" x2="1224.81" y1="107.172" y2="106.522" gradientUnits="userSpaceOnUse"><stop stop-color="#e5f0f8"/><stop offset="1" stop-color="#aacbe9"/></linearGradient><linearGradient id="o" x1="-15.5" x2="1224.81" y1="107.172" y2="106.522" gradientUnits="userSpaceOnUse"><stop stop-color="#e5f0f8"/><stop offset="1" stop-color="#aacbe9"/></linearGradient><linearGradient id="p" x1="-15.5" x2="1224.81" y1="107.172" y2="106.522" gradientUnits="userSpaceOnUse"><stop stop-color="#e5f0f8"/><stop offset="1" stop-color="#aacbe9"/></linearGradient><linearGradient id="q" x1="-15.5" x2="1224.81" y1="107.172" y2="106.522" gradientUnits="userSpaceOnUse"><stop stop-color="#e5f0f8"/><stop offset="1" stop-color="#aacbe9"/></linearGradient><linearGradient id="r" x1="-15.5" x2="1224.81" y1="107.172" y2="106.522" gradientUnits="userSpaceOnUse"><stop stop-color="#e5f0f8"/><stop offset="1" stop-color="#aacbe9"/></linearGradient><linearGradient id="s" x1="-15.5" x2="1224.81" y1="107.172" y2="106.522" gradientUnits="userSpaceOnUse"><stop stop-color="#e5f0f8"/><stop offset="1" stop-color="#aacbe9"/></linearGradient><linearGradient id="t" x1="-15.5" x2="1224.81" y1="107.172" y2="106.522" gradientUnits="userSpaceOnUse"><stop stop-color="#e5f0f8"/><stop offset="1" stop-color="#aacbe9"/></linearGradient><linearGradient id="u" x1="-15.5" x2="1224.81" y1="107.172" y2="106.522" gradientUnits="userSpaceOnUse"><stop stop-color="#e5f0f8"/><stop offset="1" stop-color="#aacbe9"/></linearGradient><linearGradient id="v" x1="-15.5" x2="1224.81" y1="107.172" y2="106.522" gradientUnits="userSpaceOnUse"><stop stop-color="#e5f0f8"/><stop offset="1" stop-color="#aacbe9"/></linearGradient><linearGradient id="w" x1="-15.5" x2="1224.81" y1="107.172" y2="106.522" gradientUnits="userSpaceOnUse"><stop stop-color="#e5f0f8"/><stop offset="1" stop-color="#aacbe9"/></linearGradient><linearGradient id="x" x1="-15.5" x2="1224.81" y1="107.172" y2="106.522" gradientUnits="userSpaceOnUse"><stop stop-color="#e5f0f8"/><stop offset="1" stop-color="#aacbe9"/></linearGradient><linearGradient id="y" x1="-15.5" x2="1224.81" y1="107.172" y2="106.522" gradientUnits="userSpaceOnUse"><stop stop-color="#e5f0f8"/><stop offset="1" stop-color="#aacbe9"/></linearGradient><linearGradient id="z" x1="-15.5" x2="1224.81" y1="107.172" y2="106.522" gradientUnits="userSpaceOnUse"><stop stop-color="#e5f0f8"/><stop offset="1" stop-color="#aacbe9"/></linearGradient><linearGradient id="A" x1="-15.5" x2="1224.81" y1="107.172" y2="106.522" gradientUnits="userSpaceOnUse"><stop stop-color="#e5f0f8"/><stop offset="1" stop-color="#aacbe9"/></linearGradient><linearGradient id="B" x1="-15.5" x2="1224.81" y1="107.172" y2="106.522" gradientUnits="userSpaceOnUse"><stop stop-color="#e5f0f8"/><stop offset="1" stop-color="#aacbe9"/></linearGradient><linearGradient id="C" x1="-15.5" x2="1224.81" y1="107.172" y2="106.522" gradientUnits="userSpaceOnUse"><stop stop-color="#e5f0f8"/><stop offset="1" stop-color="#aacbe9"/></linearGradient><linearGradient id="D" x1="-15.5" x2="1224.81" y1="107.172" y2="106.522" gradientUnits="userSpaceOnUse"><stop stop-color="#e5f0f8"/><stop offset="1" stop-color="#aacbe9"/></linearGradient><linearGradient id="E" x1="-15.5" x2="1224.81" y1="107.172" y2="106.522" gradientUnits="userSpaceOnUse"><stop stop-color="#e5f0f8"/><stop offset="1" stop-color="#aacbe9"/></linearGradient><linearGradient id="F" x1="-15.5" x2="1224.81" y1="107.172" y2="106.522" gradientUnits="userSpaceOnUse"><stop stop-color="#e5f0f8"/><stop offset="1" stop-color="#aacbe9"/></linearGradient><linearGradient id="G" x1="-15.5" x2="1224.81" y1="107.172" y2="106.522" gradientUnits="userSpaceOnUse"><stop stop-color="#e5f0f8"/><stop offset="1" stop-color="#aacbe9"/></linearGradient><linearGradient id="H" x1="-15.5" x2="1224.81" y1="107.172" y2="106.522" gradientUnits="userSpaceOnUse"><stop stop-color="#e5f0f8"/><stop offset="1" stop-color="#aacbe9"/></linearGradient><linearGradient id="I" x1="-15.5" x2="1224.81" y1="107.172" y2="106.522" gradientUnits="userSpaceOnUse"><stop stop-color="#e5f0f8"/><stop offset="1" stop-color="#aacbe9"/></linearGradient><linearGradient id="J" x1="-15.5" x2="1224.81" y1="107.172" y2="106.522" gradientUnits="userSpaceOnUse"><stop stop-color="#e5f0f8"/><stop offset="1" stop-color="#aacbe9"/></linearGradient><linearGradient id="K" x1="-15.5" x2="1224.81" y1="107.172" y2="106.522" gradientUnits="userSpaceOnUse"><stop stop-color="#e5f0f8"/><stop offset="1" stop-color="#aacbe9"/></linearGradient><linearGradient id="L" x1="-15.5" x2="1224.81" y1="107.172" y2="106.522" gradientUnits="userSpaceOnUse"><stop stop-color="#e5f0f8"/><stop offset="1" stop-color="#aacbe9"/></linearGradient><linearGradient id="M" x1="-15.5" x2="1224.81" y1="107.172" y2="106.522" gradientUnits="userSpaceOnUse"><stop stop-color="#e5f0f8"/><stop offset="1" stop-color="#aacbe9"/></linearGradient><linearGradient id="N" x1="-15.5" x2="1224.81" y1="107.172" y2="106.522" gradientUnits="userSpaceOnUse"><stop stop-color="#e5f0f8"/><stop offset="1" stop-color="#aacbe9"/></linearGradient><linearGradient id="O" x1="-15.5" x2="1224.81" y1="107.172" y2="106.522" gradientUnits="userSpaceOnUse"><stop stop-color="#e5f0f8"/><stop offset="1" stop-color="#aacbe9"/></linearGradient><linearGradient id="P" x1="-15.5" x2="1224.81" y1="107.172" y2="106.522" gradientUnits="userSpaceOnUse"><stop stop-color="#e5f0f8"/><stop offset="1" stop-color="#aacbe9"/></linearGradient><linearGradient id="Q" x1="-15.5" x2="1224.81" y1="107.172" y2="106.522" gradientUnits="userSpaceOnUse"><stop stop-color="#e5f0f8"/><stop offset="1" stop-color="#aacbe9"/></linearGradient><linearGradient id="R" x1="-15.5" x2="1224.81" y1="107.172" y2="106.522" gradientUnits="userSpaceOnUse"><stop stop-color="#e5f0f8"/><stop offset="1" stop-color="#aacbe9"/></linearGradient><linearGradient id="S" x1="-15.5" x2="1224.81" y1="107.172" y2="106.522" gradientUnits="userSpaceOnUse"><stop stop-color="#e5f0f8"/><stop offset="1" stop-color="#aacbe9"/></linearGradient><linearGradient id="T" x1="-15.5" x2="1224.81" y1="107.172" y2="106.522" gradientUnits="userSpaceOnUse"><stop stop-color="#e5f0f8"/><stop offset="1" stop-color="#aacbe9"/></linearGradient><linearGradient id="U" x1="-15.5" x2="1224.81" y1="107.172" y2="106.522" gradientUnits="userSpaceOnUse"><stop stop-color="#e5f0f8"/><stop offset="1" stop-color="#aacbe9"/></linearGradient><linearGradient id="V" x1="-15.5" x2="1224.81" y1="107.172" y2="106.522" gradientUnits="userSpaceOnUse"><stop stop-color="#e5f0f8"/><stop offset="1" stop-color="#aacbe9"/></linearGradient><linearGradient id="W" x1="-15.5" x2="1224.81" y1="107.172" y2="106.522" gradientUnits="userSpaceOnUse"><stop stop-color="#e5f0f8"/><stop offset="1" stop-color="#aacbe9"/></linearGradient><linearGradient id="X" x1="-15.5" x2="1224.81" y1="107.172" y2="106.522" gradientUnits="userSpaceOnUse"><stop stop-color="#e5f0f8"/><stop offset="1" stop-color="#aacbe9"/></linearGradient><linearGradient id="Y" x1="-15.5" x2="1224.81" y1="107.172" y2="106.522" gradientUnits="userSpaceOnUse"><stop stop-color="#e5f0f8"/><stop offset="1" stop-color="#aacbe9"/></linearGradient><linearGradient id="Z" x1="-15.5" x2="1224.81" y1="107.172" y2="106.522" gradientUnits="userSpaceOnUse"><stop stop-color="#e5f0f8"/><stop offset="1" stop-color="#aacbe9"/></linearGradient><linearGradient id="aa" x1="-15.5" x2="1224.81" y1="107.172" y2="106.522" gradientUnits="userSpaceOnUse"><stop stop-color="#e5f0f8"/><stop offset="1" stop-color="#aacbe9"/></linearGradient><linearGradient id="ab" x1="-15.5" x2="1224.81" y1="107.172" y2="106.522" gradientUnits="userSpaceOnUse"><stop stop-color="#e5f0f8"/><stop offset="1" stop-color="#aacbe9"/></linearGradient><linearGradient id="ac" x1="-15.5" x2="1224.81" y1="107.172" y2="106.522" gradientUnits="userSpaceOnUse"><stop stop-color="#e5f0f8"/><stop offset="1" stop-color="#aacbe9"/></linearGradient><linearGradient id="ad" x1="-15.5" x2="1224.81" y1="107.172" y2="106.522" gradientUnits="userSpaceOnUse"><stop stop-color="#e5f0f8"/><stop offset="1" stop-color="#aacbe9"/></linearGradient><linearGradient id="ae" x1="-15.5" x2="1224.81" y1="107.172" y2="106.522" gradientUnits="userSpaceOnUse"><stop stop-color="#e5f0f8"/><stop offset="1" stop-color="#aacbe9"/></linearGradient><linearGradient id="af" x1="-15.5" x2="1224.81" y1="107.172" y2="106.522" gradientUnits="userSpaceOnUse"><stop stop-color="#e5f0f8"/><stop offset="1" stop-color="#aacbe9"/></linearGradient><linearGradient id="ag" x1="-15.5" x2="1224.81" y1="107.172" y2="106.522" gradientUnits="userSpaceOnUse"><stop stop-color="#e5f0f8"/><stop offset="1" stop-color="#aacbe9"/></linearGradient><linearGradient id="ah" x1="-15.5" x2="1224.81" y1="107.172" y2="106.522" gradientUnits="userSpaceOnUse"><stop stop-color="#e5f0f8"/><stop offset="1" stop-color="#aacbe9"/></linearGradient><linearGradient id="ai" x1="-15.5" x2="1224.81" y1="107.172" y2="106.522" gradientUnits="userSpaceOnUse"><stop stop-color="#e5f0f8"/><stop offset="1" stop-color="#aacbe9"/></linearGradient><linearGradient id="aj" x1="-15.5" x2="1224.81" y1="107.172" y2="106.522" gradientUnits="userSpaceOnUse"><stop stop-color="#e5f0f8"/><stop offset="1" stop-color="#aacbe9"/></linearGradient><linearGradient id="ak" x1="-15.5" x2="1224.81" y1="107.172" y2="106.522" gradientUnits="userSpaceOnUse"><stop stop-color="#e5f0f8"/><stop offset="1" stop-color="#aacbe9"/></linearGradient><linearGradient id="al" x1="-15.5" x2="1224.81" y1="107.172" y2="106.522" gradientUnits="userSpaceOnUse"><stop stop-color="#e5f0f8"/><stop offset="1" stop-color="#aacbe9"/></linearGradient><linearGradient id="am" x1="-15.5" x2="1224.81" y1="107.172" y2="106.522" gradientUnits="userSpaceOnUse"><stop stop-color="#e5f0f8"/><stop offset="1" stop-color="#aacbe9"/></linearGradient><linearGradient id="an" x1="-15.5" x2="1224.81" y1="107.172" y2="106.522" gradientUnits="userSpaceOnUse"><stop stop-color="#e5f0f8"/><stop offset="1" stop-color="#aacbe9"/></linearGradient><linearGradient id="ao" x1="-15.5" x2="1224.81" y1="107.172" y2="106.522" gradientUnits="userSpaceOnUse"><stop stop-color="#e5f0f8"/><stop offset="1" stop-color="#aacbe9"/></linearGradient><linearGradient id="ap" x1="-15.5" x2="1224.81" y1="107.172" y2="106.522" gradientUnits="userSpaceOnUse"><stop stop-color="#e5f0f8"/><stop offset="1" stop-color="#aacbe9"/></linearGradient><linearGradient id="aq" x1="-15.5" x2="1224.81" y1="107.172" y2="106.522" gradientUnits="userSpaceOnUse"><stop stop-color="#e5f0f8"/><stop offset="1" stop-color="#aacbe9"/></linearGradient><linearGradient id="ar" x1="-15.5" x2="1224.81" y1="107.172" y2="106.522" gradientUnits="userSpaceOnUse"><stop stop-color="#e5f0f8"/><stop offset="1" stop-color="#aacbe9"/></linearGradient><linearGradient id="as" x1="-15.5" x2="1224.81" y1="107.172" y2="106.522" gradientUnits="userSpaceOnUse"><stop stop-color="#e5f0f8"/><stop offset="1" stop-color="#aacbe9"/></linearGradient><linearGradient id="at" x1="-15.5" x2="1224.81" y1="107.172" y2="106.522" gradientUnits="userSpaceOnUse"><stop stop-color="#e5f0f8"/><stop offset="1" stop-color="#aacbe9"/></linearGradient><linearGradient id="au" x1="-15.5" x2="1224.81" y1="107.172" y2="106.522" gradientUnits="userSpaceOnUse"><stop stop-color="#e5f0f8"/><stop offset="1" stop-color="#aacbe9"/></linearGradient><linearGradient id="av" x1="-15.5" x2="1224.81" y1="107.172" y2="106.522" gradientUnits="userSpaceOnUse"><stop stop-color="#e5f0f8"/><stop offset="1" stop-color="#aacbe9"/></linearGradient><linearGradient id="aw" x1="-15.5" x2="1224.81" y1="107.172" y2="106.522" gradientUnits="userSpaceOnUse"><stop stop-color="#e5f0f8"/><stop offset="1" stop-color="#aacbe9"/></linearGradient><linearGradient id="ax" x1="-15.5" x2="1224.81" y1="107.172" y2="106.522" gradientUnits="userSpaceOnUse"><stop stop-color="#e5f0f8"/><stop offset="1" stop-color="#aacbe9"/></linearGradient><linearGradient id="ay" x1="-15.5" x2="1224.81" y1="107.172" y2="106.522" gradientUnits="userSpaceOnUse"><stop stop-color="#e5f0f8"/><stop offset="1" stop-color="#aacbe9"/></linearGradient><linearGradient id="az" x1="-15.5" x2="1224.81" y1="107.172" y2="106.522" gradientUnits="userSpaceOnUse"><stop stop-color="#e5f0f8"/><stop offset="1" stop-color="#aacbe9"/></linearGradient><linearGradient id="aA" x1="-15.5" x2="1224.81" y1="107.172" y2="106.522" gradientUnits="userSpaceOnUse"><stop stop-color="#e5f0f8"/><stop offset="1" stop-color="#aacbe9"/></linearGradient><linearGradient id="aB" x1="-15.5" x2="1224.81" y1="107.172" y2="106.522" gradientUnits="userSpaceOnUse"><stop stop-color="#e5f0f8"/><stop offset="1" stop-color="#aacbe9"/></linearGradient><linearGradient id="aC" x1="-15.5" x2="1224.81" y1="107.172" y2="106.522" gradientUnits="userSpaceOnUse"><stop stop-color="#e5f0f8"/><stop offset="1" stop-color="#aacbe9"/></linearGradient><linearGradient id="aD" x1="-15.5" x2="1224.81" y1="107.172" y2="106.522" gradientUnits="userSpaceOnUse"><stop stop-color="#e5f0f8"/><stop offset="1" stop-color="#aacbe9"/></linearGradient><linearGradient id="aE" x1="-15.5" x2="1224.81" y1="107.172" y2="106.522" gradientUnits="userSpaceOnUse"><stop stop-color="#e5f0f8"/><stop offset="1" stop-color="#aacbe9"/></linearGradient><linearGradient id="aF" x1="-15.5" x2="1224.81" y1="107.172" y2="106.522" gradientUnits="userSpaceOnUse"><stop stop-color="#e5f0f8"/><stop offset="1" stop-color="#aacbe9"/></linearGradient><linearGradient id="aG" x1="-15.5" x2="1224.81" y1="107.172" y2="106.522" gradientUnits="userSpaceOnUse"><stop stop-color="#e5f0f8"/><stop offset="1" stop-color="#aacbe9"/></linearGradient><linearGradient id="aH" x1="-15.5" x2="1224.81" y1="107.172" y2="106.522" gradientUnits="userSpaceOnUse"><stop stop-color="#e5f0f8"/><stop offset="1" stop-color="#aacbe9"/></linearGradient><linearGradient id="aI" x1="-15.5" x2="1224.81" y1="107.172" y2="106.522" gradientUnits="userSpaceOnUse"><stop stop-color="#e5f0f8"/><stop offset="1" stop-color="#aacbe9"/></linearGradient><linearGradient id="aJ" x1="-15.5" x2="1224.81" y1="107.172" y2="106.522" gradientUnits="userSpaceOnUse"><stop stop-color="#e5f0f8"/><stop offset="1" stop-color="#aacbe9"/></linearGradient><linearGradient id="aK" x1="-15.5" x2="1224.81" y1="107.172" y2="106.522" gradientUnits="userSpaceOnUse"><stop stop-color="#e5f0f8"/><stop offset="1" stop-color="#aacbe9"/></linearGradient><linearGradient id="aL" x1="-15.5" x2="1224.81" y1="107.172" y2="106.522" gradientUnits="userSpaceOnUse"><stop stop-color="#e5f0f8"/><stop offset="1" stop-color="#aacbe9"/></linearGradient><linearGradient id="aM" x1="-15.5" x2="1224.81" y1="107.172" y2="106.522" gradientUnits="userSpaceOnUse"><stop stop-color="#e5f0f8"/><stop offset="1" stop-color="#aacbe9"/></linearGradient><linearGradient id="aN" x1="-15.5" x2="1224.81" y1="107.172" y2="106.522" gradientUnits="userSpaceOnUse"><stop stop-color="#e5f0f8"/><stop offset="1" stop-color="#aacbe9"/></linearGradient><linearGradient id="aO" x1="-15.5" x2="1224.81" y1="107.172" y2="106.522" gradientUnits="userSpaceOnUse"><stop stop-color="#e5f0f8"/><stop offset="1" stop-color="#aacbe9"/></linearGradient><linearGradient id="aP" x1="-15.5" x2="1224.81" y1="107.172" y2="106.522" gradientUnits="userSpaceOnUse"><stop stop-color="#e5f0f8"/><stop offset="1" stop-color="#aacbe9"/></linearGradient><linearGradient id="aQ" x1="-15.5" x2="1224.81" y1="107.172" y2="106.522" gradientUnits="userSpaceOnUse"><stop stop-color="#e5f0f8"/><stop offset="1" stop-color="#aacbe9"/></linearGradient><linearGradient id="aR" x1="-15.5" x2="1224.81" y1="107.172" y2="106.522" gradientUnits="userSpaceOnUse"><stop stop-color="#e5f0f8"/><stop offset="1" stop-color="#aacbe9"/></linearGradient><linearGradient id="aS" x1="-15.5" x2="1224.81" y1="107.172" y2="106.522" gradientUnits="userSpaceOnUse"><stop stop-color="#e5f0f8"/><stop offset="1" stop-color="#aacbe9"/></linearGradient><linearGradient id="aT" x1="-15.5" x2="1224.81" y1="107.172" y2="106.522" gradientUnits="userSpaceOnUse"><stop stop-color="#e5f0f8"/><stop offset="1" stop-color="#aacbe9"/></linearGradient><linearGradient id="aU" x1="-15.5" x2="1224.81" y1="107.172" y2="106.522" gradientUnits="userSpaceOnUse"><stop stop-color="#e5f0f8"/><stop offset="1" stop-color="#aacbe9"/></linearGradient><linearGradient id="aV" x1="-15.5" x2="1224.81" y1="107.172" y2="106.522" gradientUnits="userSpaceOnUse"><stop stop-color="#e5f0f8"/><stop offset="1" stop-color="#aacbe9"/></linearGradient><linearGradient id="aW" x1="-15.5" x2="1224.81" y1="107.172" y2="106.522" gradientUnits="userSpaceOnUse"><stop stop-color="#e5f0f8"/><stop offset="1" stop-color="#aacbe9"/></linearGradient><linearGradient id="aX" x1="-15.5" x2="1224.81" y1="107.172" y2="106.522" gradientUnits="userSpaceOnUse"><stop stop-color="#e5f0f8"/><stop offset="1" stop-color="#aacbe9"/></linearGradient><linearGradient id="aY" x1="-15.5" x2="1224.81" y1="107.172" y2="106.522" gradientUnits="userSpaceOnUse"><stop stop-color="#e5f0f8"/><stop offset="1" stop-color="#aacbe9"/></linearGradient><linearGradient id="aZ" x1="-15.5" x2="1224.81" y1="107.172" y2="106.522" gradientUnits="userSpaceOnUse"><stop stop-color="#e5f0f8"/><stop offset="1" stop-color="#aacbe9"/></linearGradient><linearGradient id="ba" x1="-15.5" x2="1224.81" y1="107.172" y2="106.522" gradientUnits="userSpaceOnUse"><stop stop-color="#e5f0f8"/><stop offset="1" stop-color="#aacbe9"/></linearGradient><linearGradient id="bb" x1="-15.5" x2="1224.81" y1="107.172" y2="106.522" gradientUnits="userSpaceOnUse"><stop stop-color="#e5f0f8"/><stop offset="1" stop-color="#aacbe9"/></linearGradient><linearGradient id="bc" x1="-15.5" x2="1224.81" y1="107.172" y2="106.522" gradientUnits="userSpaceOnUse"><stop stop-color="#e5f0f8"/><stop offset="1" stop-color="#aacbe9"/></linearGradient><linearGradient id="bd" x1="-15.5" x2="1224.81" y1="107.172" y2="106.522" gradientUnits="userSpaceOnUse"><stop stop-color="#e5f0f8"/><stop offset="1" stop-color="#aacbe9"/></linearGradient></defs></svg>