<svg width="576" height="265" fill="none" xmlns="http://www.w3.org/2000/svg"><g clip-path="url(#a)"><path d="M180.708 284.614 117.816 49.003c-2.725-10.206 3.309-20.696 13.476-23.431l34.978-9.408m31.296-8.418L324-26.26M175.935 13.565l9.204-2.476M403.556-4.085l16.904 63.323M450.556 22.014l16.904 63.323" stroke="#476DB0" stroke-width="2" stroke-linecap="round"/><path d="M84.777 151.532a11.4 11.4 0 0 1 11.462 0l22.038 12.804a11.547 11.547 0 0 1 5.731 9.988v25.607a11.55 11.55 0 0 1-5.731 9.989l-22.038 12.803a11.4 11.4 0 0 1-11.462 0L62.74 209.92a11.549 11.549 0 0 1-5.731-9.989v-25.607c0-4.12 2.184-7.928 5.73-9.988l22.04-12.804Z" fill="#253355"/><path d="m69.621 144.989 11.932-6.925a15.841 15.841 0 0 1 15.91 0l5.823 3.38m9.091 5.276 2.932 1.702m-49.051 79.48 15.295 8.877a15.836 15.836 0 0 0 15.91 0l30.59-17.754a16.005 16.005 0 0 0 7.955-13.849v-55.508c0-5.746 0-10.246-2.5-19.246a626.489 626.489 0 0 1-2.235-8.377m-11.765 28.814 3.5 2.031m27 41.032-6.886-26.5" stroke="#476DB0" stroke-width="2" stroke-linecap="round"/><path d="m117.18 68.783 12.011 44.997m344.886 124.134L437.494 93.872" stroke="#2079EE" stroke-width="2" stroke-linecap="round"/><path d="M89 119.25v16M101.004 108.909c0 1.032-.27 2.046-.783 2.941a5.874 5.874 0 0 1-2.14 2.154l-6.14 3.573a5.845 5.845 0 0 1-5.875 0l-6.14-3.573a5.873 5.873 0 0 1-2.14-2.154 5.914 5.914 0 0 1-.782-2.941v-7.178c0-1.032.27-2.046.783-2.94a5.875 5.875 0 0 1 2.14-2.155l6.14-3.572a5.841 5.841 0 0 1 5.875 0l6.139 3.572a5.876 5.876 0 0 1 2.14 2.155 5.91 5.91 0 0 1 .783 2.94v7.178Z" stroke="#476DB0" stroke-width="2" stroke-linecap="round" stroke-linejoin="round"/><path d="M87.632 96.604a2.825 2.825 0 0 1 2.736 0l5.264 2.93A2.624 2.624 0 0 1 97 101.82v5.86c0 .943-.522 1.815-1.368 2.286l-5.264 2.93a2.822 2.822 0 0 1-2.736 0l-5.264-2.93A2.623 2.623 0 0 1 81 107.68v-5.86c0-.943.522-1.815 1.368-2.286l5.264-2.93Z" fill="#253355"/><path d="M55 79.395v7.581c0 2.83-1.478 5.443-3.877 6.858l-14.912 8.791a7.62 7.62 0 0 1-7.755 0L21 98.229M9 82.354v4.362c0 2.852 1.543 5.488 4.048 6.914l2.683 1.528" stroke="#476DB0" stroke-width="2" stroke-linecap="round"/><path d="M29.52 91.045a3.144 3.144 0 0 0 2.06.52l8.002-1.05c2.302-.279 3.185-.204 3.694-2.698.44-2.163 1.183-5.316 1.323-6.49M29.52 91.045a3.164 3.164 0 0 1-1.264-1.714l-.752-2.819m2.016 4.533 1.984-7.9m-6.643-6.532-13.229 1.55a3.143 3.143 0 0 1-2.06-.52m15.29-1.03 1.788-7.838m-1.789 7.838 1.713 6.415M9.57 77.644a3.163 3.163 0 0 1-1.264-1.714L5.591 65.754c-.468-1.753-.515-2.763.18-3.973.696-1.209 1.587-3.38 2.002-3.946m1.798 19.809 2.061-7.897m31.806 4.69 9.204-1.08c2.319-.27 2.844-.845 3.15-2.243.244-1.12.61-5.343.763-7.316m-36.587-23.81a2.231 2.231 0 0 0-.302 1.899l3.395 12.718-3.809.447m.716-15.065a2.22 2.22 0 0 1 1.665-.953l9.26-1.085a3.143 3.143 0 0 1 2.06.52 3.164 3.164 0 0 1 1.264 1.713l3.395 12.719 6.49-.761M19.968 39.987c-.214.53-2.58 2.994-2.959 4.118s-.21 1.76.215 3.35l2.028 7.597M54.576 65.34a2.212 2.212 0 0 0 1.664-.954 2.232 2.232 0 0 0 .303-1.9l-2.377-8.902a3.165 3.165 0 0 0-1.264-1.714 3.144 3.144 0 0 0-2.06-.52l-3.342.392m-28.248 3.31-9.42 1.104a2.21 2.21 0 0 0-1.665.953 2.23 2.23 0 0 0-.303 1.9l2.377 8.903a3.163 3.163 0 0 0 1.264 1.715c.607.407 1.335.59 2.061.519l4.432-.52M24 68.924l2.795-.327 3.395 12.718a3.165 3.165 0 0 0 1.264 1.714 3.145 3.145 0 0 0 2.06.52l9.261-1.085a2.212 2.212 0 0 0 1.665-.954 2.232 2.232 0 0 0 .302-1.9l-3.395-12.718L51.5 65.7" stroke="#6A8CC6" stroke-width="2" stroke-linecap="round" stroke-linejoin="round"/><path d="M67.5 94.543 55 87.516M70.5 101.176l-6-3.532m-5-2.944-5-2.944M76.5 99.413l-6-3.533" stroke="#476DB0" stroke-width="2" stroke-linecap="round"/><path d="M43.003 177.426v-7.759a16.01 16.01 0 0 1 7.955-13.85l11.698-6.789m-19.653 37.394v18.753a16.01 16.01 0 0 0 7.955 13.85l10.545 6.12M85.264 165.728l2.275-1.315a6.493 6.493 0 0 1 6.503 0l14.267 8.246a6.523 6.523 0 0 1 2.389 2.394 6.56 6.56 0 0 1 .875 3.274v16.46a6.556 6.556 0 0 1-.875 3.274 6.523 6.523 0 0 1-2.389 2.394l-14.267 8.246a6.494 6.494 0 0 1-6.503 0l-14.267-8.245a6.534 6.534 0 0 1-2.39-2.395 6.56 6.56 0 0 1-.874-3.274v-16.459c0-1.149.302-2.279.875-3.274a6.524 6.524 0 0 1 2.39-2.394l7.962-4.602" stroke="#6A8CC6" stroke-width="2" stroke-linecap="round"/><path d="M90.777 209.058v-2.81m0-3.704v-5.699m0-4.23v-2.967a4.906 4.906 0 0 1 2.449-4.252l17.315-10.08" stroke="#6A8CC6" stroke-width="2" stroke-linecap="round"/><path d="M92.898 185.599a4.028 4.028 0 0 1-4.008 0l-5.61-3.219m-8.82-5.063 5.67 3.255" stroke="#6A8CC6" stroke-width="2" stroke-linecap="round"/><path d="m426.681 83.204 19.01 73.059" stroke="#476DB0" stroke-width="2" stroke-linecap="round"/><path d="M551.059 18.492s2.063 2.449 6.933 7.01a34.653 34.653 0 0 1 6.529 8.39c5.314 9.468 6.382 21.139 3.882 32.788m-87.407 36.865s5.273 4.86 8.934 7.611c12.819 9.63 31.875 9.232 48.995-1.867m27.597-35.765c-4.04 12.047-11.813 23.598-22.553 32.134m-27.58 1.888s2.994 2.866 7.862 7.725m1.556-12.083s3.647 3.521 8.515 8.38" stroke="#476DB0" stroke-width="2" stroke-linecap="round" stroke-linejoin="round"/><path d="M531.316 91.644c20.287-16.123 28.252-44.306 17.789-62.95-10.462-18.644-35.391-20.69-55.678-4.566m-17.789 62.95c9.343 16.649 30.221 20.061 49.028 9.12m-36.488-67.364a61.096 61.096 0 0 0-8.356 10.546m60.266-20.727c-6.922-3.254-15.174-3.855-23.589-1.71M487.88 99.05c-3.341-2.528-5.982-5.874-8.014-9.546-10.463-18.644-2.499-46.828 17.788-62.95 3.761-2.989 7.682-5.353 11.64-7.103" stroke="#476DB0" stroke-width="2" stroke-linecap="round" stroke-linejoin="round"/><path d="M516.614 46.742 483.373 76.97l37.568-46.994 13.77 50.797-18.097-34.032Zm-17.359 21.211 5.67-5.225 15.077.87 2.984 5.86-23.731-1.505Zm9.828-8.958 5.784-5.276 2.982 5.746-8.766-.47Z" fill="#2C4478"/><path d="m531.082 67.384 3.629 13.39-18.097-34.032-8.157 7.417m21.492 9.047-2.478-9.14m-1.982-7.313-4.548-16.776-37.568 46.994 12.014-10.926m9.912-9.014-5.302 4.822m-.742 6.1 5.67-5.225 15.077.87 2.984 5.86-23.731-1.505Zm9.828-8.958 5.784-5.276 2.982 5.746-8.766-.47Z" stroke="#9EB3DB" stroke-width="2" stroke-linecap="round" stroke-linejoin="round"/><path d="M534.667 97.068c-23.416 18.608-52.188 16.249-64.264-5.27-1.675-2.985-2.941-6.182-3.817-9.524m73.31 10.185a70.407 70.407 0 0 0 10.887-13.662m5.986-12.402c5.285-14.535 5.17-29.975-1.57-41.985-12.076-21.519-40.848-23.878-64.264-5.27a68.978 68.978 0 0 0-7.819 7.275 70.517 70.517 0 0 0-7.329 9.457" stroke="#476DB0" stroke-width="2" stroke-linecap="round" stroke-linejoin="round"/><path d="m513.563 131.118.146-12.123" stroke="#476DB0" stroke-width="2" stroke-linecap="round"/><path d="M526.724 150.379a6.62 6.62 0 0 1-.879 3.297 6.577 6.577 0 0 1-2.401 2.416l-6.889 4.005a6.554 6.554 0 0 1-6.593 0l-6.889-4.005a6.584 6.584 0 0 1-2.401-2.416 6.62 6.62 0 0 1-.879-3.297v-8.049a6.62 6.62 0 0 1 .879-3.297 6.592 6.592 0 0 1 2.401-2.416l6.889-4.005a6.554 6.554 0 0 1 6.593 0l6.889 4.005a6.584 6.584 0 0 1 2.401 2.416 6.62 6.62 0 0 1 .879 3.297v8.049Z" stroke="#476DB0" stroke-width="2" stroke-linecap="round" stroke-linejoin="round"/><path d="M511.541 137.877a2.806 2.806 0 0 1 2.813 0l5.408 3.129a2.82 2.82 0 0 1 1.406 2.441v6.259a2.82 2.82 0 0 1-1.406 2.441l-5.408 3.129a2.81 2.81 0 0 1-2.813 0l-5.408-3.129a2.82 2.82 0 0 1-1.406-2.441v-6.259a2.82 2.82 0 0 1 1.406-2.441l5.408-3.129Z" fill="#253355"/><g filter="url(#c)" clip-path="url(#b)"><g clip-path="url(#d)"><rect x="121" y="34.657" width="319.362" height="1024.51" rx="14.142" transform="rotate(-15 121 34.657)" fill="#171F34"/><path d="m134.166 80.503 308.48-82.657 11.683 43.598-308.481 82.657-11.682-43.598Z" fill="#101627"/><path d="m168.138 101.036-2.885-10.769 4.038-1.082c.827-.222 1.563-.253 2.206-.095a3.193 3.193 0 0 1 1.619.93c.435.458.744 1.03.927 1.713.185.69.204 1.343.057 1.957a3.236 3.236 0 0 1-.949 1.612c-.486.458-1.145.797-1.976 1.02l-2.676.717-.43-1.603 2.414-.647c.483-.13.857-.32 1.12-.571.264-.25.43-.543.498-.877a2.264 2.264 0 0 0-.046-1.076 2.243 2.243 0 0 0-.496-.949 1.595 1.595 0 0 0-.871-.493c-.353-.082-.773-.058-1.26.072l-1.788.48 2.449 9.138-1.951.523Zm12.895-3.286c-.789.211-1.519.22-2.19.029a3.662 3.662 0 0 1-1.737-1.096c-.482-.54-.835-1.226-1.059-2.06-.224-.835-.262-1.608-.114-2.32.151-.713.469-1.32.954-1.823.486-.502 1.123-.858 1.911-1.07.789-.211 1.519-.22 2.191-.029.671.192 1.248.56 1.732 1.103.487.542.843 1.23 1.066 2.064.224.835.26 1.606.108 2.316a3.626 3.626 0 0 1-.951 1.816c-.485.502-1.122.858-1.911 1.07Zm-.398-1.528c.428-.114.754-.328.978-.64.224-.315.352-.691.385-1.128a4.066 4.066 0 0 0-.142-1.394 4.088 4.088 0 0 0-.575-1.283 2.197 2.197 0 0 0-.899-.79c-.352-.162-.741-.185-1.169-.07-.438.117-.771.334-.998.65a2.243 2.243 0 0 0-.389 1.136c-.033.437.017.903.149 1.397.132.49.321.917.569 1.28.25.36.551.621.903.783.354.157.75.177 1.188.06Zm5.841-.1-2.164-8.076 1.846-.495.36 1.346.085-.022c.022-.506.178-.933.468-1.281.292-.353.67-.591 1.133-.715.105-.028.224-.055.356-.079.135-.028.249-.046.341-.052l.47 1.751a2.07 2.07 0 0 0-.404.03 3.656 3.656 0 0 0-.509.097 1.998 1.998 0 0 0-.876.477c-.234.22-.394.483-.482.788-.087.305-.085.63.007.973l1.273 4.748-1.904.51Zm8.174-10.846.394 1.472-4.643 1.244-.394-1.472 4.643-1.244Zm-4.015-.998 1.903-.51 2.032 7.582c.068.256.159.442.273.558a.646.646 0 0 0 .389.189c.143.014.293 0 .451-.042a1.96 1.96 0 0 0 .319-.114c.097-.045.17-.081.218-.11l.72 1.403c-.092.062-.227.14-.405.233a3.71 3.71 0 0 1-.664.256 3.213 3.213 0 0 1-1.346.13 2.07 2.07 0 0 1-1.11-.503c-.311-.277-.532-.669-.664-1.175l-2.116-7.897Zm9.698-.525.394 1.472-4.774 1.28-.395-1.473 4.775-1.279Zm-1.417 9.036-2.369-8.839c-.145-.543-.154-1.026-.027-1.447.132-.422.364-.773.698-1.055a3.08 3.08 0 0 1 1.201-.609c.33-.088.629-.14.899-.156.27-.016.472-.02.606-.01l.016 1.573c-.087-.003-.195 0-.325.008-.13.005-.27.028-.421.068-.354.095-.582.248-.683.46-.099.206-.106.467-.021.783l2.335 8.713-1.909.511Zm8.333-2.064c-.789.212-1.519.221-2.19.03a3.663 3.663 0 0 1-1.737-1.097c-.482-.54-.835-1.226-1.059-2.06-.224-.835-.262-1.608-.114-2.32.151-.713.469-1.32.954-1.822.486-.502 1.123-.859 1.911-1.07.789-.212 1.519-.221 2.191-.03.671.193 1.248.56 1.732 1.103.487.542.843 1.23 1.066 2.065.224.834.259 1.606.108 2.315a3.625 3.625 0 0 1-.951 1.816c-.485.502-1.122.859-1.911 1.07Zm-.398-1.527c.428-.115.754-.328.978-.64.224-.316.352-.692.385-1.129a4.066 4.066 0 0 0-.142-1.393 4.09 4.09 0 0 0-.575-1.284 2.196 2.196 0 0 0-.899-.79c-.352-.161-.741-.184-1.169-.07-.438.118-.771.334-.998.65a2.243 2.243 0 0 0-.389 1.136c-.033.437.017.903.149 1.397.132.491.321.918.569 1.28.25.36.551.622.903.783.354.157.75.177 1.188.06Zm4.859-11.38 2.886 10.77-1.904.51-2.885-10.77 1.903-.51Zm4.843 10.245-2.164-8.076 1.903-.51 2.165 8.076-1.904.51Zm-1.514-9.48c-.302.082-.588.051-.859-.09a1.003 1.003 0 0 1-.522-.644.989.989 0 0 1 .131-.818c.162-.262.395-.433.696-.514.305-.081.592-.05.86.097a.989.989 0 0 1 .522.643 1 1 0 0 1-.13.819 1.14 1.14 0 0 1-.698.508Zm8.94 7.66c-.789.21-1.519.22-2.19.028a3.659 3.659 0 0 1-1.736-1.096c-.483-.539-.836-1.226-1.06-2.06-.223-.834-.261-1.608-.114-2.32.151-.713.469-1.32.954-1.822.486-.502 1.123-.859 1.912-1.07.788-.211 1.518-.221 2.19-.029.671.192 1.249.56 1.732 1.103.487.541.843 1.23 1.066 2.064.224.834.26 1.606.108 2.316a3.618 3.618 0 0 1-.951 1.815c-.485.502-1.122.86-1.911 1.07Zm-.398-1.528c.428-.115.754-.328.978-.64.224-.315.352-.692.385-1.129a4.041 4.041 0 0 0-.142-1.393 4.066 4.066 0 0 0-.575-1.283 2.197 2.197 0 0 0-.899-.79c-.351-.162-.741-.185-1.169-.07-.438.117-.77.334-.997.65a2.224 2.224 0 0 0-.389 1.135c-.033.438.016.903.149 1.398.131.49.32.917.568 1.279.251.36.552.622.903.784.354.156.75.176 1.188.059Z" fill="#E8EBF6"/><g clip-path="url(#e)"><g clip-path="url(#f)" stroke="#6A8CC6" stroke-width="1.703" stroke-linecap="round" stroke-linejoin="round"><path d="m366.829 40.644-1.764-6.58M369.032 48.87l-.881-3.29M369.958 42.45c.374 1.399-.491 2.777-1.807 3.13-1.398.374-2.776-.49-3.129-1.807-.353-1.316.326-2.732 1.806-3.13 1.399-.374 2.755.41 3.13 1.807ZM358.183 41.285l2.623 9.789M359.968 38.074c-.375-1.398-1.813-2.16-3.129-1.806-1.316.352-2.159 1.812-1.807 3.129.375 1.398 1.813 2.159 3.129 1.806 1.317-.353 2.182-1.73 1.807-3.129Zm0 0c.022.082 0 0 0 0Z"/></g><path fill="#283C64" d="m385.41 27.73.823-.22 4.409 16.452-.823.22z"/><path d="m405.917 31.052 14.396-3.857M411.186 21.925l3.858 14.396" stroke="#6A8CC6" stroke-width="1.703" stroke-linecap="round" stroke-linejoin="round"/></g><path d="M314.013 228.093c-.589.158-1.139.198-1.651.119a2.722 2.722 0 0 1-1.306-.554 2.26 2.26 0 0 1-.755-1.134l1.538-.412c.074.222.202.4.383.533.181.129.397.21.648.242.252.032.518.011.798-.064.3-.081.552-.204.756-.37.203-.168.345-.364.426-.587.08-.223.086-.457.018-.702a1.173 1.173 0 0 0-.376-.618 1.36 1.36 0 0 0-.703-.298c-.28-.042-.597-.015-.951.079l-.741.199-.313-1.17.74-.198c.292-.078.533-.197.724-.356.194-.16.329-.349.406-.565a1.13 1.13 0 0 0 .012-.691 1.154 1.154 0 0 0-.325-.575 1.117 1.117 0 0 0-.565-.292 1.549 1.549 0 0 0-.722.036 1.87 1.87 0 0 0-.674.33c-.194.151-.334.33-.422.538a1.04 1.04 0 0 0-.05.662l-1.46.392a2.2 2.2 0 0 1 .074-1.344c.166-.427.44-.799.823-1.115a3.571 3.571 0 0 1 1.387-.696c.559-.15 1.073-.175 1.541-.075.469.096.865.29 1.185.581.321.291.538.649.652 1.074.129.471.096.904-.099 1.298-.193.394-.502.7-.929.92l.018.065c.611-.076 1.12.021 1.529.292.41.267.684.662.822 1.186.126.469.104.925-.063 1.367-.166.439-.454.826-.864 1.161-.407.334-.911.582-1.511.742Zm5.665-2.868.068.464c.054.354.079.721.076 1.102 0 .383-.013.738-.039 1.067-.026.328-.048.587-.068.776l-.998.268-.026-.721a17.525 17.525 0 0 0-.062-1.017 9.856 9.856 0 0 0-.165-1.122l-.094-.466 1.308-.351Zm1.382-.808-.324-1.207 2.05-6.567 1.006-.27.46 1.718-.614.164-1.376 4.433.017.065 4.961-1.329.334 1.247-6.514 1.746Zm4.412.483-.515-1.922-.129-.544-1.584-5.914 1.431-.383 2.244 8.375-1.447.388Zm6.964-1.695c-.673.181-1.297.165-1.871-.046-.572-.215-1.074-.611-1.506-1.188-.43-.58-.768-1.327-1.012-2.24-.242-.914-.321-1.726-.236-2.436.086-.712.324-1.302.713-1.769.392-.467.924-.791 1.594-.971.671-.179 1.293-.165 1.866.044.573.209 1.074.601 1.503 1.175.432.574.769 1.317 1.013 2.227.246.916.326 1.734.241 2.452-.083.715-.321 1.307-.712 1.777-.388.47-.919.795-1.593.975Zm-.343-1.28c.524-.14.868-.508 1.032-1.105.167-.6.115-1.403-.154-2.409-.179-.665-.398-1.205-.658-1.621-.261-.415-.548-.703-.863-.864a1.334 1.334 0 0 0-.993-.107c-.521.14-.863.509-1.027 1.108-.164.597-.114 1.394.15 2.393.177.668.394 1.212.652 1.631.261.418.55.709.865.873.315.161.647.195.996.101Zm4.968-.13 1.673-8.005-.016-.057-4.134 1.108-.34-1.268 5.705-1.529.347 1.297-1.661 8.032-1.574.422Zm5.965-1.502a.906.906 0 0 1-.708-.091.879.879 0 0 1-.433-.568.872.872 0 0 1 .093-.7.907.907 0 0 1 .568-.432.89.89 0 0 1 .696.094.892.892 0 0 1 .434 1.045.98.98 0 0 1-.24.415.877.877 0 0 1-.41.237Zm2.897-9.972c.402-.105.81-.139 1.227-.101.418.034.821.165 1.21.394.388.227.741.575 1.06 1.045.319.469.58 1.086.785 1.849.196.719.292 1.383.288 1.992-.001.605-.093 1.141-.275 1.608a3.006 3.006 0 0 1-.795 1.169 3.084 3.084 0 0 1-1.28.671c-.529.142-1.026.164-1.49.067a2.74 2.74 0 0 1-1.214-.587 2.81 2.81 0 0 1-.793-1.111l1.493-.4c.165.312.392.535.679.668.289.13.613.147.973.051.581-.156.96-.528 1.139-1.116.178-.589.147-1.332-.093-2.229l-.057.016a2.25 2.25 0 0 1-.353.761 2.466 2.466 0 0 1-.618.59 2.636 2.636 0 0 1-.813.367 2.624 2.624 0 0 1-1.42.004 2.662 2.662 0 0 1-1.187-.717c-.335-.348-.575-.785-.719-1.311a2.977 2.977 0 0 1-.017-1.569c.137-.504.398-.942.783-1.314.385-.375.88-.641 1.487-.797Zm.333 1.225a1.581 1.581 0 0 0-1.14 1.161c-.069.278-.063.567.018.867.082.297.221.549.417.756.199.207.431.351.698.431.27.08.554.08.851 0a1.586 1.586 0 0 0 .988-.777c.104-.192.169-.395.196-.61.03-.215.015-.43-.046-.645a1.643 1.643 0 0 0-.417-.739 1.63 1.63 0 0 0-.708-.436 1.503 1.503 0 0 0-.857-.008Zm9.445 5.377c-.546.146-1.061.175-1.547.086a2.705 2.705 0 0 1-1.254-.576 2.332 2.332 0 0 1-.732-1.127l1.472-.395c.12.336.344.577.672.723.328.143.681.164 1.06.062.297-.079.543-.218.738-.417.196-.198.328-.437.396-.715.069-.278.06-.573-.026-.883a1.736 1.736 0 0 0-.426-.789 1.551 1.551 0 0 0-.715-.426 1.626 1.626 0 0 0-.875.006 2.022 2.022 0 0 0-.703.338 1.56 1.56 0 0 0-.476.531l-1.43.142-.72-4.436 4.859-1.302.34 1.268-3.603.965.353 2.285.049-.013c.107-.224.286-.434.537-.63.251-.199.545-.343.883-.434a2.64 2.64 0 0 1 2.658.726c.341.355.583.802.727 1.339.149.553.153 1.081.013 1.583a2.83 2.83 0 0 1-.787 1.303c-.384.366-.872.628-1.463.786Zm7.381-1.978c-.588.158-1.139.197-1.651.118a2.708 2.708 0 0 1-1.305-.553 2.262 2.262 0 0 1-.756-1.134l1.538-.412c.074.222.202.4.384.532.181.13.397.211.648.243s.517.011.798-.065c.3-.08.551-.203.755-.369.204-.168.346-.364.426-.587.08-.223.086-.457.018-.702a1.173 1.173 0 0 0-.376-.618 1.356 1.356 0 0 0-.702-.298c-.28-.042-.598-.016-.952.079l-.74.199-.314-1.17.74-.198c.292-.078.534-.197.725-.356.194-.161.329-.349.405-.565a1.13 1.13 0 0 0 .012-.691 1.154 1.154 0 0 0-.325-.575 1.118 1.118 0 0 0-.564-.292 1.553 1.553 0 0 0-.723.036 1.87 1.87 0 0 0-.674.33c-.194.151-.334.33-.422.538a1.04 1.04 0 0 0-.05.662l-1.46.391a2.197 2.197 0 0 1 .074-1.343c.166-.427.44-.799.823-1.115a3.571 3.571 0 0 1 1.387-.696c.559-.15 1.073-.175 1.541-.075.47.096.865.29 1.185.581.321.291.538.649.652 1.074.129.471.096.904-.099 1.298-.193.394-.502.7-.929.919l.018.066c.611-.076 1.121.021 1.529.292.411.266.685.662.822 1.186.126.469.105.925-.063 1.367-.166.439-.454.826-.864 1.161-.407.334-.911.582-1.511.742Zm4.465-1.319-.293-1.096 2.144-3.63c.203-.355.367-.666.494-.934s.21-.517.248-.746c.038-.229.026-.46-.037-.691a1.274 1.274 0 0 0-.361-.631 1.238 1.238 0 0 0-.614-.309 1.65 1.65 0 0 0-.757.036 1.532 1.532 0 0 0-.678.366c-.177.167-.295.37-.354.608-.056.237-.046.499.03.785l-1.443.387c-.143-.532-.145-1.027-.008-1.484.138-.458.39-.851.758-1.181.37-.33.832-.569 1.386-.717.561-.151 1.083-.178 1.564-.082.482.096.889.295 1.221.598.336.301.566.687.692 1.156.084.313.106.637.067.972-.039.335-.16.727-.364 1.176-.201.449-.503 1.007-.905 1.676l-1.051 1.855.016.057 3.648-.977.339 1.268-5.742 1.538Zm10.19-2.607c-.589.157-1.14.197-1.652.118a2.721 2.721 0 0 1-1.305-.553 2.265 2.265 0 0 1-.756-1.135l1.538-.412c.074.223.202.4.384.533.181.13.397.211.648.243s.517.01.798-.065c.3-.081.552-.204.756-.369.203-.169.345-.364.425-.588.081-.223.087-.457.018-.701a1.165 1.165 0 0 0-.376-.619 1.361 1.361 0 0 0-.702-.298c-.28-.042-.597-.015-.952.08l-.74.198-.313-1.17.74-.198c.292-.078.533-.197.724-.356.194-.16.329-.348.406-.565.075-.219.079-.449.012-.691a1.162 1.162 0 0 0-.325-.575 1.108 1.108 0 0 0-.565-.291 1.527 1.527 0 0 0-.723.036 1.853 1.853 0 0 0-.674.329 1.34 1.34 0 0 0-.421.538 1.05 1.05 0 0 0-.051.663l-1.46.391c-.114-.472-.09-.92.074-1.344.166-.427.441-.799.824-1.115.382-.318.844-.55 1.387-.696.559-.149 1.072-.174 1.54-.075.47.096.865.29 1.186.581.32.291.538.649.652 1.075.129.471.096.903-.1 1.297-.192.394-.502.7-.928.92l.017.065c.611-.076 1.121.021 1.529.292.411.267.685.662.823 1.187a2.18 2.18 0 0 1-.064 1.367c-.166.439-.454.826-.863 1.16-.408.335-.911.582-1.511.743Zm7.603-1.989c-.673.18-1.297.164-1.871-.047-.571-.215-1.073-.611-1.506-1.188-.43-.58-.767-1.327-1.012-2.24-.242-.914-.321-1.726-.236-2.435.087-.713.324-1.303.714-1.77.392-.467.923-.79 1.594-.97.67-.18 1.292-.165 1.866.043.573.209 1.074.601 1.502 1.176.432.574.77 1.316 1.014 2.227.245.916.325 1.733.24 2.451-.083.715-.32 1.308-.712 1.778-.388.469-.919.794-1.593.975Zm-.343-1.281c.524-.14.868-.508 1.033-1.105.166-.599.115-1.402-.155-2.408-.178-.666-.398-1.206-.658-1.621-.26-.416-.548-.704-.863-.865a1.332 1.332 0 0 0-.993-.106c-.52.139-.863.508-1.026 1.107-.165.597-.115 1.394.15 2.393.176.669.393 1.212.652 1.631.261.418.549.709.865.873.315.161.646.195.995.101Zm4.319-1.621-.324-1.207 2.05-6.567 1.006-.27.46 1.718-.613.164-1.377 4.433.017.065 4.961-1.329.334 1.247-6.514 1.746Zm4.412.483-.515-1.922-.129-.544-1.584-5.914 1.431-.383 2.244 8.375-1.447.388Zm7.84-2.1-1.62.433.704-9.165 1.874-.502 5.197 7.584-1.62.434-4.021-6.058-.065.017-.449 7.257Zm-.827-3.299 4.417-1.183.326 1.218-4.417 1.184-.326-1.219Zm8.085 1.354-2.245-8.376 3.141-.842c.644-.172 1.214-.205 1.71-.098.499.106.914.331 1.246.674.333.34.572.778.715 1.312.144.537.154 1.034.031 1.491a2.346 2.346 0 0 1-.757 1.18c-.385.331-.899.583-1.543.755l-2.237.6-.337-1.26 2.032-.545c.377-.1.671-.235.883-.403.211-.17.347-.372.408-.604a1.547 1.547 0 0 0-.026-.8 1.587 1.587 0 0 0-.38-.713 1.149 1.149 0 0 0-.665-.339c-.27-.048-.594-.021-.973.081l-1.391.372 1.905 7.108-1.517.407Zm3.31-4.955 3.09 3.24-1.693.453-3.054-3.249 1.657-.444Zm4.18 2.948-2.244-8.376 1.517-.407 1.031 3.849.102-.028 2.237-4.724 1.853-.496-2.232 4.626 4.504 3.742-1.824.489-3.46-2.921-.635 1.344.668 2.495-1.517.407Z" fill="#E8EBF6"/><path d="M366.714 234.233c-.468.126-.91.15-1.326.074a2.322 2.322 0 0 1-1.075-.494 1.993 1.993 0 0 1-.627-.966l1.262-.338c.102.288.294.494.575.619.281.123.584.141.909.054.254-.069.466-.188.633-.358.167-.17.28-.374.339-.613a1.48 1.48 0 0 0-.022-.757 1.49 1.49 0 0 0-.366-.676 1.321 1.321 0 0 0-.612-.365 1.385 1.385 0 0 0-.75.005 1.731 1.731 0 0 0-.603.289 1.36 1.36 0 0 0-.408.455l-1.226.122-.616-3.802 4.164-1.116.291 1.087-3.088.827.303 1.959.042-.011a1.54 1.54 0 0 1 .46-.54 2.04 2.04 0 0 1 .757-.372 2.261 2.261 0 0 1 2.278.622c.293.305.5.687.624 1.148.127.474.13.926.01 1.357a2.413 2.413 0 0 1-.674 1.116c-.329.314-.747.538-1.254.674Zm4.724-2.423.058.398c.046.303.068.618.065.944 0 .328-.011.633-.033.915-.022.281-.042.503-.059.665l-.855.229-.023-.617a14.6 14.6 0 0 0-.053-.872 8.356 8.356 0 0 0-.141-.962l-.081-.399 1.122-.301Zm2.107-7.312c.344-.09.694-.119 1.051-.087.359.03.704.142 1.038.339.332.194.635.492.908.895.273.402.498.931.673 1.585a6.39 6.39 0 0 1 .247 1.707c-.001.519-.08.979-.236 1.379a2.572 2.572 0 0 1-.682 1.001c-.299.268-.664.46-1.097.576-.453.122-.879.14-1.277.057a2.351 2.351 0 0 1-1.04-.503 2.398 2.398 0 0 1-.68-.953l1.28-.342c.141.267.335.458.581.573.248.111.526.125.835.043.498-.134.823-.452.976-.957.153-.504.126-1.141-.08-1.91l-.049.014c-.059.236-.16.453-.302.652-.143.196-.32.364-.53.506-.207.141-.44.246-.697.314-.42.113-.826.114-1.216.003a2.275 2.275 0 0 1-1.018-.614 2.55 2.55 0 0 1-.616-1.123 2.54 2.54 0 0 1-.015-1.345c.117-.432.341-.808.671-1.127.33-.321.755-.549 1.275-.683Zm.285 1.051c-.252.067-.464.19-.634.368a1.367 1.367 0 0 0-.343.626 1.47 1.47 0 0 0 .015.744c.071.254.19.47.358.648.17.177.37.3.598.369.232.068.475.068.729 0a1.35 1.35 0 0 0 .847-.666 1.5 1.5 0 0 0 .169-.523 1.349 1.349 0 0 0-.04-.553 1.414 1.414 0 0 0-.357-.633 1.399 1.399 0 0 0-.608-.374 1.289 1.289 0 0 0-.734-.006Zm8.264 4.605c-.578.154-1.112.141-1.604-.04-.49-.185-.921-.524-1.291-1.018-.369-.498-.658-1.138-.868-1.921-.207-.783-.275-1.479-.202-2.087.074-.611.278-1.117.612-1.517.336-.4.791-.677 1.366-.831.575-.155 1.108-.142 1.599.037.492.179.921.515 1.288 1.007.37.492.66 1.129.869 1.909.21.785.279 1.486.206 2.102-.071.612-.275 1.12-.61 1.523-.333.402-.788.681-1.365.836Zm-.294-1.098c.448-.12.743-.436.884-.947.143-.514.099-1.202-.132-2.065-.153-.57-.341-1.033-.564-1.389-.223-.356-.47-.603-.74-.741a1.143 1.143 0 0 0-.851-.091c-.446.119-.74.436-.88.949-.141.512-.098 1.195.129 2.051.151.573.337 1.039.558 1.398.224.359.471.608.742.748.27.139.554.167.854.087Zm5.184-8.054 1.923 7.179-1.3.349-1.585-5.914-.042.011-1.391 1.523-.32-1.192 1.477-1.624 1.238-.332Zm4.167 6.661a.778.778 0 0 1-.607-.078.75.75 0 0 1-.37-.487.741.741 0 0 1 .079-.6.78.78 0 0 1 .487-.371.764.764 0 0 1 .596.081.761.761 0 0 1 .372.896.839.839 0 0 1-.205.356.764.764 0 0 1-.352.203Zm2.484-8.548c.344-.09.694-.119 1.051-.087.358.03.704.142 1.037.339.333.194.636.492.909.895.273.402.497.931.673 1.585a6.43 6.43 0 0 1 .247 1.707c-.001.519-.08.979-.236 1.378a2.58 2.58 0 0 1-.682 1.002 2.64 2.64 0 0 1-1.097.576 2.74 2.74 0 0 1-1.277.057 2.346 2.346 0 0 1-1.72-1.456l1.279-.342c.142.267.336.458.582.573.248.111.526.125.835.043.497-.134.823-.452.976-.957.153-.504.126-1.141-.08-1.91l-.049.013c-.059.237-.16.454-.303.653a2.092 2.092 0 0 1-.529.506c-.208.141-.44.246-.697.314a2.246 2.246 0 0 1-1.217.003 2.272 2.272 0 0 1-1.017-.614 2.561 2.561 0 0 1-.617-1.123 2.55 2.55 0 0 1-.014-1.345c.117-.432.341-.808.671-1.127.33-.321.754-.549 1.275-.683Zm.285 1.051c-.253.067-.464.19-.634.368a1.367 1.367 0 0 0-.343.626 1.47 1.47 0 0 0 .015.744c.07.254.19.47.358.648.17.177.369.3.598.369.231.068.474.068.729 0a1.345 1.345 0 0 0 .847-.667 1.467 1.467 0 0 0 .129-1.075 1.424 1.424 0 0 0-.357-.633 1.404 1.404 0 0 0-.608-.374 1.289 1.289 0 0 0-.734-.006Zm8.095 4.608a3 3 0 0 1-1.325.074 2.322 2.322 0 0 1-1.075-.494 2.002 2.002 0 0 1-.628-.966l1.262-.339c.103.289.294.495.576.62.281.123.584.141.908.054.255-.069.466-.188.634-.358.167-.17.28-.374.339-.613a1.481 1.481 0 0 0-.023-.757 1.488 1.488 0 0 0-.365-.676 1.32 1.32 0 0 0-.613-.365 1.385 1.385 0 0 0-.75.005 1.735 1.735 0 0 0-.602.289 1.36 1.36 0 0 0-.408.455l-1.226.122-.617-3.802 4.165-1.116.291 1.087-3.088.827.303 1.959.042-.011c.091-.192.244-.373.46-.541.215-.17.467-.294.757-.371a2.259 2.259 0 0 1 2.278.622c.292.304.5.687.623 1.148.127.474.131.926.011 1.357a2.422 2.422 0 0 1-.674 1.116c-.329.314-.748.538-1.255.674Zm8.845-10.17 1.301-.348 1.257 4.69c.137.514.137.999-.001 1.454a2.561 2.561 0 0 1-.772 1.188c-.379.334-.86.58-1.444.736-.587.157-1.128.186-1.623.086a2.552 2.552 0 0 1-1.262-.643c-.345-.326-.587-.746-.724-1.26l-1.257-4.69 1.3-.348 1.228 4.581c.08.299.217.548.41.747.196.198.432.331.709.4.276.066.578.055.908-.033.329-.088.597-.23.802-.426.208-.198.346-.431.414-.7a1.67 1.67 0 0 0-.018-.852l-1.228-4.582Zm7.145.201a.992.992 0 0 0-.605-.604c-.287-.106-.623-.107-1.008-.004a1.85 1.85 0 0 0-.665.309 1.07 1.07 0 0 0-.356.453.838.838 0 0 0 .177.884.954.954 0 0 0 .359.204c.139.043.288.071.447.084.158.012.316.016.473.012l.718-.012a4.8 4.8 0 0 1 .85.046c.281.04.543.115.785.226.245.109.457.264.636.464s.31.456.393.767c.113.42.105.819-.025 1.197-.129.376-.374.708-.732.997-.357.286-.822.506-1.397.66-.559.149-1.067.193-1.525.13a2.238 2.238 0 0 1-1.163-.5c-.318-.27-.55-.641-.697-1.113l1.28-.343c.086.245.218.433.398.562.18.13.39.206.629.23a2.16 2.16 0 0 0 .769-.075c.283-.075.52-.184.71-.325.192-.144.328-.308.409-.493a.892.892 0 0 0 .041-.589.713.713 0 0 0-.289-.419 1.254 1.254 0 0 0-.535-.187 4.42 4.42 0 0 0-.733-.044l-.873.008c-.632.007-1.161-.098-1.587-.315-.425-.219-.706-.586-.844-1.1a1.917 1.917 0 0 1 .046-1.203c.146-.38.395-.711.745-.993a3.4 3.4 0 0 1 1.278-.628c.51-.136.98-.167 1.411-.092.432.072.8.235 1.104.489.303.252.512.58.627.982l-1.251.335Zm6.336 3.882-2.432.652-1.924-7.18 2.482-.665c.713-.191 1.363-.211 1.952-.061a2.99 2.99 0 0 1 1.515.913c.419.462.728 1.065.928 1.81.201.748.234 1.428.1 2.04a2.986 2.986 0 0 1-.864 1.558c-.442.426-1.027.737-1.757.933Zm-1.433-.822 1.069-.287c.5-.134.893-.337 1.178-.608.285-.275.462-.616.533-1.026.07-.412.031-.893-.116-1.442-.147-.549-.353-.982-.619-1.299a1.776 1.776 0 0 0-.965-.617c-.376-.095-.807-.077-1.293.053l-1.108.297 1.321 4.929Z" fill="#355594"/><rect x="206.337" y="244.553" width="35.769" height="35.769" rx="9.368" transform="rotate(-15 206.337 244.553)" stroke="#283C64" stroke-width="1.703"/><path fill-rule="evenodd" clip-rule="evenodd" d="m227.568 254.547-7.122 13.048 5.626-18.631 14.117 13.341-12.621-7.758Zm-2.253 8.726 1-2.3 5.46-1.463 2.016 1.492-8.476 2.271Zm1.113-3.342 1.632-3.436 3.1 2.168-4.732 1.268Z" fill="#0D7ED6"/><rect x="469.782" y="210.994" width="27.252" height="35.769" rx="7.665" transform="rotate(165 469.782 210.994)" fill="#171F34"/><rect x="469.782" y="210.994" width="27.252" height="35.769" rx="7.665" transform="rotate(165 469.782 210.994)" stroke="#355594" stroke-width="1.703" stroke-linejoin="round"/><g clip-path="url(#g)"><path d="m449.12 199.69 2.288-3.963c.06-.104.225-.149.329-.088l3.964 2.288" stroke="#E8EBF6" stroke-width="1.703" stroke-linecap="round" stroke-linejoin="round"/></g><rect x="219.322" y="293.771" width="263.695" height="124.801" rx="9.57" transform="rotate(-15 219.322 293.771)" fill="#283C64" stroke="#355594" stroke-width="1.311" stroke-dasharray="2.62 2.62"/><path fill="#101627" d="m145.026 124.322 308.48-82.657 28.654 106.94-308.48 82.657z"/><path d="m175.991 133.578 1.713-.46 3.042 3.157.082-.022 1.056-4.254 1.714-.46-1.64 6.068.837 3.124-1.513.406-.837-3.125-4.454-4.434Zm12.463 5.769c-.613.164-1.181.171-1.703.022a2.848 2.848 0 0 1-1.351-.852c-.375-.42-.65-.954-.824-1.603-.173-.649-.203-1.25-.088-1.804a2.833 2.833 0 0 1 .742-1.417c.377-.391.873-.668 1.486-.833.614-.164 1.182-.172 1.704-.022a2.81 2.81 0 0 1 1.347.857c.379.422.656.957.83 1.606.173.649.201 1.249.083 1.801a2.817 2.817 0 0 1-.739 1.412c-.378.391-.873.668-1.487.833Zm-.309-1.189c.332-.089.586-.255.761-.497a1.71 1.71 0 0 0 .299-.878 3.155 3.155 0 0 0-.11-1.084 3.182 3.182 0 0 0-.448-.998 1.715 1.715 0 0 0-.699-.615c-.273-.125-.576-.143-.909-.054-.341.091-.599.26-.776.506a1.74 1.74 0 0 0-.303.883c-.025.34.013.702.116 1.087.103.382.25.713.442.995.195.281.429.484.703.609.275.122.583.138.924.046Zm7.839-3.792-.975-3.64 1.48-.397 1.683 6.282-1.435.385-.299-1.117-.066.018c-.047.39-.203.74-.468 1.05-.262.31-.628.528-1.1.654a2.21 2.21 0 0 1-1.165.019 1.964 1.964 0 0 1-.952-.608c-.273-.307-.476-.712-.61-1.213l-1.072-4 1.48-.397 1.011 3.771c.106.398.3.685.581.861.281.176.599.217.953.122.218-.059.415-.169.591-.33s.302-.364.376-.609c.077-.248.072-.532-.013-.851Zm3.711 1.837-1.683-6.282 1.435-.384.281 1.047.065-.018a1.623 1.623 0 0 1 1.245-1.552c.082-.022.175-.042.278-.061.105-.022.193-.036.265-.041l.365 1.362a1.632 1.632 0 0 0-.314.023 2.806 2.806 0 0 0-.396.076c-.27.072-.497.195-.681.37a1.335 1.335 0 0 0-.375.614c-.068.237-.066.489.006.757l.989 3.693-1.48.396Zm7.488-2.006-2.244-8.376 3.206-.859c.605-.162 1.134-.202 1.586-.118.454.08.824.257 1.111.531.289.273.489.617.601 1.031.091.341.104.65.038.928-.067.275-.19.517-.371.726a2.312 2.312 0 0 1-.654.521l.022.082c.302-.063.611-.048.928.045.319.09.607.261.861.515.255.253.44.592.554 1.017.116.434.115.852-.002 1.254-.118.4-.361.756-.731 1.068-.369.313-.874.555-1.515.726l-3.39.909Zm1.178-1.675 1.631-.437c.551-.147.92-.359 1.106-.634.189-.278.238-.584.149-.916a1.3 1.3 0 0 0-1.014-.956 1.809 1.809 0 0 0-.857.041l-1.673.449.658 2.453Zm-.95-3.545 1.5-.403c.262-.07.485-.181.67-.332a1.25 1.25 0 0 0 .384-.546c.074-.213.079-.442.013-.687a1.077 1.077 0 0 0-.558-.71c-.283-.149-.648-.164-1.095-.044l-1.534.411.62 2.311Zm9.117 2.852a2.726 2.726 0 0 1-1.132.075 1.823 1.823 0 0 1-.924-.436c-.258-.232-.442-.554-.552-.966-.095-.354-.108-.665-.039-.931a1.56 1.56 0 0 1 .386-.7c.189-.2.416-.373.681-.52.266-.15.548-.283.844-.397.358-.137.648-.251.869-.343.22-.094.373-.187.459-.28.088-.097.113-.216.075-.358l-.006-.025c-.083-.308-.238-.522-.466-.642-.228-.12-.514-.134-.857-.042-.363.097-.629.253-.8.468-.167.215-.259.44-.275.675l-1.435.174c.007-.411.101-.778.284-1.102.181-.326.436-.602.764-.827a3.66 3.66 0 0 1 1.15-.519c.303-.081.613-.126.932-.135.319-.01.625.034.916.131.292.094.55.26.774.498.227.238.397.565.508.982l1.127 4.204-1.423.381-.231-.862-.05.013a1.877 1.877 0 0 1-.248.592 1.917 1.917 0 0 1-.512.528 2.559 2.559 0 0 1-.819.364Zm.093-1.191a1.68 1.68 0 0 0 .726-.383c.186-.179.311-.382.376-.609.067-.229.07-.459.008-.691l-.199-.74a.713.713 0 0 1-.208.17 3.62 3.62 0 0 1-.345.184c-.13.062-.259.119-.388.174l-.334.143a2.684 2.684 0 0 0-.554.306 1.02 1.02 0 0 0-.336.397.717.717 0 0 0-.026.506c.073.273.227.452.464.538.236.086.508.087.816.005Zm3.915-8.996 2.244 8.376-1.48.396-2.245-8.375 1.481-.397Zm5.608 7.61a2.71 2.71 0 0 1-1.132.076 1.824 1.824 0 0 1-.924-.437c-.258-.232-.442-.553-.552-.965-.095-.355-.108-.665-.04-.932.069-.267.198-.5.387-.7.189-.199.416-.373.681-.52.266-.15.548-.282.844-.397.358-.137.648-.251.869-.342.22-.094.373-.188.459-.281.088-.097.113-.216.075-.358l-.006-.024c-.083-.308-.238-.522-.466-.643-.228-.12-.514-.134-.857-.042-.363.098-.63.254-.8.469a1.222 1.222 0 0 0-.275.674l-1.435.174c.007-.411.101-.778.283-1.101.182-.327.437-.602.765-.828a3.636 3.636 0 0 1 1.15-.518c.302-.081.613-.127.932-.136.319-.01.624.034.916.131.292.095.549.261.774.499.227.237.397.564.508.981l1.127 4.205-1.423.381-.232-.863-.049.013a1.882 1.882 0 0 1-.248.593 1.9 1.9 0 0 1-.512.527 2.559 2.559 0 0 1-.819.364Zm.093-1.191a1.66 1.66 0 0 0 .726-.383c.186-.178.311-.381.376-.609.067-.228.07-.459.008-.69l-.199-.741a.697.697 0 0 1-.208.17 3.614 3.614 0 0 1-.345.185 11.9 11.9 0 0 1-.388.174l-.334.142a2.658 2.658 0 0 0-.554.306 1.02 1.02 0 0 0-.336.397.724.724 0 0 0-.027.507c.074.273.228.452.464.537.237.086.509.088.817.005Zm5.173-4.301.986 3.681-1.48.397-1.684-6.282 1.415-.379.286 1.067.074-.02c.05-.39.206-.731.467-1.023.263-.293.629-.502 1.098-.628.434-.116.836-.124 1.208-.025.374.098.696.3.968.604.274.303.477.706.609 1.209l1.071 3.999-1.48.397-1.01-3.771c-.113-.419-.31-.719-.592-.897-.279-.18-.609-.219-.991-.116a1.416 1.416 0 0 0-.645.357 1.236 1.236 0 0 0-.34.612c-.054.243-.041.516.04.818Zm9.296 1.586c-.627.168-1.202.174-1.726.019a2.852 2.852 0 0 1-1.34-.863c-.371-.424-.641-.954-.811-1.589-.171-.638-.2-1.234-.085-1.787a2.848 2.848 0 0 1 .732-1.424c.376-.396.871-.676 1.484-.84.51-.137.987-.164 1.43-.081.445.08.83.258 1.156.536.325.276.564.635.718 1.079l-1.415.379a1.4 1.4 0 0 0-.611-.647c-.268-.147-.58-.173-.937-.078a1.381 1.381 0 0 0-.732.459 1.629 1.629 0 0 0-.349.839c-.045.336-.01.716.103 1.138.115.429.276.78.484 1.054.207.272.446.461.717.566.273.103.563.113.871.03.219-.058.403-.152.552-.279.152-.132.266-.292.34-.482.075-.189.104-.403.087-.641l1.415-.379c.084.454.059.883-.076 1.287a2.408 2.408 0 0 1-.709 1.049c-.339.296-.771.514-1.298.655Zm6.688-1.792c-.63.169-1.209.183-1.737.044a2.75 2.75 0 0 1-1.351-.839c-.376-.419-.651-.957-.827-1.615-.174-.646-.203-1.246-.088-1.799.116-.558.36-1.032.732-1.424.37-.394.856-.672 1.455-.833a3.29 3.29 0 0 1 1.147-.105c.379.03.736.139 1.069.327.337.187.635.461.895.821.26.357.463.811.611 1.362l.121.454-5.149 1.379-.267-.998 3.73-.999a1.647 1.647 0 0 0-.387-.707 1.38 1.38 0 0 0-.644-.393 1.466 1.466 0 0 0-.796.007 1.485 1.485 0 0 0-.738.435 1.572 1.572 0 0 0-.383.716c-.062.268-.057.543.015.824l.234.871c.097.366.248.661.452.887.203.223.443.372.72.447.277.072.576.065.898-.021a1.85 1.85 0 0 0 .56-.247c.158-.109.285-.241.381-.395.096-.155.153-.329.171-.524l1.424-.215c.01.389-.071.752-.243 1.091-.17.335-.425.628-.764.879a3.693 3.693 0 0 1-1.241.57Z" fill="#355594"/><path d="M188.072 162.535c-.673.18-1.302.225-1.888.135-.582-.091-1.079-.302-1.491-.632a2.58 2.58 0 0 1-.864-1.297l1.758-.471c.084.255.231.458.438.609.207.149.454.241.741.278.287.036.591.012.912-.074.343-.092.63-.233.864-.422.232-.193.394-.416.486-.671a1.29 1.29 0 0 0 .021-.802 1.338 1.338 0 0 0-.43-.707 1.558 1.558 0 0 0-.803-.341c-.32-.048-.683-.017-1.088.091l-.846.227-.358-1.337.846-.227c.334-.089.609-.225.828-.407.221-.183.376-.398.463-.645.087-.25.091-.513.014-.79a1.324 1.324 0 0 0-.371-.657 1.274 1.274 0 0 0-.646-.333 1.764 1.764 0 0 0-.825.041 2.12 2.12 0 0 0-.771.377 1.537 1.537 0 0 0-.482.615c-.1.234-.12.486-.057.757l-1.669.447a2.513 2.513 0 0 1 .085-1.536c.189-.488.503-.913.941-1.274.436-.364.965-.629 1.585-.795.639-.172 1.226-.2 1.76-.086.537.11.989.331 1.355.663.367.333.615.743.745 1.229.148.538.11 1.032-.113 1.483-.22.45-.574.8-1.061 1.051l.02.074c.698-.087 1.28.025 1.747.334.469.305.783.757.94 1.356a2.488 2.488 0 0 1-.073 1.562c-.189.502-.518.944-.987 1.327-.465.382-1.041.664-1.726.848Zm4.454-3.237-.37-1.379 2.343-7.506 1.149-.308.526 1.963-.701.188-1.573 5.066.02.074 5.669-1.519.382 1.426-7.445 1.995Zm5.042.552-.588-2.196-.147-.622-1.811-6.759 1.636-.438 2.565 9.572-1.655.443Zm5.757-2.945.077.53c.062.405.091.824.087 1.26 0 .437-.014.843-.044 1.219-.03.375-.056.671-.078.887l-1.14.306-.03-.824c-.01-.348-.034-.735-.072-1.163a11.1 11.1 0 0 0-.188-1.282l-.107-.532 1.495-.401Zm2.227.806-.335-1.253 2.45-4.148c.232-.406.42-.762.565-1.068.146-.306.24-.59.283-.852a1.86 1.86 0 0 0-.041-.791 1.459 1.459 0 0 0-.414-.72 1.408 1.408 0 0 0-.701-.354 1.886 1.886 0 0 0-.865.042 1.734 1.734 0 0 0-.775.418 1.394 1.394 0 0 0-.405.694c-.064.271-.053.571.035.898l-1.65.442c-.163-.608-.165-1.173-.008-1.696.157-.523.445-.973.865-1.349.424-.377.952-.651 1.584-.82.642-.172 1.238-.203 1.789-.094.55.11 1.015.338 1.395.683.383.345.646.786.79 1.322.096.358.122.728.077 1.111-.044.383-.183.831-.416 1.344-.23.512-.575 1.151-1.035 1.915l-1.2 2.12.017.066 4.169-1.117.389 1.449-6.563 1.758Zm11.538-2.951c-.623.167-1.212.199-1.767.097a3.086 3.086 0 0 1-1.434-.657 2.667 2.667 0 0 1-.836-1.289l1.683-.451c.136.384.392.66.767.826.374.164.778.188 1.211.072.34-.092.621-.25.845-.477a1.74 1.74 0 0 0 .452-.818 1.974 1.974 0 0 0-.03-1.009 1.985 1.985 0 0 0-.487-.901 1.766 1.766 0 0 0-.817-.487 1.847 1.847 0 0 0-1 .007 2.302 2.302 0 0 0-.803.386c-.248.183-.43.385-.544.606l-1.635.163-.822-5.07 5.552-1.488.389 1.449-4.118 1.103.404 2.612.056-.015c.122-.256.326-.496.614-.72a2.74 2.74 0 0 1 1.009-.496 3.017 3.017 0 0 1 3.038.829c.389.407.666.917.831 1.531.169.632.174 1.236.014 1.809a3.228 3.228 0 0 1-.899 1.489c-.439.418-.997.718-1.673.899Zm8.437-2.261c-.673.18-1.303.226-1.888.135-.582-.091-1.079-.302-1.492-.632-.412-.33-.7-.763-.863-1.297l1.757-.47c.085.254.231.457.439.608.207.149.453.241.74.278.287.036.591.012.912-.074.343-.092.631-.233.864-.422a1.55 1.55 0 0 0 .487-.671 1.29 1.29 0 0 0 .02-.802 1.336 1.336 0 0 0-.43-.707 1.555 1.555 0 0 0-.802-.341c-.32-.048-.683-.017-1.088.091l-.846.227-.358-1.337.846-.226c.333-.09.609-.225.828-.408.221-.183.375-.398.463-.645.086-.25.091-.513.014-.79a1.325 1.325 0 0 0-.372-.657 1.275 1.275 0 0 0-.645-.333 1.768 1.768 0 0 0-.826.041c-.293.079-.55.204-.77.377a1.535 1.535 0 0 0-.482.615c-.101.234-.12.486-.058.757l-1.668.447a2.52 2.52 0 0 1 .084-1.536 3.1 3.1 0 0 1 .941-1.274c.437-.364.966-.629 1.586-.795.638-.171 1.225-.2 1.76-.086.537.11.989.331 1.355.664.366.332.615.742.745 1.228.148.538.11 1.032-.114 1.483-.22.45-.573.8-1.061 1.051l.02.074c.699-.086 1.281.025 1.748.334.469.305.782.757.939 1.356.144.536.12 1.057-.072 1.562-.189.502-.518.944-.987 1.327-.465.382-1.041.664-1.726.848Zm5.908-1.613a1.038 1.038 0 0 1-.809-.104 1.003 1.003 0 0 1-.495-.649.99.99 0 0 1 .107-.8c.149-.253.365-.418.649-.494.274-.074.539-.038.795.107a1.02 1.02 0 0 1 .495 1.195 1.108 1.108 0 0 1-.273.474 1.011 1.011 0 0 1-.469.271Zm2.771-.853 1.912-9.148-.018-.066-4.725 1.266-.388-1.449 6.52-1.747.397 1.482-1.898 9.18-1.8.482Zm10.609-2.702c-.623.167-1.213.199-1.767.098a3.087 3.087 0 0 1-1.434-.658 2.66 2.66 0 0 1-.836-1.289l1.682-.451c.137.384.392.66.768.827.374.163.778.187 1.211.071.34-.091.621-.25.844-.477.223-.227.374-.499.452-.817a1.962 1.962 0 0 0-.029-1.009 1.985 1.985 0 0 0-.488-.902 1.763 1.763 0 0 0-.816-.487 1.847 1.847 0 0 0-1 .007 2.298 2.298 0 0 0-.804.386 1.796 1.796 0 0 0-.544.606l-1.634.163-.823-5.07 5.553-1.488.388 1.449-4.117 1.104.404 2.611.056-.015c.122-.256.326-.496.613-.72a2.76 2.76 0 0 1 1.01-.496 3.047 3.047 0 0 1 1.662-.004c.527.149.986.427 1.375.833.39.407.667.917.831 1.531.17.633.174 1.236.014 1.81a3.212 3.212 0 0 1-.899 1.488c-.439.418-.996.718-1.672.899Zm11.793-13.56 1.734-.465 1.676 6.254c.184.686.183 1.332-.001 1.939a3.403 3.403 0 0 1-1.029 1.583c-.505.446-1.147.774-1.926.982-.782.21-1.503.248-2.164.114a3.395 3.395 0 0 1-1.682-.857c-.46-.434-.782-.994-.966-1.679l-1.676-6.254 1.734-.465 1.637 6.109c.107.399.289.731.547.996.261.264.576.441.945.533.367.089.771.074 1.21-.044.44-.117.796-.307 1.071-.567.276-.265.46-.576.551-.934a2.218 2.218 0 0 0-.024-1.136l-1.637-6.109Zm9.526.268a1.321 1.321 0 0 0-.807-.806c-.382-.141-.83-.143-1.344-.005-.361.097-.657.234-.886.413-.23.178-.388.379-.475.603a1.11 1.11 0 0 0-.038.696c.053.2.144.361.274.483.133.121.292.212.479.272.185.057.384.094.596.111.211.017.421.022.63.017l.958-.017c.384-.012.762.008 1.133.062.375.053.724.154 1.048.301.326.146.609.353.847.619.239.267.413.608.524 1.022.151.561.14 1.093-.033 1.597-.173.501-.498.943-.976 1.329-.476.381-1.097.674-1.863.88-.745.199-1.423.257-2.033.173-.607-.084-1.124-.306-1.551-.666-.424-.361-.733-.855-.929-1.484l1.706-.458c.115.327.292.577.532.75.24.173.519.275.838.306.322.031.664-.002 1.026-.099.377-.101.692-.246.945-.434.256-.192.438-.411.546-.657.107-.249.125-.511.055-.786a.947.947 0 0 0-.385-.558 1.671 1.671 0 0 0-.714-.25 6.037 6.037 0 0 0-.977-.059l-1.164.012c-.843.008-1.548-.132-2.117-.42-.566-.293-.94-.782-1.124-1.467-.151-.564-.131-1.099.061-1.605.195-.506.526-.947.993-1.323.466-.379 1.034-.658 1.704-.837.68-.182 1.306-.223 1.881-.123.577.096 1.067.313 1.472.652.404.336.683.772.837 1.309l-1.669.447Zm8.449 5.175-3.244.869-2.565-9.572 3.31-.887c.95-.254 1.818-.281 2.603-.081.787.197 1.46.602 2.019 1.217.559.615.972 1.42 1.238 2.414.267.997.311 1.904.133 2.72a3.987 3.987 0 0 1-1.152 2.077c-.589.568-1.37.983-2.342 1.243Zm-1.912-1.096 1.426-.382c.667-.178 1.19-.449 1.571-.811a2.42 2.42 0 0 0 .71-1.368c.094-.549.042-1.19-.154-1.922s-.471-1.31-.825-1.733a2.377 2.377 0 0 0-1.287-.822c-.502-.126-1.076-.103-1.725.071l-1.476.396 1.76 6.571Z" fill="#E8EBF6"/><path d="m335.714 99.757-1.619.434.704-9.166 1.873-.502 5.197 7.585-1.619.434-4.021-6.059-.066.018-.449 7.256Zm-.827-3.298 4.417-1.184.327 1.22-4.417 1.183-.327-1.22Zm11.645-4.554-1.31.51a1.133 1.133 0 0 0-.303-.332 1.031 1.031 0 0 0-.454-.19 1.422 1.422 0 0 0-.611.046c-.308.083-.549.219-.723.409-.171.189-.227.39-.168.601a.565.565 0 0 0 .32.392c.17.078.424.11.763.098l1.133-.058c.629-.03 1.125.054 1.488.255.366.2.611.524.734.973.104.396.081.776-.067 1.14-.146.36-.398.68-.756.957-.358.277-.799.486-1.322.626-.769.206-1.431.211-1.986.015a2.01 2.01 0 0 1-1.202-1.13l1.407-.525c.141.266.338.443.589.53.251.088.548.086.888-.005.352-.095.615-.242.789-.444.176-.202.236-.41.179-.622a.576.576 0 0 0-.328-.39c-.167-.08-.404-.114-.71-.1l-1.132.063c-.636.036-1.138-.056-1.507-.276-.369-.222-.614-.563-.734-1.021a1.674 1.674 0 0 1 .045-1.09c.139-.345.378-.646.718-.903.343-.261.764-.46 1.266-.594.736-.197 1.358-.195 1.864.005.51.2.886.553 1.13 1.06Zm6.321-1.693-1.31.508a1.123 1.123 0 0 0-.304-.33 1.025 1.025 0 0 0-.454-.19 1.418 1.418 0 0 0-.61.045c-.308.083-.549.22-.723.409-.172.19-.228.39-.168.602a.562.562 0 0 0 .32.392c.17.077.424.11.763.098l1.132-.058c.629-.031 1.125.053 1.489.254.366.2.611.525.734.974a1.77 1.77 0 0 1-.067 1.14c-.146.36-.398.68-.756.956-.358.277-.799.486-1.323.626-.769.206-1.431.211-1.986.015a2.008 2.008 0 0 1-1.201-1.129l1.406-.526c.142.266.338.443.59.53.251.088.547.086.888-.005.352-.094.614-.242.788-.444.177-.202.237-.41.18-.622a.578.578 0 0 0-.328-.39c-.168-.08-.405-.113-.71-.099l-1.132.062c-.636.037-1.139-.055-1.507-.275-.37-.223-.614-.563-.734-1.022a1.661 1.661 0 0 1 .045-1.09c.139-.344.378-.645.718-.903.342-.261.764-.459 1.266-.593.736-.198 1.357-.196 1.864.004.509.2.886.553 1.13 1.06Zm5.408 3.635c-.63.169-1.209.184-1.737.045a2.75 2.75 0 0 1-1.351-.84c-.376-.419-.652-.957-.828-1.614-.173-.646-.202-1.246-.088-1.8a2.888 2.888 0 0 1 .732-1.423c.371-.395.856-.672 1.456-.833a3.284 3.284 0 0 1 1.147-.106c.379.03.735.14 1.069.327.337.188.635.461.895.821.259.357.463.811.61 1.362l.122.454-5.149 1.38-.267-.998 3.73-1a1.654 1.654 0 0 0-.387-.707 1.387 1.387 0 0 0-.645-.393 1.462 1.462 0 0 0-.795.008 1.496 1.496 0 0 0-.739.434c-.19.206-.317.445-.382.716-.063.268-.058.543.015.825l.233.87c.098.366.249.662.453.888.203.223.443.372.72.447.276.072.576.065.897-.021.216-.058.403-.14.561-.247.158-.11.284-.241.38-.396.096-.154.153-.329.171-.523l1.424-.215a2.23 2.23 0 0 1-.242 1.09c-.17.335-.425.629-.764.88a3.694 3.694 0 0 1-1.241.57Zm5.466-8.329.307 1.145-3.611.968-.307-1.145 3.611-.968Zm-3.123-.776 1.481-.397 1.58 5.898c.053.199.124.343.213.434.09.086.191.135.302.146a.98.98 0 0 0 .351-.032c.092-.025.175-.054.248-.088.075-.035.132-.064.17-.085l.56 1.09a3.382 3.382 0 0 1-.316.18 2.89 2.89 0 0 1-.516.2c-.368.11-.717.145-1.047.101a1.61 1.61 0 0 1-.863-.39c-.242-.216-.414-.521-.517-.914l-1.646-6.143Zm9.681.799-1.31.508a1.133 1.133 0 0 0-.303-.33 1.031 1.031 0 0 0-.454-.19 1.424 1.424 0 0 0-.611.045c-.308.083-.549.22-.723.409-.171.19-.227.39-.168.602a.565.565 0 0 0 .32.392c.17.077.424.11.763.098l1.133-.058c.629-.031 1.125.053 1.488.254.366.2.611.525.734.974.104.396.081.776-.067 1.14-.146.36-.398.68-.756.956-.358.277-.799.486-1.322.626-.769.206-1.431.211-1.986.015a2.01 2.01 0 0 1-1.202-1.129l1.407-.526c.141.266.338.443.589.53.251.088.547.086.888-.005.352-.094.615-.242.789-.444.176-.202.236-.41.179-.622a.576.576 0 0 0-.328-.39c-.167-.08-.404-.114-.71-.099l-1.132.062c-.636.037-1.138-.055-1.507-.275-.369-.223-.614-.563-.734-1.022a1.667 1.667 0 0 1 .045-1.09c.139-.344.378-.645.718-.903.342-.261.764-.459 1.266-.593.736-.198 1.358-.196 1.864.004.509.2.886.553 1.13 1.06Z" fill="#355594"/><path d="m367.396 112.442-.37-1.379 2.342-7.506 1.15-.308.526 1.963-.701.188-1.573 5.065.02.075 5.669-1.519.382 1.426-7.445 1.995Zm5.042.552-.589-2.197-.146-.622-1.811-6.758 1.636-.438 2.565 9.572-1.655.443Z" fill="#A4B1BC"/><path fill="#283C64" d="m381.352 75.105.823-.22 10.14 37.84-.824.22z"/><path d="m400.402 81.389-3.95-6.636 1.399-.375 2.707 4.929.067-.018-.033-5.646 1.273-.34 2.799 4.907.063-.016-.121-5.626 1.399-.375-.103 7.722-1.283.344-2.787-4.652-.056.015-.091 5.423-1.283.344Zm9.401-2.403a2.326 2.326 0 0 1-.971.065 1.555 1.555 0 0 1-.791-.374c-.221-.199-.379-.475-.474-.828-.081-.303-.092-.57-.033-.798.059-.229.169-.429.331-.6a2.41 2.41 0 0 1 .583-.446c.229-.128.47-.242.724-.34.307-.117.555-.215.745-.294.188-.08.32-.16.393-.24.076-.083.097-.185.065-.307l-.006-.02c-.071-.265-.204-.448-.399-.551-.196-.103-.44-.115-.735-.036-.311.083-.539.217-.685.401a1.045 1.045 0 0 0-.236.578l-1.23.15c.006-.353.087-.668.243-.945.156-.28.374-.516.655-.71a3.13 3.13 0 0 1 .986-.444c.259-.069.526-.108.799-.116.273-.008.535.03.785.113.25.08.471.223.663.427.195.203.34.484.436.841l.966 3.604-1.22.327-.198-.74-.042.011a1.585 1.585 0 0 1-.652.96 2.195 2.195 0 0 1-.702.312Zm.08-1.02c.254-.069.462-.178.622-.329.159-.153.267-.327.322-.522.058-.196.06-.393.007-.592l-.17-.634a.623.623 0 0 1-.179.145 3.002 3.002 0 0 1-.296.159c-.111.052-.222.102-.332.149l-.287.122c-.182.076-.34.164-.474.262a.87.87 0 0 0-.288.34.62.62 0 0 0-.023.435c.063.233.195.387.398.46.202.074.436.075.7.005Zm3.355-7.711 1.924 7.179-1.269.34-1.924-7.18 1.269-.34Zm2.574-.69 1.924 7.18-1.269.34-1.924-7.18 1.269-.34Zm5.64 6.296c-.539.145-1.036.157-1.488.038a2.365 2.365 0 0 1-1.159-.719c-.321-.36-.558-.82-.709-1.384-.148-.554-.173-1.068-.075-1.543.1-.478.309-.884.627-1.22.318-.338.734-.576 1.248-.714.332-.089.66-.119.983-.09.325.025.63.119.917.28.288.16.544.395.767.704.222.306.396.695.523 1.167l.104.39-4.413 1.182-.229-.856 3.197-.856a1.414 1.414 0 0 0-.332-.606 1.186 1.186 0 0 0-.552-.337 1.255 1.255 0 0 0-.682.006c-.26.07-.471.194-.633.373a1.349 1.349 0 0 0-.328.613 1.46 1.46 0 0 0 .013.707l.2.747c.084.313.213.566.388.76.174.191.379.319.617.383.237.062.493.056.769-.018.185-.05.345-.12.481-.212a1.15 1.15 0 0 0 .326-.339c.082-.132.131-.282.146-.448l1.221-.185a1.91 1.91 0 0 1-.208.935 2.154 2.154 0 0 1-.655.754 3.163 3.163 0 0 1-1.064.488Zm4.686-7.14.263.982-3.095.83-.263-.982 3.095-.83Zm-2.677-.665 1.269-.34 1.355 5.055c.045.17.106.295.182.372a.432.432 0 0 0 .259.126c.095.01.196 0 .301-.028a1.767 1.767 0 0 0 .358-.149l.48.935a2.478 2.478 0 0 1-.713.326 2.139 2.139 0 0 1-.897.087 1.38 1.38 0 0 1-.74-.335c-.208-.185-.355-.446-.443-.783l-1.411-5.266Zm8.298.685-1.123.436a.966.966 0 0 0-.26-.283.884.884 0 0 0-.389-.163 1.215 1.215 0 0 0-.523.039c-.264.07-.471.188-.62.35-.147.162-.195.334-.144.516.04.157.131.27.274.336.146.066.364.094.654.084l.971-.05c.539-.026.964.046 1.276.218.314.172.523.45.629.835.089.34.069.665-.057.977a1.98 1.98 0 0 1-.649.82 3.164 3.164 0 0 1-1.133.537c-.659.176-1.227.18-1.702.012a1.721 1.721 0 0 1-1.03-.967l1.205-.451c.122.228.29.38.505.454.216.075.47.074.762-.004.301-.081.527-.208.676-.38.151-.174.202-.352.154-.534a.496.496 0 0 0-.282-.334c-.143-.07-.346-.098-.608-.085l-.97.053c-.546.031-.976-.048-1.292-.236-.317-.19-.527-.483-.63-.876a1.431 1.431 0 0 1 .039-.935c.119-.294.324-.552.616-.773a3.08 3.08 0 0 1 1.085-.509c.631-.169 1.163-.168 1.597.004.437.171.76.474.969.91Z" fill="#355594"/><path d="m424.488 88.788 2.565 9.572-1.734.465-2.113-7.885-.056.015-1.856 2.03-.425-1.59 1.969-2.165 1.65-.442Zm8.466 8.131c-.673.18-1.303.226-1.888.135-.582-.09-1.079-.302-1.492-.632-.412-.33-.7-.762-.863-1.296l1.757-.471c.085.254.231.457.439.608.207.149.454.241.741.278.287.037.591.012.911-.074a2.29 2.29 0 0 0 .864-.422c.233-.192.395-.416.487-.671a1.29 1.29 0 0 0 .02-.802 1.333 1.333 0 0 0-.43-.707 1.549 1.549 0 0 0-.802-.34c-.32-.049-.683-.018-1.088.09l-.846.227-.358-1.337.846-.226c.333-.09.609-.225.828-.407.221-.183.376-.398.463-.646.086-.25.091-.513.014-.79a1.325 1.325 0 0 0-.372-.657 1.276 1.276 0 0 0-.645-.333 1.766 1.766 0 0 0-.826.041 2.128 2.128 0 0 0-.77.377 1.532 1.532 0 0 0-.482.615c-.101.234-.12.486-.058.757l-1.668.447a2.519 2.519 0 0 1 .084-1.536 3.1 3.1 0 0 1 .941-1.274c.437-.364.966-.63 1.586-.795.638-.171 1.225-.2 1.76-.086.537.11.989.331 1.355.664.366.332.615.742.745 1.228.148.538.11 1.032-.114 1.483-.22.45-.573.8-1.061 1.05l.021.076c.698-.087 1.28.024 1.747.333.469.305.782.757.939 1.356.144.536.12 1.057-.072 1.562-.189.502-.518.944-.987 1.327-.465.382-1.041.665-1.726.848Z" fill="#A4B1BC"/><path fill="#289548" d="m188.322 180.61 150.539-40.337 1.763 6.581-150.539 40.337z"/><path fill="#FC9F0F" d="m338.86 140.273 47.712-12.784 1.763 6.58-47.712 12.785z"/><path fill="#539BF5" d="m386.572 127.489 33.727-9.037 1.764 6.58-33.728 9.038z"/><path fill="#DE5846" d="m420.298 118.451 23.855-6.392 1.764 6.58-23.856 6.393z"/><path d="m287.373 175.148 1.857-.497 4.112 5.403.099-.027.86-6.735 1.857-.497 2.244 8.375-1.456.39-1.542-5.754-.078.021-.779 6.35-1.088.291-3.853-5.121-.078.02 1.545 5.767-1.456.39-2.244-8.376Zm15.389 4.986c-.614.164-1.182.171-1.704.022a2.84 2.84 0 0 1-1.35-.852c-.376-.42-.65-.954-.824-1.603-.174-.649-.204-1.25-.089-1.804a2.843 2.843 0 0 1 .742-1.418c.378-.39.873-.667 1.487-.832.613-.164 1.181-.172 1.703-.022.522.149.972.435 1.348.857.379.422.655.957.829 1.606.174.649.202 1.249.084 1.801a2.818 2.818 0 0 1-.74 1.412c-.377.391-.873.668-1.486.833Zm-.31-1.189c.333-.089.586-.255.761-.497.174-.246.274-.538.299-.878a3.155 3.155 0 0 0-.11-1.084 3.18 3.18 0 0 0-.447-.998 1.718 1.718 0 0 0-.7-.615c-.273-.125-.576-.143-.909-.054-.34.091-.599.26-.776.506-.174.245-.274.54-.302.883-.026.34.013.702.116 1.087.102.381.249.713.442.995.195.281.429.484.702.609.275.122.583.138.924.046Zm4.543-.077-1.683-6.282 1.436-.385.28 1.047.066-.017c.017-.394.138-.726.364-.997a1.68 1.68 0 0 1 .881-.556c.082-.022.174-.042.277-.061.105-.022.194-.036.266-.04l.365 1.362a1.608 1.608 0 0 0-.314.022 2.848 2.848 0 0 0-.397.076 1.549 1.549 0 0 0-.68.371 1.332 1.332 0 0 0-.375.613c-.068.237-.066.49.005.757l.99 3.693-1.481.397Zm7.122-1.777c-.63.169-1.209.184-1.737.045a2.767 2.767 0 0 1-1.352-.839c-.375-.42-.651-.958-.827-1.615-.173-.647-.202-1.247-.088-1.8a2.888 2.888 0 0 1 .732-1.424c.371-.394.856-.672 1.456-.833a3.31 3.31 0 0 1 1.147-.105c.379.03.735.139 1.069.327.337.187.635.461.895.821.259.357.463.811.61 1.362l.122.454-5.149 1.379-.267-.997 3.73-1a1.653 1.653 0 0 0-.387-.707 1.387 1.387 0 0 0-.645-.393 1.462 1.462 0 0 0-.795.007 1.493 1.493 0 0 0-.739.435 1.57 1.57 0 0 0-.382.716c-.063.268-.058.543.015.824l.233.872c.098.365.249.661.453.886.203.224.443.373.72.447.276.072.575.065.897-.021.216-.058.402-.14.561-.247.158-.109.284-.241.38-.395.096-.154.153-.329.171-.524l1.424-.215a2.23 2.23 0 0 1-.242 1.091 2.529 2.529 0 0 1-.764.88 3.711 3.711 0 0 1-1.241.569Zm9.773-2.75-2.838.76-2.245-8.375 2.896-.776c.832-.223 1.591-.247 2.278-.072a3.478 3.478 0 0 1 1.767 1.066c.489.538.85 1.242 1.083 2.111.234.873.272 1.666.116 2.38a3.491 3.491 0 0 1-1.008 1.818c-.515.497-1.198.86-2.049 1.088Zm-1.673-.959 1.248-.334c.583-.157 1.041-.393 1.374-.711.332-.319.54-.718.622-1.196.082-.481.036-1.042-.135-1.682-.172-.641-.412-1.146-.722-1.516a2.079 2.079 0 0 0-1.126-.72c-.439-.11-.942-.089-1.509.062l-1.293.347 1.541 5.75Zm9.928-1.122c-.63.169-1.209.184-1.737.045a2.757 2.757 0 0 1-1.351-.839c-.376-.42-.651-.958-.827-1.615-.173-.646-.203-1.246-.088-1.8.116-.557.36-1.032.732-1.423.37-.395.856-.672 1.455-.833.388-.104.77-.139 1.147-.106.379.03.736.139 1.069.327.337.188.635.461.895.821.26.357.463.811.611 1.362l.121.454-5.148 1.38-.268-.998 3.73-1a1.66 1.66 0 0 0-.387-.707 1.392 1.392 0 0 0-.644-.393 1.466 1.466 0 0 0-.796.008 1.49 1.49 0 0 0-.738.434 1.577 1.577 0 0 0-.383.716c-.062.268-.057.543.015.825l.234.871c.098.365.248.661.452.887.203.223.443.372.72.447.277.072.576.065.898-.022.215-.057.402-.139.56-.246.158-.11.285-.242.381-.396.096-.154.153-.329.171-.523l1.424-.215c.01.388-.07.752-.243 1.09-.17.335-.425.628-.763.88-.34.249-.754.438-1.242.569Zm5.467-8.329.306 1.145-3.611.968-.307-1.145 3.612-.968Zm-3.123-.776 1.48-.397 1.58 5.898c.054.199.125.343.213.434a.506.506 0 0 0 .302.146.952.952 0 0 0 .351-.032 1.878 1.878 0 0 0 .418-.174l.56 1.091a2.933 2.933 0 0 1-.832.381c-.368.11-.717.143-1.047.1a1.611 1.611 0 0 1-.863-.391c-.242-.215-.414-.52-.516-.913l-1.646-6.143Zm7.886 6.369a2.73 2.73 0 0 1-1.133.075 1.816 1.816 0 0 1-.923-.436c-.258-.232-.442-.554-.553-.966-.095-.354-.108-.665-.039-.931.069-.267.198-.5.387-.7.189-.2.415-.373.68-.52.267-.15.548-.283.845-.397.358-.137.647-.251.868-.343.22-.094.373-.187.46-.28.088-.097.113-.216.075-.358l-.007-.025c-.082-.308-.238-.522-.466-.642-.228-.12-.513-.134-.857-.042-.363.097-.629.253-.799.468-.168.215-.26.44-.276.675l-1.434.174a2.28 2.28 0 0 1 .283-1.102 2.42 2.42 0 0 1 .765-.827c.327-.228.71-.401 1.149-.519.303-.081.614-.126.933-.135.319-.01.624.034.916.131.291.094.549.261.773.498.228.238.397.565.509.982l1.126 4.204-1.423.381-.231-.862-.049.013a1.857 1.857 0 0 1-.761 1.12 2.543 2.543 0 0 1-.818.364Zm.093-1.191c.297-.08.539-.208.725-.383.186-.179.312-.382.376-.609.068-.229.07-.459.008-.691l-.198-.74a.72.72 0 0 1-.209.17c-.1.062-.215.123-.345.184-.13.062-.259.12-.387.174l-.335.143a2.649 2.649 0 0 0-.553.306 1.014 1.014 0 0 0-.337.397.728.728 0 0 0-.026.506c.073.273.228.452.464.538.236.086.508.087.817.005Zm4.678-.224-1.683-6.282 1.48-.396 1.684 6.282-1.481.396Zm-1.178-7.373a.892.892 0 0 1-.667-.07.777.777 0 0 1-.406-.501.765.765 0 0 1 .101-.636.885.885 0 0 1 .542-.4.879.879 0 0 1 .668.075c.211.11.346.277.406.501a.772.772 0 0 1-.101.636.884.884 0 0 1-.543.395Zm3.417-2.204 2.244 8.376-1.48.397-2.244-8.376 1.48-.397Zm7.493 2.016-1.31.509a1.129 1.129 0 0 0-.303-.331 1.028 1.028 0 0 0-.454-.189 1.431 1.431 0 0 0-.611.045c-.308.083-.549.219-.723.409-.171.189-.227.389-.167.601a.56.56 0 0 0 .319.392c.17.078.424.11.763.098l1.133-.058c.629-.031 1.125.054 1.488.255.367.2.611.524.735.973.103.396.08.776-.068 1.14-.145.361-.398.68-.756.957-.358.277-.799.486-1.322.626-.769.206-1.431.211-1.986.015a2.006 2.006 0 0 1-1.201-1.129l1.406-.526c.141.266.338.443.589.53.251.088.548.086.888-.005.352-.095.615-.242.789-.444.177-.202.236-.41.179-.622a.576.576 0 0 0-.328-.39c-.167-.081-.404-.114-.71-.099l-1.132.062c-.636.036-1.138-.056-1.507-.275-.369-.223-.614-.564-.734-1.022a1.676 1.676 0 0 1 .045-1.091c.139-.344.378-.645.719-.902.342-.261.763-.459 1.265-.594.736-.197 1.358-.195 1.864.005.51.2.886.553 1.13 1.06Z" fill="#0D7ED6"/><path d="m145.026 124.322 308.48-82.657" stroke="#283C64" stroke-width=".852"/><path fill="#171F34" d="m121 34.657 308.13-82.563 12.424 46.364-308.13 82.563z"/><path fill="#283C64" d="m133.203 80.199 308.13-82.563.22.823-308.13 82.563z"/><rect x="149.969" y="37.475" width="27.252" height="27.252" rx="3.407" transform="rotate(-15 149.969 37.475)" fill="#235B95"/><g clip-path="url(#h)"><path d="M168.694 56.26a14.606 14.606 0 0 1-1.578-.715 23.408 23.408 0 0 1-1.608-.908 24.846 24.846 0 0 1-1.937-1.325 24.17 24.17 0 0 1-4.208-4.056 22.705 22.705 0 0 1-3.565-6.182c-.093-.242-.164-.55.106-.795.779-.65 1.605-1.241 2.471-1.766a23.616 23.616 0 0 1 2.489-1.342 19.12 19.12 0 0 1 3.057-1.12l.586-.158a19.123 19.123 0 0 1 3.208-.558 23.544 23.544 0 0 1 2.826-.082c1.013.022 2.023.12 3.023.294.357.077.449.38.49.635.197 1.236.292 2.485.284 3.734a22.912 22.912 0 0 1-.281 3.403 24.166 24.166 0 0 1-1.616 5.616c-.304.72-.646 1.432-1.015 2.116a23.197 23.197 0 0 1-.939 1.59c-.309.49-.646.96-1.009 1.408a.917.917 0 0 1-.784.21Zm-2.843-11.978c-.013.034-1.023 1.912-1.76 3.282-.253.474-.477.889-.62 1.155a2.66 2.66 0 0 0-.319 1.71c.054.314.172.613.345.879.211.318.476.595.782.817.88.659 1.811 1.241 2.783 1.741.402.21.814.396 1.236.558a.682.682 0 0 0 .606-.163c.284-.35.548-.718.791-1.1.592-.92 1.107-1.89 1.539-2.9.154-.345.245-.718.269-1.098a2.355 2.355 0 0 0-.14-.933 2.664 2.664 0 0 0-1.132-1.322l-.961-.595-.115-.071a722.926 722.926 0 0 1-3.231-2.002.06.06 0 0 0-.057.015.057.057 0 0 0-.016.027Zm-.891-3.608c.01.01.023.022.042.037.027.023.453.428 1.043.99 1.415 1.346 3.783 3.599 4.392 4.139.45.398.929.568 1.314.465.373-.1.844-.505.964-1.867.131-1.481.078-2.976-.157-4.448-.032-.204-.106-.446-.391-.508a16.187 16.187 0 0 0-2.414-.234 18.817 18.817 0 0 0-2.258.065c-.866.076-1.723.225-2.562.446l-.448.12c-.838.229-1.655.528-2.442.895a18.82 18.82 0 0 0-1.988 1.072c-.692.42-1.351.891-1.974 1.411-.216.195-.159.442-.085.635a18.11 18.11 0 0 0 2.088 3.93c.433.618 1.092 1.317 1.769 1.135.385-.103.715-.49.905-1.06.257-.771 1.181-3.905 1.733-5.777l.001-.003a154.5 154.5 0 0 1 .426-1.431c.006-.02.009-.03.014-.031.006-.002.013.005.028.02Zm-.729 8.474.706-1.33 3.491-.936 1.278.8-5.475 1.466Zm1.236-2.29.729-1.35 1.307.805-2.036.545Z" fill="#fff"/></g><path d="m201.724 43.071 14.807-3.967M200.503 38.516l14.807-3.967M199.282 33.96l14.807-3.968" stroke="#6A8CC6" stroke-width="1.703" stroke-linecap="round" stroke-linejoin="round"/><g clip-path="url(#i)"><path d="M300 11.764c-1.252-2.637-4.254-3.853-6.856-2.776-2.602 1.077-3.907 4.075-2.979 6.847.927 2.772 3.767 4.361 6.485 3.63l6.435-1.725c1.322-.352 2.285-1.508 2.428-2.915.142-1.407-.565-2.777-1.783-3.453a3.232 3.232 0 0 0-3.73.392Zm0 0c.236.568.33 1.248.265 2.323" stroke="#6A8CC6" stroke-width="1.703" stroke-linecap="round" stroke-linejoin="round"/><path d="M303.833 4.37c-.375-1.399-1.813-2.16-3.129-1.807-1.316.353-2.159 1.813-1.807 3.13.375 1.398 1.813 2.158 3.129 1.806 1.317-.353 2.182-1.73 1.807-3.13.022.083 0 0 0 0Z" fill="#289548"/><path fill="#283C64" d="m316.327-1.65.823-.22 4.409 16.452-.823.22z"/><g clip-path="url(#j)" stroke="#6A8CC6" stroke-width="1.703" stroke-linecap="round" stroke-linejoin="round"><path d="M341.147 7.393c.445.675 1.295.887 1.97.442.367-.274.69-.714.662-1.147M339.155-5.298c2.715-.728 5.531.898 6.258 3.613 1.235 4.607 2.442 5.165 2.442 5.165L336.01 6.654s.656-1.499-.468-5.694c-.727-2.715.899-5.53 3.613-6.258Z"/></g><path fill="#283C64" d="m359.925-13.333.823-.22 4.408 16.452-.823.22z"/></g><g clip-path="url(#k)"><g clip-path="url(#l)"><circle cx="395.834" cy="-14.157" r="13.608" transform="rotate(-15 395.834 -14.157)" fill="#539BF5"/><g clip-path="url(#m)"><g clip-path="url(#n)"><circle cx="395.835" cy="-14.155" r="13.608" transform="rotate(-15 395.835 -14.155)" fill="#3E9DFF"/><mask id="o" style="mask-type:alpha" maskUnits="userSpaceOnUse" x="382" y="-28" width="28" height="28"><circle cx="395.835" cy="-14.155" r="13.608" transform="rotate(-15 395.835 -14.155)" fill="#000"/></mask></g></g></g></g></g></g><rect x="255.848" y="249.807" width="278.48" height="132.524" rx="10.745" transform="rotate(-15 255.848 249.807)" fill="#355594"/><path d="m510.1 196.905 3.564 3.958 4.527-.749c.542-.053.854.42.601.859l-2.66 4.606 2.705 4.559c.202.409-.091 1.044-.679.924l-5.124-1.131-3.808 3.431c-.213.243-.975.169-.964-.483l.04-5.388-4.647-2.463c-.352-.276-.577-.772.091-1.044l4.296-1.614 1.107-5.21c.12-.589.576-.618.951-.255Z" fill="#FEB933"/><g clip-path="url(#p)"><g clip-path="url(#q)"><circle cx="304.125" cy="272.094" transform="rotate(-15 304.125 272.094)" fill="#599294" r="19.7"/><g clip-path="url(#r)"><mask id="s" style="mask-type:alpha" maskUnits="userSpaceOnUse" x="284" y="252" width="40" height="40"><circle cx="304.119" cy="272.095" transform="rotate(-15 304.119 272.095)" fill="#000" r="19.7"/></mask><g mask="url(#s)"><path fill="#7EB6B8" d="m297.055 274.442 46.513-12.463 12.463 46.513-46.513 12.463z"/></g></g></g></g><path d="m334.029 248.541 1.952-.523 4.325 5.681.103-.028.904-7.082 1.953-.523 2.359 8.806-1.53.411-1.622-6.05-.081.021-.82 6.677-1.144.306-4.051-5.385-.082.022 1.625 6.063-1.531.41-2.36-8.806Zm14.896 8.102a3.245 3.245 0 0 1-1.059.109l.037-1.31c.244.005.454-.017.631-.068a.766.766 0 0 0 .424-.293c.109-.143.178-.352.205-.627l.038-.392-4.202-6.101 1.652-.442 2.858 4.58.069-.019.19-5.397 1.656-.443-.661 8.113a3.049 3.049 0 0 1-.249 1.03 2.063 2.063 0 0 1-.594.777c-.256.213-.588.374-.995.483Zm9.712-5.257-3.636-6.105 1.587-.425 2.405 4.333.061-.016-.058-4.962 1.57-.421 2.424 4.3.064-.017-.093-4.925 1.591-.426-.101 7.106-1.621.435-2.435-4.132-.09.024-.042 4.795-1.626.436Zm10.708-2.726a2.86 2.86 0 0 1-1.191.079 1.914 1.914 0 0 1-.971-.459c-.271-.243-.465-.582-.581-1.015-.1-.372-.114-.699-.041-.979.072-.281.208-.526.406-.736.199-.21.438-.392.716-.547.28-.158.576-.297.888-.417.376-.144.68-.264.913-.36.231-.099.392-.198.483-.296.093-.101.119-.227.079-.376l-.007-.025c-.087-.324-.25-.55-.49-.676-.239-.126-.54-.141-.901-.044-.381.102-.661.266-.841.493a1.28 1.28 0 0 0-.289.708l-1.509.183c.008-.432.107-.818.298-1.158.191-.343.459-.633.804-.87a3.868 3.868 0 0 1 1.209-.545c.318-.085.645-.133.98-.143.336-.01.657.036.964.139.306.099.577.274.813.524.239.249.417.593.535 1.032l1.184 4.42-1.496.401-.243-.907-.052.014a1.969 1.969 0 0 1-.262.623 1.98 1.98 0 0 1-.538.554c-.23.163-.516.291-.86.383Zm.097-1.252c.313-.084.567-.218.763-.403.196-.188.328-.401.396-.64.071-.241.073-.483.008-.726l-.209-.779a.735.735 0 0 1-.219.179c-.105.065-.226.13-.363.194-.136.064-.272.125-.407.183l-.352.149a2.857 2.857 0 0 0-.582.322c-.164.121-.282.26-.353.418a.756.756 0 0 0-.028.533c.077.286.239.475.488.565.248.09.534.091.858.005Zm4.116-9.459 2.36 8.807-1.557.417-2.359-8.807 1.556-.417Zm3.158-.846 2.359 8.807-1.556.417-2.36-8.807 1.557-.417Zm6.919 7.723c-.663.178-1.271.193-1.827.047a2.9 2.9 0 0 1-1.421-.882c-.394-.441-.684-1.007-.869-1.698-.182-.679-.213-1.31-.093-1.892.123-.586.38-1.085.77-1.497.39-.415.9-.707 1.531-.876a3.452 3.452 0 0 1 1.205-.111c.399.032.773.146 1.124.344.354.197.668.485.941.863.273.376.487.853.642 1.432l.128.478-5.414 1.45-.281-1.049 3.922-1.051a1.737 1.737 0 0 0-.407-.744 1.467 1.467 0 0 0-.677-.413 1.547 1.547 0 0 0-.837.008 1.57 1.57 0 0 0-.776.457c-.2.216-.334.467-.402.753-.066.282-.061.571.015.867l.246.916c.103.384.261.695.475.932.214.235.466.392.758.47.29.076.605.068.943-.022a1.94 1.94 0 0 0 .59-.26 1.4 1.4 0 0 0 .4-.416 1.24 1.24 0 0 0 .18-.55l1.497-.226a2.35 2.35 0 0 1-.255 1.147c-.179.352-.447.66-.803.925a3.89 3.89 0 0 1-1.305.598Zm5.747-8.757.323 1.204-3.797 1.017-.323-1.204 3.797-1.017Zm-3.283-.816 1.556-.417 1.662 6.2c.056.209.13.362.223.456a.529.529 0 0 0 .318.155c.117.012.24 0 .369-.034.098-.027.184-.057.261-.093.079-.037.139-.067.179-.09l.588 1.147a3.06 3.06 0 0 1-.874.4 2.633 2.633 0 0 1-1.101.106 1.699 1.699 0 0 1-.908-.411c-.254-.227-.435-.547-.543-.961l-1.73-6.458Zm12.678 5.378-.915-9.194 1.204-.323.915 9.194-1.204.323Zm-4.577-1.207-.121-1.259 6.777-1.815.121 1.258-6.777 1.816Zm1.481 2.036-.915-9.193 1.204-.323.915 9.194-1.204.322Zm-1.79-5.235-.125-1.257 6.777-1.816.125 1.257-6.777 1.816Zm10.564-6.555 2.36 8.807-1.595.427-1.944-7.254-.052.014-1.707 1.868-.392-1.462 1.812-1.993 1.518-.407Z" fill="#E8EBF6"/><path d="m342.769 277.778-1.459.391.634-8.26 1.689-.453 4.683 6.836-1.459.391-3.624-5.46-.059.015-.405 6.54Zm-.745-2.972 3.981-1.067.294 1.098-3.981 1.067-.294-1.098Zm10.612-5.179a2.016 2.016 0 0 0-.398-.466 1.696 1.696 0 0 0-.493-.306 1.583 1.583 0 0 0-.576-.118 2.204 2.204 0 0 0-.651.079 2.035 2.035 0 0 0-1.001.596c-.263.289-.432.656-.508 1.1-.074.441-.035.945.117 1.51.152.57.371 1.029.657 1.376.285.348.615.582.99.703.374.118.772.121 1.195.007.383-.102.695-.265.936-.487a1.62 1.62 0 0 0 .484-.802c.08-.313.07-.653-.028-1.019l.323-.035-2.05.549-.286-1.069 3.063-.821.243.907c.173.646.185 1.242.036 1.787a2.925 2.925 0 0 1-.843 1.396c-.413.382-.932.656-1.557.824-.695.186-1.347.194-1.957.022a3.352 3.352 0 0 1-1.586-1.009c-.447-.501-.778-1.15-.991-1.946-.164-.61-.223-1.177-.18-1.702.046-.526.181-.998.403-1.416.222-.42.52-.773.893-1.061.373-.289.806-.5 1.3-.632a3.735 3.735 0 0 1 1.218-.129c.393.024.76.11 1.1.258.343.148.646.351.91.61a2.9 2.9 0 0 1 .63.921l-1.393.373Zm1.783-1.832-.307-1.147 6.023-1.613.307 1.146-2.333.625 1.715 6.402-1.356.364-1.716-6.403-2.333.626Zm11.536 3.881c-.548.147-1.059.185-1.533.115-.472-.071-.872-.234-1.198-.489a1.837 1.837 0 0 1-.647-1 1.88 1.88 0 0 1-.028-.929c.069-.303.199-.575.39-.816.193-.243.43-.429.712-.558l-.014-.051a1.656 1.656 0 0 1-1.103-.341 1.77 1.77 0 0 1-.643-.985 1.782 1.782 0 0 1 .046-1.126c.137-.363.373-.683.707-.96a3.165 3.165 0 0 1 1.233-.615c.484-.13.939-.157 1.365-.081.428.072.792.232 1.092.478.303.245.506.562.61.95.11.408.084.801-.075 1.178a1.65 1.65 0 0 1-.774.843l.014.052c.308-.03.604.013.888.129.286.113.534.284.745.511.214.228.363.5.448.817.11.408.087.805-.068 1.191-.155.384-.419.725-.792 1.022-.371.297-.829.519-1.375.665Zm-.282-1.054a1.83 1.83 0 0 0 .698-.341c.183-.155.308-.336.376-.544a1.15 1.15 0 0 0 .013-.659 1.184 1.184 0 0 0-.358-.587 1.277 1.277 0 0 0-.616-.305 1.608 1.608 0 0 0-.757.033c-.27.072-.497.189-.68.352a1.305 1.305 0 0 0-.384.573 1.157 1.157 0 0 0-.006.685c.06.231.171.42.334.566.162.144.361.237.596.279.237.042.499.024.784-.052Zm-.922-3.439c.231-.062.423-.163.575-.304.154-.141.26-.31.319-.504.058-.195.059-.402.003-.621a1.103 1.103 0 0 0-.307-.526 1.032 1.032 0 0 0-.521-.268 1.405 1.405 0 0 0-.656.03 1.45 1.45 0 0 0-.594.305 1.03 1.03 0 0 0-.318.492c-.055.189-.052.391.008.607.056.219.157.399.302.539.148.137.324.229.529.277.207.045.427.036.66-.027Zm8.178-.038-.879-3.281 1.335-.357 1.516 5.661-1.293.347-.27-1.006-.059.015a1.759 1.759 0 0 1-.422.947c-.236.279-.566.476-.991.59a1.999 1.999 0 0 1-1.051.016 1.77 1.77 0 0 1-.857-.548c-.246-.277-.429-.641-.55-1.093l-.966-3.605 1.334-.357.911 3.398c.096.359.271.617.524.776.253.159.539.195.859.11a1.27 1.27 0 0 0 .532-.297c.159-.145.272-.328.339-.549.069-.224.065-.48-.012-.767Zm8.524-5.093-1.378.369a1.786 1.786 0 0 0-.378-.542 1.685 1.685 0 0 0-.515-.344 1.694 1.694 0 0 0-.613-.132 2.153 2.153 0 0 0-.67.077c-.411.11-.747.31-1.008.602-.263.288-.43.655-.504 1.098-.074.442-.035.946.117 1.514.155.577.375 1.039.66 1.387.288.344.615.575.984.692.37.115.759.117 1.167.008.226-.061.43-.147.611-.259.182-.114.336-.252.462-.412a1.701 1.701 0 0 0 .356-1.193l1.38-.362c.045.372.023.739-.065 1.099a3.066 3.066 0 0 1-1.259 1.831 3.735 3.735 0 0 1-1.174.528c-.664.178-1.297.183-1.9.015-.603-.167-1.133-.501-1.588-1-.455-.5-.791-1.155-1.008-1.966-.218-.813-.254-1.549-.106-2.208.147-.661.439-1.214.878-1.661.439-.447.987-.758 1.646-.935.42-.112.826-.158 1.219-.137.393.021.761.108 1.105.261.343.15.65.366.92.646.272.278.492.619.661 1.024Zm6.881 5.792-.808-3.014-.056.014a2.308 2.308 0 0 1-.181.519 1.688 1.688 0 0 1-.411.529c-.185.165-.439.291-.764.378-.444.12-.873.112-1.286-.022-.412-.135-.779-.392-1.099-.772-.321-.381-.564-.882-.731-1.503-.168-.629-.207-1.188-.117-1.675.092-.491.286-.895.58-1.211a2.246 2.246 0 0 1 1.094-.652c.331-.089.619-.106.863-.05.244.053.449.142.617.266.166.121.303.241.408.36l.081-.022-.25-.936 1.312-.351 2.086 7.784-1.338.358Zm-2.141-2.768c.283-.076.503-.216.661-.422.158-.208.252-.464.281-.767a2.842 2.842 0 0 0-.103-1.003 2.751 2.751 0 0 0-.411-.913 1.411 1.411 0 0 0-.618-.51 1.204 1.204 0 0 0-.786-.03c-.298.079-.525.223-.683.431a1.47 1.47 0 0 0-.278.762c-.027.3.006.626.1.977.095.354.23.656.405.907.177.247.386.424.628.531.244.103.512.115.804.037Zm4.726-3.755.889 3.317-1.334.358-2.023-7.549 1.305-.349.763 2.849.067-.018c.047-.355.184-.662.413-.921.23-.261.561-.45.994-.566.393-.105.758-.115 1.094-.029.337.087.627.267.872.541.247.274.432.639.554 1.096l.966 3.604-1.334.358-.911-3.398c-.102-.381-.279-.651-.533-.81-.251-.161-.552-.195-.904-.101a1.322 1.322 0 0 0-.592.325c-.158.15-.263.335-.318.555-.052.219-.041.465.032.738Zm6.489 4.092-2.086-7.784 1.312-.352.251.936.077-.02c.032-.156.09-.329.174-.517.083-.191.217-.37.401-.538.184-.17.441-.3.773-.389a2.23 2.23 0 0 1 1.273.019c.413.126.781.379 1.104.758.325.377.571.88.74 1.509.166.621.206 1.177.119 1.667-.088.489-.277.895-.567 1.218-.29.323-.657.544-1.102.663-.324.087-.608.105-.851.054a1.695 1.695 0 0 1-.62-.253c-.17-.12-.308-.24-.416-.358l-.056.015.808 3.015-1.334.357Zm-.019-5.304c.098.366.236.673.413.92.179.247.388.422.626.524.24.099.501.111.783.035.295-.079.521-.224.678-.435.156-.213.248-.47.275-.772a2.793 2.793 0 0 0-.099-.989 2.778 2.778 0 0 0-.402-.896 1.457 1.457 0 0 0-.622-.521c-.24-.101-.509-.112-.806-.032a1.213 1.213 0 0 0-.666.419 1.432 1.432 0 0 0-.285.752c-.028.297.007.629.105.995Zm6.781 1.304a.822.822 0 0 1-.639-.082.798.798 0 0 1-.39-.512.788.788 0 0 1 .084-.631.82.82 0 0 1 .512-.39.807.807 0 0 1 .627.085.804.804 0 0 1 .391.942.875.875 0 0 1-.216.374.79.79 0 0 1-.369.214Zm3.01-.807a.815.815 0 0 1-.638-.082.79.79 0 0 1-.39-.511.78.78 0 0 1 .084-.631c.117-.2.288-.33.511-.39a.801.801 0 0 1 .627.085.796.796 0 0 1 .391.942.887.887 0 0 1-.216.374.796.796 0 0 1-.369.213Zm3.01-.806a.824.824 0 0 1-.638-.082.791.791 0 0 1-.39-.512.78.78 0 0 1 .084-.631c.117-.2.288-.33.512-.39a.802.802 0 0 1 .627.085.805.805 0 0 1 .391.942.88.88 0 0 1-.216.374.806.806 0 0 1-.37.214Zm-.901-7.936 1.545-.414 2.741 2.844.074-.019.952-3.834 1.544-.414-1.478 5.468.755 2.816-1.364.365-.755-2.816-4.014-3.996Zm12.484 4.856c-.548.146-1.059.185-1.534.114-.472-.071-.871-.234-1.197-.489a1.834 1.834 0 0 1-.647-1 1.864 1.864 0 0 1-.028-.928c.069-.303.199-.575.39-.816.193-.244.43-.43.712-.558l-.014-.052a1.654 1.654 0 0 1-1.103-.34 1.774 1.774 0 0 1-.643-.985 1.778 1.778 0 0 1 .046-1.127 2.28 2.28 0 0 1 .707-.959 3.165 3.165 0 0 1 1.233-.615c.484-.13.939-.157 1.365-.081.428.072.792.231 1.092.477.303.246.506.563.61.951.109.408.084.8-.075 1.177a1.648 1.648 0 0 1-.774.844l.014.051c.308-.03.604.014.888.13.286.113.534.283.745.511.214.227.363.499.448.816.109.408.087.805-.068 1.192-.155.384-.419.725-.792 1.022-.371.297-.829.518-1.375.665Zm-.282-1.055c.282-.075.515-.189.698-.341.183-.154.308-.335.376-.543.068-.208.073-.428.013-.659a1.178 1.178 0 0 0-.359-.587 1.27 1.27 0 0 0-.615-.306 1.635 1.635 0 0 0-.757.033c-.271.073-.497.19-.68.352a1.317 1.317 0 0 0-.384.573 1.157 1.157 0 0 0-.006.685c.059.232.171.421.333.567.163.143.361.236.597.279.237.041.499.024.784-.053Zm-.922-3.438a1.35 1.35 0 0 0 .575-.304c.154-.142.26-.31.319-.505.058-.194.059-.401.003-.621a1.115 1.115 0 0 0-.307-.526 1.045 1.045 0 0 0-.522-.267 1.389 1.389 0 0 0-.655.03 1.432 1.432 0 0 0-.594.305 1.035 1.035 0 0 0-.319.492c-.054.189-.052.391.009.606.056.22.157.399.302.539.148.137.324.23.529.278.207.044.427.035.66-.027Zm5.653-.365.889 3.317-1.334.357-1.517-5.661 1.275-.342.258.962.066-.018c.045-.351.186-.659.421-.922.237-.264.567-.452.99-.566a2.09 2.09 0 0 1 1.088-.023c.337.089.628.271.873.545.247.273.43.637.548 1.089l.966 3.605-1.334.357-.911-3.398c-.101-.378-.279-.648-.533-.809-.251-.162-.549-.197-.893-.104a1.276 1.276 0 0 0-.581.321 1.109 1.109 0 0 0-.306.552 1.53 1.53 0 0 0 .035.738Zm7.23-4.45.277 1.032-3.347.897-.277-1.032 3.347-.897Zm-.993 6.334-1.66-6.196c-.102-.381-.109-.719-.019-1.014.092-.296.255-.542.489-.74.234-.197.515-.339.842-.427.231-.061.441-.098.63-.109.189-.011.331-.014.425-.007l.011 1.103c-.061-.002-.137 0-.228.005a1.4 1.4 0 0 0-.295.048c-.248.067-.408.174-.479.322-.069.145-.074.328-.015.549l1.637 6.107-1.338.359Zm2.038-6.614 1.334-.358 1.604 5.986c.109.408.122.765.038 1.072a1.47 1.47 0 0 1-.511.773c-.258.209-.596.369-1.013.481a2.687 2.687 0 0 1-.138.033 3.134 3.134 0 0 1-.137.033l-.291-1.088c.037-.007.071-.015.1-.023a.876.876 0 0 0 .093-.021c.256-.068.422-.18.499-.335.078-.152.085-.348.021-.586l-1.599-5.967Zm.448-.981a.811.811 0 0 1-.605-.063.708.708 0 0 1-.363-.452.7.7 0 0 1 .088-.573.802.802 0 0 1 .492-.361.785.785 0 0 1 .599.069c.19.099.312.249.366.451a.701.701 0 0 1-.091.573.796.796 0 0 1-.486.356Zm1.295-1.509 1.545-.414 2.741 2.845.074-.02.952-3.834 1.544-.414-1.478 5.468.755 2.816-1.364.366-.755-2.816-4.014-3.997Zm11.436 5.026-4.153-6.977 1.47-.394 2.847 5.182.07-.018-.035-5.936 1.338-.359 2.944 5.161.066-.018-.127-5.915 1.47-.394-.108 8.119-1.349.361-2.93-4.891-.059.016-.095 5.702-1.349.361Zm12.571-1.093-.808-3.015-.055.015a2.36 2.36 0 0 1-.181.519 1.73 1.73 0 0 1-.411.529c-.185.165-.44.291-.764.378a2.214 2.214 0 0 1-1.286-.023c-.413-.134-.779-.391-1.1-.772-.32-.38-.564-.881-.73-1.502-.169-.629-.208-1.188-.117-1.676.092-.49.285-.894.58-1.21a2.243 2.243 0 0 1 1.093-.652c.332-.089.62-.106.864-.05.243.053.449.142.616.265.167.122.303.242.409.361l.081-.022-.251-.936 1.312-.351 2.086 7.784-1.338.358Zm-2.14-2.768a1.2 1.2 0 0 0 .661-.422 1.48 1.48 0 0 0 .28-.767 2.794 2.794 0 0 0-.103-1.003 2.75 2.75 0 0 0-.41-.913 1.395 1.395 0 0 0-.619-.51 1.204 1.204 0 0 0-.786-.03c-.297.079-.525.223-.682.431-.158.208-.25.462-.278.762-.028.3.005.625.1.977.094.354.229.656.405.907.176.247.386.424.628.53.243.104.511.116.804.038Zm6.976-.692c-.548.147-1.059.185-1.533.114-.472-.071-.872-.234-1.198-.489a1.835 1.835 0 0 1-.647-.999 1.88 1.88 0 0 1-.028-.929c.069-.303.199-.575.39-.816.193-.244.43-.43.712-.558l-.014-.051a1.656 1.656 0 0 1-1.103-.341 1.774 1.774 0 0 1-.643-.985 1.782 1.782 0 0 1 .046-1.126c.137-.364.373-.684.707-.96a3.165 3.165 0 0 1 1.233-.615c.484-.13.939-.157 1.365-.081.428.072.792.231 1.092.477.303.246.506.563.61.951.11.408.084.8-.075 1.178a1.65 1.65 0 0 1-.774.843l.014.051c.308-.029.604.014.888.13.286.113.534.283.745.511.214.227.363.499.448.816.11.408.087.805-.068 1.192-.155.384-.419.725-.792 1.022-.371.297-.829.519-1.375.665Zm-.282-1.054c.282-.076.515-.19.698-.342.183-.154.308-.335.376-.543a1.15 1.15 0 0 0 .013-.659 1.184 1.184 0 0 0-.358-.587 1.279 1.279 0 0 0-.616-.306 1.635 1.635 0 0 0-.757.033c-.27.073-.497.19-.68.353a1.308 1.308 0 0 0-.384.572 1.157 1.157 0 0 0-.006.685c.06.232.171.421.334.567.162.143.361.236.596.279.237.041.499.024.784-.052Zm-.922-3.439c.231-.062.423-.163.575-.304.154-.142.26-.31.319-.504a1.15 1.15 0 0 0 .003-.622 1.107 1.107 0 0 0-.307-.526 1.038 1.038 0 0 0-.521-.267 1.392 1.392 0 0 0-.656.03 1.438 1.438 0 0 0-.594.305 1.03 1.03 0 0 0-.318.492c-.055.189-.052.391.008.606.056.22.157.399.302.539.148.137.324.23.529.278.207.044.427.035.66-.027Z" fill="#9EB3DB"/><rect x="280.371" y="313.687" width="264.153" height="57.308" rx="10.745" transform="rotate(-15 280.371 313.687)" fill="#2391E7"/><path d="m497.477 255.516 27.677-7.416c5.733-1.536 11.625 1.866 13.161 7.598l9.27 34.597c1.536 5.732-1.866 11.624-7.598 13.16l-27.678 7.416-14.832-55.355Z" fill="#0D7ED6"/></g><defs><clipPath id="a"><path fill="#fff" transform="translate(0 .25)" d="M0 0h576v264H0z"/></clipPath><clipPath id="b"><path d="M24-47.435h508.073c6.475 0 11.723 5.248 11.723 11.722v367.274c0 6.474-5.248 11.723-11.723 11.723H24v-390.72Z" fill="#fff"/></clipPath><clipPath id="d"><rect x="121" y="34.657" width="319.362" height="1024.51" rx="14.142" transform="rotate(-15 121 34.657)" fill="#fff"/></clipPath><clipPath id="e"><path fill="#fff" transform="rotate(-15 315.052 -1320.497)" d="M0 0h68.982v17.033H0z"/></clipPath><clipPath id="f"><path fill="#fff" transform="rotate(-15 315.052 -1320.497)" d="M0 0h17.033v17.033H0z"/></clipPath><clipPath id="g"><path fill="#fff" transform="rotate(165 215.421 130.224)" d="M0 0h8.516v8.516H0z"/></clipPath><clipPath id="h"><path fill="#fff" transform="rotate(-15 229.564 -566.797)" d="M0 0h19.82v19.82H0z"/></clipPath><clipPath id="i"><path fill="#fff" transform="rotate(-15 167.224 -1085.759)" d="M0 0h76.647v17.033H0z"/></clipPath><clipPath id="j"><path fill="#fff" transform="rotate(-15 144.656 -1257.18)" d="M0 0h17.033v17.033H0z"/></clipPath><clipPath id="k"><path fill="#fff" transform="rotate(-15 99.274 -1451.923)" d="M0 0h27.252v27.252H0z"/></clipPath><clipPath id="l"><path fill="#fff" transform="rotate(-15 99.274 -1451.923)" d="M0 0h27.216v27.252H0z"/></clipPath><clipPath id="m"><path fill="#fff" transform="rotate(-15 99.281 -1451.922)" d="M0 0h27.216v27.216H0z"/></clipPath><clipPath id="n"><path fill="#fff" transform="rotate(-15 99.28 -1451.922)" d="M0 0h27.216v27.216H0z"/></clipPath><clipPath id="p"><path fill="#fff" transform="rotate(-15 1120.482 -934.35)" d="M0 0h39.399v39.399H0z"/></clipPath><clipPath id="q"><path fill="#fff" transform="rotate(-15 1120.48 -934.327)" d="M0 0h39.399v39.399H0z"/></clipPath><clipPath id="r"><path fill="#fff" transform="rotate(-15 1120.478 -934.315)" d="M0 0h39.399v39.399H0z"/></clipPath><filter id="c" x="-158.375" y="-77.748" width="915.102" height="1605.14" filterUnits="userSpaceOnUse" color-interpolation-filters="sRGB"><feFlood flood-opacity="0" result="BackgroundImageFix"/><feColorMatrix in="SourceAlpha" values="0 0 0 0 0 0 0 0 0 0 0 0 0 0 0 0 0 0 127 0" result="hardAlpha"/><feOffset/><feColorMatrix values="0 0 0 0 0.0352941 0 0 0 0 0.176471 0 0 0 0 0.32549 0 0 0 0.1 0"/><feBlend in2="BackgroundImageFix" result="effect1_dropShadow_5482_114136"/><feColorMatrix in="SourceAlpha" values="0 0 0 0 0 0 0 0 0 0 0 0 0 0 0 0 0 0 127 0" result="hardAlpha"/><feOffset dx="-7.76" dy="21.988"/><feGaussianBlur stdDeviation="25.868"/><feColorMatrix values="0 0 0 0 0.0352941 0 0 0 0 0.176471 0 0 0 0 0.32549 0 0 0 0.1 0"/><feBlend in2="effect1_dropShadow_5482_114136" result="effect2_dropShadow_5482_114136"/><feColorMatrix in="SourceAlpha" values="0 0 0 0 0 0 0 0 0 0 0 0 0 0 0 0 0 0 127 0" result="hardAlpha"/><feOffset dx="-32.335" dy="87.951"/><feGaussianBlur stdDeviation="47.209"/><feColorMatrix values="0 0 0 0 0.0352941 0 0 0 0 0.176471 0 0 0 0 0.32549 0 0 0 0.09 0"/><feBlend in2="effect2_dropShadow_5482_114136" result="effect3_dropShadow_5482_114136"/><feColorMatrix in="SourceAlpha" values="0 0 0 0 0 0 0 0 0 0 0 0 0 0 0 0 0 0 127 0" result="hardAlpha"/><feOffset dx="-72.43" dy="197.891"/><feGaussianBlur stdDeviation="63.377"/><feColorMatrix values="0 0 0 0 0.0352941 0 0 0 0 0.176471 0 0 0 0 0.32549 0 0 0 0.05 0"/><feBlend in2="effect3_dropShadow_5482_114136" result="effect4_dropShadow_5482_114136"/><feColorMatrix in="SourceAlpha" values="0 0 0 0 0 0 0 0 0 0 0 0 0 0 0 0 0 0 127 0" result="hardAlpha"/><feOffset dx="-129.34" dy="353.099"/><feGaussianBlur stdDeviation="75.017"/><feColorMatrix values="0 0 0 0 0.0352941 0 0 0 0 0.176471 0 0 0 0 0.32549 0 0 0 0.01 0"/><feBlend in2="effect4_dropShadow_5482_114136" result="effect5_dropShadow_5482_114136"/><feBlend in="SourceGraphic" in2="effect5_dropShadow_5482_114136" result="shape"/></filter></defs></svg>