<svg width="1200" height="265" viewBox="0 0 1200 265" fill="none" xmlns="http://www.w3.org/2000/svg">
<mask id="mask0_5482_114133" style="mask-type:alpha" maskUnits="userSpaceOnUse" x="0" y="0" width="1200" height="265">
<path d="M0 12.25C0 5.62259 5.37258 0.25 12 0.25H1188C1194.63 0.25 1200 5.62258 1200 12.25V252.25C1200 258.877 1194.63 264.25 1188 264.25H12C5.37257 264.25 0 258.877 0 252.25V12.25Z" fill="#D9D9D9"/>
</mask>
<g mask="url(#mask0_5482_114133)">
<path d="M888.566 212.012L836.069 159.45L888.566 106.887L941.062 159.45L888.566 212.012Z" fill="url(#paint0_linear_5482_114133)"/>
<path d="M993.97 106.75L1046.47 54.1874L1098.96 106.75L1046.47 159.313L993.97 106.75Z" fill="url(#paint1_linear_5482_114133)"/>
<path d="M941.062 264.85L888.566 212.288L836.069 264.85H941.062Z" fill="url(#paint2_linear_5482_114133)"/>
<path d="M941.198 159.313L993.695 106.75L941.198 54.1874V159.313Z" fill="url(#paint3_linear_5482_114133)"/>
<path d="M1151.73 54.1874L1099.24 106.75L1151.73 159.313V54.1874Z" fill="url(#paint4_linear_5482_114133)"/>
<path d="M1046.47 264.712L1098.96 212.15L1046.47 159.587V264.712Z" fill="url(#paint5_linear_5482_114133)"/>
<path d="M1046.33 264.85L993.833 212.288L941.336 264.85H1046.33Z" fill="url(#paint6_linear_5482_114133)"/>
<path d="M1046.33 54.0502L993.833 1.48766L941.336 54.0502L1046.33 54.0502Z" fill="url(#paint7_linear_5482_114133)"/>
<path d="M1256.86 159.45L1204.37 106.888L1151.87 159.45H1256.86Z" fill="url(#paint8_linear_5482_114133)"/>
<path d="M1256.86 -51.3497L1204.37 -103.912L1151.87 -51.3497L1256.86 -51.3497Z" fill="url(#paint9_linear_5482_114133)"/>
<path d="M1151.6 370.25L1099.1 317.687L1046.6 370.25H1151.6Z" fill="url(#paint10_linear_5482_114133)"/>
<path d="M1046.47 -156.612L993.97 -104.05L1046.47 -51.4873V-156.612Z" fill="url(#paint11_linear_5482_114133)"/>
<path d="M1257 -51.2125L1204.5 1.3501L1257 53.9126V-51.2125Z" fill="url(#paint12_linear_5482_114133)"/>
<path d="M941.336 159.45L993.833 212.012L1046.33 159.45L941.336 159.45Z" fill="url(#paint13_linear_5482_114133)"/>
<path d="M941.336 -51.3501L993.833 1.21243L1046.33 -51.3501L941.336 -51.3501Z" fill="url(#paint14_linear_5482_114133)"/>
<path d="M1151.87 54.0498L1204.37 106.612L1256.86 54.0498L1151.87 54.0498Z" fill="url(#paint15_linear_5482_114133)"/>
<path d="M1151.87 -156.75L1204.37 -104.187L1256.86 -156.75L1151.87 -156.75Z" fill="url(#paint16_linear_5482_114133)"/>
<path d="M1046.6 264.85L1099.1 317.412L1151.6 264.85H1046.6Z" fill="url(#paint17_linear_5482_114133)"/>
<path d="M941.199 -51.4873L993.695 -104.05L941.199 -156.612V-51.4873Z" fill="url(#paint18_linear_5482_114133)"/>
<path d="M1151.73 53.9126L1204.23 1.3501L1151.73 -51.2125V53.9126Z" fill="url(#paint19_linear_5482_114133)"/>
<path d="M835.932 370.112L888.428 317.55L835.932 264.987V370.112Z" fill="url(#paint20_linear_5482_114133)"/>
<path d="M1046.47 264.987L993.97 317.55L1046.47 370.112V264.987Z" fill="url(#paint21_linear_5482_114133)"/>
<path d="M1257 159.587L1204.5 212.15L1257 264.712V159.587Z" fill="url(#paint22_linear_5482_114133)"/>
<path d="M941.199 370.112L888.703 317.55L941.199 264.987L993.696 317.55L941.199 370.112Z" fill="url(#paint23_linear_5482_114133)"/>
<path d="M1204.37 370.112L1151.87 317.55L1204.37 264.987L1256.86 317.55L1204.37 370.112Z" fill="url(#paint24_linear_5482_114133)"/>
<path d="M1151.73 264.712L1099.24 212.15L1151.73 159.587L1204.23 212.15L1151.73 264.712Z" fill="url(#paint25_linear_5482_114133)"/>
<path d="M888.566 53.9124L836.069 1.34985L888.566 -51.2127L941.062 1.34985L888.566 53.9124Z" fill="url(#paint26_linear_5482_114133)"/>
<path d="M1099.1 53.9124L1046.6 1.34987L1099.1 -51.2127L1151.6 1.34987L1099.1 53.9124Z" fill="url(#paint27_linear_5482_114133)"/>
<path d="M888.566 -51.4875L836.069 -104.05L888.566 -156.613L941.062 -104.05L888.566 -51.4875Z" fill="url(#paint28_linear_5482_114133)"/>
<path d="M1099.1 -51.4875L1046.6 -104.05L1099.1 -156.613L1151.6 -104.05L1099.1 -51.4875Z" fill="url(#paint29_linear_5482_114133)"/>
<path d="M836.069 54.0498L888.566 106.612L941.062 54.0498H836.069Z" fill="url(#paint30_linear_5482_114133)"/>
<path d="M783.161 1.4886L835.657 54.0511L783.161 106.614L730.664 54.0511L783.161 1.4886Z" fill="url(#paint31_linear_5482_114133)"/>
<path d="M677.757 106.751L625.26 159.313L572.764 106.751L625.26 54.1883L677.757 106.751Z" fill="url(#paint32_linear_5482_114133)"/>
<path d="M730.664 -51.3492L783.161 1.21341L835.657 -51.3492L730.664 -51.3492Z" fill="url(#paint33_linear_5482_114133)"/>
<path d="M730.528 54.1884L678.032 106.751L730.528 159.313V54.1884Z" fill="url(#paint34_linear_5482_114133)"/>
<path d="M519.993 159.313L572.49 106.751L519.993 54.1883L519.993 159.313Z" fill="url(#paint35_linear_5482_114133)"/>
<path d="M625.26 -51.2116L572.764 1.35094L625.26 53.9135V-51.2116Z" fill="url(#paint36_linear_5482_114133)"/>
<path d="M625.397 -51.3492L677.894 1.21335L730.39 -51.3492L625.397 -51.3492Z" fill="url(#paint37_linear_5482_114133)"/>
<path d="M625.397 159.451L677.894 212.013L730.39 159.451H625.397Z" fill="url(#paint38_linear_5482_114133)"/>
<path d="M520.13 -156.749L572.627 -104.187L625.123 -156.749L520.13 -156.749Z" fill="url(#paint39_linear_5482_114133)"/>
<path d="M625.26 370.113L677.756 317.551L625.26 264.988V370.113Z" fill="url(#paint40_linear_5482_114133)"/>
<path d="M730.39 54.0511L677.894 1.48854L625.397 54.0511L730.39 54.0511Z" fill="url(#paint41_linear_5482_114133)"/>
<path d="M730.39 264.851L677.894 212.288L625.397 264.851L730.39 264.851Z" fill="url(#paint42_linear_5482_114133)"/>
<path d="M625.123 -51.3488L572.627 -103.911L520.13 -51.3488L625.123 -51.3488Z" fill="url(#paint43_linear_5482_114133)"/>
<path d="M730.527 264.988L678.031 317.551L730.527 370.113V264.988Z" fill="url(#paint44_linear_5482_114133)"/>
<path d="M835.794 -156.611L783.298 -104.049L835.794 -51.4864V-156.611Z" fill="url(#paint45_linear_5482_114133)"/>
<path d="M625.261 -51.4864L677.757 -104.049L625.261 -156.612V-51.4864Z" fill="url(#paint46_linear_5482_114133)"/>
<path d="M730.527 -156.611L783.023 -104.049L730.527 -51.4862L678.031 -104.049L730.527 -156.611Z" fill="url(#paint47_linear_5482_114133)"/>
<path d="M783.161 159.588L835.657 212.151L783.161 264.714L730.664 212.151L783.161 159.588Z" fill="url(#paint48_linear_5482_114133)"/>
<path d="M572.627 159.588L625.123 212.151L572.627 264.714L520.13 212.151L572.627 159.588Z" fill="url(#paint49_linear_5482_114133)"/>
<path d="M783.161 264.988L835.657 317.551L783.161 370.113L730.664 317.551L783.161 264.988Z" fill="url(#paint50_linear_5482_114133)"/>
<path d="M572.627 264.988L625.123 317.551L572.627 370.113L520.13 317.551L572.627 264.988Z" fill="url(#paint51_linear_5482_114133)"/>
<path d="M835.657 159.451L783.161 106.889L730.664 159.451L835.657 159.451Z" fill="url(#paint52_linear_5482_114133)"/>
<path d="M153.573 212.012L101.076 159.45L153.573 106.887L206.069 159.45L153.573 212.012Z" fill="url(#paint53_linear_5482_114133)"/>
<path d="M258.976 106.75L311.473 54.1874L363.969 106.75L311.473 159.313L258.976 106.75Z" fill="url(#paint54_linear_5482_114133)"/>
<path d="M206.069 264.85L153.573 212.288L101.076 264.85H206.069Z" fill="url(#paint55_linear_5482_114133)"/>
<path d="M206.205 159.313L258.702 106.75L206.205 54.1874V159.313Z" fill="url(#paint56_linear_5482_114133)"/>
<path d="M416.74 54.1874L364.244 106.75L416.74 159.313L416.74 54.1874Z" fill="url(#paint57_linear_5482_114133)"/>
<path d="M311.473 264.712L363.969 212.15L311.473 159.587V264.712Z" fill="url(#paint58_linear_5482_114133)"/>
<path d="M311.336 264.85L258.84 212.288L206.343 264.85H311.336Z" fill="url(#paint59_linear_5482_114133)"/>
<path d="M311.336 54.0502L258.84 1.48766L206.343 54.0502L311.336 54.0502Z" fill="url(#paint60_linear_5482_114133)"/>
<path d="M521.87 159.45L469.374 106.888L416.877 159.45H521.87Z" fill="url(#paint61_linear_5482_114133)"/>
<path d="M521.87 -51.3497L469.374 -103.912L416.877 -51.3497L521.87 -51.3497Z" fill="url(#paint62_linear_5482_114133)"/>
<path d="M416.603 370.25L364.107 317.687L311.61 370.25H416.603Z" fill="url(#paint63_linear_5482_114133)"/>
<path d="M311.473 -156.612L258.977 -104.05L311.473 -51.4873V-156.612Z" fill="url(#paint64_linear_5482_114133)"/>
<path d="M522.007 -51.2125L469.511 1.3501L522.007 53.9126V-51.2125Z" fill="url(#paint65_linear_5482_114133)"/>
<path d="M206.343 159.45L258.84 212.012L311.336 159.45L206.343 159.45Z" fill="url(#paint66_linear_5482_114133)"/>
<path d="M206.343 -51.3501L258.84 1.21243L311.336 -51.3501L206.343 -51.3501Z" fill="url(#paint67_linear_5482_114133)"/>
<path d="M416.877 54.0498L469.374 106.612L521.87 54.0498L416.877 54.0498Z" fill="url(#paint68_linear_5482_114133)"/>
<path d="M416.877 -156.75L469.374 -104.187L521.87 -156.75L416.877 -156.75Z" fill="url(#paint69_linear_5482_114133)"/>
<path d="M311.61 264.85L364.107 317.412L416.603 264.85H311.61Z" fill="url(#paint70_linear_5482_114133)"/>
<path d="M206.206 -51.4873L258.702 -104.05L206.206 -156.612V-51.4873Z" fill="url(#paint71_linear_5482_114133)"/>
<path d="M416.739 53.9126L469.236 1.3501L416.739 -51.2125V53.9126Z" fill="url(#paint72_linear_5482_114133)"/>
<path d="M100.939 370.112L153.435 317.55L100.939 264.987V370.112Z" fill="url(#paint73_linear_5482_114133)"/>
<path d="M311.473 264.987L258.976 317.55L311.473 370.112L311.473 264.987Z" fill="url(#paint74_linear_5482_114133)"/>
<path d="M522.007 159.587L469.511 212.15L522.007 264.712V159.587Z" fill="url(#paint75_linear_5482_114133)"/>
<path d="M206.206 370.112L153.71 317.55L206.206 264.987L258.702 317.55L206.206 370.112Z" fill="url(#paint76_linear_5482_114133)"/>
<path d="M469.374 370.112L416.877 317.55L469.374 264.987L521.87 317.55L469.374 370.112Z" fill="url(#paint77_linear_5482_114133)"/>
<path d="M416.74 264.712L364.244 212.15L416.74 159.587L469.236 212.15L416.74 264.712Z" fill="url(#paint78_linear_5482_114133)"/>
<path d="M153.573 53.9124L101.076 1.34985L153.573 -51.2127L206.069 1.34985L153.573 53.9124Z" fill="url(#paint79_linear_5482_114133)"/>
<path d="M364.107 53.9124L311.61 1.34987L364.107 -51.2127L416.603 1.34987L364.107 53.9124Z" fill="url(#paint80_linear_5482_114133)"/>
<path d="M153.573 -51.4875L101.076 -104.05L153.573 -156.613L206.069 -104.05L153.573 -51.4875Z" fill="url(#paint81_linear_5482_114133)"/>
<path d="M364.107 -51.4875L311.61 -104.05L364.107 -156.613L416.603 -104.05L364.107 -51.4875Z" fill="url(#paint82_linear_5482_114133)"/>
<path d="M101.076 54.0498L153.573 106.612L206.069 54.0498H101.076Z" fill="url(#paint83_linear_5482_114133)"/>
<path d="M48.1676 1.4886L100.664 54.0511L48.1676 106.614L-4.32869 54.0511L48.1676 1.4886Z" fill="url(#paint84_linear_5482_114133)"/>
<path d="M-57.2363 106.751L-109.733 159.313L-162.229 106.751L-109.733 54.1883L-57.2363 106.751Z" fill="url(#paint85_linear_5482_114133)"/>
<path d="M-4.32867 -51.3492L48.1676 1.21341L100.664 -51.3492L-4.32867 -51.3492Z" fill="url(#paint86_linear_5482_114133)"/>
<path d="M-4.46521 54.1884L-56.9614 106.751L-4.46523 159.313L-4.46521 54.1884Z" fill="url(#paint87_linear_5482_114133)"/>
<path d="M-215 159.313L-162.503 106.751L-215 54.1883L-215 159.313Z" fill="url(#paint88_linear_5482_114133)"/>
<path d="M-109.733 -51.2116L-162.229 1.35094L-109.733 53.9135L-109.733 -51.2116Z" fill="url(#paint89_linear_5482_114133)"/>
<path d="M-109.596 -51.3492L-57.0994 1.21335L-4.60315 -51.3492L-109.596 -51.3492Z" fill="url(#paint90_linear_5482_114133)"/>
<path d="M-109.596 159.451L-57.0994 212.013L-4.60321 159.451H-109.596Z" fill="url(#paint91_linear_5482_114133)"/>
<path d="M-214.863 -156.749L-162.366 -104.187L-109.87 -156.749L-214.863 -156.749Z" fill="url(#paint92_linear_5482_114133)"/>
<path d="M-109.733 370.113L-57.2369 317.551L-109.733 264.988L-109.733 370.113Z" fill="url(#paint93_linear_5482_114133)"/>
<path d="M-4.6032 54.0511L-57.0994 1.48854L-109.596 54.0511L-4.6032 54.0511Z" fill="url(#paint94_linear_5482_114133)"/>
<path d="M-4.60321 264.851L-57.0994 212.288L-109.596 264.851L-4.60321 264.851Z" fill="url(#paint95_linear_5482_114133)"/>
<path d="M-109.87 -51.3488L-162.366 -103.911L-214.863 -51.3488L-109.87 -51.3488Z" fill="url(#paint96_linear_5482_114133)"/>
<path d="M-4.46579 264.988L-56.962 317.551L-4.46581 370.113L-4.46579 264.988Z" fill="url(#paint97_linear_5482_114133)"/>
<path d="M100.801 -156.611L48.305 -104.049L100.801 -51.4864V-156.611Z" fill="url(#paint98_linear_5482_114133)"/>
<path d="M-109.733 -51.4864L-57.2363 -104.049L-109.733 -156.612L-109.733 -51.4864Z" fill="url(#paint99_linear_5482_114133)"/>
<path d="M-4.46588 -156.611L48.0304 -104.049L-4.4659 -51.4862L-56.9622 -104.049L-4.46588 -156.611Z" fill="url(#paint100_linear_5482_114133)"/>
<path d="M48.1676 159.588L100.664 212.151L48.1676 264.714L-4.3287 212.151L48.1676 159.588Z" fill="url(#paint101_linear_5482_114133)"/>
<path d="M-162.366 159.588L-109.87 212.151L-162.367 264.714L-214.863 212.151L-162.366 159.588Z" fill="url(#paint102_linear_5482_114133)"/>
<path d="M48.1676 264.988L100.664 317.551L48.1676 370.113L-4.3287 317.551L48.1676 264.988Z" fill="url(#paint103_linear_5482_114133)"/>
<path d="M-162.367 264.988L-109.87 317.551L-162.367 370.113L-214.863 317.551L-162.367 264.988Z" fill="url(#paint104_linear_5482_114133)"/>
<path d="M100.664 159.451L48.1676 106.889L-4.32869 159.451L100.664 159.451Z" fill="url(#paint105_linear_5482_114133)"/>
</g>
<defs>
<linearGradient id="paint0_linear_5482_114133" x1="17" y1="106.357" x2="1198" y2="106.357" gradientUnits="userSpaceOnUse">
<stop stop-color="#283C64"/>
<stop offset="1" stop-color="#283C64"/>
</linearGradient>
<linearGradient id="paint1_linear_5482_114133" x1="17" y1="106.357" x2="1198" y2="106.357" gradientUnits="userSpaceOnUse">
<stop stop-color="#283C64"/>
<stop offset="1" stop-color="#283C64"/>
</linearGradient>
<linearGradient id="paint2_linear_5482_114133" x1="17" y1="106.357" x2="1198" y2="106.357" gradientUnits="userSpaceOnUse">
<stop stop-color="#283C64"/>
<stop offset="1" stop-color="#283C64"/>
</linearGradient>
<linearGradient id="paint3_linear_5482_114133" x1="17" y1="106.357" x2="1198" y2="106.357" gradientUnits="userSpaceOnUse">
<stop stop-color="#283C64"/>
<stop offset="1" stop-color="#283C64"/>
</linearGradient>
<linearGradient id="paint4_linear_5482_114133" x1="17" y1="106.357" x2="1198" y2="106.357" gradientUnits="userSpaceOnUse">
<stop stop-color="#283C64"/>
<stop offset="1" stop-color="#283C64"/>
</linearGradient>
<linearGradient id="paint5_linear_5482_114133" x1="17" y1="106.357" x2="1198" y2="106.357" gradientUnits="userSpaceOnUse">
<stop stop-color="#283C64"/>
<stop offset="1" stop-color="#283C64"/>
</linearGradient>
<linearGradient id="paint6_linear_5482_114133" x1="17" y1="106.357" x2="1198" y2="106.357" gradientUnits="userSpaceOnUse">
<stop stop-color="#283C64"/>
<stop offset="1" stop-color="#283C64"/>
</linearGradient>
<linearGradient id="paint7_linear_5482_114133" x1="17" y1="106.357" x2="1198" y2="106.357" gradientUnits="userSpaceOnUse">
<stop stop-color="#283C64"/>
<stop offset="1" stop-color="#283C64"/>
</linearGradient>
<linearGradient id="paint8_linear_5482_114133" x1="17" y1="106.357" x2="1198" y2="106.357" gradientUnits="userSpaceOnUse">
<stop stop-color="#283C64"/>
<stop offset="1" stop-color="#283C64"/>
</linearGradient>
<linearGradient id="paint9_linear_5482_114133" x1="17" y1="106.357" x2="1198" y2="106.357" gradientUnits="userSpaceOnUse">
<stop stop-color="#283C64"/>
<stop offset="1" stop-color="#283C64"/>
</linearGradient>
<linearGradient id="paint10_linear_5482_114133" x1="17" y1="106.357" x2="1198" y2="106.357" gradientUnits="userSpaceOnUse">
<stop stop-color="#283C64"/>
<stop offset="1" stop-color="#283C64"/>
</linearGradient>
<linearGradient id="paint11_linear_5482_114133" x1="17" y1="106.357" x2="1198" y2="106.357" gradientUnits="userSpaceOnUse">
<stop stop-color="#283C64"/>
<stop offset="1" stop-color="#283C64"/>
</linearGradient>
<linearGradient id="paint12_linear_5482_114133" x1="17" y1="106.357" x2="1198" y2="106.357" gradientUnits="userSpaceOnUse">
<stop stop-color="#283C64"/>
<stop offset="1" stop-color="#283C64"/>
</linearGradient>
<linearGradient id="paint13_linear_5482_114133" x1="17" y1="106.357" x2="1198" y2="106.357" gradientUnits="userSpaceOnUse">
<stop stop-color="#283C64"/>
<stop offset="1" stop-color="#283C64"/>
</linearGradient>
<linearGradient id="paint14_linear_5482_114133" x1="17" y1="106.357" x2="1198" y2="106.357" gradientUnits="userSpaceOnUse">
<stop stop-color="#283C64"/>
<stop offset="1" stop-color="#283C64"/>
</linearGradient>
<linearGradient id="paint15_linear_5482_114133" x1="17" y1="106.357" x2="1198" y2="106.357" gradientUnits="userSpaceOnUse">
<stop stop-color="#283C64"/>
<stop offset="1" stop-color="#283C64"/>
</linearGradient>
<linearGradient id="paint16_linear_5482_114133" x1="17" y1="106.357" x2="1198" y2="106.357" gradientUnits="userSpaceOnUse">
<stop stop-color="#283C64"/>
<stop offset="1" stop-color="#283C64"/>
</linearGradient>
<linearGradient id="paint17_linear_5482_114133" x1="17" y1="106.357" x2="1198" y2="106.357" gradientUnits="userSpaceOnUse">
<stop stop-color="#283C64"/>
<stop offset="1" stop-color="#283C64"/>
</linearGradient>
<linearGradient id="paint18_linear_5482_114133" x1="17" y1="106.357" x2="1198" y2="106.357" gradientUnits="userSpaceOnUse">
<stop stop-color="#283C64"/>
<stop offset="1" stop-color="#283C64"/>
</linearGradient>
<linearGradient id="paint19_linear_5482_114133" x1="17" y1="106.357" x2="1198" y2="106.357" gradientUnits="userSpaceOnUse">
<stop stop-color="#283C64"/>
<stop offset="1" stop-color="#283C64"/>
</linearGradient>
<linearGradient id="paint20_linear_5482_114133" x1="17" y1="106.357" x2="1198" y2="106.357" gradientUnits="userSpaceOnUse">
<stop stop-color="#283C64"/>
<stop offset="1" stop-color="#283C64"/>
</linearGradient>
<linearGradient id="paint21_linear_5482_114133" x1="17" y1="106.357" x2="1198" y2="106.357" gradientUnits="userSpaceOnUse">
<stop stop-color="#283C64"/>
<stop offset="1" stop-color="#283C64"/>
</linearGradient>
<linearGradient id="paint22_linear_5482_114133" x1="17" y1="106.357" x2="1198" y2="106.357" gradientUnits="userSpaceOnUse">
<stop stop-color="#283C64"/>
<stop offset="1" stop-color="#283C64"/>
</linearGradient>
<linearGradient id="paint23_linear_5482_114133" x1="17" y1="106.357" x2="1198" y2="106.357" gradientUnits="userSpaceOnUse">
<stop stop-color="#283C64"/>
<stop offset="1" stop-color="#283C64"/>
</linearGradient>
<linearGradient id="paint24_linear_5482_114133" x1="17" y1="106.357" x2="1198" y2="106.357" gradientUnits="userSpaceOnUse">
<stop stop-color="#283C64"/>
<stop offset="1" stop-color="#283C64"/>
</linearGradient>
<linearGradient id="paint25_linear_5482_114133" x1="17" y1="106.357" x2="1198" y2="106.357" gradientUnits="userSpaceOnUse">
<stop stop-color="#283C64"/>
<stop offset="1" stop-color="#283C64"/>
</linearGradient>
<linearGradient id="paint26_linear_5482_114133" x1="17" y1="106.357" x2="1198" y2="106.357" gradientUnits="userSpaceOnUse">
<stop stop-color="#283C64"/>
<stop offset="1" stop-color="#283C64"/>
</linearGradient>
<linearGradient id="paint27_linear_5482_114133" x1="17" y1="106.357" x2="1198" y2="106.357" gradientUnits="userSpaceOnUse">
<stop stop-color="#283C64"/>
<stop offset="1" stop-color="#283C64"/>
</linearGradient>
<linearGradient id="paint28_linear_5482_114133" x1="17" y1="106.357" x2="1198" y2="106.357" gradientUnits="userSpaceOnUse">
<stop stop-color="#283C64"/>
<stop offset="1" stop-color="#283C64"/>
</linearGradient>
<linearGradient id="paint29_linear_5482_114133" x1="17" y1="106.357" x2="1198" y2="106.357" gradientUnits="userSpaceOnUse">
<stop stop-color="#283C64"/>
<stop offset="1" stop-color="#283C64"/>
</linearGradient>
<linearGradient id="paint30_linear_5482_114133" x1="17" y1="106.357" x2="1198" y2="106.357" gradientUnits="userSpaceOnUse">
<stop stop-color="#283C64"/>
<stop offset="1" stop-color="#283C64"/>
</linearGradient>
<linearGradient id="paint31_linear_5482_114133" x1="17" y1="106.357" x2="1198" y2="106.357" gradientUnits="userSpaceOnUse">
<stop stop-color="#283C64"/>
<stop offset="1" stop-color="#283C64"/>
</linearGradient>
<linearGradient id="paint32_linear_5482_114133" x1="17" y1="106.357" x2="1198" y2="106.357" gradientUnits="userSpaceOnUse">
<stop stop-color="#283C64"/>
<stop offset="1" stop-color="#283C64"/>
</linearGradient>
<linearGradient id="paint33_linear_5482_114133" x1="17" y1="106.357" x2="1198" y2="106.357" gradientUnits="userSpaceOnUse">
<stop stop-color="#283C64"/>
<stop offset="1" stop-color="#283C64"/>
</linearGradient>
<linearGradient id="paint34_linear_5482_114133" x1="17" y1="106.357" x2="1198" y2="106.357" gradientUnits="userSpaceOnUse">
<stop stop-color="#283C64"/>
<stop offset="1" stop-color="#283C64"/>
</linearGradient>
<linearGradient id="paint35_linear_5482_114133" x1="17" y1="106.357" x2="1198" y2="106.357" gradientUnits="userSpaceOnUse">
<stop stop-color="#283C64"/>
<stop offset="1" stop-color="#283C64"/>
</linearGradient>
<linearGradient id="paint36_linear_5482_114133" x1="17" y1="106.357" x2="1198" y2="106.357" gradientUnits="userSpaceOnUse">
<stop stop-color="#283C64"/>
<stop offset="1" stop-color="#283C64"/>
</linearGradient>
<linearGradient id="paint37_linear_5482_114133" x1="17" y1="106.357" x2="1198" y2="106.357" gradientUnits="userSpaceOnUse">
<stop stop-color="#283C64"/>
<stop offset="1" stop-color="#283C64"/>
</linearGradient>
<linearGradient id="paint38_linear_5482_114133" x1="17" y1="106.357" x2="1198" y2="106.357" gradientUnits="userSpaceOnUse">
<stop stop-color="#283C64"/>
<stop offset="1" stop-color="#283C64"/>
</linearGradient>
<linearGradient id="paint39_linear_5482_114133" x1="17" y1="106.357" x2="1198" y2="106.357" gradientUnits="userSpaceOnUse">
<stop stop-color="#283C64"/>
<stop offset="1" stop-color="#283C64"/>
</linearGradient>
<linearGradient id="paint40_linear_5482_114133" x1="17" y1="106.357" x2="1198" y2="106.357" gradientUnits="userSpaceOnUse">
<stop stop-color="#283C64"/>
<stop offset="1" stop-color="#283C64"/>
</linearGradient>
<linearGradient id="paint41_linear_5482_114133" x1="17" y1="106.357" x2="1198" y2="106.357" gradientUnits="userSpaceOnUse">
<stop stop-color="#283C64"/>
<stop offset="1" stop-color="#283C64"/>
</linearGradient>
<linearGradient id="paint42_linear_5482_114133" x1="17" y1="106.357" x2="1198" y2="106.357" gradientUnits="userSpaceOnUse">
<stop stop-color="#283C64"/>
<stop offset="1" stop-color="#283C64"/>
</linearGradient>
<linearGradient id="paint43_linear_5482_114133" x1="17" y1="106.357" x2="1198" y2="106.357" gradientUnits="userSpaceOnUse">
<stop stop-color="#283C64"/>
<stop offset="1" stop-color="#283C64"/>
</linearGradient>
<linearGradient id="paint44_linear_5482_114133" x1="17" y1="106.357" x2="1198" y2="106.357" gradientUnits="userSpaceOnUse">
<stop stop-color="#283C64"/>
<stop offset="1" stop-color="#283C64"/>
</linearGradient>
<linearGradient id="paint45_linear_5482_114133" x1="17" y1="106.357" x2="1198" y2="106.357" gradientUnits="userSpaceOnUse">
<stop stop-color="#283C64"/>
<stop offset="1" stop-color="#283C64"/>
</linearGradient>
<linearGradient id="paint46_linear_5482_114133" x1="17" y1="106.357" x2="1198" y2="106.357" gradientUnits="userSpaceOnUse">
<stop stop-color="#283C64"/>
<stop offset="1" stop-color="#283C64"/>
</linearGradient>
<linearGradient id="paint47_linear_5482_114133" x1="17" y1="106.357" x2="1198" y2="106.357" gradientUnits="userSpaceOnUse">
<stop stop-color="#283C64"/>
<stop offset="1" stop-color="#283C64"/>
</linearGradient>
<linearGradient id="paint48_linear_5482_114133" x1="17" y1="106.357" x2="1198" y2="106.357" gradientUnits="userSpaceOnUse">
<stop stop-color="#283C64"/>
<stop offset="1" stop-color="#283C64"/>
</linearGradient>
<linearGradient id="paint49_linear_5482_114133" x1="17" y1="106.357" x2="1198" y2="106.357" gradientUnits="userSpaceOnUse">
<stop stop-color="#283C64"/>
<stop offset="1" stop-color="#283C64"/>
</linearGradient>
<linearGradient id="paint50_linear_5482_114133" x1="17" y1="106.357" x2="1198" y2="106.357" gradientUnits="userSpaceOnUse">
<stop stop-color="#283C64"/>
<stop offset="1" stop-color="#283C64"/>
</linearGradient>
<linearGradient id="paint51_linear_5482_114133" x1="17" y1="106.357" x2="1198" y2="106.357" gradientUnits="userSpaceOnUse">
<stop stop-color="#283C64"/>
<stop offset="1" stop-color="#283C64"/>
</linearGradient>
<linearGradient id="paint52_linear_5482_114133" x1="17" y1="106.357" x2="1198" y2="106.357" gradientUnits="userSpaceOnUse">
<stop stop-color="#283C64"/>
<stop offset="1" stop-color="#283C64"/>
</linearGradient>
<linearGradient id="paint53_linear_5482_114133" x1="17" y1="106.357" x2="1198" y2="106.357" gradientUnits="userSpaceOnUse">
<stop stop-color="#283C64"/>
<stop offset="1" stop-color="#283C64"/>
</linearGradient>
<linearGradient id="paint54_linear_5482_114133" x1="17" y1="106.357" x2="1198" y2="106.357" gradientUnits="userSpaceOnUse">
<stop stop-color="#283C64"/>
<stop offset="1" stop-color="#283C64"/>
</linearGradient>
<linearGradient id="paint55_linear_5482_114133" x1="17" y1="106.357" x2="1198" y2="106.357" gradientUnits="userSpaceOnUse">
<stop stop-color="#283C64"/>
<stop offset="1" stop-color="#283C64"/>
</linearGradient>
<linearGradient id="paint56_linear_5482_114133" x1="17" y1="106.357" x2="1198" y2="106.357" gradientUnits="userSpaceOnUse">
<stop stop-color="#283C64"/>
<stop offset="1" stop-color="#283C64"/>
</linearGradient>
<linearGradient id="paint57_linear_5482_114133" x1="17" y1="106.357" x2="1198" y2="106.357" gradientUnits="userSpaceOnUse">
<stop stop-color="#283C64"/>
<stop offset="1" stop-color="#283C64"/>
</linearGradient>
<linearGradient id="paint58_linear_5482_114133" x1="17" y1="106.357" x2="1198" y2="106.357" gradientUnits="userSpaceOnUse">
<stop stop-color="#283C64"/>
<stop offset="1" stop-color="#283C64"/>
</linearGradient>
<linearGradient id="paint59_linear_5482_114133" x1="17" y1="106.357" x2="1198" y2="106.357" gradientUnits="userSpaceOnUse">
<stop stop-color="#283C64"/>
<stop offset="1" stop-color="#283C64"/>
</linearGradient>
<linearGradient id="paint60_linear_5482_114133" x1="17" y1="106.357" x2="1198" y2="106.357" gradientUnits="userSpaceOnUse">
<stop stop-color="#283C64"/>
<stop offset="1" stop-color="#283C64"/>
</linearGradient>
<linearGradient id="paint61_linear_5482_114133" x1="17" y1="106.357" x2="1198" y2="106.357" gradientUnits="userSpaceOnUse">
<stop stop-color="#283C64"/>
<stop offset="1" stop-color="#283C64"/>
</linearGradient>
<linearGradient id="paint62_linear_5482_114133" x1="17" y1="106.357" x2="1198" y2="106.357" gradientUnits="userSpaceOnUse">
<stop stop-color="#283C64"/>
<stop offset="1" stop-color="#283C64"/>
</linearGradient>
<linearGradient id="paint63_linear_5482_114133" x1="17" y1="106.357" x2="1198" y2="106.357" gradientUnits="userSpaceOnUse">
<stop stop-color="#283C64"/>
<stop offset="1" stop-color="#283C64"/>
</linearGradient>
<linearGradient id="paint64_linear_5482_114133" x1="17" y1="106.357" x2="1198" y2="106.357" gradientUnits="userSpaceOnUse">
<stop stop-color="#283C64"/>
<stop offset="1" stop-color="#283C64"/>
</linearGradient>
<linearGradient id="paint65_linear_5482_114133" x1="17" y1="106.357" x2="1198" y2="106.357" gradientUnits="userSpaceOnUse">
<stop stop-color="#283C64"/>
<stop offset="1" stop-color="#283C64"/>
</linearGradient>
<linearGradient id="paint66_linear_5482_114133" x1="17" y1="106.357" x2="1198" y2="106.357" gradientUnits="userSpaceOnUse">
<stop stop-color="#283C64"/>
<stop offset="1" stop-color="#283C64"/>
</linearGradient>
<linearGradient id="paint67_linear_5482_114133" x1="17" y1="106.357" x2="1198" y2="106.357" gradientUnits="userSpaceOnUse">
<stop stop-color="#283C64"/>
<stop offset="1" stop-color="#283C64"/>
</linearGradient>
<linearGradient id="paint68_linear_5482_114133" x1="17" y1="106.357" x2="1198" y2="106.357" gradientUnits="userSpaceOnUse">
<stop stop-color="#283C64"/>
<stop offset="1" stop-color="#283C64"/>
</linearGradient>
<linearGradient id="paint69_linear_5482_114133" x1="17" y1="106.357" x2="1198" y2="106.357" gradientUnits="userSpaceOnUse">
<stop stop-color="#283C64"/>
<stop offset="1" stop-color="#283C64"/>
</linearGradient>
<linearGradient id="paint70_linear_5482_114133" x1="17" y1="106.357" x2="1198" y2="106.357" gradientUnits="userSpaceOnUse">
<stop stop-color="#283C64"/>
<stop offset="1" stop-color="#283C64"/>
</linearGradient>
<linearGradient id="paint71_linear_5482_114133" x1="17" y1="106.357" x2="1198" y2="106.357" gradientUnits="userSpaceOnUse">
<stop stop-color="#283C64"/>
<stop offset="1" stop-color="#283C64"/>
</linearGradient>
<linearGradient id="paint72_linear_5482_114133" x1="17" y1="106.357" x2="1198" y2="106.357" gradientUnits="userSpaceOnUse">
<stop stop-color="#283C64"/>
<stop offset="1" stop-color="#283C64"/>
</linearGradient>
<linearGradient id="paint73_linear_5482_114133" x1="17" y1="106.357" x2="1198" y2="106.357" gradientUnits="userSpaceOnUse">
<stop stop-color="#283C64"/>
<stop offset="1" stop-color="#283C64"/>
</linearGradient>
<linearGradient id="paint74_linear_5482_114133" x1="17" y1="106.357" x2="1198" y2="106.357" gradientUnits="userSpaceOnUse">
<stop stop-color="#283C64"/>
<stop offset="1" stop-color="#283C64"/>
</linearGradient>
<linearGradient id="paint75_linear_5482_114133" x1="17" y1="106.357" x2="1198" y2="106.357" gradientUnits="userSpaceOnUse">
<stop stop-color="#283C64"/>
<stop offset="1" stop-color="#283C64"/>
</linearGradient>
<linearGradient id="paint76_linear_5482_114133" x1="17" y1="106.357" x2="1198" y2="106.357" gradientUnits="userSpaceOnUse">
<stop stop-color="#283C64"/>
<stop offset="1" stop-color="#283C64"/>
</linearGradient>
<linearGradient id="paint77_linear_5482_114133" x1="17" y1="106.357" x2="1198" y2="106.357" gradientUnits="userSpaceOnUse">
<stop stop-color="#283C64"/>
<stop offset="1" stop-color="#283C64"/>
</linearGradient>
<linearGradient id="paint78_linear_5482_114133" x1="17" y1="106.357" x2="1198" y2="106.357" gradientUnits="userSpaceOnUse">
<stop stop-color="#283C64"/>
<stop offset="1" stop-color="#283C64"/>
</linearGradient>
<linearGradient id="paint79_linear_5482_114133" x1="17" y1="106.357" x2="1198" y2="106.357" gradientUnits="userSpaceOnUse">
<stop stop-color="#283C64"/>
<stop offset="1" stop-color="#283C64"/>
</linearGradient>
<linearGradient id="paint80_linear_5482_114133" x1="17" y1="106.357" x2="1198" y2="106.357" gradientUnits="userSpaceOnUse">
<stop stop-color="#283C64"/>
<stop offset="1" stop-color="#283C64"/>
</linearGradient>
<linearGradient id="paint81_linear_5482_114133" x1="17" y1="106.357" x2="1198" y2="106.357" gradientUnits="userSpaceOnUse">
<stop stop-color="#283C64"/>
<stop offset="1" stop-color="#283C64"/>
</linearGradient>
<linearGradient id="paint82_linear_5482_114133" x1="17" y1="106.357" x2="1198" y2="106.357" gradientUnits="userSpaceOnUse">
<stop stop-color="#283C64"/>
<stop offset="1" stop-color="#283C64"/>
</linearGradient>
<linearGradient id="paint83_linear_5482_114133" x1="17" y1="106.357" x2="1198" y2="106.357" gradientUnits="userSpaceOnUse">
<stop stop-color="#283C64"/>
<stop offset="1" stop-color="#283C64"/>
</linearGradient>
<linearGradient id="paint84_linear_5482_114133" x1="17" y1="106.357" x2="1198" y2="106.357" gradientUnits="userSpaceOnUse">
<stop stop-color="#283C64"/>
<stop offset="1" stop-color="#283C64"/>
</linearGradient>
<linearGradient id="paint85_linear_5482_114133" x1="17" y1="106.357" x2="1198" y2="106.357" gradientUnits="userSpaceOnUse">
<stop stop-color="#283C64"/>
<stop offset="1" stop-color="#283C64"/>
</linearGradient>
<linearGradient id="paint86_linear_5482_114133" x1="17" y1="106.357" x2="1198" y2="106.357" gradientUnits="userSpaceOnUse">
<stop stop-color="#283C64"/>
<stop offset="1" stop-color="#283C64"/>
</linearGradient>
<linearGradient id="paint87_linear_5482_114133" x1="17" y1="106.357" x2="1198" y2="106.357" gradientUnits="userSpaceOnUse">
<stop stop-color="#283C64"/>
<stop offset="1" stop-color="#283C64"/>
</linearGradient>
<linearGradient id="paint88_linear_5482_114133" x1="17" y1="106.357" x2="1198" y2="106.357" gradientUnits="userSpaceOnUse">
<stop stop-color="#283C64"/>
<stop offset="1" stop-color="#283C64"/>
</linearGradient>
<linearGradient id="paint89_linear_5482_114133" x1="17" y1="106.357" x2="1198" y2="106.357" gradientUnits="userSpaceOnUse">
<stop stop-color="#283C64"/>
<stop offset="1" stop-color="#283C64"/>
</linearGradient>
<linearGradient id="paint90_linear_5482_114133" x1="17" y1="106.357" x2="1198" y2="106.357" gradientUnits="userSpaceOnUse">
<stop stop-color="#283C64"/>
<stop offset="1" stop-color="#283C64"/>
</linearGradient>
<linearGradient id="paint91_linear_5482_114133" x1="17" y1="106.357" x2="1198" y2="106.357" gradientUnits="userSpaceOnUse">
<stop stop-color="#283C64"/>
<stop offset="1" stop-color="#283C64"/>
</linearGradient>
<linearGradient id="paint92_linear_5482_114133" x1="17" y1="106.357" x2="1198" y2="106.357" gradientUnits="userSpaceOnUse">
<stop stop-color="#283C64"/>
<stop offset="1" stop-color="#283C64"/>
</linearGradient>
<linearGradient id="paint93_linear_5482_114133" x1="17" y1="106.357" x2="1198" y2="106.357" gradientUnits="userSpaceOnUse">
<stop stop-color="#283C64"/>
<stop offset="1" stop-color="#283C64"/>
</linearGradient>
<linearGradient id="paint94_linear_5482_114133" x1="17" y1="106.357" x2="1198" y2="106.357" gradientUnits="userSpaceOnUse">
<stop stop-color="#283C64"/>
<stop offset="1" stop-color="#283C64"/>
</linearGradient>
<linearGradient id="paint95_linear_5482_114133" x1="17" y1="106.357" x2="1198" y2="106.357" gradientUnits="userSpaceOnUse">
<stop stop-color="#283C64"/>
<stop offset="1" stop-color="#283C64"/>
</linearGradient>
<linearGradient id="paint96_linear_5482_114133" x1="17" y1="106.357" x2="1198" y2="106.357" gradientUnits="userSpaceOnUse">
<stop stop-color="#283C64"/>
<stop offset="1" stop-color="#283C64"/>
</linearGradient>
<linearGradient id="paint97_linear_5482_114133" x1="17" y1="106.357" x2="1198" y2="106.357" gradientUnits="userSpaceOnUse">
<stop stop-color="#283C64"/>
<stop offset="1" stop-color="#283C64"/>
</linearGradient>
<linearGradient id="paint98_linear_5482_114133" x1="17" y1="106.357" x2="1198" y2="106.357" gradientUnits="userSpaceOnUse">
<stop stop-color="#283C64"/>
<stop offset="1" stop-color="#283C64"/>
</linearGradient>
<linearGradient id="paint99_linear_5482_114133" x1="17" y1="106.357" x2="1198" y2="106.357" gradientUnits="userSpaceOnUse">
<stop stop-color="#283C64"/>
<stop offset="1" stop-color="#283C64"/>
</linearGradient>
<linearGradient id="paint100_linear_5482_114133" x1="17" y1="106.357" x2="1198" y2="106.357" gradientUnits="userSpaceOnUse">
<stop stop-color="#283C64"/>
<stop offset="1" stop-color="#283C64"/>
</linearGradient>
<linearGradient id="paint101_linear_5482_114133" x1="17" y1="106.357" x2="1198" y2="106.357" gradientUnits="userSpaceOnUse">
<stop stop-color="#283C64"/>
<stop offset="1" stop-color="#283C64"/>
</linearGradient>
<linearGradient id="paint102_linear_5482_114133" x1="17" y1="106.357" x2="1198" y2="106.357" gradientUnits="userSpaceOnUse">
<stop stop-color="#283C64"/>
<stop offset="1" stop-color="#283C64"/>
</linearGradient>
<linearGradient id="paint103_linear_5482_114133" x1="17" y1="106.357" x2="1198" y2="106.357" gradientUnits="userSpaceOnUse">
<stop stop-color="#283C64"/>
<stop offset="1" stop-color="#283C64"/>
</linearGradient>
<linearGradient id="paint104_linear_5482_114133" x1="17" y1="106.357" x2="1198" y2="106.357" gradientUnits="userSpaceOnUse">
<stop stop-color="#283C64"/>
<stop offset="1" stop-color="#283C64"/>
</linearGradient>
<linearGradient id="paint105_linear_5482_114133" x1="17" y1="106.357" x2="1198" y2="106.357" gradientUnits="userSpaceOnUse">
<stop stop-color="#283C64"/>
<stop offset="1" stop-color="#283C64"/>
</linearGradient>
</defs>
</svg>
