<svg width="594" height="77" viewBox="0 0 594 77" fill="none" xmlns="http://www.w3.org/2000/svg">
<g clip-path="url(#clip0_6568_9987)">
<path d="M16.5 1.80289e-05L55 38.5L16.5 77L-22 38.5L16.5 1.80289e-05Z" fill="url(#paint0_linear_6568_9987)"/>
<path d="M555.5 1.80289e-05L594 38.5L555.5 77L517 38.5L555.5 1.80289e-05Z" fill="url(#paint1_linear_6568_9987)"/>
<path d="M55 38.5L93.5 3.68579e-05L55 1.6346e-05L55 38.5Z" fill="url(#paint2_linear_6568_9987)"/>
<path d="M286 38.5L324.5 3.68579e-05L286 1.6346e-05L286 38.5Z" fill="url(#paint3_linear_6568_9987)"/>
<path d="M170.5 0L209 38.5L209 3.36578e-06L170.5 0Z" fill="url(#paint4_linear_6568_9987)"/>
<path d="M401.5 0L440 38.5L440 3.36578e-06L401.5 0Z" fill="url(#paint5_linear_6568_9987)"/>
<path d="M170.5 77L132 38.5L132 77H170.5Z" fill="url(#paint6_linear_6568_9987)"/>
<path d="M286 38.5L247.5 77L286 77L286 38.5Z" fill="url(#paint7_linear_6568_9987)"/>
<path d="M93.5 77L132 38.5L55 38.5L93.5 77Z" fill="url(#paint8_linear_6568_9987)"/>
<path d="M132 38.5L170.5 0L93.5 3.68579e-05L132 38.5Z" fill="url(#paint9_linear_6568_9987)"/>
<path d="M363 38.5L401.5 0L324.5 3.68579e-05L363 38.5Z" fill="url(#paint10_linear_6568_9987)"/>
<path d="M209 38.5L170.5 77L247.5 77L209 38.5Z" fill="url(#paint11_linear_6568_9987)"/>
<path d="M324.5 38.5L286 77H363L324.5 38.5Z" fill="url(#paint12_linear_6568_9987)"/>
<path d="M401.5 77L440 38.5L363 38.5L401.5 77Z" fill="url(#paint13_linear_6568_9987)"/>
<path d="M247.5 3.01263e-05L209 38.5L286 38.5L247.5 3.01263e-05Z" fill="url(#paint14_linear_6568_9987)"/>
<path d="M478.5 3.01263e-05L440 38.5L478.5 38.5L517 38.5L478.5 3.01263e-05Z" fill="url(#paint15_linear_6568_9987)"/>
<path d="M478.5 38.5L440 77L517 77L478.5 38.5Z" fill="url(#paint16_linear_6568_9987)"/>
</g>
<defs>
<linearGradient id="paint0_linear_6568_9987" x1="112.805" y1="38.5504" x2="463.004" y2="38.0242" gradientUnits="userSpaceOnUse">
<stop stop-color="#E5F0F8"/>
<stop offset="1" stop-color="#AACBE9"/>
</linearGradient>
<linearGradient id="paint1_linear_6568_9987" x1="112.805" y1="38.5504" x2="463.004" y2="38.0242" gradientUnits="userSpaceOnUse">
<stop stop-color="#E5F0F8"/>
<stop offset="1" stop-color="#AACBE9"/>
</linearGradient>
<linearGradient id="paint2_linear_6568_9987" x1="112.805" y1="38.5504" x2="463.004" y2="38.0242" gradientUnits="userSpaceOnUse">
<stop stop-color="#E5F0F8"/>
<stop offset="1" stop-color="#AACBE9"/>
</linearGradient>
<linearGradient id="paint3_linear_6568_9987" x1="112.805" y1="38.5504" x2="463.004" y2="38.0242" gradientUnits="userSpaceOnUse">
<stop stop-color="#E5F0F8"/>
<stop offset="1" stop-color="#AACBE9"/>
</linearGradient>
<linearGradient id="paint4_linear_6568_9987" x1="112.805" y1="38.5504" x2="463.004" y2="38.0242" gradientUnits="userSpaceOnUse">
<stop stop-color="#E5F0F8"/>
<stop offset="1" stop-color="#AACBE9"/>
</linearGradient>
<linearGradient id="paint5_linear_6568_9987" x1="112.805" y1="38.5504" x2="463.004" y2="38.0242" gradientUnits="userSpaceOnUse">
<stop stop-color="#E5F0F8"/>
<stop offset="1" stop-color="#AACBE9"/>
</linearGradient>
<linearGradient id="paint6_linear_6568_9987" x1="112.805" y1="38.5504" x2="463.004" y2="38.0242" gradientUnits="userSpaceOnUse">
<stop stop-color="#E5F0F8"/>
<stop offset="1" stop-color="#AACBE9"/>
</linearGradient>
<linearGradient id="paint7_linear_6568_9987" x1="112.805" y1="38.5504" x2="463.004" y2="38.0242" gradientUnits="userSpaceOnUse">
<stop stop-color="#E5F0F8"/>
<stop offset="1" stop-color="#AACBE9"/>
</linearGradient>
<linearGradient id="paint8_linear_6568_9987" x1="112.805" y1="38.5504" x2="463.004" y2="38.0242" gradientUnits="userSpaceOnUse">
<stop stop-color="#E5F0F8"/>
<stop offset="1" stop-color="#AACBE9"/>
</linearGradient>
<linearGradient id="paint9_linear_6568_9987" x1="112.805" y1="38.5504" x2="463.004" y2="38.0242" gradientUnits="userSpaceOnUse">
<stop stop-color="#E5F0F8"/>
<stop offset="1" stop-color="#AACBE9"/>
</linearGradient>
<linearGradient id="paint10_linear_6568_9987" x1="112.805" y1="38.5504" x2="463.004" y2="38.0242" gradientUnits="userSpaceOnUse">
<stop stop-color="#E5F0F8"/>
<stop offset="1" stop-color="#AACBE9"/>
</linearGradient>
<linearGradient id="paint11_linear_6568_9987" x1="112.805" y1="38.5504" x2="463.004" y2="38.0242" gradientUnits="userSpaceOnUse">
<stop stop-color="#E5F0F8"/>
<stop offset="1" stop-color="#AACBE9"/>
</linearGradient>
<linearGradient id="paint12_linear_6568_9987" x1="112.805" y1="38.5504" x2="463.004" y2="38.0242" gradientUnits="userSpaceOnUse">
<stop stop-color="#E5F0F8"/>
<stop offset="1" stop-color="#AACBE9"/>
</linearGradient>
<linearGradient id="paint13_linear_6568_9987" x1="112.805" y1="38.5504" x2="463.004" y2="38.0242" gradientUnits="userSpaceOnUse">
<stop stop-color="#E5F0F8"/>
<stop offset="1" stop-color="#AACBE9"/>
</linearGradient>
<linearGradient id="paint14_linear_6568_9987" x1="112.805" y1="38.5504" x2="463.004" y2="38.0242" gradientUnits="userSpaceOnUse">
<stop stop-color="#E5F0F8"/>
<stop offset="1" stop-color="#AACBE9"/>
</linearGradient>
<linearGradient id="paint15_linear_6568_9987" x1="112.805" y1="38.5504" x2="463.004" y2="38.0242" gradientUnits="userSpaceOnUse">
<stop stop-color="#E5F0F8"/>
<stop offset="1" stop-color="#AACBE9"/>
</linearGradient>
<linearGradient id="paint16_linear_6568_9987" x1="112.805" y1="38.5504" x2="463.004" y2="38.0242" gradientUnits="userSpaceOnUse">
<stop stop-color="#E5F0F8"/>
<stop offset="1" stop-color="#AACBE9"/>
</linearGradient>
<clipPath id="clip0_6568_9987">
<rect width="594" height="77" fill="white"/>
</clipPath>
</defs>
</svg>
