<svg width="464" height="250" xmlns="http://www.w3.org/2000/svg"><path d="M287.036 202.234l67.671 41.307a18.166 18.166 0 009.467 2.68c3.323 0 6.588-.925 9.466-2.68l71.961-43.887c2.878-1.755 5.268-4.28 6.93-7.32a20.883 20.883 0 002.536-10V94.561c0-3.51-.874-6.96-2.536-10s-4.052-5.566-6.93-7.32L404.83 52.374M257.149 184l19.881 12.129" stroke="#5452CE" stroke-width="2" stroke-linecap="round" fill="none"/><path d="M291.788 175.611v-69.613c0-3.511.875-6.96 2.537-10s4.052-5.565 6.93-7.32l53.453-32.6a18.163 18.163 0 019.467-2.68c3.323 0 6.588.925 9.466 2.68l53.453 32.6c2.878 1.755 5.268 4.28 6.93 7.32a20.87 20.87 0 012.537 10v39.861m-162.778 25.374l80.925 49.885a18.165 18.165 0 009.467 2.679c3.323 0 6.588-.924 9.466-2.679l24.089-14.691m12.408-7.568l16.956-10.341c2.878-1.755 5.268-4.28 6.93-7.32a20.873 20.873 0 002.537-10v-12.339M369.803 245.359c-8.52 3-14.917 4.332-20.775.759l-28.616-17.64m-16.305-10.051c-18.641-11.493-44.524-27.193-44.524-27.193" stroke="#5452CE" stroke-width="2" stroke-linecap="round" fill="none"/><path fill-rule="evenodd" clip-rule="evenodd" d="M365.644 117.853L310.636 179l55.008-94 54.607 94-54.607-61.147zm-24.783 41.523l8.791-9.812h31.834l8.791 9.812h-49.416zm15.046-16.64l9.724-10.524 9.59 10.524h-19.314z" fill="var(--migration-banner-hint-200, #D6D5FF)"/><path d="M365.644 117.853l.746-.666-.743-.832-.746.829.743.669zM310.636 179l-.863-.505 1.607 1.174-.744-.669zm55.008-94l.865-.502-.862-1.483-.866 1.48.863.505zm54.607 94l-.746.666 1.611-1.168-.865.502zm-79.39-19.624l-.745-.667-1.494 1.667h2.239v-1zm8.791-9.812v-1h-.447l-.298.333.745.667zm31.834 0l.745-.667-.298-.333h-.447v1zm8.791 9.812v1h2.238l-1.493-1.667-.745.667zm-34.37-16.64l-.735-.679-1.551 1.679h2.286v-1zm9.724-10.524l.739-.673-.734-.806-.739.801.734.678zm9.59 10.524v1h2.264l-1.525-1.674-.739.674zm-10.32-25.552l-55.008 61.147 1.487 1.338 55.007-61.147-1.486-1.338zm-53.402 62.321l55.008-94-1.726-1.01-55.008 94 1.726 1.01zm53.28-94.003l54.608 94 1.729-1.004-54.607-94-1.73 1.004zm56.218 92.832l-54.607-61.147-1.492 1.332 54.607 61.147 1.492-1.332zm-79.391-18.291l8.791-9.812-1.49-1.334-8.791 9.812 1.49 1.334zm8.046-9.479h31.834v-2h-31.834v2zm31.089-.333l8.791 9.812 1.49-1.334-8.791-9.812-1.49 1.334zm9.536 8.145h-49.416v2h49.416v-2zm-33.636-14.961l9.725-10.524-1.469-1.357-9.725 10.523 1.469 1.358zm8.251-10.529l9.589 10.523 1.479-1.347-9.59-10.523-1.478 1.347zm10.329 8.85h-19.314v2h19.314v-2z" fill="#5452CE"/><path d="M90.425 131.737s21.43-13.509 34.866-38.092a436.488 436.488 0 0018.798-38.247s-21.963 45.149-43.481 41c-8.398 24.928-10.183 35.339-10.183 35.339z" fill="var(--migration-banner-danger-200, #FEB8AE)"/><path d="M159.709 120.508s22.018 8 48.955-51.016c-2.32 6.842-9.845 25.728-22.387 48.67-16.031 29.333-34.302 47.339-34.302 47.339s-7.354-2.345 7.734-44.993zM253.661 97.68s-15.133 37.289-27.426 27.048c-1.206 2.207-4.872 14.631-4.525 24.874.167 4.964 3.037-4.529 5.827-2 4.26-1.5 6.153-3 8.923-4 3.624-7.643 7.385-16.432 9.94-23.64 6.065-17.11 7.261-22.282 7.261-22.282z" fill="var(--migration-banner-hint-200, #D6D5FF)"/><path d="M84.515 127.973l6.049-44.223M88.546 66.618c-1.618 10.756-6.239 48.7-7.415 58.544-1.175 9.844 6.404 9.034 12.584 3.964s26.654-19.034 49.427-73.728" stroke="#DE5846" stroke-width="2" stroke-linecap="round" fill="none"/><path d="M57.434 144.098c-.33 6.635 12.856 28.17 40.99 12.387 28.136-15.783 49.175-47.755 68.583-89.5 12.319-26.495 10.683-45.42 3.238-52.188" stroke="#DE5846" stroke-width="2" stroke-linecap="round" fill="none"/><path d="M87.27 166.207s34.416-3.283 72.123-72.274c14.906-27.271 29.608-67.69 10.325-79.451C150.435 2.72 109.615 48.39 90.55 127.202M110.877 159.732s-2.177 15.736 7.755 21.794 47.503-9.085 90.334-112.589" stroke="#DE5846" stroke-width="2" stroke-linecap="round" fill="none"/><path d="M89.248 171.025s-2.23 23.124 13.669 32.821c15.032 9.167 44.709 22 98.125-60.784" stroke="#DE5846" stroke-width="2" stroke-linecap="round" fill="none"/><path d="M210.526 127.762a229.14 229.14 0 0010.931-21.188c13.234-28.878 25.811-68.438 12.343-76.652" stroke="#5452CE" stroke-width="2" stroke-linecap="round" fill="none"/><path d="M128.306 216.654s40.874-1.621 90.735-92.849c9.583-17.534 37.712-79.883 14.757-93.882-6.266-3.821-14.672-.73-23.777 7.074M149.66 158.161c4.075-27.215 15.903-57.24 29.895-81.56" stroke="#5452CE" stroke-width="2" stroke-linecap="round" fill="none"/><path d="M154.51 207.124s35.689 60.322 100.526-42.565c27.766-44.058 26.329-81.138 18.77-85.746" stroke="#5452CE" stroke-width="2" stroke-linecap="round" fill="none"/><path d="M196.77 227.798s30.009-3.3 63.933-60.43c28.068-47.264 24.979-81.322 13.632-88.24-20.688-12.614-53.905 39.75-52.645 70.474" stroke="#5452CE" stroke-width="2" stroke-linecap="round" fill="none"/><path d="M174.05 189.359c.641 6.099 11.13 11.94 26.03 2.342m53.881-94.576c-5.768 18.102-12.08 34.101-17.908 46.477" stroke="#5452CE" stroke-width="2" stroke-linecap="round" fill="none"/><path d="M60.74 87.937c-14.05-8.396-31.342-4.612-38.624 8.45-7.283 13.063-1.797 30.459 12.254 38.856 14.05 8.398 31.342 4.612 38.624-8.45 7.282-13.063 1.794-30.462-12.254-38.856z" stroke="#DE5846" stroke-width="2" stroke-linecap="round" fill="none"/><path d="M59.447 89.64c-12.641-7.553-28.2-4.15-34.752 7.604-6.552 11.753-1.616 27.405 11.025 34.959 12.64 7.554 28.2 4.15 34.752-7.603 6.552-11.754 1.615-27.405-11.025-34.96z" stroke="var(--migration-banner-primary-300, #99C7EE)" stroke-width="2" stroke-linecap="round" fill="none"/><path d="M38.714 129.071c.593-2.276 5.932-24.751 5.932-24.751.083-.267.133-.416.55-.202 0 0 22.18 13.03 22.573 13.192.249.103.31.002.019-.25-1.876-1.632-26.399-21.156-26.399-21.156-.16-.144-.26-.068-.282.1 0 0-2.67 32.017-2.655 33.044.002.17.06.277.127.257.046-.013.096-.085.135-.234zm6.141-9.213l11.998-4.44a.155.155 0 00.062-.219.132.132 0 00-.062-.053 824.386 824.386 0 00-3.113-1.911.435.435 0 00-.38-.029c-.116.043-7.665 2.762-7.785 2.807a.519.519 0 00-.278.363c-.03.156-.5 3.069-.541 3.242-.043.173.004.267.09.242l.009-.002z" fill="var(--migration-banner-danger-100, #FFE0DA)"/><path d="M45.516 113.104c-.132.049-.2.022-.127-.285.073-.307.968-4.19.97-4.396.002-.206.163-.35.466-.17.303.181 3.87 2.262 4.062 2.372.191.111.384.351.213.414l-5.584 2.065z" fill="var(--migration-banner-danger-100, #FFE0DA)"/><path d="M38.714 129.071c.593-2.276 5.932-24.751 5.932-24.751.083-.267.133-.416.55-.202 0 0 22.18 13.03 22.573 13.192.249.103.31.002.019-.25-1.876-1.632-26.399-21.156-26.399-21.156-.16-.144-.26-.068-.282.1 0 0-2.67 32.017-2.655 33.044.002.17.06.277.127.257.046-.013.096-.085.135-.234zm6.141-9.213l11.998-4.44a.155.155 0 00.062-.219.132.132 0 00-.062-.053 824.386 824.386 0 00-3.113-1.911.435.435 0 00-.38-.029c-.116.043-7.665 2.762-7.785 2.807a.519.519 0 00-.278.363c-.03.156-.5 3.069-.541 3.242-.043.173.004.267.09.242l.009-.002z" stroke="#DE5846" stroke-width="2" fill="none"/><path d="M45.516 113.104c-.132.049-.2.022-.127-.285.073-.307.968-4.19.97-4.396.002-.206.163-.35.466-.17.303.181 3.87 2.262 4.062 2.372.191.111.384.351.213.414l-5.584 2.065z" stroke="#DE5846" stroke-width="2" fill="none"/><path d="M22.047 96.538s-2.967 4.929-3.453 5.798c-3.005 5.481-3.968 11.898-2.696 17.981m2.512 7.451c2.821 5.67 7.14 10.341 12.453 13.469m3.597 1.858c13.303 5.849 28.398 1.664 35.08-10.317.482-.812.901-1.662 1.253-2.543" stroke="#DE5846" stroke-width="2" stroke-linecap="round" fill="none"/><path d="M193.913 180.249c-4.312-2.869 3.498-13.333 17.444-23.373 13.947-10.04 28.748-15.853 33.061-12.984 4.312 2.869-3.498 13.333-17.445 23.373-13.947 10.04-28.748 15.85-33.06 12.984z" stroke="#5452CE" stroke-width="2" stroke-linecap="round" fill="none"/><path d="M241.989 147.228c-1.237 4.311-7.615 11.273-16.998 18.028-10.627 7.649-21.789 12.643-27.615 12.675" stroke="var(--migration-banner-primary-300, #99C7EE)" stroke-width="2" stroke-linecap="round" fill="none"/><path d="M193.447 179.927s7.018 7.715 8.764 8.899c1.586 1.074 4.572.911 8.414-.254m6.92-2.744a99.787 99.787 0 0015.168-9.113m3.984-3.018c8.682-6.929 13.957-13.645 13.627-17.202-.075-.804-4.999-11.539-4.999-11.539M182.712 37.001c9.874-6.094 21.964-3.65 27.005 5.465 5.042 9.114 1.125 21.44-8.748 27.535-8.751 5.402-19.244 4.095-25.026-2.618" stroke="#5452CE" stroke-width="2" stroke-linecap="round" fill="none"/><path d="M176.228 63.115c4.307 7.785 14.636 9.875 23.071 4.669 8.435-5.207 11.781-15.74 7.474-23.525-4.307-7.785-14.637-9.875-23.072-4.669-.732.452-1.425.944-2.079 1.471" stroke="var(--migration-banner-primary-300, #99C7EE)" stroke-width="2" stroke-linecap="round" fill="none"/><path d="M182.156 30.824c9.329-4.284 20.075-1.586 24.694 6.763a180.476 180.476 0 001.954 3.376" stroke="#5452CE" stroke-width="2" stroke-linecap="round" fill="none"/><path d="M236.36 223.17c-8.507 6.054-17.525 10.553-26.684 13.48M232.952 218.424s-31.596 32.812-77.614 14.96" stroke="var(--migration-banner-primary-300, #99C7EE)" stroke-width="2" stroke-linecap="round" fill="none"/><path d="M232.756 218.611l-1.681-2.3a1.26 1.26 0 01-.232-.6 1.314 1.314 0 01.474-1.168c.17-.136.37-.224.58-.255l10.907-1.606c.21-.031.423-.004.618.079.195.082.364.217.491.391.128.174.208.38.233.599.026.219-.004.442-.087.646l-4.316 10.622a1.299 1.299 0 01-.387.52 1.205 1.205 0 01-.58.255 1.16 1.16 0 01-1.111-.47l-1.548-2.117M110.626 40.297c5.609-7.952 12.083-14.877 19.113-20.62M114.795 42.68s17.943-37.716 62.276-40.97" stroke="var(--migration-banner-primary-300, #99C7EE)" stroke-width="2" stroke-linecap="round" fill="none"/><path d="M114.949 42.54l2.066 1.157a.898.898 0 01.364.38c.081.16.116.346.101.537-.015.19-.08.38-.188.55-.107.17-.254.315-.426.418l-8.884 5.358a1.18 1.18 0 01-.55.17.979.979 0 01-.527-.119.901.901 0 01-.363-.378 1.002 1.002 0 01-.102-.536l.784-9.895c.015-.19.08-.38.188-.55.107-.17.254-.314.426-.418.171-.103.361-.163.55-.172.19-.009.372.032.528.12l1.903 1.066" stroke="var(--migration-banner-primary-300, #99C7EE)" stroke-width="2" stroke-linecap="round" fill="none"/><path d="M320.103 33v2h-6.627v7h-1.893v-7h-6.627v-2h6.627v-7h1.893v7h6.627zM320.103 55v2h-6.627v7h-1.893v-7h-6.627v-2h6.627v-7h1.893v7h6.627zM299.276 33v2h-6.626v7h-1.894v-7h-6.626v-2h6.626v-7h1.894v7h6.626zM299.276 55v2h-6.626v7h-1.894v-7h-6.626v-2h6.626v-7h1.894v7h6.626zM299.276 77v2h-6.626v7h-1.894v-7h-6.626v-2h6.626v-7h1.894v7h6.626zM278.45 33v2h-6.627v7h-1.893v-7h-6.627v-2h6.627v-7h1.893v7h6.627zM257.623 33v2h-6.627v7h-1.893v-7h-6.627v-2h6.627v-7h1.893v7h6.627zM278.45 55v2h-6.627v7h-1.893v-7h-6.627v-2h6.627v-7h1.893v7h6.627zM278.45 11v2h-6.627v7h-1.893v-7h-6.627v-2h6.627V4h1.893v7h6.627zM95.742 202v2h-6.626v7h-1.894v-7h-6.626v-2h6.626v-7h1.894v7h6.626zM74.915 180v2H68.29v7h-1.894v-7H59.77v-2h6.627v-7h1.893v7h6.626zM74.915 202v2H68.29v7h-1.894v-7H59.77v-2h6.627v-7h1.893v7h6.626zM74.915 224v2H68.29v7h-1.894v-7H59.77v-2h6.627v-7h1.893v7h6.626zM54.089 180v2h-6.627v7h-1.893v-7h-6.627v-2h6.627v-7h1.893v7h6.627zM33.262 180v2h-6.627v7h-1.893v-7h-6.627v-2h6.627v-7h1.893v7h6.627zM54.089 202v2h-6.627v7h-1.893v-7h-6.627v-2h6.627v-7h1.893v7h6.627zM54.089 158v2h-6.627v7h-1.893v-7h-6.627v-2h6.627v-7h1.893v7h6.627z" fill="var(--migration-banner-primary-300, #99C7EE)"/></svg>