<svg width="464" height="250" viewBox="0 0 464 250" xmlns="http://www.w3.org/2000/svg">
<path d="M287.036 202.234L354.707 243.541C357.585 245.296 360.85 246.221 364.174 246.221C367.497 246.221 370.762 245.296 373.64 243.541L445.601 199.654C448.479 197.899 450.869 195.374 452.531 192.334C454.192 189.293 455.067 185.845 455.067 182.334V94.5611C455.067 91.0503 454.193 87.6013 452.531 84.5608C450.869 81.5203 448.479 78.9955 445.601 77.2401L404.83 52.375M257.149 184L277.03 196.129" stroke="#5452CE" stroke-width="2" stroke-linecap="round" fill="none"/>
<path d="M291.788 175.611V105.998C291.788 102.487 292.663 99.0385 294.325 95.9982C295.987 92.9579 298.377 90.4333 301.255 88.6779L354.708 56.0779C357.586 54.3226 360.851 53.3984 364.175 53.3984C367.498 53.3984 370.763 54.3226 373.641 56.0779L427.094 88.6779C429.972 90.4333 432.362 92.9579 434.024 95.9982C435.686 99.0385 436.561 102.487 436.561 105.998V145.859M273.783 171.233L354.708 221.118C357.586 222.873 360.851 223.797 364.175 223.797C367.498 223.797 370.763 222.873 373.641 221.118L397.73 206.427M410.138 198.859L427.094 188.518C429.972 186.763 432.362 184.238 434.024 181.198C435.686 178.157 436.561 174.709 436.561 171.198V158.859" stroke="#5452CE" stroke-width="2" stroke-linecap="round" fill="none"/>
<path d="M369.803 245.359C361.283 248.359 354.886 249.691 349.028 246.118L320.412 228.478M304.107 218.427C285.466 206.934 259.583 191.234 259.583 191.234" stroke="#5452CE" stroke-width="2" stroke-linecap="round" fill="none"/>
<path fill-rule="evenodd" clip-rule="evenodd" d="M365.644 117.853L310.636 179L365.644 85L420.251 179L365.644 117.853ZM340.861 159.376L349.652 149.564H381.486L390.277 159.376H340.861ZM355.907 142.736L365.631 132.212L375.221 142.736H355.907Z" fill="var(--migration-banner-hint-200, #D6D5FF)"/>
<path d="M365.644 117.853L366.39 117.187L365.647 116.355L364.901 117.184L365.644 117.853ZM310.636 179L309.773 178.495L311.38 179.669L310.636 179ZM365.644 85L366.509 84.4977L365.647 83.0147L364.781 84.4949L365.644 85ZM420.251 179L419.505 179.666L421.116 178.498L420.251 179ZM340.861 159.376L340.116 158.709L338.622 160.376H340.861V159.376ZM349.652 149.564V148.564H349.205L348.907 148.897L349.652 149.564ZM381.486 149.564L382.231 148.897L381.933 148.564H381.486V149.564ZM390.277 159.376V160.376H392.515L391.022 158.709L390.277 159.376ZM355.907 142.736L355.172 142.057L353.621 143.736H355.907V142.736ZM365.631 132.212L366.37 131.539L365.636 130.733L364.897 131.534L365.631 132.212ZM375.221 142.736V143.736H377.485L375.96 142.062L375.221 142.736ZM364.901 117.184L309.893 178.331L311.38 179.669L366.387 118.522L364.901 117.184ZM311.499 179.505L366.507 85.5051L364.781 84.4949L309.773 178.495L311.499 179.505ZM364.779 85.5023L419.387 179.502L421.116 178.498L366.509 84.4977L364.779 85.5023ZM420.997 178.334L366.39 117.187L364.898 118.519L419.505 179.666L420.997 178.334ZM341.606 160.043L350.397 150.231L348.907 148.897L340.116 158.709L341.606 160.043ZM349.652 150.564H381.486V148.564H349.652V150.564ZM380.741 150.231L389.532 160.043L391.022 158.709L382.231 148.897L380.741 150.231ZM390.277 158.376H340.861V160.376H390.277V158.376ZM356.641 143.415L366.366 132.891L364.897 131.534L355.172 142.057L356.641 143.415ZM364.892 132.886L374.481 143.409L375.96 142.062L366.37 131.539L364.892 132.886ZM375.221 141.736H355.907V143.736H375.221V141.736Z" fill="#5452CE"/>
<path d="M90.4246 131.737C90.4246 131.737 111.855 118.228 125.291 93.6454C132.162 81.2386 138.436 68.4733 144.089 55.3984C144.089 55.3984 122.126 100.547 100.608 96.3984C92.21 121.326 90.4246 131.737 90.4246 131.737Z" fill="var(--migration-banner-danger-200, #FEB8AE)"/>
<path d="M159.709 120.508C159.709 120.508 181.727 128.508 208.664 69.4922C206.344 76.3342 198.819 95.2202 186.277 118.162C170.246 147.495 151.975 165.501 151.975 165.501C151.975 165.501 144.621 163.156 159.709 120.508Z" fill="var(--migration-banner-hint-200, #D6D5FF)"/>
<path d="M253.661 97.6797C253.661 97.6797 238.528 134.969 226.235 124.728C225.029 126.935 221.363 139.359 221.71 149.602C221.877 154.566 224.747 145.073 227.537 147.602C231.797 146.102 233.69 144.602 236.46 143.602C240.084 135.959 243.845 127.17 246.4 119.962C252.465 102.852 253.661 97.6797 253.661 97.6797Z" fill="var(--migration-banner-hint-200, #D6D5FF)"/>
<path d="M84.5154 127.973L90.5637 83.75" stroke="#DE5846" stroke-width="2" stroke-linecap="round" fill="none"/>
<path d="M88.5458 66.6184C86.9279 77.3744 82.3072 115.318 81.1315 125.162C79.9557 135.006 87.5347 134.196 93.7146 129.126C99.8945 124.056 120.369 110.092 143.142 55.3984" stroke="#DE5846" stroke-width="2" stroke-linecap="round" fill="none"/>
<path d="M57.434 144.098C57.1046 150.733 70.2898 172.268 98.4248 156.485C126.56 140.702 147.599 108.73 167.007 66.9849C179.326 40.4899 177.69 21.5659 170.245 14.7969" stroke="#DE5846" stroke-width="2" stroke-linecap="round" fill="none"/>
<path d="M87.2703 166.207C87.2703 166.207 121.686 162.924 159.393 93.9327C174.299 66.6617 189.001 26.2428 169.718 14.4818C150.435 2.72075 109.615 48.3908 90.5496 127.202" stroke="#DE5846" stroke-width="2" stroke-linecap="round" fill="none"/>
<path d="M110.877 159.732C110.877 159.732 108.7 175.468 118.632 181.526C128.564 187.584 166.135 172.441 208.966 68.9375" stroke="#DE5846" stroke-width="2" stroke-linecap="round" fill="none"/>
<path d="M89.2484 171.025C89.2484 171.025 87.0181 194.149 102.917 203.846C117.949 213.013 147.626 225.846 201.042 143.062" stroke="#DE5846" stroke-width="2" stroke-linecap="round" fill="none"/>
<path d="M210.526 127.762C214.526 120.911 218.175 113.838 221.457 106.574C234.691 77.6959 247.268 38.1359 233.8 29.9219" stroke="#5452CE" stroke-width="2" stroke-linecap="round" fill="none"/>
<path d="M128.306 216.654C128.306 216.654 169.18 215.033 219.041 123.805C228.624 106.271 256.753 43.9224 233.798 29.9234C227.532 26.102 219.126 29.1926 210.021 36.9974M149.66 158.161C153.735 130.946 165.563 100.921 179.555 76.6016" stroke="#5452CE" stroke-width="2" stroke-linecap="round" fill="none"/>
<path d="M154.51 207.124C154.51 207.124 190.199 267.446 255.036 164.559C282.802 120.501 281.365 83.4215 273.806 78.8125" stroke="#5452CE" stroke-width="2" stroke-linecap="round" fill="none"/>
<path d="M196.77 227.798C196.77 227.798 226.779 224.498 260.703 167.368C288.771 120.104 285.682 86.0455 274.335 79.1275C253.647 66.5144 220.43 118.878 221.69 149.602" stroke="#5452CE" stroke-width="2" stroke-linecap="round" fill="none"/>
<path d="M174.05 189.359C174.691 195.458 185.18 201.299 200.08 191.701M253.961 97.125C248.193 115.227 241.881 131.226 236.053 143.602" stroke="#5452CE" stroke-width="2" stroke-linecap="round" fill="none"/>
<path d="M60.7401 87.937C46.6908 79.5414 29.3983 83.3246 22.1159 96.3874C14.8334 109.45 20.3193 126.846 34.3695 135.243C48.4197 143.641 65.7117 139.855 72.9938 126.793C80.2758 113.73 74.7881 96.3311 60.7401 87.937Z" stroke="#DE5846" stroke-width="2" stroke-linecap="round" fill="none"/>
<path d="M59.4469 89.6408C46.806 82.0868 31.2476 85.4906 24.6951 97.244C18.1426 108.997 23.0788 124.649 35.7198 132.203C48.3607 139.757 63.9191 136.353 70.4716 124.6C77.0241 112.846 72.0871 97.1953 59.4469 89.6408Z" stroke="var(--migration-banner-primary-300, #99C7EE)" stroke-width="2" stroke-linecap="round" fill="none"/>
<path d="M38.7135 129.071C39.3073 126.795 44.6461 104.32 44.6461 104.32C44.7293 104.053 44.7795 103.904 45.1967 104.118C45.1967 104.118 67.3754 117.148 67.7689 117.31C68.0178 117.413 68.0783 117.312 67.7878 117.06C65.9115 115.428 41.389 95.9044 41.389 95.9044C41.2281 95.7596 41.1293 95.8362 41.1068 96.0037C41.1068 96.0037 38.437 128.021 38.4517 129.048C38.4542 129.218 38.5117 129.325 38.5785 129.305C38.6251 129.292 38.6745 129.22 38.7135 129.071ZM44.855 119.858C44.9464 119.824 56.7442 115.459 56.8526 115.418C56.8781 115.405 56.8999 115.386 56.9152 115.361C56.9305 115.337 56.9386 115.308 56.9387 115.279C56.9387 115.25 56.9306 115.222 56.9154 115.199C56.9002 115.175 56.8785 115.156 56.8529 115.146C56.7394 115.074 53.8685 113.31 53.7398 113.235C53.6831 113.202 53.6197 113.182 53.5541 113.177C53.4885 113.172 53.4222 113.182 53.3599 113.206C53.2438 113.249 45.6953 115.968 45.5748 116.013C45.5051 116.048 45.4438 116.099 45.3957 116.162C45.3476 116.225 45.314 116.298 45.2975 116.376C45.267 116.532 44.7979 119.445 44.7555 119.618C44.7132 119.791 44.7599 119.885 44.8458 119.86L44.855 119.858Z" fill="var(--migration-banner-danger-100, #FFE0DA)"/>
<path d="M45.5158 113.104C45.3839 113.153 45.3155 113.126 45.3888 112.819C45.4621 112.512 46.3566 108.629 46.3587 108.423C46.3608 108.217 46.5225 108.073 46.8253 108.253C47.128 108.434 50.6946 110.515 50.8866 110.625C51.0785 110.736 51.2713 110.976 51.1004 111.039L45.5158 113.104Z" fill="var(--migration-banner-danger-100, #FFE0DA)"/>
<path d="M38.7135 129.071C39.3073 126.795 44.6461 104.32 44.6461 104.32C44.7293 104.053 44.7795 103.904 45.1967 104.118C45.1967 104.118 67.3754 117.148 67.7689 117.31C68.0178 117.413 68.0783 117.312 67.7878 117.06C65.9115 115.428 41.389 95.9044 41.389 95.9044C41.2281 95.7596 41.1293 95.8362 41.1068 96.0037C41.1068 96.0037 38.437 128.021 38.4517 129.048C38.4542 129.218 38.5117 129.325 38.5785 129.305C38.6251 129.292 38.6745 129.22 38.7135 129.071ZM44.855 119.858C44.9464 119.824 56.7442 115.459 56.8526 115.418C56.8781 115.405 56.8999 115.386 56.9152 115.361C56.9305 115.337 56.9386 115.308 56.9387 115.279C56.9387 115.25 56.9306 115.222 56.9154 115.199C56.9002 115.175 56.8785 115.156 56.8529 115.146C56.7394 115.074 53.8685 113.31 53.7398 113.235C53.6831 113.202 53.6197 113.182 53.5541 113.177C53.4885 113.172 53.4222 113.182 53.3599 113.206C53.2438 113.249 45.6953 115.968 45.5748 116.013C45.5051 116.048 45.4438 116.099 45.3957 116.162C45.3476 116.225 45.314 116.298 45.2975 116.376C45.267 116.532 44.7979 119.445 44.7555 119.618C44.7132 119.791 44.7599 119.885 44.8458 119.86L44.855 119.858Z" stroke="#DE5846" stroke-width="2" fill="none"/>
<path d="M45.5158 113.104C45.3839 113.153 45.3155 113.126 45.3888 112.819C45.4621 112.512 46.3566 108.629 46.3587 108.423C46.3608 108.217 46.5225 108.073 46.8253 108.253C47.128 108.434 50.6946 110.515 50.8866 110.625C51.0785 110.736 51.2713 110.976 51.1004 111.039L45.5158 113.104Z" stroke="#DE5846" stroke-width="2" fill="none"/>
<path d="M22.0469 96.5384C22.0469 96.5384 19.0798 101.467 18.5942 102.336C15.5886 107.817 14.6264 114.234 15.8978 120.317M18.4104 127.768C21.2311 133.438 25.5503 138.109 30.8635 141.237M34.46 143.095C47.7626 148.944 62.8581 144.759 69.54 132.778C70.0222 131.966 70.4413 131.116 70.7931 130.235" stroke="#DE5846" stroke-width="2" stroke-linecap="round" fill="none"/>
<path d="M193.913 180.249C189.601 177.38 197.411 166.916 211.357 156.876C225.304 146.836 240.105 141.023 244.418 143.892C248.73 146.761 240.92 157.225 226.973 167.265C213.026 177.305 198.225 183.115 193.913 180.249Z" stroke="#5452CE" stroke-width="2" stroke-linecap="round" fill="none"/>
<path d="M241.989 147.228C240.752 151.539 234.374 158.501 224.991 165.256C214.364 172.905 203.202 177.899 197.376 177.931" stroke="var(--migration-banner-primary-300, #99C7EE)" stroke-width="2" stroke-linecap="round" fill="none"/>
<path d="M193.447 179.927C193.447 179.927 200.465 187.642 202.211 188.826C203.797 189.9 206.783 189.737 210.625 188.572M217.545 185.828C222.845 183.255 227.92 180.206 232.713 176.715M236.697 173.697C245.379 166.768 250.654 160.052 250.324 156.495C250.249 155.691 245.325 144.956 245.325 144.956" stroke="#5452CE" stroke-width="2" stroke-linecap="round" fill="none"/>
<path d="M182.712 37.001C192.586 30.9067 204.676 33.3511 209.717 42.4657C214.759 51.5804 210.842 63.9064 200.969 70.0006C192.218 75.4027 181.725 74.096 175.943 67.3827" stroke="#5452CE" stroke-width="2" stroke-linecap="round" fill="none"/>
<path d="M176.228 63.1147C180.535 70.9001 190.864 72.9904 199.299 67.7836C207.734 62.5769 211.08 52.0448 206.773 44.2593C202.466 36.4739 192.136 34.3836 183.701 39.5904C182.969 40.0423 182.276 40.5343 181.622 41.0612" stroke="var(--migration-banner-primary-300, #99C7EE)" stroke-width="2" stroke-linecap="round" fill="none"/>
<path d="M182.156 30.8243C191.485 26.5398 202.231 29.2385 206.85 37.5873C207.541 38.8331 208.804 40.9634 208.804 40.9634" stroke="#5452CE" stroke-width="2" stroke-linecap="round" fill="none"/>
<path d="M236.36 223.17C227.853 229.224 218.835 233.723 209.676 236.65" stroke="var(--migration-banner-primary-300, #99C7EE)" stroke-width="2" stroke-linecap="round" fill="none"/>
<path d="M232.952 218.424C232.952 218.424 201.356 251.236 155.338 233.384" stroke="var(--migration-banner-primary-300, #99C7EE)" stroke-width="2" stroke-linecap="round" fill="none"/>
<path d="M232.756 218.611L231.075 216.311C230.948 216.137 230.868 215.93 230.843 215.711C230.817 215.492 230.848 215.269 230.931 215.064C231.014 214.859 231.148 214.68 231.317 214.543C231.487 214.407 231.687 214.319 231.897 214.288L242.804 212.682C243.014 212.651 243.227 212.678 243.422 212.761C243.617 212.843 243.786 212.978 243.913 213.152C244.041 213.326 244.121 213.532 244.146 213.751C244.172 213.97 244.142 214.193 244.059 214.397L239.743 225.019C239.659 225.223 239.526 225.403 239.356 225.539C239.187 225.675 238.987 225.763 238.776 225.794C238.566 225.825 238.352 225.798 238.157 225.716C237.962 225.633 237.792 225.498 237.665 225.324L236.117 223.207" stroke="var(--migration-banner-primary-300, #99C7EE)" stroke-width="2" stroke-linecap="round" fill="none"/>
<path d="M110.626 40.2968C116.235 32.3448 122.709 25.42 129.739 19.6762" stroke="var(--migration-banner-primary-300, #99C7EE)" stroke-width="2" stroke-linecap="round" fill="none"/>
<path d="M114.795 42.6807C114.795 42.6807 132.738 4.96381 177.071 1.70947" stroke="var(--migration-banner-primary-300, #99C7EE)" stroke-width="2" stroke-linecap="round" fill="none"/>
<path d="M114.949 42.5397L117.015 43.6975C117.172 43.7851 117.297 43.9159 117.379 44.0768C117.46 44.2376 117.495 44.4228 117.48 44.6138C117.465 44.8047 117.4 44.9948 117.292 45.1647C117.185 45.3347 117.038 45.4787 116.866 45.5821L107.982 50.9395C107.811 51.0426 107.621 51.1017 107.432 51.1107C107.243 51.1198 107.061 51.0786 106.905 50.9912C106.749 50.9038 106.624 50.7732 106.542 50.6127C106.46 50.4522 106.425 50.2673 106.44 50.0765L107.224 40.1822C107.239 39.9912 107.304 39.8013 107.412 39.6313C107.519 39.4614 107.666 39.3176 107.838 39.2142C108.009 39.1108 108.199 39.0515 108.388 39.0424C108.578 39.0332 108.76 39.0744 108.916 39.1619L110.819 40.2275" stroke="var(--migration-banner-primary-300, #99C7EE)" stroke-width="2" stroke-linecap="round" fill="none"/>
<path d="M320.103 33V35H313.476V42H311.583V35H304.956V33H311.583V26H313.476V33H320.103Z" fill="var(--migration-banner-primary-300, #99C7EE)"/>
<path d="M320.103 55V57H313.476V64H311.583V57H304.956V55H311.583V48H313.476V55H320.103Z" fill="var(--migration-banner-primary-300, #99C7EE)"/>
<path d="M299.276 33V35H292.65V42H290.756V35H284.13V33H290.756V26H292.65V33H299.276Z" fill="var(--migration-banner-primary-300, #99C7EE)"/>
<path d="M299.276 55V57H292.65V64H290.756V57H284.13V55H290.756V48H292.65V55H299.276Z" fill="var(--migration-banner-primary-300, #99C7EE)"/>
<path d="M299.276 77V79H292.65V86H290.756V79H284.13V77H290.756V70H292.65V77H299.276Z" fill="var(--migration-banner-primary-300, #99C7EE)"/>
<path d="M278.45 33V35H271.823V42H269.93V35H263.303V33H269.93V26H271.823V33H278.45Z" fill="var(--migration-banner-primary-300, #99C7EE)"/>
<path d="M257.623 33V35H250.996V42H249.103V35H242.476V33H249.103V26H250.996V33H257.623Z" fill="var(--migration-banner-primary-300, #99C7EE)"/>
<path d="M278.45 55V57H271.823V64H269.93V57H263.303V55H269.93V48H271.823V55H278.45Z" fill="var(--migration-banner-primary-300, #99C7EE)"/>
<path d="M278.45 11V13H271.823V20H269.93V13H263.303V11H269.93V4H271.823V11H278.45Z" fill="var(--migration-banner-primary-300, #99C7EE)"/>
<path d="M95.7423 202V204H89.1156V211H87.2222V204H80.5955V202H87.2222V195H89.1156V202H95.7423Z" fill="var(--migration-banner-primary-300, #99C7EE)"/>
<path d="M74.9155 180V182H68.2888V189H66.3955V182H59.7688V180H66.3955V173H68.2888V180H74.9155Z" fill="var(--migration-banner-primary-300, #99C7EE)"/>
<path d="M74.9155 202V204H68.2888V211H66.3955V204H59.7688V202H66.3955V195H68.2888V202H74.9155Z" fill="var(--migration-banner-primary-300, #99C7EE)"/>
<path d="M74.9155 224V226H68.2888V233H66.3955V226H59.7688V224H66.3955V217H68.2888V224H74.9155Z" fill="var(--migration-banner-primary-300, #99C7EE)"/>
<path d="M54.0887 180V182H47.462V189H45.5687V182H38.942V180H45.5687V173H47.462V180H54.0887Z" fill="var(--migration-banner-primary-300, #99C7EE)"/>
<path d="M33.262 180V182H26.6353V189H24.7419V182H18.1152V180H24.7419V173H26.6353V180H33.262Z" fill="var(--migration-banner-primary-300, #99C7EE)"/>
<path d="M54.0887 202V204H47.462V211H45.5687V204H38.942V202H45.5687V195H47.462V202H54.0887Z" fill="var(--migration-banner-primary-300, #99C7EE)"/>
<path d="M54.0887 158V160H47.462V167H45.5687V160H38.942V158H45.5687V151H47.462V158H54.0887Z" fill="var(--migration-banner-primary-300, #99C7EE)"/>
</svg>
